<svg width="24" height="24" viewBox="0 0 24 24" fill="none" xmlns="http://www.w3.org/2000/svg">
    <g clip-path="url(#clip0_1173_10906)">
        <path d="M23.8399 10.1168L21.4474 5.32995C21.3592 5.15376 21.2372 4.99666 21.0884 4.86762C20.9395 4.73858 20.7667 4.64012 20.5798 4.57788C20.3929 4.51563 20.1955 4.49081 19.999 4.50484C19.8025 4.51887 19.6107 4.57147 19.4345 4.65964L17.103 5.82495L12.1914 4.52557C12.0654 4.49278 11.9331 4.49278 11.807 4.52557L6.89548 5.82495L4.56391 4.65964C4.38774 4.57147 4.19593 4.51887 3.99942 4.50484C3.80292 4.49081 3.60558 4.51563 3.41867 4.57788C3.23175 4.64012 3.05894 4.73858 2.91008 4.86762C2.76122 4.99666 2.63924 5.15376 2.5511 5.32995L0.158602 10.1159C0.0704354 10.2921 0.0178362 10.4839 0.00380791 10.6804C-0.0102204 10.8769 0.0145969 11.0742 0.0768426 11.2611C0.139088 11.448 0.237543 11.6209 0.366585 11.7697C0.495626 11.9186 0.652726 12.0406 0.828914 12.1287L3.36016 13.3953L8.56235 17.1106C8.63901 17.1651 8.72517 17.2049 8.81641 17.2278L14.8164 18.7278C14.9421 18.7593 15.0737 18.7577 15.1986 18.7232C15.3235 18.6887 15.4373 18.6224 15.5289 18.5309L20.6917 13.3671L23.1686 12.1287C23.5242 11.9507 23.7945 11.6388 23.9202 11.2615C24.0459 10.8843 24.0167 10.4725 23.8389 10.1168H23.8399ZM18.6939 13.2453L15.468 10.6615C15.3235 10.5458 15.1412 10.4876 14.9564 10.4981C14.7715 10.5087 14.5971 10.5873 14.4667 10.7187C12.797 12.4006 10.9361 12.1878 9.74923 11.4378L13.803 7.50026H16.7852L19.3361 12.6012L18.6939 13.2453ZM3.89266 6.00026L5.81173 6.95839L3.41454 11.7443L1.49923 10.7871L3.89266 6.00026ZM14.7677 17.1687L9.31985 15.8074L4.70735 12.5131L7.33235 7.26307L11.9992 6.02651L12.918 6.26932L8.69923 10.3643L8.69173 10.3728C8.53292 10.5316 8.4118 10.724 8.33731 10.9359C8.26281 11.1478 8.23684 11.3736 8.26132 11.5969C8.28579 11.8201 8.36009 12.035 8.47872 12.2257C8.59735 12.4164 8.75729 12.5781 8.94673 12.6987C10.8742 13.9296 13.2002 13.7299 15.032 12.2299L17.6242 14.3121L14.7677 17.1687ZM20.5802 11.7434L18.1877 6.96214L20.1058 6.00026L22.4992 10.7871L20.5802 11.7434ZM12.3536 20.4312C12.3131 20.5933 12.2196 20.7372 12.088 20.8401C11.9563 20.9431 11.7941 20.9991 11.627 20.9993C11.5654 20.9992 11.504 20.9917 11.4442 20.9768L7.53767 19.9999C7.44629 19.9774 7.36006 19.9376 7.2836 19.8828L4.81329 18.1184C4.6614 17.9991 4.56136 17.8259 4.53401 17.6347C4.50666 17.4435 4.55411 17.2492 4.66647 17.0921C4.77883 16.9351 4.94745 16.8274 5.13721 16.7915C5.32697 16.7557 5.52324 16.7944 5.68516 16.8996L8.03923 18.5815L11.8117 19.5228C12.0047 19.571 12.1705 19.6939 12.2728 19.8645C12.3752 20.035 12.4056 20.2392 12.3574 20.4321L12.3536 20.4312Z" fill="black"/>
    </g>
    <defs>
        <clipPath id="clip0_1173_10906">
            <rect width="24" height="24" fill="white"/>
        </clipPath>
    </defs>
</svg>
