<svg width="298" height="135" viewBox="0 0 298 135" fill="none" xmlns="http://www.w3.org/2000/svg">
<path d="M151.312 129.035C151.759 129.337 152.377 129.203 152.692 128.735L157.835 121.102C158.15 120.634 158.044 120.009 157.597 119.707C157.15 119.404 156.532 119.539 156.217 120.007L151.646 126.791L145.174 122.409C144.727 122.107 144.109 122.241 143.794 122.71C143.478 123.178 143.585 123.803 144.031 124.105L151.312 129.035ZM120.69 89.915L121.512 90.4429V90.4429L120.69 89.915ZM158.149 81.6275L159.133 81.7043V81.7043L158.149 81.6275ZM151.883 128.187L152.859 127.974C151.043 117.301 146.609 102.322 140.877 92.6251C139.44 90.1938 137.905 88.0667 136.288 86.4162C134.676 84.7707 132.938 83.554 131.087 83.0233C129.205 82.4832 127.26 82.6711 125.334 83.7391C123.44 84.79 121.62 86.6599 119.868 89.387L120.69 89.915L121.512 90.4429C123.154 87.8861 124.741 86.3263 126.225 85.5036C127.677 84.6979 129.082 84.5682 130.478 84.9686C131.906 85.3782 133.376 86.3599 134.858 87.8724C136.335 89.38 137.781 91.3707 139.169 93.719C144.738 103.14 149.114 117.864 150.907 128.399L151.883 128.187ZM120.69 89.915L119.868 89.387C117.701 92.7621 116.558 95.6425 116.332 98.0519C116.101 100.509 116.83 102.458 118.326 103.829C119.784 105.164 121.875 105.865 124.238 106.095C126.613 106.326 129.352 106.091 132.211 105.465C137.925 104.213 144.259 101.37 149.356 97.3237C154.445 93.2833 158.412 87.9494 159.133 81.7043L158.149 81.6275L157.166 81.5507C156.532 87.0381 153.018 91.9087 148.179 95.7502C143.348 99.5861 137.305 102.302 131.872 103.491C129.158 104.086 126.631 104.292 124.507 104.085C122.371 103.877 120.731 103.262 119.684 102.302C118.675 101.378 118.126 100.055 118.304 98.1614C118.486 96.2204 119.438 93.6728 121.512 90.4429L120.69 89.915ZM158.149 81.6275L159.133 81.7043C161.905 57.697 147.256 46.0521 140.919 43.2842L140.497 44.2147L140.076 45.1453C145.857 47.6702 159.812 58.6288 157.166 81.5507L158.149 81.6275Z" fill="url(#paint0_linear_7_37511)"/>
<path d="M12.1291 17C11.6971 17 11.3131 16.824 11.3131 16.472C11.3131 16.184 11.6011 16.024 11.7931 15.96C12.4971 15.8 12.6571 15.48 12.7531 14.52L13.5371 7.864C13.6331 7.08 13.3931 6.888 12.7691 6.696C12.5771 6.616 12.4171 6.44 12.4171 6.216C12.4171 5.8 12.7531 5.736 13.0731 5.736C13.5851 5.736 14.2891 5.8 14.7051 5.8C15.3131 5.8 15.5211 5.896 15.6331 6.168C15.6811 6.296 15.7131 6.472 15.7451 6.648C15.7931 6.824 15.8411 7.016 15.9531 7.272L18.3531 13.064C18.4171 13.208 18.4971 13.256 18.5611 13.256C18.6411 13.256 18.7051 13.16 18.7371 13.064L21.0091 7.256C21.0891 7.064 21.1371 6.888 21.1531 6.728C21.1851 6.504 21.1851 6.344 21.2171 6.184C21.2651 5.944 21.4251 5.8 22.0171 5.8C22.7851 5.8 23.0411 5.768 23.7611 5.768C24.2891 5.768 24.6091 5.928 24.6091 6.28C24.6091 6.504 24.3851 6.712 24.1771 6.792C23.5531 6.952 23.4091 7.096 23.4891 7.912L24.0971 14.664C24.1771 15.496 24.3211 15.8 25.0411 15.96C25.2491 16.024 25.5531 16.152 25.5531 16.456C25.5531 16.888 25.1051 17 24.9131 17H21.2491C20.7691 17 20.3851 16.856 20.3851 16.472C20.3851 16.232 20.6251 16.04 20.8331 15.976C21.5051 15.816 21.6971 15.624 21.6491 14.872L21.3131 10.056C21.2971 9.928 21.2331 9.864 21.1691 9.864C21.0891 9.864 21.0411 9.96 20.9771 10.104L18.2411 16.584C18.1291 16.84 18.0171 16.984 17.8571 16.984C17.6811 16.984 17.5531 16.824 17.4571 16.616L14.6091 10.104C14.5291 9.928 14.4651 9.864 14.4171 9.864C14.3371 9.864 14.2731 9.896 14.2571 10.056L13.8411 14.936C13.7611 15.768 14.1291 15.864 14.7851 15.976C15.0891 16.056 15.2171 16.248 15.2171 16.488C15.2171 16.776 14.9771 17 14.4171 17H12.1291ZM28.7744 17.192C26.8704 17.192 26.1824 16.12 26.1824 14.936C26.1824 13.448 27.6064 12.488 29.7024 12.376C30.8224 12.312 31.0304 12.2 30.9664 11.736L30.9344 11.4C30.8224 10.584 30.5024 10.104 29.7504 10.104C29.0944 10.104 28.5664 10.488 28.4864 11.24C28.3744 11.784 28.0064 12.072 27.4144 12.072C27.0624 12.072 26.6784 11.8 26.6784 11.304C26.6784 10.008 28.3104 9.048 30.2944 9.048C32.4064 9.048 33.0944 10.088 33.3024 11.784L33.6704 14.632C33.7664 15.4 33.9584 15.528 34.1984 15.528C34.5344 15.528 34.5984 15.256 34.7904 15.256C34.9344 15.256 35.0944 15.352 35.0944 15.64C35.0944 16.296 34.3744 17.128 33.3824 17.128C32.4544 17.128 32.0384 16.68 31.7984 15.96C31.7664 15.864 31.7024 15.8 31.6544 15.8C31.4464 15.8 31.1584 17.192 28.7744 17.192ZM29.8464 15.88C30.7264 15.88 31.4304 15.08 31.2704 13.88L31.2384 13.688C31.1744 13.208 30.9664 13.176 30.1984 13.176C28.9984 13.176 28.5664 13.784 28.5664 14.536C28.5664 15.416 29.0304 15.88 29.8464 15.88ZM36.2804 17.064C35.4324 17.064 35.1444 16.888 35.1444 16.552C35.1444 16.312 35.2884 16.184 35.4804 16.12C36.2804 15.848 36.2964 15.416 36.2964 14.504V8.024C36.2964 7.592 36.2484 7.272 35.8804 7.24C35.4804 7.208 35.1284 7.176 35.1284 6.872C35.1124 6.536 35.4164 6.424 35.7844 6.296C36.5524 6.024 37.4644 5.704 38.0084 5.704C38.4724 5.704 38.6484 5.848 38.6484 6.264V11.928C38.6484 12.344 38.8564 12.408 39.1284 12.136L40.5044 10.76C40.8244 10.44 40.9204 10.184 40.4244 10.088C40.2804 10.024 40.1364 9.912 40.1364 9.656C40.1364 9.304 40.5524 9.224 40.9524 9.224H43.2084C43.5924 9.224 43.9924 9.24 43.9924 9.704C43.9924 10.104 43.7524 10.216 43.4804 10.232C42.7764 10.28 42.4244 10.456 42.1044 10.776L41.4484 11.432C41.1764 11.704 41.2084 11.832 41.3684 12.072L43.4644 15.176C43.9124 15.816 44.0724 15.896 44.4564 15.992C44.6644 16.056 44.8884 16.248 44.8884 16.504C44.8884 16.888 44.4884 17.064 43.9764 17.064C43.2244 17.048 42.7284 17.048 41.9444 17.064C41.0164 17.064 40.7924 16.872 40.7924 16.552C40.7924 16.312 41.0004 16.2 41.0484 15.992C41.2084 15.896 41.3364 15.832 41.1284 15.528L39.8484 13.672C39.6404 13.368 39.4484 13.368 39.2404 13.56L38.8724 13.912C38.6804 14.072 38.6484 14.248 38.6484 14.744V15C38.6484 15.432 38.6644 15.8 39.4804 16.088C39.6884 16.184 39.8324 16.328 39.8324 16.552C39.8324 16.904 39.5924 17.064 38.7604 17.064C37.7684 17.048 37.2084 17.048 36.2804 17.064ZM48.8628 17.192C46.3348 17.192 44.8628 15.272 44.8628 13.064C44.8628 10.648 46.7348 9.08 48.9268 9.08C51.0708 9.08 52.2388 10.648 52.2388 11.816C52.2388 12.648 51.8708 12.904 50.9748 13.032L47.7748 13.496C47.5508 13.528 47.4868 13.592 47.4868 13.752C47.4868 14.52 48.2388 15.624 49.6148 15.624C50.6388 15.624 51.3428 15.112 51.7108 14.648C51.7908 14.568 51.8868 14.504 51.9668 14.504C52.3188 14.504 52.3668 14.856 52.3028 15.032C51.9348 16.056 50.8788 17.192 48.8628 17.192ZM49.5508 12.136C49.9028 12.072 50.0468 11.928 50.0468 11.656C50.0468 11.016 49.4868 10.104 48.6228 10.104C47.7908 10.104 47.2148 10.792 47.2148 11.944C47.2148 12.504 47.3268 12.52 47.6308 12.456L49.5508 12.136ZM60.1188 17.192C58.2148 17.192 57.5268 16.12 57.5268 14.936C57.5268 13.448 58.9508 12.488 61.0468 12.376C62.1668 12.312 62.3748 12.2 62.3108 11.736L62.2788 11.4C62.1668 10.584 61.8468 10.104 61.0948 10.104C60.4388 10.104 59.9108 10.488 59.8308 11.24C59.7188 11.784 59.3508 12.072 58.7588 12.072C58.4068 12.072 58.0228 11.8 58.0228 11.304C58.0228 10.008 59.6548 9.048 61.6388 9.048C63.7508 9.048 64.4388 10.088 64.6468 11.784L65.0148 14.632C65.1108 15.4 65.3028 15.528 65.5428 15.528C65.8788 15.528 65.9428 15.256 66.1348 15.256C66.2788 15.256 66.4388 15.352 66.4388 15.64C66.4388 16.296 65.7188 17.128 64.7268 17.128C63.7988 17.128 63.3828 16.68 63.1428 15.96C63.1108 15.864 63.0468 15.8 62.9988 15.8C62.7908 15.8 62.5028 17.192 60.1188 17.192ZM61.1908 15.88C62.0708 15.88 62.7748 15.08 62.6148 13.88L62.5828 13.688C62.5188 13.208 62.3108 13.176 61.5428 13.176C60.3428 13.176 59.9108 13.784 59.9108 14.536C59.9108 15.416 60.3748 15.88 61.1908 15.88ZM70.2176 17.192C68.7296 17.192 66.7456 16.52 66.7456 14.952C66.7456 14.456 67.0336 14.104 67.5296 14.104C67.9296 14.104 68.2336 14.248 68.5216 14.888C68.7136 15.576 69.2256 16.152 70.3136 16.152C71.3216 16.152 71.7376 15.784 71.7376 15.272C71.7376 13.752 67.0496 14.824 67.0496 11.496C67.0496 9.864 68.3296 9.048 70.1856 9.048C71.6416 9.048 73.4976 9.72 73.4976 11.224C73.4976 11.64 73.2416 12.024 72.7456 12.024C72.3616 12.024 72.0576 11.88 71.7856 11.304C71.6096 10.664 71.1776 10.104 70.2496 10.104C69.5456 10.104 69.0976 10.44 69.0976 10.904C69.0976 12.536 73.7856 11.48 73.7856 14.712C73.7856 16.424 72.3136 17.192 70.2176 17.192ZM82.4236 14.76C82.4236 15.432 82.4396 15.8 83.2076 16.104C83.3836 16.2 83.5436 16.312 83.5436 16.552C83.5436 16.904 83.3196 17.096 81.9436 17.096H80.5996C79.2716 17.096 78.9836 16.904 78.9836 16.552C78.9836 16.328 79.1116 16.2 79.3196 16.104C80.0556 15.8 80.0716 15.4 80.0716 14.776V11.464C80.0716 11.032 80.0076 10.776 79.6556 10.68C79.2556 10.6 78.9036 10.632 78.8876 10.312C78.8716 9.992 79.1756 9.88 79.5436 9.736C80.3116 9.48 81.2396 9.144 81.7836 9.144C82.2316 9.144 82.4236 9.272 82.4236 9.704V10.28C82.4236 10.616 82.4556 10.68 82.5036 10.68C82.5996 10.68 83.0956 9.048 85.0956 9.048C86.0716 9.048 86.7916 9.544 87.1916 10.472C87.2876 10.68 87.3196 10.68 87.3676 10.68C87.5436 10.68 87.8636 9.048 89.8316 9.048C91.0956 9.048 92.1356 9.768 92.3756 11.864L92.7116 15.016C92.7596 15.432 92.8076 15.768 93.5276 16.104C93.7196 16.216 93.8796 16.312 93.8796 16.552C93.8796 16.904 93.6716 17.096 92.3276 17.096H90.9516C89.7356 17.096 89.4476 16.904 89.4476 16.552C89.4476 16.328 89.5756 16.216 89.7516 16.12C90.4076 15.848 90.4076 15.416 90.3756 15.032L90.0876 12.28C89.9756 11.192 89.5436 10.68 88.8556 10.68C88.2476 10.68 87.4796 11.32 87.4796 12.824V14.52C87.4796 15.432 87.4956 15.8 88.0076 16.056C88.1836 16.216 88.3436 16.312 88.3436 16.552C88.3436 16.904 88.1356 17.096 87.0156 17.096H85.6556C84.5676 17.096 84.2796 16.904 84.2796 16.552C84.2796 16.328 84.4236 16.216 84.6156 16.056C85.0956 15.8 85.1276 15.416 85.1276 14.536V12.472C85.1276 11.064 84.5676 10.68 83.8956 10.68C83.3196 10.68 82.4236 11.24 82.4236 12.92V14.76ZM96.7288 17.192C94.8248 17.192 94.1368 16.12 94.1368 14.936C94.1368 13.448 95.5608 12.488 97.6568 12.376C98.7768 12.312 98.9848 12.2 98.9208 11.736L98.8888 11.4C98.7768 10.584 98.4568 10.104 97.7048 10.104C97.0488 10.104 96.5208 10.488 96.4408 11.24C96.3288 11.784 95.9608 12.072 95.3688 12.072C95.0168 12.072 94.6328 11.8 94.6328 11.304C94.6328 10.008 96.2648 9.048 98.2488 9.048C100.361 9.048 101.049 10.088 101.257 11.784L101.625 14.632C101.721 15.4 101.913 15.528 102.153 15.528C102.489 15.528 102.553 15.256 102.745 15.256C102.889 15.256 103.049 15.352 103.049 15.64C103.049 16.296 102.329 17.128 101.337 17.128C100.409 17.128 99.9928 16.68 99.7528 15.96C99.7208 15.864 99.6568 15.8 99.6088 15.8C99.4008 15.8 99.1128 17.192 96.7288 17.192ZM97.8008 15.88C98.6808 15.88 99.3848 15.08 99.2248 13.88L99.1928 13.688C99.1288 13.208 98.9208 13.176 98.1528 13.176C96.9528 13.176 96.5208 13.784 96.5208 14.536C96.5208 15.416 96.9848 15.88 97.8008 15.88ZM106.635 14.76C106.635 15.432 106.651 15.8 107.419 16.104C107.595 16.2 107.755 16.312 107.755 16.552C107.755 16.904 107.531 17.096 106.155 17.096H104.811C103.483 17.096 103.195 16.904 103.195 16.552C103.195 16.328 103.323 16.2 103.531 16.104C104.267 15.8 104.283 15.4 104.283 14.776V11.464C104.283 11.032 104.219 10.776 103.867 10.68C103.467 10.6 103.115 10.632 103.099 10.312C103.083 9.992 103.387 9.88 103.755 9.736C104.523 9.48 105.451 9.144 105.995 9.144C106.443 9.144 106.635 9.272 106.635 9.704V10.488C106.635 10.632 106.667 10.68 106.699 10.68C106.859 10.68 107.227 9.048 109.323 9.048C110.667 9.048 111.739 9.8 111.979 12.008L112.315 15.016C112.347 15.432 112.395 15.768 113.115 16.104C113.307 16.216 113.467 16.312 113.467 16.552C113.467 16.904 113.259 17.096 111.915 17.096H110.539C109.323 17.096 109.035 16.904 109.035 16.552C109.035 16.328 109.163 16.216 109.355 16.12C109.995 15.848 109.995 15.416 109.963 15.032L109.675 12.408C109.547 11.224 109.131 10.68 108.251 10.68C107.547 10.68 106.635 11.368 106.635 12.952V14.76ZM114.22 19.864C113.116 19.864 112.428 19.256 112.428 18.344C112.428 17.784 112.86 17.352 113.372 17.352C113.82 17.352 114.124 17.592 114.268 17.96C114.38 18.296 114.524 18.824 114.812 18.824C115.148 18.824 115.676 18.296 116.06 17.848C116.252 17.624 116.236 17.512 115.9 16.68C115.132 14.664 114.444 12.632 113.884 11.08C113.692 10.536 113.5 10.344 113.148 10.232C112.956 10.136 112.78 9.944 112.78 9.72C112.78 9.288 113.116 9.176 113.916 9.176C114.78 9.192 115.388 9.192 116.252 9.176C117.26 9.176 117.404 9.368 117.404 9.704C117.404 9.944 117.244 10.072 117.116 10.136C116.444 10.392 116.236 10.584 116.396 11.016C116.764 12.056 117.26 13.592 117.724 14.744C117.836 15 118.028 14.936 118.124 14.744C118.796 13.624 119.308 12.664 119.308 11.96C119.308 11.416 119.1 11.192 118.844 11C118.508 10.664 118.332 10.264 118.332 9.928C118.332 9.4 118.764 9.064 119.372 9.064C120.332 9.064 120.764 10.152 120.764 11.192C120.764 12.712 119.244 15.288 118.14 16.776C116.924 18.408 115.548 19.864 114.22 19.864ZM128.076 17.032L127.74 17.048C127.02 17.048 126.108 17.016 126.108 16.456C126.108 16.168 126.284 16.024 126.588 15.848C127.228 15.576 127.404 15.288 127.404 14.456V8.328C127.404 7.496 127.228 7.208 126.572 6.952C126.268 6.776 126.108 6.632 126.092 6.344C126.092 5.8 126.988 5.752 127.708 5.736H128.06C129.228 5.752 129.932 5.688 131.084 5.688C134.38 5.688 136.076 7.08 136.076 9.272C136.076 11.448 134.364 12.68 131.324 12.68H130.364C129.98 12.664 129.852 12.792 129.852 13.144V14.248C129.852 15.16 130.076 15.48 130.908 15.768C131.292 15.944 131.5 16.104 131.5 16.408C131.5 17.016 130.348 17.048 129.42 17.048L128.988 17.032H128.076ZM129.852 10.648C129.836 11.336 130.012 11.56 130.492 11.56H131.116C132.668 11.56 133.34 10.68 133.34 9.544C133.34 7.832 132.268 6.904 130.812 6.904H130.364C129.98 6.888 129.852 7.016 129.852 7.368V10.648ZM139.917 14.76C139.917 15.432 139.949 15.8 140.701 16.104C140.877 16.2 141.037 16.312 141.037 16.552C141.037 16.904 140.813 17.096 139.437 17.096H138.093C136.765 17.096 136.477 16.904 136.477 16.552C136.477 16.328 136.605 16.2 136.813 16.104C137.549 15.8 137.565 15.4 137.565 14.776V11.464C137.565 11.032 137.501 10.776 137.149 10.68C136.749 10.6 136.397 10.632 136.381 10.312C136.365 9.992 136.669 9.88 137.037 9.736C137.805 9.48 138.733 9.144 139.277 9.144C139.725 9.144 139.917 9.272 139.917 9.704V10.376C139.917 10.488 139.933 10.68 139.981 10.68C140.125 10.68 140.541 9.048 142.221 9.048C143.261 9.048 143.885 9.736 143.885 10.968C143.885 11.64 143.453 12.424 142.653 12.424C142.221 12.424 141.741 12.184 141.789 11.544C141.837 11.288 141.853 10.744 141.213 10.744C140.541 10.744 139.917 11.688 139.917 13.016V14.76ZM148.671 17.192C146.079 17.192 144.287 15.464 144.287 13.112C144.287 10.744 146.095 9.048 148.671 9.048C151.263 9.048 153.055 10.76 153.055 13.112C153.055 15.496 151.263 17.192 148.671 17.192ZM148.959 16.152C149.887 16.152 150.559 15.336 150.559 13.928C150.559 12.424 149.775 10.12 148.367 10.12C147.471 10.12 146.767 10.92 146.767 12.36C146.767 13.864 147.519 16.152 148.959 16.152ZM156.878 14.76C156.878 15.432 156.894 15.8 157.662 16.104C157.838 16.2 157.998 16.312 157.998 16.552C157.998 16.904 157.774 17.096 156.398 17.096H155.054C153.726 17.096 153.438 16.904 153.438 16.552C153.438 16.328 153.566 16.2 153.774 16.104C154.51 15.8 154.526 15.4 154.526 14.776V11.464C154.526 11.032 154.462 10.776 154.11 10.68C153.71 10.6 153.358 10.632 153.342 10.312C153.326 9.992 153.63 9.88 153.998 9.736C154.766 9.48 155.694 9.144 156.238 9.144C156.686 9.144 156.878 9.272 156.878 9.704V10.28C156.878 10.616 156.91 10.68 156.958 10.68C157.054 10.68 157.55 9.048 159.55 9.048C160.526 9.048 161.246 9.544 161.646 10.472C161.742 10.68 161.774 10.68 161.822 10.68C161.998 10.68 162.318 9.048 164.286 9.048C165.55 9.048 166.59 9.768 166.83 11.864L167.166 15.016C167.214 15.432 167.262 15.768 167.982 16.104C168.174 16.216 168.334 16.312 168.334 16.552C168.334 16.904 168.126 17.096 166.782 17.096H165.406C164.19 17.096 163.902 16.904 163.902 16.552C163.902 16.328 164.03 16.216 164.206 16.12C164.862 15.848 164.862 15.416 164.83 15.032L164.542 12.28C164.43 11.192 163.998 10.68 163.31 10.68C162.702 10.68 161.934 11.32 161.934 12.824V14.52C161.934 15.432 161.95 15.8 162.462 16.056C162.638 16.216 162.798 16.312 162.798 16.552C162.798 16.904 162.59 17.096 161.47 17.096H160.11C159.022 17.096 158.734 16.904 158.734 16.552C158.734 16.328 158.878 16.216 159.07 16.056C159.55 15.8 159.582 15.416 159.582 14.536V12.472C159.582 11.064 159.022 10.68 158.35 10.68C157.774 10.68 156.878 11.24 156.878 12.92V14.76ZM169.647 11.464C169.647 11.032 169.583 10.776 169.231 10.68C168.831 10.6 168.479 10.632 168.463 10.312C168.447 9.992 168.751 9.88 169.119 9.736C169.887 9.48 170.815 9.144 171.359 9.144C171.807 9.144 171.999 9.272 171.999 9.704V14.76C171.999 15.432 172.015 15.8 172.783 16.104C172.959 16.2 173.119 16.312 173.119 16.552C173.119 16.904 172.895 17.096 171.519 17.096H170.175C168.847 17.096 168.559 16.904 168.559 16.552C168.559 16.328 168.687 16.2 168.895 16.104C169.631 15.8 169.647 15.4 169.647 14.776V11.464ZM170.271 8.152C169.551 8.152 169.151 7.896 169.151 7.368C169.151 6.632 170.063 6.04 171.183 6.024C171.871 6.008 172.271 6.36 172.271 6.824C172.271 7.672 171.391 8.136 170.271 8.152ZM176.985 17.192C175.497 17.192 173.513 16.52 173.513 14.952C173.513 14.456 173.801 14.104 174.297 14.104C174.697 14.104 175.001 14.248 175.289 14.888C175.481 15.576 175.993 16.152 177.081 16.152C178.089 16.152 178.505 15.784 178.505 15.272C178.505 13.752 173.817 14.824 173.817 11.496C173.817 9.864 175.097 9.048 176.953 9.048C178.409 9.048 180.265 9.72 180.265 11.224C180.265 11.64 180.009 12.024 179.513 12.024C179.129 12.024 178.825 11.88 178.553 11.304C178.377 10.664 177.945 10.104 177.017 10.104C176.313 10.104 175.865 10.44 175.865 10.904C175.865 12.536 180.553 11.48 180.553 14.712C180.553 16.424 179.081 17.192 176.985 17.192ZM185.193 17.192C182.665 17.192 181.193 15.272 181.193 13.064C181.193 10.648 183.065 9.08 185.257 9.08C187.401 9.08 188.569 10.648 188.569 11.816C188.569 12.648 188.201 12.904 187.305 13.032L184.105 13.496C183.881 13.528 183.817 13.592 183.817 13.752C183.817 14.52 184.569 15.624 185.945 15.624C186.969 15.624 187.673 15.112 188.041 14.648C188.121 14.568 188.217 14.504 188.297 14.504C188.649 14.504 188.697 14.856 188.633 15.032C188.265 16.056 187.209 17.192 185.193 17.192ZM185.881 12.136C186.233 12.072 186.377 11.928 186.377 11.656C186.377 11.016 185.817 10.104 184.953 10.104C184.121 10.104 183.545 10.792 183.545 11.944C183.545 12.504 183.657 12.52 183.961 12.456L185.881 12.136ZM192.79 17.192C191.302 17.192 189.318 16.52 189.318 14.952C189.318 14.456 189.606 14.104 190.102 14.104C190.502 14.104 190.806 14.248 191.094 14.888C191.286 15.576 191.798 16.152 192.886 16.152C193.894 16.152 194.31 15.784 194.31 15.272C194.31 13.752 189.622 14.824 189.622 11.496C189.622 9.864 190.902 9.048 192.758 9.048C194.214 9.048 196.07 9.72 196.07 11.224C196.07 11.64 195.814 12.024 195.318 12.024C194.934 12.024 194.63 11.88 194.358 11.304C194.182 10.664 193.75 10.104 192.822 10.104C192.118 10.104 191.67 10.44 191.67 10.904C191.67 12.536 196.358 11.48 196.358 14.712C196.358 16.424 194.886 17.192 192.79 17.192ZM204.18 17.192C202.276 17.192 201.588 16.12 201.588 14.936C201.588 13.448 203.012 12.488 205.108 12.376C206.228 12.312 206.436 12.2 206.372 11.736L206.34 11.4C206.228 10.584 205.908 10.104 205.156 10.104C204.5 10.104 203.972 10.488 203.892 11.24C203.78 11.784 203.412 12.072 202.82 12.072C202.468 12.072 202.084 11.8 202.084 11.304C202.084 10.008 203.716 9.048 205.7 9.048C207.812 9.048 208.5 10.088 208.708 11.784L209.076 14.632C209.172 15.4 209.364 15.528 209.604 15.528C209.94 15.528 210.004 15.256 210.196 15.256C210.34 15.256 210.5 15.352 210.5 15.64C210.5 16.296 209.78 17.128 208.788 17.128C207.86 17.128 207.444 16.68 207.204 15.96C207.172 15.864 207.108 15.8 207.06 15.8C206.852 15.8 206.564 17.192 204.18 17.192ZM205.252 15.88C206.132 15.88 206.836 15.08 206.676 13.88L206.644 13.688C206.58 13.208 206.372 13.176 205.604 13.176C204.404 13.176 203.972 13.784 203.972 14.536C203.972 15.416 204.436 15.88 205.252 15.88ZM214.279 17.192C212.791 17.192 210.807 16.52 210.807 14.952C210.807 14.456 211.095 14.104 211.591 14.104C211.991 14.104 212.295 14.248 212.583 14.888C212.775 15.576 213.287 16.152 214.375 16.152C215.383 16.152 215.799 15.784 215.799 15.272C215.799 13.752 211.111 14.824 211.111 11.496C211.111 9.864 212.391 9.048 214.247 9.048C215.703 9.048 217.559 9.72 217.559 11.224C217.559 11.64 217.303 12.024 216.807 12.024C216.423 12.024 216.119 11.88 215.847 11.304C215.671 10.664 215.239 10.104 214.311 10.104C213.607 10.104 213.159 10.44 213.159 10.904C213.159 12.536 217.847 11.48 217.847 14.712C217.847 16.424 216.375 17.192 214.279 17.192ZM224.261 19.864C223.157 19.864 222.469 19.256 222.469 18.344C222.469 17.784 222.901 17.352 223.413 17.352C223.861 17.352 224.165 17.592 224.309 17.96C224.421 18.296 224.565 18.824 224.853 18.824C225.189 18.824 225.717 18.296 226.101 17.848C226.293 17.624 226.277 17.512 225.941 16.68C225.173 14.664 224.485 12.632 223.925 11.08C223.733 10.536 223.541 10.344 223.189 10.232C222.997 10.136 222.821 9.944 222.821 9.72C222.821 9.288 223.157 9.176 223.957 9.176C224.821 9.192 225.429 9.192 226.293 9.176C227.301 9.176 227.445 9.368 227.445 9.704C227.445 9.944 227.285 10.072 227.157 10.136C226.485 10.392 226.277 10.584 226.437 11.016C226.805 12.056 227.301 13.592 227.765 14.744C227.877 15 228.069 14.936 228.165 14.744C228.837 13.624 229.349 12.664 229.349 11.96C229.349 11.416 229.141 11.192 228.885 11C228.549 10.664 228.373 10.264 228.373 9.928C228.373 9.4 228.805 9.064 229.413 9.064C230.373 9.064 230.805 10.152 230.805 11.192C230.805 12.712 229.285 15.288 228.181 16.776C226.965 18.408 225.589 19.864 224.261 19.864ZM235.801 17.192C233.209 17.192 231.417 15.464 231.417 13.112C231.417 10.744 233.225 9.048 235.801 9.048C238.393 9.048 240.185 10.76 240.185 13.112C240.185 15.496 238.393 17.192 235.801 17.192ZM236.089 16.152C237.017 16.152 237.689 15.336 237.689 13.928C237.689 12.424 236.905 10.12 235.497 10.12C234.601 10.12 233.897 10.92 233.897 12.36C233.897 13.864 234.649 16.152 236.089 16.152ZM244.261 17.176C242.853 17.176 241.621 16.376 241.621 14.152V11.464C241.621 11.032 241.557 10.776 241.205 10.68C240.805 10.6 240.453 10.632 240.437 10.312C240.421 9.992 240.725 9.88 241.093 9.736C241.861 9.48 242.789 9.144 243.333 9.144C243.781 9.144 243.973 9.272 243.973 9.704V13.784C243.973 15.112 244.485 15.56 245.333 15.56C246.117 15.56 246.965 14.808 246.965 13.256V11.464C246.965 11.032 246.901 10.776 246.549 10.68C246.149 10.6 245.797 10.632 245.781 10.312C245.765 9.992 246.069 9.88 246.437 9.736C247.205 9.48 248.133 9.144 248.677 9.144C249.125 9.144 249.317 9.272 249.317 9.704V14.776C249.317 15.208 249.381 15.464 249.733 15.56C250.133 15.64 250.485 15.608 250.501 15.928C250.517 16.248 250.213 16.36 249.845 16.504C249.077 16.76 248.149 17.096 247.605 17.096C247.157 17.096 246.965 16.968 246.965 16.536V15.832C246.965 15.672 246.949 15.544 246.885 15.544C246.725 15.544 246.213 17.176 244.261 17.176ZM259.641 17.192C257.177 17.192 255.609 15.448 255.609 13.144C255.609 10.76 257.449 9.08 259.529 9.08C261.193 9.08 262.825 10.072 262.825 11.448C262.825 11.896 262.585 12.312 261.961 12.312C261.465 12.312 261.161 11.992 260.953 11.4C260.745 10.616 260.361 10.104 259.513 10.104C258.713 10.104 258.009 10.888 258.009 12.28C258.009 14.168 258.793 15.624 260.393 15.624C261.305 15.624 262.041 15.16 262.409 14.68C262.521 14.568 262.649 14.504 262.713 14.504C263.033 14.504 263.113 14.792 263.049 15.032C262.697 16.12 261.609 17.192 259.641 17.192ZM266.291 17.192C264.387 17.192 263.699 16.12 263.699 14.936C263.699 13.448 265.123 12.488 267.219 12.376C268.339 12.312 268.547 12.2 268.483 11.736L268.451 11.4C268.339 10.584 268.019 10.104 267.267 10.104C266.611 10.104 266.083 10.488 266.003 11.24C265.891 11.784 265.523 12.072 264.931 12.072C264.579 12.072 264.195 11.8 264.195 11.304C264.195 10.008 265.827 9.048 267.811 9.048C269.923 9.048 270.611 10.088 270.819 11.784L271.187 14.632C271.283 15.4 271.475 15.528 271.715 15.528C272.051 15.528 272.115 15.256 272.307 15.256C272.451 15.256 272.611 15.352 272.611 15.64C272.611 16.296 271.891 17.128 270.899 17.128C269.971 17.128 269.555 16.68 269.315 15.96C269.283 15.864 269.219 15.8 269.171 15.8C268.963 15.8 268.675 17.192 266.291 17.192ZM267.363 15.88C268.243 15.88 268.947 15.08 268.787 13.88L268.755 13.688C268.691 13.208 268.483 13.176 267.715 13.176C266.515 13.176 266.083 13.784 266.083 14.536C266.083 15.416 266.547 15.88 267.363 15.88ZM276.197 14.76C276.197 15.432 276.213 15.8 276.981 16.104C277.157 16.2 277.317 16.312 277.317 16.552C277.317 16.904 277.093 17.096 275.717 17.096H274.373C273.045 17.096 272.757 16.904 272.757 16.552C272.757 16.328 272.885 16.2 273.093 16.104C273.829 15.8 273.845 15.4 273.845 14.776V11.464C273.845 11.032 273.781 10.776 273.429 10.68C273.029 10.6 272.677 10.632 272.661 10.312C272.645 9.992 272.949 9.88 273.317 9.736C274.085 9.48 275.013 9.144 275.557 9.144C276.005 9.144 276.197 9.272 276.197 9.704V10.488C276.197 10.632 276.229 10.68 276.261 10.68C276.421 10.68 276.789 9.048 278.885 9.048C280.229 9.048 281.301 9.8 281.541 12.008L281.877 15.016C281.909 15.432 281.957 15.768 282.677 16.104C282.869 16.216 283.029 16.312 283.029 16.552C283.029 16.904 282.821 17.096 281.477 17.096H280.101C278.885 17.096 278.597 16.904 278.597 16.552C278.597 16.328 278.725 16.216 278.917 16.12C279.557 15.848 279.557 15.416 279.525 15.032L279.237 12.408C279.109 11.224 278.693 10.68 277.813 10.68C277.109 10.68 276.197 11.368 276.197 12.952V14.76ZM284.9 17.176C284.084 17.176 283.572 16.632 283.652 15.832C283.716 15.016 284.34 14.424 285.14 14.424C285.972 14.424 286.516 15 286.436 15.832C286.372 16.616 285.732 17.176 284.9 17.176ZM33.7542 36C33.1142 36 32.8902 35.904 32.8902 35.504C32.8902 35.248 33.1302 35.04 33.3222 34.912C34.0102 34.528 34.1862 34.224 34.1862 33.44V32.304C34.1862 31.872 33.9942 31.312 33.7222 30.848L31.4982 26.88C31.1462 26.256 30.8742 26.08 30.3302 25.968C30.0902 25.872 29.8982 25.712 29.8982 25.36C29.8982 24.88 30.2822 24.8 30.9382 24.8H34.0902C35.0182 24.8 35.2102 25.04 35.2102 25.296C35.2102 25.616 35.0342 25.76 34.8102 25.888C34.2182 26.08 34.0422 26.288 34.2982 26.736L35.8502 29.456C35.9942 29.712 36.1702 29.728 36.3142 29.456L37.8982 26.576C38.1542 26.112 37.8982 25.952 37.3222 25.76C37.0822 25.616 37.0502 25.488 37.0502 25.312C37.0502 24.88 37.3542 24.8 37.8822 24.8H40.0742C40.5222 24.8 40.8262 24.912 40.7942 25.28C40.7782 25.632 40.4422 25.776 40.1862 25.92C39.7222 26.064 39.6102 26.24 39.2102 26.928L37.0182 30.704C36.7942 31.088 36.6502 31.632 36.6502 32.304V33.44C36.6502 34.24 36.8422 34.544 37.5142 34.912C37.7382 35.056 37.9462 35.232 37.9462 35.504C37.9462 35.792 37.8022 36.016 37.1782 36.016L33.7542 36ZM43.4243 36.192C40.8323 36.192 39.0403 34.464 39.0403 32.112C39.0403 29.744 40.8483 28.048 43.4243 28.048C46.0163 28.048 47.8083 29.76 47.8083 32.112C47.8083 34.496 46.0163 36.192 43.4243 36.192ZM43.7123 35.152C44.6403 35.152 45.3123 34.336 45.3123 32.928C45.3123 31.424 44.5283 29.12 43.1203 29.12C42.2243 29.12 41.5203 29.92 41.5203 31.36C41.5203 32.864 42.2723 35.152 43.7123 35.152ZM51.8839 36.176C50.4759 36.176 49.2439 35.376 49.2439 33.152V30.464C49.2439 30.032 49.1799 29.776 48.8279 29.68C48.4279 29.6 48.0759 29.632 48.0599 29.312C48.0439 28.992 48.3479 28.88 48.7159 28.736C49.4839 28.48 50.4119 28.144 50.9559 28.144C51.4039 28.144 51.5959 28.272 51.5959 28.704V32.784C51.5959 34.112 52.1079 34.56 52.9559 34.56C53.7399 34.56 54.5879 33.808 54.5879 32.256V30.464C54.5879 30.032 54.5239 29.776 54.1719 29.68C53.7719 29.6 53.4199 29.632 53.4039 29.312C53.3879 28.992 53.6919 28.88 54.0599 28.736C54.8279 28.48 55.7559 28.144 56.2999 28.144C56.7479 28.144 56.9399 28.272 56.9399 28.704V33.776C56.9399 34.208 57.0039 34.464 57.3559 34.56C57.7559 34.64 58.1079 34.608 58.1239 34.928C58.1399 35.248 57.8359 35.36 57.4679 35.504C56.6999 35.76 55.7719 36.096 55.2279 36.096C54.7799 36.096 54.5879 35.968 54.5879 35.536V34.832C54.5879 34.672 54.5719 34.544 54.5079 34.544C54.3479 34.544 53.8359 36.176 51.8839 36.176ZM61.9092 33.76C61.9092 34.432 61.9412 34.8 62.6932 35.104C62.8692 35.2 63.0292 35.312 63.0292 35.552C63.0292 35.904 62.8052 36.096 61.4292 36.096H60.0852C58.7572 36.096 58.4692 35.904 58.4692 35.552C58.4692 35.328 58.5972 35.2 58.8052 35.104C59.5412 34.8 59.5572 34.4 59.5572 33.776V30.464C59.5572 30.032 59.4932 29.776 59.1412 29.68C58.7412 29.6 58.3892 29.632 58.3732 29.312C58.3572 28.992 58.6612 28.88 59.0292 28.736C59.7972 28.48 60.7252 28.144 61.2692 28.144C61.7172 28.144 61.9092 28.272 61.9092 28.704V29.376C61.9092 29.488 61.9252 29.68 61.9732 29.68C62.1172 29.68 62.5332 28.048 64.2132 28.048C65.2532 28.048 65.8772 28.736 65.8772 29.968C65.8772 30.64 65.4452 31.424 64.6452 31.424C64.2132 31.424 63.7332 31.184 63.7812 30.544C63.8292 30.288 63.8452 29.744 63.2052 29.744C62.5332 29.744 61.9092 30.688 61.9092 32.016V33.76ZM71.8443 36.016C71.2203 36.016 70.9803 35.888 70.9803 35.504C70.9803 35.248 71.2203 35.04 71.4123 34.912C72.1643 34.528 72.2763 34.24 72.2763 33.376V27.424C72.2763 26.56 72.1643 26.256 71.4123 25.888C71.2203 25.776 70.9803 25.552 70.9803 25.296C70.9803 24.896 71.2203 24.8 71.8443 24.8H75.1563C75.7003 24.8 75.8923 24.896 75.8923 25.296C75.8923 25.552 75.7003 25.76 75.5243 25.888C74.8523 26.272 74.7563 26.576 74.7563 27.424V29.232C74.7563 29.632 74.9003 29.712 75.1723 29.424L77.5723 27.104C78.1803 26.496 78.1643 26.144 77.5883 25.808C77.4123 25.648 77.3003 25.472 77.3003 25.28C77.3003 24.832 77.7323 24.752 78.5803 24.752H80.5483C81.2043 24.752 81.7163 24.848 81.7163 25.312C81.7163 25.744 81.4123 25.872 81.0443 25.952C80.4523 26.032 80.1003 26.096 79.3803 26.88L78.1803 28.112C78.0203 28.304 78.0683 28.624 78.1803 28.832L81.1083 34.096C81.4123 34.656 81.7163 34.816 82.2443 34.928C82.5163 35.008 82.6763 35.232 82.6763 35.472C82.6763 35.904 82.2763 36.016 81.7643 36.016C80.6923 36 79.6363 36 78.5643 36.016C78.1483 36.016 77.7803 35.92 77.7803 35.504C77.7803 35.216 77.9723 35.072 78.1963 34.976C78.6603 34.832 78.6763 34.592 78.3403 33.984L76.5323 30.88C76.2603 30.368 75.9883 30.416 75.7323 30.672L75.1243 31.296C74.9483 31.472 74.7563 31.728 74.7563 32.16V33.376C74.7563 34.24 74.8683 34.544 75.5723 34.912C75.7483 35.024 75.9723 35.264 75.9723 35.504C75.9723 35.904 75.7483 36.016 75.1723 36.016C73.6843 36 73.3643 36 71.8443 36.016ZM86.4591 36.192C83.9311 36.192 82.4591 34.272 82.4591 32.064C82.4591 29.648 84.3311 28.08 86.5231 28.08C88.6671 28.08 89.8351 29.648 89.8351 30.816C89.8351 31.648 89.4671 31.904 88.5711 32.032L85.3711 32.496C85.1471 32.528 85.0831 32.592 85.0831 32.752C85.0831 33.52 85.8351 34.624 87.2111 34.624C88.2351 34.624 88.9391 34.112 89.3071 33.648C89.3871 33.568 89.4831 33.504 89.5631 33.504C89.9151 33.504 89.9631 33.856 89.8991 34.032C89.5311 35.056 88.4751 36.192 86.4591 36.192ZM87.1471 31.136C87.4991 31.072 87.6431 30.928 87.6431 30.656C87.6431 30.016 87.0831 29.104 86.2191 29.104C85.3871 29.104 84.8111 29.792 84.8111 30.944C84.8111 31.504 84.9231 31.52 85.2271 31.456L87.1471 31.136ZM94.5647 36.192C92.0367 36.192 90.5647 34.272 90.5647 32.064C90.5647 29.648 92.4367 28.08 94.6287 28.08C96.7727 28.08 97.9407 29.648 97.9407 30.816C97.9407 31.648 97.5727 31.904 96.6767 32.032L93.4767 32.496C93.2527 32.528 93.1887 32.592 93.1887 32.752C93.1887 33.52 93.9407 34.624 95.3167 34.624C96.3407 34.624 97.0447 34.112 97.4127 33.648C97.4927 33.568 97.5887 33.504 97.6687 33.504C98.0207 33.504 98.0687 33.856 98.0047 34.032C97.6367 35.056 96.5807 36.192 94.5647 36.192ZM95.2527 31.136C95.6047 31.072 95.7487 30.928 95.7487 30.656C95.7487 30.016 95.1887 29.104 94.3247 29.104C93.4927 29.104 92.9167 29.792 92.9167 30.944C92.9167 31.504 93.0287 31.52 93.3327 31.456L95.2527 31.136ZM101.921 36.544C101.921 37.216 101.937 37.584 102.705 37.888C102.881 37.984 103.041 38.096 103.041 38.336C103.041 38.688 102.817 38.88 101.441 38.88H100.097C98.7689 38.88 98.4809 38.688 98.4809 38.336C98.4809 38.112 98.6089 37.984 98.8169 37.888C99.5529 37.584 99.5689 37.184 99.5689 36.56V30.464C99.5689 30.032 99.5049 29.776 99.1529 29.68C98.7529 29.6 98.4009 29.632 98.3849 29.312C98.3689 28.992 98.6729 28.88 99.0409 28.736C99.8089 28.48 100.737 28.144 101.281 28.144C101.729 28.144 101.921 28.272 101.921 28.704V29.392C101.921 29.616 101.937 29.728 102.001 29.728C102.145 29.728 102.737 28.048 104.673 28.048C106.257 28.048 107.633 29.392 107.633 31.808C107.633 34.336 105.969 36.192 103.793 36.192C102.689 36.192 102.129 35.44 102.017 35.44C101.953 35.44 101.921 35.536 101.921 35.76V36.544ZM103.633 35.168C104.497 35.168 105.185 34.384 105.185 32.704C105.185 30.928 104.577 29.68 103.473 29.68C102.465 29.68 101.921 30.72 101.921 32.128V32.384C101.921 34.24 102.641 35.168 103.633 35.168ZM109.453 36.176C108.637 36.176 108.125 35.632 108.205 34.832C108.269 34.016 108.893 33.424 109.693 33.424C110.525 33.424 111.069 34 110.989 34.832C110.925 35.616 110.285 36.176 109.453 36.176ZM114.379 36.192C112.475 36.192 111.787 35.12 111.787 33.936C111.787 32.448 113.211 31.488 115.307 31.376C116.427 31.312 116.635 31.2 116.571 30.736L116.539 30.4C116.427 29.584 116.107 29.104 115.355 29.104C114.699 29.104 114.171 29.488 114.091 30.24C113.979 30.784 113.611 31.072 113.019 31.072C112.667 31.072 112.283 30.8 112.283 30.304C112.283 29.008 113.915 28.048 115.899 28.048C118.011 28.048 118.699 29.088 118.907 30.784L119.275 33.632C119.371 34.4 119.563 34.528 119.803 34.528C120.139 34.528 120.203 34.256 120.395 34.256C120.539 34.256 120.699 34.352 120.699 34.64C120.699 35.296 119.979 36.128 118.987 36.128C118.059 36.128 117.643 35.68 117.403 34.96C117.371 34.864 117.307 34.8 117.259 34.8C117.051 34.8 116.763 36.192 114.379 36.192ZM115.451 34.88C116.331 34.88 117.035 34.08 116.875 32.88L116.843 32.688C116.779 32.208 116.571 32.176 115.803 32.176C114.603 32.176 114.171 32.784 114.171 33.536C114.171 34.416 114.635 34.88 115.451 34.88ZM121.933 30.464C121.933 30.032 121.869 29.776 121.517 29.68C121.117 29.6 120.765 29.632 120.749 29.312C120.733 28.992 121.037 28.88 121.405 28.736C122.173 28.48 123.101 28.144 123.645 28.144C124.093 28.144 124.285 28.272 124.285 28.704V33.76C124.285 34.432 124.301 34.8 125.069 35.104C125.245 35.2 125.405 35.312 125.405 35.552C125.405 35.904 125.181 36.096 123.805 36.096H122.461C121.133 36.096 120.845 35.904 120.845 35.552C120.845 35.328 120.973 35.2 121.181 35.104C121.917 34.8 121.933 34.4 121.933 33.776V30.464ZM122.557 27.152C121.837 27.152 121.437 26.896 121.437 26.368C121.437 25.632 122.349 25.04 123.469 25.024C124.157 25.008 124.557 25.36 124.557 25.824C124.557 26.672 123.677 27.136 122.557 27.152ZM134.464 36.064C133.792 36.064 133.52 35.904 133.296 35.392C132.56 33.6 131.92 31.824 131.296 30.032C131.104 29.472 130.944 29.36 130.576 29.232C130.368 29.12 130.224 28.992 130.224 28.72C130.224 28.224 130.656 28.176 131.552 28.176C132.288 28.192 132.704 28.192 133.456 28.176C134.512 28.176 134.656 28.384 134.656 28.704C134.656 28.88 134.528 29.056 134.368 29.136C133.792 29.344 133.728 29.664 133.888 30.208C134.144 30.992 134.72 32.592 135.184 33.696C135.28 33.92 135.424 33.872 135.552 33.696C136.224 32.688 136.64 31.792 136.64 31.072C136.64 30.464 136.512 30.192 136.208 29.904C135.952 29.616 135.808 29.312 135.808 29.008C135.808 28.624 136.032 28.064 137.088 28.064H137.152C138 28.064 138.672 28.56 138.672 29.808C138.672 30.016 138.608 30.304 138.608 30.4C138.608 30.656 139.2 32.656 139.728 33.696C139.84 33.92 139.984 33.84 140.08 33.696C140.8 32.608 141.232 31.792 141.232 30.992C141.232 30.56 141.136 30.256 140.736 29.872C140.528 29.648 140.352 29.28 140.352 28.928C140.352 28.304 140.848 28.064 141.424 28.064C142.368 28.064 142.752 29.056 142.752 30.144C142.752 31.536 141.92 33.296 140.608 35.056C140.08 35.776 139.76 36.064 139.216 36.064H139.104C138.576 36.064 138.352 35.92 138.096 35.392C137.808 34.736 137.536 34.08 137.232 33.312C137.152 33.136 137.072 33.168 137.008 33.264C136.656 34.032 136.256 34.672 135.808 35.296C135.456 35.776 135.12 36.064 134.56 36.064H134.464ZM144.438 30.464C144.438 30.032 144.374 29.776 144.022 29.68C143.622 29.6 143.27 29.632 143.254 29.312C143.238 28.992 143.542 28.88 143.91 28.736C144.678 28.48 145.606 28.144 146.15 28.144C146.598 28.144 146.79 28.272 146.79 28.704V33.76C146.79 34.432 146.806 34.8 147.574 35.104C147.75 35.2 147.91 35.312 147.91 35.552C147.91 35.904 147.686 36.096 146.31 36.096H144.966C143.638 36.096 143.35 35.904 143.35 35.552C143.35 35.328 143.478 35.2 143.686 35.104C144.422 34.8 144.438 34.4 144.438 33.776V30.464ZM145.062 27.152C144.342 27.152 143.942 26.896 143.942 26.368C143.942 25.632 144.854 25.04 145.974 25.024C146.662 25.008 147.062 25.36 147.062 25.824C147.062 26.672 146.182 27.136 145.062 27.152ZM151.723 33.76C151.723 34.432 151.739 34.8 152.507 35.104C152.683 35.2 152.843 35.312 152.843 35.552C152.843 35.904 152.619 36.096 151.243 36.096H149.899C148.571 36.096 148.283 35.904 148.283 35.552C148.283 35.328 148.411 35.2 148.619 35.104C149.355 34.8 149.371 34.4 149.371 33.776V27.024C149.371 26.592 149.307 26.336 148.955 26.24C148.555 26.16 148.203 26.192 148.187 25.872C148.171 25.552 148.475 25.44 148.843 25.296C149.611 25.04 150.539 24.704 151.083 24.704C151.531 24.704 151.723 24.832 151.723 25.264V33.76ZM156.657 33.76C156.657 34.432 156.673 34.8 157.441 35.104C157.617 35.2 157.777 35.312 157.777 35.552C157.777 35.904 157.553 36.096 156.177 36.096H154.833C153.505 36.096 153.217 35.904 153.217 35.552C153.217 35.328 153.345 35.2 153.553 35.104C154.289 34.8 154.305 34.4 154.305 33.776V27.024C154.305 26.592 154.241 26.336 153.889 26.24C153.489 26.16 153.137 26.192 153.121 25.872C153.105 25.552 153.409 25.44 153.777 25.296C154.545 25.04 155.473 24.704 156.017 24.704C156.465 24.704 156.657 24.832 156.657 25.264V33.76ZM165.428 36.192C163.524 36.192 162.836 35.12 162.836 33.936C162.836 32.448 164.26 31.488 166.356 31.376C167.476 31.312 167.684 31.2 167.62 30.736L167.588 30.4C167.476 29.584 167.156 29.104 166.404 29.104C165.748 29.104 165.22 29.488 165.14 30.24C165.028 30.784 164.66 31.072 164.068 31.072C163.716 31.072 163.332 30.8 163.332 30.304C163.332 29.008 164.964 28.048 166.948 28.048C169.06 28.048 169.748 29.088 169.956 30.784L170.324 33.632C170.42 34.4 170.612 34.528 170.852 34.528C171.188 34.528 171.252 34.256 171.444 34.256C171.588 34.256 171.748 34.352 171.748 34.64C171.748 35.296 171.028 36.128 170.036 36.128C169.108 36.128 168.692 35.68 168.452 34.96C168.42 34.864 168.356 34.8 168.308 34.8C168.1 34.8 167.812 36.192 165.428 36.192ZM166.5 34.88C167.38 34.88 168.084 34.08 167.924 32.88L167.892 32.688C167.828 32.208 167.62 32.176 166.852 32.176C165.652 32.176 165.22 32.784 165.22 33.536C165.22 34.416 165.684 34.88 166.5 34.88ZM175.942 36.192C173.478 36.192 171.91 34.448 171.91 32.144C171.91 29.76 173.75 28.08 175.83 28.08C177.494 28.08 179.126 29.072 179.126 30.448C179.126 30.896 178.886 31.312 178.262 31.312C177.766 31.312 177.462 30.992 177.254 30.4C177.046 29.616 176.662 29.104 175.814 29.104C175.014 29.104 174.31 29.888 174.31 31.28C174.31 33.168 175.094 34.624 176.694 34.624C177.606 34.624 178.342 34.16 178.71 33.68C178.822 33.568 178.95 33.504 179.014 33.504C179.334 33.504 179.414 33.792 179.35 34.032C178.998 35.12 177.91 36.192 175.942 36.192ZM183.378 36.16C181.826 36.16 180.818 35.44 180.818 33.52V29.648C180.818 29.408 180.69 29.28 180.45 29.28H180.162C179.874 29.28 179.746 29.024 179.746 28.832C179.746 28.64 179.842 28.4 180.05 28.144C180.674 27.344 180.946 27.024 181.458 26.544C181.89 26.16 182.338 25.984 182.754 25.984C183.09 25.984 183.17 26.176 183.17 26.56V27.536C183.17 28.176 183.202 28.24 183.49 28.24H185.554C185.826 28.24 185.938 28.272 185.938 28.624C185.938 29.056 185.682 29.28 185.346 29.28H183.57C183.346 29.28 183.154 29.376 183.154 29.664V33.168C183.154 34.112 183.586 34.576 184.274 34.576C184.626 34.576 185.17 34.432 185.57 33.92C185.858 33.584 186.258 33.808 186.162 34.176C185.826 35.488 184.866 36.16 183.378 36.16ZM187.677 30.464C187.677 30.032 187.613 29.776 187.261 29.68C186.861 29.6 186.509 29.632 186.493 29.312C186.477 28.992 186.781 28.88 187.149 28.736C187.917 28.48 188.845 28.144 189.389 28.144C189.837 28.144 190.029 28.272 190.029 28.704V33.76C190.029 34.432 190.045 34.8 190.813 35.104C190.989 35.2 191.149 35.312 191.149 35.552C191.149 35.904 190.925 36.096 189.549 36.096H188.205C186.877 36.096 186.589 35.904 186.589 35.552C186.589 35.328 186.717 35.2 186.925 35.104C187.661 34.8 187.677 34.4 187.677 33.776V30.464ZM188.301 27.152C187.581 27.152 187.181 26.896 187.181 26.368C187.181 25.632 188.093 25.04 189.213 25.024C189.901 25.008 190.301 25.36 190.301 25.824C190.301 26.672 189.421 27.136 188.301 27.152ZM194.96 36.064C194.304 36.064 194.032 35.92 193.808 35.392C193.088 33.584 192.528 31.824 191.84 30.032C191.632 29.488 191.488 29.36 191.12 29.232C190.912 29.12 190.768 28.992 190.768 28.72C190.768 28.224 191.2 28.176 192.096 28.176C192.944 28.192 193.312 28.192 194.304 28.176C195.232 28.176 195.392 28.432 195.392 28.752C195.392 28.928 195.296 29.104 194.992 29.232C194.368 29.376 194.272 29.632 194.4 30.096C194.672 30.992 195.248 32.576 195.696 33.696C195.792 33.936 195.936 33.888 196.08 33.696C196.848 32.704 197.264 31.872 197.264 31.072C197.264 30.608 197.136 30.256 196.816 29.968C196.432 29.536 196.352 29.184 196.352 28.896C196.352 28.304 196.912 28.048 197.344 28.048C198.352 28.048 198.736 29.264 198.736 30.208C198.736 31.744 197.6 33.664 196.496 35.056C195.968 35.776 195.632 36.064 195.072 36.064H194.96ZM201.784 36.192C199.88 36.192 199.192 35.12 199.192 33.936C199.192 32.448 200.616 31.488 202.712 31.376C203.832 31.312 204.04 31.2 203.976 30.736L203.944 30.4C203.832 29.584 203.512 29.104 202.76 29.104C202.104 29.104 201.576 29.488 201.496 30.24C201.384 30.784 201.016 31.072 200.424 31.072C200.072 31.072 199.688 30.8 199.688 30.304C199.688 29.008 201.32 28.048 203.304 28.048C205.416 28.048 206.104 29.088 206.312 30.784L206.68 33.632C206.776 34.4 206.968 34.528 207.208 34.528C207.544 34.528 207.608 34.256 207.8 34.256C207.944 34.256 208.104 34.352 208.104 34.64C208.104 35.296 207.384 36.128 206.392 36.128C205.464 36.128 205.048 35.68 204.808 34.96C204.776 34.864 204.712 34.8 204.664 34.8C204.456 34.8 204.168 36.192 201.784 36.192ZM202.856 34.88C203.736 34.88 204.44 34.08 204.28 32.88L204.248 32.688C204.184 32.208 203.976 32.176 203.208 32.176C202.008 32.176 201.576 32.784 201.576 33.536C201.576 34.416 202.04 34.88 202.856 34.88ZM211.598 36.16C210.046 36.16 209.038 35.44 209.038 33.52V29.648C209.038 29.408 208.91 29.28 208.67 29.28H208.382C208.094 29.28 207.966 29.024 207.966 28.832C207.966 28.64 208.062 28.4 208.27 28.144C208.894 27.344 209.166 27.024 209.678 26.544C210.11 26.16 210.558 25.984 210.974 25.984C211.31 25.984 211.39 26.176 211.39 26.56V27.536C211.39 28.176 211.422 28.24 211.71 28.24H213.774C214.046 28.24 214.158 28.272 214.158 28.624C214.158 29.056 213.902 29.28 213.566 29.28H211.79C211.566 29.28 211.374 29.376 211.374 29.664V33.168C211.374 34.112 211.806 34.576 212.494 34.576C212.846 34.576 213.39 34.432 213.79 33.92C214.078 33.584 214.478 33.808 214.382 34.176C214.046 35.488 213.086 36.16 211.598 36.16ZM218.622 36.192C216.094 36.192 214.622 34.272 214.622 32.064C214.622 29.648 216.494 28.08 218.686 28.08C220.83 28.08 221.998 29.648 221.998 30.816C221.998 31.648 221.63 31.904 220.734 32.032L217.534 32.496C217.31 32.528 217.246 32.592 217.246 32.752C217.246 33.52 217.998 34.624 219.374 34.624C220.398 34.624 221.102 34.112 221.47 33.648C221.55 33.568 221.646 33.504 221.726 33.504C222.078 33.504 222.126 33.856 222.062 34.032C221.694 35.056 220.638 36.192 218.622 36.192ZM219.31 31.136C219.662 31.072 219.806 30.928 219.806 30.656C219.806 30.016 219.246 29.104 218.382 29.104C217.55 29.104 216.974 29.792 216.974 30.944C216.974 31.504 217.086 31.52 217.39 31.456L219.31 31.136ZM230.918 36.192C229.43 36.192 227.446 35.52 227.446 33.952C227.446 33.456 227.734 33.104 228.23 33.104C228.63 33.104 228.934 33.248 229.222 33.888C229.414 34.576 229.926 35.152 231.014 35.152C232.022 35.152 232.438 34.784 232.438 34.272C232.438 32.752 227.75 33.824 227.75 30.496C227.75 28.864 229.03 28.048 230.886 28.048C232.342 28.048 234.198 28.72 234.198 30.224C234.198 30.64 233.942 31.024 233.446 31.024C233.062 31.024 232.758 30.88 232.486 30.304C232.31 29.664 231.878 29.104 230.95 29.104C230.246 29.104 229.798 29.44 229.798 29.904C229.798 31.536 234.486 30.48 234.486 33.712C234.486 35.424 233.014 36.192 230.918 36.192ZM239.511 36.192C236.919 36.192 235.127 34.464 235.127 32.112C235.127 29.744 236.935 28.048 239.511 28.048C242.103 28.048 243.895 29.76 243.895 32.112C243.895 34.496 242.103 36.192 239.511 36.192ZM239.799 35.152C240.727 35.152 241.399 34.336 241.399 32.928C241.399 31.424 240.615 29.12 239.207 29.12C238.311 29.12 237.607 29.92 237.607 31.36C237.607 32.864 238.359 35.152 239.799 35.152ZM249.022 36.192C246.43 36.192 244.638 34.464 244.638 32.112C244.638 29.744 246.446 28.048 249.022 28.048C251.614 28.048 253.406 29.76 253.406 32.112C253.406 34.496 251.614 36.192 249.022 36.192ZM249.31 35.152C250.238 35.152 250.91 34.336 250.91 32.928C250.91 31.424 250.126 29.12 248.718 29.12C247.822 29.12 247.118 29.92 247.118 31.36C247.118 32.864 247.87 35.152 249.31 35.152ZM257.23 33.76C257.23 34.432 257.246 34.8 258.014 35.104C258.19 35.2 258.35 35.312 258.35 35.552C258.35 35.904 258.126 36.096 256.75 36.096H255.406C254.078 36.096 253.79 35.904 253.79 35.552C253.79 35.328 253.918 35.2 254.126 35.104C254.862 34.8 254.878 34.4 254.878 33.776V30.464C254.878 30.032 254.814 29.776 254.462 29.68C254.062 29.6 253.71 29.632 253.694 29.312C253.678 28.992 253.982 28.88 254.35 28.736C255.118 28.48 256.046 28.144 256.59 28.144C257.038 28.144 257.23 28.272 257.23 28.704V29.488C257.23 29.632 257.262 29.68 257.294 29.68C257.454 29.68 257.822 28.048 259.918 28.048C261.262 28.048 262.334 28.8 262.574 31.008L262.91 34.016C262.942 34.432 262.99 34.768 263.71 35.104C263.902 35.216 264.062 35.312 264.062 35.552C264.062 35.904 263.854 36.096 262.51 36.096H261.134C259.918 36.096 259.63 35.904 259.63 35.552C259.63 35.328 259.758 35.216 259.95 35.12C260.59 34.848 260.59 34.416 260.558 34.032L260.27 31.408C260.142 30.224 259.726 29.68 258.846 29.68C258.142 29.68 257.23 30.368 257.23 31.952V33.76ZM266.094 32.64C265.806 32.64 265.646 32.416 265.534 32.128C265.23 30.32 264.782 28.224 264.718 26.32C264.702 25.312 265.15 24.592 266.094 24.592C267.038 24.592 267.502 25.28 267.502 26.32C267.438 28.096 266.958 30.288 266.67 32.128C266.542 32.432 266.366 32.64 266.094 32.64ZM266.062 36.176C265.278 36.176 264.702 35.616 264.702 34.848C264.702 34.032 265.278 33.44 266.062 33.44C266.894 33.44 267.502 34.048 267.502 34.848C267.502 35.632 266.894 36.176 266.062 36.176Z" fill="#7A7671"/>
<defs>
<linearGradient id="paint0_linear_7_37511" x1="130.268" y1="46.7062" x2="150.212" y2="128.594" gradientUnits="userSpaceOnUse">
<stop offset="0.0585974" stop-color="#7A7671" stop-opacity="0"/>
<stop offset="1" stop-color="#7A7671"/>
</linearGradient>
</defs>
</svg>
