<svg width="393" height="149" viewBox="0 0 393 149" fill="none" xmlns="http://www.w3.org/2000/svg">
<g opacity="0.5" clip-path="url(#clip0_1236_7543)">
<path d="M132.876 27.3629C105.85 22.9329 78.8245 18.5115 51.7901 14.0815L24.7305 98.1572C45.3618 98.0056 66.683 99.6395 87.3143 99.4963C88.711 104.785 91.7822 109.619 95.9724 113.131C100.709 117.106 106.709 119.321 112.792 120.408C118.875 121.494 127.66 123.836 133.836 123.852C138.606 126.91 143.386 129.958 148.156 133.015C150.058 134.228 152.002 135.466 154.198 135.98C156.394 136.494 160.163 135.424 161.762 133.832C167.702 135.727 175.83 133.647 179.482 128.594C183.681 130.295 189.924 128.476 191.733 124.316C196.209 122.918 198.481 118.454 198.961 113.788C201.005 93.7105 203.184 73.0853 205.237 53.0075C181.156 44.5603 158.077 31.4812 132.885 27.3544L132.876 27.3629Z" fill="#EFB394"/>
<path d="M-2.39828 0L57.4594 9.22196L29.2807 106.672L-13 110.849L-2.39828 0Z" fill="#6258B5"/>
<path d="M13.6562 14.6035C15.0782 15.3446 16.4918 16.0942 17.9138 16.8353" stroke="#CDCDCD" stroke-width="2.28" stroke-linecap="round" stroke-linejoin="round"/>
<path d="M36.0312 19.8838V25.5433" stroke="#CDCDCD" stroke-width="2.28" stroke-linecap="round" stroke-linejoin="round"/>
<path d="M23.2468 35.6162C21.3705 36.7532 19.4857 37.8901 17.6094 39.0271" stroke="#CDCDCD" stroke-width="2.28" stroke-linecap="round" stroke-linejoin="round"/>
<path d="M33.2109 58.0352C34.818 58.4057 36.4167 58.7679 38.0238 59.1384" stroke="#CDCDCD" stroke-width="2.28" stroke-linecap="round" stroke-linejoin="round"/>
<path d="M21.2891 66.5581C21.3732 69.0089 21.4573 71.4596 21.5415 73.9104" stroke="#CDCDCD" stroke-width="2.28" stroke-linecap="round" stroke-linejoin="round"/>
<path d="M9.16406 86.7031C10.8553 87.2758 12.5465 87.8569 14.2377 88.4296" stroke="#CDCDCD" stroke-width="2.28" stroke-linecap="round" stroke-linejoin="round"/>
<path d="M23.9648 97.3148C24.5622 95.723 25.1596 94.1313 25.757 92.5396" stroke="#CDCDCD" stroke-width="2.28" stroke-linecap="round" stroke-linejoin="round"/>
<path d="M10.1133 53.521C10.5676 55.4075 11.022 57.3024 11.4764 59.1889" stroke="#CDCDCD" stroke-width="2.28" stroke-linecap="round" stroke-linejoin="round"/>
<path d="M37.9453 38.168C39.3757 37.25 40.8061 36.332 42.2281 35.4141" stroke="#CDCDCD" stroke-width="2.28" stroke-linecap="round" stroke-linejoin="round"/>
<path d="M44.8047 12.7339C46.5969 13.0202 48.3807 13.3066 50.1729 13.5845" stroke="#CDCDCD" stroke-width="2.28" stroke-linecap="round" stroke-linejoin="round"/>
<path d="M111.082 101.458C122.508 98.9151 133.943 96.3632 145.369 93.8198" stroke="#141414" stroke-width="2.28" stroke-linecap="round" stroke-linejoin="round"/>
<path d="M135.262 125.157C131.997 122.471 128.741 119.776 125.477 117.089C127.622 110.571 129.566 103.749 131.711 97.2304C133.268 96.1356 135.775 96.9778 136.953 98.4769C138.131 99.976 138.459 101.947 138.754 103.825C139.124 106.149 139.486 108.474 139.856 110.807C142.633 102.208 146.621 93.8364 149.398 85.2461" stroke="#141414" stroke-width="2.28" stroke-linecap="round" stroke-linejoin="round"/>
<path d="M161.867 134.051C169.272 117.384 176.676 100.726 184.072 84.0586" stroke="#141414" stroke-width="2.28" stroke-linecap="round" stroke-linejoin="round"/>
<path d="M192.622 78.9551C188.104 95.7146 183.577 112.474 179.059 129.234" stroke="#141414" stroke-width="2.28" stroke-linecap="round" stroke-linejoin="round"/>
<path d="M201.038 67.6025C198.312 86.6276 195.578 105.653 192.852 124.678" stroke="#141414" stroke-width="2.28" stroke-linecap="round" stroke-linejoin="round"/>
<path d="M279.058 45.6219C255.625 45.0998 232.2 48.5443 209.616 54.8355C204.408 76.446 199.208 98.0566 194 119.667C192.654 125.251 197.534 129.967 202.683 132.502C207.833 135.037 213.714 135.542 219.444 136.006C216.987 138.271 217.904 143.24 220.1 145.758C222.296 148.276 225.889 149.211 229.213 148.967C232.545 148.723 235.7 147.459 238.805 146.221C248.119 142.482 257.442 138.734 266.756 134.995C279.47 129.891 293.749 132.569 303.963 123.44C324.738 124.299 345.15 125.967 365.925 126.834L376.122 44.2744C343.905 44.5271 311.258 46.3462 279.049 45.6303L279.058 45.6219Z" fill="#E47239"/>
<path d="M219.09 136.68C229.103 124.645 239.124 112.61 249.136 100.575C244.408 96.6926 239.334 92.7848 234.605 88.9023C230.095 97.8548 225.434 107.363 220.933 116.316C224.189 113.747 227.554 111.776 230.811 109.208C232.443 107.919 234.159 106.588 236.196 106.184C238.232 105.78 240.68 106.622 241.396 108.576" stroke="#141414" stroke-width="2.28" stroke-linecap="round" stroke-linejoin="round"/>
<path d="M429.4 37.0566L362.711 40.6359L352.008 137.05L436.99 148.301L429.4 37.0566Z" fill="#3E92E5"/>
<mask id="mask0_1236_7543" style="mask-type:luminance" maskUnits="userSpaceOnUse" x="352" y="37" width="85" height="112">
<path d="M429.4 37.0566L362.711 40.6359L352.008 137.05L436.99 148.301L429.4 37.0566Z" fill="white"/>
</mask>
<g mask="url(#mask0_1236_7543)">
<path d="M341.539 127.811L343.508 97.9384L446.016 104.929L442.188 90.2492L344.358 78.8797V61.3284L441.7 65.2783V52.0896L354.892 55.5426L354.707 50.7421L446.505 47.0786V70.2809L349.154 66.331V74.6013L446.008 85.853L452.352 110.175L347.984 103.059L346.672 122.943L455.945 121.831L455.996 126.64L341.539 127.811Z" fill="white"/>
</g>
</g>
<defs>
<clipPath id="clip0_1236_7543">
<rect width="469" height="149" fill="white" transform="translate(-13)"/>
</clipPath>
</defs>
</svg>
