<svg width="285" height="296" viewBox="0 0 285 296" fill="none" xmlns="http://www.w3.org/2000/svg">
<path d="M133.667 294.626C207.49 294.626 267.335 234.9 267.335 161.225C267.335 87.5491 207.49 27.8232 133.667 27.8232C59.845 27.8232 0 87.5491 0 161.225C0 234.9 59.845 294.626 133.667 294.626Z" fill="#671300"/>
<path fill-rule="evenodd" clip-rule="evenodd" d="M54.1647 119.582C54.0916 120.064 53.6821 122.786 53.5285 125.72C52.7388 140.936 53.1556 177.033 53.5944 187.936C53.6236 188.586 53.1117 189.133 52.4682 189.155C51.8174 189.177 51.2689 188.673 51.247 188.031C50.8082 177.084 50.3914 140.863 51.1812 125.603C51.3201 122.859 51.5103 120.779 51.7296 119.611C51.8759 118.86 52.0879 118.378 52.2561 118.159C52.5486 117.78 53.0459 117.429 53.7918 117.203C54.5377 116.977 55.598 116.846 56.9362 116.787C61.6602 116.59 70.1794 117.313 80.1026 116.984C86.9107 116.758 87.7662 114.474 87.7004 113.058C87.6565 111.992 87.4737 110.883 86.7352 109.949C85.5066 108.402 82.9033 107.402 77.6456 107.358C58.7351 107.19 31.6345 106.811 22.406 106.147C19.2543 105.92 16.2122 105.512 14.0477 104.461C11.5395 103.235 10.0623 101.235 10.523 97.8267C10.8448 95.4184 12.4609 94.0244 14.6327 93.2727C17.353 92.3313 21.0093 92.4773 23.2031 92.47C36.4828 92.397 53.7406 92.7473 69.4993 92.8932C74.0258 92.937 78.3183 92.9735 81.4262 92.1853C83.013 91.7839 84.2635 91.1855 84.9509 90.1346C85.3823 89.4777 85.5651 88.6531 85.4993 87.624C85.3604 85.4054 83.9856 84.0407 82.2818 83.1795C80.3512 82.2016 77.9966 81.8367 76.1684 81.7053C61.6309 80.669 35.4371 81.4718 20.885 80.9755C19.0568 80.9098 17.1994 80.8003 15.5468 80.4135C13.704 79.9757 12.1098 79.1802 10.9837 77.8081C10.0258 76.6331 9.38955 75.0276 9.31642 72.7798C9.23598 70.3787 10.3987 68.649 12.278 67.4522C14.7205 65.8977 18.5011 65.3138 21.9819 65.3065C36.9435 65.27 60.4536 65.3211 75.2397 65.5547C77.1776 65.5839 79.8759 65.4963 82.0404 64.5986C83.9125 63.825 85.3311 62.3727 85.1556 59.687C85.0021 57.4027 83.3275 56.1037 81.3896 55.3009C79.1812 54.3886 76.6072 54.1332 74.9618 54.0821C60.4682 53.6442 42.2013 53.4618 25.8941 53.1115C23.3201 53.0531 18.896 52.0605 15.8612 49.966C13.6089 48.4115 12.1318 46.2732 12.3365 43.5656C12.6656 39.3838 15.3566 36.7784 19.6345 35.3042C23.5175 33.9686 28.7826 33.5745 34.5888 33.6475C54.8156 33.9029 123.174 35.1728 155.613 36.4354C160.11 36.6105 164.293 37.8877 167.445 41.0404C170.538 44.1421 172.666 49.0975 172.958 56.7897C173.763 77.4432 171.861 161.765 172.051 182.871C172.051 183.521 171.532 184.053 170.882 184.053C170.231 184.053 169.697 183.535 169.697 182.886C169.507 161.787 171.408 77.5162 170.604 56.87C170.333 49.9587 168.549 45.4704 165.77 42.6898C163.05 39.9603 159.408 38.924 155.518 38.778C123.094 37.5228 54.7644 36.2529 34.5523 35.9975C29.0532 35.9245 24.0733 36.2602 20.395 37.5228C17.1117 38.654 14.9252 40.5369 14.6766 43.7407C14.5303 45.5798 15.6638 46.9665 17.1921 48.0247C19.832 49.8492 23.693 50.7031 25.9307 50.7542C42.2378 51.1118 60.5194 51.2869 75.013 51.7248C77.2653 51.7905 81.0313 52.243 83.7735 53.8632C85.8138 55.0673 87.3129 56.8773 87.4884 59.5265C87.7443 63.4747 85.6821 65.6204 82.9326 66.7589C80.4682 67.7806 77.3969 67.9338 75.1958 67.8973C60.4243 67.6638 36.9289 67.6127 21.9819 67.6492C19.4371 67.6492 16.6949 67.9703 14.6108 68.868C12.8704 69.6197 11.6053 70.7874 11.6638 72.6922C11.8539 78.3044 16.5852 78.465 20.9581 78.6182C35.5322 79.1218 61.7626 78.319 76.322 79.3553C78.4207 79.5013 81.1191 79.9538 83.3275 81.0777C85.7626 82.311 87.6419 84.3107 87.8321 87.4781C88.0295 90.7038 86.5377 92.6451 83.9344 93.7982C80.6218 95.2651 75.2251 95.2943 69.4554 95.2432C53.7114 95.0973 36.4682 94.747 23.1958 94.8199C21.1994 94.8345 17.8649 94.6375 15.3859 95.4986C14.0916 95.9511 13.0312 96.7028 12.8411 98.1479C12.5486 100.308 13.4773 101.585 15.0641 102.359C16.9947 103.3 19.7296 103.614 22.5523 103.811C31.7589 104.468 58.7863 104.847 77.6456 105.015C84.0149 105.074 87.0642 106.621 88.556 108.497C89.631 109.847 89.96 111.416 90.0331 112.963C90.0697 113.839 89.9308 115.036 89.0825 116.174C87.9929 117.641 85.5798 119.159 80.1611 119.341C70.2452 119.677 61.7333 118.955 57.0093 119.144C56.0806 119.181 55.3128 119.254 54.7278 119.385C54.5157 119.436 54.2525 119.539 54.1355 119.59L54.1647 119.582Z" fill="#B18A70"/>
<path d="M190.688 113.554C197.949 113.197 203.545 107.034 203.187 99.7875C202.83 92.5412 196.654 86.9562 189.393 87.3132C182.132 87.6701 176.536 93.8338 176.894 101.08C177.251 108.326 183.427 113.911 190.688 113.554Z" fill="#93D3D9"/>
<path d="M180.543 101.468C194.649 100.627 205.401 88.5321 204.558 74.454C203.715 60.376 191.597 49.6456 177.491 50.4869C163.384 51.3282 152.633 63.4227 153.476 77.5007C154.319 91.5787 166.437 102.309 180.543 101.468Z" fill="#93D3D9"/>
<path d="M204 68.5962C219.287 67.6844 230.94 54.5771 230.026 39.3203C229.113 24.0634 215.979 12.4344 200.692 13.3462C185.405 14.2579 173.752 27.3652 174.666 42.6221C175.58 57.8789 188.713 69.5079 204 68.5962Z" fill="#93D3D9"/>
<path d="M217.2 91.414C228.584 91.2454 237.675 81.8988 237.506 70.5378C237.337 59.1767 227.972 50.1034 216.589 50.2719C205.205 50.4405 196.113 59.7871 196.282 71.1482C196.451 82.5092 205.816 91.5825 217.2 91.414Z" fill="#93D3D9"/>
<path d="M235.671 46.6268C244.255 46.2138 250.878 38.9339 250.465 30.3667C250.051 21.7995 242.756 15.1893 234.172 15.6023C225.588 16.0153 218.964 23.2952 219.378 31.8624C219.792 40.4296 227.086 47.0398 235.671 46.6268Z" fill="#93D3D9"/>
<path d="M244.672 84.6069C259.591 83.7588 270.996 71.0013 270.147 56.1121C269.297 41.223 256.514 29.8405 241.595 30.6885C226.676 31.5366 215.271 44.2942 216.121 59.1833C216.97 74.0724 229.753 85.455 244.672 84.6069Z" fill="#93D3D9"/>
<path d="M267.318 22.5177C272.358 22.5177 276.444 18.44 276.444 13.4098C276.444 8.37954 272.358 4.30176 267.318 4.30176C262.277 4.30176 258.191 8.37954 258.191 13.4098C258.191 18.44 262.277 22.5177 267.318 22.5177Z" fill="#93D3D9"/>
<path d="M228.284 9.07823C230.357 8.9597 231.94 7.18688 231.822 5.11854C231.703 3.0502 229.927 1.46957 227.854 1.58811C225.782 1.70664 224.198 3.47946 224.317 5.5478C224.435 7.61614 226.212 9.19677 228.284 9.07823Z" fill="#93D3D9"/>
<path d="M281.249 44.4791C283.322 44.3606 284.905 42.5878 284.787 40.5194C284.668 38.4511 282.891 36.8704 280.819 36.989C278.746 37.1075 277.163 38.8803 277.281 40.9487C277.4 43.017 279.177 44.5976 281.249 44.4791Z" fill="#93D3D9"/>
<path fill-rule="evenodd" clip-rule="evenodd" d="M154.764 37.3838L156.3 41.6313L160.439 43.2004L156.3 44.7694L154.764 49.0169L153.229 44.7694L149.09 43.2004L153.229 41.6313L154.764 37.3838Z" fill="white"/>
<path fill-rule="evenodd" clip-rule="evenodd" d="M160.439 24.3569L161.207 26.4807L163.276 27.2689L161.207 28.0571L160.439 30.1808L159.671 28.0571L157.602 27.2689L159.671 26.4807L160.439 24.3569Z" fill="white"/>
<path fill-rule="evenodd" clip-rule="evenodd" d="M131.86 28.7139L132.24 29.7721L133.279 30.1662L132.24 30.5603L131.86 31.6185L131.48 30.5603L130.441 30.1662L131.48 29.7721L131.86 28.7139Z" fill="white"/>
<path fill-rule="evenodd" clip-rule="evenodd" d="M139.7 49.0171L140.08 50.0753L141.119 50.4694L140.08 50.8635L139.7 51.9217L139.32 50.8635L138.281 50.4694L139.32 50.0753L139.7 49.0171Z" fill="white"/>
<path d="M223.179 63.6851C225.786 63.151 227.469 60.6248 226.938 58.0426C226.407 55.4604 223.863 53.8001 221.256 54.3342C218.649 54.8683 216.966 57.3945 217.497 59.9767C218.028 62.5589 220.572 64.2192 223.179 63.6851Z" stroke="#6F85A9" stroke-width="1.25" stroke-linecap="round" stroke-linejoin="round"/>
<path d="M240.986 57.9412C243.039 57.5206 244.365 55.5312 243.947 53.4979C243.528 51.4645 241.525 50.1571 239.472 50.5777C237.418 50.9984 236.093 52.9877 236.511 55.0211C236.929 57.0545 238.933 58.3618 240.986 57.9412Z" stroke="#6F85A9" stroke-width="1.25" stroke-linecap="round" stroke-linejoin="round"/>
<path d="M225.369 41.0521C227.422 40.6314 228.748 38.6421 228.329 36.6087C227.911 34.5753 225.908 33.2679 223.854 33.6886C221.801 34.1092 220.476 36.0986 220.894 38.1319C221.312 40.1653 223.316 41.4727 225.369 41.0521Z" stroke="#6F85A9" stroke-width="1.25" stroke-linecap="round" stroke-linejoin="round"/>
<path d="M221.921 77.5228C223.054 76.4368 223.084 74.6326 221.987 73.493C220.891 72.3534 219.083 72.3099 217.95 73.3959C216.817 74.4819 216.787 76.2861 217.884 77.4258C218.981 78.5654 220.788 78.6088 221.921 77.5228Z" stroke="#6F85A9" stroke-width="1.25" stroke-linecap="round" stroke-linejoin="round"/>
<path d="M207.683 65.8866C208.816 64.8006 208.846 62.9964 207.749 61.8567C206.653 60.7171 204.845 60.6737 203.712 61.7597C202.579 62.8457 202.549 64.6499 203.646 65.7895C204.742 66.9292 206.55 66.9726 207.683 65.8866Z" stroke="#6F85A9" stroke-width="1.25" stroke-linecap="round" stroke-linejoin="round"/>
<path fill-rule="evenodd" clip-rule="evenodd" d="M207.31 65.5328C207.837 65.0219 208.071 63.9783 207.859 63.1536C207.785 62.8617 207.668 62.5989 207.478 62.3946C207.288 62.1902 207.04 62.0516 206.732 62.0005C206.718 62.0005 206.703 62.0005 206.703 62.0224C206.703 62.037 206.703 62.0516 206.725 62.0516C207.01 62.1245 207.222 62.2851 207.391 62.4822C207.639 62.7741 207.778 63.1682 207.822 63.5915C207.888 64.2994 207.668 65.0657 207.252 65.4817C207.237 65.4963 207.237 65.5255 207.252 65.5401C207.266 65.5547 207.295 65.5547 207.317 65.5401L207.31 65.5328Z" fill="#6F85A9"/>
<path fill-rule="evenodd" clip-rule="evenodd" d="M207.401 64.628C207.518 64.0515 207.452 63.4603 207.203 62.964C207.079 62.7086 206.903 62.4678 206.691 62.278C206.487 62.0883 206.238 61.9496 205.96 61.8401C205.938 61.8328 205.924 61.8401 205.909 61.862C205.902 61.8839 205.909 61.9058 205.931 61.9131C206.077 61.9934 206.209 62.0883 206.34 62.1831C206.64 62.4167 206.889 62.7086 207.057 63.0443C207.298 63.5187 207.408 64.066 207.313 64.6207C207.313 64.6426 207.328 64.6645 207.35 64.6718C207.372 64.6718 207.393 64.6572 207.401 64.6353V64.628Z" fill="#6F85A9"/>
<path fill-rule="evenodd" clip-rule="evenodd" d="M206.63 63.482C206.483 63.0733 206.279 62.6354 205.957 62.3143C205.737 62.0954 205.467 61.9494 205.167 61.8691C205.145 61.8691 205.123 61.8691 205.116 61.8983C205.109 61.9202 205.116 61.9421 205.145 61.9494C205.482 62.0808 205.745 62.3289 205.972 62.6063C206.206 62.8836 206.41 63.1974 206.549 63.5185C206.557 63.5404 206.586 63.555 206.608 63.5404C206.63 63.5331 206.644 63.5039 206.63 63.482Z" fill="#6F85A9"/>
<path fill-rule="evenodd" clip-rule="evenodd" d="M205.703 63.329C205.579 63.1611 205.44 62.9933 205.265 62.8619C205.089 62.7305 204.884 62.643 204.672 62.6138C204.65 62.6138 204.628 62.6284 204.621 62.6503C204.621 62.6722 204.636 62.694 204.658 62.7013C204.819 62.7378 204.957 62.8108 205.089 62.8984C205.294 63.0298 205.484 63.2049 205.638 63.3874C205.652 63.4093 205.681 63.4093 205.696 63.3874C205.718 63.3728 205.718 63.3436 205.703 63.329Z" fill="#6F85A9"/>
<path fill-rule="evenodd" clip-rule="evenodd" d="M204.789 63.7523L204.547 63.7231C204.547 63.7231 204.503 63.7377 204.496 63.7669C204.496 63.7888 204.511 63.8107 204.54 63.818L204.767 63.8399C204.767 63.8399 204.811 63.8326 204.818 63.8034C204.818 63.7815 204.811 63.7596 204.781 63.7523H204.789Z" fill="#6F85A9"/>
<path fill-rule="evenodd" clip-rule="evenodd" d="M242.975 55.8703C243.172 55.4689 243.289 55.0748 243.319 54.688C243.37 54.0311 243.18 53.4181 242.836 52.8999C242.507 52.3964 242.017 51.9731 241.417 51.7104C241.059 51.5498 240.65 51.4549 240.218 51.4111C240.189 51.4111 240.16 51.433 240.152 51.4622C240.152 51.4914 240.167 51.5206 240.204 51.5279C240.613 51.5936 240.986 51.725 241.33 51.8928C241.885 52.1628 242.339 52.5496 242.653 53.024C242.968 53.5057 243.129 54.0749 243.114 54.6807C243.107 55.0529 243.041 55.4397 242.895 55.8411C242.887 55.863 242.895 55.8921 242.917 55.8994C242.938 55.9067 242.968 55.8994 242.975 55.8776V55.8703Z" fill="#6F85A9"/>
<path fill-rule="evenodd" clip-rule="evenodd" d="M242.691 54.4761C242.684 53.8631 242.384 53.2865 241.938 52.8341C241.499 52.3889 240.921 52.0605 240.38 51.8999C240.366 51.8999 240.351 51.8999 240.344 51.9145C240.344 51.9291 240.344 51.9437 240.358 51.951C240.885 52.1261 241.426 52.4765 241.85 52.9216C242.274 53.3595 242.581 53.8996 242.603 54.4834C242.603 54.5053 242.625 54.5272 242.647 54.5272C242.669 54.5272 242.691 54.5053 242.691 54.4834V54.4761Z" fill="#6F85A9"/>
<path fill-rule="evenodd" clip-rule="evenodd" d="M241.841 53.7829C241.6 53.4545 241.33 53.1698 241.008 52.9436C240.686 52.7247 240.32 52.5641 239.926 52.4692C239.904 52.4692 239.889 52.4692 239.882 52.4911C239.874 52.513 239.882 52.5276 239.904 52.5349C240.277 52.6517 240.613 52.8341 240.927 53.0531C241.234 53.272 241.52 53.5275 241.768 53.834C241.783 53.8559 241.812 53.8559 241.827 53.8413C241.849 53.8267 241.849 53.7975 241.834 53.7829H241.841Z" fill="#6F85A9"/>
<path fill-rule="evenodd" clip-rule="evenodd" d="M241.175 54.0529C240.955 53.8486 240.714 53.6807 240.451 53.5493C240.187 53.418 239.902 53.3304 239.61 53.2793C239.581 53.2793 239.559 53.2939 239.559 53.3158C239.559 53.345 239.573 53.3669 239.595 53.3742C239.88 53.4253 240.158 53.5128 240.414 53.6369C240.67 53.761 240.911 53.9215 241.116 54.1186C241.131 54.1332 241.16 54.1332 241.182 54.1186C241.197 54.104 241.197 54.0748 241.182 54.0529H241.175Z" fill="#6F85A9"/>
<path fill-rule="evenodd" clip-rule="evenodd" d="M238.463 51.8559C238.404 51.8924 238.338 51.9216 238.28 51.9654C237.79 52.3303 237.432 52.9068 237.205 53.5126C236.956 54.184 236.905 54.9284 237.117 55.5779C237.117 55.5852 237.132 55.5925 237.139 55.5925C237.146 55.5925 237.154 55.5779 237.154 55.5706C236.978 54.9284 237.073 54.2132 237.329 53.5637C237.556 52.9798 237.936 52.4762 238.368 52.0748C238.419 52.0311 238.463 51.98 238.514 51.9289C238.536 51.9143 238.536 51.8851 238.521 51.8705C238.507 51.8486 238.477 51.8486 238.463 51.8632V51.8559Z" fill="#6F85A9"/>
<path fill-rule="evenodd" clip-rule="evenodd" d="M238.996 56.5998C238.666 56.3736 238.418 56.0744 238.228 55.7459C238.038 55.4175 237.899 55.0526 237.833 54.6585C237.833 54.6366 237.811 54.622 237.789 54.6293C237.767 54.6293 237.752 54.6512 237.76 54.6731C237.804 55.0818 237.906 55.4759 238.103 55.8189C238.301 56.1619 238.586 56.4539 238.944 56.6728C238.966 56.6874 238.996 56.6801 239.003 56.6582C239.017 56.6363 239.01 56.6144 238.988 56.5998H238.996Z" fill="#6F85A9"/>
<path fill-rule="evenodd" clip-rule="evenodd" d="M239.276 55.943C239.1 55.7824 238.961 55.6146 238.851 55.4248C238.742 55.2351 238.654 55.0307 238.588 54.8118C238.581 54.7826 238.544 54.768 238.515 54.7753C238.486 54.7826 238.471 54.8191 238.478 54.8483C238.552 55.0818 238.647 55.2935 238.764 55.4832C238.881 55.673 239.027 55.8481 239.217 56.0087C239.232 56.0233 239.261 56.0233 239.283 56.0087C239.297 55.9868 239.297 55.9649 239.283 55.943H239.276Z" fill="#6F85A9"/>
<path fill-rule="evenodd" clip-rule="evenodd" d="M226.294 39.9893C226.411 39.9382 226.528 39.8871 226.631 39.8214C226.791 39.712 226.923 39.5733 227.047 39.4346C227.537 38.8581 227.727 38.121 227.676 37.3912C227.61 36.3913 227.077 35.3988 226.17 34.8223C226.163 34.8223 226.148 34.8223 226.141 34.8223C226.141 34.8296 226.141 34.8442 226.141 34.8515C227.011 35.4353 227.508 36.4132 227.545 37.3912C227.574 38.0845 227.362 38.7632 226.894 39.3033C226.784 39.4346 226.653 39.5514 226.514 39.6755C226.426 39.7558 226.345 39.836 226.243 39.9163C226.221 39.9309 226.214 39.9528 226.228 39.9747C226.243 39.9966 226.265 40.0039 226.287 39.9893H226.294Z" fill="#6F85A9"/>
<path fill-rule="evenodd" clip-rule="evenodd" d="M227.202 37.3621C227.165 36.6688 226.858 36.0411 226.39 35.5376C225.93 35.034 225.315 34.6618 224.701 34.4429C224.694 34.4429 224.679 34.4429 224.672 34.4575C224.672 34.4648 224.672 34.4794 224.686 34.4867C225.279 34.7202 225.857 35.1216 226.31 35.6179C226.756 36.1141 227.078 36.7053 227.129 37.3767C227.129 37.3986 227.151 37.4132 227.165 37.4132C227.187 37.4132 227.202 37.3913 227.202 37.3767V37.3621Z" fill="#6F85A9"/>
<path fill-rule="evenodd" clip-rule="evenodd" d="M226.633 36.8805C226.377 36.3769 226.033 35.9682 225.616 35.6544C225.36 35.4647 225.082 35.2968 224.775 35.18C224.578 35.0998 224.373 35.0487 224.161 35.0049C224.146 35.0049 224.125 35.0049 224.117 35.0268C224.117 35.0414 224.117 35.0633 224.139 35.0706C224.344 35.1362 224.534 35.2165 224.724 35.3041C225.017 35.4355 225.287 35.5814 225.536 35.7639C225.945 36.0631 226.289 36.4499 226.552 36.9316C226.567 36.9535 226.589 36.9608 226.611 36.9535C226.633 36.9389 226.64 36.917 226.633 36.8951V36.8805Z" fill="#6F85A9"/>
<path fill-rule="evenodd" clip-rule="evenodd" d="M225.447 36.304C225.22 36.0997 224.979 35.9464 224.709 35.8442C224.438 35.7494 224.153 35.7129 223.853 35.7056C223.831 35.7056 223.816 35.7202 223.816 35.7421C223.816 35.7639 223.831 35.7785 223.853 35.7785C224.138 35.8004 224.416 35.8661 224.672 35.961C224.928 36.0559 225.177 36.1799 225.396 36.3697C225.411 36.3843 225.44 36.3843 225.462 36.3697C225.476 36.3478 225.476 36.3259 225.462 36.304H225.447Z" fill="#6F85A9"/>
<path fill-rule="evenodd" clip-rule="evenodd" d="M224.21 36.4572C224.122 36.428 224.034 36.4061 223.939 36.3988C223.8 36.3915 223.661 36.4061 223.53 36.4426C223.5 36.4426 223.478 36.4791 223.486 36.5083C223.486 36.5375 223.522 36.5594 223.552 36.5521C223.654 36.5302 223.764 36.5229 223.866 36.5156C223.968 36.5156 224.078 36.5156 224.18 36.5375C224.202 36.5375 224.232 36.5302 224.232 36.5083C224.232 36.4864 224.224 36.4572 224.202 36.4572H224.21Z" fill="#6F85A9"/>
<path fill-rule="evenodd" clip-rule="evenodd" d="M223.781 39.931C223.152 39.6902 222.655 39.2523 222.297 38.7268C221.938 38.1941 221.704 37.5664 221.653 36.9096C221.653 36.895 221.639 36.8877 221.631 36.8877C221.624 36.8877 221.609 36.9023 221.609 36.9096C221.646 37.581 221.851 38.2378 222.209 38.7852C222.575 39.3326 223.101 39.7704 223.752 40.0113C223.774 40.0186 223.803 40.0113 223.81 39.9894C223.818 39.9675 223.81 39.9383 223.781 39.931Z" fill="#6F85A9"/>
<path fill-rule="evenodd" clip-rule="evenodd" d="M223.306 38.4568C223.086 38.2378 222.933 38.0043 222.816 37.7561C222.699 37.508 222.618 37.238 222.553 36.9388C222.553 36.9096 222.516 36.8877 222.487 36.895C222.457 36.895 222.436 36.9315 222.443 36.9607C222.516 37.2672 222.604 37.5445 222.728 37.7999C222.852 38.0554 223.021 38.2962 223.247 38.5224C223.262 38.537 223.291 38.537 223.313 38.5224C223.335 38.5078 223.328 38.4787 223.313 38.4568H223.306Z" fill="#6F85A9"/>
<path fill-rule="evenodd" clip-rule="evenodd" d="M225.658 60.643C226.367 59.6285 226.382 58.2638 225.899 57.1253C225.409 55.9868 224.408 55.0891 223.128 55.0234C223.121 55.0234 223.113 55.0234 223.113 55.038C223.113 55.0526 223.113 55.0526 223.128 55.0526C224.386 55.1402 225.336 56.0452 225.804 57.1691C226.272 58.2784 226.272 59.6066 225.585 60.5919C225.57 60.6138 225.578 60.6356 225.592 60.6502C225.614 60.6648 225.643 60.6576 225.651 60.6357L225.658 60.643Z" fill="#6F85A9"/>
<path fill-rule="evenodd" clip-rule="evenodd" d="M225.6 58.9061C225.461 57.8405 224.993 56.6656 224.181 55.9358C223.633 55.4468 222.931 55.1695 222.104 55.2351C222.097 55.2351 222.09 55.2424 222.09 55.257C222.09 55.2643 222.097 55.2716 222.112 55.2716C223.121 55.2424 223.889 55.7387 224.452 56.4466C225.015 57.1472 225.388 58.0595 225.519 58.928C225.519 58.9499 225.541 58.9718 225.571 58.9645C225.593 58.9645 225.615 58.9353 225.607 58.9134L225.6 58.9061Z" fill="#6F85A9"/>
<path fill-rule="evenodd" clip-rule="evenodd" d="M224.125 57.2056C223.679 56.5925 223.175 56.1182 222.582 55.8554C221.983 55.5927 221.302 55.5343 220.549 55.6876C220.535 55.6876 220.527 55.7022 220.527 55.7168C220.527 55.7314 220.542 55.7387 220.557 55.7387C221.302 55.6365 221.939 55.7387 222.516 56.0087C223.087 56.2714 223.599 56.6801 224.052 57.264C224.067 57.2859 224.096 57.2859 224.111 57.2713C224.132 57.2567 224.132 57.2275 224.118 57.2129L224.125 57.2056Z" fill="#6F85A9"/>
<path fill-rule="evenodd" clip-rule="evenodd" d="M222.15 56.5855C222.07 56.5344 221.989 56.4833 221.909 56.4395C221.565 56.2717 221.178 56.1914 220.805 56.1987C220.329 56.1987 219.876 56.3666 219.503 56.7023C219.489 56.7096 219.489 56.7315 219.503 56.7461C219.51 56.7607 219.532 56.7607 219.547 56.7461C219.847 56.5198 220.191 56.4103 220.542 56.3739C220.856 56.3447 221.178 56.3739 221.499 56.4614C221.712 56.5125 221.916 56.5782 222.114 56.6658C222.136 56.6804 222.165 56.6658 222.172 56.6439C222.187 56.622 222.172 56.5928 222.15 56.5855Z" fill="#6F85A9"/>
<path fill-rule="evenodd" clip-rule="evenodd" d="M220.759 57.2786C220.708 57.2567 220.656 57.2348 220.605 57.2275C220.474 57.2129 220.349 57.2421 220.232 57.2786C219.984 57.3515 219.771 57.5048 219.559 57.6873C219.537 57.7018 219.537 57.7383 219.559 57.7602C219.574 57.7821 219.611 57.7821 219.633 57.7602C219.808 57.6289 219.984 57.5267 220.166 57.461C220.313 57.4099 220.466 57.4026 220.634 57.388C220.678 57.388 220.715 57.3661 220.759 57.3588C220.781 57.3588 220.803 57.3442 220.81 57.3223C220.81 57.3005 220.795 57.2786 220.773 57.2713L220.759 57.2786Z" fill="#6F85A9"/>
<path fill-rule="evenodd" clip-rule="evenodd" d="M223.882 62.5042C223.831 62.5188 223.78 62.5334 223.729 62.548C223.275 62.7232 222.836 62.8326 222.383 62.8253C221.615 62.8107 220.825 62.5626 220.087 62.3218C220.072 62.3218 220.05 62.3218 220.043 62.3437C220.043 62.3583 220.043 62.3802 220.065 62.3875C220.803 62.6648 221.593 62.9567 222.376 62.9786C222.858 62.9932 223.356 62.9494 223.794 62.6794C223.838 62.6502 223.882 62.6137 223.926 62.5772C223.948 62.5626 223.955 62.5407 223.941 62.5188C223.926 62.4969 223.904 62.4896 223.882 62.5042Z" fill="#6F85A9"/>
<path fill-rule="evenodd" clip-rule="evenodd" d="M221.865 61.9054C221.361 61.9492 220.871 61.8178 220.432 61.5989C219.986 61.3799 219.584 61.0588 219.269 60.6793C219.269 60.672 219.247 60.672 219.24 60.6793C219.233 60.6793 219.233 60.7012 219.24 60.7085C219.54 61.1172 219.935 61.4675 220.388 61.701C220.841 61.9346 221.361 62.044 221.88 61.993C221.902 61.993 221.924 61.9711 221.916 61.9419C221.916 61.92 221.894 61.8981 221.865 61.8981V61.9054Z" fill="#6F85A9"/>
<path fill-rule="evenodd" clip-rule="evenodd" d="M220.964 60.7672C220.701 60.7015 220.481 60.5555 220.291 60.3804C220.094 60.2052 219.918 60.0009 219.794 59.7746C219.787 59.7527 219.758 59.7454 219.736 59.7527C219.714 59.76 219.706 59.7892 219.714 59.8111C219.831 60.0666 219.984 60.3074 220.189 60.4898C220.401 60.6723 220.657 60.7964 220.942 60.8474C220.964 60.8474 220.993 60.8401 220.993 60.811C220.993 60.7818 220.986 60.7672 220.957 60.7599L220.964 60.7672Z" fill="#6F85A9"/>
<path fill-rule="evenodd" clip-rule="evenodd" d="M221.606 60.0808L221.313 59.6211C221.313 59.6211 221.262 59.5846 221.24 59.5991C221.211 59.6137 221.204 59.6502 221.218 59.6721L221.54 60.1246C221.54 60.1246 221.584 60.1465 221.598 60.1319C221.62 60.1173 221.62 60.0881 221.606 60.0735V60.0808Z" fill="#6F85A9"/>
<path fill-rule="evenodd" clip-rule="evenodd" d="M222.085 76.3266C222.348 75.8668 222.363 75.283 222.194 74.7502C222.026 74.2175 221.69 73.7358 221.266 73.4512C221.09 73.3417 220.9 73.2541 220.703 73.1957C220.41 73.1082 220.11 73.0644 219.803 73.0425C219.796 73.0425 219.781 73.0425 219.781 73.0571C219.781 73.0644 219.781 73.079 219.796 73.079C220.044 73.1155 220.293 73.1592 220.527 73.2322C220.761 73.3052 220.988 73.4074 221.193 73.5533C221.595 73.8161 221.917 74.2758 222.077 74.7794C222.238 75.283 222.246 75.8303 222.004 76.2755C221.99 76.2974 222.004 76.3266 222.019 76.3339C222.041 76.3485 222.07 76.3339 222.077 76.3193L222.085 76.3266Z" fill="#6F85A9"/>
<path fill-rule="evenodd" clip-rule="evenodd" d="M221.566 74.6044C221.317 74.1519 220.981 73.7433 220.549 73.4732C220.118 73.2032 219.613 73.0791 219.072 73.1156C219.058 73.1156 219.043 73.1302 219.043 73.1448C219.043 73.1594 219.058 73.174 219.072 73.174C219.584 73.174 220.045 73.3492 220.454 73.6119C220.864 73.8746 221.222 74.2249 221.485 74.6482C221.5 74.6701 221.522 74.6774 221.544 74.6628C221.566 74.6482 221.573 74.6263 221.559 74.6044H221.566Z" fill="#6F85A9"/>
<path fill-rule="evenodd" clip-rule="evenodd" d="M220.38 74.2537C220.153 73.9545 219.846 73.7428 219.502 73.648C219.159 73.5531 218.779 73.5823 218.435 73.7063C218.413 73.7063 218.406 73.7356 218.413 73.7501C218.413 73.772 218.442 73.7793 218.457 73.772C218.786 73.6772 219.137 73.6991 219.459 73.7939C219.78 73.8815 220.087 74.0421 220.314 74.3048C220.329 74.3267 220.358 74.3267 220.373 74.3048C220.395 74.2902 220.395 74.261 220.373 74.2464L220.38 74.2537Z" fill="#6F85A9"/>
<path fill-rule="evenodd" clip-rule="evenodd" d="M219.538 74.3051C219.304 74.2686 219.07 74.2613 218.844 74.3124C218.617 74.3635 218.412 74.4656 218.208 74.5824C218.186 74.597 218.171 74.6262 218.186 74.6554C218.2 74.6846 218.229 74.6919 218.259 74.6773C218.456 74.5824 218.668 74.5167 218.88 74.4656C219.092 74.4145 219.304 74.3781 219.531 74.3926C219.553 74.3926 219.575 74.378 219.582 74.3562C219.582 74.3343 219.568 74.3124 219.546 74.3051H219.538Z" fill="#6F85A9"/>
<path fill-rule="evenodd" clip-rule="evenodd" d="M218.791 74.8012C218.696 74.8158 218.609 74.8377 218.521 74.8669C218.433 74.8961 218.353 74.9399 218.279 74.9983C218.265 75.0129 218.258 75.0275 218.279 75.0493C218.294 75.0639 218.309 75.0712 218.331 75.0493C218.404 74.9983 218.477 74.9618 218.557 74.9326C218.638 74.9034 218.718 74.8888 218.806 74.8815C218.828 74.8815 218.85 74.8596 218.843 74.8304C218.843 74.8085 218.821 74.7866 218.791 74.7939V74.8012Z" fill="#6F85A9"/>
<path fill-rule="evenodd" clip-rule="evenodd" d="M220.92 77.0492C220.605 77.2024 220.21 77.2316 219.83 77.2097C219.442 77.1878 219.047 77.1149 218.74 76.9616C218.718 76.947 218.689 76.9616 218.682 76.9762C218.667 76.9981 218.682 77.0273 218.696 77.0346C219.004 77.2243 219.406 77.3776 219.815 77.3995C220.232 77.4214 220.642 77.3192 220.963 77.1222C220.985 77.1076 220.993 77.0857 220.978 77.0638C220.963 77.0419 220.941 77.0346 220.92 77.0492Z" fill="#6F85A9"/>
<path fill-rule="evenodd" clip-rule="evenodd" d="M219.818 76.4433L219.174 76.3047C219.138 76.3047 219.094 76.3266 219.094 76.3631C219.094 76.3996 219.116 76.4433 219.152 76.4433L219.796 76.5309C219.796 76.5309 219.84 76.5236 219.847 76.5017C219.847 76.4798 219.84 76.4579 219.818 76.4506V76.4433Z" fill="#6F85A9"/>
<path fill-rule="evenodd" clip-rule="evenodd" d="M226.652 58.2345C226.71 58.2199 226.776 58.2053 226.835 58.198C227.383 58.0666 227.924 57.9206 228.473 57.7747C230.411 57.2565 232.334 56.6873 234.264 56.1764C234.652 56.0742 235.039 55.9793 235.427 55.8845C235.522 55.8626 235.624 55.8334 235.719 55.8115C235.719 55.8115 235.719 55.8115 235.719 55.8042C235.719 55.8042 235.719 55.8042 235.712 55.8042C235.588 55.8334 235.471 55.8626 235.347 55.8845C234.857 56.0012 234.374 56.1253 233.891 56.2567C232.195 56.7019 230.513 57.1981 228.824 57.6579C228.173 57.8331 227.515 58.0009 226.864 58.1688C226.791 58.1907 226.718 58.2053 226.645 58.2272C226.645 58.2272 226.645 58.2272 226.645 58.2345C226.645 58.2345 226.645 58.2345 226.652 58.2345Z" fill="#6F85A9"/>
<path fill-rule="evenodd" clip-rule="evenodd" d="M227.129 58.5922L236.774 56.2568C236.84 56.2422 236.884 56.1765 236.869 56.1035C236.855 56.0379 236.789 55.9941 236.716 56.0087L227.085 58.417C227.034 58.4243 227.005 58.4754 227.019 58.5265C227.027 58.5776 227.078 58.6068 227.129 58.5922Z" fill="#6F85A9"/>
<path fill-rule="evenodd" clip-rule="evenodd" d="M226.681 57.4977C229.306 56.9795 231.924 56.2716 234.549 55.7242C235.208 55.5856 235.866 55.4542 236.524 55.3447C236.582 55.3374 236.626 55.2791 236.619 55.2207C236.612 55.1623 236.553 55.1185 236.495 55.1258C235.5 55.2791 234.506 55.4688 233.511 55.6877C231.215 56.1986 228.941 56.8481 226.645 57.3298C226.593 57.3371 226.564 57.3882 226.571 57.432C226.579 57.4831 226.63 57.5123 226.674 57.505L226.681 57.4977Z" fill="#6F85A9"/>
<path fill-rule="evenodd" clip-rule="evenodd" d="M221.344 54.1479L223.589 41.223C223.589 41.223 223.589 41.1938 223.567 41.1938C223.552 41.1938 223.538 41.1938 223.538 41.2157C223.004 43.792 222.412 46.3463 221.944 48.9298C221.629 50.6521 221.388 52.3891 221.176 54.126C221.176 54.1771 221.205 54.2209 221.256 54.2282C221.307 54.2282 221.351 54.199 221.359 54.1479H221.344Z" fill="#6F85A9"/>
<path fill-rule="evenodd" clip-rule="evenodd" d="M222.435 54.1405C222.464 54.053 222.501 53.9727 222.515 53.8851C222.588 53.5494 222.596 53.1918 222.639 52.8488C222.844 51.1337 223.078 49.4041 223.371 47.6744C223.736 45.5142 224.168 43.3686 224.672 41.274C224.68 41.2375 224.658 41.2011 224.621 41.1865C224.585 41.1792 224.548 41.2011 224.533 41.2375C224.007 43.3248 223.546 45.4704 223.151 47.6307C222.837 49.353 222.552 51.0899 222.34 52.805C222.296 53.1553 222.223 53.4983 222.223 53.8486C222.223 53.9435 222.237 54.0238 222.252 54.1113C222.252 54.1624 222.281 54.2062 222.332 54.2135C222.384 54.2135 222.427 54.1843 222.435 54.1332V54.1405Z" fill="#6F85A9"/>
<path fill-rule="evenodd" clip-rule="evenodd" d="M220.491 63.4821C220.527 65.9488 220.242 68.4083 220.176 70.875C220.162 71.4954 220.169 72.1084 220.176 72.7287C220.176 72.7433 220.191 72.7579 220.213 72.7579C220.235 72.7579 220.25 72.7433 220.242 72.7214C220.242 70.5612 220.476 68.4083 220.593 66.2554C220.644 65.3285 220.674 64.4016 220.666 63.4748C220.666 63.4237 220.622 63.3872 220.579 63.3872C220.527 63.3872 220.491 63.431 220.491 63.4748V63.4821Z" fill="#6F85A9"/>
<path fill-rule="evenodd" clip-rule="evenodd" d="M217.314 60.5264C215.04 61.4898 212.648 62.1539 210.338 63.0224C209.76 63.2413 209.189 63.4822 208.619 63.7303C208.604 63.7303 208.597 63.7595 208.604 63.7741C208.604 63.7887 208.634 63.796 208.648 63.7887C210.652 62.9786 212.736 62.3802 214.784 61.6722C215.661 61.373 216.531 61.0446 217.394 60.687C217.438 60.6651 217.46 60.614 217.445 60.5702C217.423 60.5264 217.372 60.5046 217.328 60.5192L217.314 60.5264Z" fill="#6F85A9"/>
<path fill-rule="evenodd" clip-rule="evenodd" d="M219.641 63.2267C219.677 63.5551 219.663 64.679 219.633 66.0583C219.582 68.3791 219.465 71.4297 219.414 72.685C219.414 72.7215 219.443 72.7506 219.48 72.7579C219.516 72.7579 219.546 72.7287 219.553 72.6923C219.612 71.437 219.736 68.3864 219.802 66.0656C219.838 64.6717 219.86 63.5405 219.824 63.2121C219.824 63.161 219.772 63.1245 219.728 63.1318C219.677 63.1318 219.641 63.1829 219.648 63.2267H219.641Z" fill="#6F85A9"/>
<path fill-rule="evenodd" clip-rule="evenodd" d="M217.229 59.6434C216.936 59.7966 215.891 60.2126 214.596 60.7016C212.425 61.5263 209.551 62.5699 208.366 63.0005C208.329 63.0151 208.315 63.0516 208.322 63.0881C208.337 63.1245 208.373 63.1391 208.41 63.1318C209.595 62.7086 212.476 61.6795 214.655 60.8621C215.964 60.3732 217.017 59.9645 217.309 59.8039C217.353 59.782 217.368 59.7236 217.346 59.6798C217.324 59.6361 217.265 59.6215 217.222 59.6434H217.229Z" fill="#6F85A9"/>
<path d="M185.191 71.1384C187.928 70.1563 189.355 67.1649 188.379 64.4568C187.403 61.7488 184.394 60.3496 181.658 61.3316C178.921 62.3137 177.494 65.3052 178.47 68.0132C179.446 70.7213 182.455 72.1205 185.191 71.1384Z" stroke="#6F85A9" stroke-width="1.25" stroke-linecap="round" stroke-linejoin="round"/>
<path d="M166.109 77.9613C168.264 77.1879 169.388 74.833 168.62 72.7014C167.852 70.5699 165.482 69.4689 163.327 70.2422C161.173 71.0156 160.048 73.3706 160.817 75.5021C161.585 77.6337 163.954 78.7347 166.109 77.9613Z" stroke="#6F85A9" stroke-width="1.25" stroke-linecap="round" stroke-linejoin="round"/>
<path d="M185.613 93.7801C187.768 93.0067 188.892 90.6518 188.124 88.5203C187.356 86.3887 184.986 85.2877 182.831 86.0611C180.677 86.8345 179.552 89.1894 180.32 91.3209C181.089 93.4525 183.458 94.5535 185.613 93.7801Z" stroke="#6F85A9" stroke-width="1.25" stroke-linecap="round" stroke-linejoin="round"/>
<path d="M185.807 50.03C186.864 48.6797 186.615 46.7245 185.253 45.6629C183.891 44.6013 181.93 44.8353 180.873 46.1855C179.817 47.5358 180.065 49.491 181.428 50.5526C182.79 51.6142 184.751 51.3802 185.807 50.03Z" stroke="#6F85A9" stroke-width="1.25" stroke-linecap="round" stroke-linejoin="round"/>
<path d="M202.202 47.0651C203.258 45.7149 203.01 43.7597 201.648 42.6981C200.285 41.6365 198.324 41.8705 197.268 43.2207C196.212 44.5709 196.46 46.5261 197.822 47.5877C199.185 48.6493 201.146 48.4154 202.202 47.0651Z" stroke="#6F85A9" stroke-width="1.25" stroke-linecap="round" stroke-linejoin="round"/>
<path fill-rule="evenodd" clip-rule="evenodd" d="M161.498 72.8305C161.352 73.2902 161.286 73.7354 161.315 74.1587C161.367 74.8739 161.666 75.5016 162.112 76.0124C162.551 76.5014 163.136 76.8809 163.824 77.0779C164.24 77.1947 164.687 77.2385 165.162 77.2166C165.191 77.2166 165.22 77.1874 165.22 77.1582C165.22 77.129 165.191 77.0998 165.162 77.0998C164.708 77.0925 164.277 77.0123 163.882 76.8809C163.239 76.6765 162.683 76.3262 162.273 75.8665C161.857 75.3921 161.601 74.8009 161.52 74.1368C161.476 73.7354 161.484 73.3048 161.586 72.8524C161.586 72.8305 161.579 72.8013 161.557 72.8013C161.535 72.8013 161.506 72.8086 161.506 72.8305H161.498Z" fill="#6F85A9"/>
<path fill-rule="evenodd" clip-rule="evenodd" d="M162.025 74.2899C162.135 74.9467 162.544 75.5233 163.1 75.9465C163.641 76.3625 164.314 76.6253 164.928 76.7201C164.943 76.7201 164.957 76.7201 164.957 76.6982C164.957 76.6837 164.95 76.6691 164.935 76.6691C164.343 76.5596 163.699 76.2677 163.173 75.859C162.646 75.4503 162.23 74.9175 162.113 74.2826C162.113 74.2607 162.083 74.2461 162.061 74.2461C162.039 74.2461 162.018 74.2753 162.025 74.2972V74.2899Z" fill="#6F85A9"/>
<path fill-rule="evenodd" clip-rule="evenodd" d="M163.058 74.9106C163.365 75.2244 163.709 75.4945 164.089 75.6842C164.47 75.874 164.886 75.9834 165.325 76.0345C165.347 76.0345 165.362 76.0199 165.369 76.0053C165.369 75.9834 165.354 75.9688 165.34 75.9615C164.916 75.8959 164.521 75.7499 164.155 75.5601C163.79 75.3704 163.439 75.1369 163.131 74.8449C163.117 74.8303 163.088 74.8303 163.066 74.8449C163.051 74.8595 163.051 74.8887 163.066 74.9106H163.058Z" fill="#6F85A9"/>
<path fill-rule="evenodd" clip-rule="evenodd" d="M163.731 74.5092C163.994 74.6989 164.286 74.8376 164.594 74.9397C164.901 75.0346 165.215 75.093 165.537 75.1076C165.566 75.1076 165.588 75.0857 165.588 75.0638C165.588 75.0346 165.566 75.0127 165.544 75.0127C165.23 74.9981 164.915 74.947 164.623 74.8522C164.33 74.7573 164.045 74.6186 163.789 74.4362C163.767 74.4216 163.745 74.4289 163.731 74.4435C163.716 74.4654 163.723 74.4873 163.738 74.5019L163.731 74.5092Z" fill="#6F85A9"/>
<path fill-rule="evenodd" clip-rule="evenodd" d="M166.999 76.4649C167.058 76.4138 167.123 76.37 167.175 76.3116C167.643 75.8446 167.95 75.1659 168.096 74.4798C168.257 73.7135 168.198 72.9034 167.877 72.2393C167.877 72.232 167.862 72.2247 167.847 72.232C167.84 72.232 167.833 72.2466 167.84 72.2612C168.125 72.9253 168.14 73.7135 167.964 74.4579C167.811 75.1221 167.482 75.7351 167.08 76.2314C167.028 76.2898 166.992 76.3481 166.941 76.4065C166.926 76.4211 166.926 76.4503 166.941 76.4722C166.955 76.4868 166.985 76.4868 167.006 76.4722L166.999 76.4649Z" fill="#6F85A9"/>
<path fill-rule="evenodd" clip-rule="evenodd" d="M165.681 71.4219C166.076 71.6189 166.383 71.8963 166.646 72.2247C166.902 72.5531 167.107 72.9253 167.239 73.3413C167.239 73.3632 167.268 73.3705 167.282 73.3632C167.304 73.3632 167.312 73.334 167.304 73.3194C167.195 72.8888 167.019 72.4801 166.756 72.1371C166.493 71.7941 166.134 71.5241 165.717 71.3416C165.696 71.3343 165.666 71.3416 165.659 71.3635C165.652 71.3854 165.659 71.4146 165.681 71.4219Z" fill="#6F85A9"/>
<path fill-rule="evenodd" clip-rule="evenodd" d="M165.484 72.1738C165.703 72.3198 165.879 72.4804 166.025 72.6628C166.171 72.8453 166.295 73.0569 166.405 73.2904C166.42 73.3196 166.456 73.3342 166.486 73.3196C166.515 73.305 166.529 73.2685 166.515 73.2394C166.398 72.9985 166.266 72.7869 166.105 72.5971C165.944 72.4074 165.762 72.2395 165.535 72.1009C165.513 72.0863 165.484 72.0936 165.476 72.1155C165.462 72.1373 165.469 72.1665 165.491 72.1738H165.484Z" fill="#6F85A9"/>
<path fill-rule="evenodd" clip-rule="evenodd" d="M181.988 87.3973C181.871 87.4703 181.754 87.5432 181.652 87.6381C181.498 87.7841 181.374 87.9519 181.264 88.1198C180.825 88.8131 180.73 89.6378 180.898 90.4187C181.125 91.4842 181.849 92.4767 182.924 92.9584C182.939 92.9584 182.953 92.9584 182.953 92.9438C182.953 92.9292 182.953 92.9146 182.939 92.9146C181.908 92.4184 181.22 91.4331 181.023 90.3895C180.884 89.6451 181.008 88.8715 181.425 88.2147C181.527 88.0541 181.652 87.9081 181.776 87.7549C181.856 87.6527 181.937 87.5505 182.032 87.4557C182.054 87.4411 182.054 87.4119 182.032 87.3973C182.017 87.3754 181.988 87.3754 181.973 87.3973H181.988Z" fill="#6F85A9"/>
<path fill-rule="evenodd" clip-rule="evenodd" d="M181.418 90.3749C181.564 91.112 181.996 91.7469 182.581 92.2213C183.158 92.6884 183.875 93.0022 184.57 93.1481C184.584 93.1481 184.592 93.1481 184.592 93.1335C184.592 93.1189 184.592 93.1116 184.577 93.1116C183.897 92.9511 183.21 92.6154 182.647 92.1483C182.083 91.6812 181.645 91.0901 181.491 90.3676C181.491 90.3457 181.469 90.3384 181.447 90.3384C181.425 90.3384 181.418 90.3603 181.418 90.3822V90.3749Z" fill="#6F85A9"/>
<path fill-rule="evenodd" clip-rule="evenodd" d="M182.112 90.8054C182.463 91.309 182.902 91.6958 183.399 91.9731C183.706 92.1409 184.028 92.2796 184.379 92.3599C184.599 92.411 184.833 92.4402 185.074 92.4548C185.096 92.4548 185.11 92.4475 185.11 92.4256C185.11 92.4037 185.103 92.3891 185.081 92.3891C184.854 92.3526 184.628 92.2942 184.416 92.2285C184.079 92.1336 183.765 92.0169 183.465 91.8636C182.975 91.6009 182.544 91.2433 182.185 90.7616C182.171 90.7397 182.141 90.7397 182.127 90.7543C182.105 90.7689 182.105 90.7981 182.12 90.8127L182.112 90.8054Z" fill="#6F85A9"/>
<path fill-rule="evenodd" clip-rule="evenodd" d="M183.48 91.251C183.758 91.4334 184.043 91.5648 184.35 91.6305C184.657 91.6962 184.972 91.6889 185.293 91.6524C185.315 91.6524 185.33 91.6305 185.33 91.6159C185.33 91.594 185.308 91.5794 185.293 91.5794C184.979 91.6013 184.672 91.5721 184.379 91.5064C184.087 91.4407 183.802 91.3459 183.531 91.178C183.509 91.1634 183.48 91.1707 183.472 91.1926C183.458 91.2145 183.465 91.2437 183.487 91.251H183.48Z" fill="#6F85A9"/>
<path fill-rule="evenodd" clip-rule="evenodd" d="M184.782 90.8932C184.885 90.9078 184.98 90.9151 185.082 90.9078C185.228 90.8932 185.374 90.8567 185.513 90.7983C185.543 90.791 185.557 90.7546 185.543 90.7254C185.535 90.6962 185.499 90.6816 185.47 90.6889C185.36 90.7254 185.25 90.7546 185.133 90.7764C185.016 90.7983 184.906 90.8056 184.789 90.7983C184.768 90.7983 184.746 90.8129 184.738 90.8348C184.738 90.8567 184.753 90.8786 184.775 90.8859L184.782 90.8932Z" fill="#6F85A9"/>
<path fill-rule="evenodd" clip-rule="evenodd" d="M184.716 87.069C185.433 87.2296 186.04 87.6237 186.508 88.1418C186.983 88.66 187.327 89.3095 187.488 90.0102C187.488 90.0247 187.502 90.032 187.517 90.0247C187.532 90.0247 187.539 90.0101 187.532 89.9956C187.385 89.2803 187.064 88.6016 186.588 88.0689C186.106 87.5288 185.477 87.142 184.731 86.9814C184.709 86.9814 184.687 86.9887 184.68 87.0179C184.68 87.0398 184.687 87.0617 184.716 87.069Z" fill="#6F85A9"/>
<path fill-rule="evenodd" clip-rule="evenodd" d="M185.462 88.5871C185.733 88.7914 185.938 89.0176 186.099 89.2658C186.267 89.5212 186.398 89.7985 186.515 90.1124C186.53 90.1416 186.559 90.1561 186.588 90.1415C186.618 90.127 186.632 90.0978 186.618 90.0686C186.493 89.7474 186.354 89.4628 186.179 89.2074C186.003 88.952 185.791 88.7184 185.506 88.5141C185.484 88.4995 185.462 88.4995 185.448 88.5214C185.433 88.5433 185.433 88.5652 185.455 88.5798L185.462 88.5871Z" fill="#6F85A9"/>
<path fill-rule="evenodd" clip-rule="evenodd" d="M179.465 64.9998C178.858 66.2039 179.048 67.6854 179.758 68.8312C180.467 69.9843 181.681 70.8017 183.078 70.6777C183.085 70.6777 183.092 70.6704 183.092 70.6631C183.092 70.6558 183.085 70.6485 183.078 70.6485C181.71 70.7433 180.533 69.9187 179.853 68.7802C179.173 67.6563 178.968 66.2185 179.553 65.0435C179.56 65.0217 179.553 64.9925 179.531 64.9852C179.509 64.9779 179.48 64.9852 179.473 65.0071L179.465 64.9998Z" fill="#6F85A9"/>
<path fill-rule="evenodd" clip-rule="evenodd" d="M179.805 66.8606C180.119 67.9918 180.807 69.1887 181.801 69.8455C182.466 70.2834 183.264 70.4804 184.148 70.2907C184.156 70.2907 184.163 70.2761 184.163 70.2688C184.163 70.2615 184.148 70.2542 184.141 70.2542C183.059 70.4439 182.145 70.0279 181.428 69.3492C180.711 68.6778 180.17 67.7436 179.892 66.8314C179.892 66.8095 179.863 66.7949 179.841 66.8022C179.819 66.8022 179.805 66.8314 179.812 66.8533L179.805 66.8606Z" fill="#6F85A9"/>
<path fill-rule="evenodd" clip-rule="evenodd" d="M181.654 68.459C182.232 69.0574 182.846 69.4807 183.527 69.6778C184.214 69.8748 184.952 69.8237 185.75 69.5537C185.764 69.5537 185.771 69.5318 185.764 69.5172C185.764 69.5026 185.742 69.4953 185.728 69.5026C184.938 69.7288 184.229 69.7142 183.563 69.5245C182.905 69.3347 182.283 68.9625 181.706 68.4006C181.691 68.386 181.662 68.386 181.64 68.4006C181.625 68.4152 181.625 68.4444 181.64 68.4663L181.654 68.459Z" fill="#6F85A9"/>
<path fill-rule="evenodd" clip-rule="evenodd" d="M183.891 68.8238C183.986 68.8675 184.081 68.9113 184.176 68.9405C184.571 69.0646 185.003 69.0938 185.405 69.0281C185.91 68.9478 186.378 68.707 186.729 68.291C186.743 68.2764 186.736 68.2618 186.729 68.2472C186.714 68.2326 186.699 68.2399 186.685 68.2472C186.399 68.5464 186.048 68.7143 185.668 68.8092C185.332 68.8894 184.974 68.904 184.623 68.8675C184.389 68.8456 184.147 68.8092 183.921 68.7435C183.899 68.7362 183.869 68.7435 183.862 68.7727C183.855 68.7946 183.862 68.8237 183.891 68.831V68.8238Z" fill="#6F85A9"/>
<path fill-rule="evenodd" clip-rule="evenodd" d="M185.282 67.8604C185.341 67.875 185.399 67.8896 185.458 67.8896C185.604 67.8896 185.728 67.8312 185.853 67.7802C186.108 67.6634 186.321 67.4736 186.518 67.2328C186.54 67.2109 186.533 67.1817 186.518 67.1598C186.496 67.1379 186.467 67.1452 186.445 67.1598C186.277 67.3277 186.101 67.4663 185.911 67.5685C185.757 67.6488 185.589 67.678 185.414 67.7218C185.37 67.7364 185.333 67.7583 185.282 67.7656C185.26 67.7656 185.238 67.7874 185.238 67.8093C185.238 67.8312 185.26 67.8531 185.282 67.8531V67.8604Z" fill="#6F85A9"/>
<path fill-rule="evenodd" clip-rule="evenodd" d="M181.091 62.7009C181.142 62.6717 181.194 62.6498 181.245 62.6206C181.705 62.3579 182.159 62.1754 182.656 62.1097C183.49 62.0075 184.382 62.1535 185.215 62.3068C185.23 62.3068 185.252 62.2995 185.252 62.2776C185.252 62.263 185.245 62.2411 185.223 62.2411C184.382 62.0586 183.482 61.8689 182.634 61.9638C182.115 62.0221 181.581 62.1462 181.15 62.5038C181.106 62.5403 181.069 62.5841 181.025 62.6352C181.003 62.6498 181.003 62.679 181.018 62.6936C181.033 62.7155 181.062 62.7155 181.084 62.7009H181.091Z" fill="#6F85A9"/>
<path fill-rule="evenodd" clip-rule="evenodd" d="M183.363 63.0294C183.904 62.9053 184.445 62.9637 184.964 63.1388C185.483 63.3067 185.966 63.5913 186.368 63.9562C186.375 63.9635 186.39 63.9562 186.397 63.9562C186.405 63.9489 186.397 63.9343 186.397 63.927C186.01 63.5402 185.527 63.2118 185.008 63.0367C184.482 62.8542 183.911 62.8177 183.355 62.9491C183.333 62.9491 183.319 62.9783 183.326 63.0002C183.326 63.0221 183.355 63.0367 183.377 63.0367L183.363 63.0294Z" fill="#6F85A9"/>
<path fill-rule="evenodd" clip-rule="evenodd" d="M184.512 64.1237C184.812 64.1529 185.068 64.277 185.302 64.4302C185.543 64.5835 185.763 64.7805 185.938 65.0141C185.953 65.036 185.975 65.036 185.997 65.0214C186.019 65.0068 186.019 64.9849 186.004 64.963C185.836 64.7076 185.631 64.4667 185.382 64.3062C185.126 64.1383 184.834 64.0507 184.512 64.0361C184.49 64.0361 184.468 64.0507 184.461 64.0799C184.461 64.1018 184.476 64.1237 184.505 64.1237H184.512Z" fill="#6F85A9"/>
<path fill-rule="evenodd" clip-rule="evenodd" d="M183.929 64.9706L184.324 65.4231C184.324 65.4231 184.375 65.4523 184.404 65.4304C184.426 65.4085 184.434 65.3793 184.412 65.3501L183.995 64.9049C183.995 64.9049 183.951 64.8903 183.929 64.9049C183.914 64.9195 183.914 64.9487 183.929 64.9706Z" fill="#6F85A9"/>
<path fill-rule="evenodd" clip-rule="evenodd" d="M180.887 47.4988C180.675 48.0388 180.756 48.6664 181.012 49.2138C181.275 49.7612 181.714 50.2282 182.211 50.4691C182.423 50.5639 182.635 50.6223 182.854 50.6588C183.183 50.7099 183.52 50.7099 183.849 50.688C183.856 50.688 183.863 50.6807 183.863 50.6661C183.863 50.6588 183.856 50.6515 183.842 50.6515C183.571 50.6515 183.293 50.6442 183.022 50.6004C182.759 50.5566 182.496 50.4837 182.255 50.3596C181.779 50.1334 181.363 49.6882 181.107 49.17C180.851 48.6518 180.763 48.0534 180.953 47.5352C180.96 47.5133 180.953 47.4842 180.931 47.4769C180.909 47.4696 180.88 47.4769 180.873 47.4988H180.887Z" fill="#6F85A9"/>
<path fill-rule="evenodd" clip-rule="evenodd" d="M181.718 49.2721C182.054 49.7246 182.486 50.1114 182.99 50.3376C183.495 50.5639 184.065 50.6223 184.635 50.4982C184.65 50.4982 184.657 50.4836 184.657 50.469C184.657 50.4544 184.643 50.4471 184.628 50.4471C184.072 50.5274 183.546 50.4106 183.063 50.1917C182.581 49.9727 182.135 49.6443 181.791 49.2283C181.776 49.2064 181.747 49.2064 181.732 49.2283C181.71 49.2429 181.71 49.2721 181.725 49.2867L181.718 49.2721Z" fill="#6F85A9"/>
<path fill-rule="evenodd" clip-rule="evenodd" d="M183.05 49.4692C183.342 49.7538 183.708 49.9363 184.095 49.9874C184.483 50.0385 184.885 49.9509 185.236 49.7611C185.258 49.7538 185.265 49.7319 185.251 49.71C185.243 49.6954 185.221 49.6809 185.199 49.6954C184.856 49.8487 184.476 49.8852 184.11 49.8341C183.744 49.783 183.393 49.659 183.108 49.4035C183.093 49.3889 183.064 49.3889 183.042 49.4035C183.028 49.4181 183.028 49.4473 183.042 49.4692H183.05Z" fill="#6F85A9"/>
<path fill-rule="evenodd" clip-rule="evenodd" d="M183.95 49.2867C184.213 49.2867 184.462 49.2575 184.696 49.1626C184.93 49.0751 185.142 48.9291 185.34 48.7758C185.361 48.7612 185.369 48.7247 185.354 48.7029C185.34 48.681 185.303 48.6737 185.281 48.6883C185.076 48.8269 184.864 48.9291 184.645 49.0167C184.425 49.1042 184.199 49.1772 183.95 49.1991C183.928 49.1991 183.906 49.221 183.906 49.2429C183.906 49.2648 183.928 49.2867 183.95 49.2867Z" fill="#6F85A9"/>
<path fill-rule="evenodd" clip-rule="evenodd" d="M184.682 48.6298C184.784 48.6006 184.872 48.5642 184.96 48.5204C185.048 48.4766 185.128 48.4109 185.201 48.3379C185.216 48.3233 185.216 48.3014 185.201 48.2868C185.187 48.2722 185.165 48.2722 185.15 48.2868C185.077 48.3525 185.004 48.4036 184.923 48.4474C184.843 48.4912 184.755 48.5204 184.66 48.5423C184.638 48.5423 184.623 48.5714 184.631 48.5933C184.631 48.6152 184.66 48.6298 184.682 48.6225V48.6298Z" fill="#6F85A9"/>
<path fill-rule="evenodd" clip-rule="evenodd" d="M182.026 46.5283C182.34 46.3093 182.757 46.2145 183.181 46.178C183.605 46.1415 184.044 46.1634 184.395 46.2801C184.417 46.2874 184.446 46.2801 184.454 46.2582C184.461 46.2364 184.454 46.2072 184.432 46.1999C184.066 46.0393 183.613 45.9444 183.167 45.9882C182.72 46.0247 182.289 46.1999 181.975 46.4626C181.953 46.4772 181.953 46.5064 181.967 46.521C181.982 46.5429 182.011 46.5429 182.026 46.5283Z" fill="#6F85A9"/>
<path fill-rule="evenodd" clip-rule="evenodd" d="M183.313 47.0172L184.03 47.0683C184.067 47.0683 184.103 47.0391 184.103 46.9953C184.103 46.9516 184.074 46.9224 184.03 46.9224H183.321C183.321 46.9224 183.277 46.9443 183.27 46.9662C183.27 46.988 183.284 47.0099 183.306 47.0172H183.313Z" fill="#6F85A9"/>
<path fill-rule="evenodd" clip-rule="evenodd" d="M197.713 43.5433C197.223 44.1783 197.135 45.3313 197.486 46.1998C197.611 46.499 197.779 46.7691 198.013 46.9588C198.247 47.1486 198.539 47.2653 198.876 47.2726C198.89 47.2726 198.898 47.2653 198.905 47.2507C198.905 47.2361 198.898 47.2288 198.883 47.2216C198.569 47.1851 198.313 47.0537 198.093 46.8639C197.779 46.5866 197.567 46.1779 197.457 45.7254C197.282 44.9737 197.391 44.1053 197.779 43.5871C197.794 43.5652 197.794 43.5433 197.772 43.5287C197.75 43.5141 197.728 43.5141 197.713 43.536V43.5433Z" fill="#6F85A9"/>
<path fill-rule="evenodd" clip-rule="evenodd" d="M197.763 44.5287C197.726 45.1709 197.894 45.7912 198.238 46.2948C198.414 46.5502 198.633 46.7838 198.896 46.9589C199.152 47.1268 199.437 47.2509 199.752 47.3165C199.774 47.3165 199.788 47.3165 199.796 47.2946C199.796 47.2728 199.796 47.2582 199.774 47.2509C199.598 47.1925 199.445 47.1122 199.291 47.0246C198.925 46.8203 198.618 46.5429 198.384 46.2072C198.048 45.7329 197.85 45.1563 197.858 44.536C197.858 44.5141 197.843 44.4922 197.814 44.4922C197.792 44.4922 197.77 44.5068 197.77 44.536L197.763 44.5287Z" fill="#6F85A9"/>
<path fill-rule="evenodd" clip-rule="evenodd" d="M198.765 45.6451C198.985 46.0611 199.277 46.5063 199.672 46.7982C199.943 46.9952 200.257 47.1193 200.594 47.1631C200.616 47.1631 200.637 47.1485 200.645 47.1266C200.652 47.1047 200.63 47.0828 200.608 47.0755C200.221 46.9879 199.899 46.7617 199.606 46.499C199.314 46.2289 199.043 45.9224 198.839 45.6013C198.824 45.5794 198.802 45.5721 198.78 45.5867C198.758 45.6013 198.751 45.6232 198.765 45.6451Z" fill="#6F85A9"/>
<path fill-rule="evenodd" clip-rule="evenodd" d="M199.796 45.667C199.956 45.8275 200.139 45.9881 200.344 46.0975C200.556 46.2143 200.783 46.2727 201.024 46.28C201.046 46.28 201.068 46.2654 201.068 46.2362C201.068 46.2143 201.053 46.1924 201.024 46.1924C200.849 46.1778 200.68 46.1194 200.52 46.0465C200.278 45.937 200.044 45.7764 199.854 45.6013C199.839 45.5867 199.81 45.5867 199.788 45.6013C199.774 45.6159 199.774 45.6451 199.788 45.667H199.796Z" fill="#6F85A9"/>
<path fill-rule="evenodd" clip-rule="evenodd" d="M200.716 45.0612H200.979C200.979 45.0612 201.023 45.032 201.023 45.0101C201.023 44.9882 201.001 44.9663 200.972 44.9663H200.724C200.724 44.9663 200.68 44.9882 200.68 45.0174C200.68 45.0393 200.694 45.0612 200.724 45.0612H200.716Z" fill="#6F85A9"/>
<path fill-rule="evenodd" clip-rule="evenodd" d="M178.766 67.7436C178.701 67.7655 178.635 67.7947 178.576 67.8166C178.006 68.0428 177.435 68.2837 176.872 68.5245C174.861 69.3857 172.872 70.298 170.861 71.1445C170.459 71.3124 170.057 71.4802 169.647 71.6408C169.545 71.6846 169.443 71.7211 169.348 71.7649C169.348 71.7649 169.348 71.7649 169.348 71.7722C169.348 71.7722 169.348 71.7722 169.355 71.7722C169.479 71.7211 169.611 71.6773 169.735 71.6262C170.247 71.4292 170.744 71.2175 171.249 70.9986C173.011 70.2542 174.752 69.4587 176.507 68.6997C177.187 68.4077 177.867 68.1231 178.547 67.8385C178.62 67.8093 178.7 67.7728 178.774 67.7436C178.774 67.7436 178.774 67.7436 178.774 67.7363C178.774 67.7363 178.774 67.7363 178.766 67.7363V67.7436Z" fill="#6F85A9"/>
<path fill-rule="evenodd" clip-rule="evenodd" d="M178.201 67.4445L168.146 71.4584C168.08 71.4803 168.043 71.5606 168.073 71.6263C168.095 71.6919 168.168 71.7284 168.234 71.6992L178.259 67.6123C178.303 67.5977 178.332 67.5466 178.31 67.4955C178.296 67.4518 178.245 67.4226 178.193 67.4445H178.201Z" fill="#6F85A9"/>
<path fill-rule="evenodd" clip-rule="evenodd" d="M178.853 68.5538C176.096 69.5172 173.383 70.6995 170.626 71.6993C169.939 71.9474 169.244 72.1956 168.55 72.4145C168.491 72.4364 168.462 72.4948 168.476 72.5532C168.498 72.6116 168.557 72.6481 168.615 72.6262C169.668 72.305 170.714 71.9474 171.745 71.5533C174.144 70.6411 176.506 69.5902 178.911 68.7217C178.955 68.7071 178.985 68.656 178.963 68.6049C178.948 68.5611 178.897 68.5319 178.846 68.5538H178.853Z" fill="#6F85A9"/>
<path fill-rule="evenodd" clip-rule="evenodd" d="M185.143 71.3415L184.727 85.6457C184.727 85.6457 184.741 85.6749 184.756 85.6749C184.77 85.6749 184.785 85.6603 184.785 85.6457C184.961 82.7848 185.195 79.9313 185.297 77.0704C185.37 75.1656 185.363 73.2535 185.319 71.3342C185.319 71.2831 185.275 71.2466 185.231 71.2466C185.18 71.2466 185.143 71.2904 185.143 71.3342V71.3415Z" fill="#6F85A9"/>
<path fill-rule="evenodd" clip-rule="evenodd" d="M183.964 71.5094C183.95 71.6042 183.928 71.6991 183.92 71.794C183.898 72.1735 183.935 72.553 183.95 72.9325C183.993 74.8154 184.008 76.7275 183.964 78.6323C183.906 81.0188 183.767 83.4125 183.555 85.7479C183.555 85.7844 183.577 85.8209 183.62 85.8209C183.657 85.8209 183.694 85.799 183.694 85.7552C183.935 83.4198 184.096 81.026 184.184 78.6323C184.257 76.7202 184.286 74.8081 184.249 72.9179C184.242 72.5384 184.264 72.1516 184.213 71.7721C184.198 71.6772 184.169 71.5824 184.147 71.4875C184.147 71.4364 184.103 71.3999 184.052 71.3999C184.001 71.3999 183.964 71.4437 183.964 71.4948V71.5094Z" fill="#6F85A9"/>
<path fill-rule="evenodd" clip-rule="evenodd" d="M184.592 61.1314C184.168 58.4676 184.095 55.7673 183.788 53.0962C183.708 52.4248 183.613 51.7607 183.496 51.0966C183.496 51.082 183.474 51.0674 183.459 51.0674C183.444 51.0674 183.43 51.0893 183.43 51.1039C183.81 53.7677 183.883 56.468 184.161 59.1537C184.234 59.8251 184.315 60.4965 184.417 61.1606C184.424 61.2117 184.468 61.2409 184.519 61.2336C184.57 61.2263 184.6 61.1825 184.592 61.1314Z" fill="#6F85A9"/>
<path fill-rule="evenodd" clip-rule="evenodd" d="M186.494 47.1337C189.104 46.4404 191.788 46.0901 194.421 45.5063C195.079 45.3603 195.737 45.1925 196.388 45.01C196.402 45.01 196.417 44.9881 196.41 44.9662C196.41 44.9516 196.388 44.937 196.366 44.9443C193.748 45.6012 191.064 45.9442 188.424 46.4915C187.766 46.6302 187.101 46.7834 186.45 46.9513C186.399 46.9659 186.377 47.0097 186.384 47.0608C186.399 47.1119 186.443 47.1337 186.494 47.1264V47.1337Z" fill="#6F85A9"/>
<path fill-rule="evenodd" clip-rule="evenodd" d="M185.549 61.2704C185.462 60.9201 185.301 59.7086 185.118 58.2125C184.818 55.6946 184.467 52.3886 184.328 51.0239C184.328 50.9874 184.291 50.9582 184.255 50.9655C184.218 50.9655 184.189 51.002 184.196 51.0385C184.328 52.4032 184.672 55.7165 184.957 58.2344C185.132 59.7451 185.293 60.9638 185.381 61.3141C185.396 61.3652 185.44 61.3944 185.491 61.3798C185.542 61.3652 185.571 61.3214 185.557 61.2704H185.549Z" fill="#6F85A9"/>
<path fill-rule="evenodd" clip-rule="evenodd" d="M186.449 48.1046C186.786 47.9805 187.978 47.6959 189.455 47.3602C191.934 46.7983 195.195 46.1122 196.541 45.8349C196.577 45.8276 196.599 45.7911 196.592 45.7546C196.584 45.7181 196.548 45.6962 196.511 45.7035C195.166 45.9736 191.897 46.6523 189.418 47.1997C187.934 47.5281 186.727 47.8127 186.391 47.9368C186.347 47.9514 186.318 48.0024 186.339 48.0535C186.354 48.0973 186.405 48.1265 186.456 48.1046H186.449Z" fill="#6F85A9"/>
<mask id="mask0_1313_6910" style="mask-type:alpha" maskUnits="userSpaceOnUse" x="0" y="27" width="268" height="268">
<path d="M133.667 294.626C207.49 294.626 267.335 234.9 267.335 161.225C267.335 87.5491 207.49 27.8232 133.667 27.8232C59.8449 27.8232 0 87.5491 0 161.225C0 234.9 59.8449 294.626 133.667 294.626Z" fill="#FAC686"/>
</mask>
<g mask="url(#mask0_1313_6910)">
<path fill-rule="evenodd" clip-rule="evenodd" d="M83.7852 113.152C83.7852 113.152 83.913 143.122 85.0937 146.574C88.32 156.016 109.701 149.899 109.528 143.257C109.513 142.777 109.528 122.429 109.528 122.429C109.528 122.429 107.159 113.558 83.7927 113.152H83.7852Z" fill="#FF90A2"/>
<mask id="mask1_1313_6910" style="mask-type:luminance" maskUnits="userSpaceOnUse" x="83" y="113" width="27" height="39">
<path d="M83.7852 113.152C83.7852 113.152 83.913 143.122 85.0937 146.574C88.32 156.016 109.701 149.899 109.528 143.257C109.513 142.777 109.528 122.429 109.528 122.429C109.528 122.429 107.159 113.558 83.7927 113.152H83.7852Z" fill="white"/>
</mask>
<g mask="url(#mask1_1313_6910)">
<path fill-rule="evenodd" clip-rule="evenodd" d="M83.7852 119.742C83.7852 119.742 87.8011 140.48 109.528 143.257V124.073L83.7852 119.742Z" fill="#550046"/>
</g>
<path fill-rule="evenodd" clip-rule="evenodd" d="M94.4355 126.714C87.8175 124.485 85.3959 122.466 82.3426 117.603C68.2191 95.1312 74.3483 81.6738 82.1019 77.7934C111.304 63.1426 118.486 87.1904 118.486 87.1904C118.486 87.1904 122.141 127.142 121.329 127.96C117.546 131.773 100.302 134.933 94.4355 126.714Z" fill="#FF90A2"/>
<path fill-rule="evenodd" clip-rule="evenodd" d="M85.2 132.081C79.71 134.363 69.61 129.627 70.4523 122.061C63.5786 122.804 59.0738 116.62 62.3151 109.58C56.5845 105.091 57.2839 93.7504 65.1428 91.859C62.6535 82.4771 69.5273 74.8364 77.3411 74.904C80.1913 65.8898 90.6598 64.2837 95.9392 70.1079C101.617 63.9985 112.214 66.6329 112.732 74.0108C119.99 71.9843 124.728 80.368 122.005 85.8545C126.939 90.3879 125.134 96.4298 119.426 99.2069L118.087 93.1724C114.853 91.859 113.244 89.3521 112.74 86.0497C108.137 88.1813 105.295 86.9428 103.588 83.5128C102.354 88.474 98.8421 90.9133 93.2995 91.1009C94.3449 95.7093 92.8934 99.4921 88.4413 102.292C88.4413 102.292 89.9228 108.063 87.6366 113.152C86.1776 116.395 85.0044 121.116 85.0044 121.116L85.1924 132.089L85.2 132.081Z" fill="#550046"/>
<path fill-rule="evenodd" clip-rule="evenodd" d="M74.5828 106.817C81.0655 106.78 85.5101 120.125 84.9686 120.838C81.6446 125.198 73.9286 120.778 71.1535 116.402C68.2731 111.861 69.5366 106.847 74.5904 106.825L74.5828 106.817Z" fill="#FF90A2"/>
<path fill-rule="evenodd" clip-rule="evenodd" d="M72.9546 114.721C72.9847 114.676 72.9922 114.721 72.9922 114.668C72.9922 114.601 72.917 114.548 72.8869 114.481C72.5785 113.873 72.4883 113.092 72.6312 112.372C72.7891 111.584 73.2178 110.871 73.9623 110.548C74.391 110.36 74.8798 110.308 75.3611 110.338C75.8575 110.368 76.3538 110.48 76.7975 110.645C78.0008 111.073 78.9559 111.936 79.7305 112.987C80.8962 114.571 81.6332 116.59 82.0393 118.301C82.0544 118.361 82.1145 118.399 82.1747 118.391C82.2349 118.376 82.2725 118.316 82.2649 118.256C81.8964 116.5 81.2121 114.406 80.0539 112.762C79.2492 111.629 78.2264 110.713 76.948 110.248C76.4742 110.075 75.9327 109.947 75.3912 109.917C74.8347 109.887 74.2857 109.955 73.7894 110.165C72.9245 110.548 72.4056 111.381 72.2326 112.304C72.0822 113.115 72.195 113.985 72.5635 114.661C72.6011 114.736 72.6162 114.841 72.6914 114.871C72.7365 114.894 72.7064 114.871 72.7515 114.864C72.7891 114.924 72.8719 114.939 72.932 114.901C72.9922 114.864 73.0072 114.781 72.9696 114.721H72.9546Z" fill="#27234B" stroke="#27234B" stroke-width="0.25" stroke-miterlimit="10"/>
<path fill-rule="evenodd" clip-rule="evenodd" d="M81.1368 114.796C80.7758 114.015 80.0764 113.588 79.3545 113.542C78.625 113.497 77.8729 113.843 77.3991 114.563C77.0306 115.126 76.9028 115.794 76.9705 116.455C77.0382 117.1 77.2863 117.731 77.6774 118.241C77.888 118.511 78.1136 118.729 78.3768 118.901C78.6325 119.074 78.9183 119.202 79.2417 119.307C79.3093 119.329 79.377 119.292 79.3996 119.224C79.4221 119.157 79.3845 119.089 79.3169 119.067C79.0236 118.969 78.7603 118.841 78.5272 118.676C78.2941 118.511 78.091 118.316 77.903 118.068C77.5571 117.595 77.339 117.018 77.2863 116.425C77.2412 115.847 77.3615 115.261 77.6924 114.766C78.091 114.165 78.7152 113.895 79.3244 113.918C79.9411 113.94 80.5502 114.271 80.8886 114.916C80.9187 114.984 81.0015 115.006 81.0691 114.976C81.1368 114.946 81.1594 114.863 81.1293 114.796H81.1368Z" fill="#27234B" stroke="#27234B" stroke-width="0.25" stroke-miterlimit="10"/>
<path fill-rule="evenodd" clip-rule="evenodd" d="M110.753 101.391C110.73 101.579 110.685 101.759 110.678 101.954C110.663 102.374 110.738 102.81 110.783 103.245C111.016 105.557 111.422 108.063 111.971 110.533C112.671 113.678 113.596 116.762 114.498 119.397C114.513 119.449 114.573 119.487 114.634 119.464C114.686 119.449 114.716 119.389 114.701 119.329C113.919 116.672 113.197 113.55 112.558 110.405C112.054 107.943 111.61 105.474 111.325 103.185C111.272 102.757 111.257 102.322 111.174 101.916C111.136 101.729 111.061 101.564 111.009 101.376C111.009 101.308 110.941 101.256 110.873 101.256C110.806 101.256 110.753 101.323 110.753 101.391Z" fill="#27234B" stroke="#27234B" stroke-width="0.25" stroke-miterlimit="10"/>
<path fill-rule="evenodd" clip-rule="evenodd" d="M134.541 166.944C146.588 181.227 148.055 298.366 148.055 298.366C148.055 298.366 70.4811 290.29 58.4258 290.147L63.3291 164.737C63.3291 164.737 80.7165 142.484 81.0775 143.279L110.513 143.422C110.513 143.422 132.134 164.099 134.541 166.952V166.944Z" fill="#6F85A9"/>
<path fill-rule="evenodd" clip-rule="evenodd" d="M181.994 173.136L183.107 155.911C183.107 155.911 184.213 144.15 183.431 141.973C182.656 139.797 179.851 133.687 181.385 132.621C183.829 130.925 190.086 139.744 190.086 139.744L200.081 141.268L194.922 159.746L191.891 175.688L181.987 173.136H181.994Z" fill="#FF90A2"/>
<path fill-rule="evenodd" clip-rule="evenodd" d="M110.003 138.731C110.003 138.731 109.431 142.851 109.536 143.249C111.77 151.963 117.027 172.814 119.14 182.09C121.862 194.017 122.938 252.372 122.938 252.372L123.156 298.366L149.951 293.517L148.44 213.066C148.44 213.066 159.939 239.365 171.31 236.626C184.636 233.421 195.894 165.961 195.894 165.961L180.936 161.795C180.936 161.795 169.407 191.352 169.249 191.577C169.249 191.577 158.021 155.408 153.358 153.795C151.042 152.991 127.683 143.062 121.246 143.212V140.795L110.003 138.731Z" fill="#FFFBF9"/>
<path fill-rule="evenodd" clip-rule="evenodd" d="M121.268 140.885C121.35 140.705 121.29 140.667 121.222 140.682C121.155 140.697 121.11 140.765 121.117 140.832L121.245 140.937C121.245 140.937 120.974 140.735 121.11 140.847C121.14 140.87 121.042 140.847 121.012 140.967C120.997 141.012 121.027 141.065 121.042 141.133C121.117 141.553 121.275 142.438 121.486 143.549C121.892 145.718 122.448 148.773 122.915 151.07C123.291 152.924 123.606 154.275 123.606 154.275C123.622 154.357 123.704 154.41 123.787 154.395C123.87 154.38 123.922 154.297 123.907 154.215C123.907 154.215 123.712 152.841 123.396 150.972C123.005 148.668 122.418 145.613 122.012 143.444C121.802 142.326 121.629 141.448 121.546 141.027C121.531 140.96 121.546 140.9 121.516 140.87C121.395 140.697 121.305 140.817 121.268 140.892V140.885Z" fill="#27234B" stroke="#27234B" stroke-width="0.25" stroke-miterlimit="10"/>
<path fill-rule="evenodd" clip-rule="evenodd" d="M123.886 154.492C123.397 154.275 122.908 154.072 122.397 153.914C122.059 153.809 121.713 153.734 121.359 153.659C119.351 153.239 117.268 153.074 115.26 152.759C115.162 152.744 115.072 152.804 115.057 152.901C115.042 152.999 115.102 153.089 115.2 153.104C116.907 153.427 118.659 153.674 120.389 154.005C120.961 154.117 121.525 154.245 122.096 154.365C122.668 154.485 123.239 154.582 123.803 154.733C123.871 154.755 123.946 154.718 123.969 154.658C123.991 154.59 123.954 154.515 123.894 154.492H123.886Z" fill="#27234B" stroke="#27234B" stroke-width="0.25" stroke-miterlimit="10"/>
<path fill-rule="evenodd" clip-rule="evenodd" d="M117.613 153.494C117.613 153.494 117.808 153.84 118.207 154.41C118.388 154.658 118.613 154.943 118.869 155.273C122.058 159.431 130.014 169.699 130.766 170.675C130.428 173.609 122.328 243.651 122.328 243.651C122.321 243.718 122.366 243.778 122.434 243.786C122.501 243.793 122.561 243.748 122.569 243.681L131.248 170.637C131.248 170.577 131.233 170.517 131.202 170.464C131.202 170.464 122.614 159.341 119.23 154.995C118.974 154.673 118.756 154.373 118.561 154.14C118.109 153.614 117.824 153.337 117.824 153.337C117.778 153.284 117.703 153.269 117.643 153.314C117.59 153.359 117.575 153.434 117.62 153.494H117.613Z" fill="#27234B" stroke="#27234B" stroke-width="0.25" stroke-miterlimit="10"/>
<path fill-rule="evenodd" clip-rule="evenodd" d="M169.272 191.142C169.107 191.36 168.836 191.69 168.535 192.163C168.332 192.47 168.129 192.838 167.896 193.244C166.64 195.398 164.798 198.738 163.181 202.085C161.827 204.892 160.639 207.714 160.045 209.838C160.022 209.921 160.067 210.011 160.15 210.033C160.233 210.056 160.323 210.011 160.346 209.928C160.97 207.834 162.218 205.065 163.595 202.295C165.242 198.97 167.077 195.645 168.31 193.484C168.543 193.078 168.761 192.726 168.927 192.403C169.19 191.908 169.363 191.525 169.483 191.285C169.521 191.225 169.506 191.142 169.445 191.104C169.385 191.067 169.303 191.082 169.265 191.142H169.272Z" fill="#27234B" stroke="#27234B" stroke-width="0.25" stroke-miterlimit="10"/>
<path fill-rule="evenodd" clip-rule="evenodd" d="M169.354 191.029C169.293 190.999 169.256 190.984 169.188 190.977C168.88 190.962 168.511 191.239 168.075 191.555C167.075 192.275 165.759 193.619 164.435 195.24C162.375 197.754 160.291 200.936 159.216 203.346C159.163 203.458 159.216 203.586 159.321 203.638C159.434 203.691 159.562 203.638 159.615 203.526C160.72 201.169 162.856 198.092 164.901 195.623C166.195 194.054 167.451 192.725 168.406 192.005C168.759 191.742 169.09 191.615 169.308 191.487C169.354 191.457 169.354 191.419 169.391 191.389C169.489 191.374 169.564 191.284 169.549 191.187C169.534 191.089 169.444 191.014 169.346 191.029H169.354Z" fill="#27234B" stroke="#27234B" stroke-width="0.25" stroke-miterlimit="10"/>
<path fill-rule="evenodd" clip-rule="evenodd" d="M150.089 293.51C150.096 293.382 150.171 293.127 150.186 292.722C150.246 291.498 150.073 289.037 149.983 285.637C149.6 271.166 148.885 239.718 148.013 214.754C147.456 198.88 146.81 185.633 146.283 181.025C146.276 180.95 146.208 180.897 146.133 180.905C146.058 180.912 146.005 180.98 146.012 181.055C146.373 184.522 146.727 192.861 147.08 203.526C147.298 210.048 147.517 217.449 147.735 225.127C148.239 242.803 148.735 261.979 149.103 275.534C149.306 283.1 149.472 288.917 149.592 291.739C149.615 292.174 149.607 292.534 149.652 292.819C149.705 293.195 149.795 293.42 149.833 293.54C149.84 293.607 149.901 293.66 149.976 293.653C150.043 293.645 150.096 293.585 150.089 293.51Z" fill="#27234B" stroke="#27234B" stroke-width="0.25" stroke-miterlimit="10"/>
<path d="M190.08 121.247L188.566 150.757L196.393 151.157L197.906 121.646L190.08 121.247Z" fill="#FFFBF9"/>
<path fill-rule="evenodd" clip-rule="evenodd" d="M197.685 122.707C198.264 122.737 198.768 122.286 198.798 121.708C198.828 121.13 198.377 120.628 197.797 120.598L190.337 120.215C189.758 120.185 189.254 120.635 189.224 121.213C189.194 121.791 189.645 122.294 190.224 122.324L197.685 122.707Z" fill="#FFFBF9"/>
<path fill-rule="evenodd" clip-rule="evenodd" d="M192.893 130.67C193.021 130.43 193.285 130.279 193.555 130.294C193.826 130.309 194.074 130.482 194.179 130.737C197.037 137.71 209.687 168.588 212.176 174.652C212.266 174.877 212.236 175.132 212.093 175.335C211.95 175.53 211.717 175.643 211.477 175.635L171.084 173.571C170.843 173.556 170.618 173.421 170.497 173.211C170.377 173.001 170.377 172.738 170.49 172.528C173.588 166.749 189.336 137.32 192.886 130.677L192.893 130.67Z" fill="#FFFBF9"/>
<path d="M195.174 148.098C196.038 148.098 196.738 147.399 196.738 146.537C196.738 145.675 196.038 144.976 195.174 144.976C194.31 144.976 193.609 145.675 193.609 146.537C193.609 147.399 194.31 148.098 195.174 148.098Z" fill="#8BA7D3"/>
<path d="M192.782 142.138C193.272 142.138 193.669 141.742 193.669 141.253C193.669 140.764 193.272 140.367 192.782 140.367C192.292 140.367 191.895 140.764 191.895 141.253C191.895 141.742 192.292 142.138 192.782 142.138Z" fill="#8BA7D3"/>
<path d="M190.391 147.31C190.881 147.31 191.279 146.913 191.279 146.424C191.279 145.935 190.881 145.539 190.391 145.539C189.901 145.539 189.504 145.935 189.504 146.424C189.504 146.913 189.901 147.31 190.391 147.31Z" fill="#8BA7D3"/>
<path fill-rule="evenodd" clip-rule="evenodd" d="M184.613 150.117L175.889 166.929C175.889 166.929 173.528 171.245 178.634 171.778L204.79 173.189C204.79 173.189 208.182 173.407 207.377 170.269C206.58 167.132 199.721 149.974 199.721 149.974C199.721 149.974 195.713 151.513 193.57 150.807C189.478 149.464 187.094 149.224 184.613 150.124V150.117Z" fill="#6F85A9"/>
<mask id="mask2_1313_6910" style="mask-type:luminance" maskUnits="userSpaceOnUse" x="175" y="149" width="33" height="25">
<path d="M184.613 150.117L175.889 166.929C175.889 166.929 173.528 171.245 178.634 171.778L204.79 173.189C204.79 173.189 208.182 173.407 207.377 170.269C206.58 167.132 199.721 149.974 199.721 149.974C199.721 149.974 195.713 151.513 193.57 150.807C189.478 149.464 187.094 149.224 184.613 150.124V150.117Z" fill="white"/>
</mask>
<g mask="url(#mask2_1313_6910)">
<path d="M198.367 160.952C198.414 160.141 197.792 159.446 196.98 159.399C196.167 159.353 195.47 159.973 195.424 160.784C195.377 161.595 195.999 162.29 196.811 162.337C197.624 162.383 198.321 161.763 198.367 160.952Z" fill="#8BA7D3"/>
<path d="M200.663 167.192C201.128 167.192 201.505 166.816 201.505 166.351C201.505 165.887 201.128 165.511 200.663 165.511C200.197 165.511 199.82 165.887 199.82 166.351C199.82 166.816 200.197 167.192 200.663 167.192Z" fill="#8BA7D3"/>
<path d="M192.615 168.558C193.699 168.558 194.578 167.681 194.578 166.599C194.578 165.517 193.699 164.64 192.615 164.64C191.531 164.64 190.652 165.517 190.652 166.599C190.652 167.681 191.531 168.558 192.615 168.558Z" fill="#8BA7D3"/>
</g>
<path fill-rule="evenodd" clip-rule="evenodd" d="M203.753 141.208C202.986 141.621 188.9 145.321 187.877 145.381C185.629 145.516 187.607 138.844 188.577 137.02C190.104 134.153 199.843 127.21 202.542 126.069C205.415 124.861 205.596 140.217 203.753 141.208Z" fill="#FF90A2"/>
<mask id="mask3_1313_6910" style="mask-type:luminance" maskUnits="userSpaceOnUse" x="186" y="126" width="19" height="20">
<path d="M203.753 141.208C202.986 141.621 188.9 145.321 187.877 145.381C185.629 145.516 187.607 138.844 188.577 137.02C190.104 134.153 199.843 127.21 202.542 126.069C205.415 124.861 205.596 140.217 203.753 141.208Z" fill="white"/>
</mask>
<g mask="url(#mask3_1313_6910)">
<path fill-rule="evenodd" clip-rule="evenodd" d="M204.748 127.623C201.951 129.259 199.176 130.933 196.423 132.644C192.295 135.203 188.211 137.838 184.097 140.427C184.037 140.465 184.022 140.54 184.06 140.6C184.097 140.66 184.172 140.675 184.233 140.637C189.046 137.643 193.836 134.618 198.664 131.638C200.733 130.362 202.801 129.086 204.884 127.84C204.944 127.803 204.967 127.728 204.929 127.668C204.891 127.608 204.816 127.585 204.756 127.623H204.748Z" fill="#27234B" stroke="#27234B" stroke-width="0.25" stroke-miterlimit="10"/>
<path fill-rule="evenodd" clip-rule="evenodd" d="M206.28 131.323C200.895 134.093 195.322 136.555 189.93 139.339C187.614 140.532 185.335 141.793 183.117 143.152C183.057 143.189 183.041 143.264 183.079 143.317C183.117 143.377 183.192 143.392 183.245 143.355C185.463 141.996 187.742 140.75 190.051 139.564C195.443 136.787 201.008 134.318 206.4 131.548C206.46 131.518 206.49 131.436 206.453 131.376C206.423 131.316 206.34 131.286 206.28 131.323Z" fill="#27234B" stroke="#27234B" stroke-width="0.25" stroke-miterlimit="10"/>
<path fill-rule="evenodd" clip-rule="evenodd" d="M206.68 135.781C205.537 136.164 202.679 137.192 199.272 138.498C193.211 140.817 185.382 143.955 182.11 145.126C182.05 145.148 182.02 145.216 182.035 145.276C182.058 145.336 182.125 145.366 182.186 145.351C184.63 144.495 189.616 142.626 194.504 140.757C197.121 139.759 199.708 138.768 201.867 137.928C204.138 137.042 205.92 136.329 206.762 136.021C206.83 135.999 206.868 135.924 206.845 135.856C206.823 135.789 206.747 135.751 206.68 135.774V135.781Z" fill="#27234B" stroke="#27234B" stroke-width="0.25" stroke-miterlimit="10"/>
</g>
<path fill-rule="evenodd" clip-rule="evenodd" d="M83.7856 137.05L66.338 141.531V143.257C66.338 143.257 40.4224 156.219 36.5719 161.338C31.0745 168.641 20.2299 255.727 42.8365 261.274C47.597 262.445 50.1239 260.741 50.1239 260.741L49.7629 298.374H88.0647L89.7869 235.215L88.2152 196.118L101.594 160.895L83.7856 151.423V137.05Z" fill="#FFFBF9"/>
<path fill-rule="evenodd" clip-rule="evenodd" d="M50.1455 260.913C50.3786 260.883 50.5967 260.876 50.8223 260.816C51.1382 260.726 51.439 260.568 51.7398 260.425C55.861 258.587 59.8694 255.509 63.5094 251.411C66.871 247.629 69.9093 242.96 72.4362 237.549C75.0834 231.829 78.0841 224.707 81.0547 217.044C83.4086 210.964 85.8603 204.592 87.8908 198.242C88.1164 197.537 88.3119 196.816 88.5225 196.111C88.5375 196.058 88.515 195.998 88.4548 195.976C88.4022 195.961 88.342 195.991 88.327 196.043C88.0562 196.734 87.7705 197.417 87.5072 198.115C85.1608 204.352 82.8821 210.776 80.4906 216.833C77.4824 224.467 74.4968 231.582 71.8345 237.278C69.3528 242.637 66.3596 247.261 63.0581 251.021C59.4934 255.074 55.5677 258.106 51.5367 259.99C51.2359 260.125 50.9276 260.23 50.6418 260.388C50.4388 260.501 50.2808 260.643 50.0928 260.771C50.0552 260.786 50.0326 260.831 50.0477 260.876C50.0627 260.921 50.1078 260.936 50.153 260.921L50.1455 260.913Z" fill="#27234B" stroke="#27234B" stroke-width="0.25" stroke-miterlimit="10"/>
<path fill-rule="evenodd" clip-rule="evenodd" d="M73.0172 171.11C72.8668 171.2 72.754 171.215 72.6412 171.342C72.6036 171.38 72.5886 171.44 72.566 171.485C71.8064 172.979 71.0845 174.427 70.3775 175.823C63.1729 190.061 57.9763 199.143 54.0656 205.65C50.7791 211.122 48.4177 214.777 46.515 218.132C45.3719 220.151 44.3792 222.065 43.5068 224.204C42.7322 226.088 42.0554 228.159 41.371 230.629C41.356 230.689 41.3861 230.749 41.4462 230.764C41.5064 230.779 41.5666 230.749 41.5816 230.689C42.3712 228.264 43.1534 226.253 43.9806 224.399C44.9132 222.297 45.8908 220.414 47.0565 218.432C49.0043 215.107 51.4259 211.49 54.7274 206.033C58.6606 199.533 63.8347 190.414 70.9641 176.108C71.6635 174.705 72.3855 173.256 73.1075 171.748C73.13 171.703 73.1676 171.658 73.1752 171.598C73.2052 171.425 73.1451 171.327 73.13 171.155C73.1451 171.125 73.13 171.087 73.1 171.072C73.0699 171.057 73.0323 171.072 73.0172 171.102V171.11Z" fill="#27234B" stroke="#27234B" stroke-width="0.25" stroke-miterlimit="10"/>
<path fill-rule="evenodd" clip-rule="evenodd" d="M53.2613 208.315C53.0733 208.337 52.9605 208.307 52.7875 208.367C52.592 208.435 52.4416 208.585 52.2761 208.705C49.6364 210.589 47.3652 212.668 45.3723 214.799C42.9432 217.389 41.0179 220.166 39.5289 223.176C39.4988 223.243 39.5214 223.318 39.5815 223.356C39.6492 223.393 39.7244 223.363 39.762 223.303C41.0631 220.976 42.6875 218.852 44.5375 216.803C46.8388 214.251 49.5537 211.872 52.5769 209.433C52.765 209.283 52.9906 209.163 53.141 208.968C53.2688 208.795 53.2763 208.652 53.3666 208.457C53.4042 208.427 53.4117 208.382 53.3816 208.345C53.3516 208.307 53.3064 208.3 53.2688 208.33L53.2613 208.315Z" fill="#27234B" stroke="#27234B" stroke-width="0.25" stroke-miterlimit="10"/>
<path fill-rule="evenodd" clip-rule="evenodd" d="M62.4634 191.975C62.4634 191.975 61.8844 192.801 62.8846 191.885C62.9598 191.81 62.9447 191.562 62.9824 191.262C63.1403 190.099 63.4411 187.734 63.5614 186.271C63.6216 185.52 63.6216 185.01 63.6216 185.01C63.6366 184.89 63.5539 184.777 63.4261 184.755C63.3057 184.74 63.1929 184.822 63.1704 184.95C63.1704 184.95 63.035 185.445 62.8921 186.181C62.6214 187.629 62.2829 189.986 62.125 191.149C62.0874 191.45 62.1476 191.72 62.0573 191.772C60.8541 192.523 62.4559 191.975 62.4559 191.975H62.4634Z" fill="#27234B" stroke="#27234B" stroke-width="0.25" stroke-miterlimit="10"/>
<path fill-rule="evenodd" clip-rule="evenodd" d="M66.0589 141.733C66.0665 142.551 66.0589 143.385 66.0815 144.233C66.1642 147.468 66.3071 150.883 66.4575 154.2C66.5403 156.024 66.6831 157.818 66.7659 159.536C66.7659 159.626 66.8411 159.694 66.9313 159.694C67.0216 159.694 67.0893 159.619 67.0893 159.529C67.1344 158.14 67.2021 156.707 67.2021 155.243C67.2021 154.298 67.172 153.344 67.1419 152.391C67.0667 149.884 66.9915 147.347 66.8486 144.908C66.7809 143.82 66.6831 142.747 66.6004 141.703C66.6004 141.553 66.4651 141.441 66.3146 141.448C66.1642 141.448 66.0514 141.583 66.0589 141.733Z" fill="#27234B" stroke="#27234B" stroke-width="0.25" stroke-miterlimit="10"/>
<path fill-rule="evenodd" clip-rule="evenodd" d="M66.8564 159.717C66.9617 159.784 66.9241 159.822 67.0444 159.837C67.443 159.882 67.7964 159.567 68.1725 159.431C70.8272 158.508 73.5496 157.87 76.242 157.127C77.4001 156.805 78.5507 156.444 79.6939 156.054C79.754 156.039 79.7841 155.971 79.7691 155.911C79.754 155.851 79.6863 155.821 79.6262 155.836C78.4229 156.159 77.2046 156.429 75.9938 156.714C74.1738 157.15 72.3539 157.6 70.5565 158.118C69.3983 158.448 68.2402 158.809 67.1121 159.244C67.0218 159.281 66.909 159.274 66.8489 159.349C66.7661 159.446 66.8263 159.431 66.8037 159.559C66.7661 159.574 66.7436 159.619 66.7586 159.664C66.7737 159.702 66.8188 159.724 66.8639 159.709L66.8564 159.717Z" fill="#27234B" stroke="#27234B" stroke-width="0.25" stroke-miterlimit="10"/>
<path fill-rule="evenodd" clip-rule="evenodd" d="M77.6796 156.324L67.4142 170.179C67.354 170.254 67.339 170.359 67.3615 170.45L69.2943 178.075C69.3244 178.21 69.4372 178.308 69.5725 178.323C69.7079 178.338 69.8358 178.263 69.9034 178.143C69.9034 178.143 77.1682 163.8 81.2293 155.506C82.8688 152.166 83.9668 149.794 83.9668 149.794C84.0119 149.697 83.9743 149.577 83.8765 149.532C83.7787 149.487 83.6584 149.524 83.6133 149.622C83.6133 149.622 82.3724 151.918 80.6803 155.228C77.0554 162.298 71.2646 173.94 69.7154 177.062L68.0384 170.434L78.0256 156.564C78.0933 156.474 78.0707 156.339 77.9805 156.272C77.8902 156.204 77.7548 156.227 77.6872 156.317L77.6796 156.324Z" fill="#27234B" stroke="#27234B" stroke-width="0.25" stroke-miterlimit="10"/>
<path fill-rule="evenodd" clip-rule="evenodd" d="M83.1016 210.206C83.1016 210.206 83.1166 210.649 83.2068 211.445C83.2896 212.15 83.455 213.118 83.628 214.304C85.1772 224.654 89.1706 251.074 89.1706 251.074C89.1856 251.164 89.2684 251.224 89.3586 251.216C89.4489 251.201 89.509 251.119 89.5015 251.029C89.5015 251.029 85.5908 224.594 84.0416 214.244C83.8687 213.058 83.7408 212.083 83.613 211.385C83.4701 210.596 83.3573 210.169 83.3573 210.169C83.3497 210.101 83.2821 210.049 83.2144 210.064C83.1467 210.071 83.094 210.139 83.1091 210.206H83.1016Z" fill="#27234B" stroke="#27234B" stroke-width="0.25" stroke-miterlimit="10"/>
<path d="M100.931 112.236C105.08 112.236 108.444 108.879 108.444 104.738C108.444 100.597 105.08 97.2402 100.931 97.2402C96.7816 97.2402 93.418 100.597 93.418 104.738C93.418 108.879 96.7816 112.236 100.931 112.236Z" fill="#93D3D9" stroke="#27234B" stroke-linecap="round" stroke-linejoin="round"/>
<path d="M120.697 108.596C124.846 108.596 128.21 105.239 128.21 101.098C128.21 96.9571 124.846 93.6001 120.697 93.6001C116.547 93.6001 113.184 96.9571 113.184 101.098C113.184 105.239 116.547 108.596 120.697 108.596Z" fill="#93D3D9" stroke="#27234B" stroke-linecap="round" stroke-linejoin="round"/>
<path fill-rule="evenodd" clip-rule="evenodd" d="M107.852 102.494C107.889 102.622 107.761 102.404 107.964 102.516C107.942 102.584 107.979 102.659 108.047 102.674C108.115 102.697 108.183 102.659 108.205 102.592C108.295 102.607 108.318 102.629 108.31 102.644L108.363 102.614C108.438 102.569 108.431 102.449 108.468 102.374C108.867 101.503 109.559 100.97 110.318 100.783C111.206 100.558 112.176 100.805 112.8 101.518C112.943 101.676 113.176 101.683 113.334 101.548C113.492 101.406 113.5 101.173 113.364 101.015C112.529 100.115 111.273 99.7995 110.138 100.13C109.22 100.392 108.378 101.06 107.934 102.149C107.897 102.239 107.799 102.336 107.837 102.434L107.859 102.494H107.852Z" fill="#27234B"/>
<path fill-rule="evenodd" clip-rule="evenodd" d="M92.4422 141.238C92.4573 142.191 93.5026 156.459 93.5026 156.459L83.1695 151.896C83.6357 149.186 84.2374 140.825 83.5304 135.676C82.0263 124.696 83.1018 121.281 85.2075 114.886C85.2075 114.886 87.8923 108.724 91.2991 104.821C92.6378 103.29 96.4206 106.465 97.4659 107.898C98.3985 109.182 95.0518 116.86 95.0067 121.348C94.9841 124.163 92.4121 139.256 92.4347 141.238H92.4422Z" fill="#FF90A2"/>
<mask id="mask4_1313_6910" style="mask-type:luminance" maskUnits="userSpaceOnUse" x="82" y="104" width="16" height="53">
<path d="M92.4422 141.238C92.4573 142.191 93.5026 156.459 93.5026 156.459L83.1695 151.896C83.6357 149.186 84.2374 140.825 83.5304 135.676C82.0263 124.696 83.1018 121.281 85.2075 114.886C85.2075 114.886 87.8923 108.724 91.2991 104.821C92.6378 103.29 96.4206 106.465 97.4659 107.898C98.3985 109.182 95.0518 116.86 95.0067 121.348C94.9841 124.163 92.4121 139.256 92.4347 141.238H92.4422Z" fill="white"/>
</mask>
<g mask="url(#mask4_1313_6910)">
<path fill-rule="evenodd" clip-rule="evenodd" d="M93.5397 103.2C93.4193 103.38 93.0959 103.868 92.6898 104.558C92.1784 105.429 91.5467 106.615 90.9075 107.831C89.9223 109.692 88.9672 111.621 88.5837 112.634C87.9219 114.428 87.1999 116.777 86.6584 118.879C86.1997 120.65 85.8838 122.241 85.8086 123.164C85.8086 123.239 85.8612 123.315 85.9364 123.315C86.0116 123.315 86.0868 123.262 86.0868 123.187C86.1771 122.279 86.5456 120.718 87.0194 118.976C87.5834 116.897 88.3204 114.563 88.9898 112.792C89.2379 112.131 89.7343 111.081 90.3134 109.917C91.2234 108.093 92.3589 106.007 93.0734 104.648C93.4193 103.995 93.6525 103.515 93.7577 103.335C93.7953 103.275 93.7803 103.2 93.7202 103.162C93.66 103.125 93.5848 103.147 93.5472 103.2H93.5397Z" fill="#27234B" stroke="#27234B" stroke-width="0.25" stroke-miterlimit="10"/>
<path fill-rule="evenodd" clip-rule="evenodd" d="M95.5864 104.851C94.9095 105.872 94.0522 107.365 93.2475 108.979C92.0818 111.328 91.0139 113.918 90.4649 115.516C90.0588 116.695 89.6001 118.241 89.194 119.824C88.7954 121.341 88.4419 122.894 88.1787 124.193C88.1636 124.26 88.2088 124.328 88.2764 124.343C88.3441 124.358 88.4118 124.313 88.4269 124.245C88.7878 122.707 89.2917 120.815 89.8031 119.059C90.1716 117.798 90.5326 116.605 90.871 115.651C91.3448 114.3 92.2247 112.259 93.1648 110.24C93.5859 109.332 94.0371 108.431 94.4508 107.59C94.9396 106.592 95.3908 105.677 95.8045 104.986C95.8421 104.926 95.827 104.851 95.7669 104.813C95.7067 104.776 95.624 104.791 95.5864 104.851Z" fill="#27234B" stroke="#27234B" stroke-width="0.25" stroke-miterlimit="10"/>
<path fill-rule="evenodd" clip-rule="evenodd" d="M97.2842 106.134C97.1865 106.269 97.0812 106.397 96.9985 106.547C96.2614 107.808 95.7049 109.272 95.1108 110.57C94.1858 112.597 93.4337 114.375 93.1931 115.141C92.599 117.077 92.065 118.991 91.6664 120.8C91.3656 122.159 91.1475 123.457 91.0046 124.658C90.9971 124.733 91.0497 124.808 91.1249 124.816C91.2001 124.823 91.2754 124.771 91.2829 124.695C91.4859 123.232 91.8243 121.626 92.253 119.944C92.629 118.436 93.0727 116.86 93.5691 115.269C93.7345 114.743 94.1407 113.76 94.6746 112.544C95.4041 110.885 96.3742 108.806 97.2842 106.907C97.3369 106.802 97.397 106.705 97.4346 106.592C97.4722 106.48 97.4873 106.367 97.5098 106.247C97.5399 106.187 97.5098 106.104 97.4497 106.074C97.382 106.044 97.3068 106.074 97.2767 106.134H97.2842Z" fill="#27234B" stroke="#27234B" stroke-width="0.25" stroke-miterlimit="10"/>
</g>
</g>
</svg>
