<svg width="150" height="32" viewBox="0 0 150 32" fill="none" xmlns="http://www.w3.org/2000/svg">
<g filter="url(#filter0_ii_1426_6141)">
<path d="M1.28516 21.6572C2.6371 23.2088 4.40868 24.3837 6.4248 25.0039V29.5752C6.4248 31.1593 5.47971 32 3.84668 32C2.21371 32 1.28516 31.1592 1.28516 29.5752V21.6572Z" fill="#242424"/>
</g>
<path d="M9.40125 4.51953C7.21664 4.64155 5.46739 6.46694 5.46739 8.68083V9.97911H4.16912C1.95522 9.97911 0.129831 11.7284 0.0078125 13.913C0.19328 8.80871 4.29699 4.705 9.40125 4.51953Z" fill="url(#paint0_linear_1426_6141)"/>
<path d="M19.5136 13.913C19.3915 11.7284 17.5652 9.97911 15.3513 9.97911H14.054V8.68083C14.054 6.46596 12.3028 4.64057 10.1172 4.51953C15.2214 4.70305 19.3281 8.80773 19.5136 13.913Z" fill="#3884B5"/>
<path d="M19.5136 14.6348C19.3281 19.74 15.2214 23.8447 10.1172 24.0282C12.3028 23.9072 14.054 22.0808 14.054 19.8669V18.5686H15.3513C17.5652 18.5686 19.3915 16.8194 19.5136 14.6348Z" fill="url(#paint1_linear_1426_6141)"/>
<path d="M9.40125 24.0282C4.29699 23.8427 0.19328 19.739 0.0078125 14.6348C0.129831 16.8194 1.95522 18.5686 4.16912 18.5686H5.46739V19.8669C5.46739 22.0798 7.21664 23.9062 9.40125 24.0282Z" fill="url(#paint2_linear_1426_6141)"/>
<path d="M19.5211 14.2745C19.5211 14.3956 19.5191 14.5156 19.5143 14.6357C19.3922 16.8203 17.5659 18.5696 15.352 18.5696H14.0547V9.97949H15.352C17.5659 9.97949 19.3922 11.7287 19.5143 13.9134C19.5191 14.0334 19.5211 14.1535 19.5211 14.2745Z" fill="#269698"/>
<path d="M5.46641 9.97949V18.5696H4.16814C1.95424 18.5696 0.128851 16.8203 0.00683301 14.6357C0.00195229 14.5156 0 14.3956 0 14.2745C0 14.1535 0.00195229 14.0334 0.00683301 13.9134C0.128851 11.7287 1.95424 9.97949 4.16814 9.97949H5.46641Z" fill="url(#paint3_linear_1426_6141)"/>
<path d="M4.17578 26.7172V26.5566C4.17578 26.7098 4.17825 26.8617 4.18443 27.0136C4.17825 26.916 4.17578 26.8172 4.17578 26.7172Z" fill="#221F20"/>
<path d="M4.18443 26.0996C4.17825 26.2515 4.17578 26.4034 4.17578 26.5565V26.396C4.17578 26.296 4.17825 26.1972 4.18443 26.0996Z" fill="#221F20"/>
<path d="M19.5225 14.1474V14.2743C19.5225 14.1532 19.5205 14.0332 19.5156 13.9131C19.5205 13.9902 19.5225 14.0683 19.5225 14.1474Z" fill="#221F20"/>
<path d="M19.5156 14.6356C19.5205 14.5155 19.5225 14.3955 19.5225 14.2744V14.4013C19.5225 14.4804 19.5205 14.5585 19.5156 14.6356Z" fill="#221F20"/>
<path d="M14.0588 8.68083V9.9791H5.46875V8.68083C5.46875 6.46694 7.218 4.64155 9.40261 4.51953C9.52268 4.51465 9.64274 4.5127 9.76378 4.5127C9.87702 4.5127 9.99123 4.51465 10.1035 4.51855C10.1093 4.51855 10.1162 4.51855 10.122 4.51953C12.3076 4.64057 14.0588 6.46596 14.0588 8.68083Z" fill="url(#paint4_linear_1426_6141)"/>
<path d="M9.39844 24.0293C9.5185 24.0342 9.63857 24.0361 9.75961 24.0361H9.63271C9.55364 24.0361 9.47555 24.0342 9.39844 24.0293Z" fill="#221F20"/>
<path d="M9.76172 24.0352C9.87495 24.0352 9.98916 24.0332 10.1014 24.0293C10.0302 24.0332 9.9589 24.0352 9.88764 24.0352H9.76172Z" fill="#221F20"/>
<path d="M9.76378 18.5694H5.46875V14.2744C5.46875 16.6464 7.39175 18.5694 9.76378 18.5694Z" fill="#E09927"/>
<path d="M9.76378 9.97949C7.39175 9.97949 5.46875 11.9025 5.46875 14.2745V9.97949H9.76378Z" fill="#E68A93"/>
<path d="M14.0568 9.97949V14.2745C14.0568 11.9025 12.1337 9.97949 9.76172 9.97949H14.0568Z" fill="#4E71CA"/>
<path d="M14.0586 19.8682C14.0584 22.0819 12.3075 23.9083 10.1221 24.0293C10.1162 24.0303 10.1094 24.0303 10.1035 24.0303C9.99126 24.0342 9.8769 24.0361 9.76367 24.0361C9.64267 24.0361 9.52237 24.0342 9.40234 24.0293C7.218 23.9072 5.46898 22.0808 5.46875 19.8682V18.5693H9.76562C12.1377 18.5693 14.0605 16.6464 14.0605 14.2744V18.5693H14.0586V19.8682Z" fill="url(#paint5_linear_1426_6141)"/>
<path d="M9.40125 4.51953C7.21664 4.64155 5.46739 6.46694 5.46739 8.68083V9.97911H4.16912C1.95522 9.97911 0.129831 11.7284 0.0078125 13.913C0.19328 8.80871 4.29699 4.705 9.40125 4.51953Z" fill="url(#paint6_linear_1426_6141)"/>
<path d="M19.5136 13.913C19.3915 11.7284 17.5652 9.97911 15.3513 9.97911H14.054V8.68083C14.054 6.46596 12.3028 4.64057 10.1172 4.51953C15.2214 4.70305 19.3281 8.80773 19.5136 13.913Z" fill="#3884B5"/>
<path d="M19.5136 14.6348C19.3281 19.74 15.2214 23.8447 10.1172 24.0282C12.3028 23.9072 14.054 22.0808 14.054 19.8669V18.5686H15.3513C17.5652 18.5686 19.3915 16.8194 19.5136 14.6348Z" fill="url(#paint7_linear_1426_6141)"/>
<path d="M9.40125 24.0282C4.29699 23.8427 0.19328 19.739 0.0078125 14.6348C0.129831 16.8194 1.95522 18.5686 4.16912 18.5686H5.46739V19.8669C5.46739 22.0798 7.21664 23.9062 9.40125 24.0282Z" fill="url(#paint8_linear_1426_6141)"/>
<path d="M19.5211 14.2745C19.5211 14.3956 19.5191 14.5156 19.5143 14.6357C19.3922 16.8203 17.5659 18.5696 15.352 18.5696H14.0547V9.97949H15.352C17.5659 9.97949 19.3922 11.7287 19.5143 13.9134C19.5191 14.0334 19.5211 14.1535 19.5211 14.2745Z" fill="#269698"/>
<path d="M5.46641 9.97949V18.5696H4.16814C1.95424 18.5696 0.128851 16.8203 0.00683301 14.6357C0.00195229 14.5156 0 14.3956 0 14.2745C0 14.1535 0.00195229 14.0334 0.00683301 13.9134C0.128851 11.7287 1.95424 9.97949 4.16814 9.97949H5.46641Z" fill="url(#paint9_linear_1426_6141)"/>
<path d="M4.17578 26.7172V26.5566C4.17578 26.7098 4.17825 26.8617 4.18443 27.0136C4.17825 26.916 4.17578 26.8172 4.17578 26.7172Z" fill="#221F20"/>
<path d="M4.18443 26.0996C4.17825 26.2515 4.17578 26.4034 4.17578 26.5565V26.396C4.17578 26.296 4.17825 26.1972 4.18443 26.0996Z" fill="#221F20"/>
<path d="M19.5225 14.1474V14.2743C19.5225 14.1532 19.5205 14.0332 19.5156 13.9131C19.5205 13.9902 19.5225 14.0683 19.5225 14.1474Z" fill="#221F20"/>
<path d="M19.5156 14.6356C19.5205 14.5155 19.5225 14.3955 19.5225 14.2744V14.4013C19.5225 14.4804 19.5205 14.5585 19.5156 14.6356Z" fill="#221F20"/>
<path d="M14.0588 8.68083V9.9791H5.46875V8.68083C5.46875 6.46694 7.218 4.64155 9.40261 4.51953C9.52268 4.51465 9.64274 4.5127 9.76378 4.5127C9.87702 4.5127 9.99123 4.51465 10.1035 4.51855C10.1093 4.51855 10.1162 4.51855 10.122 4.51953C12.3076 4.64057 14.0588 6.46596 14.0588 8.68083Z" fill="url(#paint10_linear_1426_6141)"/>
<path d="M9.39844 24.0293C9.5185 24.0342 9.63857 24.0361 9.75961 24.0361H9.63271C9.55364 24.0361 9.47555 24.0342 9.39844 24.0293Z" fill="#221F20"/>
<path d="M9.76172 24.0352C9.87495 24.0352 9.98916 24.0332 10.1014 24.0293C10.0302 24.0332 9.9589 24.0352 9.88764 24.0352H9.76172Z" fill="#221F20"/>
<path d="M9.76378 18.5694H5.46875V14.2744C5.46875 16.6464 7.39175 18.5694 9.76378 18.5694Z" fill="#E09927"/>
<path d="M9.76378 9.97949C7.39175 9.97949 5.46875 11.9025 5.46875 14.2745V9.97949H9.76378Z" fill="#E68A93"/>
<path d="M14.0568 9.97949V14.2745C14.0568 11.9025 12.1337 9.97949 9.76172 9.97949H14.0568Z" fill="#4E71CA"/>
<path d="M14.0586 19.8682C14.0584 22.0819 12.3075 23.9083 10.1221 24.0293C10.1162 24.0303 10.1094 24.0303 10.1035 24.0303C9.99126 24.0342 9.8769 24.0361 9.76367 24.0361C9.64267 24.0361 9.52237 24.0342 9.40234 24.0293C7.218 23.9072 5.46898 22.0808 5.46875 19.8682V18.5693H9.76562C12.1377 18.5693 14.0605 16.6464 14.0605 14.2744V18.5693H14.0586V19.8682Z" fill="url(#paint11_linear_1426_6141)"/>
<g filter="url(#filter1_ii_1426_6141)">
<path d="M27.3311 21.3761C27.3311 23.1748 26.3675 24.2027 24.6972 24.2027C23.0109 24.2027 22.1758 23.1748 22.1758 21.3761V9.57186C22.1758 7.75706 23.0591 6.74527 24.7133 6.74527C26.2069 6.74527 27.0581 7.5804 27.1705 9.13823V9.37914H27.4114C27.9896 7.61252 29.2101 6.63285 30.8643 6.63285C31.571 6.63285 32.1331 6.82557 32.5346 7.21101C32.9522 7.59646 33.177 8.15856 33.177 8.88127C33.177 9.58792 32.9682 10.1018 32.5506 10.4552C32.1652 10.7764 31.571 10.953 30.8001 10.9852C28.4714 11.0655 27.3311 12.3342 27.3311 14.7914V21.3761Z" fill="#242424"/>
<path d="M42.6364 6.47225C47.583 6.47225 50.8753 9.5558 50.8753 14.5666V16.2368C50.8753 21.4724 47.583 24.4596 42.6364 24.4596C37.6738 24.4596 34.3815 21.4724 34.3815 16.2529V14.5987C34.3815 9.5558 37.6738 6.47225 42.6364 6.47225ZM42.6364 10.3267C40.8056 10.3267 39.6974 11.8845 39.6974 14.5666V16.3492C39.6974 19.0313 40.8056 20.6052 42.6364 20.6052C44.4833 20.6052 45.5433 19.0313 45.5433 16.3492V14.5666C45.5433 11.8845 44.4833 10.3267 42.6364 10.3267Z" fill="#242424"/>
<path d="M79.2215 21.3761C79.2215 23.223 78.29 24.2027 76.6358 24.2027C74.9816 24.2027 74.0662 23.223 74.0662 21.3761V13.7636C74.0662 11.8685 73.1347 10.7924 71.5608 10.7924C69.9708 10.7924 68.959 11.9969 68.959 13.9081V21.3761C68.959 23.223 68.1078 24.2027 66.5018 24.2027C64.8798 24.2027 64.0286 23.223 64.0286 21.3761V13.7957C64.0286 11.9166 63.065 10.7924 61.4911 10.7924C59.9172 10.7924 58.9214 11.9809 58.9214 13.9081V21.3761C58.9214 23.223 58.006 24.2027 56.3518 24.2027C54.6976 24.2027 53.7661 23.223 53.7661 21.3761V9.49156C53.7661 7.78918 54.7297 6.74527 56.2876 6.74527C57.7651 6.74527 58.6966 7.70888 58.7769 9.33096V9.81276H59.0339C59.5638 7.88554 61.4108 6.63285 63.7395 6.63285C66.1646 6.63285 67.883 7.85342 68.4291 9.877H68.67C69.3284 7.91766 71.2878 6.63285 73.7771 6.63285C77.1497 6.63285 79.2215 8.72067 79.2215 12.1415V21.3761Z" fill="#242424"/>
<path d="M82.8671 2.50539C82.8671 1.04391 84.0395 0 85.6455 0C87.2676 0 88.424 1.04391 88.424 2.50539C88.424 3.98292 87.2676 5.02683 85.6455 5.02683C84.0395 5.02683 82.8671 3.98292 82.8671 2.50539ZM88.2312 21.3761C88.2312 23.223 87.2837 24.2027 85.6455 24.2027C84.0074 24.2027 83.0759 23.223 83.0759 21.3761V9.57186C83.0759 7.72494 84.0235 6.74527 85.6455 6.74527C87.2837 6.74527 88.2312 7.72494 88.2312 9.57186V21.3761Z" fill="#242424"/>
<path d="M91.4272 20.6373C91.4272 19.5773 92.182 18.8546 93.3063 18.8546C93.9005 18.8546 94.3662 19.0634 95.2174 19.5773C96.5825 20.4285 97.5783 20.7819 98.7667 20.7819C100.244 20.7819 101.144 20.2037 101.144 19.2401C101.144 18.3889 100.437 17.7947 98.8631 17.4413L96.4701 16.9274C93.1617 16.2368 91.6521 14.6469 91.6521 12.0291C91.6521 8.68855 94.5429 6.47225 99.0076 6.47225C100.614 6.47225 102.139 6.77739 103.36 7.37162C104.741 8.01402 105.512 8.96157 105.512 10.0376C105.512 11.0976 104.741 11.74 103.633 11.74C103.119 11.74 102.573 11.5794 101.706 11.0976C100.421 10.3427 99.6179 10.1018 98.7346 10.1018C97.3855 10.1018 96.5825 10.7764 96.5825 11.7239C96.5825 12.543 97.1607 13.0087 98.4937 13.2978L101.513 13.9081C104.613 14.5505 106.074 16.1405 106.074 18.7743C106.074 22.2915 103.247 24.4596 98.4776 24.4596C96.5343 24.4596 94.7998 24.0902 93.515 23.4318C92.166 22.7412 91.4272 21.7615 91.4272 20.6373Z" fill="#242424"/>
<path d="M108.451 16.4295V14.5344C108.451 9.68428 111.663 6.47225 116.497 6.47225C121.042 6.47225 124.254 9.65216 124.254 13.9081C124.254 15.8674 123.564 16.5741 121.717 16.5741H113.703V17.2004C113.735 19.224 115.084 20.5891 117.38 20.5891C118.617 20.5891 119.452 20.3161 120.111 19.8343C120.898 19.3364 121.235 19.0313 122.038 19.0313C123.082 19.0313 123.772 19.7058 123.772 20.7979C123.772 21.7133 123.21 22.5163 122.231 23.1266C121.058 23.9618 119.179 24.4596 117.011 24.4596C111.711 24.4596 108.451 21.4403 108.451 16.4295ZM113.703 13.619H119.388V13.5708C119.388 11.6115 118.296 10.3267 116.61 10.3267C114.795 10.3267 113.703 11.6436 113.703 13.5708V13.619Z" fill="#242424"/>
<path d="M126.567 20.6373C126.567 19.5773 127.322 18.8546 128.446 18.8546C129.04 18.8546 129.506 19.0634 130.357 19.5773C131.722 20.4285 132.718 20.7819 133.906 20.7819C135.384 20.7819 136.283 20.2037 136.283 19.2401C136.283 18.3889 135.577 17.7947 134.003 17.4413L131.61 16.9274C128.301 16.2368 126.792 14.6469 126.792 12.0291C126.792 8.68855 129.683 6.47225 134.147 6.47225C135.753 6.47225 137.279 6.77739 138.5 7.37162C139.881 8.01402 140.652 8.96157 140.652 10.0376C140.652 11.0976 139.881 11.74 138.773 11.74C138.259 11.74 137.713 11.5794 136.845 11.0976C135.561 10.3427 134.758 10.1018 133.874 10.1018C132.525 10.1018 131.722 10.7764 131.722 11.7239C131.722 12.543 132.3 13.0087 133.633 13.2978L136.653 13.9081C139.752 14.5505 141.214 16.1405 141.214 18.7743C141.214 22.2915 138.387 24.4596 133.617 24.4596C131.674 24.4596 129.939 24.0902 128.655 23.4318C127.306 22.7412 126.567 21.7615 126.567 20.6373Z" fill="#242424"/>
</g>
<g filter="url(#filter2_ii_1426_6141)">
<path d="M143.991 9.93408C143.733 9.93408 143.577 9.76846 143.577 9.49745V7.16371H142.928C142.737 7.16371 142.594 7.01816 142.594 6.82494C142.594 6.6292 142.737 6.48366 142.928 6.48366H145.063C145.254 6.48366 145.394 6.6292 145.394 6.82494C145.394 7.01816 145.254 7.16371 145.063 7.16371H144.408V9.49745C144.408 9.76846 144.25 9.93408 143.991 9.93408Z" fill="#242424"/>
<path d="M148.827 9.93408C148.591 9.93408 148.466 9.78352 148.466 9.50247V7.77851H148.426L147.846 9.07336C147.728 9.32681 147.633 9.40962 147.464 9.40962C147.294 9.40962 147.193 9.32179 147.078 9.07336L146.498 7.77851H146.458V9.50247C146.458 9.77599 146.32 9.93408 146.079 9.93408C145.841 9.93408 145.715 9.78352 145.715 9.50247V6.99307C145.715 6.65932 145.906 6.45605 146.212 6.45605C146.466 6.45605 146.616 6.574 146.767 6.89771L147.449 8.42844H147.477L148.16 6.8952C148.31 6.57149 148.458 6.45605 148.717 6.45605C149.028 6.45605 149.206 6.65179 149.206 6.99307V9.50247C149.206 9.77599 149.068 9.93408 148.827 9.93408Z" fill="#242424"/>
</g>
<defs>
<filter id="filter0_ii_1426_6141" x="0.771231" y="21.6572" width="5.65455" height="11.1137" filterUnits="userSpaceOnUse" color-interpolation-filters="sRGB">
<feFlood flood-opacity="0" result="BackgroundImageFix"/>
<feBlend mode="normal" in="SourceGraphic" in2="BackgroundImageFix" result="shape"/>
<feColorMatrix in="SourceAlpha" type="matrix" values="0 0 0 0 0 0 0 0 0 0 0 0 0 0 0 0 0 0 127 0" result="hardAlpha"/>
<feOffset dx="-0.513925" dy="0.770888"/>
<feGaussianBlur stdDeviation="2.3769"/>
<feComposite in2="hardAlpha" operator="arithmetic" k2="-1" k3="1"/>
<feColorMatrix type="matrix" values="0 0 0 0 1 0 0 0 0 1 0 0 0 0 1 0 0 0 0.55 0"/>
<feBlend mode="overlay" in2="shape" result="effect1_innerShadow_1426_6141"/>
<feColorMatrix in="SourceAlpha" type="matrix" values="0 0 0 0 0 0 0 0 0 0 0 0 0 0 0 0 0 0 127 0" result="hardAlpha"/>
<feOffset dx="-0.256963" dy="0.256963"/>
<feComposite in2="hardAlpha" operator="arithmetic" k2="-1" k3="1"/>
<feColorMatrix type="matrix" values="0 0 0 0 1 0 0 0 0 1 0 0 0 0 1 0 0 0 0.15 0"/>
<feBlend mode="overlay" in2="effect1_innerShadow_1426_6141" result="effect2_innerShadow_1426_6141"/>
</filter>
<filter id="filter1_ii_1426_6141" x="21.6619" y="0" width="119.553" height="25.2306" filterUnits="userSpaceOnUse" color-interpolation-filters="sRGB">
<feFlood flood-opacity="0" result="BackgroundImageFix"/>
<feBlend mode="normal" in="SourceGraphic" in2="BackgroundImageFix" result="shape"/>
<feColorMatrix in="SourceAlpha" type="matrix" values="0 0 0 0 0 0 0 0 0 0 0 0 0 0 0 0 0 0 127 0" result="hardAlpha"/>
<feOffset dx="-0.513925" dy="0.770888"/>
<feGaussianBlur stdDeviation="2.3769"/>
<feComposite in2="hardAlpha" operator="arithmetic" k2="-1" k3="1"/>
<feColorMatrix type="matrix" values="0 0 0 0 1 0 0 0 0 1 0 0 0 0 1 0 0 0 0.55 0"/>
<feBlend mode="overlay" in2="shape" result="effect1_innerShadow_1426_6141"/>
<feColorMatrix in="SourceAlpha" type="matrix" values="0 0 0 0 0 0 0 0 0 0 0 0 0 0 0 0 0 0 127 0" result="hardAlpha"/>
<feOffset dx="-0.256963" dy="0.256963"/>
<feComposite in2="hardAlpha" operator="arithmetic" k2="-1" k3="1"/>
<feColorMatrix type="matrix" values="0 0 0 0 1 0 0 0 0 1 0 0 0 0 1 0 0 0 0.15 0"/>
<feBlend mode="overlay" in2="effect1_innerShadow_1426_6141" result="effect2_innerShadow_1426_6141"/>
</filter>
<filter id="filter2_ii_1426_6141" x="142.08" y="6.45605" width="7.12721" height="4.24892" filterUnits="userSpaceOnUse" color-interpolation-filters="sRGB">
<feFlood flood-opacity="0" result="BackgroundImageFix"/>
<feBlend mode="normal" in="SourceGraphic" in2="BackgroundImageFix" result="shape"/>
<feColorMatrix in="SourceAlpha" type="matrix" values="0 0 0 0 0 0 0 0 0 0 0 0 0 0 0 0 0 0 127 0" result="hardAlpha"/>
<feOffset dx="-0.513925" dy="0.770888"/>
<feGaussianBlur stdDeviation="2.3769"/>
<feComposite in2="hardAlpha" operator="arithmetic" k2="-1" k3="1"/>
<feColorMatrix type="matrix" values="0 0 0 0 1 0 0 0 0 1 0 0 0 0 1 0 0 0 0.55 0"/>
<feBlend mode="overlay" in2="shape" result="effect1_innerShadow_1426_6141"/>
<feColorMatrix in="SourceAlpha" type="matrix" values="0 0 0 0 0 0 0 0 0 0 0 0 0 0 0 0 0 0 127 0" result="hardAlpha"/>
<feOffset dx="-0.256963" dy="0.256963"/>
<feComposite in2="hardAlpha" operator="arithmetic" k2="-1" k3="1"/>
<feColorMatrix type="matrix" values="0 0 0 0 1 0 0 0 0 1 0 0 0 0 1 0 0 0 0.15 0"/>
<feBlend mode="overlay" in2="effect1_innerShadow_1426_6141" result="effect2_innerShadow_1426_6141"/>
</filter>
<linearGradient id="paint0_linear_1426_6141" x1="4.70453" y1="4.51953" x2="0.438745" y2="13.2114" gradientUnits="userSpaceOnUse">
<stop stop-color="#E5457D"/>
<stop offset="1" stop-color="#E1437B"/>
</linearGradient>
<linearGradient id="paint1_linear_1426_6141" x1="14.8154" y1="14.6348" x2="14.8154" y2="24.0282" gradientUnits="userSpaceOnUse">
<stop stop-color="#3CAC97"/>
<stop offset="1" stop-color="#3DB199"/>
</linearGradient>
<linearGradient id="paint2_linear_1426_6141" x1="0.438745" y1="16.726" x2="8.25306" y2="24.0282" gradientUnits="userSpaceOnUse">
<stop stop-color="#F5782E"/>
<stop offset="1" stop-color="#DD8421"/>
</linearGradient>
<linearGradient id="paint3_linear_1426_6141" x1="2.7332" y1="9.97949" x2="2.7332" y2="18.5696" gradientUnits="userSpaceOnUse">
<stop stop-color="#EF4750"/>
<stop offset="1" stop-color="#ED6032"/>
</linearGradient>
<linearGradient id="paint4_linear_1426_6141" x1="5.46875" y1="8.04197" x2="14.0588" y2="8.04197" gradientUnits="userSpaceOnUse">
<stop stop-color="#AC2994"/>
<stop offset="1" stop-color="#6161AA"/>
</linearGradient>
<linearGradient id="paint5_linear_1426_6141" x1="14.0605" y1="18.6294" x2="5.46875" y2="18.6901" gradientUnits="userSpaceOnUse">
<stop stop-color="#63C591"/>
<stop offset="0.274038" stop-color="#6CC163"/>
<stop offset="1" stop-color="#989B26"/>
</linearGradient>
<linearGradient id="paint6_linear_1426_6141" x1="4.70453" y1="4.51953" x2="0.438745" y2="13.2114" gradientUnits="userSpaceOnUse">
<stop stop-color="#E5457D"/>
<stop offset="1" stop-color="#E1437B"/>
</linearGradient>
<linearGradient id="paint7_linear_1426_6141" x1="14.8154" y1="14.6348" x2="14.8154" y2="24.0282" gradientUnits="userSpaceOnUse">
<stop stop-color="#3CAC97"/>
<stop offset="1" stop-color="#3DB199"/>
</linearGradient>
<linearGradient id="paint8_linear_1426_6141" x1="0.438745" y1="16.726" x2="8.25306" y2="24.0282" gradientUnits="userSpaceOnUse">
<stop stop-color="#F5782E"/>
<stop offset="1" stop-color="#DD8421"/>
</linearGradient>
<linearGradient id="paint9_linear_1426_6141" x1="2.7332" y1="9.97949" x2="2.7332" y2="18.5696" gradientUnits="userSpaceOnUse">
<stop stop-color="#EF4750"/>
<stop offset="1" stop-color="#ED6032"/>
</linearGradient>
<linearGradient id="paint10_linear_1426_6141" x1="5.46875" y1="8.04197" x2="14.0588" y2="8.04197" gradientUnits="userSpaceOnUse">
<stop stop-color="#AC2994"/>
<stop offset="1" stop-color="#6161AA"/>
</linearGradient>
<linearGradient id="paint11_linear_1426_6141" x1="14.0605" y1="18.6294" x2="5.46875" y2="18.6901" gradientUnits="userSpaceOnUse">
<stop stop-color="#63C591"/>
<stop offset="0.274038" stop-color="#6CC163"/>
<stop offset="1" stop-color="#989B26"/>
</linearGradient>
</defs>
</svg>
