<svg width="18" height="21" viewBox="0 0 18 21" fill="none" xmlns="http://www.w3.org/2000/svg">
<path d="M16.612 7.09819C13.3933 9.24741 13.6587 13.7553 17.2203 15.4306C16.8774 16.158 16.5898 16.9185 16.1695 17.6018C15.6607 18.4174 15.0966 19.222 14.4662 19.9384C13.5481 20.9965 12.3867 21.1949 11.0926 20.6438C10.2852 20.2911 9.46665 19.9935 8.58179 20.1478C8.01768 20.247 7.46464 20.4124 6.93372 20.6107C5.36308 21.2169 4.50034 21.0626 3.38319 19.8062C1.58028 17.8112 0.485256 15.4636 0.109188 12.7964C-0.100968 11.2754 -0.0567246 9.77645 0.573743 8.34364C1.39224 6.492 2.79697 5.38983 4.84323 5.11429C5.67279 5.00407 6.43598 5.25757 7.18812 5.54414C7.32085 5.59924 7.45358 5.64333 7.57525 5.69844C8.33845 6.0842 9.07952 6.04011 9.85378 5.69844C10.8161 5.27962 11.8005 4.95999 12.8845 5.04816C14.433 5.18042 15.6497 5.85274 16.6009 7.09819H16.612Z" fill="black"/>
<path d="M8.59348 4.7834C8.23953 2.59009 10.3632 0.143282 12.7081 0C13.416 1.99492 10.9494 4.88259 8.59348 4.7834Z" fill="black"/>
</svg>
