<svg width="112" height="24" viewBox="0 0 112 24" fill="none" xmlns="http://www.w3.org/2000/svg">
<g filter="url(#filter0_ii_1453_6143)">
<path d="M0.964844 16.2429C1.97878 17.4066 3.30725 18.2885 4.81934 18.7537V22.1814C4.81934 23.3695 4.11052 23.9998 2.88574 23.9998C1.66116 23.9996 0.964844 23.3694 0.964844 22.1814V16.2429Z" fill="white"/>
</g>
<path d="M7.04898 3.38965C5.41052 3.48116 4.09859 4.8502 4.09859 6.51063V7.48433H3.12488C1.46446 7.48433 0.0954198 8.79627 0.00390625 10.4347C0.143007 6.60653 3.22079 3.52875 7.04898 3.38965Z" fill="url(#paint0_linear_1453_6143)"/>
<path d="M14.6332 10.4347C14.5417 8.79627 13.1719 7.48433 11.5115 7.48433H10.5385V6.51063C10.5385 4.84947 9.22513 3.48043 7.58594 3.38965C11.4141 3.52728 14.4941 6.6058 14.6332 10.4347Z" fill="#3884B5"/>
<path d="M14.6332 10.9761C14.4941 14.805 11.4141 17.8835 7.58594 18.0212C9.22513 17.9304 10.5385 16.5606 10.5385 14.9002V13.9265H11.5115C13.1719 13.9265 14.5417 12.6145 14.6332 10.9761Z" fill="url(#paint1_linear_1453_6143)"/>
<path d="M7.04898 18.0212C3.22079 17.8821 0.143007 14.8043 0.00390625 10.9761C0.0954198 12.6145 1.46446 13.9265 3.12488 13.9265H4.09859V14.9002C4.09859 16.5599 5.41052 17.9296 7.04898 18.0212Z" fill="url(#paint2_linear_1453_6143)"/>
<path d="M14.6389 10.7059C14.6389 10.7967 14.6374 10.8867 14.6337 10.9768C14.5422 12.6152 13.1725 13.9272 11.512 13.9272H10.5391V7.48462H11.512C13.1725 7.48462 14.5422 8.79656 14.6337 10.435C14.6374 10.5251 14.6389 10.6151 14.6389 10.7059Z" fill="#269698"/>
<path d="M4.09981 7.48462V13.9272H3.1261C1.46568 13.9272 0.0966383 12.6152 0.00512476 10.9768C0.00146422 10.8867 0 10.7967 0 10.7059C0 10.6151 0.00146422 10.5251 0.00512476 10.435C0.0966383 8.79656 1.46568 7.48462 3.1261 7.48462H4.09981Z" fill="url(#paint3_linear_1453_6143)"/>
<path d="M3.12891 20.0379V19.9175C3.12891 20.0323 3.13076 20.1463 3.13539 20.2602C3.13076 20.187 3.12891 20.1129 3.12891 20.0379Z" fill="white"/>
<path d="M3.13539 19.5747C3.13076 19.6886 3.12891 19.8026 3.12891 19.9174V19.797C3.12891 19.722 3.13076 19.6479 3.13539 19.5747Z" fill="white"/>
<path d="M14.6418 10.6105V10.7057C14.6418 10.6149 14.6404 10.5249 14.6367 10.4348C14.6404 10.4927 14.6418 10.5512 14.6418 10.6105Z" fill="white"/>
<path d="M14.6367 10.9767C14.6404 10.8866 14.6418 10.7966 14.6418 10.7058V10.801C14.6418 10.8603 14.6404 10.9189 14.6367 10.9767Z" fill="white"/>
<path d="M10.5441 6.51062V7.48433H4.10156V6.51062C4.10156 4.8502 5.4135 3.48116 7.05196 3.38965C7.14201 3.38599 7.23206 3.38452 7.32284 3.38452C7.40776 3.38452 7.49342 3.38599 7.57761 3.38891C7.582 3.38891 7.58713 3.38891 7.59152 3.38965C9.23071 3.48043 10.5441 4.84947 10.5441 6.51062Z" fill="url(#paint4_linear_1453_6143)"/>
<path d="M7.04688 18.022C7.13692 18.0256 7.22697 18.0271 7.31775 18.0271H7.22258C7.16328 18.0271 7.10471 18.0256 7.04688 18.022Z" fill="white"/>
<path d="M7.32031 18.0264C7.40524 18.0264 7.49089 18.0249 7.57509 18.022C7.52164 18.0249 7.4682 18.0264 7.41475 18.0264H7.32031Z" fill="white"/>
<path d="M7.32284 13.9271H4.10156V10.7058C4.10156 12.4848 5.54382 13.9271 7.32284 13.9271Z" fill="#E09927"/>
<path d="M7.32284 7.48462C5.54382 7.48462 4.10156 8.92687 4.10156 10.7059V7.48462H7.32284Z" fill="#E68A93"/>
<path d="M10.5416 7.48462V10.7059C10.5416 8.92687 9.09934 7.48462 7.32031 7.48462H10.5416Z" fill="#4E71CA"/>
<path d="M10.54 14.9011C10.5398 16.5613 9.2268 17.9303 7.58789 18.0212C7.5835 18.022 7.57763 18.0222 7.57324 18.0222C7.48933 18.0251 7.40397 18.0271 7.31934 18.0271C7.22855 18.0271 7.1379 18.0249 7.04785 18.0212C5.40964 17.9296 4.09788 16.5605 4.09766 14.9011V13.9275H7.32031C9.09934 13.9275 10.542 12.4848 10.542 10.7058V13.9275H10.54V14.9011Z" fill="url(#paint5_linear_1453_6143)"/>
<path d="M7.04898 3.38965C5.41052 3.48116 4.09859 4.8502 4.09859 6.51063V7.48433H3.12488C1.46446 7.48433 0.0954198 8.79627 0.00390625 10.4347C0.143007 6.60653 3.22079 3.52875 7.04898 3.38965Z" fill="url(#paint6_linear_1453_6143)"/>
<path d="M14.6332 10.4347C14.5417 8.79627 13.1719 7.48433 11.5115 7.48433H10.5385V6.51063C10.5385 4.84947 9.22513 3.48043 7.58594 3.38965C11.4141 3.52728 14.4941 6.6058 14.6332 10.4347Z" fill="#3884B5"/>
<path d="M14.6332 10.9761C14.4941 14.805 11.4141 17.8835 7.58594 18.0212C9.22513 17.9304 10.5385 16.5606 10.5385 14.9002V13.9265H11.5115C13.1719 13.9265 14.5417 12.6145 14.6332 10.9761Z" fill="url(#paint7_linear_1453_6143)"/>
<path d="M7.04898 18.0212C3.22079 17.8821 0.143007 14.8043 0.00390625 10.9761C0.0954198 12.6145 1.46446 13.9265 3.12488 13.9265H4.09859V14.9002C4.09859 16.5599 5.41052 17.9296 7.04898 18.0212Z" fill="url(#paint8_linear_1453_6143)"/>
<path d="M14.6389 10.7059C14.6389 10.7967 14.6374 10.8867 14.6337 10.9768C14.5422 12.6152 13.1725 13.9272 11.512 13.9272H10.5391V7.48462H11.512C13.1725 7.48462 14.5422 8.79656 14.6337 10.435C14.6374 10.5251 14.6389 10.6151 14.6389 10.7059Z" fill="#269698"/>
<path d="M4.09981 7.48462V13.9272H3.1261C1.46568 13.9272 0.0966383 12.6152 0.00512476 10.9768C0.00146422 10.8867 0 10.7967 0 10.7059C0 10.6151 0.00146422 10.5251 0.00512476 10.435C0.0966383 8.79656 1.46568 7.48462 3.1261 7.48462H4.09981Z" fill="url(#paint9_linear_1453_6143)"/>
<path d="M3.12891 20.0379V19.9175C3.12891 20.0323 3.13076 20.1463 3.13539 20.2602C3.13076 20.187 3.12891 20.1129 3.12891 20.0379Z" fill="white"/>
<path d="M3.13539 19.5747C3.13076 19.6886 3.12891 19.8026 3.12891 19.9174V19.797C3.12891 19.722 3.13076 19.6479 3.13539 19.5747Z" fill="white"/>
<path d="M14.6418 10.6105V10.7057C14.6418 10.6149 14.6404 10.5249 14.6367 10.4348C14.6404 10.4927 14.6418 10.5512 14.6418 10.6105Z" fill="white"/>
<path d="M14.6367 10.9767C14.6404 10.8866 14.6418 10.7966 14.6418 10.7058V10.801C14.6418 10.8603 14.6404 10.9189 14.6367 10.9767Z" fill="white"/>
<path d="M10.5441 6.51062V7.48433H4.10156V6.51062C4.10156 4.8502 5.4135 3.48116 7.05196 3.38965C7.14201 3.38599 7.23206 3.38452 7.32284 3.38452C7.40776 3.38452 7.49342 3.38599 7.57761 3.38891C7.582 3.38891 7.58713 3.38891 7.59152 3.38965C9.23071 3.48043 10.5441 4.84947 10.5441 6.51062Z" fill="url(#paint10_linear_1453_6143)"/>
<path d="M7.04688 18.022C7.13692 18.0256 7.22697 18.0271 7.31775 18.0271H7.22258C7.16328 18.0271 7.10471 18.0256 7.04688 18.022Z" fill="white"/>
<path d="M7.32031 18.0264C7.40524 18.0264 7.49089 18.0249 7.57509 18.022C7.52164 18.0249 7.4682 18.0264 7.41475 18.0264H7.32031Z" fill="white"/>
<path d="M7.32284 13.9271H4.10156V10.7058C4.10156 12.4848 5.54382 13.9271 7.32284 13.9271Z" fill="#E09927"/>
<path d="M7.32284 7.48462C5.54382 7.48462 4.10156 8.92687 4.10156 10.7059V7.48462H7.32284Z" fill="#E68A93"/>
<path d="M10.5416 7.48462V10.7059C10.5416 8.92687 9.09934 7.48462 7.32031 7.48462H10.5416Z" fill="#4E71CA"/>
<path d="M10.54 14.9011C10.5398 16.5613 9.2268 17.9303 7.58789 18.0212C7.5835 18.022 7.57763 18.0222 7.57324 18.0222C7.48933 18.0251 7.40397 18.0271 7.31934 18.0271C7.22855 18.0271 7.1379 18.0249 7.04785 18.0212C5.40964 17.9296 4.09788 16.5605 4.09766 14.9011V13.9275H7.32031C9.09934 13.9275 10.542 12.4848 10.542 10.7058V13.9275H10.54V14.9011Z" fill="url(#paint11_linear_1453_6143)"/>
<g filter="url(#filter1_ii_1453_6143)">
<path d="M20.4954 16.0321C20.4954 17.3811 19.7727 18.152 18.52 18.152C17.2553 18.152 16.6289 17.3811 16.6289 16.0321V7.17889C16.6289 5.81779 17.2914 5.05895 18.532 5.05895C19.6522 5.05895 20.2906 5.6853 20.3749 6.85368V7.03435H20.5556C20.9892 5.70939 21.9047 4.97464 23.1453 4.97464C23.6753 4.97464 24.0969 5.11918 24.398 5.40826C24.7112 5.69734 24.8798 6.11892 24.8798 6.66095C24.8798 7.19094 24.7232 7.57638 24.4101 7.84138C24.121 8.08228 23.6753 8.21477 23.0971 8.23886C21.3506 8.29909 20.4954 9.25066 20.4954 11.0936V16.0321Z" fill="white"/>
<path d="M31.9744 4.85418C35.6843 4.85418 38.1535 7.16685 38.1535 10.9249V12.1776C38.1535 16.1043 35.6843 18.3447 31.9744 18.3447C28.2524 18.3447 25.7832 16.1043 25.7832 12.1897V10.949C25.7832 7.16685 28.2524 4.85418 31.9744 4.85418ZM31.9744 7.74501C30.6012 7.74501 29.7701 8.91339 29.7701 10.9249V12.2619C29.7701 14.2735 30.6012 15.4539 31.9744 15.4539C33.3596 15.4539 34.1546 14.2735 34.1546 12.2619V10.9249C34.1546 8.91339 33.3596 7.74501 31.9744 7.74501Z" fill="white"/>
<path d="M59.4132 16.0321C59.4132 17.4172 58.7146 18.152 57.4739 18.152C56.2333 18.152 55.5467 17.4172 55.5467 16.0321V10.3227C55.5467 8.90135 54.8481 8.09432 53.6677 8.09432C52.4752 8.09432 51.7163 8.99771 51.7163 10.4311V16.0321C51.7163 17.4172 51.078 18.152 49.8734 18.152C48.6569 18.152 48.0185 17.4172 48.0185 16.0321V10.3468C48.0185 8.93748 47.2958 8.09432 46.1154 8.09432C44.9349 8.09432 44.1881 8.98566 44.1881 10.4311V16.0321C44.1881 17.4172 43.5016 18.152 42.2609 18.152C41.0203 18.152 40.3217 17.4172 40.3217 16.0321V7.11867C40.3217 5.84189 41.0444 5.05895 42.2127 5.05895C43.3209 5.05895 44.0195 5.78166 44.0797 6.99822V7.35957H44.2725C44.67 5.91416 46.0551 4.97464 47.8017 4.97464C49.6205 4.97464 50.9093 5.89007 51.3189 7.40775H51.4995C51.9934 5.93825 53.4629 4.97464 55.3299 4.97464C57.8594 4.97464 59.4132 6.5405 59.4132 9.10611V16.0321Z" fill="white"/>
<path d="M62.1474 1.87904C62.1474 0.782933 63.0267 0 64.2312 0C65.4478 0 66.315 0.782933 66.315 1.87904C66.315 2.98719 65.4478 3.77012 64.2312 3.77012C63.0267 3.77012 62.1474 2.98719 62.1474 1.87904ZM66.1705 16.0321C66.1705 17.4172 65.4598 18.152 64.2312 18.152C63.0026 18.152 62.304 17.4172 62.304 16.0321V7.17889C62.304 5.7937 63.0147 5.05895 64.2312 5.05895C65.4598 5.05895 66.1705 5.7937 66.1705 7.17889V16.0321Z" fill="white"/>
<path d="M68.5675 15.478C68.5675 14.683 69.1336 14.141 69.9768 14.141C70.4224 14.141 70.7717 14.2976 71.4101 14.683C72.434 15.3214 73.1808 15.5864 74.0721 15.5864C75.1802 15.5864 75.8548 15.1528 75.8548 14.4301C75.8548 13.7917 75.3248 13.346 74.1444 13.081L72.3496 12.6956C69.8683 12.1776 68.7361 10.9852 68.7361 9.0218C68.7361 6.51641 70.9042 4.85418 74.2528 4.85418C75.4573 4.85418 76.6016 5.08304 77.517 5.52871C78.5529 6.01052 79.131 6.72118 79.131 7.5282C79.131 8.32318 78.5529 8.80499 77.7218 8.80499C77.3363 8.80499 76.9268 8.68453 76.2764 8.32318C75.3127 7.75706 74.7105 7.57638 74.048 7.57638C73.0362 7.57638 72.434 8.08228 72.434 8.79294C72.434 9.40724 72.8676 9.75655 73.8673 9.97336L76.1318 10.4311C78.4565 10.9129 79.5526 12.1053 79.5526 14.0807C79.5526 16.7186 77.4327 18.3447 73.8553 18.3447C72.3978 18.3447 71.097 18.0677 70.1333 17.5738C69.1216 17.0559 68.5675 16.3211 68.5675 15.478Z" fill="white"/>
<path d="M81.3353 12.3222V10.9008C81.3353 7.26321 83.7443 4.85418 87.3699 4.85418C90.7787 4.85418 93.1877 7.23912 93.1877 10.4311C93.1877 11.9006 92.6698 12.4306 91.2846 12.4306H85.2741V12.9003C85.2981 14.418 86.3099 15.4418 88.0324 15.4418C88.9599 15.4418 89.5862 15.2371 90.0801 14.8757C90.6703 14.5023 90.9232 14.2735 91.5255 14.2735C92.3084 14.2735 92.8264 14.7794 92.8264 15.5984C92.8264 16.285 92.4048 16.8873 91.67 17.345C90.7907 17.9713 89.3814 18.3447 87.7554 18.3447C83.7805 18.3447 81.3353 16.0802 81.3353 12.3222ZM85.2741 10.2143H89.538V10.1781C89.538 8.70862 88.719 7.74501 87.4542 7.74501C86.0931 7.74501 85.2741 8.73271 85.2741 10.1781V10.2143Z" fill="white"/>
<path d="M94.9222 15.478C94.9222 14.683 95.4883 14.141 96.3315 14.141C96.7772 14.141 97.1265 14.2976 97.7649 14.683C98.7887 15.3214 99.5355 15.5864 100.427 15.5864C101.535 15.5864 102.21 15.1528 102.21 14.4301C102.21 13.7917 101.68 13.346 100.499 13.081L98.7044 12.6956C96.2231 12.1776 95.0908 10.9852 95.0908 9.0218C95.0908 6.51641 97.259 4.85418 100.607 4.85418C101.812 4.85418 102.956 5.08304 103.872 5.52871C104.908 6.01052 105.486 6.72118 105.486 7.5282C105.486 8.32318 104.908 8.80499 104.076 8.80499C103.691 8.80499 103.282 8.68453 102.631 8.32318C101.667 7.75706 101.065 7.57638 100.403 7.57638C99.3909 7.57638 98.7887 8.08228 98.7887 8.79294C98.7887 9.40724 99.2223 9.75655 100.222 9.97336L102.487 10.4311C104.811 10.9129 105.907 12.1053 105.907 14.0807C105.907 16.7186 103.787 18.3447 100.21 18.3447C98.7526 18.3447 97.4517 18.0677 96.4881 17.5738C95.4763 17.0559 94.9222 16.3211 94.9222 15.478Z" fill="white"/>
</g>
<g filter="url(#filter2_ii_1453_6143)">
<path d="M107.994 7.45056C107.8 7.45056 107.683 7.32635 107.683 7.12309V5.37278H107.196C107.053 5.37278 106.945 5.26362 106.945 5.1187C106.945 4.9719 107.053 4.86274 107.196 4.86274H108.797C108.94 4.86274 109.046 4.9719 109.046 5.1187C109.046 5.26362 108.94 5.37278 108.797 5.37278H108.306V7.12309C108.306 7.32635 108.187 7.45056 107.994 7.45056Z" fill="white"/>
<path d="M111.62 7.45056C111.443 7.45056 111.349 7.33764 111.349 7.12685V5.83388H111.319L110.884 6.80502C110.796 6.99511 110.724 7.05721 110.598 7.05721C110.47 7.05721 110.395 6.99134 110.309 6.80502L109.874 5.83388H109.844V7.12685C109.844 7.33199 109.74 7.45056 109.559 7.45056C109.381 7.45056 109.287 7.33764 109.287 7.12685V5.2448C109.287 4.99449 109.43 4.84204 109.659 4.84204C109.849 4.84204 109.962 4.9305 110.075 5.17328L110.587 6.32133H110.608L111.12 5.1714C111.233 4.92862 111.344 4.84204 111.538 4.84204C111.771 4.84204 111.905 4.98884 111.905 5.2448V7.12685C111.905 7.33199 111.801 7.45056 111.62 7.45056Z" fill="white"/>
</g>
<defs>
<filter id="filter0_ii_1453_6143" x="0.5794" y="16.2429" width="4.24091" height="8.335" filterUnits="userSpaceOnUse" color-interpolation-filters="sRGB">
<feFlood flood-opacity="0" result="BackgroundImageFix"/>
<feBlend mode="normal" in="SourceGraphic" in2="BackgroundImageFix" result="shape"/>
<feColorMatrix in="SourceAlpha" type="matrix" values="0 0 0 0 0 0 0 0 0 0 0 0 0 0 0 0 0 0 127 0" result="hardAlpha"/>
<feOffset dx="-0.385444" dy="0.578166"/>
<feGaussianBlur stdDeviation="1.78268"/>
<feComposite in2="hardAlpha" operator="arithmetic" k2="-1" k3="1"/>
<feColorMatrix type="matrix" values="0 0 0 0 1 0 0 0 0 1 0 0 0 0 1 0 0 0 0.55 0"/>
<feBlend mode="overlay" in2="shape" result="effect1_innerShadow_1453_6143"/>
<feColorMatrix in="SourceAlpha" type="matrix" values="0 0 0 0 0 0 0 0 0 0 0 0 0 0 0 0 0 0 127 0" result="hardAlpha"/>
<feOffset dx="-0.192722" dy="0.192722"/>
<feComposite in2="hardAlpha" operator="arithmetic" k2="-1" k3="1"/>
<feColorMatrix type="matrix" values="0 0 0 0 1 0 0 0 0 1 0 0 0 0 1 0 0 0 0.15 0"/>
<feBlend mode="overlay" in2="effect1_innerShadow_1453_6143" result="effect2_innerShadow_1453_6143"/>
</filter>
<filter id="filter1_ii_1453_6143" x="16.2435" y="0" width="89.6628" height="18.9229" filterUnits="userSpaceOnUse" color-interpolation-filters="sRGB">
<feFlood flood-opacity="0" result="BackgroundImageFix"/>
<feBlend mode="normal" in="SourceGraphic" in2="BackgroundImageFix" result="shape"/>
<feColorMatrix in="SourceAlpha" type="matrix" values="0 0 0 0 0 0 0 0 0 0 0 0 0 0 0 0 0 0 127 0" result="hardAlpha"/>
<feOffset dx="-0.385444" dy="0.578166"/>
<feGaussianBlur stdDeviation="1.78268"/>
<feComposite in2="hardAlpha" operator="arithmetic" k2="-1" k3="1"/>
<feColorMatrix type="matrix" values="0 0 0 0 1 0 0 0 0 1 0 0 0 0 1 0 0 0 0.55 0"/>
<feBlend mode="overlay" in2="shape" result="effect1_innerShadow_1453_6143"/>
<feColorMatrix in="SourceAlpha" type="matrix" values="0 0 0 0 0 0 0 0 0 0 0 0 0 0 0 0 0 0 127 0" result="hardAlpha"/>
<feOffset dx="-0.192722" dy="0.192722"/>
<feComposite in2="hardAlpha" operator="arithmetic" k2="-1" k3="1"/>
<feColorMatrix type="matrix" values="0 0 0 0 1 0 0 0 0 1 0 0 0 0 1 0 0 0 0.15 0"/>
<feBlend mode="overlay" in2="effect1_innerShadow_1453_6143" result="effect2_innerShadow_1453_6143"/>
</filter>
<filter id="filter2_ii_1453_6143" x="106.56" y="4.84204" width="5.34638" height="3.18681" filterUnits="userSpaceOnUse" color-interpolation-filters="sRGB">
<feFlood flood-opacity="0" result="BackgroundImageFix"/>
<feBlend mode="normal" in="SourceGraphic" in2="BackgroundImageFix" result="shape"/>
<feColorMatrix in="SourceAlpha" type="matrix" values="0 0 0 0 0 0 0 0 0 0 0 0 0 0 0 0 0 0 127 0" result="hardAlpha"/>
<feOffset dx="-0.385444" dy="0.578166"/>
<feGaussianBlur stdDeviation="1.78268"/>
<feComposite in2="hardAlpha" operator="arithmetic" k2="-1" k3="1"/>
<feColorMatrix type="matrix" values="0 0 0 0 1 0 0 0 0 1 0 0 0 0 1 0 0 0 0.55 0"/>
<feBlend mode="overlay" in2="shape" result="effect1_innerShadow_1453_6143"/>
<feColorMatrix in="SourceAlpha" type="matrix" values="0 0 0 0 0 0 0 0 0 0 0 0 0 0 0 0 0 0 127 0" result="hardAlpha"/>
<feOffset dx="-0.192722" dy="0.192722"/>
<feComposite in2="hardAlpha" operator="arithmetic" k2="-1" k3="1"/>
<feColorMatrix type="matrix" values="0 0 0 0 1 0 0 0 0 1 0 0 0 0 1 0 0 0 0.15 0"/>
<feBlend mode="overlay" in2="effect1_innerShadow_1453_6143" result="effect2_innerShadow_1453_6143"/>
</filter>
<linearGradient id="paint0_linear_1453_6143" x1="3.52644" y1="3.38965" x2="0.327106" y2="9.90853" gradientUnits="userSpaceOnUse">
<stop stop-color="#E5457D"/>
<stop offset="1" stop-color="#E1437B"/>
</linearGradient>
<linearGradient id="paint1_linear_1453_6143" x1="11.1096" y1="10.9761" x2="11.1096" y2="18.0212" gradientUnits="userSpaceOnUse">
<stop stop-color="#3CAC97"/>
<stop offset="1" stop-color="#3DB199"/>
</linearGradient>
<linearGradient id="paint2_linear_1453_6143" x1="0.327106" y1="12.5445" x2="6.18784" y2="18.0212" gradientUnits="userSpaceOnUse">
<stop stop-color="#F5782E"/>
<stop offset="1" stop-color="#DD8421"/>
</linearGradient>
<linearGradient id="paint3_linear_1453_6143" x1="2.0499" y1="7.48462" x2="2.0499" y2="13.9272" gradientUnits="userSpaceOnUse">
<stop stop-color="#EF4750"/>
<stop offset="1" stop-color="#ED6032"/>
</linearGradient>
<linearGradient id="paint4_linear_1453_6143" x1="4.10156" y1="6.03147" x2="10.5441" y2="6.03147" gradientUnits="userSpaceOnUse">
<stop stop-color="#AC2994"/>
<stop offset="1" stop-color="#6161AA"/>
</linearGradient>
<linearGradient id="paint5_linear_1453_6143" x1="10.542" y1="13.9721" x2="4.09766" y2="14.0176" gradientUnits="userSpaceOnUse">
<stop stop-color="#63C591"/>
<stop offset="0.274038" stop-color="#6CC163"/>
<stop offset="1" stop-color="#989B26"/>
</linearGradient>
<linearGradient id="paint6_linear_1453_6143" x1="3.52644" y1="3.38965" x2="0.327106" y2="9.90853" gradientUnits="userSpaceOnUse">
<stop stop-color="#E5457D"/>
<stop offset="1" stop-color="#E1437B"/>
</linearGradient>
<linearGradient id="paint7_linear_1453_6143" x1="11.1096" y1="10.9761" x2="11.1096" y2="18.0212" gradientUnits="userSpaceOnUse">
<stop stop-color="#3CAC97"/>
<stop offset="1" stop-color="#3DB199"/>
</linearGradient>
<linearGradient id="paint8_linear_1453_6143" x1="0.327106" y1="12.5445" x2="6.18784" y2="18.0212" gradientUnits="userSpaceOnUse">
<stop stop-color="#F5782E"/>
<stop offset="1" stop-color="#DD8421"/>
</linearGradient>
<linearGradient id="paint9_linear_1453_6143" x1="2.0499" y1="7.48462" x2="2.0499" y2="13.9272" gradientUnits="userSpaceOnUse">
<stop stop-color="#EF4750"/>
<stop offset="1" stop-color="#ED6032"/>
</linearGradient>
<linearGradient id="paint10_linear_1453_6143" x1="4.10156" y1="6.03147" x2="10.5441" y2="6.03147" gradientUnits="userSpaceOnUse">
<stop stop-color="#AC2994"/>
<stop offset="1" stop-color="#6161AA"/>
</linearGradient>
<linearGradient id="paint11_linear_1453_6143" x1="10.542" y1="13.9721" x2="4.09766" y2="14.0176" gradientUnits="userSpaceOnUse">
<stop stop-color="#63C591"/>
<stop offset="0.274038" stop-color="#6CC163"/>
<stop offset="1" stop-color="#989B26"/>
</linearGradient>
</defs>
</svg>
