<svg width="273" height="296" viewBox="0 0 273 296" fill="none" xmlns="http://www.w3.org/2000/svg">
<path d="M257.279 244.916H7.89573C6.00286 243.338 4.44845 241.47 3.2701 239.42C-0.108239 233.559 -0.402825 226.334 2.54304 220.297C4.0285 217.253 6.37266 214.649 9.33733 212.587C12.7407 210.229 16.6832 208.562 20.5065 206.789C24.3362 205.009 28.2285 203.079 31.1054 200.186C34.5464 196.727 35.8564 192.193 35.8626 187.703C35.8752 178.39 30.8609 169.718 30.3846 160.436C29.6262 145.413 37.5299 130.358 50.7048 120.629C54.0079 118.19 57.6557 116.102 61.5543 114.435C66.2614 112.423 71.3007 111.083 76.2836 109.675C81.4044 108.222 86.5565 106.688 91.201 104.273C95.4756 102.041 99.2551 99.173 102.677 96.035C109.472 89.803 114.893 82.5775 121.612 76.2953C128.043 70.2834 135.997 64.7369 145.424 62.8881C154.242 61.1587 162.999 63.366 170.031 68.1264C177.189 72.9686 182.422 79.7099 186.622 86.6022C191.059 93.8843 194.745 101.537 200.141 108.361C202.761 111.687 205.789 114.781 209.399 117.334C212.871 119.793 216.833 121.56 220.919 123.113C228.309 125.924 236.633 128.169 242.261 133.446C249.231 139.973 248.604 149.091 246.135 157.122C243.289 166.347 237.56 176.069 241.12 185.772C244.098 193.891 252.139 199.538 256.984 206.745C264.769 218.309 264.656 233.276 257.279 244.929V244.916Z" fill="#FAC686"/>
<g style="mix-blend-mode:multiply">
<path d="M255.023 204.349C249.206 215.649 239.604 224.742 228.265 230.352C216.614 236.106 202.235 238.583 189.643 234.622C183.444 232.679 177.828 229.025 173.993 223.711C170.721 219.177 169.091 213.731 169.517 208.203C169.411 206.877 169.423 205.543 169.549 204.235C170.169 197.934 173.717 192.218 177.872 187.627C182.473 182.534 188.058 178.534 193.442 174.346C196.293 172.126 199.114 169.843 201.677 167.29C204.216 164.769 206.416 161.976 208.353 158.971C212.17 153.04 215.228 146.513 220.318 141.526C224.943 136.992 230.954 134.143 237.517 135.269C251.431 137.652 258.269 152.776 260.639 165.24C263.133 178.402 261.153 192.432 255.023 204.349Z" fill="#DFBBFF"/>
</g>
<path d="M187.105 131.509C175.855 135.074 163.864 134.276 152.269 133.445C140.435 132.597 128.201 131.521 116.624 134.842C105.474 138.042 96.0657 145.218 85.3666 149.513C80.39 151.506 75.1125 152.827 69.7222 152.77C64.7644 152.714 59.8629 151.613 55.3 149.682C52.1097 148.337 49.0886 146.582 46.2932 144.513C46.1741 144.444 46.055 144.375 45.9359 144.299C36.553 138.42 29.7838 129.238 26.6248 118.623C23.3217 107.524 23.8106 95.4815 27.402 84.5269C30.9747 73.6351 37.5057 63.8565 45.5348 55.7631C54.0151 47.217 64.1815 40.5637 74.9621 35.3065C86.57 29.6531 98.9614 25.3266 111.541 22.4464C124.265 19.5222 137.421 18.2079 150.451 19.4908C162.178 20.6416 173.805 23.8991 184.197 29.5336C194.244 34.9795 203.001 42.6704 209.312 52.2541C215.379 61.4542 219.197 72.2517 219.516 83.3258C219.823 93.7396 216.834 104.097 211.167 112.813C205.476 121.566 197.077 128.352 187.105 131.509Z" fill="#FAC686"/>
<path d="M267.635 244.708C267.635 262.543 207.721 277 133.817 277C59.9138 277 0 262.543 0 244.708H267.635Z" fill="#B18A70"/>
<path d="M241.876 196.79C228.933 202.003 214.141 202.462 200.91 198.054C214.43 197.689 228.319 197.173 241.876 196.79Z" fill="#242C5B"/>
<path d="M271.509 160.077C269.29 164.253 266.238 167.925 262.985 171.352C252.166 182.76 238.96 191.771 228.449 203.405L226.324 203.902L226.707 202.808C226.763 202.638 226.819 202.474 226.882 202.298C228.248 197.488 229.978 192.778 232.059 188.218C236.497 178.477 242.483 169.434 249.753 161.586C253.501 157.537 257.676 153.738 262.69 151.437C264.295 150.695 266.024 150.11 267.792 150.166C269.559 150.217 271.377 151.009 272.311 152.518C273.709 154.776 272.762 157.725 271.509 160.065V160.077Z" fill="#FF4C66"/>
<path d="M226.816 200.946L226.195 201.927C226.371 201.6 226.603 201.273 226.816 200.946Z" fill="#5E7FE5"/>
<path d="M259.545 115.8C259.84 127.628 254.312 138.721 249.166 149.368C243.005 162.115 237.194 175.044 232.055 188.225C229.974 192.778 228.238 197.494 226.878 202.305C226.815 202.475 226.758 202.644 226.702 202.814L226.32 203.908L222.54 204.795C222.427 204.298 222.321 203.795 222.227 203.305C221.926 200.098 221.619 196.897 221.28 193.683C221.28 193.683 221.28 193.679 221.28 193.671C221.211 190.168 221.393 186.634 221.638 183.137C223.017 163.341 226.621 143.381 235.565 125.679C239.018 118.85 243.55 112.121 250.357 108.656C251.811 107.914 253.465 107.329 255.058 107.687C258.298 108.429 259.464 112.454 259.545 115.793V115.8Z" fill="#FF523B"/>
<path d="M223.605 190.809C223.605 190.809 223.611 190.816 223.605 190.822C223.204 194.023 222.777 197.217 222.339 200.406C222.32 200.909 222.307 201.418 222.307 201.927H219.512C217.738 196.494 215.952 191.067 214.172 185.634C211.451 175.943 209.164 166.127 207.409 156.216C203.83 135.98 202.62 114.46 210.511 95.4939C211.564 92.9722 213.463 90.092 216.171 90.4065C217.575 90.5763 218.735 91.6076 219.612 92.7269C222.414 96.2674 223.429 100.864 224.2 105.317C229.083 133.502 227.196 162.354 223.611 190.809H223.605Z" fill="#FF4C66"/>
<path d="M219.512 201.927H214.373C209.333 194.84 204.031 187.942 198.471 181.263C190.812 172.032 182.626 163.121 176.697 152.682C174.923 149.556 173.344 146.274 172.554 142.758C171.764 139.249 171.795 135.476 173.162 132.143C173.638 130.967 174.34 129.798 175.45 129.188C177.386 128.106 179.806 129.049 181.73 130.15C190.047 134.923 196.378 142.639 200.985 151.059C205.585 159.486 208.612 168.68 211.608 177.804C212.467 180.414 213.326 183.024 214.178 185.634C215.958 191.067 217.745 196.494 219.518 201.927H219.512Z" fill="#FF4C66"/>
<path opacity="0.26" d="M254.917 107.882C252.918 108.052 252.159 110.241 251.921 111.939C251.783 112.907 251.708 113.932 251.269 114.819C250.781 115.806 249.84 116.259 248.863 116.649C247.966 117.007 247.014 117.366 246.356 118.114C245.823 118.718 245.547 119.497 245.403 120.277C245.102 121.925 245.365 123.874 244.287 125.283C243.197 126.71 241.291 127.352 240.489 129.031C239.618 130.848 240.558 132.798 240.282 134.684C240.013 136.546 238.264 137.483 237.048 138.703C236.446 139.306 235.957 140.023 235.763 140.866C235.55 141.828 235.719 142.822 235.838 143.79C235.957 144.771 236.051 145.809 235.55 146.702C235.099 147.494 234.315 148.028 233.613 148.569C232.93 149.091 232.247 149.651 231.802 150.406C231.338 151.204 231.25 152.141 231.288 153.047C231.332 154.015 231.513 154.977 231.463 155.952C231.407 156.952 230.987 157.757 230.354 158.511C229.777 159.191 229.125 159.807 228.655 160.574C228.173 161.366 228.016 162.259 228.173 163.171C228.48 165.008 229.94 166.938 228.937 168.787C228.11 170.321 226.386 171.265 226.179 173.132C226.073 174.094 226.342 175.038 226.606 175.956C226.875 176.893 227.201 177.918 226.932 178.893C226.487 180.521 224.606 181.282 224.199 182.949C223.961 183.911 224.393 184.798 224.807 185.64C225.264 186.577 225.528 187.445 225.001 188.407C224.594 189.149 223.992 189.759 223.591 190.501C223.183 191.268 223.096 192.099 223.34 192.935C223.854 194.671 225.766 196.249 225.133 198.205C224.819 199.167 224.08 199.928 223.516 200.745C223.014 201.475 222.676 202.292 222.657 203.185C222.638 204.015 222.977 204.77 223.704 205.185C224.08 205.399 224.374 204.801 224.005 204.588C223.127 204.091 223.234 202.896 223.534 202.078C223.86 201.192 224.55 200.487 225.076 199.72C225.59 198.966 225.991 198.104 225.91 197.167C225.835 196.287 225.409 195.488 224.976 194.74C224.512 193.935 223.917 193.092 223.86 192.136C223.81 191.262 224.312 190.545 224.807 189.872C225.271 189.244 225.778 188.59 225.941 187.803C226.136 186.848 225.709 185.986 225.302 185.15C224.876 184.282 224.581 183.414 225.089 182.515C225.496 181.785 226.167 181.238 226.7 180.603C227.22 179.981 227.609 179.283 227.678 178.459C227.759 177.49 227.464 176.541 227.201 175.616C226.944 174.704 226.662 173.717 226.925 172.774C227.164 171.919 227.803 171.252 228.379 170.611C228.931 169.988 229.495 169.347 229.771 168.548C230.072 167.686 229.965 166.787 229.715 165.926C229.432 164.951 228.962 164.02 228.812 163.008C228.674 162.052 228.95 161.222 229.527 160.467C230.078 159.744 230.755 159.134 231.281 158.392C231.783 157.681 232.059 156.908 232.115 156.04C232.234 154.235 231.382 152.103 232.529 150.494C233.532 149.079 235.368 148.488 236.189 146.903C237.123 145.098 236.083 143.136 236.365 141.256C236.634 139.438 238.402 138.501 239.586 137.306C240.163 136.728 240.633 136.049 240.84 135.25C241.084 134.313 240.965 133.326 240.859 132.383C240.758 131.452 240.633 130.452 240.971 129.553C241.291 128.716 241.981 128.119 242.67 127.584C243.378 127.037 244.13 126.515 244.701 125.817C245.215 125.188 245.509 124.44 245.66 123.648C245.967 122.082 245.685 120.177 246.638 118.806C247.791 117.152 250.26 117.34 251.476 115.712C252.655 114.133 252.254 112.052 252.987 110.31C253.344 109.461 253.952 108.631 254.936 108.549C255.362 108.511 255.331 107.845 254.905 107.882H254.917Z" fill="#D0D8FF"/>
<path opacity="0.26" d="M257.733 111.215C255.289 113.422 257.783 117.321 255.746 119.755C254.75 120.95 253.252 121.566 252.036 122.497C251.478 122.924 250.964 123.421 250.613 124.037C250.162 124.83 250.08 125.742 250.181 126.635C250.293 127.647 250.607 128.641 250.557 129.666C250.519 130.445 250.206 131.181 249.767 131.816C248.889 133.087 247.63 134.03 246.621 135.193C246.125 135.766 245.674 136.401 245.392 137.111C245.072 137.929 245.003 138.797 245.054 139.664C245.104 140.658 245.286 141.652 245.235 142.645C245.185 143.576 244.859 144.406 244.276 145.129C243.205 146.462 241.638 147.424 240.942 149.047C240.209 150.764 240.685 152.631 240.654 154.424C240.635 155.323 240.459 156.203 239.927 156.945C239.413 157.668 238.692 158.222 238.021 158.788C237.401 159.31 236.799 159.857 236.36 160.549C235.871 161.328 235.715 162.24 235.752 163.152C235.834 165.026 236.605 166.887 235.84 168.717C235.194 170.271 233.935 171.459 232.925 172.767C232.411 173.428 231.935 174.132 231.615 174.912C231.283 175.723 231.145 176.572 231.095 177.44C230.989 179.282 231.346 181.263 230.631 183.018C229.986 184.615 228.507 185.653 227.629 187.105C227.203 187.809 226.965 188.608 227.021 189.438C227.09 190.463 227.523 191.407 227.736 192.4C227.955 193.413 227.736 194.205 227.147 195.029C226.67 195.695 226.125 196.362 226.056 197.211C225.974 198.236 226.714 199.097 226.67 200.097C226.633 201.085 225.786 201.827 225.366 202.663C224.978 203.443 224.809 204.424 225.385 205.153C225.649 205.487 226.206 205.122 225.937 204.782C225.235 203.889 226.05 202.764 226.564 201.996C227.059 201.254 227.454 200.475 227.291 199.563C227.121 198.601 226.438 197.689 226.858 196.695C227.19 195.903 227.861 195.312 228.218 194.532C229.083 192.639 227.585 190.897 227.679 188.998C227.761 187.281 229.334 186.08 230.305 184.829C230.819 184.168 231.221 183.464 231.446 182.653C231.697 181.76 231.735 180.817 231.741 179.898C231.741 178.094 231.609 176.251 232.487 174.604C233.283 173.107 234.555 171.943 235.527 170.573C235.978 169.937 236.366 169.265 236.611 168.523C236.893 167.661 236.899 166.755 236.793 165.862C236.567 164.014 235.928 162.052 237.238 160.454C238.309 159.14 239.964 158.36 240.779 156.82C241.619 155.235 241.249 153.392 241.205 151.682C241.18 150.745 241.262 149.802 241.713 148.971C242.12 148.223 242.741 147.619 243.342 147.041C243.944 146.456 244.565 145.884 245.047 145.192C245.561 144.45 245.837 143.626 245.9 142.721C246.019 140.891 245.298 138.96 246.069 137.206C247.279 134.47 250.839 133.149 251.202 129.967C251.415 128.1 250.206 126.075 251.215 124.314C251.973 122.993 253.534 122.314 254.744 121.484C255.978 120.635 256.956 119.585 257.213 118.057C257.47 116.529 257.107 114.976 257.332 113.447C257.439 112.743 257.702 112.127 258.241 111.643C258.561 111.353 258.059 110.913 257.746 111.202L257.733 111.215Z" fill="#D0D8FF"/>
<path opacity="0.26" d="M218.278 198.418C217.381 196.985 215.714 196.293 214.762 194.909C213.621 193.255 214.429 191.218 214.304 189.375C214.191 187.74 213.201 186.552 212.091 185.439C210.951 184.288 209.76 183.162 209.678 181.433C209.591 179.641 210.299 177.811 209.453 176.1C209.102 175.39 208.538 174.931 207.792 174.679C207.384 174.541 206.958 174.434 206.638 174.126C206.363 173.855 206.2 173.491 206.112 173.113C205.698 171.359 206.758 169.623 206.294 167.869C205.886 166.322 204.401 165.712 203.11 165.07C202.452 164.743 201.787 164.372 201.348 163.762C200.922 163.165 200.753 162.429 200.653 161.718C200.458 160.322 200.534 158.788 199.794 157.53C198.954 156.103 197.35 156.015 195.971 155.424C195.256 155.115 194.748 154.619 194.542 153.851C194.335 153.084 194.404 152.26 194.372 151.468C194.347 150.77 194.26 150.047 193.896 149.431C193.495 148.751 192.805 148.387 192.085 148.148C191.376 147.915 190.555 147.77 189.991 147.248C189.44 146.739 189.302 145.94 189.214 145.23C189.045 143.872 188.988 142.281 187.597 141.582C186.268 140.916 184.476 141.419 183.68 139.872C183.109 138.765 183.109 137.47 182.652 136.325C182.457 135.841 182.175 135.376 181.737 135.074C181.492 134.904 181.223 134.797 180.934 134.734C180.408 134.627 179.844 134.753 179.33 134.577C178.59 134.319 178.227 133.495 177.963 132.816C177.675 132.068 177.443 131.294 176.929 130.659C176.478 130.1 175.895 129.741 175.168 129.754C174.742 129.76 174.798 130.427 175.224 130.42C176.841 130.389 177.161 132.904 177.763 133.973C178.12 134.602 178.646 135.124 179.367 135.281C180.107 135.445 180.94 135.193 181.542 135.778C182.351 136.577 182.388 138.023 182.67 139.061C183.015 140.337 183.673 141.344 185.015 141.677C185.785 141.872 186.65 141.834 187.359 142.218C188.011 142.57 188.268 143.268 188.38 143.966C188.606 145.274 188.499 146.846 189.596 147.802C190.718 148.777 192.793 148.5 193.445 150.022C194.028 151.393 193.47 152.99 194.015 154.392C194.598 155.908 196.146 156.153 197.5 156.625C198.202 156.87 198.829 157.222 199.224 157.876C199.581 158.474 199.7 159.19 199.788 159.87C199.957 161.253 199.938 162.756 200.697 163.976C201.468 165.221 202.922 165.649 204.131 166.328C204.777 166.693 205.372 167.177 205.617 167.906C205.93 168.85 205.667 169.881 205.504 170.831C205.266 172.17 205.197 173.962 206.463 174.836C207.159 175.314 208.067 175.289 208.613 176C209.077 176.603 209.215 177.415 209.233 178.163C209.252 179.15 209.026 180.125 209.014 181.106C209.001 181.961 209.183 182.779 209.603 183.527C210.324 184.81 211.54 185.703 212.48 186.81C212.95 187.369 213.364 187.992 213.539 188.709C213.771 189.646 213.627 190.633 213.539 191.576C213.464 192.457 213.42 193.356 213.683 194.211C213.922 194.985 214.417 195.626 214.993 196.186C216.153 197.312 217.676 198.116 218.171 199.764C218.378 200.456 218.353 201.267 217.776 201.776C217.457 202.053 217.839 202.606 218.159 202.324C219.337 201.292 219.03 199.626 218.278 198.425V198.418Z" fill="#D0D8FF"/>
<path opacity="0.26" d="M214.002 198.217C213.438 197.733 212.824 197.299 212.353 196.714C212.134 196.437 211.94 196.129 211.846 195.783C211.727 195.337 211.821 194.89 211.89 194.444C211.99 193.765 211.977 193.123 211.608 192.526C211.326 192.061 210.887 191.715 210.442 191.413C209.552 190.809 208.304 190.312 207.828 189.275C207.176 187.847 208.21 186.187 207.446 184.753C206.813 183.558 205.402 183.244 204.324 182.596C201.78 181.062 203.29 177.415 201.598 175.308C200.727 174.226 199.348 173.887 198.226 173.164C197.612 172.767 197.16 172.252 196.941 171.547C196.715 170.818 196.728 170.026 196.703 169.265C196.665 167.856 196.471 166.447 195.311 165.51C194.29 164.687 192.942 164.397 191.914 163.592C190.636 162.586 190.874 160.995 190.705 159.549C190.623 158.838 190.416 158.14 189.952 157.581C189.551 157.103 189.018 156.769 188.461 156.511C187.332 155.99 185.922 155.751 185.057 154.788C184.079 153.694 184.236 152.034 184.048 150.676C183.854 149.292 183.277 148.185 182.036 147.487C180.82 146.802 179.216 146.569 178.42 145.305C177.586 143.978 177.793 142.249 177.241 140.809C176.727 139.476 175.737 138.363 174.509 137.652C173.901 137.3 173.224 137.061 172.528 136.942C172.108 136.866 171.983 137.526 172.409 137.596C173.863 137.847 175.167 138.69 176.013 139.903C176.922 141.205 176.94 142.727 177.291 144.224C177.461 144.941 177.743 145.626 178.244 146.167C178.689 146.651 179.272 146.978 179.867 147.248C181.096 147.802 182.531 148.179 183.083 149.55C183.603 150.846 183.415 152.317 183.754 153.656C184.086 154.958 184.976 155.788 186.173 156.31C187.282 156.794 188.724 157.059 189.489 158.077C190.41 159.304 189.921 161.052 190.335 162.448C190.717 163.756 191.845 164.429 192.999 164.982C194.208 165.561 195.462 166.108 195.838 167.523C196.214 168.931 195.857 170.434 196.32 171.83C196.772 173.189 197.963 173.83 199.172 174.415C199.78 174.711 200.407 175.012 200.883 175.503C201.347 175.975 201.598 176.603 201.742 177.239C202.03 178.54 201.936 179.917 202.381 181.194C202.839 182.515 203.867 183.15 205.064 183.716C205.641 183.986 206.267 184.269 206.669 184.778C207.17 185.414 207.114 186.237 207.038 186.998C206.969 187.74 206.875 188.495 207.089 189.218C207.251 189.765 207.609 190.224 208.029 190.595C208.862 191.325 209.959 191.715 210.743 192.507C211.225 192.998 211.338 193.57 211.238 194.243C211.119 195.029 211.031 195.739 211.401 196.475C212.078 197.808 213.538 198.412 214.378 199.601C214.823 200.236 215.105 201.003 214.666 201.714C214.441 202.078 215.049 202.361 215.268 201.997C216.095 200.651 215.017 199.085 213.996 198.205L214.002 198.217Z" fill="#D0D8FF"/>
<path d="M241.876 196.79C241.55 201.047 240.779 205.26 240.002 209.455C237.877 220.988 235.752 232.508 233.627 244.035C226.137 245.595 218.328 246.255 210.938 244.557C207.509 229.05 204.081 213.555 200.652 198.06C200.74 198.06 200.828 198.06 200.909 198.054C214.141 202.468 228.926 202.003 241.876 196.79Z" fill="#F4AC22"/>
<path d="M216.337 102.21C215.923 125.164 210.464 147.897 211.229 170.844C211.342 174.114 211.567 177.415 211.116 180.66C210.665 183.905 209.455 187.162 207.08 189.414C205.231 191.181 202.836 192.193 200.323 192.778C185.393 193.25 147.416 192.703 129.572 192.288H107.516L108.374 182.76H181.118C182.447 182.76 183.77 182.735 185.092 182.66C189.617 182.383 194.394 181.163 197.402 177.767C200.028 174.799 200.874 170.693 201.545 166.781C201.67 166.052 201.796 165.322 201.915 164.586C202.003 164.102 202.084 163.605 202.159 163.115C202.228 162.725 202.285 162.341 202.347 161.952C202.473 161.147 202.604 160.342 202.723 159.537C202.805 159.021 202.88 158.512 202.955 157.996C203.068 157.26 203.168 156.531 203.275 155.795C203.388 155.022 203.494 154.254 203.595 153.481C203.695 152.783 203.783 152.079 203.87 151.381C203.977 150.607 204.071 149.834 204.159 149.06C204.29 147.532 205.719 130.899 206.691 114.825V114.8C207.311 104.531 207.75 94.4944 207.543 88.7907C207.543 88.7907 216.694 86.0929 216.331 102.217L216.337 102.21Z" fill="#878AB2"/>
<path d="M206.697 114.794V114.819C205.719 130.892 204.296 147.519 204.164 149.054C204.077 149.827 203.983 150.601 203.876 151.374C203.788 152.072 203.694 152.776 203.6 153.474C203.5 154.248 203.394 155.015 203.281 155.789C203.174 156.524 203.074 157.254 202.961 157.99C202.886 158.505 202.811 159.015 202.729 159.53C202.61 160.335 202.478 161.14 202.353 161.945C202.29 162.335 202.234 162.719 202.165 163.108C202.09 163.599 202.008 164.096 201.921 164.58C201.802 165.316 201.676 166.045 201.551 166.775C200.874 170.686 200.034 174.793 197.408 177.761C194.399 181.163 189.623 182.377 185.098 182.653C183.775 182.729 182.453 182.754 181.124 182.754H118.277C118.277 182.754 117.431 164.8 142.145 161.096C166.859 157.392 164.765 87.0171 164.765 87.0171L207.543 88.7842C207.743 94.4879 207.305 104.524 206.69 114.794H206.697Z" fill="#FFDAAE"/>
<path d="M194.656 239.772C198.912 239.772 202.366 243.231 202.366 247.501C202.366 251.77 198.912 255.235 194.656 255.235C190.4 255.235 186.953 251.77 186.953 247.501C186.953 246.947 187.01 246.4 187.129 245.878C188.733 246.74 189.836 247.595 190.563 248.274C190.921 250.224 192.619 251.689 194.656 251.689C196.963 251.689 198.831 249.815 198.831 247.501C198.831 245.186 197.119 243.488 194.957 243.338C193.704 242.344 192.406 241.464 191.065 240.665C192.13 240.093 193.359 239.772 194.656 239.772Z" fill="#211F35"/>
<path d="M195.848 193.457C195.91 194.079 196.199 194.67 196.355 195.274C196.531 195.953 196.443 196.815 195.873 197.167H122.145C124.614 195.519 127.09 193.897 129.584 192.281C147.429 192.696 185.405 193.243 200.335 192.771C199.414 192.991 198.467 193.155 197.534 193.268C196.976 193.337 196.412 193.394 195.854 193.45L195.848 193.457Z" fill="#464D87"/>
<path d="M194.956 243.331C197.119 243.482 198.83 245.287 198.83 247.495C198.83 249.809 196.962 251.683 194.655 251.683C192.618 251.683 190.92 250.217 190.562 248.268C191.509 249.148 191.841 249.752 191.841 249.752L195.539 243.778C195.351 243.621 195.157 243.464 194.962 243.325L194.956 243.331Z" fill="#7AD1E5"/>
<path d="M195.532 243.784L191.834 249.758C191.834 249.758 191.502 249.155 190.556 248.274C190.506 248.023 190.48 247.765 190.48 247.501C190.48 245.187 192.348 243.319 194.649 243.319C194.749 243.319 194.849 243.319 194.949 243.338C195.144 243.476 195.338 243.633 195.526 243.79L195.532 243.784Z" fill="#7AD1E5"/>
<path d="M194.957 243.331C194.857 243.319 194.757 243.312 194.657 243.312C192.35 243.312 190.488 245.186 190.488 247.494C190.488 247.758 190.514 248.023 190.564 248.268C189.837 247.582 188.733 246.733 187.129 245.872C187.605 243.608 189.078 241.709 191.065 240.659C192.406 241.451 193.704 242.338 194.957 243.331Z" fill="#211F35"/>
<path d="M188.063 258.021C190.764 259.223 192.645 261.933 192.645 265.084C192.645 269.353 189.197 272.812 184.941 272.812C180.686 272.812 177.238 269.353 177.238 265.084C177.238 263.134 177.947 261.367 179.137 260.015C179.877 261.373 180.128 262.241 180.128 262.241H181.889C181.193 262.989 180.767 263.989 180.767 265.084C180.767 267.398 182.635 269.272 184.941 269.272C187.248 269.272 189.116 267.398 189.116 265.084C189.116 263.989 188.696 262.989 187.994 262.241H189.279C189.022 260.744 188.614 259.342 188.069 258.021H188.063Z" fill="#211F35"/>
<path d="M191.063 240.665C189.076 241.715 187.603 243.614 187.127 245.878C183.479 243.891 177.205 241.803 166.731 241.344C159.329 238.791 152.986 238.049 152.986 238.049L152.059 234.156L152.265 234.106C152.265 234.106 174.391 230.685 191.069 240.671L191.063 240.665Z" fill="#30396B"/>
<path d="M189.278 262.235H187.993C187.235 261.405 186.144 260.889 184.941 260.889C183.737 260.889 182.64 261.405 181.888 262.235H180.127C180.127 262.235 179.876 261.367 179.137 260.009C180.541 258.38 182.622 257.349 184.941 257.349C186.056 257.349 187.109 257.588 188.062 258.015C188.614 259.336 189.021 260.738 189.272 262.235H189.278Z" fill="#211F35"/>
<path d="M187.992 262.235C188.688 262.983 189.114 263.983 189.114 265.077C189.114 267.391 187.247 269.265 184.94 269.265C182.633 269.265 180.766 267.391 180.766 265.077C180.766 263.983 181.186 262.983 181.888 262.235H187.999H187.992Z" fill="#7AD1E5"/>
<path d="M184.941 260.896C186.151 260.896 187.242 261.411 187.994 262.241H181.883C182.641 261.411 183.732 260.896 184.935 260.896H184.941Z" fill="#7AD1E5"/>
<path d="M144.92 244.853C121.491 245.061 113.236 255.361 110.71 260.009C109.3 258.38 107.219 257.355 104.9 257.355C103.791 257.355 102.738 257.594 101.785 258.015C105.402 249.236 114.904 244.174 123.108 241.344C130.51 238.785 136.853 238.049 136.853 238.049L137.781 234.15L141.498 218.592H148.342L152.053 234.15L152.98 238.043C152.98 238.043 159.324 238.785 166.726 241.338C174.93 244.168 184.439 249.243 188.055 258.015C187.102 257.588 186.043 257.349 184.934 257.349C182.615 257.349 180.534 258.38 179.13 260.009C176.598 255.368 168.355 245.054 144.914 244.847L144.92 244.853Z" fill="#464D87"/>
<path d="M164.771 197.167V203.449H153.858H136.854H128.336V197.167H164.771Z" fill="#878AB2"/>
<path d="M153.86 203.449V208.763H152.494H138.805H136.855V203.449H153.86Z" fill="#464D87"/>
<path d="M152.494 208.763V218.592H148.344H141.5H138.805V208.763H152.494Z" fill="#878AB2"/>
<path d="M137.782 234.144L136.854 238.043C136.854 238.043 130.511 238.779 123.109 241.338C112.635 241.803 106.368 243.885 102.714 245.872C102.237 243.608 100.764 241.709 98.7773 240.659C115.45 230.666 137.588 234.094 137.588 234.094L137.788 234.138L137.782 234.144Z" fill="#30396B"/>
<path d="M110.705 260.009C111.889 261.367 112.604 263.134 112.604 265.083C112.604 269.353 109.15 272.812 104.895 272.812C100.639 272.812 97.1914 269.353 97.1914 265.083C97.1914 261.927 99.0717 259.216 101.773 258.015C101.222 259.336 100.814 260.744 100.563 262.241H101.842C101.146 262.989 100.72 263.989 100.72 265.083C100.72 267.398 102.588 269.272 104.895 269.272C107.201 269.272 109.069 267.398 109.069 265.083C109.069 263.989 108.649 262.989 107.947 262.241H109.708C109.708 262.241 109.965 261.367 110.698 260.009H110.705Z" fill="#211F35"/>
<path d="M104.903 257.355C107.216 257.355 109.303 258.38 110.713 260.009C109.974 261.367 109.723 262.241 109.723 262.241H107.962C107.203 261.411 106.113 260.895 104.909 260.895C103.706 260.895 102.609 261.411 101.857 262.241H100.578C100.835 260.744 101.243 259.336 101.788 258.015C102.741 257.594 103.8 257.355 104.903 257.355Z" fill="#211F35"/>
<path d="M107.953 262.235C108.649 262.983 109.075 263.983 109.075 265.077C109.075 267.391 107.207 269.265 104.901 269.265C102.594 269.265 100.727 267.391 100.727 265.077C100.727 263.983 101.147 262.983 101.848 262.235H107.96H107.953Z" fill="#7AD1E5"/>
<path d="M104.902 260.896C106.112 260.896 107.203 261.411 107.955 262.241H101.844C102.602 261.411 103.693 260.896 104.896 260.896H104.902Z" fill="#7AD1E5"/>
<path d="M102.707 245.878C102.82 246.4 102.883 246.947 102.883 247.501C102.883 251.77 99.4355 255.235 95.1797 255.235C90.9238 255.235 87.4766 251.77 87.4766 247.501C87.4766 243.231 90.9238 239.772 95.1797 239.772C96.4771 239.772 97.7056 240.093 98.7711 240.665C97.4361 241.457 96.1386 242.344 94.8851 243.338C92.7227 243.482 91.0053 245.287 91.0053 247.501C91.0053 249.714 92.8731 251.689 95.1797 251.689C97.223 251.689 98.9278 250.217 99.2788 248.268C100.006 247.589 101.109 246.746 102.707 245.878Z" fill="#211F35"/>
<path d="M102.709 245.878C101.111 246.74 100.008 247.589 99.2804 248.268C99.3306 248.016 99.3557 247.765 99.3557 247.501C99.3557 245.186 97.4879 243.319 95.1813 243.319C95.081 243.319 94.987 243.319 94.8867 243.338C96.1403 242.344 97.4377 241.464 98.7727 240.665C100.76 241.715 102.233 243.614 102.709 245.878Z" fill="#211F35"/>
<path d="M99.3526 247.501C99.3526 247.759 99.3275 248.016 99.2774 248.268C98.3247 249.161 97.9925 249.765 97.9925 249.765L94.3008 243.79C94.4888 243.633 94.6831 243.476 94.8774 243.338C94.9777 243.325 95.0717 243.319 95.172 243.319C97.4786 243.319 99.3463 245.193 99.3463 247.501H99.3526Z" fill="#7AD1E5"/>
<path d="M99.2774 248.262C98.9264 250.211 97.2216 251.683 95.1783 251.683C92.8717 251.683 91.0039 249.809 91.0039 247.495C91.0039 245.18 92.7213 243.476 94.8837 243.332C94.6894 243.47 94.4951 243.627 94.307 243.784L97.9988 249.758C97.9988 249.758 98.331 249.155 99.2837 248.262H99.2774Z" fill="#7AD1E5"/>
<path d="M131.666 148.116C132.951 147.582 134.255 147.066 135.552 146.563L135.966 146.708C135.872 146.959 135.79 147.204 135.709 147.456V147.475C135.828 147.475 135.953 147.494 136.072 147.5C141.262 147.84 147.956 148.456 154.644 149.166C133.064 155.266 113.201 166.561 95.2128 180.005C77.0926 193.545 60.7211 209.26 44.4374 224.981C42.9331 223.409 41.6168 221.654 40.5388 219.768C39.9496 218.749 39.4294 217.68 38.9844 216.586C65.3342 188.187 95.9398 162.806 131.673 148.123L131.666 148.116Z" fill="#0F0F1E"/>
<path d="M170.001 154.417C176.695 153.619 183.583 154.594 189.807 157.172C191.092 161.788 190.96 166.793 189.418 171.334C187.876 175.855 184.937 179.886 181.12 182.754C178.375 182.754 175.629 182.697 172.915 183.024C164.955 183.112 156.989 183.194 149.029 183.276C148.772 183.276 148.502 183.276 148.283 183.408C147.387 183.917 148.226 185.382 147.794 186.313C147.412 187.149 146.221 187.168 145.356 186.866C144.497 186.565 143.607 186.061 142.717 186.294C143.444 187.231 142.385 188.721 141.2 188.715C140.016 188.715 139.05 187.722 138.524 186.665L138.499 186.627C135.509 188.495 132.532 190.375 129.58 192.287C127.091 193.897 124.616 195.526 122.14 197.173C100.522 211.555 79.7508 227.214 59.9696 244.042C58.6534 244.08 57.3936 243.419 56.2528 242.595C55.8016 242.268 55.3691 241.923 54.9617 241.577C52.2791 239.319 49.5714 237.043 47.3526 234.326C46.262 232.98 45.2842 231.515 44.5321 229.962C43.899 228.673 43.4164 227.321 43.1406 225.924L43.548 225.843C43.8426 225.56 44.1435 225.27 44.4381 224.988C60.7281 209.272 77.0933 193.551 95.2135 180.012C113.208 166.573 133.071 155.273 154.645 149.173C160.63 149.814 166.616 150.544 171.499 151.242C171.016 152.267 170.508 153.286 169.988 154.298L170.001 154.424V154.417Z" fill="#211F35"/>
<path d="M22.7075 238.69C30.1285 236.162 37.4117 233.251 44.5257 229.956C45.2841 231.509 46.2556 232.974 47.3462 234.32C49.5712 237.036 52.2727 239.313 54.9553 241.571C55.3627 241.916 55.8014 242.269 56.2464 242.589C52.7177 244.866 49.1952 247.148 45.6789 249.45C39.2983 249.739 32.8864 249.563 26.5308 248.922C25.3901 245.457 24.0613 242.055 22.5508 238.741C22.5947 238.722 22.6511 238.703 22.6949 238.69H22.7075Z" fill="#F4AC22"/>
<path d="M43.1354 225.912C43.4112 227.308 43.8938 228.666 44.5269 229.949C37.4129 233.244 30.1235 236.162 22.7087 238.684C22.6209 238.608 22.5269 238.533 22.4392 238.458C21.5241 237.697 20.5588 237.017 19.5434 236.414C19.0984 233.892 18.6785 231.377 18.2773 228.842C25.7047 225.868 33.1069 222.849 40.4904 219.787L40.5405 219.755C41.6186 221.642 42.9286 223.396 44.4391 224.969C44.1445 225.252 43.8437 225.541 43.5491 225.824L43.1417 225.906L43.1354 225.912Z" fill="#ED7614"/>
<path d="M26.5368 248.921C32.8924 249.557 39.3043 249.739 45.6849 249.45C37.4867 254.801 29.3197 260.216 21.1904 265.668C20.3443 264.253 19.4417 262.876 18.489 261.524C23.4719 258.436 28.3858 255.229 33.2183 251.915L33.1932 251.871C27.8531 254.16 22.5192 256.455 17.1727 258.744L17.1539 258.706C12.7163 250.405 8.47932 241.979 4.48047 233.445C5.08844 233.351 5.69015 233.282 6.3044 233.25C10.8924 232.949 15.5682 234.087 19.5294 236.426C20.5448 237.03 21.5163 237.715 22.4252 238.47C22.4628 238.564 22.5129 238.652 22.5505 238.747C24.0548 242.061 25.3836 245.463 26.5306 248.928L26.5368 248.921Z" fill="#7AD1E5"/>
<path d="M18.0874 228.918C18.1501 228.892 18.2065 228.873 18.2692 228.842C18.6703 231.376 19.0903 233.892 19.5353 236.413C15.574 234.074 10.9045 232.936 6.31024 233.238C5.24472 230.584 4.31709 227.88 3.52734 225.132L3.61509 225.107C8.66067 224.849 13.7815 226.182 18.0686 228.88L18.0874 228.918Z" fill="#5E7FE5"/>
<path d="M170.008 82.6528C169.827 82.8855 169.658 83.1119 169.488 83.3383C169.664 83.1119 169.833 82.8855 170.008 82.6528Z" fill="#6A57DD"/>
<path d="M172.834 97.7203C180.731 94.2239 187.795 89.105 194.759 83.9861C194.702 84.2565 194.64 84.5395 194.571 84.8099C194.596 84.7848 194.621 84.7722 194.652 84.7533C190.503 102.845 183.282 120.038 177.096 137.558C177.04 137.64 176.983 137.728 176.927 137.816C175.41 142.4 173.592 146.884 171.512 151.236C166.629 150.538 160.643 149.808 154.657 149.167C147.97 148.456 141.282 147.84 136.086 147.5C140.686 139.923 145.293 132.339 149.906 124.761C149.493 124.057 149.142 123.283 149.292 122.497C149.392 121.981 149.693 121.529 150.007 121.114C150.884 119.938 151.937 118.894 152.865 117.762C151.837 116.007 151.191 114.033 150.997 112.002C156.312 102.097 162.417 92.6077 169.506 83.3447C169.675 83.1183 169.844 82.8919 170.026 82.6655C171.048 87.6649 171.988 92.6958 172.847 97.7266L172.834 97.7203Z" fill="#7AD1E5"/>
<path d="M142.349 130.043C144.975 123.855 147.845 117.856 150.986 111.995C151.18 114.02 151.832 116.001 152.853 117.755C151.926 118.894 150.873 119.931 149.995 121.107C149.676 121.522 149.375 121.975 149.281 122.491C149.13 123.277 149.475 124.05 149.895 124.755C145.288 132.332 140.681 139.916 136.074 147.494C135.955 147.494 135.83 147.475 135.711 147.469V147.45C135.799 147.198 135.88 146.953 135.968 146.702C137.923 140.992 140.042 135.445 142.342 130.037L142.349 130.043Z" fill="#211F35"/>
<path d="M242.345 72.2769C240.252 77.5467 236.077 81.6657 232.079 85.6903C226.713 91.0859 221.473 96.5947 216.346 102.21C215.074 103.6 213.814 104.996 212.561 106.405C212.692 106.958 212.893 107.486 212.999 108.052C213.131 108.813 213.025 109.706 212.41 110.172C211.89 110.574 211.088 110.524 210.611 110.071C210.668 110.813 210.724 111.555 210.787 112.297V112.322C210.862 113.36 209.696 114.026 208.844 113.429C208.537 113.215 207.672 113.894 206.732 114.794C205.296 116.171 203.692 118.064 203.692 118.064C200.313 125.616 198.609 127.987 194.321 135.062C194.121 135.401 193.901 135.779 193.964 136.168C194.058 136.722 194.629 137.024 194.954 137.476C195.431 138.149 195.28 139.13 194.76 139.778C194.24 140.413 193.425 140.753 192.61 140.897C192.115 140.985 191.545 141.048 191.256 141.463C190.974 141.878 191.087 142.495 190.755 142.866C190.517 143.124 190.122 143.193 189.928 143.476C189.752 143.734 189.809 144.086 189.871 144.394C190.811 149.098 191.752 153.808 192.698 158.512C191.758 158.027 190.793 157.581 189.815 157.178C183.591 154.6 176.703 153.625 170.009 154.424L169.996 154.298C170.516 153.286 171.024 152.267 171.507 151.242C173.594 146.884 175.405 142.4 176.922 137.822C176.972 137.734 177.035 137.646 177.091 137.564C183.284 120.045 190.498 102.852 194.647 84.7596C195.562 84.1245 196.521 83.5585 197.524 83.068C198.038 82.8165 198.615 82.5838 199.173 82.7284C199.724 82.8793 200.113 83.3761 200.288 83.9107C200.464 84.4515 200.458 85.0237 200.451 85.5897C201.222 85.2753 201.981 84.9671 202.752 84.659C203.021 84.5458 203.334 84.4389 203.598 84.5647C203.823 84.6716 203.936 84.9168 204.005 85.1558C204.131 85.5834 204.156 86.0425 204.08 86.4827C208.48 83.9924 212.623 81.0368 216.409 77.6913C213.557 76.8298 210.799 75.6538 208.205 74.1886C208.223 74.0565 208.23 73.9119 208.205 73.7735C208.556 73.6981 208.9 73.5472 209.214 73.3711C211.52 72.0756 212.761 69.4659 213.551 66.9379C214.328 64.4539 214.798 61.8442 214.905 59.2407C221.762 59.7501 228.644 60.2909 235.413 61.5046C236.955 61.775 238.597 62.1523 239.97 62.8818C240.96 63.3974 241.812 64.0955 242.402 65.0513C243.718 67.1894 243.273 69.969 242.345 72.302V72.2769Z" fill="#9A84F7"/>
<path d="M170.008 82.6528C169.833 82.8855 169.663 83.1119 169.488 83.3382C162.405 92.6013 156.3 102.091 150.979 111.995C147.839 117.85 144.968 123.855 142.342 130.043C140.042 135.451 137.923 140.998 135.968 146.708C136.225 146.683 132.953 147.582 131.668 148.117C132.339 146.393 132.984 144.677 133.611 142.941C135.259 138.413 136.789 133.842 138.18 129.226C140.888 120.309 143.125 111.253 144.874 102.11C145.325 99.7451 145.758 97.3365 146.786 95.1733C146.09 89.3501 145.42 83.5143 144.768 77.6848C144.247 72.9559 143.74 68.2206 143.777 63.4602C143.79 61.7811 143.928 59.9449 145.069 58.7123C145.702 58.0206 146.585 57.6118 147.457 57.2785C151.813 55.6246 156.57 55.4423 161.221 55.5995C165.313 55.7378 169.4 56.1214 173.455 56.744C172.246 59.5424 171.519 62.5483 171.437 65.5983C171.406 66.6044 171.456 67.6295 171.719 68.6105C171.97 69.516 172.402 70.3524 172.973 71.1007C169.35 72.5157 165.639 73.6728 161.866 74.5532C163.088 75.2323 164.361 75.9492 165.188 77.0937C165.226 77.144 165.27 77.2069 165.263 77.2761C165.263 77.383 165.157 77.4522 165.069 77.5025C164.737 77.6848 164.417 77.8735 164.085 78.0622C164.561 78.6721 165.251 80.1059 165.733 80.7222L165.79 80.7348C165.978 79.5651 166.642 78.3514 167.376 77.4773C167.52 77.3012 167.695 77.1252 167.921 77.1063C168.303 77.0686 168.554 77.471 168.723 77.8169C169.262 78.9677 170.071 80.6342 170.622 81.8164C170.422 82.0931 170.215 82.3698 170.008 82.6402V82.6528Z" fill="#9A84F7"/>
<path d="M165.795 80.7413C165.983 79.5716 166.648 78.3579 167.381 77.4838C167.525 77.3078 167.701 77.1317 167.927 77.1128C168.309 77.0751 168.56 77.4776 168.729 77.8234C169.268 78.9742 170.076 80.6407 170.628 81.8229C170.427 82.0996 170.221 82.3763 170.014 82.6467C169.838 82.8857 169.669 83.1121 169.493 83.3385C162.411 92.6015 156.306 102.091 150.985 111.995C147.845 117.85 144.974 123.856 142.348 130.043C145.67 120.831 145.789 110.587 149.725 101.619C153.279 93.5322 159.515 86.9921 165.739 80.7287L165.795 80.7413Z" fill="#6A57DD"/>
<path d="M200.283 83.8982C200.459 84.439 200.452 85.0112 200.446 85.5772L200.302 85.7218C200.471 94.1611 199.794 102.594 199.124 111.002C198.967 112.939 198.798 114.938 197.933 116.674C196.679 119.196 194.184 120.793 191.897 122.428C186.13 126.553 181.035 131.666 177.086 137.552C183.279 120.032 190.493 102.839 194.642 84.7471C195.557 84.112 196.516 83.546 197.519 83.0555C198.033 82.804 198.61 82.5713 199.167 82.7159C199.719 82.8668 200.108 83.3636 200.283 83.8982Z" fill="#6A57DD"/>
<path d="M154.07 85.011C151.951 87.6397 149.833 90.262 147.714 92.8906C147.482 93.1799 147.921 93.5509 148.159 93.2616C150.278 90.633 152.396 88.0107 154.515 85.3821C154.747 85.0928 154.308 84.7218 154.07 85.011Z" fill="#6A57DD"/>
<path d="M150.98 83.5585C149.783 85.8287 148.592 88.1051 147.395 90.3753C147.219 90.7086 147.746 90.9538 147.915 90.6206C149.112 88.3504 150.303 86.0739 151.5 83.8038C151.676 83.4705 151.149 83.2252 150.98 83.5585Z" fill="#6A57DD"/>
<path d="M207.595 92.6581C206.856 98.0285 206.116 103.399 205.37 108.763C205.32 109.134 205.884 109.235 205.941 108.87C206.68 103.5 207.42 98.1291 208.166 92.765C208.216 92.3939 207.652 92.2933 207.595 92.6581Z" fill="#6A57DD"/>
<path d="M212.142 94.7391C210.976 98.6883 209.81 102.638 208.638 106.587C208.532 106.945 209.102 107.046 209.209 106.694C210.374 102.744 211.54 98.7952 212.712 94.846C212.819 94.4876 212.248 94.387 212.142 94.7391Z" fill="#6A57DD"/>
<path d="M223.261 72.7423C221.405 73.9434 219.55 75.1508 217.689 76.3519L220.133 73.434C220.371 73.151 219.932 72.7737 219.688 73.063C218.591 74.3773 217.488 75.6853 216.391 76.9996C216.285 77.1317 216.316 77.2763 216.41 77.3707C216.448 77.553 216.654 77.7102 216.861 77.5782C219.105 76.1255 221.349 74.6729 223.593 73.2139C223.906 73.0127 223.574 72.5411 223.261 72.7423Z" fill="#6A57DD"/>
<path d="M161.94 73.9245C162.122 73.9685 162.373 73.7987 162.31 73.5409C161.915 71.7926 161.514 70.0507 161.119 68.3025C161.038 67.9378 160.499 68.1453 160.58 68.5037L161.733 73.5849L158.7 68.5918C158.506 68.2711 158.035 68.6106 158.23 68.9251C159.389 70.8242 160.543 72.7296 161.702 74.6288C161.896 74.9495 162.366 74.6099 162.172 74.2955L161.94 73.9182V73.9245Z" fill="#6A57DD"/>
<path d="M190.103 136.69C186.681 137.614 183.258 138.533 179.836 139.457C179.479 139.551 179.68 140.098 180.037 139.998C183.459 139.073 186.881 138.155 190.303 137.231C190.661 137.137 190.46 136.589 190.103 136.69Z" fill="#6A57DD"/>
<path d="M188.824 140.332C186.385 140.464 183.953 140.589 181.515 140.721C181.145 140.74 181.196 141.319 181.565 141.3C184.004 141.168 186.435 141.042 188.874 140.91C189.243 140.891 189.193 140.313 188.824 140.332Z" fill="#6A57DD"/>
<path d="M166.723 97.324C166.153 96.6071 165.583 95.8902 165.012 95.1733C164.824 94.9343 164.461 94.8337 164.21 95.0349C163.972 95.2173 163.872 95.5883 164.072 95.8399C164.643 96.5568 165.213 97.2736 165.783 97.9905C165.971 98.2295 166.335 98.3301 166.586 98.1289C166.824 97.9465 166.924 97.5755 166.723 97.324Z" fill="#5E7FE5"/>
<path d="M170.045 100.764C169.744 100.638 169.425 100.751 169.274 101.04C168.917 101.72 168.56 102.399 168.203 103.078C168.065 103.348 168.203 103.732 168.478 103.851C168.779 103.977 169.099 103.864 169.249 103.575C169.607 102.896 169.964 102.216 170.321 101.537C170.459 101.267 170.321 100.883 170.045 100.764Z" fill="#5E7FE5"/>
<path d="M164.122 102.223C163.822 102.179 163.496 102.367 163.452 102.688C163.351 103.405 163.251 104.122 163.151 104.839C163.107 105.141 163.295 105.468 163.615 105.512C163.916 105.556 164.241 105.367 164.285 105.046C164.386 104.329 164.486 103.612 164.586 102.896C164.63 102.594 164.442 102.267 164.122 102.223Z" fill="#5E7FE5"/>
<path d="M160.939 108.385C160.513 107.845 160.093 107.304 159.667 106.763C159.573 106.644 159.448 106.556 159.297 106.53C159.159 106.505 158.971 106.537 158.858 106.625C158.62 106.807 158.52 107.178 158.721 107.43C159.147 107.97 159.567 108.511 159.993 109.052C160.087 109.172 160.212 109.26 160.363 109.285C160.501 109.31 160.689 109.278 160.802 109.19C161.04 109.008 161.14 108.637 160.939 108.385Z" fill="#5E7FE5"/>
<path d="M164.933 113.41C164.82 113.322 164.657 113.246 164.513 113.278C163.874 113.422 163.228 113.567 162.589 113.705C162.432 113.743 162.307 113.781 162.194 113.913C162.1 114.02 162.043 114.19 162.062 114.334C162.081 114.485 162.144 114.636 162.269 114.73C162.382 114.818 162.545 114.894 162.689 114.862C163.328 114.718 163.974 114.573 164.613 114.435C164.77 114.397 164.895 114.359 165.008 114.227C165.102 114.12 165.158 113.951 165.14 113.806C165.121 113.655 165.058 113.504 164.933 113.41Z" fill="#5E7FE5"/>
<path d="M169.551 109.782C168.805 109.926 168.053 110.077 167.307 110.222C167.151 110.253 167.019 110.304 166.913 110.429C166.819 110.536 166.762 110.706 166.781 110.851C166.819 111.134 167.088 111.442 167.408 111.379C168.154 111.234 168.906 111.083 169.652 110.939C169.808 110.907 169.94 110.857 170.046 110.731C170.14 110.624 170.197 110.455 170.178 110.31C170.14 110.027 169.871 109.719 169.551 109.782Z" fill="#5E7FE5"/>
<path d="M156.236 112.731C156.218 112.429 155.917 112.165 155.61 112.203C155.296 112.247 155.064 112.505 155.083 112.832C155.121 113.366 155.158 113.907 155.19 114.442C155.208 114.743 155.509 115.008 155.816 114.97C156.13 114.926 156.362 114.668 156.343 114.341C156.305 113.806 156.268 113.266 156.236 112.731Z" fill="#5E7FE5"/>
<path d="M160.988 100.562C160.793 100.317 160.449 100.235 160.185 100.424C159.433 100.959 158.681 101.493 157.929 102.028C157.684 102.204 157.603 102.587 157.791 102.833C157.985 103.078 158.33 103.16 158.593 102.971C159.345 102.436 160.098 101.902 160.85 101.367C161.094 101.191 161.176 100.808 160.988 100.562Z" fill="#5E7FE5"/>
<path d="M168.415 90.715C168.377 90.4131 168.108 90.149 167.788 90.1867C167.487 90.2244 167.224 90.4948 167.261 90.8156C167.362 91.6394 167.462 92.4632 167.562 93.287C167.6 93.5888 167.869 93.8529 168.189 93.8152C168.49 93.7775 168.753 93.5071 168.716 93.1863C168.615 92.3625 168.515 91.5387 168.415 90.715Z" fill="#5E7FE5"/>
<path d="M178.102 98.8835C177.35 98.9904 176.604 99.0974 175.852 99.2043C175.551 99.2483 175.281 99.5124 175.325 99.8331C175.363 100.129 175.632 100.405 175.952 100.361C176.704 100.254 177.45 100.148 178.202 100.041C178.503 99.9966 178.772 99.7325 178.728 99.4118C178.691 99.1162 178.421 98.8395 178.102 98.8835Z" fill="#5E7FE5"/>
<path d="M183.868 98.3427C183.723 97.588 183.579 96.8397 183.441 96.0851C183.41 95.9279 183.36 95.7958 183.235 95.6889C183.128 95.5946 182.959 95.538 182.815 95.5568C182.533 95.5946 182.232 95.865 182.288 96.1857C182.432 96.9403 182.576 97.6887 182.714 98.4433C182.746 98.6005 182.796 98.7326 182.921 98.8395C183.028 98.9338 183.197 98.9904 183.341 98.9715C183.623 98.9338 183.924 98.6634 183.868 98.3427Z" fill="#5E7FE5"/>
<path d="M189.545 93.8152C189.413 93.7146 189.288 93.6894 189.125 93.6831C188.342 93.6517 187.558 93.614 186.768 93.5825C186.63 93.5825 186.461 93.6894 186.374 93.79C186.279 93.8969 186.223 94.0667 186.242 94.2114C186.261 94.3623 186.323 94.5132 186.449 94.6076C186.58 94.7082 186.706 94.7333 186.869 94.7396C187.652 94.7711 188.436 94.8088 189.225 94.8402C189.363 94.8402 189.532 94.7333 189.62 94.6327C189.714 94.5258 189.771 94.356 189.752 94.2114C189.733 94.0604 189.67 93.9095 189.545 93.8152Z" fill="#5E7FE5"/>
<path d="M188.962 97.5443C188.912 97.4122 188.799 97.2801 188.668 97.2235C188.405 97.1166 188.003 97.1921 187.897 97.5002C187.646 98.2486 187.395 99.0032 187.145 99.7515C187.095 99.9025 187.07 100.041 187.126 100.204C187.176 100.336 187.289 100.468 187.421 100.525C187.684 100.632 188.085 100.556 188.191 100.248C188.442 99.5 188.693 98.7454 188.944 97.997C188.994 97.8461 189.019 97.7078 188.962 97.5443Z" fill="#5E7FE5"/>
<path d="M185.025 102.424C185.012 102.122 184.699 101.858 184.398 101.896C184.078 101.94 183.859 102.198 183.872 102.525C183.909 103.241 183.941 103.958 183.978 104.669C183.991 104.971 184.304 105.235 184.605 105.197C184.925 105.153 185.144 104.895 185.131 104.568C185.094 103.851 185.063 103.135 185.025 102.424Z" fill="#5E7FE5"/>
<path d="M180.938 105.279C180.763 104.524 180.581 103.776 180.406 103.021C180.374 102.889 180.224 102.757 180.111 102.701C179.979 102.638 179.798 102.625 179.66 102.682C179.522 102.738 179.397 102.839 179.34 102.977C179.277 103.128 179.284 103.266 179.321 103.43C179.497 104.185 179.679 104.933 179.854 105.688C179.885 105.82 180.036 105.952 180.149 106.008C180.28 106.071 180.462 106.084 180.6 106.027C180.738 105.971 180.863 105.87 180.92 105.732C180.982 105.581 180.976 105.442 180.938 105.279Z" fill="#5E7FE5"/>
<path d="M175.743 105.638C174.922 105.713 174.101 105.782 173.28 105.858C172.979 105.883 172.716 106.172 172.754 106.486C172.797 106.795 173.054 107.04 173.38 107.015C174.201 106.939 175.023 106.87 175.844 106.795C176.144 106.769 176.408 106.48 176.37 106.166C176.326 105.858 176.069 105.612 175.743 105.638Z" fill="#5E7FE5"/>
<path d="M176.895 108.819C176.626 108.706 176.243 108.794 176.124 109.096C175.729 110.096 175.341 111.102 174.946 112.102C174.833 112.385 174.921 112.743 175.222 112.876C175.491 112.989 175.873 112.901 175.992 112.599C176.387 111.599 176.776 110.593 177.171 109.593C177.284 109.31 177.196 108.952 176.895 108.819Z" fill="#5E7FE5"/>
<path d="M182.349 111.737C181.703 111.379 181.064 111.027 180.418 110.668C180.155 110.524 179.766 110.668 179.647 110.945C179.522 111.247 179.641 111.561 179.923 111.718C180.569 112.077 181.208 112.429 181.854 112.788C182.117 112.932 182.505 112.788 182.625 112.511C182.75 112.209 182.631 111.895 182.349 111.737Z" fill="#5E7FE5"/>
<path d="M185.748 107.593C185.434 107.549 185.14 107.738 185.077 108.059C184.901 108.952 184.72 109.851 184.544 110.744C184.488 111.039 184.701 111.379 185.008 111.417C185.321 111.461 185.616 111.272 185.679 110.951C185.854 110.058 186.036 109.159 186.211 108.266C186.268 107.971 186.055 107.631 185.748 107.593Z" fill="#5E7FE5"/>
<path d="M182.305 115.567C182.255 115.435 182.142 115.303 182.01 115.246C181.872 115.19 181.703 115.164 181.559 115.227C181.409 115.29 181.327 115.391 181.239 115.523C180.851 116.133 180.462 116.743 180.074 117.353C179.998 117.472 180.011 117.68 180.055 117.806C180.105 117.938 180.218 118.07 180.349 118.126C180.487 118.183 180.657 118.208 180.801 118.145C180.951 118.082 181.033 117.982 181.12 117.85C181.509 117.24 181.898 116.63 182.286 116.02C182.361 115.9 182.349 115.693 182.305 115.567Z" fill="#5E7FE5"/>
<path d="M177.427 115.473C177.133 115.347 176.807 115.46 176.656 115.749C176.193 116.642 175.729 117.542 175.265 118.435C175.127 118.705 175.265 119.089 175.541 119.208C175.835 119.334 176.161 119.221 176.312 118.931C176.776 118.038 177.239 117.139 177.703 116.246C177.841 115.976 177.703 115.592 177.427 115.473Z" fill="#5E7FE5"/>
<path d="M171.562 116.95C170.998 116.265 170.428 115.579 169.864 114.9C169.763 114.781 169.65 114.693 169.494 114.668C169.356 114.642 169.168 114.674 169.055 114.762C168.823 114.944 168.71 115.322 168.917 115.567C169.481 116.252 170.052 116.938 170.616 117.617C170.716 117.736 170.829 117.824 170.985 117.85C171.123 117.875 171.311 117.843 171.424 117.755C171.656 117.573 171.769 117.196 171.562 116.95Z" fill="#5E7FE5"/>
<path d="M167.628 118.145C167.408 117.976 166.988 117.944 166.813 118.215C166.28 119.038 165.754 119.869 165.221 120.692C165.133 120.831 165.07 120.95 165.089 121.114C165.102 121.258 165.177 121.422 165.296 121.51C165.515 121.68 165.935 121.711 166.111 121.441C166.644 120.617 167.17 119.787 167.703 118.963C167.791 118.825 167.853 118.705 167.835 118.542C167.822 118.397 167.747 118.233 167.628 118.145Z" fill="#5E7FE5"/>
<path d="M161.301 118.649C161.264 118.347 160.994 118.083 160.675 118.12C160.374 118.158 160.111 118.428 160.148 118.749C160.273 119.711 160.399 120.68 160.524 121.642C160.562 121.944 160.831 122.208 161.151 122.17C161.452 122.132 161.715 121.862 161.677 121.541C161.552 120.579 161.427 119.611 161.301 118.649Z" fill="#5E7FE5"/>
<path d="M158.289 120.724C158.189 120.598 158.076 120.535 157.919 120.491C157.129 120.246 156.346 120.001 155.556 119.755C155.424 119.711 155.224 119.774 155.117 119.85C155.005 119.931 154.904 120.076 154.885 120.221C154.867 120.372 154.885 120.535 154.979 120.661C155.08 120.787 155.193 120.849 155.349 120.894C156.139 121.139 156.922 121.384 157.712 121.629C157.844 121.673 158.044 121.61 158.151 121.535C158.264 121.453 158.364 121.309 158.383 121.164C158.402 121.013 158.383 120.849 158.289 120.724Z" fill="#5E7FE5"/>
<path d="M156.262 124.258C155.999 124.05 155.679 124.1 155.447 124.327L153.417 126.364C153.204 126.578 153.254 126.999 153.486 127.182C153.749 127.389 154.068 127.339 154.3 127.113C154.977 126.433 155.654 125.754 156.331 125.075C156.544 124.861 156.494 124.44 156.262 124.258Z" fill="#5E7FE5"/>
<path d="M150.767 128.534C150.485 128.496 150.121 128.679 150.096 129C150.015 129.93 149.94 130.861 149.858 131.792C149.833 132.094 149.99 132.421 150.322 132.465C150.604 132.502 150.967 132.32 150.993 131.999L151.231 129.207C151.256 128.905 151.099 128.578 150.767 128.534Z" fill="#5E7FE5"/>
<path d="M158.351 132.181C157.53 132.005 156.709 131.823 155.888 131.647C155.593 131.584 155.255 131.81 155.217 132.112C155.173 132.433 155.368 132.716 155.681 132.785C156.502 132.961 157.323 133.143 158.144 133.32C158.439 133.382 158.777 133.156 158.815 132.854C158.859 132.533 158.664 132.25 158.351 132.181Z" fill="#5E7FE5"/>
<path d="M162.667 128.673C162.347 127.773 162.033 126.88 161.714 125.981C161.614 125.698 161.256 125.522 160.974 125.641C160.68 125.767 160.529 126.082 160.636 126.384C160.955 127.283 161.269 128.176 161.588 129.075C161.689 129.358 162.046 129.534 162.328 129.415C162.623 129.289 162.773 128.974 162.667 128.673Z" fill="#5E7FE5"/>
<path d="M170.717 125.635C169.614 125.773 168.504 125.918 167.401 126.056C167.1 126.094 166.837 126.364 166.875 126.685C166.912 126.987 167.182 127.251 167.501 127.213C168.605 127.075 169.714 126.93 170.817 126.792C171.118 126.754 171.381 126.484 171.344 126.163C171.306 125.861 171.037 125.597 170.717 125.635Z" fill="#5E7FE5"/>
<path d="M174.137 123.183C173.498 122.679 172.852 122.183 172.213 121.68C171.975 121.491 171.593 121.497 171.398 121.749C171.217 121.988 171.217 122.365 171.467 122.566C172.107 123.069 172.752 123.566 173.391 124.069C173.63 124.258 174.012 124.252 174.206 124C174.388 123.761 174.388 123.384 174.137 123.183Z" fill="#5E7FE5"/>
<path d="M178.594 126.962C178.419 126.321 178.237 125.673 178.062 125.031C178.024 124.899 177.886 124.767 177.767 124.711C177.635 124.648 177.454 124.635 177.316 124.692C177.009 124.824 176.89 125.126 176.977 125.434C177.153 126.075 177.335 126.723 177.51 127.365C177.548 127.497 177.686 127.629 177.805 127.685C177.936 127.748 178.118 127.761 178.256 127.704C178.563 127.572 178.682 127.27 178.594 126.962Z" fill="#5E7FE5"/>
<path d="M175.743 129.301C175.486 129.1 175.154 129.137 174.928 129.37C174.358 129.98 173.787 130.59 173.217 131.2C173.01 131.42 173.048 131.835 173.286 132.018C173.543 132.219 173.875 132.181 174.101 131.948C174.671 131.338 175.241 130.728 175.812 130.119C176.019 129.898 175.981 129.483 175.743 129.301Z" fill="#5E7FE5"/>
<path d="M169.005 131.452C168.924 131.339 168.78 131.238 168.635 131.219C168.347 131.182 167.99 131.364 167.965 131.685C167.896 132.471 167.827 133.257 167.758 134.049C167.745 134.206 167.758 134.357 167.852 134.489C167.933 134.602 168.078 134.703 168.222 134.722C168.51 134.76 168.867 134.577 168.892 134.257C168.961 133.471 169.03 132.684 169.099 131.892C169.112 131.735 169.099 131.584 169.005 131.452Z" fill="#5E7FE5"/>
<path d="M165.119 134.602L162.869 133.426C162.599 133.288 162.217 133.426 162.098 133.703C161.972 133.999 162.085 134.326 162.373 134.477L164.623 135.652C164.893 135.791 165.275 135.652 165.394 135.376C165.52 135.08 165.407 134.753 165.119 134.602Z" fill="#5E7FE5"/>
<path d="M173.016 138.457C172.721 137.747 172.42 137.036 172.126 136.326C172.006 136.049 171.681 135.86 171.386 135.986C171.11 136.106 170.922 136.433 171.047 136.728L171.937 138.86C172.057 139.137 172.382 139.325 172.677 139.2C172.953 139.08 173.141 138.753 173.016 138.457Z" fill="#5E7FE5"/>
<path d="M173.58 141.136C173.279 141.011 172.966 141.13 172.809 141.413C172.414 142.13 172.026 142.847 171.631 143.557C171.487 143.821 171.631 144.211 171.907 144.331C172.208 144.457 172.521 144.337 172.678 144.054C173.073 143.337 173.461 142.62 173.856 141.91C174 141.646 173.856 141.256 173.58 141.136Z" fill="#5E7FE5"/>
<path d="M168.793 140.992C168.492 140.948 168.166 141.136 168.123 141.457C167.935 142.708 167.753 143.96 167.565 145.211C167.521 145.513 167.715 145.84 168.029 145.884C168.329 145.928 168.655 145.74 168.699 145.419C168.887 144.167 169.069 142.916 169.257 141.665C169.301 141.363 169.107 141.036 168.793 140.992Z" fill="#5E7FE5"/>
<path d="M164.592 143.287C163.984 143.035 163.382 142.784 162.774 142.532C162.492 142.419 162.129 142.507 162.003 142.809C161.884 143.086 161.978 143.457 162.279 143.583C162.887 143.834 163.489 144.086 164.097 144.337C164.379 144.45 164.742 144.362 164.868 144.06C164.987 143.784 164.893 143.413 164.592 143.287Z" fill="#5E7FE5"/>
<path d="M161.885 137.634C161.641 137.445 161.277 137.451 161.07 137.703C160.513 138.395 159.955 139.086 159.397 139.772C159.209 140.004 159.215 140.394 159.466 140.589C159.71 140.778 160.074 140.772 160.281 140.52C160.838 139.828 161.396 139.137 161.954 138.451C162.142 138.218 162.136 137.829 161.885 137.634Z" fill="#5E7FE5"/>
<path d="M156.064 139.187L155.099 136.181C155.005 135.892 154.635 135.722 154.359 135.841C154.058 135.967 153.92 136.275 154.021 136.583L154.986 139.589C155.08 139.879 155.45 140.048 155.726 139.929C156.026 139.803 156.164 139.495 156.064 139.187Z" fill="#5E7FE5"/>
<path d="M151.137 136.332C150.353 136.369 149.57 136.401 148.78 136.438C148.479 136.451 148.216 136.765 148.254 137.067C148.297 137.388 148.554 137.608 148.88 137.596C149.664 137.558 150.447 137.526 151.237 137.489C151.538 137.476 151.801 137.162 151.764 136.86C151.72 136.539 151.463 136.319 151.137 136.332Z" fill="#5E7FE5"/>
<path d="M146.102 141.501C145.888 140.426 145.675 139.35 145.462 138.281C145.406 137.986 145.168 137.709 144.835 137.753C144.553 137.791 144.246 138.061 144.309 138.382C144.522 139.457 144.735 140.533 144.948 141.602C145.005 141.897 145.243 142.174 145.575 142.13C145.857 142.092 146.164 141.822 146.102 141.501Z" fill="#5E7FE5"/>
<path d="M153.005 142.274C151.97 142.205 150.936 142.13 149.902 142.061C149.601 142.042 149.275 142.193 149.231 142.526C149.194 142.809 149.376 143.18 149.695 143.199C150.729 143.268 151.764 143.344 152.798 143.413C153.099 143.432 153.425 143.281 153.468 142.947C153.506 142.664 153.324 142.293 153.005 142.274Z" fill="#5E7FE5"/>
<path d="M158.175 145.626C157.743 144.809 157.304 143.985 156.872 143.167C156.809 143.048 156.627 142.954 156.502 142.935C156.364 142.91 156.176 142.941 156.063 143.029C155.95 143.117 155.85 143.249 155.831 143.4C155.806 143.564 155.85 143.696 155.925 143.84C156.358 144.658 156.797 145.482 157.229 146.299C157.292 146.419 157.473 146.513 157.599 146.532C157.737 146.557 157.925 146.525 158.038 146.437C158.15 146.349 158.251 146.217 158.269 146.066C158.295 145.903 158.251 145.771 158.175 145.626Z" fill="#5E7FE5"/>
<path d="M144.48 145.84C143.872 145.016 143.264 144.199 142.656 143.375C142.474 143.13 142.098 143.041 141.853 143.236C141.609 143.425 141.521 143.784 141.716 144.041C142.324 144.865 142.932 145.683 143.54 146.506C143.721 146.752 144.097 146.84 144.342 146.645C144.586 146.456 144.674 146.098 144.48 145.84Z" fill="#5E7FE5"/>
<path d="M166.117 147.418H163.014C162.714 147.418 162.45 147.752 162.488 148.047C162.532 148.381 162.789 148.576 163.115 148.576H166.217C166.518 148.576 166.781 148.242 166.744 147.947C166.7 147.613 166.443 147.418 166.117 147.418Z" fill="#5E7FE5"/>
<path d="M152.045 146.016C151.011 145.727 149.977 145.444 148.942 145.155C148.648 145.073 148.309 145.331 148.272 145.62C148.228 145.953 148.422 146.211 148.736 146.293C149.77 146.582 150.804 146.865 151.838 147.154C152.133 147.236 152.471 146.978 152.509 146.689C152.553 146.356 152.358 146.098 152.045 146.016Z" fill="#5E7FE5"/>
<path d="M239.965 62.8563C238.592 62.1269 236.95 61.7496 235.408 61.4792C229.335 60.3912 223.18 59.8441 217.031 59.3788C216.781 60.1586 216.48 60.932 216.104 61.6741C215.138 63.6047 213.803 65.2208 212.268 66.7175C211.528 67.4407 210.763 68.1702 210.187 69.0443C209.522 70.0379 209.341 71.1698 209.102 72.3206C208.664 74.4147 207.604 75.9868 205.643 76.9175C204.991 77.2319 204.308 77.4143 203.612 77.5401C202.365 77.8797 201.073 78.1186 199.826 78.4834C198.159 78.9676 196.454 79.7977 195.395 81.1246C195.708 79.7222 195.984 78.3199 196.253 76.9112C195.978 73.4085 197.764 70.2076 199.425 67.164C201.149 63.9946 203.023 59.8316 200.779 56.4232C200.672 56.2534 200.666 56.0899 200.71 55.9389C200.384 55.2975 200.033 54.6624 199.657 54.065C198.034 51.4238 196.059 48.9021 195.282 45.9024C194.762 43.9278 194.799 41.8463 194.95 39.8088C190.631 39.8088 186.557 41.9595 183.135 44.6259C179.888 47.1664 177.03 50.2415 174.949 53.8008C173.602 52.9393 172.881 51.2163 172.95 49.5875C173.031 47.7827 173.928 46.0911 175.043 44.6762C175.595 43.9719 176.209 43.3116 176.911 42.7645C178.635 41.4187 180.797 40.8087 182.803 39.9283C184.088 39.3749 185.46 38.4945 185.648 37.1048C185.836 35.6898 184.74 34.0863 185.598 32.948C186.187 32.162 187.378 32.1683 188.318 32.4638C189.403 32.7971 190.387 33.3945 191.377 33.9479C191.904 34.2435 192.443 34.5139 192.982 34.7843C195.439 35.4069 197.896 36.0357 200.353 36.6583C202.778 37.2808 205.242 37.9349 207.46 39.1234C208.075 39.4504 208.639 39.8214 209.178 40.2302C209.535 39.9472 209.886 39.6642 210.243 39.3812C211.773 38.1612 213.333 36.9224 215.157 36.2244C216.987 35.5201 219.15 35.4257 220.817 36.4508C222.61 37.5513 223.543 39.7208 225.342 40.815C226.696 41.6262 228.345 41.7143 229.918 41.9218C231.485 42.123 233.165 42.5506 234.136 43.8021C234.926 44.8145 235.101 46.1854 235.057 47.4746C235.02 48.7637 234.8 50.0466 234.92 51.3357C234.982 51.9646 235.139 52.606 235.502 53.128C236.123 53.9958 237.214 54.3605 238.104 54.9391C239.439 55.8006 240.391 57.2281 240.686 58.7939C240.943 60.1774 240.673 61.6489 239.959 62.8626L239.965 62.8563Z" fill="#211F35"/>
<path d="M204.146 71.0627C202.178 73.1945 199.502 74.4522 196.681 74.7038C196.293 76.8608 195.873 78.9989 195.396 81.137C195.196 82.0928 194.983 83.0424 194.757 83.992C187.793 89.1108 180.73 94.2297 172.832 97.7261C171.974 92.689 171.033 87.6645 170.012 82.6651C170.012 82.6651 170.012 82.6651 170.012 82.6525C170.212 82.3821 170.419 82.1054 170.626 81.8287C170.845 81.5394 171.065 81.2439 171.272 80.9483L176.298 73.7919C175.966 73.6284 175.64 73.4524 175.327 73.2511C174.424 72.6852 173.616 71.9557 172.976 71.1067C172.406 70.3584 171.974 69.522 171.723 68.6165C171.46 67.6355 171.409 66.6104 171.441 65.6043C171.522 62.5543 172.243 59.5484 173.459 56.75C173.885 55.7501 174.38 54.7691 174.932 53.8321C174.932 53.8321 174.944 53.8132 174.944 53.807C177.032 50.2414 179.89 47.1663 183.13 44.632C186.546 41.9593 190.626 39.8087 194.945 39.815C194.795 41.8524 194.763 43.934 195.277 45.9086C196.054 48.9082 198.029 51.4299 199.652 54.0711C201.131 56.4607 202.354 59.2403 202.065 61.9821C202.949 61.7305 203.914 61.7997 204.754 62.2651C208.364 64.2459 206.233 68.7926 204.134 71.0564L204.146 71.0627Z" fill="#F4AC22"/>
<path d="M190.575 62.0952C192.575 62.0952 194.192 63.7177 194.192 65.7174C194.192 67.7172 192.575 69.3459 190.575 69.3459C188.576 69.3459 186.965 67.7235 186.965 65.7174C186.965 63.7114 188.582 62.0952 190.575 62.0952Z" fill="#ED7614"/>
<path d="M190.331 74.2762C187.95 76.496 184.985 78.0367 181.889 79.0366C178.46 80.1496 174.869 80.6276 171.277 80.942C173.001 78.5964 174.681 76.213 176.298 73.7856C177.746 74.5151 179.35 74.9239 180.967 75.1377C184.095 75.5464 187.317 75.2509 190.325 74.2762H190.331Z" fill="#ED7614"/>
<path d="M181.889 59.6681C181.331 59.9196 180.749 60.1083 180.141 60.234C179.909 60.2843 179.664 60.3284 179.432 60.2843C179.2 60.2403 178.962 60.1146 178.862 59.8945C178.737 59.6366 178.824 59.3222 178.943 59.0518C179.263 58.3035 179.758 57.6557 180.291 57.0457C181.482 55.6874 182.861 54.5052 184.384 53.5493C184.221 55.1969 184.064 56.8319 183.907 58.4732C183.845 59.1021 183.788 59.7372 183.694 60.3598C183.644 60.7308 183.569 61.127 183.293 61.3786C183.187 61.4792 183.049 61.5546 182.905 61.5609C182.792 61.5609 182.692 61.5358 182.591 61.4917C182.253 61.3408 182.015 61.0138 181.914 60.6491C181.827 60.3221 181.833 59.9825 181.883 59.6555L181.889 59.6681Z" fill="#ED7614"/>
<path d="M183.713 47.336C182.698 47.4115 181.682 47.487 180.667 47.5561C180.366 47.5813 180.103 47.8768 180.14 48.185C180.184 48.4994 180.441 48.7321 180.767 48.7132C181.782 48.6378 182.798 48.5623 183.813 48.4931C184.114 48.468 184.377 48.1724 184.34 47.8643C184.296 47.5498 184.039 47.3172 183.713 47.336Z" fill="#211F35"/>
<path d="M196.405 54.9893C195.854 54.2221 195.302 53.4486 194.751 52.6814C194.575 52.4362 194.193 52.3481 193.948 52.5431C193.704 52.7317 193.622 53.0902 193.81 53.348C194.362 54.1152 194.914 54.8887 195.465 55.6559C195.641 55.9012 196.023 55.9892 196.267 55.7943C196.512 55.6056 196.593 55.2472 196.405 54.9893Z" fill="#211F35"/>
<path d="M184.58 66.29C181.797 66.9817 178.813 66.6547 176.237 65.3907C175.905 65.2272 175.654 65.7491 175.993 65.9126C178.719 67.2458 181.841 67.5602 184.78 66.8308C185.138 66.7427 184.937 66.1956 184.58 66.29Z" fill="#211F35"/>
<path d="M194.198 57.4669C193.778 57.7939 193.32 58.0643 192.825 58.2656C192.493 58.3976 191.904 58.6492 191.59 58.341C191.321 58.0706 191.427 57.5675 191.509 57.2405C191.64 56.7186 191.854 56.2155 192.123 55.7564C192.205 55.6244 192.123 55.4357 191.985 55.3728C191.835 55.3037 191.678 55.3728 191.603 55.5112C191.346 55.9451 191.152 56.4104 191.007 56.8947C190.888 57.2971 190.794 57.731 190.882 58.1524C190.976 58.5989 191.283 58.9573 191.741 59.0391C192.192 59.1208 192.662 58.9573 193.076 58.7938C193.596 58.58 194.091 58.297 194.53 57.9511C194.825 57.7248 194.492 57.2468 194.198 57.4795V57.4669Z" fill="#211F35"/>
<path d="M182.342 51.7885C181.809 52.3985 181.138 53.1846 180.236 53.0525C179.885 53.0022 179.584 52.8135 179.471 52.4614C179.321 51.9772 179.559 51.4678 179.766 51.0464C179.935 50.7132 179.409 50.4679 179.246 50.8012C178.964 51.3609 178.738 51.9834 178.913 52.6123C179.058 53.1342 179.49 53.4801 179.998 53.5996C181.17 53.8763 182.079 52.9707 182.781 52.1658C183.025 51.8828 182.58 51.5118 182.336 51.7948L182.342 51.7885Z" fill="#211F35"/>
<path d="M208.33 43.8589C206.876 41.6579 204.921 39.8405 202.902 38.1426C204.72 38.9035 206.387 39.9851 207.86 41.2931C210.443 43.5947 212.429 46.607 213.583 49.877C214.642 52.8641 215.043 56.0461 214.899 59.2155C214.786 61.8252 214.322 64.4287 213.545 66.9127C212.755 69.4469 211.521 72.0504 209.208 73.3458C208.894 73.5282 208.55 73.6791 208.199 73.7483C207.797 73.8426 207.396 73.8426 207.014 73.698C206.719 73.5848 206.462 73.3773 206.274 73.132C206.03 72.8365 205.873 72.4654 205.804 72.0818C205.679 71.3901 205.804 70.6795 206.024 70.0066C206.425 68.7175 207.102 67.5352 207.754 66.3404C207.904 66.0763 208.048 65.7996 208.192 65.5292C208.807 64.3721 209.333 63.171 209.778 61.9384C210.048 61.1901 210.286 60.4292 210.48 59.662C210.9 58.0269 211.163 56.3542 211.213 54.6689C211.333 50.8832 210.399 47.0157 208.318 43.8526L208.33 43.8589Z" fill="#C6CBDB"/>
<path d="M202.027 62.3536C202.215 62.1838 202.409 62.0203 202.597 61.8631C204.49 60.2847 206.646 58.9075 209.053 58.417V58.4484C209.498 58.417 209.899 59.2785 210.363 59.637L210.488 59.6747C210.294 60.4482 210.056 61.2028 209.786 61.9512L209.711 61.9197C208.614 61.36 207.292 61.9323 206.257 62.6052C203.299 64.542 200.942 67.3719 199.557 70.6356C199.043 71.8493 198.661 73.1762 198.849 74.4842C198.924 75.0313 199.162 75.6287 199.67 75.8363L199.613 76.0123C198.592 75.6665 197.608 75.2011 196.699 74.6226C196.454 74.4779 196.223 74.3207 195.991 74.1509C195.915 71.9688 196.517 69.7741 197.545 67.8372C198.661 65.7431 200.253 63.9383 202.039 62.3662L202.027 62.3536Z" fill="#C6CBDB"/>
<path d="M209.712 61.913L209.787 61.9445C209.342 63.177 208.809 64.3781 208.201 65.5352C208.057 65.8056 207.913 66.0823 207.762 66.3465C207.562 66.359 207.361 66.4031 207.167 66.4722C206.597 66.686 206.114 67.0948 205.675 67.5224C204.19 68.9373 202.874 70.717 202.711 72.7671C202.673 73.2387 202.711 73.7229 202.936 74.1317C203.005 74.2512 203.099 74.3706 203.199 74.465C202.485 75.1504 201.582 75.6283 200.617 75.8359C200.304 75.905 199.965 75.9491 199.664 75.8233C199.157 75.6221 198.919 75.0184 198.843 74.4713C198.662 73.1632 199.038 71.8426 199.552 70.6227C200.93 67.3589 203.293 64.5291 206.252 62.5922C207.286 61.9193 208.609 61.3471 209.705 61.9068L209.712 61.913Z" fill="#9A84F7"/>
<path d="M203.207 74.4652C203.1 74.3709 203.013 74.2577 202.944 74.1319C202.712 73.7231 202.687 73.2326 202.718 72.7673C202.881 70.7172 204.197 68.9376 205.683 67.5226C206.121 67.1013 206.598 66.6863 207.174 66.4724C207.362 66.4033 207.569 66.3593 207.77 66.3467C207.118 67.5415 206.441 68.7237 206.04 70.0129C205.827 70.6858 205.695 71.3964 205.82 72.0881C205.883 72.4717 206.046 72.8427 206.291 73.1383C205.808 73.6351 205.269 74.0816 204.692 74.4715C204.511 74.5847 204.322 74.7104 204.109 74.7482C203.79 74.8048 203.47 74.6853 203.219 74.4652H203.207Z" fill="#D8DDEA"/>
<path d="M177.271 154.442V157.348H108.413L98.2969 119.34H136.982L144.848 152.927L177.271 154.442Z" fill="#C6CBDB"/>
<path d="M177.272 155.562H107.938L108.414 157.348H177.272V155.562Z" fill="#A4ABBA"/>
<path d="M144.848 152.613H107.285V153.242H144.848V152.613Z" fill="#A4ABBA"/>
<path d="M211.387 151.286C211.055 153.015 210.629 154.732 210.184 156.442C209.294 159.863 208.228 163.234 206.994 166.542C204.499 173.227 201.315 179.653 197.504 185.678C196.577 187.149 195.611 188.596 194.608 190.017C193.712 191.287 192.703 192.558 191.305 193.293C190.02 193.966 188.372 194.149 187.068 193.406C185.846 192.708 185.207 191.319 185.113 189.954C184.987 188.218 185.721 186.558 186.373 184.992C187.144 183.15 187.921 181.307 188.685 179.458C190.234 175.773 191.788 172.088 193.317 168.397C194.013 166.737 194.853 164.718 194.063 162.938C193.424 161.498 191.92 160.662 190.541 160.052C187.325 158.625 183.834 157.788 180.33 157.455C176.802 157.122 173.217 157.335 169.744 158.077C168.002 158.455 166.278 158.977 164.611 159.631C163.194 160.184 161.696 160.907 160.129 160.737C156.989 160.404 156.651 156.65 158.262 154.531C159.239 153.242 160.7 152.411 162.072 151.619C162.593 151.324 163.125 151.041 163.652 150.751C164.749 150.085 169.406 147.947 170.22 147.607C171.136 147.179 172.051 146.764 172.985 146.387C179.465 143.752 186.435 142.293 193.424 142.086C196.921 141.972 200.431 142.18 203.897 142.702C206.718 143.123 210.435 143.626 211.4 146.84C211.832 148.28 211.657 149.827 211.375 151.292L211.387 151.286Z" fill="#464D87"/>
<path d="M99.5949 135.709C99.2564 135.565 98.9367 135.709 98.7612 136.011L96.58 139.765C96.4171 140.048 96.5801 140.476 96.8809 140.602C97.2194 140.746 97.539 140.602 97.7145 140.3C98.4416 139.049 99.1686 137.797 99.8957 136.546C100.059 136.263 99.8957 135.835 99.5949 135.709Z" fill="black"/>
<path d="M90.6285 90.8091C97.3851 90.8091 102.857 96.299 102.857 103.072C102.857 109.844 97.3851 115.341 90.6285 115.341C83.8718 115.341 78.4062 109.851 78.4062 103.072C78.4062 96.2927 83.878 90.8091 90.6285 90.8091ZM101.202 103.072C101.202 97.2171 96.47 92.4693 90.6285 92.4693C84.7869 92.4693 80.0609 97.2171 80.0609 103.072C80.0609 108.926 84.7931 113.681 90.6285 113.681C96.4638 113.681 101.202 108.933 101.202 103.072Z" fill="#9A84F7"/>
<path d="M90.63 92.4692C96.4716 92.4692 101.204 97.2171 101.204 103.072C101.204 108.926 96.4716 113.68 90.63 113.68C84.7884 113.68 80.0625 108.933 80.0625 103.072C80.0625 97.2108 84.7947 92.4692 90.63 92.4692ZM98.3958 103.072C98.3958 102.55 97.9759 102.128 97.4556 102.128H91.5702V94.5948C91.5702 94.0728 91.1502 93.6515 90.63 93.6515C90.1098 93.6515 89.6898 94.0728 89.6898 94.5948V103.072C89.6898 103.594 90.116 104.015 90.63 104.015H97.4556C97.9759 104.015 98.3958 103.594 98.3958 103.072Z" fill="white"/>
<path d="M97.4533 102.128C97.9735 102.128 98.3935 102.55 98.3935 103.072C98.3935 103.594 97.9735 104.015 97.4533 104.015H90.6277C90.1137 104.015 89.6875 103.594 89.6875 103.072V94.5946C89.6875 94.0727 90.1137 93.6514 90.6277 93.6514C91.1416 93.6514 91.5678 94.0727 91.5678 94.5946V102.128H97.4533Z" fill="black"/>
<path d="M120.958 69.0319C120.958 76.27 116.295 82.4014 109.821 84.5772L104.612 92.4253L99.4098 84.5772C92.9351 82.4014 88.2656 76.27 88.2656 69.0319C88.2656 59.9764 95.5864 52.6377 104.612 52.6377C113.638 52.6377 120.958 59.9764 120.958 69.0319Z" fill="#9A84F7"/>
<path d="M113.274 73.4026C114.176 74.1447 113.719 75.6854 112.547 75.7105H96.6639C95.5044 75.6917 95.0343 74.1447 95.9557 73.4026C96.9773 72.5725 98.538 72.1889 98.538 72.1889V66.2085C98.538 63.3473 100.055 61.838 101.572 61.0457C103.458 60.0584 105.752 60.0584 107.645 61.0457C109.156 61.8443 110.672 63.3535 110.672 66.2085V72.1889C110.672 72.1889 112.239 72.5725 113.274 73.4026Z" fill="white"/>
<path d="M101.153 76.9868H108.06C108.06 76.9868 107.897 79.3702 104.468 79.3702C101.04 79.3702 101.153 76.9868 101.153 76.9868Z" fill="white"/>
<path d="M104.607 59.2093C105.427 59.2093 106.092 58.542 106.092 57.7189C106.092 56.8958 105.427 56.2285 104.607 56.2285C103.786 56.2285 103.121 56.8958 103.121 57.7189C103.121 58.542 103.786 59.2093 104.607 59.2093Z" fill="white"/>
<path d="M137.398 95.1045V113.291L128.078 103.607L137.398 95.1045Z" fill="white"/>
<path d="M137.399 113.605C137.318 113.605 137.236 113.574 137.174 113.511L127.853 103.827C127.797 103.764 127.766 103.682 127.766 103.6C127.766 103.512 127.803 103.437 127.866 103.38L137.186 94.8779C137.28 94.7962 137.412 94.771 137.525 94.8213C137.637 94.8716 137.713 94.9848 137.713 95.1106V113.297C137.713 113.423 137.637 113.542 137.518 113.586C137.481 113.599 137.443 113.611 137.399 113.611V113.605ZM128.524 103.625L137.08 112.517V95.8212L128.524 103.625Z" fill="black"/>
<path d="M128.076 103.606L137.397 113.291H111.316L120.643 103.606L124.36 106.996L128.076 103.606Z" fill="white"/>
<path d="M137.398 113.605H111.318C111.192 113.605 111.08 113.53 111.029 113.416C110.979 113.303 111.004 113.165 111.092 113.077L120.419 103.393C120.538 103.273 120.732 103.267 120.857 103.38L124.361 106.575L127.865 103.38C127.99 103.267 128.184 103.273 128.304 103.393L137.624 113.077C137.711 113.165 137.737 113.303 137.686 113.416C137.636 113.53 137.523 113.605 137.398 113.605ZM112.057 112.976H136.658L128.065 104.047L124.574 107.229C124.455 107.335 124.273 107.335 124.154 107.229L120.663 104.047L112.064 112.976H112.057Z" fill="black"/>
<path d="M137.397 95.1045L128.076 103.607L124.36 106.996L120.643 103.607L111.316 95.1045H137.397Z" fill="white"/>
<path d="M124.361 107.311C124.286 107.311 124.211 107.285 124.148 107.229L111.105 95.3371C111.011 95.2491 110.98 95.1108 111.023 94.9913C111.067 94.8718 111.186 94.79 111.318 94.79H137.398C137.53 94.79 137.643 94.8718 137.693 94.9913C137.737 95.1108 137.705 95.2491 137.611 95.3371L124.574 107.229C124.512 107.285 124.437 107.311 124.361 107.311ZM112.127 95.4189L124.361 106.568L136.59 95.4189H112.133H112.127Z" fill="black"/>
<path d="M120.643 103.607L111.316 113.291V95.1045L120.643 103.607Z" fill="white"/>
<path d="M111.317 113.605C111.28 113.605 111.236 113.599 111.198 113.58C111.079 113.53 111.004 113.417 111.004 113.291V95.1043C111.004 94.9785 111.079 94.8653 111.192 94.815C111.305 94.7647 111.436 94.7836 111.53 94.8716L120.857 103.374C120.92 103.43 120.957 103.512 120.957 103.594C120.957 103.676 120.926 103.764 120.869 103.82L111.543 113.505C111.48 113.567 111.399 113.599 111.317 113.599V113.605ZM111.631 95.8149V112.511L120.192 103.619L111.631 95.8149Z" fill="black"/>
<path d="M136.583 91.2559C139.09 91.2559 141.134 93.2996 141.134 95.8151C141.134 98.3305 139.09 100.381 136.583 100.381C134.076 100.381 132.039 98.3305 132.039 95.8151C132.039 93.2996 134.076 91.2559 136.583 91.2559ZM139.88 95.8151C139.88 93.9977 138.401 92.5136 136.583 92.5136C134.766 92.5136 133.293 93.9977 133.293 95.8151C133.293 97.6324 134.772 99.1228 136.583 99.1228C138.395 99.1228 139.88 97.6387 139.88 95.8151Z" fill="black"/>
<path d="M136.584 92.5137C138.401 92.5137 139.88 93.9978 139.88 95.8152C139.88 97.6325 138.401 99.1229 136.584 99.1229C134.766 99.1229 133.293 97.6388 133.293 95.8152C133.293 93.9915 134.772 92.5137 136.584 92.5137Z" fill="#9A84F7"/>
<path d="M142.156 100.708V121.598H152.16L149.283 128.603L162.846 121.598H181.75V100.708H142.156Z" fill="white"/>
<path d="M178.48 105.455H145.981C145.58 105.455 145.636 106.084 146.038 106.084H178.536C178.937 106.084 178.881 105.455 178.48 105.455Z" fill="black"/>
<path d="M178.39 109.04H146.067C145.666 109.04 145.722 109.668 146.124 109.668H178.447C178.848 109.668 178.791 109.04 178.39 109.04Z" fill="black"/>
<path d="M178.921 112.549H146.423C146.021 112.549 146.078 113.178 146.479 113.178H178.977C179.379 113.178 179.322 112.549 178.921 112.549Z" fill="black"/>
<path d="M153.487 116.133H146.298C146.21 116.133 146.223 116.762 146.311 116.762H153.5C153.588 116.762 153.575 116.133 153.487 116.133Z" fill="black"/>
<path d="M127.908 74.572C127.889 73.7608 126.642 73.874 126.66 74.6789C126.767 79.9613 126.873 85.2437 126.98 90.5323C126.999 91.3435 128.246 91.2304 128.227 90.4254C128.121 85.143 128.014 79.8607 127.908 74.572Z" fill="black"/>
<path d="M135.356 82.4076C133.927 84.9356 132.498 87.4636 131.069 89.9916C130.667 90.6959 131.808 91.2304 132.203 90.5324C133.632 88.0044 135.061 85.4764 136.49 82.9484C136.891 82.2441 135.751 81.7096 135.356 82.4076Z" fill="black"/>
<path d="M124.337 90.2246C123.102 88.2625 121.861 86.3005 120.626 84.3322C120.194 83.6467 119.172 84.3762 119.605 85.0617C120.839 87.0237 122.08 88.9857 123.315 90.954C123.748 91.6395 124.769 90.91 124.337 90.2246Z" fill="black"/>
<path d="M119.515 91.2809C118.544 90.4885 117.572 89.6962 116.601 88.9101C116.344 88.7026 115.924 88.7152 115.717 88.9856C115.51 89.2497 115.522 89.6522 115.792 89.8723C116.763 90.6646 117.735 91.457 118.706 92.243C118.963 92.4506 119.383 92.438 119.59 92.1676C119.797 91.9035 119.785 91.501 119.515 91.2809Z" fill="black"/>
<path d="M95.2089 122.359C92.1816 120.51 89.1542 118.655 86.1269 116.806C85.4374 116.385 84.9109 117.523 85.5878 117.944C88.6152 119.793 91.6425 121.648 94.6699 123.497C95.3593 123.918 95.8858 122.78 95.2089 122.359Z" fill="black"/>
<path d="M94.5502 127.232C92.6385 127.377 90.7206 127.528 88.8089 127.672C88.0066 127.735 88.1132 128.987 88.9154 128.924C90.8271 128.779 92.7451 128.628 94.6567 128.484C95.459 128.421 95.3525 127.169 94.5502 127.232Z" fill="black"/>
<path d="M96.6895 132.269C93.7374 134.527 90.7852 136.778 87.8268 139.036C87.1875 139.526 87.9083 140.551 88.5539 140.061C91.506 137.803 94.4582 135.552 97.4166 133.294C98.0559 132.804 97.3351 131.779 96.6895 132.269Z" fill="black"/>
<path d="M93.1531 123.855C92.2506 123.667 91.348 123.472 90.4455 123.283C90.1258 123.214 89.7623 123.459 89.7184 123.786C89.6682 124.132 89.8751 124.447 90.2198 124.516C91.1224 124.704 92.0249 124.899 92.9275 125.088C93.2472 125.157 93.6107 124.912 93.6546 124.585C93.7047 124.239 93.4979 123.925 93.1531 123.855Z" fill="black"/>
<path d="M95.2672 130.773C95.1355 130.465 94.7908 130.276 94.4586 130.402C93.6187 130.729 92.7788 131.056 91.939 131.376C91.6318 131.496 91.4375 131.867 91.5692 132.188C91.7008 132.496 92.0455 132.685 92.3777 132.559C93.2176 132.232 94.0575 131.905 94.8974 131.584C95.2045 131.465 95.3988 131.094 95.2672 130.773Z" fill="black"/>
<path d="M87.9845 82.0302C87.8403 82.0302 87.7087 81.9233 87.6773 81.7786C87.646 81.6088 87.7525 81.4453 87.9218 81.4076C88.4357 81.307 88.9622 81.2189 89.4887 81.1435C89.658 81.1183 89.8209 81.2378 89.8397 81.4139C89.8648 81.5837 89.7457 81.7472 89.5702 81.766C89.0625 81.8352 88.5486 81.9233 88.0409 82.0239C88.0221 82.0239 87.997 82.0239 87.9782 82.0239L87.9845 82.0302Z" fill="#0F0F1E"/>
<path d="M57.7119 188.835C57.6305 188.835 57.549 188.804 57.4863 188.741C56.8094 188.043 56.1701 187.238 55.5182 186.276C55.4179 186.131 55.4555 185.936 55.5997 185.842C55.7438 185.741 55.9381 185.779 56.0322 185.923C56.6589 186.854 57.2795 187.628 57.9313 188.3C58.0504 188.426 58.0504 188.621 57.925 188.747C57.8624 188.804 57.7871 188.835 57.7057 188.835H57.7119ZM54.1769 183.76C54.0641 183.76 53.9575 183.704 53.9011 183.597C53.337 182.565 52.8732 181.653 52.4909 180.804C52.4219 180.647 52.4909 180.459 52.6476 180.389C52.8042 180.32 52.9923 180.389 53.0612 180.547C53.4373 181.377 53.8948 182.276 54.4527 183.295C54.5342 183.446 54.484 183.641 54.3273 183.722C54.2772 183.748 54.227 183.76 54.1769 183.76ZM51.6823 178.094C51.5444 178.094 51.4191 178.006 51.3815 177.868C51.0618 176.786 50.8675 175.767 50.786 174.761C50.7735 174.585 50.8988 174.434 51.0743 174.422C51.2436 174.409 51.4003 174.535 51.4128 174.711C51.488 175.673 51.676 176.648 51.9832 177.692C52.0333 177.855 51.9393 178.031 51.7701 178.082C51.7387 178.088 51.7137 178.094 51.6823 178.094ZM51.2436 171.957C51.2436 171.957 51.206 171.957 51.1872 171.957C51.0179 171.925 50.9051 171.762 50.9302 171.592C51.0994 170.598 51.3877 169.579 51.7951 168.548C51.8578 168.385 52.0396 168.303 52.2025 168.372C52.3655 168.435 52.4407 168.617 52.378 168.781C51.9894 169.768 51.7137 170.749 51.5507 171.699C51.5256 171.85 51.394 171.963 51.2436 171.963V171.957ZM53.4436 166.184C53.3934 166.184 53.337 166.171 53.2869 166.14C53.1364 166.052 53.0863 165.863 53.174 165.712C53.6629 164.863 54.2208 164.002 54.8789 163.083C54.9792 162.939 55.1735 162.907 55.3176 163.008C55.4555 163.109 55.4931 163.303 55.3866 163.448C54.741 164.347 54.1957 165.19 53.7193 166.026C53.6629 166.127 53.5564 166.184 53.4498 166.184H53.4436ZM57.0162 161.121C56.9473 161.121 56.8783 161.096 56.8219 161.052C56.6903 160.945 56.6652 160.744 56.778 160.612C57.4048 159.838 58.0629 159.065 58.79 158.235C58.9028 158.103 59.1034 158.09 59.235 158.21C59.3666 158.323 59.3792 158.524 59.2601 158.656C58.533 159.474 57.8812 160.247 57.2669 161.008C57.2042 161.084 57.1165 161.121 57.0225 161.121H57.0162ZM61.1091 156.468C61.0339 156.468 60.9524 156.443 60.896 156.38C60.7706 156.26 60.7643 156.059 60.8834 155.933C61.5917 155.179 62.3125 154.437 63.0333 153.695C63.1524 153.569 63.3529 153.569 63.4783 153.695C63.6037 153.814 63.6037 154.015 63.4783 154.141C62.7575 154.877 62.043 155.619 61.3347 156.374C61.272 156.436 61.1906 156.474 61.1091 156.474V156.468ZM65.4339 152.028C65.3524 152.028 65.2772 151.997 65.2145 151.934C65.0891 151.814 65.0891 151.613 65.2145 151.487C65.9415 150.752 66.6686 150.022 67.3894 149.28C67.5085 149.154 67.7091 149.154 67.8344 149.28C67.9598 149.4 67.9598 149.601 67.8344 149.727C67.1136 150.462 66.3866 151.198 65.6532 151.934C65.5905 151.997 65.5091 152.028 65.4339 152.028ZM69.7649 147.588C69.6897 147.588 69.6082 147.563 69.5518 147.5C69.4264 147.381 69.4202 147.18 69.5393 147.054C70.3353 146.211 71.0059 145.457 71.5951 144.759C71.7079 144.627 71.9022 144.608 72.0338 144.721C72.1655 144.834 72.1843 145.029 72.0714 145.161C71.476 145.872 70.7928 146.633 69.9905 147.488C69.9279 147.551 69.8464 147.588 69.7649 147.588ZM73.7136 142.815C73.6509 142.815 73.5883 142.797 73.5381 142.759C73.394 142.658 73.3626 142.463 73.4566 142.319C74.0771 141.419 74.5848 140.564 75.011 139.69C75.0863 139.533 75.2743 139.47 75.431 139.545C75.5877 139.621 75.6504 139.809 75.5751 139.967C75.1364 140.853 74.5974 141.765 73.9769 142.671C73.9142 142.759 73.8202 142.809 73.7199 142.809L73.7136 142.815ZM76.4025 137.256C76.4025 137.256 76.3461 137.256 76.321 137.244C76.1518 137.2 76.0578 137.024 76.1016 136.86C76.1518 136.684 76.1957 136.508 76.2333 136.332C76.415 135.54 76.5278 134.709 76.578 133.867C76.5905 133.691 76.741 133.559 76.9102 133.571C77.0857 133.584 77.2173 133.728 77.2048 133.905C77.1546 134.785 77.0355 135.653 76.8475 136.477C76.8036 136.659 76.7598 136.848 76.7096 137.03C76.672 137.168 76.5467 137.263 76.4088 137.263L76.4025 137.256ZM76.766 131.094C76.6093 131.094 76.4777 130.974 76.4526 130.817C76.3335 129.848 76.133 128.842 75.8572 127.817C75.8133 127.647 75.9073 127.478 76.0766 127.434C76.2458 127.39 76.415 127.484 76.4589 127.654C76.7409 128.704 76.9478 129.742 77.0731 130.741C77.0919 130.911 76.9729 131.068 76.8036 131.094C76.7911 131.094 76.7786 131.094 76.766 131.094ZM75.1803 125.107C75.0549 125.107 74.9358 125.031 74.8857 124.906C74.7729 124.616 74.6538 124.327 74.5347 124.044C74.2652 123.415 73.9769 122.774 73.6447 122.088C73.5694 121.931 73.6321 121.743 73.7888 121.667C73.9455 121.592 74.1336 121.654 74.2088 121.812C74.5472 122.503 74.8418 123.151 75.1113 123.793C75.2367 124.082 75.3558 124.377 75.4686 124.673C75.5313 124.836 75.4498 125.019 75.2931 125.082C75.2555 125.094 75.2179 125.101 75.1803 125.101V125.107ZM72.5039 119.516C72.3911 119.516 72.2845 119.46 72.2281 119.353C71.8583 118.667 71.4823 117.982 71.0999 117.297L70.7364 116.636C70.6549 116.485 70.7051 116.29 70.8618 116.209C71.0122 116.127 71.2065 116.183 71.288 116.334L71.6515 116.995C72.0276 117.68 72.4099 118.366 72.7797 119.057C72.8612 119.208 72.8048 119.403 72.6544 119.485C72.6042 119.51 72.5541 119.523 72.5039 119.523V119.516ZM69.5455 114.058C69.4327 114.058 69.3262 113.995 69.2697 113.888C69.0629 113.492 68.8623 113.096 68.668 112.7C68.4048 112.165 68.1478 111.624 67.9096 111.077C67.8407 110.92 67.9096 110.731 68.0726 110.662C68.2293 110.593 68.4173 110.662 68.4863 110.826C68.7244 111.366 68.9752 111.895 69.2321 112.423C69.4264 112.819 69.627 113.209 69.8276 113.599C69.9091 113.75 69.8464 113.945 69.6959 114.02C69.6521 114.045 69.6019 114.058 69.5518 114.058H69.5455ZM67.1262 108.354C66.9883 108.354 66.8629 108.266 66.8253 108.128C66.5119 107.04 66.3239 106.021 66.2487 105.015C66.2361 104.839 66.3678 104.688 66.537 104.675C66.7125 104.657 66.8566 104.795 66.8754 104.965C66.9444 105.927 67.1262 106.902 67.427 107.945C67.4772 108.115 67.3769 108.285 67.2139 108.335C67.1826 108.342 67.1575 108.348 67.1262 108.348V108.354ZM66.7125 102.217C66.7125 102.217 66.6811 102.217 66.6623 102.217C66.4931 102.191 66.374 102.028 66.4054 101.858C66.5683 100.871 66.8378 99.8395 67.2139 98.8082C67.2703 98.6447 67.4521 98.5567 67.615 98.6195C67.778 98.6761 67.8595 98.8585 67.8031 99.022C67.4395 100.022 67.1826 101.009 67.0259 101.965C67.0008 102.122 66.8692 102.229 66.7187 102.229L66.7125 102.217ZM68.7621 96.3808C68.7119 96.3808 68.6618 96.3682 68.6179 96.3431C68.4675 96.2613 68.4048 96.0727 68.4863 95.9155C68.9689 94.9973 69.5079 94.0918 70.1034 93.224C70.2036 93.0793 70.3979 93.0416 70.5421 93.1422C70.6863 93.2428 70.7239 93.4378 70.6236 93.5824C70.0469 94.4314 69.5142 95.3118 69.0441 96.211C68.9877 96.3179 68.8811 96.3808 68.7683 96.3808H68.7621ZM72.2469 91.2682C72.1717 91.2682 72.1028 91.2431 72.0401 91.1928C71.9085 91.0796 71.8959 90.8783 72.0088 90.7463C72.6857 89.9602 73.419 89.2056 74.1837 88.495C74.309 88.3755 74.5096 88.3818 74.6287 88.5139C74.7478 88.6396 74.7415 88.8409 74.6099 88.9603C73.864 89.6584 73.1432 90.4004 72.4851 91.1676C72.4224 91.2368 72.3347 91.2745 72.2469 91.2745V91.2682ZM76.7786 87.0549C76.6845 87.0549 76.5905 87.0109 76.5278 86.9291C76.4276 86.7908 76.4526 86.5896 76.5905 86.4889C77.4241 85.8664 78.3016 85.2815 79.1979 84.7596C79.3484 84.6716 79.5364 84.7219 79.6241 84.8728C79.7119 85.0237 79.6617 85.2124 79.5113 85.3004C78.6338 85.8161 77.7751 86.3883 76.9603 86.992C76.9039 87.036 76.8412 87.0549 76.7723 87.0549H76.7786ZM82.1062 83.9232C81.9871 83.9232 81.8743 83.854 81.8179 83.7408C81.7489 83.5836 81.8179 83.395 81.9746 83.3258C82.9273 82.8982 83.9113 82.5209 84.8953 82.2002C85.0583 82.1499 85.2338 82.2379 85.2902 82.4014C85.3404 82.5649 85.2526 82.741 85.0896 82.7976C84.1244 83.1057 83.1654 83.4767 82.2315 83.8981C82.1877 83.9169 82.1438 83.9232 82.1062 83.9232Z" fill="#0F0F1E"/>
<path d="M61.5652 191.457C61.5275 191.457 61.4899 191.457 61.4586 191.438C60.9634 191.256 60.4683 191.023 59.9919 190.746C59.8415 190.658 59.7914 190.47 59.8791 190.319C59.9669 190.168 60.1549 190.117 60.3053 190.205C60.7503 190.463 61.2079 190.683 61.6717 190.853C61.8347 190.916 61.9161 191.092 61.8597 191.256C61.8159 191.381 61.6905 191.463 61.5652 191.463V191.457Z" fill="#0F0F1E"/>
<path d="M196.23 202.343C196.067 202.343 195.929 202.211 195.917 202.047C195.892 201.532 195.842 201.016 195.773 200.5C195.748 200.331 195.873 200.173 196.042 200.148C196.205 200.123 196.368 200.249 196.393 200.419C196.462 200.947 196.512 201.481 196.537 202.01C196.55 202.186 196.412 202.33 196.243 202.343C196.243 202.343 196.23 202.343 196.224 202.343H196.23Z" fill="#0F0F1E"/>
<path d="M157.088 226.145C156.975 226.145 156.868 226.088 156.812 225.982C156.731 225.831 156.781 225.636 156.937 225.554C157.677 225.145 158.448 224.604 159.225 223.957C159.338 223.862 159.451 223.762 159.564 223.667C159.695 223.554 159.896 223.567 160.009 223.699C160.121 223.831 160.109 224.032 159.977 224.145C159.864 224.246 159.745 224.347 159.626 224.441C158.818 225.12 158.015 225.68 157.245 226.107C157.194 226.132 157.144 226.145 157.094 226.145H157.088ZM162.246 222.026C162.158 222.026 162.071 221.988 162.008 221.913C161.895 221.781 161.914 221.58 162.046 221.473C163.086 220.599 163.939 220.007 164.816 219.555C164.966 219.479 165.161 219.536 165.236 219.693C165.317 219.85 165.255 220.039 165.098 220.114C164.264 220.542 163.45 221.108 162.447 221.951C162.39 222.001 162.315 222.026 162.246 222.026ZM181.382 220.485H181.194C181.018 220.485 180.88 220.341 180.88 220.165C180.88 219.995 181.025 219.85 181.194 219.85H181.382C181.77 219.85 182.153 219.838 182.516 219.806C183.143 219.756 183.776 219.655 184.403 219.504C184.572 219.46 184.741 219.567 184.779 219.737C184.817 219.907 184.716 220.077 184.547 220.114C183.895 220.272 183.225 220.378 182.566 220.429C182.19 220.46 181.789 220.473 181.382 220.473V220.485ZM177.916 220.184C177.916 220.184 177.884 220.184 177.866 220.184C177.057 220.058 176.242 219.913 175.434 219.762L174.6 219.611C174.431 219.58 174.318 219.416 174.349 219.247C174.381 219.077 174.537 218.964 174.713 218.995L175.546 219.146C176.349 219.291 177.151 219.441 177.96 219.561C178.129 219.586 178.248 219.75 178.223 219.919C178.198 220.077 178.066 220.184 177.916 220.184ZM168.094 219.177C167.937 219.177 167.806 219.064 167.781 218.907C167.756 218.737 167.881 218.574 168.05 218.555C169.066 218.423 170.131 218.41 171.416 218.523C171.591 218.536 171.717 218.693 171.698 218.863C171.679 219.039 171.516 219.158 171.36 219.146C170.125 219.039 169.103 219.045 168.132 219.177C168.119 219.177 168.107 219.177 168.088 219.177H168.094ZM187.562 218.982C187.449 218.982 187.336 218.92 187.28 218.813C187.198 218.655 187.261 218.467 187.418 218.391C188.364 217.901 189.273 217.303 190.113 216.605C190.244 216.492 190.445 216.511 190.552 216.649C190.664 216.781 190.646 216.983 190.508 217.09C189.636 217.813 188.69 218.442 187.7 218.951C187.656 218.976 187.606 218.982 187.556 218.982H187.562ZM192.607 214.794C192.538 214.794 192.47 214.769 192.413 214.725C192.275 214.618 192.256 214.417 192.363 214.285C192.658 213.914 192.933 213.518 193.19 213.121C193.516 212.618 193.817 212.084 194.087 211.537C194.162 211.38 194.35 211.317 194.507 211.392C194.663 211.468 194.726 211.656 194.651 211.813C194.369 212.379 194.055 212.933 193.723 213.455C193.46 213.87 193.172 214.279 192.864 214.662C192.802 214.744 192.708 214.782 192.62 214.782L192.607 214.794ZM195.541 208.902C195.541 208.902 195.484 208.902 195.459 208.889C195.29 208.845 195.196 208.669 195.24 208.499C195.528 207.474 195.729 206.393 195.842 205.299C195.86 205.122 196.011 204.997 196.186 205.016C196.356 205.034 196.481 205.185 196.468 205.361C196.349 206.493 196.142 207.6 195.842 208.663C195.804 208.801 195.679 208.896 195.541 208.896V208.902Z" fill="#0F0F1E"/>
<path d="M153.389 227.22C153.031 227.22 152.68 227.189 152.342 227.126C152.173 227.094 152.06 226.931 152.091 226.761C152.123 226.591 152.285 226.478 152.455 226.51C152.931 226.598 153.426 226.617 153.928 226.566C154.103 226.56 154.254 226.673 154.272 226.849C154.291 227.025 154.166 227.176 153.99 227.195C153.79 227.214 153.589 227.227 153.389 227.227V227.22Z" fill="#0F0F1E"/>
</svg>
