<svg width="22" height="22" viewBox="0 0 22 22" fill="none" xmlns="http://www.w3.org/2000/svg">
    <path d="M15.1251 19.9377C15.1251 20.1201 15.0527 20.2949 14.9237 20.4239C14.7948 20.5528 14.6199 20.6252 14.4376 20.6252H7.56261C7.38028 20.6252 7.20541 20.5528 7.07648 20.4239C6.94755 20.2949 6.87511 20.1201 6.87511 19.9377C6.87511 19.7554 6.94755 19.5805 7.07648 19.4516C7.20541 19.3227 7.38028 19.2502 7.56261 19.2502H14.4376C14.6199 19.2502 14.7948 19.3227 14.9237 19.4516C15.0527 19.5805 15.1251 19.7554 15.1251 19.9377ZM18.5626 8.93774C18.5656 10.0838 18.3067 11.2155 17.8056 12.2463C17.3046 13.277 16.5747 14.1798 15.6717 14.8855C15.5028 15.0149 15.3658 15.1812 15.2711 15.3717C15.1763 15.5622 15.1264 15.7719 15.1251 15.9846V16.5002C15.1251 16.8649 14.9802 17.2147 14.7224 17.4725C14.4645 17.7304 14.1148 17.8752 13.7501 17.8752H8.25011C7.88544 17.8752 7.5357 17.7304 7.27784 17.4725C7.01998 17.2147 6.87511 16.8649 6.87511 16.5002V15.9846C6.87497 15.7744 6.82664 15.567 6.73382 15.3784C6.64101 15.1898 6.50619 15.025 6.33972 14.8966C5.43893 14.1951 4.70953 13.2978 4.20673 12.2727C3.70394 11.2476 3.44093 10.1216 3.43761 8.97985C3.41527 4.88407 6.72558 1.47321 10.8179 1.37524C11.8263 1.35094 12.8293 1.5286 13.7679 1.89776C14.7066 2.26691 15.5619 2.82011 16.2836 3.52479C17.0052 4.22947 17.5786 5.07138 17.97 6.00099C18.3614 6.93059 18.5629 7.9291 18.5626 8.93774ZM17.1876 8.93774C17.1879 8.11245 17.023 7.29545 16.7027 6.53483C16.3825 5.77422 15.9133 5.08535 15.3228 4.50879C14.7323 3.93223 14.0324 3.47962 13.2644 3.17762C12.4963 2.87561 11.6756 2.7303 10.8506 2.75024C7.49902 2.8293 4.79457 5.6197 4.81261 8.97126C4.81575 9.90504 5.03123 10.8259 5.44275 11.6641C5.85427 12.5023 6.45105 13.236 7.18792 13.8095C7.51917 14.067 7.78709 14.3969 7.9712 14.7739C8.15531 15.1509 8.25071 15.5651 8.25011 15.9846V16.5002H13.7501V15.9846C13.7511 15.5639 13.8481 15.1489 14.0338 14.7713C14.2195 14.3938 14.489 14.0637 14.8218 13.8061C15.5609 13.2285 16.1583 12.4896 16.5683 11.6458C16.9783 10.8021 17.1902 9.87583 17.1876 8.93774ZM15.8032 8.13509C15.6249 7.13932 15.1458 6.22209 14.4304 5.50686C13.715 4.79163 12.7977 4.31275 11.8019 4.1347C11.7129 4.11969 11.6217 4.12236 11.5337 4.14257C11.4457 4.16278 11.3626 4.20012 11.289 4.25247C11.2154 4.30482 11.1529 4.37115 11.1049 4.44767C11.057 4.52419 11.0246 4.6094 11.0096 4.69845C10.9946 4.78749 10.9972 4.87861 11.0174 4.96662C11.0376 5.05463 11.075 5.1378 11.1273 5.21137C11.1797 5.28495 11.246 5.34749 11.3225 5.39544C11.3991 5.44338 11.4843 5.47578 11.5733 5.49079C12.9973 5.73055 14.2056 6.93884 14.4471 8.3654C14.4743 8.52552 14.5573 8.67084 14.6814 8.7756C14.8055 8.88036 14.9627 8.9378 15.1251 8.93774C15.164 8.93751 15.2027 8.93435 15.2411 8.92829C15.4208 8.89761 15.581 8.79681 15.6864 8.64807C15.7918 8.49932 15.8338 8.3148 15.8032 8.13509Z" fill="#242424" fill-opacity="0.6"/>
</svg>
