<svg width="51" height="51" viewBox="0 0 51 51" fill="none" xmlns="http://www.w3.org/2000/svg">
<g filter="url(#filter0_ii_1430_6142)">
<path d="M24.5568 0.0176993C18.8499 0.336448 14.2804 5.10494 14.2804 10.8883V14.2798H10.8889C5.10556 14.2798 0.337102 18.8494 0.0183548 24.5563C0.50285 11.2224 11.2229 0.502198 24.5568 0.0176993Z" fill="url(#paint0_linear_1430_6142)"/>
<path d="M50.9823 24.5563C50.6635 18.8494 45.8925 14.2798 40.1092 14.2798H36.7202V10.8883C36.7202 5.10239 32.1456 0.333898 26.4362 0.0176993C39.77 0.497098 50.4978 11.2198 50.9823 24.5563Z" fill="#3884B5"/>
<path d="M50.9823 26.4436C50.4978 39.78 39.77 50.5027 26.4362 50.9821C32.1456 50.6659 36.7202 45.8949 36.7202 40.1115V36.72H40.1092C45.8925 36.72 50.6635 32.1504 50.9823 26.4436Z" fill="url(#paint1_linear_1430_6142)"/>
<path d="M24.5568 50.9821C11.2229 50.4976 0.50285 39.7775 0.0183548 26.4436C0.337102 32.1504 5.10556 36.72 10.8889 36.72H14.2804V40.1115C14.2804 45.8924 18.8499 50.6634 24.5568 50.9821Z" fill="url(#paint2_linear_1430_6142)"/>
<path d="M51 25.5001C51 25.8163 50.995 26.1299 50.9823 26.4436C50.6635 32.1504 45.8925 36.72 40.1092 36.72H36.7202V14.2798H40.1092C45.8925 14.2798 50.6635 18.8494 50.9823 24.5563C50.995 24.8699 51 25.1839 51 25.5001Z" fill="#269698"/>
<path d="M14.2804 14.2798V36.72H10.8889C5.10556 36.72 0.337102 32.1504 0.0183548 26.4436C0.00560494 26.1299 0 25.8163 0 25.5001C0 25.1839 0.00560494 24.8699 0.0183548 24.5563C0.337102 18.8494 5.10556 14.2798 10.8889 14.2798H14.2804Z" fill="url(#paint3_linear_1430_6142)"/>
<path d="M50.9997 25.1686L51 25.5001C51 25.1839 50.995 24.8699 50.9823 24.5563C50.995 24.7577 50.9997 24.9621 50.9997 25.1686Z" fill="#242424"/>
<path d="M50.9823 26.4436C50.995 26.1299 51 25.8163 51 25.5001L50.9997 25.8318C50.9997 26.0383 50.995 26.2421 50.9823 26.4436Z" fill="#242424"/>
<path d="M36.7202 10.8883V14.2798H14.2804V10.8883C14.2804 5.10494 18.8499 0.336448 24.5568 0.0176993C24.8704 0.00494936 25.1838 0 25.4999 0C25.7957 0 26.0941 0.00510068 26.3873 0.0153006C26.4026 0.0153006 26.4209 0.0151493 26.4362 0.0176993C32.1456 0.333898 36.7202 5.10239 36.7202 10.8883Z" fill="url(#paint4_linear_1430_6142)"/>
<path d="M24.5568 50.9821C24.8704 50.9949 25.1834 51 25.4996 51H25.1681C24.9616 51 24.7582 50.9949 24.5568 50.9821Z" fill="#242424"/>
<path d="M25.4996 51C25.7954 51 26.0942 50.9946 26.3875 50.9844C26.2013 50.9946 26.0152 50.9997 25.829 50.9997L25.4996 51Z" fill="#242424"/>
<path d="M25.4999 36.7199L14.2804 36.72L14.2801 25.4999C14.2801 31.6964 19.3035 36.7199 25.4999 36.7199Z" fill="#E09927"/>
<path d="M25.4999 14.2801C19.3035 14.2801 14.2801 19.3034 14.2801 25.4999L14.2804 14.2798L25.4999 14.2801Z" fill="#E68A93"/>
<path d="M36.7202 14.2798L36.72 25.5001C36.72 19.3036 31.6964 14.2801 25.4999 14.2801L36.7202 14.2798Z" fill="#4E71CA"/>
<path d="M36.7202 40.1115C36.7202 45.8949 32.1456 50.6659 26.4362 50.9821C26.4209 50.9847 26.4027 50.9844 26.3875 50.9844C26.0942 50.9946 25.7954 51 25.4996 51C25.1834 51 24.8704 50.9949 24.5568 50.9821C18.8499 50.6634 14.2804 45.8924 14.2804 40.1115V36.72L25.4999 36.7199C31.6964 36.7199 36.72 31.6966 36.72 25.5001L36.7202 40.1115Z" fill="url(#paint5_linear_1430_6142)"/>
<path d="M24.5568 0.0176993C18.8499 0.336448 14.2804 5.10494 14.2804 10.8883V14.2798H10.8889C5.10556 14.2798 0.337102 18.8494 0.0183548 24.5563C0.50285 11.2224 11.2229 0.502198 24.5568 0.0176993Z" fill="url(#paint6_linear_1430_6142)"/>
<path d="M50.9823 24.5563C50.6635 18.8494 45.8925 14.2798 40.1092 14.2798H36.7202V10.8883C36.7202 5.10239 32.1456 0.333898 26.4362 0.0176993C39.77 0.497098 50.4978 11.2198 50.9823 24.5563Z" fill="#3884B5"/>
<path d="M50.9823 26.4436C50.4978 39.78 39.77 50.5027 26.4362 50.9821C32.1456 50.6659 36.7202 45.8949 36.7202 40.1115V36.72H40.1092C45.8925 36.72 50.6635 32.1504 50.9823 26.4436Z" fill="url(#paint7_linear_1430_6142)"/>
<path d="M24.5568 50.9821C11.2229 50.4976 0.50285 39.7775 0.0183548 26.4436C0.337102 32.1504 5.10556 36.72 10.8889 36.72H14.2804V40.1115C14.2804 45.8924 18.8499 50.6634 24.5568 50.9821Z" fill="url(#paint8_linear_1430_6142)"/>
<path d="M51 25.5001C51 25.8163 50.995 26.1299 50.9823 26.4436C50.6635 32.1504 45.8925 36.72 40.1092 36.72H36.7202V14.2798H40.1092C45.8925 14.2798 50.6635 18.8494 50.9823 24.5563C50.995 24.8699 51 25.1839 51 25.5001Z" fill="#269698"/>
<path d="M14.2804 14.2798V36.72H10.8889C5.10556 36.72 0.337102 32.1504 0.0183548 26.4436C0.00560494 26.1299 0 25.8163 0 25.5001C0 25.1839 0.00560494 24.8699 0.0183548 24.5563C0.337102 18.8494 5.10556 14.2798 10.8889 14.2798H14.2804Z" fill="url(#paint9_linear_1430_6142)"/>
<path d="M50.9997 25.1686L51 25.5001C51 25.1839 50.995 24.8699 50.9823 24.5563C50.995 24.7577 50.9997 24.9621 50.9997 25.1686Z" fill="#242424"/>
<path d="M50.9823 26.4436C50.995 26.1299 51 25.8163 51 25.5001L50.9997 25.8318C50.9997 26.0383 50.995 26.2421 50.9823 26.4436Z" fill="#242424"/>
<path d="M36.7202 10.8883V14.2798H14.2804V10.8883C14.2804 5.10494 18.8499 0.336448 24.5568 0.0176993C24.8704 0.00494936 25.1838 0 25.4999 0C25.7957 0 26.0941 0.00510068 26.3873 0.0153006C26.4026 0.0153006 26.4209 0.0151493 26.4362 0.0176993C32.1456 0.333898 36.7202 5.10239 36.7202 10.8883Z" fill="url(#paint10_linear_1430_6142)"/>
<path d="M24.5568 50.9821C24.8704 50.9949 25.1834 51 25.4996 51H25.1681C24.9616 51 24.7582 50.9949 24.5568 50.9821Z" fill="#242424"/>
<path d="M25.4996 51C25.7954 51 26.0942 50.9946 26.3875 50.9844C26.2013 50.9946 26.0152 50.9997 25.829 50.9997L25.4996 51Z" fill="#242424"/>
<path d="M25.4999 36.7199L14.2804 36.72L14.2801 25.4999C14.2801 31.6964 19.3035 36.7199 25.4999 36.7199Z" fill="#E09927"/>
<path d="M25.4999 14.2801C19.3035 14.2801 14.2801 19.3034 14.2801 25.4999L14.2804 14.2798L25.4999 14.2801Z" fill="#E68A93"/>
<path d="M36.7202 14.2798L36.72 25.5001C36.72 19.3036 31.6964 14.2801 25.4999 14.2801L36.7202 14.2798Z" fill="#4E71CA"/>
<path d="M36.7202 40.1115C36.7202 45.8949 32.1456 50.6659 26.4362 50.9821C26.4209 50.9847 26.4027 50.9844 26.3875 50.9844C26.0942 50.9946 25.7954 51 25.4996 51C25.1834 51 24.8704 50.9949 24.5568 50.9821C18.8499 50.6634 14.2804 45.8924 14.2804 40.1115V36.72L25.4999 36.7199C31.6964 36.7199 36.72 31.6966 36.72 25.5001L36.7202 40.1115Z" fill="url(#paint11_linear_1430_6142)"/>
</g>
<defs>
<filter id="filter0_ii_1430_6142" x="-2" y="0" width="53" height="54" filterUnits="userSpaceOnUse" color-interpolation-filters="sRGB">
<feFlood flood-opacity="0" result="BackgroundImageFix"/>
<feBlend mode="normal" in="SourceGraphic" in2="BackgroundImageFix" result="shape"/>
<feColorMatrix in="SourceAlpha" type="matrix" values="0 0 0 0 0 0 0 0 0 0 0 0 0 0 0 0 0 0 127 0" result="hardAlpha"/>
<feOffset dx="-2" dy="3"/>
<feGaussianBlur stdDeviation="9.25"/>
<feComposite in2="hardAlpha" operator="arithmetic" k2="-1" k3="1"/>
<feColorMatrix type="matrix" values="0 0 0 0 1 0 0 0 0 1 0 0 0 0 1 0 0 0 0.55 0"/>
<feBlend mode="overlay" in2="shape" result="effect1_innerShadow_1430_6142"/>
<feColorMatrix in="SourceAlpha" type="matrix" values="0 0 0 0 0 0 0 0 0 0 0 0 0 0 0 0 0 0 127 0" result="hardAlpha"/>
<feOffset dx="-1" dy="1"/>
<feComposite in2="hardAlpha" operator="arithmetic" k2="-1" k3="1"/>
<feColorMatrix type="matrix" values="0 0 0 0 1 0 0 0 0 1 0 0 0 0 1 0 0 0 0.15 0"/>
<feBlend mode="overlay" in2="effect1_innerShadow_1430_6142" result="effect2_innerShadow_1430_6142"/>
</filter>
<linearGradient id="paint0_linear_1430_6142" x1="25.5" y1="0" x2="2.33967" y2="47.1908" gradientUnits="userSpaceOnUse">
<stop stop-color="#E5457D"/>
<stop offset="1" stop-color="#E1437B"/>
</linearGradient>
<linearGradient id="paint1_linear_1430_6142" x1="25.5" y1="0" x2="25.5" y2="51" gradientUnits="userSpaceOnUse">
<stop stop-color="#3CAC97"/>
<stop offset="1" stop-color="#3DB199"/>
</linearGradient>
<linearGradient id="paint2_linear_1430_6142" x1="2.33967" y1="11.354" x2="44.7661" y2="51" gradientUnits="userSpaceOnUse">
<stop stop-color="#F5782E"/>
<stop offset="1" stop-color="#DD8421"/>
</linearGradient>
<linearGradient id="paint3_linear_1430_6142" x1="25.5" y1="0" x2="25.5" y2="51" gradientUnits="userSpaceOnUse">
<stop stop-color="#EF4750"/>
<stop offset="1" stop-color="#ED6032"/>
</linearGradient>
<linearGradient id="paint4_linear_1430_6142" x1="1.97427e-07" y1="32.9271" x2="51" y2="32.9271" gradientUnits="userSpaceOnUse">
<stop stop-color="#AC2994"/>
<stop offset="1" stop-color="#6161AA"/>
</linearGradient>
<linearGradient id="paint5_linear_1430_6142" x1="51" y1="22.7535" x2="0.000743166" y2="23.1624" gradientUnits="userSpaceOnUse">
<stop stop-color="#63C591"/>
<stop offset="0.274038" stop-color="#6CC163"/>
<stop offset="1" stop-color="#989B26"/>
</linearGradient>
<linearGradient id="paint6_linear_1430_6142" x1="25.5" y1="0" x2="2.33967" y2="47.1908" gradientUnits="userSpaceOnUse">
<stop stop-color="#E5457D"/>
<stop offset="1" stop-color="#E1437B"/>
</linearGradient>
<linearGradient id="paint7_linear_1430_6142" x1="25.5" y1="0" x2="25.5" y2="51" gradientUnits="userSpaceOnUse">
<stop stop-color="#3CAC97"/>
<stop offset="1" stop-color="#3DB199"/>
</linearGradient>
<linearGradient id="paint8_linear_1430_6142" x1="2.33967" y1="11.354" x2="44.7661" y2="51" gradientUnits="userSpaceOnUse">
<stop stop-color="#F5782E"/>
<stop offset="1" stop-color="#DD8421"/>
</linearGradient>
<linearGradient id="paint9_linear_1430_6142" x1="25.5" y1="0" x2="25.5" y2="51" gradientUnits="userSpaceOnUse">
<stop stop-color="#EF4750"/>
<stop offset="1" stop-color="#ED6032"/>
</linearGradient>
<linearGradient id="paint10_linear_1430_6142" x1="1.97427e-07" y1="32.9271" x2="51" y2="32.9271" gradientUnits="userSpaceOnUse">
<stop stop-color="#AC2994"/>
<stop offset="1" stop-color="#6161AA"/>
</linearGradient>
<linearGradient id="paint11_linear_1430_6142" x1="51" y1="22.7535" x2="0.000743166" y2="23.1624" gradientUnits="userSpaceOnUse">
<stop stop-color="#63C591"/>
<stop offset="0.274038" stop-color="#6CC163"/>
<stop offset="1" stop-color="#989B26"/>
</linearGradient>
</defs>
</svg>
