<svg width="331" height="331" viewBox="0 0 331 331" fill="none" xmlns="http://www.w3.org/2000/svg">
<g clip-path="url(#clip0_2869_8330)">
<path d="M331 165.5C331 256.903 256.903 331 165.5 331C74.0969 331 0 256.903 0 165.5C0 74.0969 74.0969 0 165.5 0C256.903 0 331 74.0969 331 165.5Z" fill="#FFD786" fill-opacity="0.5"/>
<path d="M331 165.5C331 256.903 256.903 331 165.5 331C74.0969 331 0 256.903 0 165.5C0 74.0969 74.0969 0 165.5 0C256.903 0 331 74.0969 331 165.5Z" fill="url(#paint0_linear_2869_8330)" fill-opacity="0.5" style="mix-blend-mode:overlay"/>
<path d="M264.071 91.4674C263.586 91.4549 263.103 91.4553 262.623 91.4678C254.455 91.5967 251.845 85.3725 251.152 83.0217C248.442 71.2962 238.346 62.5397 225.779 62.2144C217.015 61.9879 208.946 65.9119 203.46 72.2228L203.459 72.2227L203.443 72.2419C203.166 72.5606 202.897 72.885 202.633 73.2157C196.745 80.0303 192.193 79.281 190.77 78.8033C190.617 78.739 190.464 78.6762 190.309 78.6144L190.303 78.6113L190.303 78.6119C187.445 77.4742 184.332 76.8129 181.05 76.7281C172.858 76.5163 165.274 79.9312 159.838 85.5317C147.333 96.1291 148.901 112.75 148.901 112.75C148.904 112.747 148.908 112.745 148.911 112.743C148.737 114.916 148.71 117.141 148.863 119.406C150.02 136.554 160.556 150.318 173.778 153.54C173.771 153.547 173.76 153.551 173.753 153.559C173.548 153.779 173.548 154.019 173.894 154.082C174.145 154.127 174.399 154.155 174.652 154.194L178.507 161.186C172.355 159.114 163.801 158.194 154.449 158.941C148.388 159.426 140.641 160.316 133.049 161.561C129.62 161.976 126.076 162.623 122.663 163.37L122.747 160.709C123.038 160.662 123.381 160.553 123.47 160.324C123.503 160.239 123.504 160.17 123.49 160.11C125.348 160.126 127.216 159.903 129.063 159.401C142.303 155.805 149.464 139.732 145.056 123.502C144.844 122.722 144.603 121.961 144.347 121.21C144.349 121.211 144.352 121.212 144.354 121.213C144.354 121.213 143.462 100.379 119.511 97.7681C107.65 96.4749 100.803 102.227 96.9115 108.362C93.3332 107.298 89.3372 107.939 86.0093 110.149L85.9989 110.143C85.9989 110.143 85.9523 110.178 85.8826 110.228C85.818 110.272 85.7525 110.314 85.6882 110.359C84.7318 110.977 81.683 112.564 78.8473 109.862L78.8382 109.877C78.6833 109.728 78.5389 109.572 78.3752 109.431C72.9673 104.762 64.6465 105.839 59.7904 111.838C57.903 114.169 56.8271 116.9 56.5213 119.643L56.5126 119.636C56.0676 122.957 53.891 123.821 53.1303 124.023L53.0011 124.055C52.914 124.075 52.8645 124.081 52.8645 124.081L52.8701 124.09C49.627 124.835 46.5655 126.82 44.4229 129.91C40.0285 136.248 41.1546 144.793 46.9367 148.996C47.8991 149.695 48.9335 150.216 50.003 150.592L49.9958 150.606C49.9958 150.606 53.8979 151.682 54.8445 158.089C54.8553 158.164 54.8811 158.231 54.8975 158.304C55.53 161.369 57.1813 164.156 59.7918 166.054C63.9369 169.066 69.3429 169.016 73.6941 166.421L73.6909 166.44C73.6909 166.44 77.9773 163.458 81.7513 166.604L81.761 166.593C81.8661 166.675 81.9615 166.766 82.0698 166.844C84.9501 168.938 88.442 169.558 91.7652 168.871L91.2757 173.177C91.2757 173.177 91.3246 173.251 91.4216 173.383C78.5705 179.121 58.8262 190.499 61.1487 205.503C64.5611 227.548 76.5013 264.492 89.1614 264.533C95.445 264.554 115.067 263.559 133.196 260.6C133.697 260.993 134.231 261.244 134.795 261.34L134.79 261.384C134.79 261.384 134.831 261.39 134.891 261.399C134.829 261.691 134.95 262.002 135.304 262.085C136.005 262.249 136.71 262.396 137.414 262.545C147.023 270.635 181.422 270.474 208.595 268.728C209.058 268.713 209.502 268.695 209.919 268.67C210.117 268.659 210.315 268.645 210.513 268.63C210.548 268.627 210.587 268.625 210.622 268.622V268.62C210.932 268.595 211.24 268.567 211.548 268.53C225.109 267.585 236.486 266.293 241.426 265.536C257.845 263.019 266.131 218.999 266.258 193.456C266.331 178.651 243.761 171.081 224.769 167.33C224.769 167.329 224.77 167.328 224.77 167.328C224.695 167.313 224.621 167.3 224.546 167.285C223.913 167.161 223.283 167.04 222.659 166.924C222.478 166.891 222.297 166.857 222.117 166.824C221.842 166.773 221.568 166.725 221.295 166.676C221.115 166.644 220.935 166.612 220.756 166.58C220.558 166.545 220.36 166.51 220.163 166.477L218.6 159.349C224.57 159.006 230.127 156.755 234.645 153.172C234.834 153.035 235.018 152.887 235.197 152.726L235.242 152.686C235.545 152.433 235.842 152.174 236.135 151.909C244.546 144.839 251.351 146.151 252.943 146.598C253.059 146.636 253.176 146.672 253.292 146.708L253.297 146.71V146.709C255.602 147.424 258.05 147.839 260.6 147.905C275.939 148.301 289.151 135.989 290.109 120.404C291.068 104.819 279.41 91.8639 264.071 91.4674Z" fill="#F9C7C3"/>
<path d="M224.548 167.284C223.914 167.16 223.284 167.04 222.66 166.924C223.284 167.04 223.914 167.16 224.548 167.284Z" fill="#B19C33"/>
<path d="M224.547 167.283C224.621 167.298 224.696 167.314 224.77 167.328C224.77 167.327 224.77 167.327 224.771 167.326C224.695 167.311 224.622 167.298 224.547 167.283Z" fill="#B19C33"/>
<path d="M224.769 167.329C223.452 170.253 221.764 173.154 219.687 175.932C218.804 177.113 217.877 178.23 216.92 179.291C217.09 179.37 217.237 179.473 217.353 179.607C218.063 180.426 217.588 182.162 216.214 184.422C215.78 185.06 215.321 185.737 214.836 186.456C214.037 187.54 213.089 188.699 212.008 189.906C212.239 189.976 212.314 190.146 212.23 190.325C212.236 190.323 212.243 190.32 212.25 190.317C209.535 194.403 206.393 199.232 203.238 204.296C202.527 202.336 201.651 200.295 200.613 198.234C195.899 188.869 189.556 182.39 185.838 182.9C185.542 182.941 185.261 183.02 185.001 183.151C183.136 184.023 181.343 184.865 179.589 185.691C175.399 180.4 174.474 172.4 176.732 164.021C177.288 164 177.824 163.985 178.37 163.968C178.918 163.95 179.476 163.93 180.012 163.915L180.012 163.915L178.507 161.186C172.356 159.113 163.802 158.194 154.449 158.941C148.388 159.425 140.641 160.316 133.049 161.56C129.62 161.976 126.077 162.622 122.663 163.37L122.478 169.248C126.487 173.166 139.427 187.36 112.673 183.998C98.5105 182.218 92.4041 174.715 91.4216 173.382C78.5705 179.121 58.8262 190.498 61.1487 205.502C64.5611 227.547 76.5013 264.492 89.1614 264.533C95.445 264.553 115.067 263.559 133.196 260.6C133.697 260.993 134.231 261.243 134.795 261.34L134.79 261.384C134.79 261.384 134.831 261.389 134.891 261.398C134.829 261.691 134.95 262.001 135.305 262.084C136.005 262.249 136.71 262.395 137.414 262.544C147.023 270.634 181.422 270.474 208.595 268.727C209.058 268.713 209.502 268.694 209.919 268.669C210.118 268.659 210.315 268.644 210.513 268.629C210.548 268.626 210.587 268.624 210.622 268.622V268.619C210.932 268.594 211.241 268.567 211.548 268.53C225.109 267.585 236.486 266.292 241.426 265.535C257.845 263.019 266.131 218.999 266.258 193.456C266.331 178.65 243.761 171.08 224.769 167.329ZM119.108 247.716C108.057 247.75 99.0928 245.639 99.0845 242.999C99.0805 241.719 101.186 240.552 104.611 239.683C104.363 239.609 104.322 239.402 104.452 239.211C97.6359 237.616 93.1048 235.393 93.3126 233.394C93.3717 232.827 93.8152 232.322 94.5693 231.884C94.7603 231.949 94.9513 232.014 95.1423 232.079C95.7163 232.274 96.7213 231.546 96.2339 231.176C97.3099 230.833 98.6528 230.559 100.207 230.359C100.258 230.246 100.414 230.125 100.5 230.077C100.634 230.002 100.793 229.945 100.956 229.908C96.1741 228.219 93.2376 226.294 93.4819 224.663C93.7499 222.875 97.7773 221.868 103.68 221.8C103.691 221.664 103.793 221.524 103.944 221.406C100.615 219.659 98.7135 217.866 99.0426 216.447C99.697 213.625 108.901 213.35 119.602 215.832C124.753 217.027 129.308 218.643 132.578 220.312C130.891 224.452 129.572 229.863 128.949 235.852C128.531 239.866 128.475 243.688 128.722 247.098C125.869 247.481 122.593 247.705 119.108 247.716Z" fill="#B19C33"/>
<path d="M220.757 166.578C220.559 166.543 220.361 166.509 220.164 166.475L220.164 166.475C220.361 166.509 220.558 166.543 220.757 166.578Z" fill="#B19C33"/>
<path d="M221.293 166.674C221.566 166.722 221.839 166.771 222.114 166.822C221.839 166.771 221.566 166.723 221.293 166.674Z" fill="#B19C33"/>
<path d="M217.352 179.606C217.237 179.473 217.09 179.37 216.919 179.29C215.785 178.763 213.475 179.412 210.525 180.957C210.426 180.914 210.29 180.898 210.2 180.9C210.065 180.902 209.902 180.929 209.741 180.974C212.449 177.178 213.64 174.18 212.594 173.078C211.446 171.868 207.875 173.23 203.381 176.291C203.274 176.183 203.106 176.111 202.97 176.096C202.97 176.096 202.969 176.097 202.968 176.096C204.54 173.037 205.018 170.694 204.023 169.799C202.031 168.007 194.908 172.679 188.113 180.234C187.311 181.126 186.553 182.017 185.837 182.9C185.541 182.941 185.261 183.02 185 183.151C183.135 184.023 181.343 184.865 179.588 185.691C173.051 188.768 167.275 191.523 162.21 193.966C162.128 193.777 161.91 193.655 161.581 193.703C159.063 182.3 155.82 171.995 151.828 166.233C160.751 164.775 171.205 164.155 180.011 163.915L178.506 161.185C172.355 159.113 163.801 158.194 154.449 158.941C148.388 159.425 140.64 160.316 133.049 161.56C129.619 161.976 126.076 162.622 122.663 163.37L122.747 160.708C123.037 160.662 123.381 160.552 123.47 160.323C123.503 160.238 123.504 160.169 123.489 160.11C125.348 160.125 127.216 159.902 129.062 159.401C142.303 155.805 149.464 139.732 145.055 123.501C144.844 122.722 144.603 121.961 144.346 121.21C144.349 121.21 144.351 121.212 144.354 121.212C144.354 121.212 143.462 100.379 119.511 97.7675C107.649 96.4744 100.803 102.226 96.9113 108.362C93.333 107.297 89.3371 107.939 86.0091 110.148L85.9987 110.143C85.9987 110.143 85.9521 110.178 85.8824 110.228C85.8178 110.272 85.7523 110.313 85.688 110.358C84.7316 110.977 81.683 112.564 78.8472 109.861L78.838 109.876C78.6831 109.728 78.5387 109.571 78.375 109.43C72.9671 104.761 64.6463 105.838 59.7902 111.837C57.9028 114.168 56.8269 116.899 56.5211 119.642L56.5124 119.635C56.0676 122.957 53.891 123.82 53.1302 124.023L53.001 124.055C52.9139 124.074 52.8644 124.08 52.8644 124.08L52.8701 124.089C49.6269 124.834 46.5654 126.819 44.4229 129.91C40.0286 136.247 41.1545 144.792 46.9367 148.996C47.899 149.695 48.9335 150.215 50.003 150.592L49.9958 150.605C49.9958 150.605 53.8977 151.681 54.8443 158.088C54.8551 158.164 54.8809 158.23 54.8971 158.303C55.5298 161.369 57.1809 164.155 59.7916 166.053C63.9367 169.065 69.3427 169.015 73.6938 166.42L73.6905 166.44C73.6905 166.44 77.9768 163.458 81.751 166.603L81.7607 166.593C81.8659 166.674 81.9612 166.765 82.0695 166.844C84.9497 168.937 88.4417 169.557 91.7649 168.87L91.2753 173.177C91.2753 173.177 91.3242 173.25 91.4212 173.382C78.5701 179.12 58.8258 190.498 61.1484 205.502C64.5608 227.547 76.5009 264.491 89.161 264.532C95.4446 264.553 115.067 263.558 133.196 260.599C130.818 258.732 129.199 253.691 128.721 247.098C125.868 247.481 122.593 247.705 119.107 247.716C108.057 247.751 99.0923 245.639 99.0839 242.999C99.08 241.72 101.186 240.552 104.61 239.684C104.363 239.609 104.322 239.402 104.452 239.211C97.6354 237.616 93.1043 235.393 93.3121 233.394C93.3712 232.827 93.8147 232.322 94.5688 231.884C94.7598 231.949 94.9508 232.014 95.1418 232.079C95.7158 232.275 96.7208 231.546 96.2334 231.176C97.3094 230.833 98.6523 230.559 100.206 230.359C100.257 230.246 100.414 230.125 100.499 230.077C100.633 230.003 100.792 229.946 100.956 229.908C96.1736 228.22 93.237 226.294 93.4813 224.663C93.7494 222.875 97.7768 221.869 103.679 221.8C103.69 221.664 103.793 221.524 103.943 221.407C100.614 219.659 98.713 217.866 99.0421 216.447C99.6965 213.626 108.901 213.35 119.601 215.832C124.753 217.027 129.308 218.643 132.577 220.313C134.721 215.052 137.459 211.845 140.12 212.122C165.24 214.007 182.856 215.635 194.222 216.795C194.331 216.55 194.578 216.326 194.763 216.234C195.183 216.026 195.672 216.045 196.035 216.323C198.31 212.335 200.776 208.246 203.237 204.296C206.392 199.232 209.535 194.403 212.25 190.317C212.243 190.32 212.236 190.322 212.229 190.325C212.313 190.146 212.239 189.976 212.008 189.906C213.089 188.699 214.036 187.54 214.835 186.456C215.32 185.737 215.779 185.06 216.213 184.422C217.588 182.162 218.063 180.426 217.352 179.606Z" fill="#EF7C59"/>
<path d="M200.613 198.234C195.899 188.869 189.556 182.39 185.838 182.9C185.542 182.941 185.261 183.02 185.001 183.151C183.136 184.023 181.343 184.865 179.589 185.691C173.052 188.769 167.275 191.524 162.211 193.966C162.129 193.777 161.91 193.655 161.582 193.703C159.064 182.3 155.821 171.995 151.828 166.233C160.752 164.775 171.206 164.155 180.012 163.915L178.507 161.186C172.356 159.113 163.802 158.194 154.449 158.941C148.388 159.425 140.641 160.316 133.049 161.56C129.62 161.976 126.077 162.622 122.663 163.37L122.478 169.248C126.487 173.166 139.427 187.36 112.673 183.998C98.5105 182.218 92.4041 174.715 91.4216 173.382C78.5705 179.121 58.8262 190.498 61.1487 205.502C64.5611 227.547 76.5013 264.492 89.1614 264.533C95.445 264.553 115.067 263.559 133.196 260.6C130.818 258.732 129.199 253.691 128.722 247.098C125.869 247.482 122.593 247.705 119.108 247.716C108.057 247.751 99.0926 245.639 99.0843 242.999C99.0803 241.72 101.186 240.553 104.61 239.684C104.363 239.609 104.322 239.402 104.452 239.211C97.6358 237.617 93.1047 235.393 93.3125 233.395C93.3716 232.827 93.8151 232.322 94.5692 231.884C94.7602 231.949 94.9512 232.014 95.1422 232.08C95.7162 232.275 96.7212 231.546 96.2337 231.176C97.3098 230.833 98.6527 230.559 100.207 230.36C100.258 230.246 100.414 230.126 100.499 230.078C100.634 230.003 100.792 229.946 100.956 229.909C96.1739 228.22 93.2374 226.294 93.4817 224.664C93.7498 222.876 97.7771 221.869 103.68 221.8C103.69 221.664 103.793 221.524 103.944 221.407C100.615 219.659 98.7133 217.867 99.0425 216.448C99.6969 213.626 108.901 213.351 119.601 215.832C124.753 217.027 129.308 218.643 132.578 220.313C134.722 215.052 137.459 211.845 140.12 212.122C165.241 214.007 182.856 215.635 194.223 216.795C194.332 216.55 194.579 216.326 194.764 216.234C195.184 216.027 195.672 216.046 196.036 216.323C198.31 212.336 200.776 208.246 203.238 204.296C202.526 202.336 201.651 200.296 200.613 198.234Z" fill="#9493C8"/>
<path d="M88.3213 131.629C86.7028 126.409 88.5041 121.212 92.3444 120.021C95.6274 119.003 99.3319 121.249 101.351 125.181C104.365 125.289 118.966 124.829 130.136 106.972C130.136 106.972 137.317 118.986 144.346 121.21C144.349 121.21 144.351 121.211 144.354 121.212C144.354 121.212 143.462 100.379 119.511 97.7675C107.649 96.4744 100.803 102.226 96.9113 108.362C93.333 107.297 89.3371 107.939 86.0091 110.148L85.9987 110.143C85.9987 110.143 85.9521 110.178 85.8824 110.228C85.8178 110.272 85.7523 110.313 85.688 110.359C84.7316 110.977 81.6828 112.564 78.8471 109.861L78.838 109.876C78.6831 109.728 78.5387 109.572 78.375 109.43C72.9671 104.761 64.6463 105.838 59.7902 111.837C57.9028 114.168 56.8269 116.9 56.5211 119.642L56.5124 119.636C56.0676 122.957 53.891 123.82 53.1302 124.023L53.001 124.055C52.9139 124.074 52.8644 124.081 52.8644 124.081L52.8701 124.089C49.6269 124.834 46.5654 126.819 44.4229 129.91C40.0286 136.247 41.1545 144.792 46.9367 148.996C47.899 149.695 48.9335 150.215 50.003 150.592L49.9958 150.605C49.9958 150.605 53.8977 151.681 54.8443 158.088C54.8551 158.164 54.8809 158.231 54.8971 158.303C55.5298 161.369 57.1809 164.155 59.7914 166.053C63.9366 169.065 69.3425 169.016 73.6938 166.42L73.6905 166.44C73.6905 166.44 77.9769 163.458 81.751 166.603L81.7607 166.593C81.8657 166.674 81.9612 166.765 82.0695 166.844C84.9497 168.937 88.4417 169.557 91.7649 168.871L95.1619 138.991C92.2607 138.286 89.5204 135.497 88.3213 131.629Z" fill="#561419"/>
<path d="M264.072 91.4674C263.588 91.4549 263.105 91.4553 262.625 91.4678C254.457 91.5967 251.847 85.3725 251.154 83.0217C248.443 71.2962 238.348 62.5397 225.781 62.2144C217.016 61.9879 208.948 65.9119 203.461 72.2228L203.46 72.2227L203.445 72.2419C203.168 72.5606 202.898 72.885 202.635 73.2157C196.747 80.0303 192.195 79.281 190.772 78.8033C190.618 78.739 190.465 78.6762 190.311 78.6144L190.305 78.6113L190.304 78.6119C187.447 77.4742 184.334 76.8129 181.052 76.7281C172.859 76.5163 165.276 79.9312 159.84 85.5317C147.335 96.1291 148.903 112.75 148.903 112.75C148.906 112.747 148.909 112.745 148.913 112.743C156.737 107.802 163.802 100.802 167.484 92.3125C176.258 98.0163 186.962 100.676 197.385 99.7914C197.415 99.29 197.461 98.7846 197.534 98.2742C198.593 90.8234 203.895 85.4149 209.376 86.194C214.858 86.9729 218.443 93.6445 217.384 101.095C216.532 107.088 212.934 111.753 208.707 112.946C208.798 113.706 208.877 114.471 208.931 115.245L218.602 159.349C224.571 159.006 230.128 156.755 234.646 153.172C234.835 153.035 235.02 152.887 235.199 152.726L235.243 152.686C235.546 152.433 235.844 152.173 236.137 151.908C244.548 144.838 251.352 146.151 252.945 146.598C253.061 146.635 253.177 146.671 253.294 146.708L253.298 146.709V146.709C255.604 147.424 258.051 147.838 260.601 147.904C275.941 148.3 289.152 135.988 290.111 120.404C291.07 104.819 279.412 91.8639 264.072 91.4674Z" fill="#ED6C35"/>
<path d="M174.567 117.622C174.875 118.314 175.246 118.997 175.828 119.498C177.042 120.545 178.769 120.171 179.732 118.982C180.817 117.64 181.184 115.647 181.525 114.002C182.008 111.674 182.17 109.293 182.032 106.919C181.984 106.094 180.435 106.312 180.476 107.024C180.607 109.28 180.469 111.543 180.038 113.763C179.826 114.857 179.553 115.943 179.19 116.997C178.978 117.611 178.642 118.612 177.991 118.899C177.272 119.216 176.626 118.197 176.342 117.692C175.85 116.82 175.527 115.826 175.197 114.883C174.453 112.756 173.907 110.566 173.544 108.343C173.424 107.607 171.887 107.995 172.011 108.753C172.342 110.785 172.826 112.789 173.476 114.743C173.8 115.714 174.151 116.685 174.567 117.622Z" fill="#561419"/>
<path d="M156.375 125.225C156.683 125.918 157.054 126.6 157.636 127.102C158.85 128.148 160.578 127.775 161.54 126.586C162.626 125.243 162.992 123.251 163.334 121.606C163.817 119.277 163.979 116.896 163.841 114.523C163.793 113.697 162.243 113.915 162.284 114.628C162.416 116.884 162.277 119.147 161.847 121.367C161.635 122.46 161.361 123.547 160.998 124.6C160.787 125.214 160.45 126.216 159.799 126.503C159.08 126.819 158.434 125.8 158.15 125.296C157.659 124.423 157.336 123.429 157.006 122.486C156.262 120.359 155.715 118.17 155.353 115.946C155.232 115.21 153.696 115.599 153.82 116.357C154.151 118.389 154.635 120.392 155.285 122.346C155.608 123.318 155.959 124.289 156.375 125.225Z" fill="#561419"/>
<path d="M167.191 131.125C166.687 130.766 166.11 130.428 165.687 129.969C165.161 129.398 165.137 128.729 165.306 128C165.634 126.579 166.146 125.179 166.566 123.783C166.996 122.354 167.426 120.926 167.856 119.497C167.942 119.211 166.461 119.386 166.345 119.772C165.889 121.289 165.432 122.807 164.975 124.325C164.542 125.764 163.914 127.261 163.7 128.752C163.513 130.058 164.442 130.713 165.394 131.392C166.762 132.368 168.131 133.345 169.499 134.321C169.841 134.565 171.15 133.949 170.945 133.803C169.694 132.91 168.443 132.018 167.191 131.125Z" fill="#561419"/>
<path d="M187.311 134.554C189.478 131.984 190.244 128.412 189.357 125.175C189.173 124.506 187.64 124.916 187.824 125.586C188.589 128.379 188.071 131.532 186.283 133.843C184.568 136.06 181.83 137.392 179.019 137.293C178.665 137.28 178.184 137.394 178.018 137.751C177.867 138.076 178.152 138.343 178.475 138.354C181.797 138.472 185.149 137.116 187.311 134.554Z" fill="#561419"/>
<path d="M202.662 109.748C202.876 110.336 204.399 109.897 204.195 109.337C203.018 106.105 202.839 102.66 203.582 99.423C206.465 100.513 208.788 102.929 209.743 105.875C209.861 106.24 211.384 105.8 211.275 105.465C210.173 102.059 207.28 99.3866 203.822 98.498C204.537 96.0221 205.8 93.695 207.604 91.7199C208.226 91.0387 206.743 90.9793 206.357 91.4016C201.822 96.3669 200.352 103.406 202.662 109.748Z" fill="#561419"/>
<path d="M189.244 152.66C192.036 151.539 194.713 149.799 197.006 147.874C199.637 145.665 201.857 142.997 203.613 140.048C203.97 139.449 202.441 139.608 202.189 140.03C200.729 142.481 198.96 144.738 196.867 146.683C195.777 147.695 194.611 148.628 193.37 149.449C192.998 149.696 192.615 149.927 192.242 150.174C192.097 150.27 192.372 150.088 192.183 150.216C189.789 151.834 186.949 152.849 184.118 153.351C181.039 153.897 177.909 153.827 174.837 153.268C174.511 153.208 174.027 153.297 173.778 153.54C173.771 153.547 173.76 153.551 173.753 153.558C173.548 153.778 173.548 154.018 173.893 154.081C174.145 154.127 174.399 154.155 174.652 154.194C179.56 154.959 184.616 154.517 189.244 152.66Z" fill="#561419"/>
<path d="M192.244 118.016C194.918 115.882 196.166 113.001 195.032 111.58C193.898 110.159 190.812 110.736 188.137 112.87C185.463 115.004 184.214 117.886 185.348 119.307C186.482 120.728 189.569 120.15 192.244 118.016Z" fill="#F4A19D"/>
<path d="M157.366 132.817C155.432 134.36 154.53 136.443 155.35 137.471C156.169 138.498 158.401 138.08 160.335 136.537C162.268 134.994 163.171 132.911 162.352 131.883C161.532 130.856 159.3 131.274 157.366 132.817Z" fill="#F4A19D"/>
<path d="M132.957 129.899C133.339 130.698 133.779 131.571 134.396 132.216C134.733 132.568 135.131 132.841 135.626 132.901C136.164 132.966 136.713 132.769 137.097 132.392C137.729 131.771 137.743 130.767 137.787 129.941C137.85 128.764 137.793 127.582 137.639 126.414C137.589 126.031 137.003 125.997 136.726 126.071C136.374 126.165 136.055 126.437 136.106 126.824C136.249 127.911 136.289 129.007 136.228 130.101C136.204 130.528 136.194 131.028 136.085 131.423C136.066 131.494 136.038 131.565 136.009 131.632C136.001 131.65 135.996 131.661 135.991 131.673L135.914 131.626C135.836 131.566 135.77 131.502 135.705 131.43C135.56 131.269 135.438 131.086 135.318 130.907C135.039 130.492 134.785 130.062 134.558 129.618C134.11 128.746 133.786 127.811 133.559 126.859C133.383 126.123 131.849 126.526 132.026 127.269C132.242 128.178 132.555 129.056 132.957 129.899Z" fill="#561419"/>
<path d="M116.839 130.549C117.547 131.378 118.69 131.827 119.671 131.139C120.441 130.599 120.527 129.582 120.612 128.725C120.736 127.478 120.707 126.223 120.569 124.978C120.526 124.594 119.926 124.562 119.655 124.635C119.297 124.731 118.992 125 119.036 125.389C119.165 126.55 119.17 127.724 119.05 128.886C119.007 129.312 118.985 129.787 118.816 130.172C118.791 130.228 118.772 130.254 118.756 130.276C118.715 130.257 118.672 130.241 118.634 130.217C118.236 129.963 117.975 129.528 117.728 129.139C117.442 128.689 117.178 128.225 116.943 127.747C116.479 126.801 116.135 125.794 115.905 124.766C115.74 124.029 114.205 124.43 114.372 125.176C114.587 126.137 114.904 127.07 115.317 127.963C115.729 128.853 116.198 129.798 116.839 130.549ZM118.823 130.305C118.827 130.308 118.824 130.31 118.832 130.312C118.828 130.311 118.825 130.308 118.821 130.307C118.822 130.306 118.822 130.306 118.823 130.305ZM118.701 130.359L118.703 130.358C118.671 130.395 118.665 130.402 118.701 130.359Z" fill="#561419"/>
<path d="M123.058 159.891C116.114 160.081 109.62 156.584 105.209 151.323C104.88 150.931 103.409 151.47 103.783 151.916C108.391 157.411 115.226 160.934 122.456 160.737C122.533 160.735 122.636 160.726 122.746 160.708C123.036 160.662 123.38 160.552 123.469 160.323C123.502 160.238 123.503 160.169 123.488 160.11C123.451 159.958 123.282 159.885 123.058 159.891Z" fill="#561419"/>
<path d="M104.922 135.265C104.915 136.765 107.198 137.992 110.021 138.005C112.844 138.018 115.138 136.812 115.145 135.312C115.152 133.812 112.869 132.585 110.046 132.572C107.223 132.559 104.929 133.765 104.922 135.265Z" fill="#F5ACAF"/>
<path d="M135.036 136.086C134.897 137.162 136.425 138.246 138.45 138.507C140.474 138.769 142.228 138.109 142.367 137.033C142.506 135.958 140.978 134.873 138.953 134.612C136.929 134.35 135.175 135.01 135.036 136.086Z" fill="#F5ACAF"/>
<path d="M204.757 186.034C203.214 187.546 201.628 189.034 199.919 190.359C199.676 190.547 199.74 190.736 200.033 190.784C200.371 190.84 200.847 190.703 201.117 190.494C202.861 189.142 204.483 187.623 206.059 186.083C207.638 184.541 209.194 182.954 210.584 181.238C210.701 181.093 210.637 181.007 210.524 180.958C210.425 180.914 210.289 180.899 210.199 180.9C210.064 180.903 209.901 180.93 209.74 180.975C209.519 181.036 209.304 181.136 209.179 181.289C207.818 182.968 206.299 184.523 204.757 186.034Z" fill="#561419"/>
<path d="M210.898 190.184C208.765 192.357 206.365 194.236 203.742 195.782C203.506 195.921 203.314 196.236 203.616 196.413C203.93 196.597 204.42 196.445 204.704 196.278C207.421 194.677 209.927 192.72 212.136 190.469C212.182 190.422 212.208 190.374 212.231 190.326C212.315 190.147 212.24 189.977 212.009 189.907C211.998 189.903 211.993 189.896 211.982 189.893C211.642 189.81 211.147 189.929 210.898 190.184Z" fill="#561419"/>
<path d="M201.97 176.556C200.424 178.862 198.52 180.934 196.357 182.673C196.119 182.864 195.944 183.211 196.264 183.424C196.565 183.625 197.088 183.539 197.36 183.32C199.711 181.43 201.748 179.206 203.427 176.701C203.534 176.543 203.488 176.4 203.382 176.292C203.275 176.184 203.107 176.112 202.971 176.098C202.97 176.098 202.97 176.098 202.969 176.098C202.578 176.057 202.187 176.233 201.97 176.556Z" fill="#561419"/>
<path d="M100.333 230.562C102.613 231.215 104.959 231.659 107.297 232.049C109.66 232.443 112.047 232.786 114.441 232.905C114.782 232.922 115.263 232.862 115.525 232.615C115.716 232.434 115.761 232.207 115.411 232.189C113.087 232.074 110.771 231.745 108.477 231.368C106.159 230.986 103.836 230.55 101.575 229.904C101.382 229.849 101.164 229.86 100.954 229.908C100.79 229.945 100.632 230.002 100.497 230.077C100.412 230.125 100.255 230.246 100.204 230.359C100.167 230.441 100.184 230.52 100.333 230.562Z" fill="#561419"/>
<path d="M115.021 240.252C115.304 240.23 115.835 240.048 115.888 239.715C115.944 239.359 115.444 239.34 115.218 239.358C112.001 239.607 108.762 239.429 105.589 238.839C105.232 238.773 104.769 238.863 104.505 239.13C104.48 239.156 104.47 239.184 104.451 239.211C104.321 239.402 104.362 239.609 104.609 239.684C104.628 239.69 104.638 239.702 104.66 239.706C108.079 240.341 111.554 240.52 115.021 240.252Z" fill="#561419"/>
<path d="M104 222.171C106.974 223.32 110.114 224.014 113.295 224.228C113.647 224.252 114.134 224.12 114.296 223.77C114.451 223.437 114.16 223.188 113.84 223.166C110.77 222.959 107.767 222.29 104.897 221.18C104.612 221.07 104.209 221.202 103.945 221.408C103.794 221.525 103.692 221.665 103.681 221.801C103.669 221.942 103.756 222.076 104 222.171Z" fill="#561419"/>
<path d="M261.235 204.574C256.814 214.421 251.804 224 246.216 233.236C243.466 237.782 240.579 242.246 237.561 246.62C234.597 250.914 231.588 255.254 227.954 259.016C224.143 262.961 219.374 266.325 213.864 267.236C213.57 267.285 212.71 267.48 212.692 267.888C212.673 268.31 213.258 268.302 213.555 268.253C224.295 266.478 231.435 257.924 237.395 249.535C243.831 240.474 249.69 231.008 254.946 221.215C257.921 215.673 260.694 210.024 263.271 204.286C263.512 203.748 261.514 203.954 261.235 204.574Z" fill="#561419"/>
<path d="M189.202 268.496C192.577 268.746 195.961 269.009 199.345 269.088C199.823 269.099 200.47 268.963 200.676 268.46C200.854 268.025 200.513 267.603 200.05 267.592C192.778 267.423 185.493 266.688 178.252 266.034C168.359 265.141 158.466 264.128 148.624 262.766C144.571 262.205 140.445 261.629 136.481 260.7C135.981 260.582 135.382 260.66 135.036 261.087C134.962 261.179 134.914 261.288 134.89 261.399C134.829 261.691 134.95 262.002 135.304 262.085C136.004 262.249 136.709 262.396 137.413 262.545C144.9 264.132 152.596 264.928 160.182 265.78C169.836 266.864 179.514 267.776 189.202 268.496Z" fill="#561419"/>
<path d="M161.583 193.704C161.525 193.712 161.472 193.713 161.407 193.733C156.716 195.219 152.026 196.705 147.335 198.19C145.019 198.924 142.712 199.711 140.377 200.382C139.196 200.721 137.999 200.977 136.762 200.872C135.601 200.773 134.486 200.426 133.395 200.029C128.973 198.423 124.613 196.663 120.166 195.121C115.641 193.551 111.08 192.086 106.488 190.727C101.355 189.208 96.1832 187.823 90.9799 186.567C90.6201 186.481 90.1385 186.54 89.8959 186.858C89.7011 187.113 89.7196 187.494 90.0905 187.584C99.6213 189.884 109.045 192.623 118.318 195.806C122.887 197.375 127.392 199.099 131.904 200.82C133.977 201.611 136.122 202.223 138.359 201.913C140.717 201.585 143.005 200.676 145.265 199.96C150.737 198.226 156.21 196.493 161.682 194.76C162.182 194.601 162.326 194.23 162.212 193.967C162.13 193.777 161.911 193.655 161.583 193.704Z" fill="#561419"/>
<path d="M96.2349 231.176C96.1837 231.138 96.1215 231.101 96.0352 231.072C88.6938 228.57 81.3524 226.068 74.011 223.566C73.377 223.35 72.2099 224.264 73.1192 224.574C80.2696 227.011 87.4201 229.447 94.5704 231.884C94.7613 231.949 94.9524 232.015 95.1434 232.08C95.7173 232.275 96.7224 231.547 96.2349 231.176Z" fill="#561419"/>
<path d="M126.325 138.985C126.476 138.003 126.804 137.072 127.311 136.218C127.557 135.804 127.838 135.417 128.162 135.061C128.381 134.819 128.782 134.33 129.101 134.274C129.185 134.29 129.264 134.334 129.331 134.385C129.494 134.508 129.621 134.7 129.721 134.875C129.975 135.321 130.143 135.836 130.283 136.327C130.589 137.396 130.692 138.504 130.589 139.611C130.523 140.313 132.075 140.057 132.131 139.455C132.227 138.426 132.167 137.379 131.934 136.371C131.82 135.88 131.666 135.397 131.472 134.931C131.3 134.518 131.102 134.075 130.768 133.766C129.901 132.96 128.589 133.284 127.733 133.941C126.965 134.529 126.329 135.325 125.842 136.156C125.305 137.071 124.943 138.093 124.782 139.141C124.678 139.826 126.233 139.588 126.325 138.985Z" fill="#561419"/>
<path d="M194.765 216.234C194.58 216.325 194.333 216.549 194.224 216.795C194.144 216.975 194.136 217.167 194.294 217.328C197.408 220.504 199.572 224.47 200.537 228.813C200.756 229.799 202.803 229.266 202.58 228.266C201.591 223.812 199.355 219.667 196.16 216.409C196.123 216.372 196.077 216.353 196.037 216.322C195.673 216.045 195.185 216.026 194.765 216.234Z" fill="#561419"/>
<path d="M135.147 257.152C135.191 257.778 137.244 257.361 137.191 256.604C136.252 243.375 138.167 230.026 142.752 217.583C142.988 216.944 140.956 217.19 140.712 217.852C136.094 230.385 134.202 243.829 135.147 257.152Z" fill="#561419"/>
<path d="M96.285 128.535C96.4613 128.392 96.6531 128.27 96.8445 128.147C97.7809 130.386 98.0728 132.886 97.5951 135.37C97.4711 136.014 99.0237 135.779 99.1345 135.203C100.052 130.435 98.26 125.512 94.4524 122.491C94.163 122.261 93.7543 122.297 93.429 122.443C93.2647 122.517 92.7448 122.885 93.0356 123.116C94.5785 124.34 95.7791 125.877 96.5947 127.587C94.2744 128.74 92.4911 130.843 92.0845 133.459C92.0421 133.731 92.5509 133.645 92.7012 133.619C92.8832 133.588 93.5577 133.453 93.5978 133.194C93.7871 131.976 94.2809 130.812 95.0246 129.829C95.3879 129.349 95.8173 128.914 96.285 128.535Z" fill="#561419"/>
<path d="M114.834 141.38C114.645 140.934 113.142 141.417 113.301 141.791C114.857 145.457 118.535 147.99 122.505 148.206C122.864 148.226 123.302 148.153 123.589 147.916C123.802 147.74 123.807 147.502 123.473 147.484C119.731 147.281 116.295 144.822 114.834 141.38Z" fill="#561419"/>
</g>
<defs>
<linearGradient id="paint0_linear_2869_8330" x1="165.5" y1="0" x2="165.5" y2="331" gradientUnits="userSpaceOnUse">
<stop stop-color="white"/>
<stop offset="1" stop-color="white" stop-opacity="0"/>
</linearGradient>
<clipPath id="clip0_2869_8330">
<rect width="331" height="331" fill="white" transform="matrix(-1 0 0 1 331 0)"/>
</clipPath>
</defs>
</svg>
