<svg width="244" height="296" viewBox="0 0 244 296" fill="none" xmlns="http://www.w3.org/2000/svg">
<path d="M123.5 243.874C190.058 243.874 244 190.143 244 123.874C244 57.6045 190.045 3.87354 123.5 3.87354C56.9549 3.87354 3 57.6045 3 123.874C3 190.143 56.9549 243.874 123.5 243.874Z" fill="#FAC686"/>
<path d="M173.18 276.904H224.83C224.83 276.904 225.99 269.174 222.31 266.414C222.31 266.414 224.16 247.354 222.31 247.354C220.46 247.354 219.32 256.764 219.32 256.764C219.32 256.764 220.01 243.904 216.11 241.844C216.11 241.844 215.79 227.374 213.19 227.144C213.19 227.144 212.28 198.204 207.76 198.204C203.24 198.204 202.33 209.214 202.33 209.214C202.33 209.214 198.65 206.694 196.82 220.254C196.82 220.254 192.23 219.794 191.31 231.514C191.31 231.514 184.35 231.974 182.89 245.754C182.89 245.754 179.8 240.694 178.32 242.544C176.85 244.374 173.21 276.924 173.21 276.924H173.2L173.18 276.904Z" fill="#B18A70"/>
<path d="M200.81 260.734C199.96 259.014 197.89 260.734 197.89 260.734C197.89 260.734 198.74 244.194 197.89 241.784C197.04 239.374 194.97 240.064 194.97 240.064C195.05 232.544 193.66 228.254 192.23 225.844C191.82 227.324 191.49 229.164 191.29 231.504C191.29 231.504 184.33 231.954 182.87 245.744C182.87 245.744 179.78 240.684 178.29 242.534C176.82 244.364 173.18 276.914 173.18 276.914H201.91C201.74 271.184 201.4 261.924 200.81 260.734Z" fill="#A21B6B"/>
<path d="M128.6 276.904H188.08C188.08 276.904 190.6 258.284 188.08 254.884C188.08 254.884 190.84 236.324 185.32 233.334C185.32 233.334 182.23 212.214 175.96 206.694C175.96 206.694 170.86 172.654 166.06 172.474C161.28 172.284 162.46 183.454 159.21 185.564C159.21 185.564 156.61 181.664 153.61 195.664C153.61 195.664 148.87 197.524 147.71 213.604C147.71 213.604 145.79 200.034 143.04 200.954C140.28 201.874 136.29 235.854 136.29 235.854C136.29 235.854 133.8 228.044 131.38 234.364C129.66 238.884 128.57 276.894 128.57 276.894H128.58L128.6 276.904Z" fill="#B18A70"/>
<path d="M155.39 245.064C153.72 235.254 148.44 239.204 148.44 239.204C148.44 239.204 147.41 226.804 146.47 226.634C145.53 226.474 144.33 231.894 144.33 231.894C144.59 222.634 141.77 214.274 140.11 210.204C138.1 220.554 136.29 235.874 136.29 235.874C136.29 235.874 133.8 228.064 131.38 234.384C129.66 238.904 128.57 276.904 128.57 276.904H156.61C163.2 262.174 155.37 245.054 155.37 245.054L155.39 245.064Z" fill="#A21B6B"/>
<path d="M115.631 145.054C127.711 149.934 124.671 187.184 127.431 193.034C130.191 198.894 139.431 206.814 138.941 231.614C138.941 231.614 143.501 233.334 143.051 249.874C143.051 249.874 150.741 256.734 143.051 276.894H92.161C92.161 276.894 84.881 239.884 89.971 236.784C95.051 233.684 96.521 225.734 96.311 215.754C96.091 205.774 92.991 187.174 101.951 186.484C101.951 186.484 105.281 155.584 109.301 155.364C109.301 155.364 111.791 143.484 115.641 145.044H115.651L115.631 145.054Z" fill="#B18A70"/>
<path d="M51.5117 70.1334C53.2317 64.3134 66.3217 55.1633 72.7017 52.5933C79.0817 50.0133 82.1817 57.2934 82.1817 57.2934C82.1817 57.2934 86.8417 71.9033 86.4817 73.9633C86.1217 76.0333 83.7217 87.2233 89.9217 95.1533C96.1217 103.093 101.122 117.533 102.212 123.403C102.672 125.813 100.852 148.493 101.152 154.643C101.452 160.793 101.292 170.273 99.5717 173.713C97.8517 177.163 92.4217 187.833 92.4217 187.833C92.4217 187.833 97.5017 197.133 98.7017 203.153C99.9017 209.173 96.4717 243.973 96.9817 246.213H23.2617C23.2617 246.213 7.76174 220.703 3.62174 208.403C3.62174 208.403 3.10174 194.543 3.62174 192.993C4.14174 191.453 16.5517 177.543 21.1917 170.363C21.1917 170.363 23.6017 154.063 22.5717 151.653C21.5417 149.243 18.0917 140.793 18.4417 135.803C18.4417 135.803 34.2917 108.693 40.4917 103.653L63.5717 90.4933C63.5717 90.4933 54.7017 84.1434 52.8517 82.0734C51.0017 80.0034 51.5117 70.1434 51.5117 70.1434V70.1134V70.1334Z" fill="#86769C"/>
<path d="M86.4697 73.9639C86.8097 71.8939 82.1697 57.2939 82.1697 57.2939C82.1697 57.2939 80.6997 53.8339 77.6797 52.5439C79.3097 53.6339 80.0597 56.434 79.9497 58.644C79.8397 60.844 77.6797 70.1539 77.6797 70.1539C77.6797 70.1539 81.4697 77.0139 80.8097 78.9639C80.1497 80.9039 78.1197 85.644 78.1197 85.644C78.1197 85.644 86.0197 90.4439 89.9297 95.1839C83.7297 87.2639 86.1397 76.0539 86.4797 73.9939H86.4697V73.9639Z" fill="#862E34"/>
<path d="M69.8503 85.2538L73.8203 73.8438L62.9603 79.2137L52.5703 81.6638C52.6503 81.8138 52.7403 81.9538 52.8303 82.0638C54.6803 84.1338 63.5503 90.4838 63.5503 90.4838C66.1403 89.6438 69.8303 85.2437 69.8303 85.2437H69.8403L69.8503 85.2538Z" fill="#862E34"/>
<path d="M52.5684 109.544C50.7384 113.764 48.8984 119.144 48.8984 119.144" stroke="#862E34" stroke-width="0.5" stroke-linecap="round" stroke-linejoin="round"/>
<path d="M43.75 119.964C43.75 119.964 48.49 118.844 52.28 118.504C56.07 118.164 61.4 116.784 61.4 116.784" stroke="#862E34" stroke-width="0.5" stroke-linecap="round" stroke-linejoin="round"/>
<path d="M80.852 147.523C79.932 151.663 78.092 158.663 76.952 163.373C75.812 168.083 69.832 176.123 69.832 176.123C69.832 176.123 70.412 170.373 71.902 167.163C73.392 163.953 74.772 159.133 74.772 159.133L75.352 153.963L80.862 147.523H80.852Z" fill="#862E34"/>
<path d="M22.572 151.654C23.602 154.064 21.192 170.364 21.192 170.364C41.232 182.314 47.432 162.204 50.652 158.194C53.862 154.174 61.332 152.574 68.672 146.374C76.012 140.174 79.692 124.904 78.772 124.434C73.602 131.904 66.482 137.184 66.482 137.184C66.482 137.184 46.952 148.554 40.882 148.664C34.792 148.774 21.012 140.164 21.012 140.164L18.422 135.794C18.082 140.784 21.522 149.234 22.552 151.644H22.562L22.572 151.654Z" fill="#862E34"/>
<path d="M98.7087 203.154C97.4987 197.114 92.4287 187.833 92.4287 187.833L85.2787 198.164C85.2787 198.164 70.8087 205.024 68.9087 207.104C67.0087 209.184 86.9887 207.104 86.9887 207.104L95.9487 212.794L97.6187 233.254C98.3887 221.984 99.4687 206.923 98.7087 203.143H98.7187L98.7087 203.154Z" fill="#862E34"/>
<path d="M60.6595 246.214L62.6995 230.534C60.4695 220.544 46.6895 215.214 38.4195 211.584C30.1495 207.964 29.2996 204.004 16.2096 200.204C3.11955 196.404 5.18955 194.884 5.18955 194.884L8.42955 186.764C5.80955 189.944 3.83955 192.384 3.62955 192.994C3.10955 194.534 3.62955 208.404 3.62955 208.404C7.75955 220.714 23.2695 246.214 23.2695 246.214H60.6796H60.6695H60.6595Z" fill="#862E34"/>
<path d="M85.332 52.5934L87.402 50.7234L90.502 47.2734L93.372 49.4535L91.772 52.5934L87.032 53.5834L85.342 52.5934H85.332Z" fill="#862E34"/>
<path d="M98.8711 49.364L101.131 47.7939L105.281 48.5239L103.301 52.0239L99.6611 50.9939L98.8711 49.364Z" fill="#862E34"/>
<path d="M104.82 63.4639L108.13 63.8239L107.67 65.7939L105.3 64.6239L104.82 63.4639Z" fill="#86769C"/>
<path d="M109.9 243.894H0V283.264H109.9V243.894Z" fill="#8F1414"/>
<path d="M22.24 283.264H0V243.894H109.9L12.9 250.964L22.24 283.264Z" fill="#3E3D3D"/>
<path d="M20.4914 92.3737C12.5214 83.9537 7.94141 90.9937 7.94141 90.9937C14.9814 89.3137 20.4914 99.3137 20.4914 99.3137C20.4914 99.3137 26.0014 89.3137 33.0414 90.9937C33.0414 90.9937 28.4514 83.9537 20.4914 92.3737Z" fill="#018C2B"/>
<path d="M198.192 81.4634C194.212 77.2634 191.922 80.7734 191.922 80.7734C195.432 79.9334 198.192 84.9334 198.192 84.9334C198.192 84.9334 200.952 79.9334 204.462 80.7734C204.462 80.7734 202.162 77.2434 198.192 81.4634Z" fill="#018C2B"/>
<path d="M207.25 148.534C197.99 138.754 192.66 146.934 192.66 146.934C200.85 144.974 207.25 156.624 207.25 156.624C207.25 156.624 213.66 144.994 221.84 146.934C221.84 146.934 216.49 138.744 207.25 148.534Z" fill="#018C2B"/>
<path d="M182.921 138.004C182.921 138.004 184.711 148.724 182.921 163.704C181.131 178.684 175.931 208.394 175.931 208.394C175.931 208.394 178.011 217.794 178.191 223.654C178.371 229.514 178.701 230.024 179.831 232.614C180.961 235.204 184.421 242.784 183.721 246.914C183.021 251.044 186.121 258.284 184.571 262.414H169.251C169.251 262.414 165.811 254.314 164.591 248.114C163.381 241.914 157.531 232.104 155.801 225.374C154.061 218.654 151.141 212.284 150.811 202.374C150.481 192.464 153.401 140.284 153.401 140.284L182.921 138.014V138.004Z" fill="#3A3939"/>
<path d="M178.441 227.974C174.031 225.214 168.891 224.034 168.891 217.333C168.891 208.374 165.441 205.384 167.881 197.804C169.451 192.924 171.851 176.404 173.341 165.284C173.971 160.574 169.231 156.963 164.871 158.833L152.141 164.254C151.401 179.384 150.631 197.033 150.801 202.383C151.141 212.293 154.081 218.653 155.791 225.383C156.671 228.833 158.641 233.103 160.521 237.263C164.211 232.823 176.091 242.594 183.671 249.684C183.571 248.674 183.561 247.724 183.701 246.914C184.401 242.784 180.931 235.204 179.811 232.614C179.051 230.874 178.651 230.074 178.421 227.974H178.451H178.441Z" fill="#520039"/>
<path d="M149.022 85.9635L141.442 67.5635L125.832 73.9535L128.482 103.633L149.032 85.9535L149.022 85.9635Z" fill="#8F1414"/>
<path d="M128.469 103.643L149.029 85.9635L141.449 67.5635L137.389 69.2335C136.529 74.0035 133.589 87.6535 127.469 92.3135L128.479 103.643H128.469Z" fill="#3E3D3D"/>
<path d="M83.6328 68.1937L110.173 56.5337L110.943 58.6237L87.8628 68.1837H83.6328V68.1937Z" fill="#00383E"/>
<path d="M145.372 39.5737L120.332 47.3837L120.832 48.9737L145.872 41.1637L145.372 39.5737Z" fill="#00383E"/>
<path d="M146.96 31.2236L139.32 33.6036L144.04 48.7336L151.68 46.3536L146.96 31.2236Z" fill="#86769C"/>
<path d="M122.471 268.004L123.931 281.754L117.121 286.924C117.121 286.924 108.481 288.854 108.221 289.964C107.961 291.084 116.401 293.244 122.081 291.424C126.921 289.884 127.851 291.834 131.441 291.774C132.611 291.744 133.451 290.634 133.221 289.484L131.861 282.554L132.441 269.034L122.461 268.004H122.471Z" fill="#F66D74"/>
<path d="M139.609 65.4738C139.609 65.4738 134.729 51.7438 135.019 49.8638C135.309 47.9638 137.609 44.9338 137.029 42.6838C136.449 40.4338 133.419 40.2138 132.549 41.1938C131.699 42.1738 128.469 42.1538 128.129 44.7738C127.779 47.3938 128.239 49.6238 129.509 50.3138L128.419 68.8038L139.609 65.4738Z" fill="#824F76"/>
<path d="M113.77 83.1034C113.77 83.1034 102.71 69.1834 102.39 67.2934C102.07 65.4034 103.31 61.7934 102.07 59.8534C100.83 57.9134 97.8701 58.6234 97.3401 59.8234C96.8301 61.0234 93.7701 62.0034 94.2501 64.6034C94.7301 67.1934 95.8601 69.1834 97.2801 69.4534L103.98 91.0434L113.76 83.1234V83.0934L113.77 83.1034Z" fill="#F66D74"/>
<path d="M113.771 83.1039C113.771 83.1039 112.091 80.9839 110.021 78.2939C107.531 81.2439 105.271 86.0139 103.121 88.2039L104.001 91.0239L113.781 83.1039H113.771Z" fill="#824F76"/>
<path d="M168.889 41.2335C175.549 43.3135 175.429 50.3535 173.799 53.2935C172.159 56.2335 168.979 58.7235 169.319 61.6435C169.659 64.5635 173.369 72.5835 173.369 72.5835L158.559 73.9635L156.569 61.7235C156.569 61.7235 154.499 62.4935 153.039 60.7735C151.579 59.0535 152.779 52.3435 153.039 51.4735L153.559 49.7535L153.779 49.7235C154.659 49.6435 155.389 49.0435 155.699 48.2235C156.769 45.2235 160.229 38.5235 168.889 41.2235V41.2335Z" fill="#F66D74"/>
<path d="M153.43 75.1635L155.69 80.1136L152.93 100.024L184.73 98.9536C184.73 98.9536 181.39 85.9035 180.02 80.3535C178.64 74.8035 177.61 70.4635 177.61 70.4635C177.61 70.4635 165.12 69.1436 154.89 71.9536C153.51 72.3436 152.82 73.8835 153.42 75.1935H153.43V75.1635Z" fill="#8F1414"/>
<path d="M174.74 96.0138H186.04C186.04 96.0138 188.31 99.2938 187.16 103.644C186.02 108.014 187.35 112.364 187.49 117.654C187.63 122.934 186.12 128.384 184.75 131.664C183.37 134.944 185.44 136.324 182.52 140.624C179.6 144.924 180.8 156.994 172.53 173.694C164.26 190.394 152.02 206.424 152.02 206.424C152.02 206.424 153.56 209.184 150.48 210.554C150.48 210.554 148.94 223.304 143.24 235.884C143.24 235.884 143.76 246.384 141.01 254.834C138.25 263.284 137.91 267.404 137.91 267.404H119.65C119.65 267.404 118.96 241.384 119.65 230.724C120.34 220.064 126.2 197.304 129.13 186.794C132.06 176.284 142.22 147.354 142.22 147.354L142.39 138.924C142.39 138.924 139.29 138.754 138.6 133.754C137.91 128.754 147.72 95.1738 147.72 95.1738L174.76 96.0238H174.75L174.74 96.0138Z" fill="#3A3939"/>
<path d="M153.461 152.563C153.461 152.563 152.101 159.343 150.931 161.813C149.761 164.283 148.421 169.553 145.641 176.113C142.861 182.653 136.591 201.923 135.591 207.103C134.601 212.283 136.311 228.063 133.261 232.333C131.981 236.863 132.051 262.103 128.711 266.243" stroke="#520039" stroke-width="0.5" stroke-linecap="round" stroke-linejoin="round"/>
<path d="M140.492 152.224C140.492 152.224 149.962 150.074 155.902 156.604C159.742 160.834 163.972 163.674 173.652 161.814L183.312 159.953C183.312 159.953 184.522 149.994 183.822 146.604H142.962L140.512 152.224H140.502H140.492Z" fill="#520039"/>
<path d="M149.68 206.004L141.59 202.384" stroke="#520039" stroke-width="0.5" stroke-linecap="round" stroke-linejoin="round"/>
<path d="M148.142 209.704C148.142 209.704 140.562 206.524 138.762 207.214C136.952 207.904 141.602 209.194 141.602 209.194" stroke="#520039" stroke-width="0.5" stroke-linecap="round" stroke-linejoin="round"/>
<path d="M141.592 233.994C141.592 233.994 139.952 232.034 139.262 229.174" stroke="#520039" stroke-width="0.5" stroke-linecap="round" stroke-linejoin="round"/>
<path d="M144.092 147.523C144.092 147.523 142.272 149.593 143.242 153.273C144.202 156.953 147.112 161.613 150.682 162.413" stroke="#520039" stroke-width="0.5" stroke-linecap="round" stroke-linejoin="round"/>
<path d="M180.59 146.604C180.59 146.604 180.13 161.994 172.5 173.714" stroke="#520039" stroke-width="0.5" stroke-linecap="round" stroke-linejoin="round"/>
<path d="M154.883 170.374C154.883 170.374 152.763 173.134 148.133 172.674" stroke="#520039" stroke-width="0.5" stroke-linecap="round" stroke-linejoin="round"/>
<path d="M173.551 163.374L163.421 163.714C163.421 163.714 160.531 174.443 163.421 174.573C170.711 174.893 173.471 164.583 173.471 164.583" stroke="#520039" stroke-width="0.5" stroke-linecap="round" stroke-linejoin="round"/>
<path d="M182.159 162.844H179.039C179.039 162.844 174.219 173.894 180.579 173.634" stroke="#520039" stroke-width="0.5" stroke-linecap="round" stroke-linejoin="round"/>
<path d="M147.7 95.1635C147.7 95.1635 138.34 127.193 138.55 133.333C141.64 131.363 146.38 128.264 150.8 124.954C158.21 119.444 163.04 119.274 170.96 111.004C176.47 105.254 181.27 91.0235 171.91 82.8335L166.91 93.3435L147.7 95.1535V95.1635Z" fill="#520039"/>
<path d="M157.19 78.3236C161.52 76.4236 169.59 75.2236 173.95 78.9736C182.36 86.2236 185.04 97.1236 185.84 101.934C186.05 103.214 185.07 104.364 183.77 104.364H183.71C182.14 104.364 180.8 103.194 180.61 101.634C179.95 96.3136 177.62 84.8336 169.68 81.8636C159.25 77.9536 157.18 78.3536 157.18 78.3536L157.19 78.3236Z" fill="#FF5C74"/>
<path d="M164.23 56.5337C164.23 56.5337 161.01 61.0437 156.57 61.7337L157.51 67.5337C157.51 67.5337 159.84 68.0537 161.22 65.0937C162.6 62.1137 165.09 59.9637 166.21 58.2837C167.33 56.6037 164.22 56.5337 164.22 56.5337H164.23Z" fill="#824F76"/>
<path d="M133.229 289.483L131.869 282.553V282.203C129.429 283.303 127.019 286.313 126.039 286.513C124.789 286.773 125.239 285.443 125.139 283.823C125.039 282.213 123.869 281.813 123.869 281.813H123.809L117.109 286.913C117.109 286.913 108.469 288.843 108.209 289.953C107.949 291.073 116.389 293.233 122.069 291.413C126.909 289.873 127.839 291.823 131.429 291.763C132.599 291.733 133.439 290.623 133.209 289.473H133.219L133.229 289.483Z" fill="#00383E"/>
<path d="M118.832 87.3435L125.832 95.5035C125.832 95.5035 127.902 93.6735 129.162 95.5035C129.162 95.5035 140.292 89.7535 145.462 85.9635C150.632 82.1735 157.862 73.1035 169.572 80.9035C181.282 88.7135 174.632 106.284 167.052 109.384C159.472 112.484 141.672 122.473 135.932 124.433C130.182 126.393 125.142 127.304 121.122 125.234C117.102 123.164 105.512 108.694 105.512 108.694C105.512 108.694 101.272 103.183 118.832 87.3335H118.822L118.832 87.3435Z" fill="#8F1414"/>
<path d="M149.023 91.0234C149.023 91.0234 151.783 93.7834 158.093 93.7834" stroke="#3E3D3D" stroke-width="0.5" stroke-linecap="round" stroke-linejoin="round"/>
<path d="M129.512 96.9937L131.582 102.964" stroke="#3E3D3D" stroke-width="0.5" stroke-linecap="round" stroke-linejoin="round"/>
<path d="M125.83 96.9937C125.83 96.9937 124.45 102.744 124.91 104.914" stroke="#3E3D3D" stroke-width="0.5" stroke-linecap="round" stroke-linejoin="round"/>
<path d="M121.118 90.0138L118.818 87.3438C101.248 103.194 105.488 108.704 105.488 108.704C105.488 108.704 106.838 110.384 108.778 112.684C111.248 108.994 110.358 100.534 115.998 95.8337C118.838 93.4637 120.398 91.2038 121.108 90.0038L121.118 90.0138Z" fill="#3E3D3D"/>
<path d="M124.444 76.5737C124.034 74.7638 124.404 71.2137 124.834 69.7137C125.894 66.0037 139.114 62.0538 141.054 64.6438C142.774 66.9338 143.594 68.4037 143.204 69.6337C142.814 70.8637 137.824 70.5837 133.864 72.0037C129.884 73.4237 125.054 79.2937 124.454 76.5737H124.444Z" fill="#FF5C74"/>
<path d="M140.491 138.484C146.151 138.144 161.391 137.184 170.271 137.184C179.151 137.184 184.481 138.304 186.461 138.484C188.441 138.664 188.271 147.784 185.511 148.294C182.751 148.804 175.441 147.774 169.061 148.294C162.681 148.814 145.181 149.384 140.491 149.414C138.551 149.414 138.601 138.594 140.491 138.474V138.484Z" fill="#8B4A54"/>
<path d="M149.352 137.963C151.032 139.703 154.882 144.173 155.082 149.013C160.542 148.803 166.052 148.543 169.052 148.313C171.742 148.093 174.592 148.143 177.212 148.253C178.302 146.173 180.212 141.663 178.972 137.583C176.592 137.363 173.692 137.193 170.262 137.193C164.512 137.193 156.112 137.593 149.362 137.963H149.352Z" fill="#862E34"/>
<path d="M154.883 137.674C156.553 138.524 157.463 140.634 157.533 143.844C157.593 147.054 155.753 153.384 159.143 157.224C162.533 161.064 170.743 161.594 173.213 158.364C175.683 155.154 177.513 140.444 174.353 137.174C174.353 137.174 167.293 135.354 154.893 137.654H154.883V137.674Z" fill="#8B4A54"/>
<path d="M169.651 128.824L165.791 127.914L161.891 144.504L165.751 145.414L169.651 128.824Z" fill="#E58EBF"/>
<path d="M174.963 132.444L171.103 131.534L167.203 148.124L171.063 149.034L174.963 132.444Z" fill="#E58EBF"/>
<path d="M172.813 263.523L176.383 276.233L170.103 281.013C170.103 281.013 162.123 282.793 161.873 283.823C161.633 284.853 169.433 286.843 174.683 285.173C179.153 283.753 180.013 285.543 183.333 285.493C184.403 285.463 185.193 284.443 184.973 283.383L183.703 276.973L182.023 264.473L172.803 263.523H172.813Z" fill="#F66D74"/>
<path d="M174.432 46.8339C174.432 46.8339 165.742 44.1039 164.252 44.9139C162.762 45.7139 162.472 51.1139 162.712 51.8039C162.942 52.4939 164.142 51.2239 165.702 51.8039C167.242 52.3839 166.502 56.2839 164.672 56.2839C162.842 56.2839 167.712 60.4139 169.842 60.4139C171.972 60.4139 172.142 57.6539 172.142 57.6539C172.142 57.6539 177.822 50.6439 174.462 46.8239H174.452L174.432 46.8339Z" fill="#8F1414"/>
<path d="M184.971 283.384L183.701 276.974L183.671 276.794C181.451 277.984 179.331 280.554 178.431 280.754C177.221 281.014 177.661 279.724 177.581 278.164C177.501 276.604 176.371 276.224 176.371 276.224L170.091 281.004C170.091 281.004 162.111 282.784 161.861 283.814C161.621 284.844 169.421 286.834 174.671 285.164C179.141 283.744 180.001 285.534 183.321 285.484C184.391 285.454 185.181 284.434 184.961 283.374L184.971 283.384Z" fill="#00383E"/>
<path d="M114.5 81.1835C115.56 80.6835 116.83 81.0335 117.52 81.9835C118.88 83.8435 120.95 86.8335 121.02 87.7535C121.1 89.1335 115.16 92.8135 111.03 98.6135C107.47 103.603 106.17 107.033 106.01 109.333L107.29 110.903C107.29 110.903 105.51 113.263 104.4 112.833C103.28 112.403 94.3297 106.923 95.3597 102.983C96.3397 99.2635 104.12 86.0035 114.51 81.1935H114.5V81.1835Z" fill="#FF5C74"/>
<path d="M173.189 158.374C174.749 156.344 176.039 149.804 176.009 144.404C171.919 140.514 159.999 139.924 156.789 139.844C157.249 140.874 157.489 142.224 157.519 143.854C157.579 147.064 155.739 153.394 159.129 157.234C162.519 161.074 170.729 161.604 173.199 158.374H173.189Z" fill="#86769C"/>
<path d="M118.68 264.473C118.68 264.473 128.16 263.263 138.92 265.163C138.92 265.163 138.23 268.953 138.31 270.763C138.39 272.573 135.39 271.283 130.04 270.763C124.69 270.243 120.64 270.153 119.32 270.333C118 270.513 118.67 264.473 118.67 264.473H118.68Z" fill="#874751"/>
<path d="M168.31 260.114C172.71 260.414 182.85 259.824 185 259.314C187.15 258.804 186.46 261.654 186.03 264.114C185.6 266.564 182.03 266.304 177.4 266.204C172.77 266.124 170.62 266.284 169.41 265.434C168.2 264.574 165.83 259.944 168.31 260.114Z" fill="#874751"/>
</svg>
