<svg width="353" height="446" viewBox="0 0 353 446" fill="none" xmlns="http://www.w3.org/2000/svg">
<rect width="353" height="446" rx="24" fill="#E47239" fill-opacity="0.3"/>
<rect width="353" height="446" rx="24" fill="url(#paint0_linear_2136_11958)" fill-opacity="0.5" style="mix-blend-mode:overlay"/>
<g clip-path="url(#clip0_2136_11958)">
<path d="M227.19 281.699V272.728H243.52V297.402L206.641 298V293.51L227.19 281.699Z" fill="#90786D"/>
<path d="M205.336 298V295.869C205.336 293.691 206.517 291.694 208.406 290.664L223.958 282.172C228.622 283.461 232.22 283.28 234.684 282.856C238.772 282.156 242.682 280.277 243.995 281.849C244.368 282.297 244.415 282.887 244.399 283.296V296.341C244.399 297.253 243.669 298 242.759 298H205.328H205.336Z" fill="white"/>
<path d="M205.336 296.577H244.407" stroke="#51362A" stroke-width="0.73" stroke-linecap="round" stroke-linejoin="round"/>
<path d="M213.945 287.817L216.137 290.742" stroke="#51362A" stroke-width="0.73" stroke-linecap="round" stroke-linejoin="round"/>
<path d="M215.547 286.906L217.739 289.831" stroke="#51362A" stroke-width="0.73" stroke-linecap="round" stroke-linejoin="round"/>
<path d="M217.227 286.055L219.411 288.98" stroke="#51362A" stroke-width="0.73" stroke-linecap="round" stroke-linejoin="round"/>
<path d="M219.691 284.507C222.342 285.529 226.718 286.842 232.236 286.81C237.56 286.779 241.796 285.513 244.407 284.507" stroke="#51362A" stroke-width="0.73" stroke-linecap="round" stroke-linejoin="round"/>
<path d="M180.628 281.699V272.728H196.965V297.402L160.086 298V293.51L180.628 281.699Z" fill="#90786D"/>
<path d="M158.781 298V295.869C158.781 293.691 159.963 291.694 161.851 290.664L177.404 282.172C182.067 283.461 185.665 283.28 188.129 282.856C192.217 282.156 196.127 280.277 197.44 281.849C197.814 282.297 197.86 282.887 197.845 283.296V296.341C197.845 297.253 197.114 298 196.205 298H158.773H158.781Z" fill="white"/>
<path d="M158.781 296.577H197.852" stroke="#51362A" stroke-width="0.73" stroke-linecap="round" stroke-linejoin="round"/>
<path d="M167.387 287.817L169.578 290.742" stroke="#51362A" stroke-width="0.73" stroke-linecap="round" stroke-linejoin="round"/>
<path d="M168.992 286.906L171.176 289.831" stroke="#51362A" stroke-width="0.73" stroke-linecap="round" stroke-linejoin="round"/>
<path d="M170.664 286.055L172.856 288.98" stroke="#51362A" stroke-width="0.73" stroke-linecap="round" stroke-linejoin="round"/>
<path d="M173.137 284.507C175.787 285.529 180.163 286.842 185.681 286.81C191.005 286.779 195.241 285.513 197.853 284.507" stroke="#51362A" stroke-width="0.73" stroke-linecap="round" stroke-linejoin="round"/>
<path d="M190.016 153.917C190.016 153.917 176.563 197.132 174.495 203.116C172.428 209.1 170.508 217.474 170.951 224.803C171.394 232.131 178.342 277.289 178.342 277.289H198.589C198.589 277.289 200.019 229.583 200.711 225.848C201.403 222.114 207.31 200.962 207.31 200.962C207.31 200.962 209.229 225.699 210.854 232.273C212.478 238.854 225.489 278.028 225.489 278.028H244.407L236.425 153.909H190.016V153.917Z" fill="#51362A"/>
<path d="M229.608 174.345C229.608 174.345 228.054 182.719 225.769 185.935C223.81 188.687 220.118 193.082 219.092 194.293C218.937 194.474 218.945 194.742 219.108 194.922L219.38 195.213C220.219 196.118 221.618 196.165 222.512 195.316L224.517 193.413L224.004 201.614C223.958 202.314 224.51 202.911 225.209 202.911C225.823 202.911 226.344 202.447 226.406 201.826L227.028 196.259L227.681 204.547C227.727 205.192 228.264 205.679 228.893 205.679H228.909C229.585 205.679 230.129 205.129 230.129 204.445L230.152 204.531C230.308 205.192 230.922 205.64 231.59 205.577C232.367 205.506 232.927 204.799 232.826 204.02L232.756 203.509C232.896 204.146 233.549 204.523 234.163 204.319C235.057 204.02 235.647 203.155 235.616 202.204C235.531 199.923 235.127 198.642 235.422 196.259C235.655 194.372 236.541 194.474 237.528 192.037C238.733 189.064 237.971 187.563 238.453 183.364C238.64 181.767 239.036 179.479 240.008 176.743L229.624 174.353L229.608 174.345Z" fill="#2E1509"/>
<path d="M231.179 173.732C231.179 173.732 229.624 182.107 227.339 185.323C225.38 188.075 221.689 192.47 220.663 193.681C220.507 193.862 220.515 194.129 220.678 194.31L220.95 194.601C221.79 195.505 223.189 195.552 224.082 194.703L226.088 192.8L225.575 201.002C225.528 201.701 226.08 202.299 226.779 202.299C227.393 202.299 227.914 201.835 227.976 201.214L228.598 195.647L229.251 203.934C229.298 204.579 229.834 205.067 230.463 205.067H230.479C231.155 205.067 231.699 204.516 231.699 203.832L231.723 203.919C231.878 204.579 232.492 205.027 233.16 204.965C233.938 204.894 234.497 204.186 234.396 203.408L234.326 202.897C234.466 203.533 235.119 203.911 235.733 203.706C236.627 203.408 237.218 202.543 237.186 201.591C237.101 199.311 236.697 198.029 236.992 195.647C237.225 193.76 238.111 193.862 239.098 191.424C240.303 188.452 239.541 186.95 240.023 182.751C240.21 181.155 240.606 178.867 241.578 176.131L231.194 173.74L231.179 173.732Z" fill="#90786D"/>
<path d="M229.71 179.747L228.793 182.444C229.772 183.34 231.397 184.614 233.689 185.55C236.215 186.58 238.454 186.745 239.83 186.745C239.814 186.053 239.83 185.322 239.868 184.551C239.892 184.127 239.993 182.931 239.993 182.931L229.71 179.755V179.747Z" fill="#614233"/>
<path d="M186.121 75.4119L192.658 74.6098C192.658 74.6098 193.645 71.669 195.137 71.3781C196.629 71.0872 202.629 70.6311 202.629 70.6311L203.663 83.33L193.831 83.4873L187.404 85.1385L186.121 75.4197V75.4119Z" fill="#90786D"/>
<path d="M192.66 74.6096L193.834 83.4792L194.891 83.4556L193.072 73.6189L192.66 74.6096Z" fill="#614233"/>
<path d="M204.947 96.9493H215.789C219.971 97.1222 229.678 98.1523 237.311 105.473C241.485 109.475 243.49 113.879 245.044 117.283C248.573 125.028 249.218 131.649 249.723 137.318C250.112 141.722 250.695 154.814 246.622 169.919C244.85 176.5 241.298 185.323 241.298 185.323L227.992 180.833L227.347 164.234L181.133 161.694L183.643 121.018C180.721 120.672 176.524 119.902 171.798 117.975C166.443 115.789 157.583 112.172 153.588 103.224C152.787 101.439 149.717 94.5667 152.601 88.174C154.902 83.0709 159.565 80.8299 168.27 77.7476C174.48 75.5538 186.006 73.6116 189.255 73.6116H192.504L193.98 84.7772C191.556 85.5006 184.327 87.7652 180.379 90.8082C178.762 92.0506 178.148 93.0806 178.164 94.0635C178.164 94.0635 178.187 95.2587 179.493 96.4696C182.804 99.5441 202.281 97.2559 204.924 96.9335L204.947 96.9493Z" fill="#593B2C"/>
<path d="M196.765 81.5841C196.127 79.4139 195.451 75.9384 196.33 72.2034C196.874 69.8759 197.682 68.8616 198.179 68.3505C199.299 67.2025 200.558 66.8014 201.825 66.424C202.648 66.1803 205.299 65.4647 208.68 66.1488C211.571 66.7307 213.506 68.036 214.61 68.7908C215.651 69.5064 217.183 70.5757 218.527 72.5336C219.133 73.4143 220.012 74.7275 220.323 76.6067C220.579 78.1951 220.315 79.4532 220.05 80.5697C219.561 82.6535 218.714 85.7437 217.276 89.6516H215.861L196.765 81.5841Z" fill="#262626"/>
<path d="M210.37 101.816C213.378 101.824 215.819 99.371 215.834 96.328L215.881 84.4783L204.992 84.439L204.945 96.2887C204.938 99.3317 207.363 101.801 210.37 101.816Z" fill="#90786D"/>
<path d="M204.969 92.9695L212.057 89.2817C211.987 89.9029 211.583 92.8123 209.057 94.8174C207.44 96.0991 205.746 96.39 204.961 96.4765V92.9617L204.969 92.9695Z" fill="#614233"/>
<path d="M216.143 80.8062C216.174 80.6254 216.64 80.358 216.788 80.2637C217.029 80.1064 217.293 79.9806 217.565 79.8941C218.093 79.7211 218.676 79.6818 219.228 79.8076C220.316 80.0592 221.272 80.9792 221.459 82.1115C221.568 82.7641 221.412 83.4482 221.132 84.0458C220.713 84.9501 220.005 85.7128 219.15 86.2082C218.443 86.6249 217.635 86.853 216.819 86.908C216.655 86.9159 214.984 86.8765 214.992 86.8136C215.373 84.8086 215.762 82.8035 216.143 80.8062Z" fill="#90786D"/>
<path d="M217.63 80.9234C217.498 81.804 216.736 86.4747 212.578 89.7694C211.817 90.3748 206.726 94.4086 202.07 92.4428C196.085 89.9109 196.738 79.9719 196.785 79.4373C196.925 77.6209 197.345 72.2582 201.736 69.3961C205.319 67.0607 209.197 67.9178 209.749 68.0515C210.332 68.193 214.024 69.1287 216.286 72.7929C218.337 76.119 217.848 79.4766 217.638 80.9234H217.63Z" fill="#90786D"/>
<path d="M200.184 79.4292C200.091 80.2077 199.501 80.7659 198.863 80.6873C198.226 80.6087 197.798 79.9089 197.892 79.1383C197.985 78.3598 198.576 77.8016 199.213 77.8802C199.843 77.9588 200.278 78.6586 200.184 79.4292Z" fill="#262626"/>
<path d="M207.094 80.3098C207.001 81.0883 206.411 81.6466 205.773 81.5679C205.144 81.4893 204.708 80.7895 204.802 80.0189C204.895 79.2404 205.486 78.6822 206.123 78.7608C206.752 78.8394 207.188 79.5392 207.094 80.3098Z" fill="#262626"/>
<path d="M202.269 80.5942L201.212 82.041C201.017 82.3084 201.087 82.6858 201.367 82.8588L202.339 83.4564" stroke="#262626" stroke-width="0.73" stroke-linecap="round" stroke-linejoin="round"/>
<path d="M209.418 83.9668C209.31 84.8396 208.525 85.453 207.662 85.3429C206.799 85.2328 206.193 84.4386 206.302 83.5658C206.411 82.693 207.195 82.0797 208.058 82.1898C208.921 82.2999 209.527 83.094 209.418 83.9668Z" fill="#614233"/>
<path d="M216.875 84.7845C216.875 84.6115 216.852 83.4241 217.792 82.5749C218.531 81.9066 219.378 81.8594 219.611 81.8594" stroke="#262626" stroke-width="0.73" stroke-linecap="round" stroke-linejoin="round"/>
<path d="M217.703 82.8108C217.758 82.8029 218.387 82.7164 218.822 83.1961C219.18 83.5892 219.149 84.0767 219.141 84.1632" stroke="#262626" stroke-width="0.73" stroke-linecap="round" stroke-linejoin="round"/>
<path d="M217.774 79.8394C217.774 79.8394 216.996 79.9102 216.413 80.492C215.831 81.0739 215.621 82.0804 215.621 82.0804C214.128 81.8995 210.716 81.2626 207.623 78.542C205.944 77.0716 204.918 75.4754 204.32 74.3274C203.752 74.8385 202.789 75.609 201.429 76.2066C199.649 76.9851 197.434 77.3547 197.138 76.7492C197.084 76.6391 197.138 76.3167 197.263 75.6641C197.309 75.4282 197.356 75.0822 197.465 74.752C197.682 74.0993 197.97 73.4781 198.312 72.8806C198.996 71.6932 199.905 70.6396 200.978 69.7904C201.677 69.2399 202.439 68.7839 203.247 68.43C205.828 67.3213 209.411 67.3213 212.496 68.9804C212.496 68.9804 215.939 70.8361 217.455 74.4768C217.976 75.727 218.108 76.9772 218.139 77.4097C218.201 78.2668 218.108 78.8251 217.983 79.2575C217.914 79.5013 217.828 79.6979 217.766 79.8315L217.774 79.8394Z" fill="#262626"/>
<path d="M197.605 81.4506C197.31 81.4113 197.022 81.4663 196.766 81.5842C196.797 82.4413 196.874 83.4714 197.061 84.5722C197.108 84.5801 197.162 84.6037 197.209 84.6037C198.071 84.7138 198.856 84.0926 198.965 83.2276C199.074 82.3548 198.46 81.5607 197.605 81.4506Z" fill="#614233"/>
<path d="M201.1 88.1813L205.468 87.3163C204.987 86.1133 203.976 85.3348 202.95 85.3584C202.725 85.3584 201.924 85.4213 201.388 86.0976C200.681 86.9861 201.077 88.1184 201.1 88.1813Z" fill="white"/>
<path d="M227.055 202.259C227.055 202.259 227.824 202.212 227.933 201.395C228.042 200.577 228.788 194.263 228.788 194.263" stroke="#262626" stroke-width="0.41" stroke-linecap="round" stroke-linejoin="round"/>
<path d="M231.7 203.832L231.055 196.087" stroke="#262626" stroke-width="0.41" stroke-linecap="round" stroke-linejoin="round"/>
<path d="M234.399 203.108L233.73 195.339" stroke="#262626" stroke-width="0.41" stroke-linecap="round" stroke-linejoin="round"/>
<path d="M221.34 194.939C221.34 194.939 222.614 195.623 223.345 195.167C224.076 194.703 228.249 190.858 228.249 190.858" stroke="#262626" stroke-width="0.41" stroke-linecap="round" stroke-linejoin="round"/>
<path d="M222.416 119.405L220.551 163.871L227.359 164.249C227.033 157.832 226.528 151.133 225.805 144.174C224.895 135.446 223.737 127.182 222.416 119.413V119.405Z" fill="#45281A"/>
<path d="M227.998 180.84C227.952 168.039 227.206 154.058 225.387 139.118C224.548 132.261 223.545 125.688 222.418 119.405" stroke="#262626" stroke-width="0.41" stroke-linecap="round" stroke-linejoin="round"/>
<path d="M176.477 119.586C176.477 119.586 180.697 120.718 183.658 121.025L181.598 154.325" stroke="#262626" stroke-width="0.41" stroke-linecap="round" stroke-linejoin="round"/>
<path d="M160.419 80.9158C161.103 84.5092 161.678 89.5337 161.165 95.4861C160.66 101.407 159.253 106.235 157.986 109.64C156.315 107.941 154.372 105.457 153.028 102.091C152.227 100.094 150.657 96.1545 151.652 91.3108C151.916 90.0055 152.499 87.3321 154.691 84.7844C156.782 82.3547 159.222 81.3247 160.419 80.9158Z" fill="#45281A"/>
<path d="M178.898 92.2542C178.898 92.2542 177.615 93.6617 176.908 95.2815C176.193 96.9012 175.75 100.054 175.75 100.054" stroke="#262626" stroke-width="0.41" stroke-linecap="round" stroke-linejoin="round"/>
<path d="M198.585 277.289C198.585 277.289 200.42 228.381 200.559 227.115C200.699 225.849 207.593 199.964 207.593 199.964L206.373 188.523C206.373 188.523 192.469 223.144 192.469 225.424C192.469 227.705 190.922 277.297 190.922 277.297H198.578L198.585 277.289Z" fill="#2E1509"/>
<path d="M210.068 229.284L205.125 175.233" stroke="#262626" stroke-width="0.41" stroke-linecap="round" stroke-linejoin="round"/>
<path d="M177.555 273.136H198.742L198.586 277.288H178.34L177.555 273.136Z" fill="#262626"/>
<path d="M224.262 274.325H244.174L244.407 278.036H225.49L224.262 274.325Z" fill="#262626"/>
<path d="M232.984 107.501C238.495 114.027 243.236 120.774 245.171 129.305C247.169 138.12 246.811 148.782 244.301 157.479" stroke="white" stroke-width="0.41" stroke-linecap="round" stroke-linejoin="round"/>
<path d="M176.329 207.394C173.647 215.934 173.22 225.181 175.109 233.932" stroke="white" stroke-width="0.41" stroke-linecap="round" stroke-linejoin="round"/>
<path d="M138.956 94.9036C131.48 79.2325 113.868 72.1714 99.6133 79.1303C85.359 86.0891 79.864 104.434 87.3409 120.105C94.8178 135.776 112.43 142.837 126.684 135.878C140.938 128.919 146.433 110.575 138.956 94.9036ZM124.205 130.673C112.562 136.358 98.1832 130.586 92.0742 117.793C85.9652 105 90.4576 90.0128 102.1 84.3278C113.743 78.6427 128.122 84.4143 134.231 97.2075C140.332 110.009 135.848 124.988 124.205 130.673Z" fill="#9B7D6E"/>
<path d="M118.047 81.8359L110.858 102.634L90.2922 95.3605L87.8828 102.327L108.448 109.608L101.251 130.406L108.137 132.844L115.334 112.046L135.892 119.319L138.301 112.353L117.744 105.071L124.933 84.2735L118.047 81.8359Z" fill="#9B7D6E"/>
<path d="M233.438 37C224.29 37 216.867 44.1554 216.867 52.9857C216.867 56.1624 217.839 59.1189 219.502 61.6115L216.859 68.9792L223.023 65.4173C225.867 67.6425 229.489 68.9792 233.438 68.9792C242.586 68.9792 250.008 61.8238 250.008 52.9936C250.008 44.1633 242.586 37 233.438 37Z" fill="#1D0000"/>
<path d="M231.554 57.4137C231.616 56.2028 231.764 55.2356 231.982 54.5122C232.199 53.7888 232.596 53.1283 233.155 52.5464C233.482 52.1926 233.839 51.8938 234.236 51.65C234.632 51.4063 235.005 51.1468 235.339 50.8637C235.681 50.5885 235.969 50.2661 236.21 49.9123C236.451 49.5585 236.591 49.0788 236.622 48.4891C236.676 47.4826 236.443 46.7671 235.914 46.3424C235.386 45.91 234.749 45.6819 234.002 45.6348C232.93 45.5797 232.176 45.8392 231.741 46.4211C231.306 47.0029 231.01 47.805 230.855 48.8193L226.938 48.607C226.992 47.6005 227.202 46.7041 227.567 45.9021C227.932 45.1001 228.43 44.4317 229.059 43.8892C229.689 43.3466 230.427 42.9456 231.282 42.6861C232.137 42.4266 233.07 42.3244 234.08 42.3794C236.264 42.4974 237.966 43.0478 239.187 44.015C240.399 44.9821 240.959 46.484 240.85 48.5127C240.811 49.1653 240.718 49.7393 240.562 50.219C240.407 50.7065 240.181 51.1389 239.902 51.5242C239.614 51.9095 239.272 52.2634 238.868 52.5936C238.464 52.9239 238.013 53.2541 237.508 53.6001C237.041 53.9225 236.668 54.2291 236.381 54.5122C236.093 54.7953 235.868 55.0941 235.712 55.4165C235.557 55.7389 235.44 56.077 235.386 56.4308C235.324 56.7846 235.285 57.1935 235.262 57.6417L231.562 57.4373L231.554 57.4137ZM231.111 63.3346L231.329 59.3087L235.425 59.5367L235.207 63.5626L231.111 63.3346Z" fill="#F4D1BC"/>
</g>
<path d="M27.6586 366.06L27.0286 366.09C25.6786 366.09 23.9686 366.03 23.9686 364.98C23.9686 364.44 24.2986 364.17 24.8686 363.84C26.0686 363.33 26.3986 362.79 26.3986 361.23V349.77C26.3986 348.21 26.0686 347.67 24.8686 347.16C24.2986 346.83 23.9686 346.56 23.9686 346.02C23.9686 344.97 25.6786 344.91 27.0286 344.91L27.6586 344.94H29.7886L30.4186 344.91C31.7686 344.91 33.4786 344.97 33.4786 346.02C33.4786 346.56 33.1486 346.83 32.5786 347.16C31.3786 347.67 31.0486 348.21 31.0486 349.77V361.23C31.0486 362.79 31.3786 363.33 32.5786 363.84C33.1486 364.17 33.4786 364.44 33.4786 364.98C33.4786 366.03 31.7686 366.09 30.4186 366.09L29.7886 366.06H27.6586ZM40.895 361.8C40.895 363.06 40.925 363.75 42.365 364.32C42.695 364.5 42.995 364.71 42.995 365.16C42.995 365.82 42.575 366.18 39.995 366.18H37.475C34.985 366.18 34.445 365.82 34.445 365.16C34.445 364.74 34.685 364.5 35.075 364.32C36.455 363.75 36.485 363 36.485 361.83V355.62C36.485 354.81 36.365 354.33 35.705 354.15C34.955 354 34.295 354.06 34.265 353.46C34.235 352.86 34.805 352.65 35.495 352.38C36.935 351.9 38.675 351.27 39.695 351.27C40.535 351.27 40.895 351.51 40.895 352.32V353.79C40.895 354.06 40.955 354.15 41.015 354.15C41.315 354.15 42.005 351.09 45.935 351.09C48.455 351.09 50.465 352.5 50.915 356.64L51.545 362.28C51.605 363.06 51.695 363.69 53.045 364.32C53.405 364.53 53.705 364.71 53.705 365.16C53.705 365.82 53.315 366.18 50.795 366.18H48.215C45.935 366.18 45.395 365.82 45.395 365.16C45.395 364.74 45.635 364.53 45.995 364.35C47.195 363.84 47.195 363.03 47.135 362.31L46.595 357.39C46.355 355.17 45.575 354.15 43.925 354.15C42.605 354.15 40.895 355.44 40.895 358.41V361.8ZM59.8962 366.12C58.6662 366.12 58.1562 365.85 57.7362 364.86C56.3862 361.47 55.3362 358.17 54.0462 354.81C53.6562 353.79 53.3862 353.55 52.6962 353.31C52.3062 353.1 52.0362 352.86 52.0362 352.35C52.0362 351.42 52.8462 351.33 54.5262 351.33C56.1162 351.36 56.8062 351.36 58.6662 351.33C60.4062 351.33 60.7062 351.81 60.7062 352.41C60.7062 352.74 60.5262 353.07 59.9562 353.31C58.7862 353.58 58.6062 354.06 58.8462 354.93C59.3562 356.61 60.4362 359.58 61.2762 361.68C61.4562 362.13 61.7262 362.04 61.9962 361.68C63.4362 359.82 64.2162 358.26 64.2162 356.76C64.2162 355.89 63.9762 355.23 63.3762 354.69C62.6562 353.88 62.5062 353.22 62.5062 352.68C62.5062 351.57 63.5562 351.09 64.3662 351.09C66.2562 351.09 66.9762 353.37 66.9762 355.14C66.9762 358.02 64.8462 361.62 62.7762 364.23C61.7862 365.58 61.1562 366.12 60.1062 366.12H59.8962ZM70.133 355.62C70.133 354.81 70.013 354.33 69.353 354.15C68.603 354 67.943 354.06 67.913 353.46C67.883 352.86 68.453 352.65 69.143 352.38C70.583 351.9 72.323 351.27 73.343 351.27C74.183 351.27 74.543 351.51 74.543 352.32V361.8C74.543 363.06 74.573 363.75 76.013 364.32C76.343 364.5 76.643 364.71 76.643 365.16C76.643 365.82 76.223 366.18 73.643 366.18H71.123C68.633 366.18 68.093 365.82 68.093 365.16C68.093 364.74 68.333 364.5 68.723 364.32C70.103 363.75 70.133 363 70.133 361.83V355.62ZM71.303 349.41C69.953 349.41 69.203 348.93 69.203 347.94C69.203 346.56 70.913 345.45 73.013 345.42C74.303 345.39 75.053 346.05 75.053 346.92C75.053 348.51 73.403 349.38 71.303 349.41ZM83.6501 366.3C80.7401 366.3 78.8501 364.95 78.8501 361.35V354.09C78.8501 353.64 78.6101 353.4 78.1601 353.4H77.6201C77.0801 353.4 76.8401 352.92 76.8401 352.56C76.8401 352.2 77.0201 351.75 77.4101 351.27C78.5801 349.77 79.0901 349.17 80.0501 348.27C80.8601 347.55 81.7001 347.22 82.4801 347.22C83.1101 347.22 83.2601 347.58 83.2601 348.3V350.13C83.2601 351.33 83.3201 351.45 83.8601 351.45H87.7301C88.2401 351.45 88.4501 351.51 88.4501 352.17C88.4501 352.98 87.9701 353.4 87.3401 353.4H84.0101C83.5901 353.4 83.2301 353.58 83.2301 354.12V360.69C83.2301 362.46 84.0401 363.33 85.3301 363.33C85.9901 363.33 87.0101 363.06 87.7601 362.1C88.3001 361.47 89.0501 361.89 88.8701 362.58C88.2401 365.04 86.4401 366.3 83.6501 366.3ZM96.8213 366.36C92.0813 366.36 89.3213 362.76 89.3213 358.62C89.3213 354.09 92.8313 351.15 96.9413 351.15C100.961 351.15 103.151 354.09 103.151 356.28C103.151 357.84 102.461 358.32 100.781 358.56L94.7813 359.43C94.3613 359.49 94.2413 359.61 94.2413 359.91C94.2413 361.35 95.6513 363.42 98.2313 363.42C100.151 363.42 101.471 362.46 102.161 361.59C102.311 361.44 102.491 361.32 102.641 361.32C103.301 361.32 103.391 361.98 103.271 362.31C102.581 364.23 100.601 366.36 96.8213 366.36ZM98.1113 356.88C98.7713 356.76 99.0413 356.49 99.0413 355.98C99.0413 354.78 97.9913 353.07 96.3713 353.07C94.8113 353.07 93.7313 354.36 93.7313 356.52C93.7313 357.57 93.9413 357.6 94.5113 357.48L98.1113 356.88ZM120.656 366.36C116.036 366.36 113.096 363.09 113.096 358.77C113.096 354.3 116.546 351.15 120.446 351.15C123.566 351.15 126.626 353.01 126.626 355.59C126.626 356.43 126.176 357.21 125.006 357.21C124.076 357.21 123.506 356.61 123.116 355.5C122.726 354.03 122.006 353.07 120.416 353.07C118.916 353.07 117.596 354.54 117.596 357.15C117.596 360.69 119.066 363.42 122.066 363.42C123.776 363.42 125.156 362.55 125.846 361.65C126.056 361.44 126.296 361.32 126.416 361.32C127.016 361.32 127.166 361.86 127.046 362.31C126.386 364.35 124.346 366.36 120.656 366.36ZM136.397 366.36C131.537 366.36 128.177 363.12 128.177 358.71C128.177 354.27 131.567 351.09 136.397 351.09C141.257 351.09 144.617 354.3 144.617 358.71C144.617 363.18 141.257 366.36 136.397 366.36ZM136.937 364.41C138.677 364.41 139.937 362.88 139.937 360.24C139.937 357.42 138.467 353.1 135.827 353.1C134.147 353.1 132.827 354.6 132.827 357.3C132.827 360.12 134.237 364.41 136.937 364.41ZM151.651 366.36C148.291 366.36 146.071 363.27 146.071 358.92C146.071 354.6 148.681 351.12 152.881 351.12C155.461 351.12 156.181 352.56 156.571 352.56C156.811 352.56 156.811 351.96 156.811 351.03V349.17C156.811 348.36 156.691 347.88 156.031 347.7C155.281 347.55 154.621 347.61 154.591 347.01C154.561 346.41 155.131 346.2 155.821 345.93C157.261 345.45 159.001 344.82 160.021 344.82C160.861 344.82 161.221 345.06 161.221 345.87V361.83C161.221 362.64 161.341 363.12 162.001 363.3C162.751 363.45 163.411 363.39 163.441 363.99C163.471 364.59 162.901 364.8 162.211 365.07C160.771 365.55 159.031 366.18 158.011 366.18C157.171 366.18 156.811 365.94 156.811 365.13V364.74C156.811 363.57 156.751 363.21 156.661 363.21C156.391 363.21 155.311 366.36 151.651 366.36ZM153.991 363.33C155.491 363.33 156.811 362.01 156.811 358.59V358.11C156.811 355.08 155.611 353.04 153.601 353.04C152.101 353.04 150.661 354.36 150.661 357.63C150.661 360.99 151.921 363.33 153.991 363.33ZM171.552 366.36C166.812 366.36 164.052 362.76 164.052 358.62C164.052 354.09 167.562 351.15 171.672 351.15C175.692 351.15 177.882 354.09 177.882 356.28C177.882 357.84 177.192 358.32 175.512 358.56L169.512 359.43C169.092 359.49 168.972 359.61 168.972 359.91C168.972 361.35 170.382 363.42 172.962 363.42C174.882 363.42 176.202 362.46 176.892 361.59C177.042 361.44 177.222 361.32 177.372 361.32C178.032 361.32 178.122 361.98 178.002 362.31C177.312 364.23 175.332 366.36 171.552 366.36ZM172.842 356.88C173.502 356.76 173.772 356.49 173.772 355.98C173.772 354.78 172.722 353.07 171.102 353.07C169.542 353.07 168.462 354.36 168.462 356.52C168.462 357.57 168.672 357.6 169.242 357.48L172.842 356.88ZM194.187 361.8C194.187 363.06 194.217 363.75 195.657 364.32C195.987 364.5 196.287 364.71 196.287 365.16C196.287 365.82 195.867 366.18 193.287 366.18H190.767C188.277 366.18 187.737 365.82 187.737 365.16C187.737 364.74 187.977 364.5 188.367 364.32C189.747 363.75 189.777 363 189.777 361.83V355.62C189.777 354.81 189.657 354.33 188.997 354.15C188.247 354 187.587 354.06 187.557 353.46C187.527 352.86 188.097 352.65 188.787 352.38C190.227 351.9 191.967 351.27 192.987 351.27C193.827 351.27 194.187 351.51 194.187 352.32V353.79C194.187 354.06 194.247 354.15 194.307 354.15C194.607 354.15 195.297 351.09 199.227 351.09C201.747 351.09 203.757 352.5 204.207 356.64L204.837 362.28C204.897 363.06 204.987 363.69 206.337 364.32C206.697 364.53 206.997 364.71 206.997 365.16C206.997 365.82 206.607 366.18 204.087 366.18H201.507C199.227 366.18 198.687 365.82 198.687 365.16C198.687 364.74 198.927 364.53 199.287 364.35C200.487 363.84 200.487 363.03 200.427 362.31L199.887 357.39C199.647 355.17 198.867 354.15 197.217 354.15C195.897 354.15 194.187 355.44 194.187 358.41V361.8ZM215.61 366.36C210.75 366.36 207.39 363.12 207.39 358.71C207.39 354.27 210.78 351.09 215.61 351.09C220.47 351.09 223.83 354.3 223.83 358.71C223.83 363.18 220.47 366.36 215.61 366.36ZM216.15 364.41C217.89 364.41 219.15 362.88 219.15 360.24C219.15 357.42 217.68 353.1 215.04 353.1C213.36 353.1 212.04 354.6 212.04 357.3C212.04 360.12 213.45 364.41 216.15 364.41ZM231.295 366.3C228.385 366.3 226.495 364.95 226.495 361.35V354.09C226.495 353.64 226.255 353.4 225.805 353.4H225.265C224.725 353.4 224.485 352.92 224.485 352.56C224.485 352.2 224.665 351.75 225.055 351.27C226.225 349.77 226.735 349.17 227.695 348.27C228.505 347.55 229.345 347.22 230.125 347.22C230.755 347.22 230.905 347.58 230.905 348.3V350.13C230.905 351.33 230.965 351.45 231.505 351.45H235.375C235.885 351.45 236.095 351.51 236.095 352.17C236.095 352.98 235.615 353.4 234.985 353.4H231.655C231.235 353.4 230.875 353.58 230.875 354.12V360.69C230.875 362.46 231.685 363.33 232.975 363.33C233.635 363.33 234.655 363.06 235.405 362.1C235.945 361.47 236.695 361.89 236.515 362.58C235.885 365.04 234.085 366.3 231.295 366.3ZM252.907 361.8C252.907 363.06 252.967 363.75 254.377 364.32C254.707 364.5 255.007 364.71 255.007 365.16C255.007 365.82 254.587 366.18 252.007 366.18H249.487C246.997 366.18 246.457 365.82 246.457 365.16C246.457 364.74 246.697 364.5 247.087 364.32C248.467 363.75 248.497 363 248.497 361.83V354.24C248.497 353.49 247.927 353.4 247.657 353.4H246.487C246.187 353.4 245.947 353.07 245.947 352.74C245.947 351.9 246.517 351.45 246.817 351.45H248.407C247.927 350.58 247.537 349.53 247.537 348.15C247.537 345.84 249.517 344.19 252.787 344.19C255.337 344.19 257.587 345.69 257.587 347.85C257.587 348.54 257.137 349.38 256.147 349.38C254.857 349.38 254.677 348.72 254.347 347.82C254.107 346.74 253.357 346.11 252.547 346.11C251.467 346.11 250.717 346.89 250.717 347.94C250.717 349.35 251.617 350.55 252.517 351.45H255.577C255.997 351.45 256.327 351.48 256.327 352.05C256.327 352.8 255.907 353.4 255.367 353.4H253.777C253.237 353.4 252.907 353.64 252.907 354.3V361.8ZM264.332 366.36C259.472 366.36 256.112 363.12 256.112 358.71C256.112 354.27 259.502 351.09 264.332 351.09C269.192 351.09 272.552 354.3 272.552 358.71C272.552 363.18 269.192 366.36 264.332 366.36ZM264.872 364.41C266.612 364.41 267.872 362.88 267.872 360.24C267.872 357.42 266.402 353.1 263.762 353.1C262.082 353.1 260.762 354.6 260.762 357.3C260.762 360.12 262.172 364.41 264.872 364.41ZM280.194 366.33C277.554 366.33 275.244 364.83 275.244 360.66V355.62C275.244 354.81 275.124 354.33 274.464 354.15C273.714 354 273.054 354.06 273.024 353.46C272.994 352.86 273.564 352.65 274.254 352.38C275.694 351.9 277.434 351.27 278.454 351.27C279.294 351.27 279.654 351.51 279.654 352.32V359.97C279.654 362.46 280.614 363.3 282.204 363.3C283.674 363.3 285.264 361.89 285.264 358.98V355.62C285.264 354.81 285.144 354.33 284.484 354.15C283.734 354 283.074 354.06 283.044 353.46C283.014 352.86 283.584 352.65 284.274 352.38C285.714 351.9 287.454 351.27 288.474 351.27C289.314 351.27 289.674 351.51 289.674 352.32V361.83C289.674 362.64 289.794 363.12 290.454 363.3C291.204 363.45 291.864 363.39 291.894 363.99C291.924 364.59 291.354 364.8 290.664 365.07C289.224 365.55 287.484 366.18 286.464 366.18C285.624 366.18 285.264 365.94 285.264 365.13V363.81C285.264 363.51 285.234 363.27 285.114 363.27C284.814 363.27 283.854 366.33 280.194 366.33ZM298.991 361.8C298.991 363.06 299.021 363.75 300.461 364.32C300.791 364.5 301.091 364.71 301.091 365.16C301.091 365.82 300.671 366.18 298.091 366.18H295.571C293.081 366.18 292.541 365.82 292.541 365.16C292.541 364.74 292.781 364.5 293.171 364.32C294.551 363.75 294.581 363 294.581 361.83V355.62C294.581 354.81 294.461 354.33 293.801 354.15C293.051 354 292.391 354.06 292.361 353.46C292.331 352.86 292.901 352.65 293.591 352.38C295.031 351.9 296.771 351.27 297.791 351.27C298.631 351.27 298.991 351.51 298.991 352.32V353.79C298.991 354.06 299.051 354.15 299.111 354.15C299.411 354.15 300.101 351.09 304.031 351.09C306.551 351.09 308.561 352.5 309.011 356.64L309.641 362.28C309.701 363.06 309.791 363.69 311.141 364.32C311.501 364.53 311.801 364.71 311.801 365.16C311.801 365.82 311.411 366.18 308.891 366.18H306.311C304.031 366.18 303.491 365.82 303.491 365.16C303.491 364.74 303.731 364.53 304.091 364.35C305.291 363.84 305.291 363.03 305.231 362.31L304.691 357.39C304.451 355.17 303.671 354.15 302.021 354.15C300.701 354.15 298.991 355.44 298.991 358.41V361.8ZM317.862 366.36C314.502 366.36 312.282 363.27 312.282 358.92C312.282 354.6 314.892 351.12 319.092 351.12C321.672 351.12 322.392 352.56 322.782 352.56C323.022 352.56 323.022 351.96 323.022 351.03V349.17C323.022 348.36 322.902 347.88 322.242 347.7C321.492 347.55 320.832 347.61 320.802 347.01C320.772 346.41 321.342 346.2 322.032 345.93C323.472 345.45 325.212 344.82 326.232 344.82C327.072 344.82 327.432 345.06 327.432 345.87V361.83C327.432 362.64 327.552 363.12 328.212 363.3C328.962 363.45 329.622 363.39 329.652 363.99C329.682 364.59 329.112 364.8 328.422 365.07C326.982 365.55 325.242 366.18 324.222 366.18C323.382 366.18 323.022 365.94 323.022 365.13V364.74C323.022 363.57 322.962 363.21 322.872 363.21C322.602 363.21 321.522 366.36 317.862 366.36ZM320.202 363.33C321.702 363.33 323.022 362.01 323.022 358.59V358.11C323.022 355.08 321.822 353.04 319.812 353.04C318.312 353.04 316.872 354.36 316.872 357.63C316.872 360.99 318.132 363.33 320.202 363.33Z" fill="#242424"/>
<path opacity="0.75" d="M46.8105 401L43.9866 390.818H45.6024L47.586 398.703H47.6805L49.7437 390.818H51.3445L53.4078 398.708H53.5022L55.4809 390.818H57.1017L54.2728 401H52.7267L50.5839 393.374H50.5044L48.3616 401H46.8105ZM60.9223 401.154C60.17 401.154 59.522 400.993 58.9784 400.672C58.4382 400.347 58.0206 399.891 57.7256 399.305C57.4339 398.715 57.2881 398.024 57.2881 397.232C57.2881 396.449 57.4339 395.76 57.7256 395.163C58.0206 394.567 58.4316 394.101 58.9585 393.766C59.4888 393.432 60.1086 393.264 60.8179 393.264C61.2488 393.264 61.6664 393.335 62.0708 393.478C62.4751 393.621 62.838 393.844 63.1595 394.149C63.481 394.454 63.7346 394.85 63.9202 395.337C64.1058 395.821 64.1986 396.41 64.1986 397.102V397.629H58.1283V396.516H62.7419C62.7419 396.125 62.6624 395.778 62.5033 395.477C62.3442 395.172 62.1205 394.931 61.8321 394.756C61.5471 394.58 61.2123 394.492 60.8279 394.492C60.4102 394.492 60.0457 394.595 59.7341 394.8C59.4259 395.003 59.1872 395.268 59.0182 395.596C58.8525 395.921 58.7696 396.274 58.7696 396.655V397.525C58.7696 398.035 58.8591 398.469 59.0381 398.827C59.2204 399.185 59.4739 399.459 59.7987 399.648C60.1236 399.833 60.503 399.926 60.9372 399.926C61.219 399.926 61.4758 399.886 61.7078 399.807C61.9398 399.724 62.1404 399.601 62.3094 399.439C62.4784 399.277 62.6077 399.076 62.6972 398.837L64.1041 399.091C63.9914 399.505 63.7893 399.868 63.4976 400.18C63.2093 400.488 62.8463 400.728 62.4088 400.901C61.9746 401.07 61.4791 401.154 60.9223 401.154ZM72.7696 401.154C72.0305 401.154 71.3941 400.987 70.8605 400.652C70.3302 400.314 69.9226 399.848 69.6375 399.255C69.3525 398.662 69.21 397.982 69.21 397.217C69.21 396.441 69.3558 395.757 69.6475 395.163C69.9391 394.567 70.3501 394.101 70.8804 393.766C71.4107 393.432 72.0355 393.264 72.7547 393.264C73.3347 393.264 73.8518 393.372 74.3058 393.587C74.7599 393.799 75.1262 394.098 75.4046 394.482C75.6863 394.867 75.8537 395.316 75.9067 395.83H74.46C74.3804 395.472 74.1981 395.163 73.9131 394.905C73.6314 394.646 73.2535 394.517 72.7796 394.517C72.3653 394.517 72.0023 394.626 71.6908 394.845C71.3825 395.061 71.1423 395.369 70.9699 395.77C70.7976 396.168 70.7114 396.638 70.7114 397.182C70.7114 397.739 70.7959 398.219 70.9649 398.624C71.134 399.028 71.3726 399.341 71.6808 399.563C71.9924 399.785 72.3586 399.896 72.7796 399.896C73.0613 399.896 73.3165 399.845 73.5452 399.742C73.7772 399.636 73.9711 399.485 74.1269 399.29C74.286 399.094 74.397 398.859 74.46 398.584H75.9067C75.8537 399.078 75.6929 399.518 75.4244 399.906C75.156 400.294 74.7964 400.599 74.3456 400.821C73.8982 401.043 73.3728 401.154 72.7696 401.154ZM80.713 401.154C79.9971 401.154 79.3723 400.99 78.8387 400.662C78.3051 400.334 77.8908 399.875 77.5958 399.285C77.3008 398.695 77.1533 398.005 77.1533 397.217C77.1533 396.424 77.3008 395.732 77.5958 395.138C77.8908 394.545 78.3051 394.085 78.8387 393.756C79.3723 393.428 79.9971 393.264 80.713 393.264C81.4289 393.264 82.0537 393.428 82.5873 393.756C83.1209 394.085 83.5352 394.545 83.8302 395.138C84.1251 395.732 84.2726 396.424 84.2726 397.217C84.2726 398.005 84.1251 398.695 83.8302 399.285C83.5352 399.875 83.1209 400.334 82.5873 400.662C82.0537 400.99 81.4289 401.154 80.713 401.154ZM80.718 399.906C81.182 399.906 81.5664 399.784 81.8714 399.538C82.1763 399.293 82.4017 398.967 82.5475 398.559C82.6966 398.151 82.7712 397.702 82.7712 397.212C82.7712 396.724 82.6966 396.277 82.5475 395.869C82.4017 395.458 82.1763 395.129 81.8714 394.88C81.5664 394.631 81.182 394.507 80.718 394.507C80.2506 394.507 79.8628 394.631 79.5546 394.88C79.2497 395.129 79.0226 395.458 78.8735 395.869C78.7277 396.277 78.6547 396.724 78.6547 397.212C78.6547 397.702 78.7277 398.151 78.8735 398.559C79.0226 398.967 79.2497 399.293 79.5546 399.538C79.8628 399.784 80.2506 399.906 80.718 399.906ZM90.7693 397.833V393.364H92.2607V401H90.7991V399.678H90.7195C90.5439 400.085 90.2622 400.425 89.8744 400.697C89.4899 400.965 89.011 401.099 88.4376 401.099C87.9471 401.099 87.5129 400.992 87.135 400.776C86.7605 400.558 86.4655 400.234 86.2501 399.807C86.038 399.379 85.9319 398.851 85.9319 398.221V393.364H87.4184V398.042C87.4184 398.562 87.5626 398.977 87.8509 399.285C88.1393 399.593 88.5138 399.747 88.9745 399.747C89.2529 399.747 89.5297 399.678 89.8048 399.538C90.0832 399.399 90.3135 399.189 90.4958 398.907C90.6814 398.625 90.7726 398.267 90.7693 397.833ZM95.7446 390.818V401H94.2581V390.818H95.7446ZM100.603 401.149C99.9866 401.149 99.4364 400.992 98.9525 400.677C98.4719 400.359 98.0941 399.906 97.819 399.32C97.5472 398.73 97.4113 398.022 97.4113 397.197C97.4113 396.371 97.5489 395.665 97.824 395.079C98.1024 394.492 98.4835 394.043 98.9674 393.732C99.4513 393.42 99.9999 393.264 100.613 393.264C101.087 393.264 101.468 393.344 101.756 393.503C102.048 393.659 102.274 393.841 102.433 394.05C102.595 394.259 102.721 394.442 102.81 394.602H102.9V390.818H104.386V401H102.935V399.812H102.81C102.721 399.974 102.592 400.16 102.423 400.369C102.257 400.577 102.028 400.76 101.737 400.915C101.445 401.071 101.067 401.149 100.603 401.149ZM100.931 399.881C101.359 399.881 101.72 399.769 102.015 399.543C102.313 399.315 102.539 398.998 102.691 398.594C102.847 398.189 102.925 397.719 102.925 397.182C102.925 396.652 102.849 396.187 102.696 395.79C102.544 395.392 102.32 395.082 102.025 394.86C101.73 394.638 101.365 394.527 100.931 394.527C100.484 394.527 100.111 394.643 99.8126 394.875C99.5143 395.107 99.2889 395.424 99.1365 395.825C98.9873 396.226 98.9127 396.678 98.9127 397.182C98.9127 397.692 98.989 398.151 99.1414 398.559C99.2939 398.967 99.5193 399.29 99.8176 399.528C100.119 399.764 100.49 399.881 100.931 399.881ZM107.995 396.466V401H106.508V393.364H107.935V394.607H108.029C108.205 394.202 108.48 393.877 108.855 393.632C109.233 393.387 109.708 393.264 110.282 393.264C110.802 393.264 111.258 393.374 111.649 393.592C112.04 393.808 112.343 394.129 112.559 394.557C112.774 394.984 112.882 395.513 112.882 396.143V401H111.395V396.322C111.395 395.768 111.251 395.336 110.963 395.024C110.674 394.709 110.278 394.552 109.774 394.552C109.43 394.552 109.123 394.626 108.855 394.776C108.59 394.925 108.379 395.143 108.223 395.432C108.071 395.717 107.995 396.062 107.995 396.466ZM116.153 390.818V391.773C116.153 392.054 116.1 392.351 115.994 392.663C115.891 392.971 115.745 393.268 115.556 393.553C115.367 393.838 115.145 394.083 114.89 394.288L114.154 393.761C114.35 393.476 114.519 393.173 114.661 392.852C114.807 392.53 114.88 392.175 114.88 391.788V390.818H116.153ZM121.448 393.364V394.557H117.277V393.364H121.448ZM118.395 391.534H119.882V398.758C119.882 399.046 119.925 399.263 120.011 399.409C120.097 399.552 120.208 399.649 120.344 399.702C120.483 399.752 120.634 399.777 120.796 399.777C120.916 399.777 121.02 399.769 121.11 399.752C121.199 399.736 121.269 399.722 121.318 399.712L121.587 400.94C121.501 400.973 121.378 401.007 121.219 401.04C121.06 401.076 120.861 401.096 120.622 401.099C120.231 401.106 119.867 401.036 119.529 400.891C119.191 400.745 118.917 400.519 118.708 400.214C118.5 399.91 118.395 399.527 118.395 399.066V391.534ZM130.431 393.364V394.557H126.116V393.364H130.431ZM127.299 401V392.479C127.299 392.001 127.404 391.605 127.612 391.29C127.821 390.972 128.098 390.735 128.443 390.58C128.787 390.42 129.162 390.341 129.566 390.341C129.865 390.341 130.12 390.366 130.332 390.415C130.544 390.462 130.701 390.505 130.804 390.545L130.456 391.748C130.387 391.728 130.297 391.705 130.188 391.678C130.078 391.648 129.946 391.634 129.79 391.634C129.429 391.634 129.17 391.723 129.014 391.902C128.862 392.081 128.786 392.339 128.786 392.678V401H127.299ZM131.965 401V393.364H133.452V401H131.965ZM132.716 392.185C132.457 392.185 132.235 392.099 132.05 391.927C131.867 391.751 131.776 391.542 131.776 391.3C131.776 391.055 131.867 390.846 132.05 390.674C132.235 390.498 132.457 390.411 132.716 390.411C132.974 390.411 133.195 390.498 133.377 390.674C133.563 390.846 133.655 391.055 133.655 391.3C133.655 391.542 133.563 391.751 133.377 391.927C133.195 392.099 132.974 392.185 132.716 392.185ZM136.938 396.466V401H135.451V393.364H136.878V394.607H136.973C137.148 394.202 137.424 393.877 137.798 393.632C138.176 393.387 138.651 393.264 139.225 393.264C139.745 393.264 140.201 393.374 140.592 393.592C140.983 393.808 141.286 394.129 141.502 394.557C141.717 394.984 141.825 395.513 141.825 396.143V401H140.339V396.322C140.339 395.768 140.194 395.336 139.906 395.024C139.618 394.709 139.222 394.552 138.718 394.552C138.373 394.552 138.066 394.626 137.798 394.776C137.533 394.925 137.322 395.143 137.167 395.432C137.014 395.717 136.938 396.062 136.938 396.466ZM146.677 401.149C146.061 401.149 145.511 400.992 145.027 400.677C144.546 400.359 144.168 399.906 143.893 399.32C143.621 398.73 143.486 398.022 143.486 397.197C143.486 396.371 143.623 395.665 143.898 395.079C144.177 394.492 144.558 394.043 145.042 393.732C145.526 393.42 146.074 393.264 146.687 393.264C147.161 393.264 147.542 393.344 147.831 393.503C148.122 393.659 148.348 393.841 148.507 394.05C148.669 394.259 148.795 394.442 148.885 394.602H148.974V390.818H150.461V401H149.009V399.812H148.885C148.795 399.974 148.666 400.16 148.497 400.369C148.331 400.577 148.102 400.76 147.811 400.915C147.519 401.071 147.141 401.149 146.677 401.149ZM147.005 399.881C147.433 399.881 147.794 399.769 148.089 399.543C148.388 399.315 148.613 398.998 148.765 398.594C148.921 398.189 148.999 397.719 148.999 397.182C148.999 396.652 148.923 396.187 148.77 395.79C148.618 395.392 148.394 395.082 148.099 394.86C147.804 394.638 147.44 394.527 147.005 394.527C146.558 394.527 146.185 394.643 145.887 394.875C145.589 395.107 145.363 395.424 145.211 395.825C145.062 396.226 144.987 396.678 144.987 397.182C144.987 397.692 145.063 398.151 145.216 398.559C145.368 398.967 145.593 399.29 145.892 399.528C146.193 399.764 146.565 399.881 147.005 399.881ZM158.51 401.169C158.026 401.169 157.588 401.08 157.197 400.901C156.806 400.718 156.496 400.455 156.267 400.11C156.042 399.765 155.929 399.343 155.929 398.842C155.929 398.411 156.012 398.057 156.178 397.778C156.344 397.5 156.567 397.28 156.849 397.117C157.131 396.955 157.446 396.832 157.794 396.749C158.142 396.666 158.496 396.603 158.858 396.56C159.315 396.507 159.686 396.464 159.971 396.431C160.256 396.395 160.464 396.337 160.593 396.257C160.722 396.178 160.787 396.048 160.787 395.869V395.835C160.787 395.4 160.664 395.064 160.419 394.825C160.177 394.587 159.816 394.467 159.335 394.467C158.834 394.467 158.44 394.578 158.152 394.8C157.867 395.019 157.669 395.263 157.56 395.531L156.163 395.213C156.329 394.749 156.571 394.375 156.889 394.089C157.21 393.801 157.58 393.592 157.998 393.463C158.415 393.33 158.854 393.264 159.315 393.264C159.62 393.264 159.943 393.301 160.285 393.374C160.629 393.443 160.951 393.572 161.249 393.761C161.551 393.95 161.798 394.22 161.99 394.572C162.182 394.92 162.278 395.372 162.278 395.929V401H160.826V399.956H160.767C160.671 400.148 160.526 400.337 160.334 400.523C160.142 400.708 159.895 400.862 159.593 400.985C159.292 401.108 158.931 401.169 158.51 401.169ZM158.833 399.976C159.244 399.976 159.595 399.895 159.887 399.732C160.182 399.57 160.406 399.358 160.558 399.096C160.714 398.831 160.792 398.547 160.792 398.246V397.261C160.739 397.314 160.636 397.364 160.483 397.411C160.334 397.454 160.164 397.492 159.971 397.525C159.779 397.555 159.592 397.583 159.41 397.609C159.227 397.633 159.075 397.652 158.952 397.669C158.664 397.705 158.4 397.767 158.162 397.853C157.926 397.939 157.737 398.063 157.595 398.226C157.456 398.385 157.386 398.597 157.386 398.862C157.386 399.23 157.522 399.509 157.794 399.697C158.066 399.883 158.412 399.976 158.833 399.976ZM165.745 396.466V401H164.258V393.364H165.685V394.607H165.779C165.955 394.202 166.23 393.877 166.605 393.632C166.983 393.387 167.458 393.264 168.032 393.264C168.552 393.264 169.008 393.374 169.399 393.592C169.79 393.808 170.093 394.129 170.309 394.557C170.524 394.984 170.632 395.513 170.632 396.143V401H169.145V396.322C169.145 395.768 169.001 395.336 168.713 395.024C168.424 394.709 168.028 394.552 167.524 394.552C167.18 394.552 166.873 394.626 166.605 394.776C166.34 394.925 166.129 395.143 165.973 395.432C165.821 395.717 165.745 396.062 165.745 396.466ZM176.33 401V393.364H177.817V401H176.33ZM177.081 392.185C176.823 392.185 176.6 392.099 176.415 391.927C176.233 391.751 176.141 391.542 176.141 391.3C176.141 391.055 176.233 390.846 176.415 390.674C176.6 390.498 176.823 390.411 177.081 390.411C177.34 390.411 177.56 390.498 177.742 390.674C177.928 390.846 178.021 391.055 178.021 391.3C178.021 391.542 177.928 391.751 177.742 391.927C177.56 392.099 177.34 392.185 177.081 392.185ZM181.303 396.466V401H179.817V393.364H181.244V394.607H181.338C181.514 394.202 181.789 393.877 182.163 393.632C182.541 393.387 183.017 393.264 183.59 393.264C184.11 393.264 184.566 393.374 184.957 393.592C185.348 393.808 185.652 394.129 185.867 394.557C186.083 394.984 186.19 395.513 186.19 396.143V401H184.704V396.322C184.704 395.768 184.56 395.336 184.271 395.024C183.983 394.709 183.587 394.552 183.083 394.552C182.738 394.552 182.432 394.626 182.163 394.776C181.898 394.925 181.688 395.143 181.532 395.432C181.379 395.717 181.303 396.062 181.303 396.466ZM194.443 393.364L191.674 401H190.083L187.309 393.364H188.905L190.839 399.24H190.918L192.847 393.364H194.443ZM195.84 401V393.364H197.327V401H195.84ZM196.591 392.185C196.332 392.185 196.11 392.099 195.925 391.927C195.742 391.751 195.651 391.542 195.651 391.3C195.651 391.055 195.742 390.846 195.925 390.674C196.11 390.498 196.332 390.411 196.591 390.411C196.849 390.411 197.07 390.498 197.252 390.674C197.438 390.846 197.53 391.055 197.53 391.3C197.53 391.542 197.438 391.751 197.252 391.927C197.07 392.099 196.849 392.185 196.591 392.185ZM202.891 393.364V394.557H198.72V393.364H202.891ZM199.839 391.534H201.325V398.758C201.325 399.046 201.368 399.263 201.454 399.409C201.54 399.552 201.651 399.649 201.787 399.702C201.927 399.752 202.077 399.777 202.24 399.777C202.359 399.777 202.464 399.769 202.553 399.752C202.642 399.736 202.712 399.722 202.762 399.712L203.03 400.94C202.944 400.973 202.821 401.007 202.662 401.04C202.503 401.076 202.304 401.096 202.066 401.099C201.675 401.106 201.31 401.036 200.972 400.891C200.634 400.745 200.361 400.519 200.152 400.214C199.943 399.91 199.839 399.527 199.839 399.066V391.534ZM207.745 401.154C206.992 401.154 206.344 400.993 205.801 400.672C205.26 400.347 204.843 399.891 204.548 399.305C204.256 398.715 204.11 398.024 204.11 397.232C204.11 396.449 204.256 395.76 204.548 395.163C204.843 394.567 205.254 394.101 205.781 393.766C206.311 393.432 206.931 393.264 207.64 393.264C208.071 393.264 208.489 393.335 208.893 393.478C209.297 393.621 209.66 393.844 209.982 394.149C210.303 394.454 210.557 394.85 210.742 395.337C210.928 395.821 211.021 396.41 211.021 397.102V397.629H204.951V396.516H209.564C209.564 396.125 209.485 395.778 209.326 395.477C209.166 395.172 208.943 394.931 208.654 394.756C208.369 394.58 208.035 394.492 207.65 394.492C207.233 394.492 206.868 394.595 206.556 394.8C206.248 395.003 206.009 395.268 205.84 395.596C205.675 395.921 205.592 396.274 205.592 396.655V397.525C205.592 398.035 205.681 398.469 205.86 398.827C206.043 399.185 206.296 399.459 206.621 399.648C206.946 399.833 207.325 399.926 207.759 399.926C208.041 399.926 208.298 399.886 208.53 399.807C208.762 399.724 208.963 399.601 209.132 399.439C209.301 399.277 209.43 399.076 209.519 398.837L210.926 399.091C210.814 399.505 210.612 399.868 210.32 400.18C210.032 400.488 209.669 400.728 209.231 400.901C208.797 401.07 208.301 401.154 207.745 401.154ZM220.009 393.364V394.557H215.694V393.364H220.009ZM216.877 401V392.479C216.877 392.001 216.982 391.605 217.191 391.29C217.399 390.972 217.676 390.735 218.021 390.58C218.366 390.42 218.74 390.341 219.144 390.341C219.443 390.341 219.698 390.366 219.91 390.415C220.122 390.462 220.28 390.505 220.382 390.545L220.034 391.748C219.965 391.728 219.875 391.705 219.766 391.678C219.657 391.648 219.524 391.634 219.368 391.634C219.007 391.634 218.748 391.723 218.593 391.902C218.44 392.081 218.364 392.339 218.364 392.678V401H216.877ZM224.459 401.154C223.743 401.154 223.118 400.99 222.585 400.662C222.051 400.334 221.637 399.875 221.342 399.285C221.047 398.695 220.899 398.005 220.899 397.217C220.899 396.424 221.047 395.732 221.342 395.138C221.637 394.545 222.051 394.085 222.585 393.756C223.118 393.428 223.743 393.264 224.459 393.264C225.175 393.264 225.8 393.428 226.333 393.756C226.867 394.085 227.281 394.545 227.576 395.138C227.871 395.732 228.019 396.424 228.019 397.217C228.019 398.005 227.871 398.695 227.576 399.285C227.281 399.875 226.867 400.334 226.333 400.662C225.8 400.99 225.175 401.154 224.459 401.154ZM224.464 399.906C224.928 399.906 225.313 399.784 225.617 399.538C225.922 399.293 226.148 398.967 226.294 398.559C226.443 398.151 226.517 397.702 226.517 397.212C226.517 396.724 226.443 396.277 226.294 395.869C226.148 395.458 225.922 395.129 225.617 394.88C225.313 394.631 224.928 394.507 224.464 394.507C223.997 394.507 223.609 394.631 223.301 394.88C222.996 395.129 222.769 395.458 222.62 395.869C222.474 396.277 222.401 396.724 222.401 397.212C222.401 397.702 222.474 398.151 222.62 398.559C222.769 398.967 222.996 399.293 223.301 399.538C223.609 399.784 223.997 399.906 224.464 399.906ZM229.678 401V393.364H231.115V394.577H231.194C231.334 394.166 231.579 393.843 231.93 393.607C232.285 393.369 232.686 393.249 233.133 393.249C233.226 393.249 233.335 393.253 233.461 393.259C233.591 393.266 233.692 393.274 233.765 393.284V394.706C233.705 394.689 233.599 394.671 233.446 394.651C233.294 394.628 233.142 394.616 232.989 394.616C232.638 394.616 232.325 394.691 232.049 394.84C231.778 394.986 231.562 395.19 231.403 395.452C231.244 395.71 231.165 396.005 231.165 396.337V401H229.678ZM242.321 393.364V394.557H238.15V393.364H242.321ZM239.268 391.534H240.755V398.758C240.755 399.046 240.798 399.263 240.884 399.409C240.97 399.552 241.081 399.649 241.217 399.702C241.356 399.752 241.507 399.777 241.669 399.777C241.789 399.777 241.893 399.769 241.983 399.752C242.072 399.736 242.142 399.722 242.191 399.712L242.46 400.94C242.374 400.973 242.251 401.007 242.092 401.04C241.933 401.076 241.734 401.096 241.495 401.099C241.104 401.106 240.74 401.036 240.402 400.891C240.064 400.745 239.79 400.519 239.581 400.214C239.373 399.91 239.268 399.527 239.268 399.066V391.534ZM245.616 396.466V401H244.129V390.818H245.596V394.607H245.69C245.869 394.196 246.143 393.869 246.511 393.627C246.878 393.385 247.359 393.264 247.952 393.264C248.476 393.264 248.933 393.372 249.324 393.587C249.719 393.803 250.024 394.124 250.239 394.552C250.458 394.976 250.567 395.506 250.567 396.143V401H249.081V396.322C249.081 395.762 248.937 395.327 248.648 395.019C248.36 394.708 247.959 394.552 247.445 394.552C247.094 394.552 246.779 394.626 246.501 394.776C246.226 394.925 246.008 395.143 245.849 395.432C245.694 395.717 245.616 396.062 245.616 396.466ZM254.773 401.169C254.289 401.169 253.852 401.08 253.461 400.901C253.07 400.718 252.76 400.455 252.531 400.11C252.306 399.765 252.193 399.343 252.193 398.842C252.193 398.411 252.276 398.057 252.442 397.778C252.607 397.5 252.831 397.28 253.113 397.117C253.395 396.955 253.709 396.832 254.057 396.749C254.405 396.666 254.76 396.603 255.121 396.56C255.579 396.507 255.95 396.464 256.235 396.431C256.52 396.395 256.727 396.337 256.856 396.257C256.986 396.178 257.05 396.048 257.05 395.869V395.835C257.05 395.4 256.928 395.064 256.682 394.825C256.44 394.587 256.079 394.467 255.599 394.467C255.098 394.467 254.704 394.578 254.415 394.8C254.13 395.019 253.933 395.263 253.824 395.531L252.427 395.213C252.592 394.749 252.834 394.375 253.153 394.089C253.474 393.801 253.844 393.592 254.261 393.463C254.679 393.33 255.118 393.264 255.579 393.264C255.884 393.264 256.207 393.301 256.548 393.374C256.893 393.443 257.214 393.572 257.513 393.761C257.814 393.95 258.061 394.22 258.253 394.572C258.446 394.92 258.542 395.372 258.542 395.929V401H257.09V399.956H257.03C256.934 400.148 256.79 400.337 256.598 400.523C256.406 400.708 256.159 400.862 255.857 400.985C255.556 401.108 255.194 401.169 254.773 401.169ZM255.097 399.976C255.507 399.976 255.859 399.895 256.15 399.732C256.445 399.57 256.669 399.358 256.822 399.096C256.977 398.831 257.055 398.547 257.055 398.246V397.261C257.002 397.314 256.9 397.364 256.747 397.411C256.598 397.454 256.427 397.492 256.235 397.525C256.043 397.555 255.855 397.583 255.673 397.609C255.491 397.633 255.338 397.652 255.216 397.669C254.927 397.705 254.664 397.767 254.425 397.853C254.19 397.939 254.001 398.063 253.859 398.226C253.719 398.385 253.65 398.597 253.65 398.862C253.65 399.23 253.786 399.509 254.057 399.697C254.329 399.883 254.676 399.976 255.097 399.976ZM264.086 393.364V394.557H259.915V393.364H264.086ZM261.034 391.534H262.52V398.758C262.52 399.046 262.563 399.263 262.65 399.409C262.736 399.552 262.847 399.649 262.983 399.702C263.122 399.752 263.273 399.777 263.435 399.777C263.554 399.777 263.659 399.769 263.748 399.752C263.838 399.736 263.907 399.722 263.957 399.712L264.226 400.94C264.139 400.973 264.017 401.007 263.858 401.04C263.699 401.076 263.5 401.096 263.261 401.099C262.87 401.106 262.505 401.036 262.167 400.891C261.829 400.745 261.556 400.519 261.347 400.214C261.138 399.91 261.034 399.527 261.034 399.066V391.534ZM272.652 401.154C271.913 401.154 271.277 400.987 270.743 400.652C270.213 400.314 269.805 399.848 269.52 399.255C269.235 398.662 269.093 397.982 269.093 397.217C269.093 396.441 269.239 395.757 269.53 395.163C269.822 394.567 270.233 394.101 270.763 393.766C271.294 393.432 271.918 393.264 272.638 393.264C273.218 393.264 273.735 393.372 274.189 393.587C274.643 393.799 275.009 394.098 275.287 394.482C275.569 394.867 275.736 395.316 275.79 395.83H274.343C274.263 395.472 274.081 395.163 273.796 394.905C273.514 394.646 273.136 394.517 272.662 394.517C272.248 394.517 271.885 394.626 271.574 394.845C271.265 395.061 271.025 395.369 270.853 395.77C270.68 396.168 270.594 396.638 270.594 397.182C270.594 397.739 270.679 398.219 270.848 398.624C271.017 399.028 271.255 399.341 271.564 399.563C271.875 399.785 272.241 399.896 272.662 399.896C272.944 399.896 273.199 399.845 273.428 399.742C273.66 399.636 273.854 399.485 274.01 399.29C274.169 399.094 274.28 398.859 274.343 398.584H275.79C275.736 399.078 275.576 399.518 275.307 399.906C275.039 400.294 274.679 400.599 274.228 400.821C273.781 401.043 273.256 401.154 272.652 401.154ZM280.596 401.154C279.88 401.154 279.255 400.99 278.722 400.662C278.188 400.334 277.774 399.875 277.479 399.285C277.184 398.695 277.036 398.005 277.036 397.217C277.036 396.424 277.184 395.732 277.479 395.138C277.774 394.545 278.188 394.085 278.722 393.756C279.255 393.428 279.88 393.264 280.596 393.264C281.312 393.264 281.936 393.428 282.47 393.756C283.004 394.085 283.418 394.545 283.713 395.138C284.008 395.732 284.155 396.424 284.155 397.217C284.155 398.005 284.008 398.695 283.713 399.285C283.418 399.875 283.004 400.334 282.47 400.662C281.936 400.99 281.312 401.154 280.596 401.154ZM280.601 399.906C281.065 399.906 281.449 399.784 281.754 399.538C282.059 399.293 282.284 398.967 282.43 398.559C282.579 398.151 282.654 397.702 282.654 397.212C282.654 396.724 282.579 396.277 282.43 395.869C282.284 395.458 282.059 395.129 281.754 394.88C281.449 394.631 281.065 394.507 280.601 394.507C280.133 394.507 279.746 394.631 279.437 394.88C279.132 395.129 278.905 395.458 278.756 395.869C278.61 396.277 278.538 396.724 278.538 397.212C278.538 397.702 278.61 398.151 278.756 398.559C278.905 398.967 279.132 399.293 279.437 399.538C279.746 399.784 280.133 399.906 280.601 399.906ZM288.673 401.149C288.057 401.149 287.507 400.992 287.023 400.677C286.542 400.359 286.164 399.906 285.889 399.32C285.618 398.73 285.482 398.022 285.482 397.197C285.482 396.371 285.619 395.665 285.894 395.079C286.173 394.492 286.554 394.043 287.038 393.732C287.522 393.42 288.07 393.264 288.683 393.264C289.157 393.264 289.538 393.344 289.827 393.503C290.118 393.659 290.344 393.841 290.503 394.05C290.665 394.259 290.791 394.442 290.881 394.602H290.97V390.818H292.457V401H291.005V399.812H290.881C290.791 399.974 290.662 400.16 290.493 400.369C290.327 400.577 290.099 400.76 289.807 400.915C289.515 401.071 289.137 401.149 288.673 401.149ZM289.002 399.881C289.429 399.881 289.79 399.769 290.085 399.543C290.384 399.315 290.609 398.998 290.761 398.594C290.917 398.189 290.995 397.719 290.995 397.182C290.995 396.652 290.919 396.187 290.766 395.79C290.614 395.392 290.39 395.082 290.095 394.86C289.8 394.638 289.436 394.527 289.002 394.527C288.554 394.527 288.181 394.643 287.883 394.875C287.585 395.107 287.359 395.424 287.207 395.825C287.058 396.226 286.983 396.678 286.983 397.182C286.983 397.692 287.059 398.151 287.212 398.559C287.364 398.967 287.59 399.29 287.888 399.528C288.189 399.764 288.561 399.881 289.002 399.881ZM297.87 401.154C297.117 401.154 296.469 400.993 295.926 400.672C295.385 400.347 294.968 399.891 294.673 399.305C294.381 398.715 294.235 398.024 294.235 397.232C294.235 396.449 294.381 395.76 294.673 395.163C294.968 394.567 295.379 394.101 295.906 393.766C296.436 393.432 297.056 393.264 297.765 393.264C298.196 393.264 298.614 393.335 299.018 393.478C299.422 393.621 299.785 393.844 300.107 394.149C300.428 394.454 300.682 394.85 300.867 395.337C301.053 395.821 301.146 396.41 301.146 397.102V397.629H295.076V396.516H299.689C299.689 396.125 299.61 395.778 299.451 395.477C299.291 395.172 299.068 394.931 298.779 394.756C298.494 394.58 298.16 394.492 297.775 394.492C297.358 394.492 296.993 394.595 296.681 394.8C296.373 395.003 296.134 395.268 295.965 395.596C295.8 395.921 295.717 396.274 295.717 396.655V397.525C295.717 398.035 295.806 398.469 295.985 398.827C296.168 399.185 296.421 399.459 296.746 399.648C297.071 399.833 297.45 399.926 297.884 399.926C298.166 399.926 298.423 399.886 298.655 399.807C298.887 399.724 299.088 399.601 299.257 399.439C299.426 399.277 299.555 399.076 299.644 398.837L301.051 399.091C300.939 399.505 300.737 399.868 300.445 400.18C300.157 400.488 299.794 400.728 299.356 400.901C298.922 401.07 298.426 401.154 297.87 401.154ZM303.775 401.094C303.503 401.094 303.269 400.998 303.074 400.806C302.878 400.611 302.78 400.375 302.78 400.1C302.78 399.828 302.878 399.596 303.074 399.404C303.269 399.209 303.503 399.111 303.775 399.111C304.046 399.111 304.28 399.209 304.476 399.404C304.671 399.596 304.769 399.828 304.769 400.1C304.769 400.282 304.723 400.45 304.63 400.602C304.54 400.751 304.421 400.871 304.272 400.96C304.123 401.05 303.957 401.094 303.775 401.094ZM79.5502 421V410.818H83.1795C83.9717 410.818 84.6279 410.962 85.1483 411.251C85.6686 411.539 86.0581 411.933 86.3166 412.434C86.5751 412.931 86.7044 413.491 86.7044 414.114C86.7044 414.741 86.5734 415.304 86.3116 415.805C86.0531 416.302 85.662 416.696 85.1383 416.988C84.618 417.276 83.9634 417.42 83.1745 417.42H80.6788V416.118H83.0353C83.5358 416.118 83.9418 416.032 84.2534 415.859C84.5649 415.684 84.7936 415.445 84.9395 415.143C85.0853 414.842 85.1582 414.499 85.1582 414.114C85.1582 413.73 85.0853 413.388 84.9395 413.09C84.7936 412.792 84.5633 412.558 84.2484 412.389C83.9368 412.22 83.5259 412.136 83.0154 412.136H81.0865V421H79.5502ZM89.8725 410.818V421H88.386V410.818H89.8725ZM95.1635 421.154C94.4112 421.154 93.7632 420.993 93.2196 420.672C92.6794 420.347 92.2618 419.891 91.9668 419.305C91.6751 418.715 91.5293 418.024 91.5293 417.232C91.5293 416.449 91.6751 415.76 91.9668 415.163C92.2618 414.567 92.6728 414.101 93.1998 413.766C93.7301 413.432 94.3498 413.264 95.0591 413.264C95.49 413.264 95.9076 413.335 96.312 413.478C96.7163 413.621 97.0792 413.844 97.4007 414.149C97.7222 414.454 97.9758 414.85 98.1614 415.337C98.347 415.821 98.4398 416.41 98.4398 417.102V417.629H92.3695V416.516H96.9831C96.9831 416.125 96.9036 415.778 96.7445 415.477C96.5854 415.172 96.3617 414.931 96.0733 414.756C95.7883 414.58 95.4535 414.492 95.0691 414.492C94.6515 414.492 94.2869 414.595 93.9753 414.8C93.6671 415.003 93.4284 415.268 93.2594 415.596C93.0937 415.921 93.0108 416.274 93.0108 416.655V417.525C93.0108 418.035 93.1003 418.469 93.2793 418.827C93.4616 419.185 93.7151 419.459 94.04 419.648C94.3648 419.833 94.7443 419.926 95.1784 419.926C95.4602 419.926 95.717 419.886 95.949 419.807C96.181 419.724 96.3816 419.601 96.5506 419.439C96.7196 419.277 96.8489 419.076 96.9384 418.837L98.3453 419.091C98.2327 419.505 98.0305 419.868 97.7388 420.18C97.4505 420.488 97.0875 420.728 96.65 420.901C96.2158 421.07 95.7203 421.154 95.1635 421.154ZM102.311 421.169C101.828 421.169 101.39 421.08 100.999 420.901C100.608 420.718 100.298 420.455 100.069 420.11C99.8439 419.765 99.7312 419.343 99.7312 418.842C99.7312 418.411 99.814 418.057 99.9798 417.778C100.145 417.5 100.369 417.28 100.651 417.117C100.933 416.955 101.248 416.832 101.596 416.749C101.944 416.666 102.298 416.603 102.659 416.56C103.117 416.507 103.488 416.464 103.773 416.431C104.058 416.395 104.265 416.337 104.395 416.257C104.524 416.178 104.588 416.048 104.588 415.869V415.835C104.588 415.4 104.466 415.064 104.221 414.825C103.979 414.587 103.617 414.467 103.137 414.467C102.636 414.467 102.242 414.578 101.953 414.8C101.668 415.019 101.471 415.263 101.362 415.531L99.9648 415.213C100.131 414.749 100.373 414.375 100.691 414.089C101.012 413.801 101.382 413.592 101.799 413.463C102.217 413.33 102.656 413.264 103.117 413.264C103.422 413.264 103.745 413.301 104.086 413.374C104.431 413.443 104.752 413.572 105.051 413.761C105.352 413.95 105.599 414.22 105.792 414.572C105.984 414.92 106.08 415.372 106.08 415.929V421H104.628V419.956H104.569C104.472 420.148 104.328 420.337 104.136 420.523C103.944 420.708 103.697 420.862 103.395 420.985C103.094 421.108 102.732 421.169 102.311 421.169ZM102.635 419.976C103.046 419.976 103.397 419.895 103.689 419.732C103.984 419.57 104.207 419.358 104.36 419.096C104.516 418.831 104.593 418.547 104.593 418.246V417.261C104.54 417.314 104.438 417.364 104.285 417.411C104.136 417.454 103.965 417.492 103.773 417.525C103.581 417.555 103.394 417.583 103.211 417.609C103.029 417.633 102.877 417.652 102.754 417.669C102.466 417.705 102.202 417.767 101.963 417.853C101.728 417.939 101.539 418.063 101.397 418.226C101.257 418.385 101.188 418.597 101.188 418.862C101.188 419.23 101.324 419.509 101.596 419.697C101.867 419.883 102.214 419.976 102.635 419.976ZM113.782 415.228L112.435 415.467C112.378 415.294 112.289 415.13 112.166 414.974C112.047 414.819 111.885 414.691 111.679 414.592C111.474 414.492 111.217 414.442 110.909 414.442C110.488 414.442 110.136 414.537 109.855 414.726C109.573 414.911 109.432 415.152 109.432 415.447C109.432 415.702 109.526 415.907 109.715 416.063C109.904 416.219 110.209 416.347 110.63 416.446L111.843 416.724C112.546 416.887 113.07 417.137 113.414 417.475C113.759 417.813 113.931 418.252 113.931 418.793C113.931 419.25 113.799 419.658 113.534 420.016C113.272 420.37 112.905 420.649 112.435 420.851C111.968 421.053 111.426 421.154 110.809 421.154C109.954 421.154 109.256 420.972 108.716 420.607C108.176 420.239 107.844 419.717 107.722 419.041L109.159 418.822C109.248 419.197 109.432 419.48 109.71 419.673C109.989 419.862 110.352 419.956 110.799 419.956C111.286 419.956 111.676 419.855 111.968 419.653C112.259 419.447 112.405 419.197 112.405 418.902C112.405 418.663 112.316 418.463 112.137 418.3C111.961 418.138 111.691 418.015 111.326 417.933L110.034 417.649C109.321 417.487 108.794 417.228 108.453 416.874C108.115 416.519 107.945 416.07 107.945 415.526C107.945 415.076 108.071 414.681 108.323 414.343C108.575 414.005 108.923 413.741 109.367 413.553C109.811 413.36 110.32 413.264 110.894 413.264C111.719 413.264 112.369 413.443 112.843 413.801C113.316 414.156 113.63 414.631 113.782 415.228ZM118.857 421.154C118.105 421.154 117.457 420.993 116.913 420.672C116.373 420.347 115.955 419.891 115.66 419.305C115.368 418.715 115.223 418.024 115.223 417.232C115.223 416.449 115.368 415.76 115.66 415.163C115.955 414.567 116.366 414.101 116.893 413.766C117.423 413.432 118.043 413.264 118.752 413.264C119.183 413.264 119.601 413.335 120.005 413.478C120.41 413.621 120.773 413.844 121.094 414.149C121.416 414.454 121.669 414.85 121.855 415.337C122.04 415.821 122.133 416.41 122.133 417.102V417.629H116.063V416.516H120.676C120.676 416.125 120.597 415.778 120.438 415.477C120.279 415.172 120.055 414.931 119.767 414.756C119.482 414.58 119.147 414.492 118.762 414.492C118.345 414.492 117.98 414.595 117.669 414.8C117.36 415.003 117.122 415.268 116.953 415.596C116.787 415.921 116.704 416.274 116.704 416.655V417.525C116.704 418.035 116.794 418.469 116.973 418.827C117.155 419.185 117.408 419.459 117.733 419.648C118.058 419.833 118.438 419.926 118.872 419.926C119.154 419.926 119.41 419.886 119.642 419.807C119.874 419.724 120.075 419.601 120.244 419.439C120.413 419.277 120.542 419.076 120.632 418.837L122.039 419.091C121.926 419.505 121.724 419.868 121.432 420.18C121.144 420.488 120.781 420.728 120.343 420.901C119.909 421.07 119.414 421.154 118.857 421.154ZM130.704 421.154C129.965 421.154 129.329 420.987 128.795 420.652C128.265 420.314 127.857 419.848 127.572 419.255C127.287 418.662 127.145 417.982 127.145 417.217C127.145 416.441 127.29 415.757 127.582 415.163C127.874 414.567 128.285 414.101 128.815 413.766C129.345 413.432 129.97 413.264 130.689 413.264C131.269 413.264 131.786 413.372 132.24 413.587C132.694 413.799 133.061 414.098 133.339 414.482C133.621 414.867 133.788 415.316 133.841 415.83H132.395C132.315 415.472 132.133 415.163 131.848 414.905C131.566 414.646 131.188 414.517 130.714 414.517C130.3 414.517 129.937 414.626 129.625 414.845C129.317 415.061 129.077 415.369 128.904 415.77C128.732 416.168 128.646 416.638 128.646 417.182C128.646 417.739 128.73 418.219 128.9 418.624C129.069 419.028 129.307 419.341 129.615 419.563C129.927 419.785 130.293 419.896 130.714 419.896C130.996 419.896 131.251 419.845 131.48 419.742C131.712 419.636 131.906 419.485 132.061 419.29C132.221 419.094 132.332 418.859 132.395 418.584H133.841C133.788 419.078 133.627 419.518 133.359 419.906C133.091 420.294 132.731 420.599 132.28 420.821C131.833 421.043 131.307 421.154 130.704 421.154ZM136.917 416.466V421H135.431V410.818H136.898V414.607H136.992C137.171 414.196 137.444 413.869 137.812 413.627C138.18 413.385 138.661 413.264 139.254 413.264C139.778 413.264 140.235 413.372 140.626 413.587C141.021 413.803 141.326 414.124 141.541 414.552C141.76 414.976 141.869 415.506 141.869 416.143V421H140.383V416.322C140.383 415.762 140.238 415.327 139.95 415.019C139.662 414.708 139.261 414.552 138.747 414.552C138.396 414.552 138.081 414.626 137.802 414.776C137.527 414.925 137.31 415.143 137.151 415.432C136.995 415.717 136.917 416.062 136.917 416.466ZM147.144 421.154C146.392 421.154 145.744 420.993 145.2 420.672C144.66 420.347 144.242 419.891 143.947 419.305C143.656 418.715 143.51 418.024 143.51 417.232C143.51 416.449 143.656 415.76 143.947 415.163C144.242 414.567 144.653 414.101 145.18 413.766C145.711 413.432 146.33 413.264 147.04 413.264C147.47 413.264 147.888 413.335 148.292 413.478C148.697 413.621 149.06 413.844 149.381 414.149C149.703 414.454 149.956 414.85 150.142 415.337C150.327 415.821 150.42 416.41 150.42 417.102V417.629H144.35V416.516H148.964C148.964 416.125 148.884 415.778 148.725 415.477C148.566 415.172 148.342 414.931 148.054 414.756C147.769 414.58 147.434 414.492 147.05 414.492C146.632 414.492 146.267 414.595 145.956 414.8C145.648 415.003 145.409 415.268 145.24 415.596C145.074 415.921 144.991 416.274 144.991 416.655V417.525C144.991 418.035 145.081 418.469 145.26 418.827C145.442 419.185 145.696 419.459 146.02 419.648C146.345 419.833 146.725 419.926 147.159 419.926C147.441 419.926 147.698 419.886 147.93 419.807C148.162 419.724 148.362 419.601 148.531 419.439C148.7 419.277 148.829 419.076 148.919 418.837L150.326 419.091C150.213 419.505 150.011 419.868 149.719 420.18C149.431 420.488 149.068 420.728 148.631 420.901C148.196 421.07 147.701 421.154 147.144 421.154ZM155.286 421.154C154.547 421.154 153.911 420.987 153.377 420.652C152.847 420.314 152.439 419.848 152.154 419.255C151.869 418.662 151.727 417.982 151.727 417.217C151.727 416.441 151.872 415.757 152.164 415.163C152.456 414.567 152.867 414.101 153.397 413.766C153.927 413.432 154.552 413.264 155.271 413.264C155.851 413.264 156.368 413.372 156.822 413.587C157.277 413.799 157.643 414.098 157.921 414.482C158.203 414.867 158.37 415.316 158.423 415.83H156.977C156.897 415.472 156.715 415.163 156.43 414.905C156.148 414.646 155.77 414.517 155.296 414.517C154.882 414.517 154.519 414.626 154.207 414.845C153.899 415.061 153.659 415.369 153.487 415.77C153.314 416.168 153.228 416.638 153.228 417.182C153.228 417.739 153.313 418.219 153.482 418.624C153.651 419.028 153.889 419.341 154.197 419.563C154.509 419.785 154.875 419.896 155.296 419.896C155.578 419.896 155.833 419.845 156.062 419.742C156.294 419.636 156.488 419.485 156.643 419.29C156.803 419.094 156.914 418.859 156.977 418.584H158.423C158.37 419.078 158.21 419.518 157.941 419.906C157.673 420.294 157.313 420.599 156.862 420.821C156.415 421.043 155.889 421.154 155.286 421.154ZM161.38 418.41L161.37 416.595H161.629L164.671 413.364H166.451L162.981 417.043H162.747L161.38 418.41ZM160.013 421V410.818H161.499V421H160.013ZM164.835 421L162.101 417.371L163.125 416.332L166.66 421H164.835ZM171.511 421V413.364H172.998V421H171.511ZM172.262 412.185C172.003 412.185 171.781 412.099 171.596 411.927C171.413 411.751 171.322 411.542 171.322 411.3C171.322 411.055 171.413 410.846 171.596 410.674C171.781 410.498 172.003 410.411 172.262 410.411C172.52 410.411 172.741 410.498 172.923 410.674C173.109 410.846 173.201 411.055 173.201 411.3C173.201 411.542 173.109 411.751 172.923 411.927C172.741 412.099 172.52 412.185 172.262 412.185ZM178.562 413.364V414.557H174.391V413.364H178.562ZM175.509 411.534H176.996V418.758C176.996 419.046 177.039 419.263 177.125 419.409C177.211 419.552 177.322 419.649 177.458 419.702C177.597 419.752 177.748 419.777 177.911 419.777C178.03 419.777 178.134 419.769 178.224 419.752C178.313 419.736 178.383 419.722 178.433 419.712L178.701 420.94C178.615 420.973 178.492 421.007 178.333 421.04C178.174 421.076 177.975 421.096 177.737 421.099C177.346 421.106 176.981 421.036 176.643 420.891C176.305 420.745 176.031 420.519 175.823 420.214C175.614 419.91 175.509 419.527 175.509 419.066V411.534ZM186.134 421.169C185.65 421.169 185.212 421.08 184.821 420.901C184.43 420.718 184.12 420.455 183.892 420.11C183.666 419.765 183.553 419.343 183.553 418.842C183.553 418.411 183.636 418.057 183.802 417.778C183.968 417.5 184.191 417.28 184.473 417.117C184.755 416.955 185.07 416.832 185.418 416.749C185.766 416.666 186.12 416.603 186.482 416.56C186.939 416.507 187.31 416.464 187.595 416.431C187.88 416.395 188.088 416.337 188.217 416.257C188.346 416.178 188.411 416.048 188.411 415.869V415.835C188.411 415.4 188.288 415.064 188.043 414.825C187.801 414.587 187.44 414.467 186.959 414.467C186.459 414.467 186.064 414.578 185.776 414.8C185.491 415.019 185.294 415.263 185.184 415.531L183.787 415.213C183.953 414.749 184.195 414.375 184.513 414.089C184.834 413.801 185.204 413.592 185.622 413.463C186.039 413.33 186.478 413.264 186.939 413.264C187.244 413.264 187.567 413.301 187.909 413.374C188.253 413.443 188.575 413.572 188.873 413.761C189.175 413.95 189.422 414.22 189.614 414.572C189.806 414.92 189.902 415.372 189.902 415.929V421H188.45V419.956H188.391C188.295 420.148 188.151 420.337 187.958 420.523C187.766 420.708 187.519 420.862 187.218 420.985C186.916 421.108 186.555 421.169 186.134 421.169ZM186.457 419.976C186.868 419.976 187.219 419.895 187.511 419.732C187.806 419.57 188.03 419.358 188.182 419.096C188.338 418.831 188.416 418.547 188.416 418.246V417.261C188.363 417.314 188.26 417.364 188.107 417.411C187.958 417.454 187.788 417.492 187.595 417.525C187.403 417.555 187.216 417.583 187.034 417.609C186.851 417.633 186.699 417.652 186.576 417.669C186.288 417.705 186.024 417.767 185.786 417.853C185.55 417.939 185.361 418.063 185.219 418.226C185.08 418.385 185.01 418.597 185.01 418.862C185.01 419.23 185.146 419.509 185.418 419.697C185.69 419.883 186.036 419.976 186.457 419.976ZM193.369 416.466V421H191.882V413.364H193.309V414.607H193.403C193.579 414.202 193.854 413.877 194.229 413.632C194.607 413.387 195.082 413.264 195.656 413.264C196.176 413.264 196.632 413.374 197.023 413.592C197.414 413.808 197.717 414.129 197.933 414.557C198.148 414.984 198.256 415.513 198.256 416.143V421H196.769V416.322C196.769 415.768 196.625 415.336 196.337 415.024C196.048 414.709 195.652 414.552 195.148 414.552C194.804 414.552 194.497 414.626 194.229 414.776C193.964 414.925 193.753 415.143 193.597 415.432C193.445 415.717 193.369 416.062 193.369 416.466ZM203.108 421.149C202.491 421.149 201.941 420.992 201.457 420.677C200.977 420.359 200.599 419.906 200.324 419.32C200.052 418.73 199.916 418.022 199.916 417.197C199.916 416.371 200.054 415.665 200.329 415.079C200.607 414.492 200.988 414.043 201.472 413.732C201.956 413.42 202.505 413.264 203.118 413.264C203.592 413.264 203.973 413.344 204.261 413.503C204.553 413.659 204.778 413.841 204.938 414.05C205.1 414.259 205.226 414.442 205.315 414.602H205.405V410.818H206.891V421H205.44V419.812H205.315C205.226 419.974 205.097 420.16 204.928 420.369C204.762 420.577 204.533 420.76 204.241 420.915C203.95 421.071 203.572 421.149 203.108 421.149ZM203.436 419.881C203.864 419.881 204.225 419.769 204.52 419.543C204.818 419.315 205.044 418.998 205.196 418.594C205.352 418.189 205.43 417.719 205.43 417.182C205.43 416.652 205.353 416.187 205.201 415.79C205.049 415.392 204.825 415.082 204.53 414.86C204.235 414.638 203.87 414.527 203.436 414.527C202.989 414.527 202.616 414.643 202.317 414.875C202.019 415.107 201.794 415.424 201.641 415.825C201.492 416.226 201.418 416.678 201.418 417.182C201.418 417.692 201.494 418.151 201.646 418.559C201.799 418.967 202.024 419.29 202.322 419.528C202.624 419.764 202.995 419.881 203.436 419.881ZM216.283 413.364V414.557H212.112V413.364H216.283ZM213.23 411.534H214.717V418.758C214.717 419.046 214.76 419.263 214.846 419.409C214.932 419.552 215.043 419.649 215.179 419.702C215.318 419.752 215.469 419.777 215.631 419.777C215.751 419.777 215.855 419.769 215.945 419.752C216.034 419.736 216.104 419.722 216.153 419.712L216.422 420.94C216.336 420.973 216.213 421.007 216.054 421.04C215.895 421.076 215.696 421.096 215.457 421.099C215.066 421.106 214.702 421.036 214.364 420.891C214.026 420.745 213.752 420.519 213.543 420.214C213.335 419.91 213.23 419.527 213.23 419.066V411.534ZM217.927 421V413.364H219.364V414.577H219.443C219.583 414.166 219.828 413.843 220.179 413.607C220.534 413.369 220.935 413.249 221.382 413.249C221.475 413.249 221.584 413.253 221.71 413.259C221.84 413.266 221.941 413.274 222.014 413.284V414.706C221.954 414.689 221.848 414.671 221.695 414.651C221.543 414.628 221.391 414.616 221.238 414.616C220.887 414.616 220.574 414.691 220.298 414.84C220.027 414.986 219.811 415.19 219.652 415.452C219.493 415.71 219.414 416.005 219.414 416.337V421H217.927ZM224.472 423.864C224.25 423.864 224.048 423.845 223.866 423.809C223.683 423.776 223.547 423.739 223.458 423.7L223.816 422.482C224.088 422.554 224.33 422.586 224.542 422.576C224.754 422.566 224.941 422.487 225.104 422.337C225.269 422.188 225.415 421.945 225.541 421.607L225.725 421.099L222.931 413.364H224.522L226.456 419.29H226.535L228.469 413.364H230.065L226.918 422.019C226.772 422.417 226.587 422.753 226.361 423.028C226.136 423.307 225.867 423.516 225.556 423.655C225.244 423.794 224.883 423.864 224.472 423.864ZM237.39 421.169C236.906 421.169 236.468 421.08 236.077 420.901C235.686 420.718 235.376 420.455 235.147 420.11C234.922 419.765 234.809 419.343 234.809 418.842C234.809 418.411 234.892 418.057 235.058 417.778C235.224 417.5 235.447 417.28 235.729 417.117C236.011 416.955 236.326 416.832 236.674 416.749C237.022 416.666 237.376 416.603 237.738 416.56C238.195 416.507 238.566 416.464 238.851 416.431C239.136 416.395 239.343 416.337 239.473 416.257C239.602 416.178 239.667 416.048 239.667 415.869V415.835C239.667 415.4 239.544 415.064 239.299 414.825C239.057 414.587 238.695 414.467 238.215 414.467C237.714 414.467 237.32 414.578 237.032 414.8C236.747 415.019 236.549 415.263 236.44 415.531L235.043 415.213C235.209 414.749 235.451 414.375 235.769 414.089C236.09 413.801 236.46 413.592 236.877 413.463C237.295 413.33 237.734 413.264 238.195 413.264C238.5 413.264 238.823 413.301 239.164 413.374C239.509 413.443 239.831 413.572 240.129 413.761C240.431 413.95 240.677 414.22 240.87 414.572C241.062 414.92 241.158 415.372 241.158 415.929V421H239.706V419.956H239.647C239.551 420.148 239.406 420.337 239.214 420.523C239.022 420.708 238.775 420.862 238.473 420.985C238.172 421.108 237.81 421.169 237.39 421.169ZM237.713 419.976C238.124 419.976 238.475 419.895 238.767 419.732C239.062 419.57 239.285 419.358 239.438 419.096C239.594 418.831 239.672 418.547 239.672 418.246V417.261C239.618 417.314 239.516 417.364 239.363 417.411C239.214 417.454 239.043 417.492 238.851 417.525C238.659 417.555 238.472 417.583 238.289 417.609C238.107 417.633 237.955 417.652 237.832 417.669C237.544 417.705 237.28 417.767 237.042 417.853C236.806 417.939 236.617 418.063 236.475 418.226C236.336 418.385 236.266 418.597 236.266 418.862C236.266 419.23 236.402 419.509 236.674 419.697C236.945 419.883 237.292 419.976 237.713 419.976ZM246.34 424.023C245.733 424.023 245.211 423.943 244.774 423.784C244.339 423.625 243.985 423.415 243.71 423.153C243.435 422.891 243.229 422.604 243.093 422.293L244.371 421.766C244.46 421.911 244.58 422.066 244.729 422.228C244.881 422.394 245.087 422.535 245.345 422.651C245.607 422.767 245.944 422.825 246.355 422.825C246.918 422.825 247.384 422.687 247.752 422.412C248.119 422.14 248.303 421.706 248.303 421.109V419.608H248.209C248.119 419.77 247.99 419.951 247.821 420.15C247.655 420.349 247.427 420.521 247.135 420.667C246.843 420.813 246.464 420.886 245.997 420.886C245.393 420.886 244.85 420.745 244.366 420.463C243.885 420.178 243.504 419.759 243.222 419.205C242.944 418.648 242.805 417.964 242.805 417.152C242.805 416.34 242.942 415.644 243.218 415.064C243.496 414.484 243.877 414.04 244.361 413.732C244.845 413.42 245.393 413.264 246.007 413.264C246.481 413.264 246.863 413.344 247.155 413.503C247.447 413.659 247.674 413.841 247.836 414.05C248.002 414.259 248.129 414.442 248.219 414.602H248.328V413.364H249.785V421.169C249.785 421.825 249.633 422.364 249.328 422.785C249.023 423.206 248.61 423.517 248.09 423.719C247.573 423.922 246.989 424.023 246.34 424.023ZM246.325 419.653C246.752 419.653 247.114 419.553 247.409 419.354C247.707 419.152 247.932 418.864 248.085 418.489C248.24 418.112 248.318 417.659 248.318 417.132C248.318 416.618 248.242 416.166 248.09 415.775C247.937 415.384 247.713 415.079 247.419 414.86C247.124 414.638 246.759 414.527 246.325 414.527C245.877 414.527 245.504 414.643 245.206 414.875C244.908 415.104 244.682 415.415 244.53 415.81C244.381 416.204 244.306 416.645 244.306 417.132C244.306 417.633 244.383 418.072 244.535 418.45C244.687 418.827 244.913 419.122 245.211 419.335C245.513 419.547 245.884 419.653 246.325 419.653ZM254.001 421.169C253.517 421.169 253.079 421.08 252.688 420.901C252.297 420.718 251.987 420.455 251.759 420.11C251.533 419.765 251.421 419.343 251.421 418.842C251.421 418.411 251.503 418.057 251.669 417.778C251.835 417.5 252.059 417.28 252.34 417.117C252.622 416.955 252.937 416.832 253.285 416.749C253.633 416.666 253.988 416.603 254.349 416.56C254.806 416.507 255.177 416.464 255.463 416.431C255.748 416.395 255.955 416.337 256.084 416.257C256.213 416.178 256.278 416.048 256.278 415.869V415.835C256.278 415.4 256.155 415.064 255.91 414.825C255.668 414.587 255.307 414.467 254.826 414.467C254.326 414.467 253.931 414.578 253.643 414.8C253.358 415.019 253.161 415.263 253.051 415.531L251.654 415.213C251.82 414.749 252.062 414.375 252.38 414.089C252.702 413.801 253.071 413.592 253.489 413.463C253.906 413.33 254.346 413.264 254.806 413.264C255.111 413.264 255.434 413.301 255.776 413.374C256.12 413.443 256.442 413.572 256.74 413.761C257.042 413.95 257.289 414.22 257.481 414.572C257.673 414.92 257.769 415.372 257.769 415.929V421H256.318V419.956H256.258C256.162 420.148 256.018 420.337 255.825 420.523C255.633 420.708 255.386 420.862 255.085 420.985C254.783 421.108 254.422 421.169 254.001 421.169ZM254.324 419.976C254.735 419.976 255.086 419.895 255.378 419.732C255.673 419.57 255.897 419.358 256.049 419.096C256.205 418.831 256.283 418.547 256.283 418.246V417.261C256.23 417.314 256.127 417.364 255.975 417.411C255.825 417.454 255.655 417.492 255.463 417.525C255.27 417.555 255.083 417.583 254.901 417.609C254.718 417.633 254.566 417.652 254.443 417.669C254.155 417.705 253.892 417.767 253.653 417.853C253.418 417.939 253.229 418.063 253.086 418.226C252.947 418.385 252.877 418.597 252.877 418.862C252.877 419.23 253.013 419.509 253.285 419.697C253.557 419.883 253.903 419.976 254.324 419.976ZM259.749 421V413.364H261.236V421H259.749ZM260.5 412.185C260.241 412.185 260.019 412.099 259.834 411.927C259.652 411.751 259.56 411.542 259.56 411.3C259.56 411.055 259.652 410.846 259.834 410.674C260.019 410.498 260.241 410.411 260.5 410.411C260.759 410.411 260.979 410.498 261.161 410.674C261.347 410.846 261.44 411.055 261.44 411.3C261.44 411.542 261.347 411.751 261.161 411.927C260.979 412.099 260.759 412.185 260.5 412.185ZM264.722 416.466V421H263.236V413.364H264.662V414.607H264.757C264.933 414.202 265.208 413.877 265.582 413.632C265.96 413.387 266.436 413.264 267.009 413.264C267.529 413.264 267.985 413.374 268.376 413.592C268.767 413.808 269.071 414.129 269.286 414.557C269.501 414.984 269.609 415.513 269.609 416.143V421H268.123V416.322C268.123 415.768 267.979 415.336 267.69 415.024C267.402 414.709 267.006 414.552 266.502 414.552C266.157 414.552 265.851 414.626 265.582 414.776C265.317 414.925 265.107 415.143 264.951 415.432C264.798 415.717 264.722 416.062 264.722 416.466ZM272.582 421.094C272.31 421.094 272.077 420.998 271.881 420.806C271.686 420.611 271.588 420.375 271.588 420.1C271.588 419.828 271.686 419.596 271.881 419.404C272.077 419.209 272.31 419.111 272.582 419.111C272.854 419.111 273.088 419.209 273.283 419.404C273.479 419.596 273.577 419.828 273.577 420.1C273.577 420.282 273.53 420.45 273.437 420.602C273.348 420.751 273.229 420.871 273.079 420.96C272.93 421.05 272.765 421.094 272.582 421.094Z" fill="#242424"/>
<defs>
<linearGradient id="paint0_linear_2136_11958" x1="176.5" y1="0" x2="176.5" y2="446" gradientUnits="userSpaceOnUse">
<stop stop-color="white" stop-opacity="0"/>
<stop offset="1" stop-color="white"/>
</linearGradient>
<clipPath id="clip0_2136_11958">
<rect width="166" height="261" fill="white" transform="translate(84 37)"/>
</clipPath>
</defs>
</svg>
