<svg width="253" height="294" viewBox="0 0 253 294" fill="none" xmlns="http://www.w3.org/2000/svg">
<mask id="mask0_1313_6104" style="mask-type:alpha" maskUnits="userSpaceOnUse" x="0" y="0" width="253" height="294">
<path fill-rule="evenodd" clip-rule="evenodd" d="M132.569 0.20267C177.65 2.44123 222.785 22.0695 245.399 54.7615C265.772 84.2144 238.82 118.734 238.089 152.75C237.265 191.06 269.554 233.396 240.914 263.301C210.983 294.554 153.309 298.626 106.505 290.146C64.4603 282.527 34.0685 253.278 12.8581 221.978C-4.38662 196.53 3.07574 167.195 3.37003 137.95C3.70169 104.99 -9.66654 69.2356 14.6561 43.3037C42.1751 13.9639 88.0499 -2.00795 132.569 0.20267Z" fill="#671300"/>
</mask>
<g mask="url(#mask0_1313_6104)">
<path fill-rule="evenodd" clip-rule="evenodd" d="M132.569 0.20267C177.65 2.44123 222.785 22.0695 245.399 54.7615C265.772 84.2144 238.82 118.734 238.089 152.75C237.265 191.06 269.554 233.396 240.914 263.301C210.983 294.554 153.309 298.626 106.505 290.146C64.4603 282.527 34.0685 253.278 12.8581 221.978C-4.38662 196.53 3.07574 167.195 3.37003 137.95C3.70169 104.99 -9.66654 69.2356 14.6561 43.3037C42.1751 13.9639 88.0499 -2.00795 132.569 0.20267Z" fill="#671300"/>
<path d="M233.938 111.252C234.448 112.632 233.758 114.172 232.418 114.692C231.078 115.212 229.588 114.512 229.078 113.122C228.568 111.742 229.258 110.202 230.598 109.682C231.938 109.162 233.428 109.862 233.938 111.252Z" fill="white" stroke="#EDDE93" stroke-width="1.23" stroke-miterlimit="10"/>
<path d="M170.938 172.073C171.448 173.453 170.758 174.993 169.418 175.513C168.078 176.033 166.588 175.333 166.078 173.943C165.568 172.563 166.258 171.023 167.598 170.503C168.938 169.983 170.428 170.683 170.938 172.073Z" fill="white" stroke="#EDDE93" stroke-width="1.23" stroke-miterlimit="10"/>
<path d="M134.938 142.293C135.448 143.673 134.758 145.213 133.418 145.733C132.078 146.253 130.588 145.553 130.078 144.163C129.568 142.773 130.258 141.243 131.598 140.723C132.938 140.203 134.428 140.903 134.938 142.293Z" fill="white" stroke="#EDDE93" stroke-width="1.23" stroke-miterlimit="10"/>
<path d="M55.829 134.392C56.329 135.772 55.649 137.312 54.309 137.832C52.969 138.352 51.479 137.652 50.969 136.262C50.459 134.882 51.1491 133.342 52.4891 132.822C53.8291 132.312 55.319 133.002 55.829 134.392Z" fill="white" stroke="#EDDE93" stroke-width="1.23" stroke-miterlimit="10"/>
<path d="M47.829 168.493C48.329 169.873 47.649 171.413 46.309 171.933C44.969 172.453 43.479 171.753 42.969 170.363C42.459 168.983 43.1491 167.443 44.4891 166.923C45.8291 166.403 47.319 167.103 47.829 168.493Z" fill="white" stroke="#EDDE93" stroke-width="1.23" stroke-miterlimit="10"/>
<path d="M17.829 188.293C18.329 189.673 17.649 191.213 16.309 191.733C14.969 192.253 13.479 191.553 12.969 190.163C12.459 188.783 13.1491 187.243 14.4891 186.723C15.8291 186.203 17.319 186.903 17.829 188.293Z" fill="white" stroke="#EDDE93" stroke-width="1.23" stroke-miterlimit="10"/>
<path d="M195.028 289.622L196.508 271.032C197.608 257.232 191.818 243.792 181.128 235.382C170.438 226.972 164.647 213.542 165.747 199.732L167.018 183.812L213.548 203.362L226.617 182.802C230.897 176.082 229.898 167.172 224.258 161.622L208.558 146.202C204.658 142.382 201.497 137.842 199.227 132.812C194.697 122.762 186.677 114.842 176.747 110.602L162.878 104.682L165.568 82.5723L164.198 83.1123C141.318 92.0323 121.598 107.892 107.628 128.582C93.5675 149.412 85.9875 174.162 85.9175 199.552L85.6875 280.342L195.018 289.612L195.028 289.622Z" fill="#FF806C"/>
<path d="M205.01 289.622L206.49 271.032C207.6 257.232 201.8 243.792 191.11 235.382C180.43 226.972 174.63 213.542 175.73 199.732L220.97 211.292L236.6 182.802C240.87 176.082 239.88 167.172 234.23 161.622L218.53 146.202C214.63 142.382 211.47 137.842 209.2 132.812C204.67 122.762 196.65 114.842 186.72 110.602L172.85 104.682L175.54 82.5723L174.17 83.1123C151.29 92.0323 131.57 107.892 117.6 128.582C103.54 149.412 95.9601 174.162 95.8901 199.552L95.6602 280.342L204.99 289.612L205.01 289.622Z" fill="#93D3D9"/>
<path d="M216.658 268.143H65.3984V295.873H216.658V268.143Z" fill="#FF6E84"/>
<path d="M216.658 268.143H65.3984V272.213H216.658V268.143Z" fill="#757CC1"/>
<path d="M180.919 147.732C179.249 153.462 173.389 156.712 167.829 154.992C162.269 153.272 159.119 147.232 160.779 141.502" stroke="#FF8361" stroke-width="3.17" stroke-miterlimit="10" stroke-linecap="round"/>
<path d="M47.1697 295.872L80.3196 182.882L106.01 266.972H112.24L82.9897 169.492H77.6497L40.9297 295.872H47.1597H47.1697Z" fill="#FAD1D8"/>
<path d="M91.2604 199.433H68.4805L70.3804 193.103H91.2604V199.433Z" fill="#E9BFA3"/>
<path d="M85.8879 217.622H63.418L65.3179 211.292H85.8879V217.622Z" fill="#E9BFA3"/>
<path d="M80.5209 235.822H58.2109L59.981 230.282H80.5109V235.822H80.5209Z" fill="#E9BFA3"/>
<path d="M75.9084 254.013H52.8984L54.6685 248.473H75.9084V254.013Z" fill="#E9BFA3"/>
<path d="M69.7689 272.212H47.3789L49.2789 266.672H69.7789V272.212H69.7689Z" fill="#E9BFA3"/>
<path d="M65.0504 295.872L98.2103 182.882L123.9 266.972H130.13L100.87 169.492H95.5403L58.8203 295.872H65.0504Z" fill="#EDDE93"/>
<path d="M107.041 166.772H71.0508V173.822H107.041V166.772Z" fill="#FF6E84"/>
<path d="M72.6484 188.843L70.3984 193.543L84.4785 193.583C84.0485 191.823 82.3984 190.683 80.6584 190.953L78.9684 191.213C77.7984 191.213 76.9984 189.973 77.4584 188.853H72.6484V188.843Z" fill="#757CC1"/>
<path d="M97.0078 162.562L94.7578 167.262L108.838 167.302C108.408 165.542 106.758 164.402 105.018 164.662L103.328 164.922C102.158 164.922 101.358 163.682 101.818 162.562L97.0078 162.542V162.562Z" fill="#757CC1"/>
<path d="M93.1289 106.983L78.5089 106.933L76.3389 113.313C74.4889 117.443 73.8489 122.043 74.4689 126.533L76.6189 144.233C74.3389 148.793 73.119 153.843 73.049 158.973L72.6289 188.833L77.4389 188.853L90.6189 123.723L93.1189 106.973L93.1289 106.983Z" fill="black"/>
<path d="M97.0096 162.563L101.82 162.583L116.48 136.853C118.29 133.673 117.99 129.683 115.73 126.823L100.87 108.093L88.9297 108.663L88.1797 119.593L107.06 133.093C107.06 133.093 98.3997 140.503 97.0297 162.573L97.0096 162.563Z" fill="black"/>
<path d="M88.61 69.1223L86.08 68.6023C85.23 68.4323 84.28 68.2923 83.26 68.2023C71.15 67.0523 59.09 71.1023 49.71 79.0823L38.96 88.2223C28.1 97.4423 13.53 100.572 0 96.5723L2.11005 100.062C5.62005 105.852 10.52 110.602 16.35 113.862C27.83 120.262 41.68 120.182 53.09 113.652L75.84 100.622L92.21 70.2023L88.63 69.1423H88.61V69.1223Z" fill="#FFAB85"/>
<path d="M81.5399 39.3625L77.5898 38.5125C74.5698 37.8625 71.4098 38.4125 68.7498 40.0225C66.9798 41.1025 64.9998 41.7025 62.9498 41.7825L57.3398 42.0225C58.6298 47.2325 63.3498 50.7425 68.5598 50.3525C71.8798 50.1025 74.9298 48.3925 76.9398 45.6525L81.5499 39.3425V39.3625H81.5399Z" fill="#FFA56A"/>
<path d="M81.2386 67.2925C76.8286 67.4625 72.8286 70.0525 70.7886 74.0925L58.8785 94.0925C57.1185 97.0325 58.1785 100.173 61.4485 102.213L76.2986 113.512L83.1086 112.272L100.849 108.073L100.379 76.5925L115.739 73.0125C118.919 72.2725 121.579 70.0325 122.919 66.9625L130.929 48.5625L124.819 44.0625L115.209 63.8025L81.2386 67.3025V67.2925ZM74.1786 102.122L67.9886 97.3725L73.6885 88.0525L74.1786 102.122Z" fill="#757CC1"/>
<path d="M101.321 45.0825C101.241 40.9725 97.5408 36.3025 92.3808 35.0825C87.4108 33.9025 82.2609 36.2225 79.7309 40.7925L79.3208 41.5425C77.6708 44.5125 77.3409 48.0825 78.4109 51.3325L82.1408 61.4825L82.3609 67.2225L82.9008 67.9125C85.5608 71.3225 90.5109 70.4725 92.1709 66.4525L91.9608 60.5125L96.3408 60.4925C99.4708 60.3325 101.911 57.5925 101.791 54.3725V54.3125L101.641 49.9625L101.321 45.1025V45.0825Z" fill="#FF687E"/>
<path d="M96.929 54.1226C96.979 55.5626 95.8889 56.7726 94.4989 56.8226C93.0989 56.8826 91.9289 55.7426 91.8789 54.3126" fill="white"/>
<path d="M89.9673 112.133C90.2773 111.523 90.0573 110.763 89.4573 110.433L84.7473 107.853L82.0273 109.203L88.3173 112.643C88.9073 112.963 89.6473 112.743 89.9573 112.123L89.9673 112.133Z" fill="#FF687E"/>
<path d="M89.8106 114.913C90.1406 114.273 89.9306 113.493 89.3406 113.163L82.0906 109.093L80.8906 111.423L88.1206 115.473C88.7106 115.803 89.4707 115.553 89.8007 114.903L89.8106 114.913Z" fill="#FF687E"/>
<path d="M87.6783 116.563C87.9883 115.953 87.7683 115.193 87.1683 114.873L80.8782 111.433L79.7383 113.653L86.0283 117.093C86.6183 117.413 87.3583 117.193 87.6683 116.573L87.6783 116.563Z" fill="#FF687E"/>
<path d="M83.5592 117.153C83.8692 116.543 83.6492 115.783 83.0492 115.463L80.3192 113.963C79.9992 113.793 79.5992 113.913 79.4292 114.243L78.9092 115.263C78.7392 115.593 78.8592 116.003 79.1792 116.183L81.9092 117.683C82.4992 118.003 83.2392 117.783 83.5592 117.163V117.153Z" fill="#FF687E"/>
<path d="M79.8586 116.552L77.7286 115.392L76.3086 113.522L79.1986 107.562L79.3286 107.512C81.3086 106.792 83.3886 107.112 85.2486 108.132L85.3486 107.972L79.8486 116.552H79.8586Z" fill="#FF687E"/>
<path d="M85.6108 32.5524C91.7708 30.7124 98.3408 33.5424 100.731 39.9424C101.341 41.5824 101.371 42.4224 101.371 42.4224L101.341 42.4424C96.5708 45.1824 91.3808 47.0924 86.0008 48.1024L82.7408 49.1424L81.0708 58.5824C81.0708 58.5824 78.4408 52.5224 77.4508 50.1324C74.4908 42.9424 78.3208 34.7024 85.6008 32.5424L85.6108 32.5524Z" fill="#FFAB85"/>
<path d="M85.8779 50.5322C85.9279 51.8522 84.9279 52.9622 83.6479 53.0122C82.3679 53.0622 81.2879 52.0322 81.2479 50.7122C81.1979 49.3922 82.1979 48.2822 83.4779 48.2322C84.7579 48.1822 85.8379 49.2122 85.8779 50.5322Z" fill="#FF687E"/>
<path d="M133.858 45.4525L133.468 46.0525C132.808 47.0525 131.938 47.9125 130.938 48.5625L130.428 48.8825L124.788 45.1525C124.308 43.0425 124.708 40.8125 125.888 39.0225L126.048 38.7725L133.868 45.4525H133.858Z" fill="#B76494"/>
<path d="M129.141 36.3326C128.571 35.9326 127.781 36.0826 127.391 36.6826L126.101 38.7026C125.861 39.0726 125.821 39.5526 126.011 39.9626L126.171 40.3226C126.611 41.3126 127.961 41.3426 128.441 40.3826L129.501 38.2526C129.891 37.6626 129.721 36.7526 129.151 36.3426L129.141 36.3326Z" fill="#FF687E"/>
<path d="M131.578 37.3927C130.998 36.9927 130.228 37.1427 129.828 37.7327L127.478 41.2527C127.078 41.8427 127.228 42.6627 127.808 43.0627C128.378 43.4627 129.158 43.3127 129.558 42.7227L131.908 39.2127C132.308 38.6227 132.158 37.8027 131.578 37.3927Z" fill="#FF687E"/>
<path d="M133.307 39.2525C132.727 38.8525 131.947 39.0025 131.557 39.6025L129.537 42.7225C129.157 43.3125 129.307 44.1225 129.887 44.5225C130.467 44.9225 131.257 44.7725 131.647 44.1625L133.657 41.0625C134.047 40.4725 133.897 39.6625 133.317 39.2625L133.307 39.2525Z" fill="#FF687E"/>
<path d="M134.868 41.5924C134.288 41.1924 133.508 41.3424 133.118 41.9424L131.938 43.7324C131.448 44.4724 131.818 45.4924 132.668 45.7224C133.178 45.8524 133.728 45.6524 134.028 45.1924L135.208 43.4024C135.598 42.8124 135.448 42.0024 134.868 41.6024V41.5924Z" fill="#FF687E"/>
<path d="M197.028 70.3024C196.628 69.0124 195.958 67.9024 194.998 66.9724C194.468 66.5724 193.938 66.1824 193.408 65.7924C192.188 65.1224 190.878 64.8124 189.498 64.8624C189.128 64.8624 188.768 64.9124 188.428 64.9824C188.378 64.2124 188.178 63.4924 187.808 62.8324C187.518 62.0124 187.048 61.3024 186.398 60.7124C185.538 59.8824 184.528 59.3324 183.378 59.0424C182.228 58.7724 181.088 58.8124 179.958 59.1724C178.868 59.5324 177.928 60.1424 177.138 60.9924C177.108 61.0324 177.078 61.0724 177.048 61.1124C176.718 61.5824 176.388 62.0424 176.068 62.5224C176.068 62.5224 176.068 62.5424 176.068 62.5524C175.718 61.8324 175.258 61.1824 174.688 60.6124C174.218 60.2624 173.748 59.9124 173.278 59.5624C172.188 58.9624 171.028 58.6924 169.788 58.7324C168.888 58.7324 168.058 58.9624 167.298 59.4124C166.478 59.7224 165.778 60.2224 165.188 60.9124C164.538 61.5724 164.088 62.3424 163.848 63.2424C163.658 63.6524 163.528 64.0724 163.438 64.5124C162.208 63.8924 160.908 63.5924 159.538 63.6524C158.468 63.6524 157.478 63.9324 156.568 64.4624C155.588 64.8224 154.758 65.4224 154.058 66.2324C153.388 66.9124 152.918 67.6924 152.608 68.5724C152.548 68.5124 152.488 68.4424 152.428 68.3924C151.888 67.9924 151.348 67.5924 150.828 67.2024C149.588 66.5224 148.268 66.2024 146.868 66.2624C145.848 66.2624 144.898 66.5224 144.028 67.0424C143.098 67.3924 142.298 67.9624 141.628 68.7424C141.148 69.2224 140.778 69.7724 140.488 70.3624H197.048V70.3324L197.028 70.3024Z" fill="#E8DFD2"/>
<path d="M264.509 85.1627C264.509 85.0327 264.529 84.9127 264.529 84.7927C264.639 84.2727 264.619 83.7627 264.479 83.2527C264.419 82.4827 264.169 81.7827 263.739 81.1327C263.429 80.7427 263.129 80.3527 262.809 79.9727C262.059 79.2427 261.179 78.7627 260.179 78.5127C260.089 78.5127 259.999 78.4927 259.909 78.4827C258.899 78.2427 257.899 78.2827 256.909 78.6027C256.609 78.7427 256.309 78.8827 256.019 79.0227C256.099 78.5427 256.129 78.0527 256.079 77.5627C255.749 73.6127 252.789 70.8027 248.939 70.8027C245.709 70.8027 242.729 73.7727 242.389 77.0727C242.039 76.7927 241.689 76.5327 241.299 76.3127C241.249 76.2927 241.209 76.2627 241.159 76.2527C239.899 75.5527 238.549 75.2427 237.119 75.2927C235.749 75.3527 234.489 75.7627 233.319 76.5127C232.159 77.2627 231.249 78.2627 230.589 79.5027C230.189 80.2027 229.939 80.9327 229.819 81.7027C228.899 81.2127 227.919 80.9627 226.899 80.9627C225.789 80.7527 224.689 80.8427 223.609 81.2427C222.529 81.5527 221.589 82.0927 220.809 82.8827C219.959 83.4827 219.299 84.2627 218.809 85.2127H264.519V85.1927L264.509 85.1627Z" fill="#E8DFD2"/>
<path d="M5.39849 82.7724H19.8785C19.8485 82.5724 19.7985 82.3724 19.7285 82.1724C19.4985 81.4324 19.1185 80.8024 18.5785 80.2724C18.1085 79.8224 17.5785 79.4924 16.9785 79.2924C17.0185 79.0424 17.0285 78.7824 17.0285 78.5124C16.9385 76.1324 14.9685 74.4424 12.7285 74.4424C10.4885 74.4424 8.8585 76.4424 8.7785 78.5624C8.3285 78.5824 7.9085 78.7024 7.5285 78.9224C7.0785 79.0924 6.68852 79.3624 6.35852 79.7424C5.99852 80.1024 5.74847 80.5324 5.61847 81.0224C5.40847 81.4924 5.30851 81.9924 5.34851 82.5224C5.36851 82.6024 5.36849 82.6824 5.38849 82.7624L5.39849 82.7724Z" fill="#E8DFD2"/>
<path d="M240.091 56.6324C240.091 56.4324 240.091 56.2324 240.101 56.0324C239.981 54.9824 239.621 54.0124 239.031 53.1524L237.991 52.0024C237.151 51.3024 236.191 50.8524 235.131 50.6824C235.041 50.6624 234.951 50.6624 234.871 50.6524V50.4024C234.771 49.4624 234.451 48.6124 233.921 47.8424C233.611 47.5024 233.301 47.1624 232.991 46.8124C232.251 46.1924 231.391 45.7924 230.441 45.6424C229.751 45.5124 229.081 45.5524 228.431 45.7724C227.751 45.8824 227.151 46.1524 226.591 46.5824C225.991 46.9824 225.541 47.5124 225.221 48.1524C224.791 48.7424 224.541 49.4124 224.451 50.1624V50.1924C224.371 50.1724 224.281 50.1424 224.191 50.1324C223.401 50.0124 222.621 50.1024 221.871 50.3924C221.061 50.7124 220.361 51.2724 219.851 51.9724C219.431 51.7624 218.971 51.5924 218.491 51.5024C215.871 50.9724 213.241 53.1324 212.851 55.7724C212.801 56.0524 212.801 56.3424 212.801 56.6224H240.081L240.091 56.6324Z" fill="#93D3D9"/>
</g>
</svg>
