<svg width="47" height="45" viewBox="0 0 47 45" fill="none" xmlns="http://www.w3.org/2000/svg">
<path d="M7.92308 44V2.79167C7.92308 2.31649 8.10543 1.86077 8.43001 1.52477C8.75459 1.18876 9.19482 1 9.65385 1H37.3462C37.8052 1 38.2454 1.18876 38.57 1.52477C38.8946 1.86077 39.0769 2.31649 39.0769 2.79167V44" fill="white"/>
<path d="M29.5577 25.1875C30.9915 25.1875 32.1538 23.9843 32.1538 22.5C32.1538 21.0157 30.9915 19.8125 29.5577 19.8125C28.1239 19.8125 26.9615 21.0157 26.9615 22.5C26.9615 23.9843 28.1239 25.1875 29.5577 25.1875Z" fill="white"/>
<path d="M1 44H46M7.92308 44V2.79167C7.92308 2.31649 8.10543 1.86077 8.43001 1.52477C8.75459 1.18876 9.19482 1 9.65385 1H37.3462C37.8052 1 38.2454 1.18876 38.57 1.52477C38.8946 1.86077 39.0769 2.31649 39.0769 2.79167V44M32.1538 22.5C32.1538 23.9843 30.9915 25.1875 29.5577 25.1875C28.1239 25.1875 26.9615 23.9843 26.9615 22.5C26.9615 21.0157 28.1239 19.8125 29.5577 19.8125C30.9915 19.8125 32.1538 21.0157 32.1538 22.5Z" stroke="#AE0000" stroke-width="2" stroke-linecap="round" stroke-linejoin="round"/>
</svg>
