<svg width="60" height="60" viewBox="0 0 60 60" fill="none" xmlns="http://www.w3.org/2000/svg">
<path d="M19.875 7.37695H40.875C48.0361 7.37695 53.125 12.6419 53.125 20.127V39.877C53.125 43.7882 51.8841 46.9632 49.7793 49.1533C47.6782 51.3396 44.6376 52.627 40.875 52.627H19.875C12.7139 52.627 7.625 47.362 7.625 39.877V20.1572C7.74378 16.2377 9.04505 13.0506 11.1582 10.8516C13.2658 8.65853 16.2476 7.37695 19.875 7.37695Z" fill="white" stroke="#AE0000" stroke-width="2"/>
<path d="M30.3799 35.0635C33.9139 35.0635 36.3515 36.0355 37.8896 37.374C39.4247 38.71 40.1376 40.4711 40.1377 42.2207C40.1377 42.2888 40.0818 42.3408 40.0195 42.3408H40.0186L20.7383 42.3672C20.7011 42.3668 20.6724 42.3522 20.6582 42.3379L20.6543 42.334L20.626 42.292C20.6199 42.2774 20.6172 42.262 20.6172 42.248C20.6173 40.4898 21.3318 38.7214 22.8682 37.3809C24.4073 36.038 26.8455 35.0635 30.3799 35.0635Z" stroke="#AE0000" stroke-width="2"/>
<path d="M30.377 17.6406C33.6742 17.6406 36.3574 20.3249 36.3574 23.623C36.3574 26.9211 33.6742 29.6055 30.377 29.6055C27.0793 29.6054 24.3945 26.9206 24.3945 23.623C24.3946 20.3254 27.0793 17.6407 30.377 17.6406Z" stroke="#AE0000" stroke-width="2"/>
</svg>
