<svg width="303" height="304" viewBox="0 0 303 304" fill="none" xmlns="http://www.w3.org/2000/svg">
<mask id="mask0_2503_9636" style="mask-type:luminance" maskUnits="userSpaceOnUse" x="0" y="0" width="303" height="304">
<path d="M302.794 151.397C302.794 67.7829 235.012 0 151.397 0C67.7829 0 0 67.7829 0 151.397V152.073C0 235.687 67.7829 303.47 151.397 303.47C235.012 303.47 302.794 235.687 302.794 152.073V151.397Z" fill="white"/>
</mask>
<g mask="url(#mask0_2503_9636)">
<path d="M302.794 151.397C302.794 67.7829 235.012 0 151.397 0C67.7829 0 0 67.7829 0 151.397V152.073C0 235.687 67.7829 303.47 151.397 303.47C235.012 303.47 302.794 235.687 302.794 152.073V151.397Z" fill="#F4BA64"/>
<mask id="mask1_2503_9636" style="mask-type:luminance" maskUnits="userSpaceOnUse" x="28" y="89" width="247" height="215">
<path d="M274.664 89.6113H28.1289V303.471H274.664V89.6113Z" fill="white"/>
</mask>
<g mask="url(#mask1_2503_9636)">
<path fill-rule="evenodd" clip-rule="evenodd" d="M173.9 115.744L253.995 116.227L251.219 114.19C248.443 112.154 243.463 112.79 243.463 112.79C243.463 112.79 246.47 108.969 242.536 107.697C238.601 106.425 233.508 109.989 233.508 109.989C239.114 101.277 221.146 91.3612 214.431 105.601C213.834 98.4072 205.595 97.5739 201.586 103.994C200.96 102.524 199.57 100.389 197.622 99.9308C195.674 99.4772 193.322 101.09 193.554 104.576C188.264 102.608 183.032 106.75 189.2 112.179C180.157 109.358 178.037 110.221 173.9 115.753V115.744Z" fill="white"/>
<path fill-rule="evenodd" clip-rule="evenodd" d="M93.7122 127.82C91.9174 139.787 85.0341 161.324 78.7524 169.104L72.4707 176.88C72.4707 176.88 82.0461 177.778 95.8028 185.257C109.564 192.737 111.058 193.931 111.058 193.931C111.058 193.931 105.975 186.155 110.161 180.169C114.347 174.188 122.429 164.016 122.429 164.016L120.333 119.738L93.7072 127.815L93.7122 127.82Z" fill="#D5785F"/>
<path fill-rule="evenodd" clip-rule="evenodd" d="M110.61 179.536C114.9 173.496 122.429 164.019 122.429 164.019L121.428 142.861C115.122 135.362 109.195 128.365 109.195 128.365L103.663 130.012C98.1258 152.895 101.755 168.363 106.355 174.734C110.955 181.104 109.215 178.284 110.61 179.536Z" fill="#BA6048"/>
<path fill-rule="evenodd" clip-rule="evenodd" d="M112.435 177.022C115.462 172.915 119.175 168.147 121.113 165.687C119.357 158.513 111.034 130.713 103.135 132.291C102.677 134.382 102.292 136.403 101.981 138.361C103.101 144.465 105.852 147.404 105.852 147.404C105.852 147.404 102.563 157.428 107.346 167.896C109.121 171.786 110.901 174.784 112.435 177.022Z" fill="#342318"/>
<path fill-rule="evenodd" clip-rule="evenodd" d="M141.574 159.779C140.011 163.561 138.143 167.594 136.402 170.838C134.869 173.698 133.434 175.947 132.403 176.854C128.074 180.665 114.115 172.14 108.756 163.24C104.609 154.883 108.539 142.684 111.655 134.77C120.057 113.42 147.536 106.325 149.4 120.599C151.396 135.899 145.632 143.3 144.705 149.005C144.484 150.391 147.58 156.362 147.269 158.255C147.028 159.764 144.207 160.124 141.565 159.779H141.574Z" fill="#D5785F"/>
<path fill-rule="evenodd" clip-rule="evenodd" d="M154.739 113.529C156.682 119.363 154.439 130.358 147.56 134.021C140.682 137.685 132.6 136.413 131.18 135.964C129.76 135.515 136.343 135.515 141.126 132.675C145.913 129.835 146.362 128.864 146.362 128.864C146.362 128.864 137.763 132.828 132.975 133.05L128.187 133.277C128.187 133.277 122.576 156.086 121.832 159.676C121.082 163.265 127.364 167.452 129.607 168.354C131.851 169.251 136.639 167.457 136.639 167.457L138.059 167.979C138.059 167.979 135.293 177.476 130.431 177.851C125.569 178.225 113.455 172.318 108.815 164.838C104.18 157.359 105.822 153.621 105.822 153.621C105.822 153.621 112.404 153.769 115.693 144.647C118.982 135.525 117.789 131.186 116.29 129.539C114.796 127.893 111.502 126.547 111.502 126.547C111.502 126.547 107.912 124.604 103.721 131.783C99.5351 138.962 93.85 144.499 93.85 144.499L88.6136 147.64C88.6136 147.64 90.1076 134.026 87.8642 126.699C85.6207 119.372 87.5634 103.811 100.28 97.6822C112.996 91.5484 123.913 86.4649 134.982 97.2335C146.051 108.002 153.23 113.239 154.725 113.539L154.739 113.529Z" fill="#342318"/>
<path fill-rule="evenodd" clip-rule="evenodd" d="M132.842 136.3C132.053 136.187 131.476 136.064 131.18 135.97C131.072 135.935 131.008 135.901 130.988 135.871C132.477 135.639 135.031 135.072 139.409 133.815C144.177 132.444 147.422 129.373 149.463 125.679C151.795 121.454 152.555 116.41 152.229 112.14C152.574 112.376 152.885 112.579 153.171 112.756C153.383 117.031 152.55 121.952 150.257 126.113C148.112 130.004 144.695 133.238 139.661 134.683C136.698 135.536 134.494 136.034 132.847 136.305L132.842 136.3ZM138.236 131.971C138.586 131.759 138.936 131.537 139.276 131.31C143.995 128.165 148.61 113.027 148.625 112.983C148.699 112.746 148.561 112.495 148.324 112.421C148.181 112.376 148.038 112.406 147.93 112.49C147.89 112.519 133.754 122.992 122.024 124.757C117.981 125.364 114.904 126.123 112.513 126.996C112.838 127.154 113.213 127.346 113.612 127.568C115.831 126.833 118.612 126.182 122.157 125.65C132.142 124.146 143.773 116.498 147.353 114.004C146.14 117.672 142.432 128.12 138.773 130.561C137.487 131.419 136.091 132.183 134.755 132.839C135.854 132.642 137.048 132.336 138.236 131.971ZM96.6652 141.482C96.7441 138.45 97.4985 134.338 100.186 130.028C103.544 124.644 112.31 122.213 120.411 119.97C125.249 118.629 129.849 117.356 133.014 115.532C141.061 110.897 143.492 106.001 143.749 105.444L143.798 105.38C143.576 105.183 143.349 104.985 143.122 104.783L143.014 104.921C142.989 104.951 142.965 104.99 142.95 105.03C142.945 105.044 140.844 109.99 132.571 114.753C129.509 116.513 124.958 117.776 120.18 119.102C111.916 121.39 102.972 123.87 99.4313 129.55C96.3349 134.52 95.7136 139.254 95.7826 142.488C96.0587 142.183 96.3595 141.847 96.68 141.482H96.6652ZM89.1065 136.971C90.9752 133.825 93.6378 130.132 96.5469 126.444C100.284 121.705 104.411 116.977 107.769 113.412C112.35 108.545 126.614 99.7686 133.36 95.7452C133.108 95.5381 132.862 95.3359 132.61 95.1436C125.727 99.2608 111.699 107.919 107.113 112.796C103.736 116.385 99.5842 121.133 95.8369 125.887C93.268 129.141 90.8864 132.405 89.067 135.309C89.0867 135.866 89.1015 136.419 89.1065 136.971ZM87.1588 122.701C87.1292 122.327 87.1095 121.947 87.0947 121.557C87.6618 121.059 88.2682 120.532 88.9092 119.975C94.3724 115.217 102.148 108.437 105.797 103.048C108.918 98.4324 111.018 94.8428 112.3 92.5008C112.71 92.3676 113.119 92.2394 113.528 92.1211C112.296 94.4336 110.062 98.3535 106.541 103.555C102.829 109.048 94.9986 115.867 89.5009 120.66C88.6578 121.395 87.8688 122.085 87.1588 122.706V122.701Z" fill="#46332A"/>
<path fill-rule="evenodd" clip-rule="evenodd" d="M115.811 131.779C115.436 127.292 107.587 123.18 103.918 129.61C100.255 136.044 105.338 147.409 110.348 147.557C115.357 147.705 115.806 131.779 115.806 131.779H115.811Z" fill="#D5785F"/>
<path fill-rule="evenodd" clip-rule="evenodd" d="M138.37 165.286C138.617 165.247 138.848 165.419 138.883 165.666C138.917 165.912 138.75 166.144 138.503 166.179C137.167 166.381 135.757 166.06 134.549 165.38C133.346 164.699 132.34 163.649 131.812 162.392C130.757 159.882 131.004 159.473 131.004 159.473C131.112 159.251 131.383 159.162 131.605 159.271C131.827 159.384 131.916 159.65 131.807 159.872C131.807 159.872 131.753 159.912 132.645 162.037C133.094 163.102 133.957 163.999 134.997 164.586C136.033 165.173 137.241 165.449 138.37 165.276V165.286Z" fill="#342318"/>
<path fill-rule="evenodd" clip-rule="evenodd" d="M141.683 145.249C138.809 146.22 137.231 144.687 135.737 142.434C135.352 148.508 143.429 147.734 142.61 145.648C142.467 145.284 142.053 145.101 141.683 145.244V145.249Z" fill="#342318"/>
<path fill-rule="evenodd" clip-rule="evenodd" d="M106.681 132.67C106.573 132.872 106.321 132.951 106.119 132.838C105.917 132.729 105.843 132.478 105.951 132.276C106.316 131.6 106.725 131.122 107.164 130.831C107.647 130.505 108.16 130.402 108.678 130.505C109.166 130.604 109.644 130.895 110.083 131.363C110.704 132.024 111.267 133.055 111.7 134.415C112.973 138.429 111.696 140.456 111.691 140.46C111.567 140.658 111.311 140.717 111.119 140.594C111.045 140.544 110.986 140.48 110.956 140.401C110.857 140.219 110.113 138.937 108.629 139.859C107.056 140.835 108.505 142.517 108.51 142.522C108.658 142.694 108.638 142.96 108.466 143.108C108.293 143.256 108.027 143.236 107.879 143.064C107.874 143.059 105.789 140.643 108.19 139.154C109.694 138.222 110.7 138.823 111.242 139.395C111.469 138.607 111.666 137.053 110.912 134.667C110.517 133.429 110.019 132.507 109.482 131.935C109.161 131.595 108.836 131.388 108.515 131.324C108.224 131.265 107.924 131.324 107.633 131.526C107.307 131.743 106.987 132.128 106.691 132.675L106.681 132.67Z" fill="#342318"/>
<path fill-rule="evenodd" clip-rule="evenodd" d="M110.995 126.384C110.788 126.276 110.714 126.014 110.822 125.812C110.931 125.605 111.192 125.531 111.394 125.64C113.238 126.636 114.362 128.169 115.028 129.781C116.093 132.35 115.99 135.126 115.797 136.181C115.758 136.413 115.536 136.561 115.309 136.522C115.077 136.482 114.925 136.26 114.969 136.034C115.146 135.057 115.24 132.493 114.249 130.107C113.648 128.652 112.637 127.277 110.995 126.384Z" fill="#342318"/>
<path fill-rule="evenodd" clip-rule="evenodd" d="M78.0026 170.148C77.4552 170.38 74.0876 175.237 71.5581 176.874C63.6345 181.992 56.125 190.621 52.8017 203.204C49.9616 213.953 50.1835 235.027 50.6174 247.477C50.8245 253.384 54.1971 312.399 54.1971 312.399L143.014 311.803C143.014 311.803 138.389 252.151 136.037 244.765C131.491 230.466 123.922 208.001 118.696 199.318C110.772 186.153 109.559 185.858 109.559 185.858C105.871 183.737 79.61 170.272 78.0075 170.153L78.0026 170.148Z" fill="#DC9359"/>
<path fill-rule="evenodd" clip-rule="evenodd" d="M74.8082 173.812C83.6687 178.492 106.424 189.147 114.831 193.062C115.092 193.471 115.363 193.9 115.649 194.359C108.337 190.957 83.4222 179.32 74.2412 174.449C74.4335 174.241 74.6209 174.029 74.8082 173.817V173.812Z" fill="#342318"/>
<path fill-rule="evenodd" clip-rule="evenodd" d="M68.5611 243.345C68.5315 243.113 68.6942 242.906 68.926 242.892C69.1577 242.877 69.3697 243.049 69.4042 243.281C73.5263 273.452 75.6219 302.208 76.2776 312.252H75.4345C74.7787 302.233 72.6832 273.521 68.566 243.35L68.5611 243.345Z" fill="#342318"/>
<path fill-rule="evenodd" clip-rule="evenodd" d="M186.46 200.921C180.789 209.511 173.541 220.521 170.963 229.815C170.346 232.029 169.996 234.15 169.996 236.117C169.996 249.282 179.118 253.769 179.719 270.518C180.316 287.273 176.45 306.907 176.45 306.907L251.969 305.817C251.969 305.817 244.287 288.091 240.022 286.839C238.656 286.44 240.007 279.384 239.844 277.954C239.568 275.562 236.59 275.834 236.635 273.437C236.699 270.119 238.336 262.171 238.528 258.897C239.775 237.211 243.794 228.578 243.444 216.522C242.901 197.815 239.006 190.094 235.328 185.74C226.773 175.597 216.966 171.5 216.966 171.5C203.032 179.212 194.985 188.013 186.46 200.926V200.921Z" fill="#A4361F"/>
<path fill-rule="evenodd" clip-rule="evenodd" d="M180.606 209.974C180.37 210.354 180.133 210.739 179.901 211.123C185.443 209.23 191.839 205.68 197.948 200.966C204.989 195.532 211.655 188.54 216.191 180.745L220.511 173.324C220.254 173.176 220.008 173.038 219.776 172.91L215.462 180.326C210.985 188.023 204.397 194.931 197.435 200.305C191.755 204.693 185.833 208.051 180.611 209.984L180.606 209.974Z" fill="#342318"/>
<path fill-rule="evenodd" clip-rule="evenodd" d="M176.972 294.61C176.725 301.774 176.444 306.902 176.444 306.902L190.694 306.695C195.038 302.765 198.593 299.881 207.848 289.009C217.103 278.136 237.984 248.163 235.672 227.385C233.355 206.607 192.247 273.27 176.977 294.61H176.972Z" fill="#342318"/>
<path fill-rule="evenodd" clip-rule="evenodd" d="M137.784 240.189C136.314 234.716 134.589 228.523 132.779 222.537C129.18 216.018 124.727 209.303 121.542 208.391C123.638 211.98 124.683 219.312 124.683 219.312C124.683 219.312 132.311 251.021 133.208 253.566C133.839 255.351 136.314 246.145 137.784 240.194V240.189Z" fill="#342318"/>
<path fill-rule="evenodd" clip-rule="evenodd" d="M121.235 207.362C120.688 209.423 124.258 212.307 126.043 217.795C127.828 223.288 132.635 236.335 132.635 236.335C132.635 236.335 135.243 246.083 139.365 248.829C143.483 251.575 165.73 301.834 182.208 304.852C198.687 307.874 220.929 250.2 220.929 250.2L191.542 240.314L178.362 266.131L142.935 232.627C142.935 232.627 136.895 218.071 134.696 213.816C132.497 209.561 120.279 195.967 120.279 195.967L117.325 192.742C117.325 192.742 116.226 195.074 116.226 196.174C116.226 197.273 117.734 199.196 117.734 199.196C117.734 199.196 116.773 200.227 117.527 202.012C118.282 203.797 120.067 206.06 120.067 206.06L121.235 207.367V207.362Z" fill="#BA6048"/>
<path fill-rule="evenodd" clip-rule="evenodd" d="M180.177 262.561L178.353 266.13L177.495 265.317C177.574 265.583 177.628 265.751 177.628 265.751C183.609 269.192 187.051 274.424 187.051 274.424C187.051 274.424 185.379 268.32 180.172 262.561H180.177Z" fill="#342318"/>
<path fill-rule="evenodd" clip-rule="evenodd" d="M236.707 223.903C229.291 252.738 211.161 274.112 211.161 274.112L180.28 260.223C180.28 260.223 189.89 223.425 197.582 211.616C205.274 199.807 235.884 192.046 236.707 223.903Z" fill="#A4361F"/>
<path fill-rule="evenodd" clip-rule="evenodd" d="M237.498 221.256C237.557 221.03 237.783 220.896 238.01 220.951C238.237 221.01 238.37 221.237 238.316 221.463C230.871 250.412 211.981 274.784 211.917 274.853C211.774 275.001 210.206 279.434 210.038 279.33L180.055 260.579C179.887 260.475 179.818 260.268 179.877 260.091C180.124 259.154 189.591 223.11 197.228 211.38C197.357 211.183 197.618 211.129 197.815 211.257C198.012 211.385 198.067 211.646 197.938 211.844C190.68 222.992 181.692 256.536 180.77 260.031L211.547 274.02C213.998 271.446 230.545 248.306 237.498 221.256Z" fill="#342318"/>
<path fill-rule="evenodd" clip-rule="evenodd" d="M239.406 284.975C238.627 291.488 237.729 295.62 237.729 295.62C237.729 295.62 239.529 292.726 241.467 287.751C240.954 287.292 240.466 286.972 240.012 286.838C239.598 286.715 239.436 285.98 239.401 284.975H239.406Z" fill="#342318"/>
<path fill-rule="evenodd" clip-rule="evenodd" d="M121.087 207.199C121.605 206.677 121.994 207.244 123.035 208.166C124.307 209.285 128.118 213.101 128.118 213.101L130.737 217.066C128.104 211.321 127.152 210.084 123.252 207.115C122.029 206.183 119.499 203.802 117.843 202.678C118.691 204.315 120.067 206.06 120.067 206.06L121.087 207.204V207.199Z" fill="#342318"/>
<path fill-rule="evenodd" clip-rule="evenodd" d="M117.616 199.038C117.882 198.722 118.247 198.811 118.247 198.811C118.247 198.811 125.027 204.683 127.911 207.819C128.232 208.169 128.508 208.485 128.715 208.756L130.811 211.448C130.811 211.448 129.834 209.668 127.547 206.853C125.88 204.802 123.523 202.198 120.338 199.333C118.622 197.79 117.296 196.592 116.27 195.67C116.236 195.852 116.216 196.02 116.216 196.168C116.216 197.08 117.256 198.559 117.611 199.038H117.616Z" fill="#342318"/>
<path fill-rule="evenodd" clip-rule="evenodd" d="M228.814 248.158C228.863 247.932 229.09 247.789 229.317 247.838C229.544 247.887 229.687 248.114 229.637 248.341C228.696 252.576 227.783 256.245 226.994 259.425C224.776 268.359 223.513 273.443 225.353 275.489C227.004 277.323 226.013 279.616 224.998 281.963C224.233 283.733 223.454 285.533 223.942 287.007C224.766 289.473 226.684 299.793 227.833 306.163L226.975 306.178C225.826 299.817 223.937 289.675 223.139 287.274C222.547 285.494 223.39 283.541 224.218 281.628C225.126 279.537 226.008 277.491 224.721 276.056C222.582 273.675 223.878 268.438 226.171 259.223C226.965 256.018 227.882 252.33 228.809 248.158H228.814Z" fill="#342318"/>
<path fill-rule="evenodd" clip-rule="evenodd" d="M182.604 253.601C182.397 253.581 182.244 253.399 182.263 253.192C182.283 252.984 182.466 252.832 182.673 252.851C193.121 253.793 216.778 268.132 216.842 268.171C217.02 268.279 217.074 268.506 216.971 268.684C216.862 268.861 216.63 268.916 216.458 268.812C216.389 268.773 192.879 254.528 182.609 253.596L182.604 253.601Z" fill="#342318"/>
<path fill-rule="evenodd" clip-rule="evenodd" d="M185.404 254.005C185.487 253.818 185.704 253.729 185.897 253.808C186.089 253.892 186.173 254.109 186.094 254.301C185.315 256.116 183.564 261.475 183.56 261.49C183.495 261.687 183.283 261.796 183.086 261.732C182.889 261.668 182.781 261.456 182.845 261.258C182.845 261.244 184.605 255.879 185.409 254.005H185.404Z" fill="#342318"/>
<path fill-rule="evenodd" clip-rule="evenodd" d="M190.373 255.642C190.447 255.45 190.664 255.351 190.856 255.425C191.049 255.499 191.147 255.716 191.073 255.908L188.169 263.437C188.095 263.63 187.878 263.728 187.686 263.649C187.494 263.575 187.395 263.358 187.469 263.166L190.373 255.642Z" fill="#342318"/>
<path fill-rule="evenodd" clip-rule="evenodd" d="M195.156 257.288C195.245 257.101 195.467 257.022 195.654 257.111C195.842 257.199 195.92 257.421 195.832 257.609L192.148 265.394C192.06 265.582 191.838 265.66 191.65 265.572C191.463 265.483 191.384 265.261 191.473 265.074L195.156 257.283V257.288Z" fill="#342318"/>
<path fill-rule="evenodd" clip-rule="evenodd" d="M200.299 259.675C200.387 259.488 200.609 259.404 200.797 259.493C200.984 259.581 201.068 259.803 200.979 259.991L197.409 267.707C197.321 267.894 197.099 267.978 196.911 267.89C196.724 267.801 196.64 267.579 196.729 267.392L200.299 259.675Z" fill="#342318"/>
<path fill-rule="evenodd" clip-rule="evenodd" d="M204.658 262.377C204.761 262.2 204.988 262.136 205.171 262.239C205.348 262.343 205.412 262.57 205.309 262.752L201.404 269.576C201.3 269.754 201.073 269.818 200.891 269.714C200.713 269.611 200.649 269.384 200.753 269.201L204.658 262.377Z" fill="#342318"/>
<path fill-rule="evenodd" clip-rule="evenodd" d="M209.555 264.369C209.659 264.192 209.886 264.128 210.068 264.231C210.246 264.335 210.31 264.562 210.206 264.744L206.227 271.696C206.123 271.874 205.897 271.938 205.714 271.834C205.532 271.731 205.473 271.504 205.576 271.322L209.555 264.369Z" fill="#342318"/>
<path fill-rule="evenodd" clip-rule="evenodd" d="M213.257 266.786C213.375 266.613 213.607 266.574 213.78 266.687C213.947 266.806 213.992 267.037 213.873 267.21L209.5 273.551C209.382 273.723 209.15 273.763 208.977 273.644C208.805 273.526 208.765 273.294 208.879 273.122L213.252 266.781L213.257 266.786Z" fill="#342318"/>
<path fill-rule="evenodd" clip-rule="evenodd" d="M180.912 176.43C192.277 175.833 192.149 185.645 192.578 189.294C193.007 192.943 188.338 197.918 183.17 205.807C199.935 197.05 218.006 175.537 218.006 175.537L213.716 157.013C213.203 156.416 212.922 156.096 212.922 156.096L180.912 176.44V176.43Z" fill="#BA6048"/>
<path fill-rule="evenodd" clip-rule="evenodd" d="M219.238 175.305C216.822 175.261 214.308 175.394 211.704 175.729C208.327 177.82 205.314 180.004 202.553 182.341C205.161 185.379 209.332 186.616 217.172 186.064C224.706 185.531 233.222 189.9 238.335 195.684C249.784 208.647 231.343 182.317 219.238 175.305Z" fill="#342318"/>
<path fill-rule="evenodd" clip-rule="evenodd" d="M180.912 176.43C186.025 176.159 188.811 177.998 190.369 180.429C193.037 176.559 194.945 171.416 196.375 166.604L180.917 176.43H180.912Z" fill="#342318"/>
<path fill-rule="evenodd" clip-rule="evenodd" d="M164.35 163.516C165.913 167.298 167.333 169.536 169.068 172.781C170.602 175.64 172.037 177.889 173.067 178.796C177.396 182.612 191.355 174.082 196.715 165.182C200.861 156.825 196.932 144.626 193.815 136.713C185.414 115.363 160.627 108.869 158.763 123.143C154.971 138.443 160.287 147.037 161.209 152.747C161.431 154.133 158.334 160.104 158.645 161.997C158.886 163.506 161.707 163.866 164.35 163.521V163.516Z" fill="#D5785F"/>
<path fill-rule="evenodd" clip-rule="evenodd" d="M170.616 133.011C175.862 137.759 179.98 143.917 181.094 148.932C182.243 154.094 182.815 153.986 183.85 149.987C184.708 146.674 186.394 142.872 189.708 141.181C196.197 137.872 180.887 132.626 170.616 133.006V133.011Z" fill="#591D09"/>
<path fill-rule="evenodd" clip-rule="evenodd" d="M155.484 118.247C155.568 117.946 155.884 117.773 156.184 117.857C156.485 117.941 156.658 118.256 156.574 118.557C156.081 120.293 155.824 121.93 155.78 123.463C155.672 127.29 156.875 130.494 158.99 132.989C161.115 135.499 164.167 137.309 167.732 138.324C169.69 138.882 171.8 139.197 173.994 139.261C176.316 139.33 178.294 139.281 179.985 139.246C187.465 139.079 189.679 139.03 191.582 148.265C191.646 148.57 191.449 148.866 191.143 148.93C190.837 148.994 190.542 148.797 190.477 148.492C188.762 140.178 186.765 140.223 180.005 140.376C178.299 140.415 176.307 140.459 173.96 140.39C171.667 140.326 169.463 139.996 167.421 139.414C163.645 138.339 160.4 136.411 158.127 133.724C155.839 131.022 154.533 127.561 154.651 123.439C154.7 121.807 154.967 120.076 155.484 118.256V118.247Z" fill="#88351A"/>
<path fill-rule="evenodd" clip-rule="evenodd" d="M189.363 133.694C189.477 132.324 190.241 130.992 191.365 129.957C192.268 129.124 193.402 128.483 194.619 128.157C195.842 127.832 197.149 127.832 198.382 128.29C199.673 128.774 200.877 129.76 201.813 131.402C202.647 132.866 203.041 134.572 203.095 136.347C203.174 138.936 202.518 141.672 201.444 143.99C200.359 146.322 198.84 148.24 197.198 149.177C196.528 149.561 195.827 149.783 195.127 149.803C189.812 149.961 189.358 133.778 189.358 133.734V133.699L189.363 133.694ZM191.774 130.401C190.759 131.338 190.068 132.526 189.965 133.739C189.985 134.409 190.507 149.34 195.117 149.206C195.714 149.187 196.316 148.994 196.907 148.659C198.441 147.786 199.871 145.967 200.901 143.743C201.942 141.505 202.573 138.862 202.499 136.367C202.449 134.69 202.08 133.078 201.296 131.702C200.438 130.194 199.343 129.291 198.174 128.857C197.065 128.443 195.887 128.448 194.777 128.744C193.658 129.04 192.613 129.637 191.779 130.406L191.774 130.401Z" fill="#342318"/>
<path fill-rule="evenodd" clip-rule="evenodd" d="M168.585 168.121C168.339 168.082 168.171 167.855 168.206 167.608C168.24 167.362 168.472 167.194 168.718 167.229C169.853 167.401 171.056 167.125 172.091 166.538C173.131 165.952 173.994 165.054 174.443 163.989C175.335 161.859 175.281 161.82 175.281 161.82C175.168 161.598 175.261 161.327 175.483 161.218C175.705 161.11 175.976 161.198 176.085 161.42C176.085 161.42 176.331 161.829 175.276 164.339C174.749 165.592 173.743 166.642 172.54 167.322C171.332 168.003 169.922 168.328 168.585 168.126V168.121Z" fill="#342318"/>
<path fill-rule="evenodd" clip-rule="evenodd" d="M163.63 149.458C166.642 149.838 168.121 148.329 169.142 145.824C169.349 151.021 166.169 150.947 163.383 150.863C162.994 150.794 162.737 150.425 162.806 150.035C162.875 149.646 163.245 149.389 163.634 149.458H163.63Z" fill="#342318"/>
<path fill-rule="evenodd" clip-rule="evenodd" d="M154.123 121.926C153.048 126.684 155.952 129.622 162.963 133.271C173.584 138.803 183.756 136.111 187.795 144.641C191.833 153.166 188.84 166.479 196.024 177.997C203.203 189.516 215.244 178.747 228.483 185.773C234.947 189.205 237.743 193.879 239.217 198.026C239.601 199.106 243.038 207.296 243.29 207.094C253.629 198.721 256.563 175.719 244.897 169.527C240.109 166.987 236.737 165.04 234.197 162.781C223.093 152.91 232.338 139.434 228.783 127.586C224.297 112.626 210.984 106.049 200.363 102.607C189.742 99.1654 177.627 107.991 171.942 111.285C169.664 112.606 167.115 113.104 164.886 113.233C158.6 113.593 156.475 111.512 154.128 121.926H154.123Z" fill="#88351A"/>
<path fill-rule="evenodd" clip-rule="evenodd" d="M154.123 121.925C153.388 125.184 154.522 127.591 157.564 129.957C159.024 130.174 160.602 130.381 162.308 130.569C186.054 133.187 203.139 118.977 212.616 107.952C211.052 107.039 209.46 106.226 207.872 105.496C206.038 107.128 203.913 108.844 201.502 110.525C192.636 116.704 170.991 126.496 155.183 118.035C154.828 119.085 154.478 120.362 154.128 121.925H154.123Z" fill="#9C4A2A"/>
<path fill-rule="evenodd" clip-rule="evenodd" d="M159.975 113.321C159.137 116.457 159.068 119.036 160.182 121.176C161.952 124.568 166.725 126.969 176.158 128.882C185.822 130.845 191.719 132.97 195.303 136.786C198.903 140.612 200.126 146.081 200.426 154.714C200.722 163.116 202.695 168.259 205.909 171.4C209.114 174.531 213.591 175.699 218.887 176.143C224.917 176.646 231.953 180.004 237.007 185.857C241.134 190.634 243.94 197.079 243.807 204.993C243.797 205.57 243.792 206.127 243.797 206.664C243.629 206.812 243.462 206.955 243.289 207.093C243.25 207.128 243.126 206.945 242.954 206.615C242.954 206.087 242.954 205.545 242.964 204.978C243.097 197.296 240.375 191.044 236.371 186.409C231.465 180.729 224.651 177.469 218.818 176.986C213.345 176.528 208.695 175.305 205.323 172.006C201.955 168.717 199.889 163.387 199.588 154.739C199.292 146.322 198.124 141.017 194.692 137.363C191.246 133.7 185.477 131.634 175.995 129.711C166.281 127.738 161.331 125.199 159.433 121.565C158.249 119.292 158.264 116.634 159.073 113.449C159.359 113.385 159.659 113.346 159.98 113.321H159.975ZM247.347 202.547C247.653 202.088 247.944 201.62 248.225 201.137C248.309 194.392 247.362 181.804 239.749 175.936C235.637 172.766 230.282 172.213 225.119 171.681C217.102 170.857 209.568 170.078 208.498 159.177C207.596 150.001 206.013 142.028 202.616 135.647C199.199 129.232 193.967 124.45 185.772 121.723C177.745 119.046 172.992 117.266 170.65 115.362C169.595 114.504 169.047 113.607 168.924 112.562C168.638 112.646 168.347 112.719 168.061 112.789C168.229 113.977 168.88 115.012 170.117 116.018C172.563 118.005 177.38 119.815 185.506 122.522C193.469 125.174 198.553 129.819 201.871 136.042C205.204 142.304 206.762 150.183 207.655 159.255C208.794 170.848 216.658 171.656 225.031 172.519C230.075 173.037 235.306 173.579 239.226 176.602C247.12 182.691 247.564 196.458 247.337 202.547H247.347ZM180.225 106.403C179.979 106.536 179.732 106.67 179.491 106.803C181.044 108.671 183.978 110.767 189.392 112.65C196.206 115.022 201.758 117.976 205.811 122.734C209.869 127.492 212.452 134.074 213.34 143.699C214.247 153.531 216.688 159.226 219.927 162.505C223.201 165.818 227.264 166.666 231.396 166.819C234.858 166.947 240.572 168.422 246.06 170.241C245.685 169.985 245.296 169.743 244.887 169.526C244.043 169.077 243.24 168.648 242.48 168.229C238.22 166.977 234.157 166.07 231.426 165.971C227.481 165.823 223.611 165.029 220.529 161.908C217.413 158.757 215.066 153.23 214.178 143.62C213.271 133.803 210.623 127.068 206.452 122.182C202.28 117.29 196.615 114.263 189.668 111.847C184.481 110.042 181.695 108.099 180.22 106.398L180.225 106.403ZM229.32 155.336C228.96 154.147 228.744 152.929 228.625 151.692C227.92 149.69 227.126 146.998 226.184 143.832C224.577 138.404 222.551 131.579 219.849 124.366C214.706 110.658 206.649 107.725 193.376 102.893C192.794 102.681 192.207 102.469 191.438 102.188C190.92 102.281 190.402 102.39 189.89 102.518C190.116 102.602 190.348 102.69 190.59 102.779C191.241 103.016 192.182 103.361 193.09 103.691C206.136 108.44 214.055 111.324 219.06 124.667C221.747 131.841 223.768 138.655 225.376 144.079C226.988 149.517 228.191 153.57 229.266 155.262C229.286 155.291 229.301 155.316 229.32 155.34V155.336Z" fill="#591D09"/>
<path fill-rule="evenodd" clip-rule="evenodd" d="M155.016 177.269C155.15 177.481 155.085 177.757 154.873 177.89C154.661 178.023 154.385 177.959 154.252 177.747L152.635 175.183C152.502 174.971 152.566 174.695 152.778 174.562C152.99 174.428 153.266 174.493 153.399 174.705L155.016 177.269Z" fill="white"/>
<path fill-rule="evenodd" clip-rule="evenodd" d="M155.381 174.374C155.357 174.128 155.534 173.906 155.781 173.881C156.027 173.857 156.249 174.034 156.274 174.281C156.353 175.02 156.481 176.406 156.481 176.406C156.505 176.652 156.323 176.869 156.076 176.894C155.83 176.919 155.608 176.736 155.588 176.485C155.588 176.485 155.47 175.217 155.381 174.369V174.374Z" fill="white"/>
<path fill-rule="evenodd" clip-rule="evenodd" d="M150.914 178.033C150.692 177.919 150.603 177.648 150.716 177.426C150.83 177.204 151.101 177.116 151.323 177.229L153.384 178.269C153.606 178.383 153.694 178.654 153.581 178.876C153.468 179.098 153.196 179.187 152.975 179.073L150.914 178.033Z" fill="white"/>
<path fill-rule="evenodd" clip-rule="evenodd" d="M160.755 177.673C160.612 177.875 160.336 177.93 160.129 177.787C159.927 177.644 159.873 177.368 160.016 177.161L161.47 175.045C161.613 174.843 161.894 174.789 162.097 174.932C162.299 175.075 162.353 175.351 162.21 175.558L160.755 177.673Z" fill="white"/>
<path fill-rule="evenodd" clip-rule="evenodd" d="M158.749 174.546C158.784 174.3 159.015 174.132 159.262 174.167C159.508 174.201 159.681 174.433 159.642 174.679C159.518 175.513 159.365 176.681 159.365 176.686C159.336 176.933 159.109 177.105 158.863 177.076C158.616 177.046 158.443 176.819 158.473 176.573C158.473 176.573 158.651 175.227 158.749 174.551V174.546Z" fill="white"/>
<path fill-rule="evenodd" clip-rule="evenodd" d="M163.364 177.525C163.591 177.421 163.857 177.525 163.96 177.747C164.064 177.973 163.96 178.24 163.738 178.343L162.235 179.029C162.008 179.132 161.742 179.029 161.638 178.807C161.534 178.58 161.638 178.314 161.86 178.21L163.359 177.525H163.364Z" fill="white"/>
<path fill-rule="evenodd" clip-rule="evenodd" d="M159.118 177.807C159.803 178.26 160.834 179.089 160.834 179.089L156.85 183.891L156.717 184.054L156.584 183.891L152.6 179.089C152.6 179.089 153.63 178.26 154.315 177.807H159.118Z" fill="#DC9359"/>
<path fill-rule="evenodd" clip-rule="evenodd" d="M158.447 178.705C158.94 179.001 159.685 179.548 159.685 179.548L156.81 182.704L156.711 182.807L156.613 182.704L153.738 179.548C153.738 179.548 154.483 179.006 154.976 178.705H158.442H158.447Z" fill="#EFCB7E"/>
<path fill-rule="evenodd" clip-rule="evenodd" d="M159.053 180.109C159.137 180.109 159.206 180.04 159.206 179.952C159.206 179.863 159.137 179.799 159.053 179.799H154.404C154.32 179.799 154.251 179.868 154.251 179.952C154.251 180.036 154.32 180.109 154.404 180.109H159.053Z" fill="#DC9359"/>
<path fill-rule="evenodd" clip-rule="evenodd" d="M158.669 179.296C158.728 179.237 158.728 179.139 158.669 179.08C158.61 179.02 158.511 179.02 158.452 179.08C157.663 179.893 156.638 182.561 156.633 182.566C156.603 182.644 156.643 182.733 156.722 182.768C156.801 182.797 156.894 182.758 156.924 182.679C156.924 182.669 157.93 180.061 158.674 179.296H158.669Z" fill="#DC9359"/>
<path fill-rule="evenodd" clip-rule="evenodd" d="M156.894 179.144C156.894 179.025 156.825 178.932 156.741 178.932C156.657 178.932 156.588 179.025 156.583 179.139L156.554 183.207C156.554 183.32 156.623 183.419 156.707 183.419C156.79 183.419 156.859 183.325 156.864 183.211L156.894 179.144Z" fill="#DC9359"/>
<path fill-rule="evenodd" clip-rule="evenodd" d="M154.961 179.079C154.902 179.02 154.804 179.015 154.74 179.079C154.68 179.139 154.676 179.237 154.74 179.296C155.484 180.066 156.485 182.644 156.49 182.649C156.52 182.728 156.613 182.768 156.692 182.738C156.771 182.708 156.811 182.615 156.781 182.536C156.781 182.531 155.755 179.893 154.961 179.079Z" fill="#DC9359"/>
<path fill-rule="evenodd" clip-rule="evenodd" d="M159.858 179.138C159.956 179.236 160.114 179.236 160.213 179.138C160.312 179.039 160.312 178.881 160.213 178.783C159.917 178.487 159.059 178.068 159.054 178.068C159.02 178.053 158.985 178.043 158.946 178.043L154.75 178.023C154.71 178.023 154.676 178.033 154.646 178.048L153.246 178.689C153.118 178.748 153.063 178.896 153.123 179.024C153.182 179.148 153.33 179.207 153.458 179.148L154.804 178.526L158.887 178.546C159.059 178.635 159.651 178.936 159.853 179.138H159.858Z" fill="white"/>
<path fill-rule="evenodd" clip-rule="evenodd" d="M156.767 184.477C157.496 184.477 158.157 184.773 158.635 185.252C159.114 185.73 159.41 186.391 159.41 187.12C159.41 187.85 159.114 188.511 158.635 188.989C158.157 189.467 157.496 189.763 156.767 189.763C156.037 189.763 155.376 189.467 154.898 188.989C154.42 188.511 154.124 187.85 154.124 187.12C154.124 186.391 154.42 185.73 154.898 185.252C155.376 184.773 156.037 184.477 156.767 184.477ZM159.834 184.053C159.05 183.269 157.965 182.781 156.767 182.781C155.569 182.781 154.484 183.264 153.7 184.053C152.916 184.837 152.428 185.922 152.428 187.12C152.428 188.318 152.916 189.403 153.7 190.187C154.484 190.971 155.569 191.459 156.767 191.459C157.965 191.459 159.05 190.971 159.834 190.187C160.618 189.403 161.106 188.318 161.106 187.12C161.106 185.922 160.623 184.837 159.834 184.053Z" fill="#6C6656"/>
<path fill-rule="evenodd" clip-rule="evenodd" d="M157.073 187.129C161.313 187.129 164.745 188.924 164.745 191.133C164.745 193.342 161.308 195.136 157.073 195.136C152.837 195.136 149.4 193.347 149.4 191.133C149.4 188.919 152.837 187.129 157.073 187.129Z" fill="white"/>
<path fill-rule="evenodd" clip-rule="evenodd" d="M149.025 189.299C149.025 189.299 148.409 193.81 149.804 194.723C151.2 195.635 164.567 196.271 165.41 194.55C166.253 192.829 165.928 189.442 165.928 189.442L149.025 189.299Z" fill="#A4361F"/>
<path fill-rule="evenodd" clip-rule="evenodd" d="M146.708 174.823L150.219 190.38C150.219 190.38 146.141 191.775 144.479 186.997C142.818 182.219 142.941 179.345 144.085 177.151C145.229 174.956 146.708 174.818 146.708 174.818V174.823Z" fill="#A4361F"/>
<path fill-rule="evenodd" clip-rule="evenodd" d="M148.976 190.568L145.278 175.568C145.056 175.766 144.825 176.012 144.593 176.328L148.089 190.503C148.404 190.558 148.705 190.577 148.976 190.568Z" fill="#342318"/>
<path fill-rule="evenodd" clip-rule="evenodd" d="M165.987 190.713C153.592 190.566 150.022 190.62 149.001 190.664L148.922 190.354C148.898 190.694 148.883 191.093 148.888 191.512C149.45 191.478 152.265 191.394 165.977 191.562C165.987 191.261 165.987 190.975 165.987 190.718V190.713Z" fill="#342318"/>
<path fill-rule="evenodd" clip-rule="evenodd" d="M159.947 195.617C159.981 199.66 160.085 200.908 160.085 200.908C160.085 200.908 147.97 209.734 144.08 211.08C140.189 212.426 140.19 217.214 141.836 216.913C143.483 216.612 166.367 202.254 166.367 202.254L165.371 194.611C164.927 195.257 162.644 195.553 159.947 195.617Z" fill="#342318"/>
<path fill-rule="evenodd" clip-rule="evenodd" d="M120.372 311.947L142.171 311.799C142.171 311.799 142.112 308.968 141.998 304.467C129.849 299.654 110.698 291.385 107.996 285.567C104.106 277.19 70.6019 223.643 70.6019 223.643C68.5063 257.748 95.1321 289.758 95.1321 289.758C95.1321 289.758 106.808 305.68 120.367 311.947H120.372Z" fill="#342318"/>
<path fill-rule="evenodd" clip-rule="evenodd" d="M96.7002 275.903C107.173 292.357 124.223 313.298 137.383 312.701C150.543 312.104 154.434 302.233 156.529 293.856C158.147 287.392 154.059 249.016 152.111 231.847C151.87 225.403 151.821 219.259 152.481 218.954C153.896 218.298 167.865 205.508 167.865 205.508L167.061 190.711C167.061 190.711 165.114 188.901 163.733 191.776C162.343 194.65 163.097 201.78 163.097 201.78L147.56 210.379C143.369 207.973 152.097 202.712 153.354 196.475C154.074 192.885 152.92 192.421 151.949 192.826C151.022 193.21 149.686 194.69 148.478 195.898C146.244 198.131 143.374 200.749 139.257 204.29C131.245 211.878 134.819 218.85 133.557 224.604C131.738 232.903 131.797 255.056 131.112 266.027L121.536 248.676L96.7051 275.898L96.7002 275.903Z" fill="#D5785F"/>
<path fill-rule="evenodd" clip-rule="evenodd" d="M131.945 247.369C131.629 254.775 131.373 261.644 131.116 265.815C133.32 269.503 135.899 274.799 135.899 274.799L131.945 247.369Z" fill="#342318"/>
<path fill-rule="evenodd" clip-rule="evenodd" d="M96.7246 275.932C98.6032 278.886 100.694 281.977 102.937 285.069C111.896 278.585 126.215 266.49 129.721 263.512L126.901 258.398L97.4839 275.044L96.7394 275.858L96.7246 275.932Z" fill="#342318"/>
<path fill-rule="evenodd" clip-rule="evenodd" d="M64.9912 224.447C73.0677 255.861 98.1995 281.584 98.1995 281.584L130.21 261.24C130.21 261.24 119.737 221.154 111.364 208.289C102.987 195.425 65.8935 189.74 64.9961 224.442L64.9912 224.447Z" fill="#DC9359"/>
<path fill-rule="evenodd" clip-rule="evenodd" d="M64.5811 224.55C64.5219 224.323 64.66 224.096 64.8868 224.037C65.1136 223.978 65.3404 224.116 65.3996 224.343C73.0027 253.907 95.7086 278.359 98.2627 281.046L129.721 261.052C128.754 257.389 118.937 220.704 111.009 208.525C110.88 208.328 110.94 208.067 111.132 207.939C111.329 207.81 111.59 207.865 111.719 208.062C120.017 220.803 130.297 259.913 130.613 261.106C130.677 261.289 130.608 261.496 130.44 261.599L98.4304 281.943C98.2627 282.047 98.0408 282.027 97.8979 281.879C97.8239 281.805 72.6921 256.072 64.586 224.55H64.5811Z" fill="#342318"/>
<path fill-rule="evenodd" clip-rule="evenodd" d="M93.0314 275.878C92.8884 276.065 92.6222 276.095 92.4397 275.957C92.2573 275.814 92.2228 275.547 92.3658 275.365C99.609 266.011 127.586 252.25 127.665 252.21C127.872 252.107 128.128 252.191 128.232 252.403C128.335 252.61 128.251 252.866 128.039 252.97C127.961 253.009 100.156 266.687 93.0363 275.883L93.0314 275.878Z" fill="#342318"/>
<path fill-rule="evenodd" clip-rule="evenodd" d="M95.1173 273.467C94.9841 273.274 95.0384 273.013 95.2307 272.88C95.423 272.747 95.6843 272.801 95.8174 272.993C97.0698 274.833 101.093 279.753 101.108 279.768C101.256 279.951 101.231 280.217 101.049 280.365C100.866 280.513 100.6 280.488 100.452 280.306C100.442 280.291 96.414 275.37 95.1222 273.467H95.1173Z" fill="#342318"/>
<path fill-rule="evenodd" clip-rule="evenodd" d="M99.6878 269.738C99.5498 269.551 99.5892 269.285 99.7766 269.146C99.964 269.008 100.23 269.048 100.368 269.24L105.753 276.572C105.891 276.76 105.851 277.026 105.664 277.164C105.476 277.302 105.21 277.262 105.072 277.07L99.6878 269.743V269.738Z" fill="#342318"/>
<path fill-rule="evenodd" clip-rule="evenodd" d="M104.156 266.199C104.033 266.002 104.092 265.74 104.289 265.617C104.486 265.494 104.748 265.553 104.871 265.75L110.033 273.975C110.157 274.172 110.098 274.433 109.9 274.556C109.703 274.68 109.442 274.62 109.319 274.423L104.156 266.194V266.199Z" fill="#342318"/>
<path fill-rule="evenodd" clip-rule="evenodd" d="M109.544 262.763C109.421 262.566 109.475 262.304 109.672 262.181C109.87 262.058 110.131 262.112 110.254 262.309L115.417 270.386C115.54 270.583 115.486 270.844 115.289 270.967C115.091 271.091 114.83 271.036 114.707 270.839L109.544 262.763Z" fill="#342318"/>
<path fill-rule="evenodd" clip-rule="evenodd" d="M114.762 260.261C114.653 260.054 114.732 259.798 114.939 259.689C115.146 259.581 115.403 259.66 115.511 259.867L119.623 267.721C119.732 267.928 119.653 268.185 119.446 268.293C119.239 268.402 118.982 268.323 118.874 268.116L114.762 260.261Z" fill="#342318"/>
<path fill-rule="evenodd" clip-rule="evenodd" d="M119.623 256.82C119.514 256.613 119.593 256.356 119.8 256.248C120.007 256.139 120.264 256.218 120.372 256.425L124.558 264.428C124.667 264.635 124.588 264.891 124.381 265C124.174 265.108 123.918 265.029 123.809 264.822L119.623 256.82Z" fill="#342318"/>
<path fill-rule="evenodd" clip-rule="evenodd" d="M124.169 254.768C124.08 254.551 124.179 254.305 124.396 254.216C124.613 254.127 124.86 254.226 124.948 254.443L128.316 262.445C128.405 262.662 128.306 262.909 128.089 262.998C127.872 263.086 127.626 262.988 127.537 262.771L124.169 254.768Z" fill="#342318"/>
<path fill-rule="evenodd" clip-rule="evenodd" d="M151.081 193.462C150.86 193.358 147.95 196.154 148.517 196.731C149.73 197.959 151.663 196.164 152.423 194.892C152.423 194.892 151.505 193.496 151.081 193.457V193.462Z" fill="#DFA494"/>
<path fill-rule="evenodd" clip-rule="evenodd" d="M167.313 195.375C165.706 195.479 165.287 192.969 165.45 191.534C165.45 191.534 166.505 191.164 167.087 191.154L167.313 195.375Z" fill="#DFA494"/>
</g>
<path fill-rule="evenodd" clip-rule="evenodd" d="M48.0791 90.7841L128.173 91.2673L125.397 89.231C122.621 87.1946 117.641 87.8306 117.641 87.8306C117.641 87.8306 120.649 84.0093 116.714 82.7372C112.78 81.4651 107.686 85.03 107.686 85.03C113.298 76.3174 95.3251 66.3969 88.6095 80.6367C88.0129 73.4428 79.7737 72.6096 75.765 79.0293C75.1388 77.56 73.7483 75.425 71.8007 74.9664C69.8531 74.5128 67.5011 76.1252 67.7329 79.6112C62.4422 77.6438 57.2108 81.7856 63.3791 87.2143C54.3362 84.389 52.216 85.2568 48.0791 90.7891V90.7841Z" fill="white"/>
<mask id="mask2_2503_9636" style="mask-type:luminance" maskUnits="userSpaceOnUse" x="28" y="193" width="247" height="111">
<path d="M274.664 193.797H28.1289V303.47H274.664V193.797Z" fill="white"/>
</mask>
<g mask="url(#mask2_2503_9636)">
<path fill-rule="evenodd" clip-rule="evenodd" d="M53.5127 334.293C60.3861 301.09 68.0829 267.605 91.0008 235.487C96.4493 227.854 122.059 192.141 112.79 223.436C109.106 235.866 101.212 257.783 85.8088 283.349C61.7963 323.214 53.5127 334.293 53.5127 334.293Z" fill="#6C6656"/>
<path fill-rule="evenodd" clip-rule="evenodd" d="M110.078 218.727C110.152 218.58 110.335 218.52 110.483 218.594C110.63 218.668 110.69 218.851 110.616 218.999C83.0087 274.4 55.2439 331.488 55.165 331.655C55.091 331.803 54.9135 331.867 54.7656 331.793C54.6177 331.719 54.5536 331.542 54.6275 331.394C54.7064 331.226 82.5107 274.05 110.083 218.727H110.078Z" fill="#342318"/>
<path fill-rule="evenodd" clip-rule="evenodd" d="M49.7056 230.768C49.7155 230.522 49.9226 230.324 50.1691 230.334C50.4156 230.339 50.6129 230.551 50.603 230.798C50.3762 237.76 53.0979 245.289 55.8542 252.902C57.7229 258.07 59.6015 263.271 60.6074 268.394C62.984 280.514 63.3982 294.202 60.849 309.423C58.5908 322.933 53.9953 337.651 46.3725 353.548C46.264 353.77 45.9977 353.868 45.7709 353.76C45.549 353.651 45.4504 353.385 45.5589 353.158C53.1423 337.35 57.7082 322.711 59.9566 309.275C62.4811 294.172 62.0718 280.588 59.715 268.567C58.7239 263.503 56.8551 258.336 55.0012 253.208C52.2203 245.511 49.469 237.903 49.7007 230.768H49.7056Z" fill="#342318"/>
<path fill-rule="evenodd" clip-rule="evenodd" d="M54.5621 236.577C60.8044 237.849 62.609 238.5 60.7354 239.92C58.8617 241.34 53.5168 239.25 53.5168 239.25C53.5168 239.25 58.2503 244.21 56.1942 246.419C54.1381 248.628 51.6579 241.025 51.6579 241.025C51.6579 241.025 52.0376 246.71 48.8425 247.962C45.6474 249.215 48.0043 241.365 48.0043 241.365C48.0043 241.365 40.4455 248.15 40.7512 245.753C41.0569 243.357 43.4976 236.858 54.567 236.572L54.5621 236.577Z" fill="#6C6656"/>
<path fill-rule="evenodd" clip-rule="evenodd" d="M38.5127 219.339C40.9485 215.32 59.0935 217.184 59.6654 221.296C60.2374 225.408 55.075 237.942 51.8897 239.096C42.9158 242.34 36.072 223.357 38.5078 219.339H38.5127Z" fill="#A4361F"/>
<path fill-rule="evenodd" clip-rule="evenodd" d="M58.9367 220.541C59.0698 220.443 59.2572 220.467 59.3558 220.601C59.4544 220.734 59.4298 220.921 59.2967 221.02C57.3835 222.464 53.7743 223.658 50.1847 224.18C46.8565 224.664 43.5233 224.575 41.5461 223.589C40.9051 223.268 40.5255 222.918 40.3677 222.553C40.1655 222.095 40.2888 221.651 40.6734 221.232C40.9988 220.877 41.5264 220.536 42.2019 220.231C44.4109 219.24 48.3258 218.554 51.9499 218.776C53.4439 218.87 54.2871 219.067 54.6519 219.314C55.0513 219.59 55.071 219.905 54.79 220.231C54.6174 220.438 54.2821 220.64 53.8384 220.822C52.3937 221.419 49.6078 221.902 47.6996 221.656C41.3538 220.847 50.3819 219.935 50.4115 219.93C50.5742 219.915 50.7222 220.034 50.7419 220.196C50.7567 220.364 50.6383 220.507 50.4756 220.527C50.4658 220.527 46.6839 220.921 47.7785 221.059C49.593 221.291 52.2408 220.832 53.6165 220.265C53.9715 220.117 54.2279 219.974 54.3364 219.841C54.3413 219.831 54.3364 219.822 54.3166 219.807C54.0356 219.614 53.2911 219.457 51.9154 219.373C48.385 219.156 44.5834 219.817 42.4484 220.778C41.8469 221.049 41.3834 221.34 41.1172 221.636C40.9051 221.873 40.8262 222.1 40.9199 222.312C41.0235 222.548 41.3144 222.8 41.8173 223.051C43.6762 223.983 46.8762 224.052 50.1009 223.584C53.5968 223.076 57.1025 221.927 58.9367 220.536V220.541Z" fill="#342318"/>
<path fill-rule="evenodd" clip-rule="evenodd" d="M42.6504 223.835C42.6406 223.667 42.7638 223.524 42.9266 223.514C43.0942 223.504 43.2372 223.628 43.2471 223.79C43.7648 230.432 48.9617 238.78 48.9765 238.799C49.0653 238.942 49.0209 239.125 48.8779 239.214C48.7349 239.302 48.5525 239.258 48.4637 239.115C48.4489 239.09 43.1731 230.619 42.6455 223.835H42.6504Z" fill="#342318"/>
<path fill-rule="evenodd" clip-rule="evenodd" d="M54.8093 222.278C54.8093 222.111 54.9424 221.978 55.1101 221.983C55.2777 221.983 55.4108 222.116 55.4059 222.283C55.3911 225.454 55.0114 228.452 54.5184 231.021C53.6111 235.749 52.2848 239.072 52.1073 239.339C52.0136 239.477 51.8262 239.511 51.6881 239.418C51.5501 239.324 51.5156 239.136 51.6093 238.998C51.7769 238.747 53.0392 235.542 53.9316 230.902C54.4198 228.358 54.7945 225.395 54.8093 222.273V222.278Z" fill="#342318"/>
<path fill-rule="evenodd" clip-rule="evenodd" d="M62.027 274.621C62.5448 273.867 61.8495 275.174 61.7559 275.381C66.9676 270.041 76.5282 258.493 74.6151 254.558C74.3735 254.065 73.9889 254.026 73.5008 254.332C75.8034 248.903 76.9424 244.115 75.3498 241.882C74.2453 240.333 72.6034 242.68 70.8431 246.714C73.7917 238.331 72.6133 229.274 70.2613 227.04C67.5199 224.432 67.8157 240.176 66.4795 252.793C65.2024 264.878 62.2391 273.798 62.032 274.621H62.027Z" fill="#6C6656"/>
<path fill-rule="evenodd" clip-rule="evenodd" d="M61.0021 302.859C60.9676 301.947 61.1944 303.407 61.2437 303.628C62.2693 296.232 63.073 281.258 59.0594 279.246C58.5515 278.995 58.2113 279.192 57.9944 279.729C56.5546 274 54.5429 269.478 51.8507 268.64C49.982 268.058 50.0658 270.923 51.0963 275.208C48.3696 266.722 41.8118 260.159 38.4836 259.77C34.6031 259.316 44.5533 271.766 51.2294 282.688C57.6196 293.146 60.6668 302.07 61.0021 302.854V302.859Z" fill="#342318"/>
<path fill-rule="evenodd" clip-rule="evenodd" d="M159.912 348.621C166.786 315.418 174.482 281.933 197.4 249.815C202.849 242.182 228.459 206.474 219.189 237.764C215.506 250.194 207.612 272.111 192.208 297.677C168.196 337.542 159.912 348.621 159.912 348.621Z" fill="#6C6656"/>
<path fill-rule="evenodd" clip-rule="evenodd" d="M216.477 233.056C216.551 232.908 216.733 232.849 216.881 232.922C217.029 232.996 217.088 233.179 217.014 233.327C189.407 288.728 161.642 345.816 161.563 345.983C161.494 346.131 161.312 346.195 161.164 346.122C161.016 346.048 160.952 345.87 161.026 345.722C161.105 345.555 188.909 288.378 216.477 233.056Z" fill="#342318"/>
<path fill-rule="evenodd" clip-rule="evenodd" d="M152.471 252.975C152.348 252.758 152.422 252.482 152.639 252.358C152.856 252.235 153.132 252.309 153.255 252.526C161.347 266.672 166.972 284.714 166.396 306.488C165.922 324.44 161.233 344.932 150.228 367.87C150.119 368.092 149.853 368.19 149.626 368.082C149.399 367.974 149.306 367.707 149.414 367.48C160.355 344.666 165.02 324.297 165.493 306.463C166.065 284.876 160.489 266.993 152.466 252.97L152.471 252.975Z" fill="#342318"/>
<path fill-rule="evenodd" clip-rule="evenodd" d="M146.657 249.318C141.673 253.287 140.361 254.682 142.673 255.096C144.986 255.511 148.802 251.226 148.802 251.226C148.802 251.226 146.835 257.794 149.67 258.829C152.505 259.864 151.268 251.96 151.268 251.96C151.268 251.96 153.506 257.202 156.923 256.867C160.34 256.531 154.68 250.609 154.68 250.609C154.68 250.609 164.497 253.228 163.136 251.231C161.775 249.234 156.652 244.55 146.662 249.318H146.657Z" fill="#6C6656"/>
<path fill-rule="evenodd" clip-rule="evenodd" d="M160.262 227.237C157.279 223.608 139.583 228.041 139.603 232.192C139.622 236.344 146.52 248.015 149.839 248.7C159.187 250.633 163.25 230.866 160.262 227.237Z" fill="#5F7797"/>
<path fill-rule="evenodd" clip-rule="evenodd" d="M139.932 231.868C139.789 231.789 139.735 231.606 139.814 231.458C139.893 231.315 140.075 231.261 140.223 231.34C142.24 232.454 145.869 233.091 149.404 233.095C152.663 233.1 155.819 232.573 157.525 231.385C157.988 231.064 158.24 230.773 158.309 230.527C158.373 230.305 158.259 230.088 158.018 229.886C157.712 229.634 157.214 229.412 156.578 229.23C154.33 228.584 150.474 228.47 147.008 229.19C145.661 229.471 144.947 229.733 144.695 229.964C144.675 229.984 144.67 229.994 144.68 230.004C144.808 230.117 145.08 230.226 145.454 230.319C146.899 230.684 149.581 230.763 151.347 230.275C152.421 229.979 148.615 230.132 148.6 230.132C148.433 230.137 148.294 230.009 148.29 229.846C148.285 229.678 148.413 229.54 148.576 229.535C148.6 229.535 157.658 229.156 151.504 230.857C149.645 231.37 146.825 231.291 145.306 230.906C144.843 230.788 144.483 230.64 144.281 230.458C143.96 230.172 143.931 229.856 144.286 229.531C144.611 229.23 145.42 228.914 146.884 228.613C150.439 227.879 154.413 227.992 156.741 228.663C157.456 228.865 158.023 229.126 158.397 229.437C158.831 229.797 159.019 230.221 158.886 230.704C158.782 231.089 158.457 231.493 157.87 231.897C156.055 233.155 152.772 233.717 149.404 233.712C145.775 233.707 142.032 233.041 139.937 231.883L139.932 231.868Z" fill="#342318"/>
<path fill-rule="evenodd" clip-rule="evenodd" d="M156.214 232.315C156.205 232.148 156.328 232.005 156.495 231.995C156.663 231.985 156.801 232.108 156.816 232.276C157.26 239.065 153.251 248.202 153.236 248.227C153.172 248.379 152.995 248.448 152.842 248.384C152.689 248.32 152.62 248.143 152.684 247.99C152.694 247.965 156.648 238.962 156.214 232.315Z" fill="#342318"/>
<path fill-rule="evenodd" clip-rule="evenodd" d="M143.96 232.556C143.936 232.394 144.049 232.241 144.217 232.216C144.379 232.192 144.532 232.305 144.557 232.473C145.016 235.564 145.809 238.444 146.653 240.884C148.196 245.352 149.902 248.345 150.104 248.566C150.217 248.69 150.208 248.877 150.084 248.991C149.961 249.099 149.774 249.094 149.66 248.971C149.443 248.734 147.658 245.628 146.086 241.082C145.228 238.602 144.424 235.687 143.96 232.561V232.556Z" fill="#342318"/>
<path fill-rule="evenodd" clip-rule="evenodd" d="M166.134 292.766C166.652 292.012 165.957 293.318 165.863 293.525C171.075 288.185 180.636 276.638 178.718 272.703C178.476 272.205 178.091 272.17 177.603 272.476C179.906 267.047 181.045 262.26 179.452 260.026C178.348 258.483 176.706 260.825 174.946 264.858C177.894 256.476 176.716 247.418 174.364 245.185C171.622 242.576 171.918 258.32 170.582 270.938C169.305 283.023 166.346 291.943 166.134 292.766Z" fill="#6C6656"/>
<path fill-rule="evenodd" clip-rule="evenodd" d="M164.853 317.016C164.824 316.103 165.041 317.563 165.09 317.785C166.086 310.389 166.86 295.414 162.975 293.402C162.486 293.151 162.151 293.348 161.944 293.886C160.549 288.156 158.601 283.635 155.993 282.796C154.183 282.215 154.267 285.079 155.263 289.364C152.625 280.878 146.269 274.316 143.05 273.926C139.292 273.472 148.927 285.923 155.391 296.844C161.579 307.302 164.533 316.227 164.853 317.011V317.016Z" fill="#342318"/>
<path fill-rule="evenodd" clip-rule="evenodd" d="M189.25 361.15C190.991 330.718 193.495 300.009 210.891 270.183C215.028 263.093 234.494 229.929 230.155 258.68C228.429 270.099 224.036 290.266 212.932 313.943C195.62 350.859 189.25 361.15 189.25 361.15Z" fill="#6C6656"/>
<path fill-rule="evenodd" clip-rule="evenodd" d="M226.832 254.465C226.891 254.307 227.059 254.228 227.217 254.283C227.369 254.337 227.453 254.509 227.394 254.667C208.909 305.799 190.507 358.533 190.453 358.685C190.399 358.843 190.226 358.927 190.074 358.873C189.916 358.819 189.837 358.646 189.891 358.493C189.945 358.34 208.357 305.587 226.837 254.465H226.832Z" fill="#342318"/>
<path fill-rule="evenodd" clip-rule="evenodd" d="M218.4 314.063C218.223 314.24 217.937 314.24 217.764 314.063C217.586 313.885 217.586 313.599 217.764 313.427C232.428 298.763 241.565 282.679 247.033 266.378C252.506 250.067 254.31 233.529 254.31 217.978C254.31 217.731 254.513 217.529 254.759 217.529C255.006 217.529 255.208 217.731 255.208 217.978C255.208 233.618 253.393 250.249 247.886 266.659C242.373 283.083 233.172 299.29 218.405 314.063H218.4Z" fill="#342318"/>
<path fill-rule="evenodd" clip-rule="evenodd" d="M259.665 234.856C265.409 237.519 267.002 238.53 264.857 239.279C262.712 240.029 258.028 236.893 258.028 236.893C258.028 236.893 261.45 242.346 258.94 243.727C256.431 245.107 255.809 237.948 255.809 237.948C255.809 237.948 254.848 242.928 251.46 243.204C248.073 243.48 252.19 237.327 252.19 237.327C249.454 238.535 239.671 241.528 246.12 236.015C248.32 234.137 254.36 233.318 259.655 234.856H259.665Z" fill="#6C6656"/>
<path fill-rule="evenodd" clip-rule="evenodd" d="M248.108 217.505C256.416 213.763 268.585 219.329 268.181 223.008C267.776 226.686 259.843 236.163 256.495 236.35C247.052 236.888 244.01 219.354 248.108 217.505Z" fill="#A4361F"/>
<path fill-rule="evenodd" clip-rule="evenodd" d="M267.668 222.139C267.825 222.085 267.993 222.169 268.052 222.327C268.107 222.484 268.023 222.652 267.87 222.706C265.681 223.47 261.914 223.584 258.324 223.135C254.991 222.716 251.796 221.804 250.119 220.463L250.105 220.448C249.577 220.024 249.296 219.629 249.222 219.279C249.123 218.816 249.335 218.451 249.799 218.175C250.174 217.948 250.736 217.785 251.426 217.692C253.778 217.361 257.796 217.751 261.312 218.87C262.722 219.319 263.491 219.699 263.787 220.004C264.137 220.364 264.078 220.665 263.708 220.897C263.496 221.03 263.127 221.123 262.663 221.168C261.13 221.321 258.319 221.035 256.524 220.349C250.302 217.958 259.532 219.477 259.557 219.482C259.719 219.506 259.833 219.664 259.803 219.827C259.779 219.989 259.621 220.103 259.458 220.073C259.448 220.073 255.977 219.496 256.736 219.787C258.447 220.448 261.135 220.714 262.599 220.571C262.939 220.537 263.201 220.482 263.344 220.413C263.102 220.177 262.421 219.856 261.13 219.442C257.698 218.347 253.783 217.968 251.505 218.283C250.889 218.372 250.405 218.505 250.1 218.688C249.878 218.821 249.769 218.979 249.804 219.151C249.853 219.373 250.065 219.649 250.474 219.98L250.494 219.994C252.077 221.262 255.163 222.129 258.398 222.539C261.909 222.977 265.567 222.874 267.673 222.139H267.668Z" fill="#342318"/>
<path fill-rule="evenodd" clip-rule="evenodd" d="M251.116 220.912C251.145 220.75 251.298 220.641 251.466 220.671C251.628 220.7 251.737 220.858 251.707 221.021C250.657 226.844 253.734 235.31 253.739 235.335C253.793 235.488 253.714 235.66 253.556 235.719C253.399 235.774 253.231 235.695 253.172 235.537C253.162 235.512 250.036 226.898 251.111 220.917L251.116 220.912Z" fill="#342318"/>
<path fill-rule="evenodd" clip-rule="evenodd" d="M263.25 222.622C263.294 222.465 263.457 222.371 263.619 222.415C263.777 222.46 263.871 222.622 263.827 222.785C263.072 225.507 262.002 227.992 260.922 230.083C258.935 233.924 256.869 236.458 256.633 236.64C256.5 236.744 256.312 236.719 256.209 236.586C256.105 236.453 256.13 236.266 256.263 236.162C256.485 235.99 258.447 233.559 260.39 229.802C261.455 227.74 262.505 225.295 263.25 222.617V222.622Z" fill="#342318"/>
<path fill-rule="evenodd" clip-rule="evenodd" d="M241.199 280.718C241.939 280.23 240.849 281.137 240.691 281.285C247.377 278.272 260.227 271.241 259.724 267.291C259.66 266.793 259.31 266.645 258.748 266.759C262.717 262.79 265.379 259.028 264.615 256.631C264.088 254.97 261.76 256.488 258.762 259.417C264.324 253.111 266.213 244.985 264.734 242.357C263.013 239.295 258.072 252.894 252.634 263.322C247.422 273.312 241.673 280.072 241.204 280.718H241.199Z" fill="#342318"/>
<path fill-rule="evenodd" clip-rule="evenodd" d="M187.421 362.182C199.659 335.694 212.701 309.216 239.4 288.443C245.746 283.508 275.547 260.452 261.465 284.583C255.869 294.168 244.721 310.651 226.068 328.032C196.977 355.136 187.421 362.187 187.421 362.187V362.182Z" fill="#6C6656"/>
<path fill-rule="evenodd" clip-rule="evenodd" d="M259.828 279.721C259.936 279.598 260.128 279.588 260.252 279.696C260.375 279.805 260.385 279.997 260.276 280.12C225.16 319.452 189.511 360.293 189.407 360.412C189.299 360.535 189.107 360.55 188.983 360.441C188.86 360.333 188.845 360.141 188.954 360.017C189.057 359.899 224.672 319.097 259.828 279.721Z" fill="#342318"/>
</g>
<path fill-rule="evenodd" clip-rule="evenodd" d="M250.731 83.3633C249.483 83.3633 248.468 84.3741 248.468 85.6265C248.468 86.8789 249.479 87.8897 250.731 87.8897C251.983 87.8897 252.989 86.8789 252.989 85.6265C252.989 84.3741 251.978 83.3633 250.731 83.3633Z" fill="white"/>
<path fill-rule="evenodd" clip-rule="evenodd" d="M261.613 121.729C260.731 121.729 260.021 122.443 260.021 123.321C260.021 124.199 260.735 124.914 261.613 124.914C262.491 124.914 263.206 124.199 263.206 123.321C263.206 122.443 262.491 121.729 261.613 121.729Z" fill="white"/>
<path fill-rule="evenodd" clip-rule="evenodd" d="M183.752 188.406C184.629 188.406 185.344 189.121 185.344 189.999C185.344 190.877 184.629 191.591 183.752 191.591C182.874 191.591 182.159 190.877 182.159 189.999C182.159 189.121 182.874 188.406 183.752 188.406Z" fill="white"/>
<path fill-rule="evenodd" clip-rule="evenodd" d="M174.152 187.633C175.399 187.633 176.415 188.644 176.415 189.896C176.415 191.148 175.404 192.159 174.152 192.159C172.899 192.159 171.894 191.148 171.894 189.896C171.894 188.644 172.904 187.633 174.152 187.633Z" fill="white"/>
<path fill-rule="evenodd" clip-rule="evenodd" d="M89.3885 229.234C90.2662 229.234 90.9811 229.949 90.9811 230.827C90.9811 231.705 90.2662 232.42 89.3885 232.42C88.5108 232.42 87.7959 231.705 87.7959 230.827C87.7959 229.949 88.5108 229.234 89.3885 229.234Z" fill="white"/>
<path fill-rule="evenodd" clip-rule="evenodd" d="M55.9087 251.244C57.1562 251.244 58.1719 252.255 58.1719 253.502C58.1719 254.75 57.1611 255.766 55.9087 255.766C54.6563 255.766 53.6455 254.755 53.6455 253.502C53.6455 252.25 54.6563 251.244 55.9087 251.244Z" fill="white"/>
<path fill-rule="evenodd" clip-rule="evenodd" d="M44.4597 107.943C43.4292 107.238 42.0239 107.499 41.3188 108.53C40.6137 109.56 40.8751 110.965 41.9056 111.67C42.9361 112.376 44.3413 112.114 45.0464 111.084C45.7515 110.053 45.4902 108.648 44.4597 107.943Z" fill="white"/>
<path fill-rule="evenodd" clip-rule="evenodd" d="M73.5958 146.004C72.3977 145.185 70.7607 145.491 69.9422 146.689C69.1237 147.887 69.4294 149.524 70.6276 150.343C71.8257 151.161 73.4627 150.856 74.2812 149.657C75.0997 148.459 74.794 146.822 73.5958 146.004Z" fill="white"/>
<path fill-rule="evenodd" clip-rule="evenodd" d="M67.3926 149.524C66.7269 149.071 65.8246 149.238 65.371 149.904C64.9173 150.57 65.085 151.472 65.7506 151.93C66.4163 152.384 67.3186 152.216 67.7722 151.551C68.2258 150.885 68.0582 149.983 67.3926 149.529V149.524Z" fill="white"/>
<path fill-rule="evenodd" clip-rule="evenodd" d="M250.616 142.295C249.714 142.295 248.984 143.025 248.984 143.932C248.984 144.839 249.714 145.569 250.616 145.569C251.519 145.569 252.248 144.839 252.248 143.932C252.248 143.025 251.519 142.295 250.616 142.295Z" fill="white"/>
<path fill-rule="evenodd" clip-rule="evenodd" d="M246.658 147.314C246.022 147.314 245.504 147.832 245.504 148.468C245.504 149.104 246.017 149.617 246.658 149.617C247.299 149.617 247.807 149.104 247.807 148.468C247.807 147.832 247.294 147.314 246.658 147.314Z" fill="white"/>
<path fill-rule="evenodd" clip-rule="evenodd" d="M194.19 240.766C192.942 240.766 191.932 241.776 191.932 243.029C191.932 244.281 192.942 245.292 194.19 245.292C195.437 245.292 196.453 244.281 196.453 243.029C196.453 241.776 195.442 240.766 194.19 240.766Z" fill="white"/>
<path fill-rule="evenodd" clip-rule="evenodd" d="M243.023 262.832C242.146 262.832 241.431 263.547 241.431 264.425C241.431 265.302 242.146 266.017 243.023 266.017C243.901 266.017 244.616 265.302 244.616 264.425C244.616 263.547 243.901 262.832 243.023 262.832Z" fill="white"/>
<path fill-rule="evenodd" clip-rule="evenodd" d="M156.831 89.6951C154.745 86.7564 151.619 88.9358 152.946 90.2621C154.272 91.5885 157.97 93.4868 157.97 93.4868C157.97 93.4868 162.048 87.422 159.77 86.0957C157.497 84.7693 156.831 89.7 156.831 89.7V89.6951Z" fill="#A4361F"/>
<path fill-rule="evenodd" clip-rule="evenodd" d="M165.276 97.5787C164.645 92.5051 159.271 93.1263 160.04 95.6755C160.804 98.2247 164.152 103.076 164.152 103.076C164.152 103.076 173.323 98.2345 171.371 95.0493C169.418 91.8641 165.276 97.5738 165.276 97.5738V97.5787Z" fill="#A4361F"/>
<path fill-rule="evenodd" clip-rule="evenodd" d="M169.513 78.255C165.617 68.6944 157.511 74.0393 159.696 78.2599C161.88 82.4806 169.345 89.8964 169.345 89.8964C169.345 89.8964 183.836 78.3832 179.369 73.4328C174.897 68.4824 169.513 78.255 169.513 78.255Z" fill="#A4361F"/>
</g>
</svg>
