<svg width="302" height="302" viewBox="0 0 302 302" fill="none" xmlns="http://www.w3.org/2000/svg">
<g clip-path="url(#clip0_2503_9976)">
<path d="M151.002 0H150.998C67.604 0 0 67.604 0 150.998V151.002C0 234.396 67.604 302 150.998 302H151.002C234.396 302 302 234.396 302 151.002V150.998C302 67.604 234.396 0 151.002 0Z" fill="#8BBA9D"/>
<path d="M144.999 194.035C182.31 194.035 212.556 163.788 212.556 126.477C212.556 89.1664 182.31 58.9199 144.999 58.9199C107.688 58.9199 77.4414 89.1664 77.4414 126.477C77.4414 163.788 107.688 194.035 144.999 194.035Z" fill="#3A6435"/>
<path d="M175.123 196.923C158.832 179.465 151.549 183.799 153.676 167.669C155.803 151.539 147.866 138.137 139.229 134.956C130.596 131.775 120.182 131.187 117.8 112.967C115.418 94.7459 99.5703 91.2776 91.7767 94.2793C83.9787 97.2809 74.552 110.477 85.0017 125.592C95.4514 140.708 88.12 148.125 83.8486 156.273C79.5772 164.425 82.6776 179.689 95.07 190.229C107.462 200.768 99.153 202.437 98.7716 226.311C98.3947 250.186 149.01 242.948 149.01 242.948C149.01 242.948 191.414 214.377 175.123 196.919V196.923Z" fill="#32A273"/>
<path d="M150.926 185.164L133.607 202.945L126.119 183.486L120.775 169.608L133.087 146.035L119.532 166.378L111.151 144.604L94.0249 100.117L109.424 143.1L92.1943 131.219L110.011 144.738L123.916 183.558L92.5757 171.511L125.751 188.682L139.261 227.627L110.482 218.021L141.594 232.894L145.659 244.246L149.01 242.958L135.16 206.979L150.926 185.164Z" fill="#240B35"/>
<path d="M137.335 203.106C152.119 190.045 157.763 194.186 157.297 180.753C156.83 167.319 164.422 156.928 171.776 154.999C179.129 153.069 187.74 153.415 191.145 138.622C194.555 123.829 207.858 122.236 214.032 125.323C220.206 128.41 226.909 140.013 217.114 151.616C207.32 163.214 212.762 169.895 215.625 176.939C218.487 183.983 214.727 196.291 203.699 203.972C192.67 211.653 199.374 213.686 197.785 233.351C196.197 253.017 155.148 243.043 155.148 243.043C155.148 243.043 122.547 216.176 137.331 203.115L137.335 203.106Z" fill="#32A273"/>
<path d="M158.172 195.362L171 211.358L178.708 195.955L184.204 184.962L175.953 164.601L185.483 182.409L194.106 165.166L211.726 129.945L195.645 164.067L210.761 155.668L195.031 165.368L180.512 196.188L207.239 188.771L178.596 200.253L164.391 231.207L188.821 225.594L162.053 235.353L157.809 244.367L155.152 243.039L169.402 214.552L158.172 195.362Z" fill="#240B35"/>
<path d="M112.349 228.659C116.521 221.83 117.661 195.273 117.661 195.273L107.418 209.483C109.692 197.516 104.003 181.234 104.003 181.234C99.8305 186.165 95.6578 211.964 95.6578 211.964C96.0392 200.204 78.2043 170.232 78.2043 170.232C75.9295 177.82 79.7208 211.964 79.7208 211.964L63.5954 192.236C61.509 197.167 73.2688 236.798 73.2688 236.798L53.9219 224.863C56.9549 236.623 67.1982 248.733 67.1982 248.733H113.861C123.723 239.975 122.587 215.001 122.587 215.001L112.344 228.659H112.349Z" fill="#025408"/>
<path d="M232.644 238.441C232.644 238.441 242.788 204.265 240.985 200.012L227.08 217.026C227.08 217.026 230.351 187.579 228.39 181.037C228.39 181.037 213.014 206.885 213.342 217.026C213.342 217.026 209.743 194.776 206.145 190.522C206.145 190.522 201.236 204.561 203.202 214.881L194.367 202.627C194.367 202.627 195.35 225.528 198.948 231.419L190.114 219.641C190.114 219.641 189.131 241.178 197.638 248.733H237.88C237.88 248.733 246.714 238.293 249.33 228.148L232.644 238.441Z" fill="#025408"/>
<path d="M92.946 169.448C99.3618 165.787 98.3246 151.887 90.6292 138.401C82.9339 124.915 71.4946 116.95 65.0788 120.611C58.663 124.272 59.7002 138.173 67.3956 151.659C75.0909 165.144 86.5302 173.109 92.946 169.448Z" fill="#6BC14C"/>
<path d="M95.1793 194.578C98.3909 189.064 91.6003 179.122 80.012 172.372C68.4237 165.622 56.4261 164.62 53.2145 170.134C50.0029 175.648 56.7936 185.589 68.3818 192.339C79.9701 199.089 91.9677 200.091 95.1793 194.578Z" fill="#6BC14C"/>
<path d="M109.733 210.705C106.983 206.6 103.77 202.652 100.127 198.883C100.208 197.873 100.692 189.667 97.0624 177.055C95.9631 173.227 94.4017 168.741 92.1898 163.733C92.1898 163.68 92.1628 163.635 92.1314 163.594C90.6732 160.301 88.9279 156.779 86.855 153.073L92.7775 145.809C92.8583 145.71 92.8448 145.557 92.7416 145.477C92.6429 145.396 92.4949 145.409 92.4096 145.513L86.6037 152.633C84.9257 149.658 83.0323 146.567 80.8966 143.377C80.8831 143.323 80.8517 143.278 80.8113 143.247C78.4423 139.72 75.7727 136.072 72.7755 132.33L74.9247 123.424C74.9561 123.299 74.8753 123.168 74.7497 123.142C74.6241 123.11 74.4984 123.191 74.467 123.317L72.4031 131.864C70.2809 129.235 67.9926 126.56 65.5294 123.85C65.4396 123.756 65.2916 123.747 65.1974 123.833C65.1031 123.922 65.0942 124.07 65.1794 124.165C71.1782 130.76 76.1137 137.136 80.1832 143.166L65.7582 142.363C65.6281 142.354 65.5159 142.457 65.5114 142.583C65.5025 142.713 65.6012 142.825 65.7313 142.83L80.5152 143.651C85.316 150.82 88.883 157.488 91.5392 163.433L79.0435 161.248C78.9134 161.221 78.7923 161.311 78.7698 161.441C78.7474 161.566 78.8326 161.692 78.9628 161.714L91.768 163.953C93.9531 168.916 95.501 173.357 96.5958 177.149C99.898 188.617 99.7814 196.406 99.6782 198.416C95.8913 194.553 91.6469 190.883 86.9716 187.432C84.3603 185.508 81.7535 183.758 79.223 182.178L77.9891 172.608C77.9712 172.478 77.8545 172.388 77.7244 172.406C77.5943 172.424 77.5046 172.541 77.5225 172.671L78.707 181.86C75.1804 179.684 71.8064 177.831 68.7688 176.296C68.7419 176.274 68.706 176.256 68.6701 176.247C60.7689 172.267 55.156 170.414 55.0617 170.383C54.9361 170.342 54.806 170.41 54.7656 170.535C54.7252 170.661 54.7925 170.791 54.9182 170.831C55.0079 170.863 60.3337 172.622 67.8984 176.386L56.5917 178.782C56.4661 178.809 56.3853 178.935 56.4123 179.06C56.4347 179.172 56.5334 179.249 56.6411 179.249C56.659 179.249 56.6725 179.249 56.6904 179.244L68.5804 176.727C73.9196 179.424 80.2908 183.085 86.7069 187.818C87.7793 188.608 88.8651 189.447 89.9643 190.317L78.9448 193.301C78.8192 193.337 78.7474 193.463 78.7788 193.588C78.8057 193.692 78.8999 193.763 79.0076 193.763C79.0301 193.763 79.048 193.763 79.0704 193.754L90.4175 190.681C104.268 201.844 119.505 219.805 121.322 245.568C121.331 245.693 121.435 245.787 121.556 245.787C121.56 245.787 121.565 245.787 121.574 245.787C121.704 245.778 121.802 245.666 121.793 245.536C120.914 233.049 116.858 221.326 109.733 210.692V210.705Z" fill="#7DEAC4"/>
<path d="M196.878 113.925C204.574 100.439 205.611 86.539 199.195 82.878C192.779 79.217 181.34 87.1817 173.645 100.668C165.949 114.153 164.912 128.054 171.328 131.715C177.744 135.376 189.183 127.411 196.878 113.925Z" fill="#6BC14C"/>
<path d="M195.887 154.62C207.475 147.87 214.266 137.928 211.054 132.415C207.843 126.901 195.845 127.903 184.257 134.653C172.669 141.403 165.878 151.345 169.09 156.858C172.301 162.372 184.299 161.37 195.887 154.62Z" fill="#6BC14C"/>
<path d="M154.538 172.973C157.288 168.868 160.5 164.919 164.144 161.15C164.063 160.141 163.578 151.934 167.208 139.322C168.307 135.495 169.869 131.008 172.081 126.001C172.081 125.947 172.108 125.902 172.139 125.862C173.597 122.569 175.343 119.046 177.416 115.34L171.493 108.076C171.412 107.978 171.426 107.825 171.529 107.744C171.628 107.664 171.776 107.677 171.861 107.78L177.667 114.901C179.345 111.926 181.238 108.835 183.374 105.644C183.388 105.591 183.419 105.546 183.459 105.514C185.828 101.988 188.498 98.34 191.495 94.598L189.346 85.6918C189.315 85.5662 189.391 85.4361 189.521 85.4091C189.647 85.3777 189.772 85.4585 189.804 85.5841L191.868 94.1314C193.99 91.5022 196.278 88.8281 198.741 86.118C198.831 86.0238 198.979 86.0148 199.073 86.1001C199.167 86.1898 199.176 86.3379 199.091 86.4321C193.092 93.0277 188.157 99.4034 184.087 105.434L198.512 104.63C198.643 104.621 198.755 104.725 198.759 104.85C198.768 104.98 198.669 105.093 198.539 105.097L183.755 105.918C178.955 113.088 175.388 119.755 172.731 125.7L185.227 123.515C185.357 123.488 185.478 123.578 185.501 123.708C185.523 123.834 185.438 123.959 185.308 123.982L172.503 126.221C170.318 131.183 168.77 135.625 167.675 139.416C164.373 150.885 164.489 158.674 164.592 160.684C168.379 156.821 172.624 153.15 177.299 149.7C179.91 147.775 182.517 146.025 185.048 144.446L186.281 134.876C186.299 134.746 186.416 134.656 186.546 134.674C186.676 134.692 186.766 134.808 186.748 134.939L185.564 144.127C189.09 141.951 192.464 140.098 195.502 138.564C195.529 138.541 195.565 138.524 195.6 138.515C203.502 134.535 209.115 132.682 209.209 132.65C209.334 132.61 209.465 132.677 209.505 132.803C209.545 132.929 209.478 133.059 209.352 133.099C209.263 133.13 203.937 134.889 196.372 138.654L207.679 141.05C207.805 141.076 207.885 141.202 207.858 141.328C207.836 141.44 207.737 141.516 207.63 141.516C207.612 141.516 207.598 141.516 207.58 141.512L195.69 138.995C190.355 141.691 183.98 145.352 177.564 150.086C176.491 150.876 175.406 151.715 174.306 152.585L185.326 155.569C185.451 155.605 185.523 155.73 185.492 155.856C185.465 155.959 185.371 156.031 185.263 156.031C185.241 156.031 185.223 156.031 185.2 156.022L173.853 152.948C160.002 164.112 144.765 182.072 142.948 207.835C142.939 207.961 142.836 208.055 142.715 208.055C142.71 208.055 142.706 208.055 142.697 208.055C142.567 208.046 142.468 207.934 142.477 207.804C143.357 195.317 147.413 183.593 154.538 172.959V172.973Z" fill="#7DEAC4"/>
<path d="M205.84 225.338C203.287 221.542 199.504 216.759 196.417 213.183C191.078 207.005 123.907 205.278 109.078 205.129C94.2491 204.981 87.2811 234.935 86.3928 241.311C85.5044 247.686 89.9508 248.799 89.9508 248.799H226.447V246.87C226.447 235.281 217.303 225.831 205.84 225.338Z" fill="#25163D"/>
<path d="M196.418 213.188C191.5 207.498 134.15 205.583 113.529 205.201C110.267 215.534 125.8 226.971 125.8 226.971C111.344 229.38 107.894 237.241 107.894 237.241C109.338 233.903 121.462 228.232 132.041 227.891C142.621 227.55 179.404 233.791 179.404 233.791L166.984 239.018C166.984 239.018 193.64 230.453 199.805 228.263C205.952 226.083 215.702 228.25 215.764 228.263C212.826 226.545 209.447 225.499 205.84 225.342C203.287 221.546 199.504 216.764 196.418 213.188Z" fill="#170E28"/>
<path d="M140.615 111.961C140.615 111.961 140.422 118.238 136.532 121.908C132.638 125.578 146.098 138.814 153.717 137.087C161.335 135.364 160.833 127.692 160.833 127.692C160.833 127.692 157.163 125.246 156.44 123.689C155.718 122.132 157.275 115.402 157.275 115.402L140.62 111.961H140.615Z" fill="#DA6B6B"/>
<path d="M156.939 116.968C157.123 116.039 157.271 115.402 157.271 115.402L140.616 111.961C140.616 111.961 140.557 113.814 139.88 116.093C152.851 122.168 156.939 116.968 156.939 116.968Z" fill="#CB5252"/>
<path d="M132.669 107.328C130.471 103.774 130.251 99.9243 132.18 98.7353C134.105 97.5463 137.448 99.4622 139.642 103.02C139.659 103.047 139.673 103.074 139.691 103.101C141.768 106.52 142.024 110.177 140.306 111.478C140.247 111.523 140.193 111.572 140.131 111.608C138.206 112.797 134.863 110.881 132.669 107.323V107.328Z" fill="#DA6B6B"/>
<path d="M163.512 96.4377C163.512 96.4377 162.547 101.315 163.153 105.236C163.758 109.158 159.684 115.569 156.005 117.57C152.326 119.571 144.474 115.847 141.549 113.039C138.623 110.226 136.411 102.876 136.165 99.529C135.918 96.1819 140.508 82.6992 150.114 83.933C159.72 85.1669 164.876 88.1237 163.512 96.4377Z" fill="#E9978A"/>
<path d="M162.314 92.4352C162.314 92.4352 154.381 95.1766 153.268 92.7313C153.268 92.7313 141.701 96.7874 142.89 93.0903C142.89 93.0903 140.221 100.516 139.48 97.9225C139.48 97.9225 137.627 104.967 139.48 110.158C139.48 110.158 135.254 103.378 134.958 98.9814L133.549 98.4116C133.549 98.4116 130.879 89.0252 131.844 84.7987C132.809 80.5722 137.923 76.0495 139.628 77.7545C139.628 77.7545 155.018 72.6037 157.244 75.8655C157.244 75.8655 161.367 77.6827 163.731 77.6064C166.096 77.5301 168.914 86.5037 166.989 89.8418C166.989 89.8418 165.786 95.3785 163.516 96.4374L163.637 92.5025C163.637 92.5025 162.69 93.3999 162.318 92.4352H162.314Z" fill="#0D1623"/>
<path d="M161.052 96.1562C158.948 96.2325 158.23 98.2695 158.539 98.5073C158.849 98.7451 159.217 97.0805 161.236 97.4978C162.999 97.8612 163.143 98.9829 163.143 98.9829C163.722 98.0183 163.156 96.0845 161.052 96.1562Z" fill="#0D1623"/>
<path d="M151.971 94.8096C152.016 95.8819 147.525 94.0782 145.721 96.1915C144.815 97.2548 143.787 99.6912 145.564 97.5779C147.341 95.4691 153.183 97.3491 153.183 97.3491C154.394 97.6766 154.457 97.2683 154.354 96.3575C154.251 95.4422 151.962 94.4327 151.976 94.8096H151.971Z" fill="#0D1623"/>
<path d="M157.539 105.299L157.216 105.276L155.691 105.178H155.592C155.449 105.16 155.323 105.267 155.314 105.407L155.247 106.452C155.238 106.591 155.345 106.712 155.493 106.721H155.592C155.592 106.721 156.135 106.856 156.193 107.21C156.193 107.21 156.166 107.39 156.786 107.43C156.907 107.439 157.001 107.444 157.082 107.448H158.248C158.863 107.488 158.971 106.95 158.971 106.95H159.069C159.213 106.968 159.339 106.86 159.348 106.721L159.258 105.649C159.258 105.649 159.173 105.407 158.8 105.384L157.544 105.303L157.539 105.299Z" fill="#E8344F"/>
<path d="M152.694 100.633C152.658 100.615 152.622 100.606 152.591 100.602C152.456 100.588 152.326 100.656 152.263 100.786C152.084 101.154 151.442 102.204 150.845 102.177C150.437 102.15 150.02 101.62 149.647 100.66C149.585 100.494 149.392 100.409 149.226 100.476C149.06 100.539 148.974 100.727 149.042 100.898C149.531 102.172 150.136 102.8 150.818 102.832C151.949 102.877 152.757 101.257 152.846 101.073C152.923 100.911 152.855 100.719 152.694 100.638V100.633Z" fill="#2C2636"/>
<path d="M163.013 101.176C162.977 101.158 162.942 101.149 162.91 101.145C162.776 101.131 162.645 101.199 162.583 101.329C162.403 101.697 161.762 102.747 161.165 102.72C160.756 102.693 160.339 102.163 159.967 101.203C159.904 101.037 159.711 100.952 159.545 101.019C159.379 101.082 159.294 101.27 159.357 101.441C159.846 102.715 160.451 103.343 161.133 103.375C162.264 103.42 163.072 101.8 163.161 101.616C163.238 101.454 163.17 101.261 163.009 101.181L163.013 101.176Z" fill="#2C2636"/>
<path d="M158.648 110.904C155.907 112.506 153.264 110.922 153.237 110.904C153.125 110.837 152.981 110.873 152.914 110.981C152.847 111.093 152.883 111.236 152.99 111.304C153.067 111.353 154.309 112.098 156.001 112.098C156.871 112.098 157.867 111.9 158.881 111.308C158.994 111.241 159.034 111.097 158.967 110.985C158.899 110.873 158.756 110.833 158.644 110.9L158.648 110.904Z" fill="#2C2636"/>
<path d="M143.85 107.929C142.154 108.346 141.786 110.549 143.034 112.851C144.277 115.152 146.664 116.682 148.36 116.269C150.056 115.852 150.424 113.649 149.176 111.347C147.933 109.046 145.546 107.516 143.85 107.929Z" fill="#DD7660"/>
<path d="M159.738 112.877C159.33 113.635 159.096 114.375 159.024 115.053C160.29 113.644 161.425 111.912 162.192 110.176C161.241 110.795 160.352 111.742 159.738 112.877Z" fill="#DD7660"/>
<path d="M138.292 119.725C138.292 119.725 125.684 124.543 123.091 126.248C120.497 127.953 118.94 129.362 118.94 129.362L113.529 150.643C113.529 150.643 117.46 157.095 130.287 159.316L129.399 197.126C129.399 197.126 156.831 198.162 162.318 197.126C167.806 196.089 168.99 195.793 168.99 195.793C168.99 195.793 168.528 177.128 170.009 165.117C170.009 165.117 184.411 161.393 185.892 154.865C185.892 154.865 178.031 131.879 176.254 130.251C174.473 128.617 156.441 123.691 156.441 123.691C156.441 123.691 152.829 135.146 138.296 119.725H138.292Z" fill="#FFE6B7"/>
<path d="M168.613 137.24C170.614 142.786 170.004 165.112 170.004 165.112L171.628 163.048C173.087 148.026 168.613 137.245 168.613 137.245V137.24Z" fill="#90E082"/>
<path d="M129.395 197.125L131.328 197.192L132.36 137.24L130.301 157.274L129.395 197.125Z" fill="#90E082"/>
<path d="M113.529 150.639C113.529 150.639 115.983 154.654 123.319 157.445C126.998 157.773 130.3 157.275 130.3 157.275C129.17 155.422 113.524 150.639 113.524 150.639H113.529Z" fill="#90E082"/>
<path d="M170.004 165.112C170.004 165.112 184.406 161.388 185.887 154.859L170.004 165.112Z" fill="#90E082"/>
<path d="M153.043 197.587C153.043 197.587 134.58 177.962 131.246 176.961C127.908 175.961 120.016 175.736 116.346 178.85C112.676 181.964 110.787 186.191 111.231 193.643C111.675 201.096 117.18 224.279 145.483 227.339C177.366 230.785 202.088 217.109 212.322 211.213C222.552 205.318 228.672 198.978 228.336 193.531C228.004 188.08 224.221 179.631 215.1 181.296C205.983 182.965 168.985 195.792 168.985 195.792C168.985 195.792 159.495 197.618 153.043 197.587Z" fill="#402256"/>
<path d="M165.09 225.967L161.662 224.782L166.333 217.998L157.768 227.838L157.875 227.855C164.395 227.703 170.523 226.9 176.19 225.688L173.337 225.06L165.085 225.967H165.09Z" fill="#25133D"/>
<path d="M168.984 195.788C168.984 195.788 159.495 197.614 153.043 197.583L165.552 211.541L166.162 217.159L166.943 214.547L171.134 216.252L166.777 213.188L166.167 210.77L163.497 208.71L205.04 186.514L210.635 182.359C197.507 185.899 168.984 195.788 168.984 195.788Z" fill="#25133D"/>
<path d="M133.095 213.187C133.095 213.187 120.68 202.984 115.233 202.76C115.233 202.76 124.019 212.51 118.513 212.972C123.552 219.756 131.888 225.867 145.483 227.338C148.332 227.648 151.119 227.814 153.847 227.863L153.838 227.809L133.1 213.187H133.095Z" fill="#25133D"/>
<path d="M171.134 216.252C171.134 216.252 174.988 217.809 176.621 217.437C178.254 217.064 189.669 212.766 193.007 212.914C196.345 213.062 206.481 212.972 207.082 213.87C207.683 214.767 208.576 217.14 206.126 217.881C206.126 217.881 207.459 218.177 207.091 219.514C206.719 220.846 205.386 220.775 205.386 220.775C205.386 220.775 207.535 222.628 203.977 224.037C203.977 224.037 203.457 225.742 200.491 225.966C200.491 225.966 200.863 226.931 196.709 227.339C192.558 227.747 175.984 228.721 164.808 225.899C164.808 225.899 168.98 225.522 171.129 216.257L171.134 216.252Z" fill="#E9978A"/>
<path d="M206.131 217.773H204.538C204.475 217.773 204.426 217.823 204.426 217.886C204.426 217.948 204.475 217.998 204.538 217.998H206.131C206.194 217.998 206.243 217.948 206.243 217.886C206.243 217.823 206.194 217.773 206.131 217.773Z" fill="#C11F1B"/>
<path d="M205.385 220.662H203.923C203.86 220.662 203.811 220.711 203.811 220.774C203.811 220.837 203.86 220.886 203.923 220.886H205.385C205.448 220.886 205.498 220.837 205.498 220.774C205.498 220.711 205.448 220.662 205.385 220.662Z" fill="#C11F1B"/>
<path d="M203.994 223.93L202.437 223.697C202.37 223.688 202.321 223.728 202.312 223.791C202.303 223.854 202.343 223.907 202.406 223.916L203.963 224.15C203.963 224.15 203.976 224.15 203.981 224.15C204.035 224.15 204.084 224.109 204.089 224.055C204.098 223.993 204.057 223.939 203.994 223.93Z" fill="#C11F1B"/>
<path d="M200.495 225.854H199.113C199.05 225.854 199.001 225.903 199.001 225.966C199.001 226.028 199.05 226.078 199.113 226.078H200.495C200.558 226.078 200.607 226.028 200.607 225.966C200.607 225.903 200.558 225.854 200.495 225.854Z" fill="#C11F1B"/>
<path d="M169.281 226.078C172.395 223.296 171.134 216.252 171.134 216.252C168.985 225.522 164.812 225.894 164.812 225.894C167.24 226.509 169.918 226.939 172.673 227.24L169.281 226.073V226.078Z" fill="#DA6B6B"/>
<path d="M128.77 213.869C128.169 214.767 127.276 217.14 129.726 217.881C129.726 217.881 128.393 218.177 128.761 219.514C129.133 220.846 130.466 220.775 130.466 220.775C130.466 220.775 128.317 222.628 131.875 224.037C131.875 224.037 132.395 225.741 135.361 225.966C135.361 225.966 134.989 226.93 139.143 227.339C141.373 227.559 147.197 227.94 153.838 227.81C145.402 222.798 133.1 213.192 133.1 213.188C130.82 213.309 129.017 213.511 128.774 213.874L128.77 213.869Z" fill="#E9978A"/>
<path d="M131.427 217.886C131.427 217.823 131.377 217.773 131.314 217.773H129.722C129.659 217.773 129.609 217.823 129.609 217.886C129.609 217.948 129.659 217.998 129.722 217.998H131.314C131.377 217.998 131.427 217.948 131.427 217.886Z" fill="#C11F1B"/>
<path d="M132.042 220.774C132.042 220.711 131.992 220.662 131.929 220.662H130.467C130.404 220.662 130.354 220.711 130.354 220.774C130.354 220.837 130.404 220.886 130.467 220.886H131.929C131.992 220.886 132.042 220.837 132.042 220.774Z" fill="#C11F1B"/>
<path d="M133.414 223.697L131.857 223.93C131.794 223.939 131.754 223.997 131.763 224.055C131.772 224.109 131.817 224.15 131.871 224.15C131.875 224.15 131.88 224.15 131.889 224.15L133.446 223.916C133.508 223.907 133.549 223.849 133.54 223.791C133.531 223.728 133.472 223.688 133.414 223.697Z" fill="#C11F1B"/>
<path d="M136.739 225.854H135.357C135.294 225.854 135.245 225.903 135.245 225.966C135.245 226.028 135.294 226.078 135.357 226.078H136.739C136.802 226.078 136.851 226.028 136.851 225.966C136.851 225.903 136.802 225.854 136.739 225.854Z" fill="#C11F1B"/>
<path d="M153.833 227.806C145.397 222.794 133.095 213.188 133.095 213.184C133.095 213.184 141.436 223.158 149.458 227.819C150.853 227.833 152.321 227.833 153.833 227.801V227.806Z" fill="#DA6B6B"/>
<path d="M116.068 151.489C116.068 151.489 116.18 162.831 116.844 166.56C116.844 166.56 116.122 166.614 115.233 167.062C115.233 167.062 114.901 165.174 113.008 165.672L111.954 167.062C111.954 167.062 111.065 166.618 110.509 167.062C109.953 167.507 109.733 170.122 110.509 170.508C110.509 170.508 110.787 177.517 111.734 178.015C112.681 178.517 113.533 178.239 113.533 178.239C113.533 178.239 115.96 180.518 116.849 180.186C117.737 179.854 118.518 179.02 118.518 179.02C118.518 179.02 119.074 180.034 120.241 180.222C121.407 180.411 122.022 179.8 122.022 179.8C122.022 179.8 123.135 181.133 124.911 179.966C126.693 178.8 129.344 176.579 129.748 170.791C130.152 165.003 130.305 157.277 130.305 157.277C130.305 157.277 127.079 151.049 116.068 151.493V151.489Z" fill="#E9978A"/>
<path d="M111.851 167.018L110.406 170.464C110.384 170.522 110.406 170.585 110.464 170.607C110.478 170.612 110.491 170.616 110.509 170.616C110.554 170.616 110.594 170.589 110.612 170.549L112.057 167.103C112.08 167.045 112.057 166.982 111.999 166.96C111.94 166.933 111.878 166.96 111.855 167.018H111.851Z" fill="#C11F1B"/>
<path d="M115.337 167.093C115.355 167.035 115.323 166.972 115.265 166.954C115.207 166.936 115.144 166.968 115.126 167.026C115.063 167.219 113.565 171.76 113.416 172.98C113.268 174.196 113.408 178.077 113.416 178.243C113.416 178.301 113.47 178.351 113.529 178.351C113.591 178.351 113.636 178.297 113.636 178.234C113.636 178.194 113.488 174.205 113.636 173.007C113.78 171.809 115.323 167.143 115.337 167.098V167.093Z" fill="#C11F1B"/>
<path d="M118.029 166.946C117.545 166.578 116.908 166.457 116.863 166.448C116.804 166.434 116.746 166.475 116.733 166.538C116.724 166.6 116.764 166.654 116.822 166.668C116.836 166.668 118.276 166.941 118.343 167.884C118.393 168.561 118.276 169.764 118.177 170.827C118.124 171.392 118.074 171.926 118.047 172.352C117.976 173.604 118.384 178.8 118.402 179.02C118.406 179.078 118.456 179.123 118.514 179.123C118.514 179.123 118.518 179.123 118.523 179.123C118.586 179.119 118.631 179.065 118.626 179.002C118.626 178.948 118.2 173.6 118.276 172.361C118.303 171.935 118.352 171.406 118.406 170.84C118.474 170.154 118.536 169.454 118.568 168.857C118.841 168.763 119.905 168.436 120.627 168.875C121.462 169.382 121.794 170.84 121.798 170.84L121.91 179.792C121.91 179.854 121.96 179.904 122.023 179.904C122.085 179.904 122.135 179.854 122.13 179.792L122.018 170.912C122.265 170.796 123.247 170.392 123.835 170.926C124.356 171.392 124.764 175.857 124.912 178.746C124.912 178.804 124.966 178.854 125.024 178.854H125.029C125.092 178.854 125.136 178.8 125.132 178.737C125.096 177.992 124.737 171.442 123.983 170.764C123.328 170.172 122.332 170.531 121.982 170.688C121.879 170.298 121.516 169.162 120.744 168.696C119.995 168.243 118.967 168.503 118.577 168.633C118.586 168.35 118.586 168.09 118.577 167.875C118.559 167.597 118.442 167.368 118.285 167.184C119.609 167.242 125.154 167.803 126.626 173.138C126.639 173.187 126.684 173.218 126.734 173.218C126.743 173.218 126.752 173.218 126.765 173.218C126.823 173.2 126.859 173.142 126.841 173.079C125.199 167.125 118.622 166.959 118.038 166.955L118.029 166.946Z" fill="#C11F1B"/>
<path d="M116.068 151.489C116.068 151.489 116.073 152.037 116.091 152.934C116.091 152.934 123.279 151.525 130.305 157.273C130.305 157.273 127.079 151.045 116.068 151.489Z" fill="#DA6B6B"/>
<path d="M183.517 156.422L190.485 175.625C190.485 175.625 193.451 174.441 202.42 175.625C211.389 176.81 217.397 177.922 219.25 177.33C221.103 176.738 235.263 173.92 237.157 174.032C239.046 174.145 244.533 174.589 244.533 174.589C244.533 174.589 245.866 174.513 246.166 175.109C246.166 175.109 247.799 174.997 248.504 176.63C249.208 178.263 247.427 183.378 246.503 184.527C245.574 185.676 244.762 185.563 244.762 185.563C244.762 185.563 240.76 188.417 238.83 187.901C238.83 187.901 237.422 188.57 236.345 188.161C236.345 188.161 235.344 188.754 231.952 186.918C228.56 185.083 222.499 184.581 221.108 184.639C219.717 184.697 186.797 189.086 183.517 187.977C180.238 186.865 180.125 186.533 177.402 181.974C174.679 177.415 170.008 165.126 170.008 165.126C170.008 165.126 174.176 158.248 183.522 156.435L183.517 156.422Z" fill="#E9978A"/>
<path d="M190.477 175.514C190.338 175.523 187.112 175.797 185.95 177.336C185.914 177.385 185.923 177.453 185.972 177.493C185.99 177.506 186.017 177.515 186.039 177.515C186.071 177.515 186.107 177.502 186.129 177.471C187.233 176.008 190.463 175.739 190.499 175.734C190.562 175.73 190.607 175.676 190.602 175.613C190.598 175.55 190.549 175.496 190.481 175.51L190.477 175.514Z" fill="#C11F1B"/>
<path d="M246.275 175.083C246.261 175.025 246.203 174.984 246.144 174.998C246.086 175.011 246.046 175.069 246.059 175.128C246.059 175.132 246.082 175.244 246.118 175.41C245.754 175.011 245.112 174.437 244.493 174.576C243.932 174.702 243.538 175.375 243.318 176.573C243.3 176.667 243.3 176.765 243.304 176.869C243.04 176.528 242.712 176.151 242.308 175.765C241.375 174.872 240.711 174.536 240.28 174.742C239.975 174.886 239.89 175.267 239.867 175.532C239.643 175.321 239.253 175.034 238.862 175.159C238.373 175.312 238.086 176.012 237.983 177.308C237.947 177.735 238.113 178.942 238.275 180.104C238.391 180.961 238.526 181.93 238.495 182.082C238.405 182.437 235.623 184.671 234.905 184.851C234.322 184.994 231.697 184.339 230.737 184.074C230.674 184.061 230.616 184.092 230.602 184.151C230.584 184.209 230.62 184.272 230.679 184.29C230.809 184.326 233.604 185.093 234.685 185.093C234.797 185.093 234.887 185.084 234.959 185.066C235.677 184.887 238.62 182.58 238.71 182.127C238.746 181.948 238.652 181.23 238.49 180.072C238.337 178.973 238.167 177.726 238.198 177.322C238.315 175.855 238.656 175.451 238.921 175.37C239.338 175.244 239.818 175.796 239.872 175.864C239.939 176.048 240.792 178.309 240.899 178.829C241.016 179.408 241.187 182.778 241.052 183.146C240.94 183.433 238.055 186.322 236.26 188.072C236.215 188.117 236.215 188.184 236.26 188.229C236.283 188.252 236.309 188.261 236.341 188.261C236.372 188.261 236.395 188.252 236.417 188.229C236.897 187.763 241.11 183.639 241.263 183.222C241.42 182.787 241.231 179.354 241.119 178.789C241.012 178.246 240.168 176.012 240.083 175.783C240.069 175.581 240.096 175.078 240.374 174.944C240.563 174.854 241.043 174.863 242.151 175.926C242.721 176.474 243.143 177.008 243.439 177.443C243.618 177.91 243.915 178.318 244.009 178.439C243.852 181.27 243.578 184.389 243.381 184.622C243.053 184.909 239.015 187.816 238.975 187.843C238.925 187.879 238.912 187.951 238.948 188C238.97 188.032 239.002 188.045 239.037 188.045C239.06 188.045 239.082 188.036 239.1 188.023C239.266 187.902 243.192 185.084 243.524 184.783C243.865 184.478 244.148 179.825 244.229 178.403C244.229 178.394 244.224 178.385 244.22 178.376C244.22 178.367 244.22 178.363 244.22 178.354C244.206 178.327 244.036 177.923 243.641 177.335C243.547 177.089 243.488 176.833 243.529 176.608C243.731 175.505 244.067 174.89 244.534 174.787C245.261 174.625 246.095 175.716 246.212 175.873C246.45 177.017 246.867 179.121 246.867 179.695C246.867 180.323 245.418 183.769 244.65 185.506C244.623 185.56 244.65 185.627 244.709 185.654C244.722 185.658 244.74 185.663 244.754 185.663C244.794 185.663 244.839 185.636 244.857 185.595C244.946 185.389 247.091 180.521 247.091 179.695C247.091 178.87 246.306 175.231 246.275 175.074V175.083Z" fill="#C11F1B"/>
<path d="M232.922 179.292C232.944 179.319 232.976 179.332 233.007 179.332C233.034 179.332 233.056 179.323 233.079 179.306C233.124 179.265 233.133 179.193 233.092 179.148C229.238 174.617 224.298 177.022 224.244 177.044C224.191 177.071 224.168 177.138 224.195 177.192C224.222 177.246 224.289 177.269 224.343 177.242C224.392 177.219 229.175 174.886 232.922 179.292Z" fill="#C11F1B"/>
<path d="M184.325 158.656L183.513 156.422C174.172 158.239 169.999 165.117 169.999 165.117C169.999 165.117 176.011 158.742 184.321 158.656H184.325Z" fill="#DA6B6B"/>
<path d="M122.955 89.2815C122.152 88.77 121.9 87.9041 121.64 87.0605H121.515C121.447 87.2266 121.389 87.3926 121.317 87.5541C121.147 87.9265 121.008 88.3124 120.792 88.6578C120.384 89.3084 119.715 89.6001 119.015 89.8334C118.863 89.8827 118.719 89.9545 118.571 90.0128C118.571 90.0442 118.571 90.0712 118.571 90.1026C119.235 90.3987 119.967 90.5557 120.51 91.0897C121.061 91.6326 121.218 92.3729 121.564 93.0459C121.909 92.3774 122.071 91.6326 122.618 91.0897C123.161 90.5513 123.911 90.4077 124.557 90.0443C124.409 89.9455 124.261 89.8962 124.121 89.8334C123.731 89.6539 123.318 89.5103 122.959 89.2815H122.955Z" fill="#EAEDB4"/>
<path d="M113.133 84.3905C112.519 83.9957 112.326 83.3361 112.124 82.6855H112.025C111.976 82.8112 111.931 82.9413 111.872 83.0669C111.742 83.3496 111.635 83.6502 111.469 83.9104C111.155 84.4085 110.643 84.6328 110.105 84.8123C109.988 84.8527 109.88 84.9065 109.764 84.9514C109.764 84.9738 109.764 84.9962 109.764 85.0187C110.271 85.243 110.832 85.3686 111.249 85.7769C111.671 86.1942 111.792 86.764 112.056 87.28C112.321 86.764 112.447 86.1942 112.864 85.7769C113.281 85.3641 113.856 85.252 114.354 84.9738C114.237 84.8975 114.125 84.8616 114.022 84.8123C113.721 84.6777 113.407 84.5655 113.133 84.3905Z" fill="#EAEDB4"/>
<path d="M121.402 107.565C121.092 107.367 120.994 107.031 120.891 106.703H120.841C120.814 106.766 120.792 106.833 120.765 106.896C120.698 107.04 120.644 107.192 120.563 107.322C120.406 107.574 120.146 107.686 119.877 107.775C119.818 107.793 119.764 107.82 119.706 107.847C119.706 107.861 119.706 107.87 119.706 107.883C119.962 107.995 120.244 108.058 120.455 108.265C120.671 108.475 120.729 108.763 120.864 109.023C120.998 108.763 121.061 108.475 121.272 108.265C121.483 108.054 121.774 108 122.021 107.861C121.963 107.82 121.905 107.802 121.851 107.78C121.698 107.713 121.541 107.654 121.402 107.569V107.565Z" fill="#EAEDB4"/>
<path d="M130.842 75.6466C130.533 75.4492 130.434 75.1127 130.331 74.7852H130.281C130.254 74.848 130.232 74.9153 130.205 74.9781C130.138 75.1217 130.084 75.2742 129.999 75.4043C129.842 75.6556 129.581 75.7678 129.312 75.8575C129.254 75.8754 129.2 75.9024 129.142 75.9293C129.142 75.9427 129.142 75.9517 129.142 75.9652C129.397 76.0773 129.68 76.1402 129.891 76.3466C130.106 76.5574 130.165 76.8446 130.299 77.1048C130.434 76.8446 130.497 76.5574 130.707 76.3466C130.918 76.1357 131.21 76.0818 131.457 75.9427C131.398 75.9024 131.34 75.8844 131.286 75.862C131.134 75.7947 130.977 75.7364 130.838 75.6466H130.842Z" fill="#EAEDB4"/>
<path d="M161.81 117.836C161.5 117.639 161.402 117.302 161.298 116.975H161.249C161.222 117.037 161.2 117.105 161.173 117.168C161.105 117.311 161.052 117.464 160.966 117.594C160.809 117.845 160.549 117.957 160.28 118.047C160.222 118.065 160.168 118.092 160.109 118.119C160.109 118.132 160.109 118.141 160.109 118.155C160.365 118.267 160.648 118.33 160.859 118.536C161.074 118.747 161.132 119.034 161.267 119.294C161.402 119.034 161.464 118.747 161.675 118.536C161.886 118.325 162.178 118.271 162.425 118.132C162.366 118.092 162.308 118.074 162.254 118.051C162.102 117.984 161.944 117.926 161.805 117.841L161.81 117.836Z" fill="#EAEDB4"/>
<path d="M176.172 87.1111C175.871 86.9765 175.557 86.8643 175.284 86.6893C174.669 86.2945 174.476 85.635 174.274 84.9844H174.175C174.126 85.11 174.081 85.2401 174.023 85.3657C173.893 85.6484 173.785 85.949 173.619 86.2093C173.305 86.7073 172.793 86.9316 172.255 87.1111C172.138 87.1515 172.031 87.2053 171.914 87.2502C171.914 87.2726 171.914 87.2951 171.914 87.3175C172.426 87.5418 172.982 87.6675 173.399 88.0758C173.821 88.493 173.942 89.0628 174.207 89.5788C174.472 89.0628 174.597 88.493 175.014 88.0758C175.432 87.663 176.006 87.5508 176.504 87.2726C176.387 87.1963 176.275 87.1605 176.172 87.1111Z" fill="#EAEDB4"/>
<path d="M172.951 81.9871C173.261 81.3858 173.404 80.7173 173.898 80.2282C174.387 79.7437 175.06 79.6136 175.643 79.286C175.509 79.1963 175.379 79.1514 175.253 79.0976C174.903 78.936 174.531 78.8104 174.212 78.604C173.49 78.1419 173.265 77.3657 173.028 76.6074H172.915C172.857 76.7555 172.803 76.908 172.736 77.0516C172.583 77.3836 172.458 77.7336 172.26 78.0432C171.892 78.6265 171.291 78.8912 170.663 79.1021C170.528 79.1469 170.398 79.2097 170.264 79.2636C170.264 79.2905 170.264 79.3174 170.264 79.3443C170.86 79.6091 171.515 79.7526 172.005 80.2327C172.498 80.7218 172.642 81.3903 172.951 81.9915V81.9871Z" fill="#EAEDB4"/>
<path d="M218.222 111.388C218.222 112.065 217.671 112.617 216.993 112.617C216.316 112.617 215.764 112.065 215.764 111.388C215.764 110.71 216.316 110.158 216.993 110.158C217.671 110.158 218.222 110.71 218.222 111.388Z" fill="#E8CCA7"/>
<path d="M217.303 164.345C217.303 164.772 216.958 165.113 216.536 165.113C216.114 165.113 215.769 164.767 215.769 164.345C215.769 163.924 216.114 163.578 216.536 163.578C216.958 163.578 217.303 163.924 217.303 164.345Z" fill="#E8CCA7"/>
<path d="M234.909 195.873C235.898 195.873 236.7 195.072 236.7 194.083C236.7 193.094 235.898 192.293 234.909 192.293C233.921 192.293 233.119 193.094 233.119 194.083C233.119 195.072 233.921 195.873 234.909 195.873Z" fill="#E8CCA7"/>
<path d="M61.8817 156.068C61.8817 156.732 61.3432 157.275 60.6747 157.275C60.0062 157.275 59.4678 156.737 59.4678 156.068C59.4678 155.4 60.0062 154.861 60.6747 154.861C61.3432 154.861 61.8817 155.4 61.8817 156.068Z" fill="#E8CCA7"/>
<path d="M70.8007 110.662C71.7299 110.662 72.4832 109.909 72.4832 108.979C72.4832 108.05 71.7299 107.297 70.8007 107.297C69.8715 107.297 69.1182 108.05 69.1182 108.979C69.1182 109.909 69.8715 110.662 70.8007 110.662Z" fill="#E8CCA7"/>
<path d="M59.5124 218.003C60.9992 218.003 62.2044 216.798 62.2044 215.311C62.2044 213.824 60.9992 212.619 59.5124 212.619C58.0256 212.619 56.8203 213.824 56.8203 215.311C56.8203 216.798 58.0256 218.003 59.5124 218.003Z" fill="#E8CCA7"/>
<path d="M60.6788 200.926C60.6788 201.568 60.1584 202.093 59.5123 202.093C58.8662 202.093 58.3457 201.572 58.3457 200.926C58.3457 200.28 58.8662 199.76 59.5123 199.76C60.1584 199.76 60.6788 200.28 60.6788 200.926Z" fill="#E8CCA7"/>
<path d="M241.999 224.773C241.999 225.369 241.514 225.854 240.917 225.854C240.321 225.854 239.836 225.369 239.836 224.773C239.836 224.176 240.321 223.691 240.917 223.691C241.514 223.691 241.999 224.176 241.999 224.773Z" fill="#E8CCA7"/>
<path d="M185.11 63.2989C185.544 63.2989 185.896 62.9473 185.896 62.5137C185.896 62.0801 185.544 61.7285 185.11 61.7285C184.677 61.7285 184.325 62.0801 184.325 62.5137C184.325 62.9473 184.677 63.2989 185.11 63.2989Z" fill="#E8CCA7"/>
<path d="M99.0674 69.1309C99.5011 69.1309 99.8526 68.7794 99.8526 68.3457C99.8526 67.9121 99.5011 67.5605 99.0674 67.5605C98.6338 67.5605 98.2822 67.9121 98.2822 68.3457C98.2822 68.7794 98.6338 69.1309 99.0674 69.1309Z" fill="#E8CCA7"/>
</g>
<defs>
<clipPath id="clip0_2503_9976">
<rect width="302" height="302" fill="white"/>
</clipPath>
</defs>
</svg>
