<svg width="300" height="300" viewBox="0 0 300 300" fill="none" xmlns="http://www.w3.org/2000/svg">
<mask id="mask0_2503_10323" style="mask-type:luminance" maskUnits="userSpaceOnUse" x="0" y="0" width="300" height="300">
<path d="M150 300C232.843 300 300 232.843 300 150C300 67.1573 232.843 0 150 0C67.1573 0 0 67.1573 0 150C0 232.843 67.1573 300 150 300Z" fill="white"/>
</mask>
<g mask="url(#mask0_2503_10323)">
<mask id="mask1_2503_10323" style="mask-type:luminance" maskUnits="userSpaceOnUse" x="-6" y="-1" width="394" height="303">
<path d="M387.453 -0.933594H-5.37988V301.959H387.453V-0.933594Z" fill="white"/>
</mask>
<g mask="url(#mask1_2503_10323)">
<path d="M367.275 -1.56836H-6.89551V307.022H367.275V-1.56836Z" fill="url(#paint0_linear_2503_10323)"/>
<path d="M367.434 109.115H-6.7373V305.664H367.434V109.115Z" fill="#43436E"/>
<path d="M75.3183 128.75C75.3183 128.75 92.0398 164.627 134.867 184.33C147.355 190.08 66.1285 198.688 60.1137 189.092C54.0989 179.479 75.3183 128.75 75.3183 128.75Z" fill="#8C7491"/>
<path d="M25.3304 -12.1855H-17.373V143.353H25.3304V-12.1855Z" fill="#9C73A0"/>
<path d="M141.093 134.745L105.286 134.039V72.2332L129.257 66.8887L141.093 71.1749V134.745Z" fill="#D1ACB3"/>
<mask id="mask2_2503_10323" style="mask-type:luminance" maskUnits="userSpaceOnUse" x="105" y="66" width="37" height="69">
<path d="M141.093 134.745L105.286 134.039V72.2332L129.257 66.8887L141.093 71.1749V134.745Z" fill="white"/>
</mask>
<g mask="url(#mask2_2503_10323)">
<path d="M173.038 50.043H129.876V121.868H173.038V50.043Z" fill="#C19DB4"/>
</g>
<path d="M226.977 102.166H184.291V40.8185L206.816 35.6504L226.977 38.6137V102.166Z" fill="#D1ACB3"/>
<mask id="mask3_2503_10323" style="mask-type:luminance" maskUnits="userSpaceOnUse" x="184" y="35" width="43" height="68">
<path d="M226.977 102.166H184.291V40.8185L206.816 35.6504L226.977 38.6137V102.166Z" fill="white"/>
</mask>
<g mask="url(#mask3_2503_10323)">
<path d="M206.956 5.45312V108.446L262.977 109.875L255.621 12.1735L206.956 5.45312Z" fill="#C19DB4"/>
</g>
<path d="M57.3089 115.273H14.6054L13.1943 51.7031H57.3089V115.273Z" fill="#A290A5"/>
<path d="M170.161 116.525L136.842 117.212L137.353 53.6777L168.962 46.3047L170.161 116.525Z" fill="#A290A5"/>
<path d="M162.294 100.599L144.25 99.5581L144.409 58.8302L162.242 55.3906L162.294 100.599Z" fill="#D1ACB3"/>
<path d="M202.44 113.191L168.962 109.875V46.3047L202.44 49.6384V113.191Z" fill="#7E6484"/>
<path d="M212.601 109.206L132.485 109.753V95.0602L212.601 76.9805V109.206Z" fill="#9C73A0"/>
<path d="M222.884 110.476H180.181V73.4872L206.815 70.4004L222.884 73.4872V110.476Z" fill="#9C73A0"/>
<mask id="mask4_2503_10323" style="mask-type:luminance" maskUnits="userSpaceOnUse" x="180" y="70" width="43" height="41">
<path d="M222.884 110.476H180.181V73.4872L206.815 70.4004L222.884 73.4872V110.476Z" fill="white"/>
</mask>
<g mask="url(#mask4_2503_10323)">
<path d="M206.814 59.5508V105.658H230.591V61.3323L206.814 59.5508Z" fill="#885E8E"/>
</g>
<path d="M48.2083 116.999L5.52246 135.326V-1.56836H48.2083V116.999Z" fill="#8B6191"/>
<path d="M48.2072 -1.56836H26.8643V116.999H48.2072V-1.56836Z" fill="#B7729B"/>
<path d="M40.904 -1.56836H34.166V116.999H40.904V-1.56836Z" fill="#F7C0B7"/>
<path d="M220.555 118.428H263.258L264.316 39.8652L220.555 49.6195V118.428Z" fill="#B7729B"/>
<path d="M256.379 125.394H299.065V7.49609L256.379 17.3032V125.394Z" fill="#9C73A0"/>
<path d="M297.337 129.662H340.023V13.6167L299.066 7.49609L297.337 129.662Z" fill="#8B6191"/>
<path d="M267.138 21.7656H262.411V118.25H267.138V21.7656Z" fill="#E5948C"/>
<path d="M284.036 15.8223H279.309V129.857H284.036V15.8223Z" fill="#E5948C"/>
<path d="M258.849 37.502L292.221 32.422L292.927 26.6895L259.466 32.4573L258.849 37.502Z" fill="#9C73A0"/>
<path d="M255.691 68.8974L290.263 65.0698L291.921 59.5488L257.155 64.0114L255.691 68.8974Z" fill="#9C73A0"/>
<path d="M90.946 127.988H89.288C87.8949 127.988 86.7656 129.118 86.7656 130.511V134.179C86.7656 135.573 87.8949 136.702 89.288 136.702H90.946C92.3391 136.702 93.4684 135.573 93.4684 134.179V130.511C93.4684 129.118 92.3391 127.988 90.946 127.988Z" fill="#4F4772"/>
<path d="M288.553 137.654H205.633V164.448H288.553V137.654Z" fill="#EDAA85"/>
<path d="M288.589 164.485H205.599V137.604H288.589V164.485ZM205.669 164.397H288.501V137.692H205.669V164.397Z" fill="#1D1D1B"/>
<path d="M287.373 140.354H206.816L221.086 118.253C221.086 118.253 267.37 113.773 273.103 118.253C278.835 122.733 287.373 140.354 287.373 140.354Z" fill="#EDAA85"/>
<path d="M284.055 137.727H218.191C218.191 137.727 229.586 122.346 229.868 120.9C230.15 119.453 264.052 113.474 272.395 120.9C280.738 128.326 284.072 137.727 284.072 137.727H284.055Z" fill="#4F4772"/>
<path d="M357.75 151.482H247.084V187.236H357.75V151.482Z" fill="#BA7052"/>
<path d="M357.786 187.291H247.05V151.449H357.786V187.291ZM247.138 187.203H357.715V151.537H247.138V187.203Z" fill="#1D1D1B"/>
<path d="M356.181 155.1H248.655L267.705 125.59H337.131L356.181 155.1Z" fill="#BA7052"/>
<path d="M351.752 151.571H263.841L279.416 129.117H336.177L351.752 151.571Z" fill="#4F4772"/>
<path d="M303.564 121.973C286.366 122.026 269.415 122.925 265.764 124.707C258.109 133.226 253.399 144.621 250.665 151.712H303.564V121.973Z" fill="#915757"/>
<path d="M303.563 151.711H250.665L243.556 165.681L239.341 167.11C236.73 180.039 240.699 196.39 246.255 198.612C252.04 200.941 277.299 201.382 303.563 201.17V151.711Z" fill="#915757"/>
<path d="M304.938 172.7C304.709 172.7 281.197 172.664 276.328 172.029C276.24 172.029 276.17 171.941 276.187 171.835C276.187 171.747 276.275 171.676 276.381 171.694C281.232 172.329 304.709 172.364 304.956 172.364C305.044 172.364 305.115 172.435 305.115 172.523C305.115 172.611 305.044 172.682 304.956 172.682L304.938 172.7Z" fill="#1D1D1B"/>
<path d="M247.86 164.008C247.86 164.008 247.772 164.008 247.736 163.955C247.648 163.867 247.613 163.831 248.195 161.891C248.495 160.903 248.918 159.545 249.447 157.852C250.365 154.959 251.317 152.049 251.317 152.031C251.352 151.943 251.441 151.89 251.529 151.925C251.617 151.96 251.67 152.049 251.635 152.137C250.188 156.546 248.054 163.267 248.001 163.814C248.001 163.867 248.001 163.919 247.948 163.972C247.913 164.008 247.878 164.025 247.825 164.025L247.86 164.008Z" fill="#1D1D1B"/>
<path d="M247.367 167.285C250.048 167.285 271.091 171.518 273.049 173.706C275.007 175.893 268.251 177.057 268.251 177.057L258.232 176.934L258.762 179.562C258.762 179.562 249.554 180.567 248.566 179.562C245.762 176.704 244.686 167.285 247.367 167.285Z" fill="#DD936F"/>
<mask id="mask5_2503_10323" style="mask-type:luminance" maskUnits="userSpaceOnUse" x="245" y="167" width="29" height="14">
<path d="M247.367 167.285C250.048 167.285 271.091 171.518 273.049 173.706C275.007 175.893 268.251 177.057 268.251 177.057L258.232 176.934L258.762 179.562C258.762 179.562 249.554 180.567 248.566 179.562C245.762 176.704 244.686 167.285 247.367 167.285Z" fill="white"/>
</mask>
<g mask="url(#mask5_2503_10323)">
<path d="M245.073 168.219L246.431 178.59H257.473L256.045 170.635L245.073 168.219Z" fill="#FCE5D4"/>
<path d="M257.633 171.006L258.127 175.68L271.409 176.174C271.409 176.174 285.555 183.388 285.114 180.866C284.902 179.631 279.981 177.056 273.349 174.957C266.364 172.734 257.65 171.006 257.65 171.006H257.633Z" fill="#FCE5D4"/>
</g>
<path d="M250.665 185.473C253.752 185.473 268.727 191.293 268.727 191.293L270.685 197.485C268.074 197.326 251.653 197.185 249.219 195.562C246.784 193.939 247.578 185.473 250.665 185.473Z" fill="#3D2742"/>
<path d="M304.727 173.496L277.669 172.914L271.725 183.691L285.254 193.781L303.563 193.693L304.727 173.496Z" fill="#3D2742"/>
<path d="M306.015 174.572H275.535V174.96H306.015V174.572Z" fill="#513556"/>
<path d="M305.68 177.393H272.148V177.781H305.68V177.393Z" fill="#513556"/>
<path d="M305.31 180.215H271.778V180.603H305.31V180.215Z" fill="#513556"/>
<path d="M304.939 183.057H271.408V183.445H304.939V183.057Z" fill="#513556"/>
<path d="M304.586 185.879H271.055V186.267H304.586V185.879Z" fill="#513556"/>
<path d="M304.339 188.701H273.859V189.089H304.339V188.701Z" fill="#513556"/>
<path d="M304.004 191.521H273.524V191.91H304.004V191.521Z" fill="#513556"/>
<path d="M245.814 188.858C245.814 188.858 245.673 188.805 245.655 188.734C244.121 183.425 242.533 167.462 242.516 167.303C242.516 167.215 242.569 167.127 242.657 167.127C242.745 167.127 242.833 167.18 242.833 167.268C242.833 167.427 244.438 183.372 245.973 188.646C245.99 188.734 245.955 188.823 245.867 188.858C245.867 188.858 245.832 188.858 245.814 188.858Z" fill="#1D1D1B"/>
<path d="M265.41 167.463C265.41 167.463 265.304 167.446 265.269 167.393L256.361 154.94C256.361 154.94 256.326 154.763 256.397 154.71C256.467 154.658 256.573 154.675 256.626 154.746L265.534 167.199C265.534 167.199 265.569 167.375 265.498 167.428C265.463 167.446 265.428 167.463 265.41 167.463Z" fill="#1D1D1B"/>
<path d="M340.833 128.252C337.411 126.929 319.649 126.012 303.563 125.959C287.494 126.012 269.714 126.929 266.292 128.252C264.14 128.711 256.344 143.845 254.086 149.03H353.039C350.764 143.845 342.968 128.711 340.833 128.252Z" fill="#4F4772"/>
<path d="M288.552 196.145H321.131L318.591 200.007H290.774L288.552 196.145Z" fill="#3D2742"/>
<path d="M346.991 182.543H263.013C250.719 204.415 247.844 219.267 247.844 224.664L251.283 258.072C260.473 261.759 305.311 261.388 346.991 261.053V182.543Z" fill="#7E8AA3"/>
<path d="M289.84 216.745C289.84 216.745 289.77 216.745 289.735 216.71C281.145 209.195 272.343 206.585 263.03 203.816C262.483 203.657 261.936 203.498 261.372 203.322C261.283 203.304 261.248 203.216 261.248 203.145L261.407 202.069C262.571 194.485 263.753 186.653 265.129 183.055C265.164 182.967 265.252 182.931 265.34 182.967C265.428 183.002 265.464 183.09 265.428 183.178C264.07 186.741 262.888 194.573 261.724 202.122L261.583 203.04C262.095 203.198 262.589 203.339 263.1 203.481C272.449 206.25 281.268 208.86 289.893 216.392L346.972 215.845C347.061 215.845 347.131 215.916 347.149 216.004C347.149 216.092 347.078 216.163 346.99 216.18L289.858 216.727L289.84 216.745Z" fill="#1D1D1B"/>
<path d="M258.727 207.275C284.532 204.4 302.718 233.627 301.942 235.956C301.166 238.284 268.446 230.258 263.983 225.725C259.521 221.174 254.458 207.293 258.727 207.293V207.275Z" fill="#EDAA85"/>
<mask id="mask6_2503_10323" style="mask-type:luminance" maskUnits="userSpaceOnUse" x="257" y="207" width="45" height="30">
<path d="M258.727 207.275C284.532 204.4 302.718 233.627 301.942 235.956C301.166 238.284 268.446 230.258 263.983 225.725C259.521 221.174 254.458 207.293 258.727 207.293V207.275Z" fill="white"/>
</mask>
<g mask="url(#mask6_2503_10323)">
<path d="M271.655 191.418C268.41 208.087 267.281 223.644 274.442 234.809C264.829 229.235 247.772 234.439 255.339 203.977L271.673 191.418H271.655Z" fill="#FCE5D4"/>
</g>
<path d="M281.252 230.451C284.817 230.451 287.707 227.56 287.707 223.995C287.707 220.429 284.817 217.539 281.252 217.539C277.686 217.539 274.796 220.429 274.796 223.995C274.796 227.56 277.686 230.451 281.252 230.451Z" fill="#FCE5D4"/>
<path d="M294.111 233.378C295.933 233.378 297.409 231.901 297.409 230.08C297.409 228.258 295.933 226.781 294.111 226.781C292.289 226.781 290.812 228.258 290.812 230.08C290.812 231.901 292.289 233.378 294.111 233.378Z" fill="#FCE5D4"/>
<path d="M273.102 239.535C276.877 239.535 285.344 246.097 287.99 249.766C290.794 253.681 289.895 255.251 285.855 255.551C282.663 255.78 274.99 255.569 272.027 252.447C269.063 249.325 269.328 239.535 273.102 239.535Z" fill="#7D5482"/>
<path d="M279.188 251.582C281.399 251.582 283.192 249.79 283.192 247.578C283.192 245.367 281.399 243.574 279.188 243.574C276.976 243.574 275.184 245.367 275.184 247.578C275.184 249.79 276.976 251.582 279.188 251.582Z" fill="#9C73A0"/>
<path d="M370.75 226.5H298.942V228.352H370.75V226.5Z" fill="#C6B5C0"/>
<path d="M366.939 221.455H295.132V223.307H366.939V221.455Z" fill="#C6B5C0"/>
<path d="M301.13 237.894C301.13 237.894 292.84 236.395 284.091 234.402C272.326 231.703 265.253 229.41 263.065 227.558C257.862 223.148 254.546 212.635 254.528 212.53L254.846 212.424C254.881 212.53 258.162 222.954 263.295 227.293C268.428 231.65 300.865 237.506 301.183 237.559L301.13 237.894Z" fill="#1D1D1B"/>
<path d="M406.028 139.665C400.366 136.896 374.578 135.467 347.961 135.326C347.644 135.326 347.309 135.326 346.991 135.326C346.674 135.326 346.339 135.326 346.021 135.326C319.404 135.485 293.616 136.896 287.954 139.683C275.801 153.212 268.322 171.292 264.001 182.563H429.999C425.678 171.292 418.181 153.23 406.046 139.683L406.028 139.665Z" fill="#7E8AA3"/>
<path d="M403.172 145.239C397.88 140.512 296.087 140.547 290.795 145.239C279.383 155.329 273.492 169.898 269.417 178.294H424.55C420.475 169.898 414.584 155.329 403.172 145.239Z" fill="#7E6484"/>
<mask id="mask7_2503_10323" style="mask-type:luminance" maskUnits="userSpaceOnUse" x="269" y="141" width="156" height="38">
<path d="M403.172 145.239C397.88 140.512 296.087 140.547 290.795 145.239C279.383 155.329 273.492 169.898 269.417 178.294H424.55C420.475 169.898 414.584 155.329 403.172 145.239Z" fill="white"/>
</mask>
<g mask="url(#mask7_2503_10323)">
<path d="M301.749 149.859C301.749 149.859 310.639 147.302 312.861 151.465C315.084 155.627 321.134 166.828 321.134 166.828L320.446 170.585C320.446 170.585 329.071 168.504 329.847 170.215C330.623 171.926 331.541 185.472 331.541 185.472C331.541 185.472 280.847 182.826 281.27 181.962C281.694 181.098 285.962 170.532 287.779 168.68C289.596 166.828 301.237 163.988 301.237 163.988C301.237 163.988 301.908 163 301.749 161.854C301.59 160.725 298.309 152.805 301.749 149.842V149.859Z" fill="#494672"/>
</g>
<path d="M111.813 129.859H64.6646C64.6646 129.859 57.6973 121.127 65.9169 114.672C70.4677 111.109 111.795 114.619 111.795 114.619V129.859H111.813Z" fill="#A0AABC"/>
<path d="M111.142 116.171H65.334C65.334 116.171 69.2321 105.447 73.4478 103.612C77.6635 101.778 103.028 103.612 103.028 103.612L111.142 116.171Z" fill="#A0AABC"/>
<path d="M105.816 114.46H68.3691C68.3691 114.46 70.6798 106.999 75.0013 104.9C79.3228 102.783 99.1841 104.9 99.1841 104.9L105.816 114.46Z" fill="#F7C0B7"/>
<path d="M71.8079 120.616C73.2014 119.787 78.299 120.439 78.299 120.439C78.299 120.439 78.2108 123.121 77.029 123.756C75.8472 124.373 72.8486 124.355 72.39 124.055C71.9314 123.756 70.4144 121.427 71.8079 120.616Z" fill="#FCE5D4"/>
<path d="M139.928 134.462H83.8371C83.061 134.462 82.4084 133.88 82.3202 133.104C81.8792 129.329 80.9267 118.764 83.5373 116.171C86.7299 112.978 139.928 115.906 139.928 115.906V134.462Z" fill="#A55E5E"/>
<path d="M139.118 117.777H83.3086C83.3086 117.777 89.2352 104.759 93.2039 102.466C97.1727 100.173 129.24 102.466 129.24 102.466L139.135 117.777H139.118Z" fill="#A55E5E"/>
<path d="M132.485 116.155H86.8535C86.8535 116.155 91.2103 106.524 94.9321 104.495C98.6715 102.467 124.406 104.495 124.406 104.495L132.485 116.155Z" fill="#4F4772"/>
<path d="M86.0076 124.567C86.5367 123.756 90.1174 124.532 90.1174 124.532C94.2449 124.779 93.1865 127.936 94.2272 129.912C94.2272 129.912 88.3182 129.4 87.1188 128.324C85.9194 127.231 85.496 125.396 86.0252 124.567H86.0076Z" fill="#FCE5D4"/>
<path d="M150.441 54.8952C150.53 55.2832 150.388 83.8933 150.388 83.8933H155.874V54.1367L149.895 54.7717C149.895 54.7717 150.371 54.5248 150.441 54.8952Z" fill="#A290A5"/>
<path d="M70.0787 139.846C70.0787 137.995 68.5783 136.494 66.7273 136.494C64.8764 136.494 63.376 137.995 63.376 139.846V141.856C63.376 143.707 64.8764 145.208 66.7273 145.208C68.5783 145.208 70.0787 143.707 70.0787 141.856V139.846Z" fill="#4F4772"/>
<path d="M75.6532 139.792C76.447 144.942 38.2767 140.074 14.3232 139.792V121.236C14.3232 121.236 65.9519 120.142 70.7144 125.081C72.3724 126.792 73.1309 126.669 73.1309 126.669L74.2597 127.198C76.1294 129.597 75.6356 139.792 75.6356 139.792H75.6532Z" fill="#4A5975"/>
<path d="M70.8725 125.202H15.0635L25.0117 107.793H61.0477L70.8725 125.202Z" fill="#4A5975"/>
<path d="M60.9771 108.342C58.9839 107.266 49.7765 106.736 40.4279 106.701C31.0794 106.736 21.872 107.266 19.8788 108.342C15.716 113.457 13.1584 120.265 11.6768 124.516H69.1968C67.7151 120.265 65.1575 113.439 60.9947 108.342H60.9771Z" fill="#4A5975"/>
<path d="M58.349 112.24C56.6204 111.482 48.5948 111.094 40.4457 111.076C32.2789 111.111 24.2709 111.482 22.5423 112.24C18.8911 115.874 16.651 120.725 15.3457 123.758H65.5632C64.258 120.725 62.0179 115.874 58.3666 112.24H58.349Z" fill="#A290A5"/>
<path d="M99.5181 141.502H98.5303C96.9522 141.502 95.6729 142.781 95.6729 144.359V147.358C95.6729 148.936 96.9522 150.216 98.5303 150.216H99.5181C101.096 150.216 102.376 148.936 102.376 147.358V144.359C102.376 142.781 101.096 141.502 99.5181 141.502Z" fill="#4F4772"/>
<path d="M176.846 146.936H95.9551C93.5033 146.936 91.4043 145.172 90.981 142.756C89.464 133.972 89.4288 125.717 94.7909 119.455H176.846V146.936Z" fill="#7E8AA3"/>
<path d="M175.647 122.222H93.0098C93.0098 122.222 100.012 107.124 107.65 99.5565C115.288 91.9895 161.007 99.5565 161.007 99.5565L175.647 122.222Z" fill="#7E8AA3"/>
<path d="M165.806 119.523H98.2314C98.2314 119.523 106.416 105.306 110.208 102.272C114 99.2207 153.829 102.272 153.829 102.272L165.806 119.523Z" fill="#4F4772"/>
<path d="M95.4971 128.715C95.4971 128.715 103.981 133.371 111.072 133.177C118.163 133.001 109.044 139.721 108.426 140.356C107.809 140.991 97.1198 138.857 95.4971 128.715Z" fill="#FCE5D4"/>
<path d="M121.673 156.406H117.475C115.654 156.406 114.177 157.883 114.177 159.705V161.398C114.177 163.22 115.654 164.696 117.475 164.696H121.673C123.495 164.696 124.972 163.22 124.972 161.398V159.705C124.972 157.883 123.495 156.406 121.673 156.406Z" fill="#4F4772"/>
<path d="M201.383 163.428H109.767C108.691 163.428 107.721 162.652 107.333 161.47C106.204 158.083 104.123 150.816 104.37 143.672C104.423 141.873 107.086 138.804 107.086 138.804C107.086 138.804 109.326 128.415 111.866 126.369C119.68 120.107 201.383 127.762 201.383 127.762V163.41V163.428Z" fill="#EDAA85"/>
<mask id="mask8_2503_10323" style="mask-type:luminance" maskUnits="userSpaceOnUse" x="104" y="123" width="98" height="41">
<path d="M201.383 163.428H109.767C108.691 163.428 107.721 162.652 107.333 161.47C106.204 158.083 104.123 150.816 104.37 143.672C104.423 141.873 107.086 138.804 107.086 138.804C107.086 138.804 109.326 128.415 111.866 126.369C119.68 120.107 201.383 127.762 201.383 127.762V163.41V163.428Z" fill="white"/>
</mask>
<g mask="url(#mask8_2503_10323)">
<path d="M118.869 150.973C120.333 150.973 123.79 151.89 124.549 152.895C125.325 153.901 126.701 155.894 125.466 155.823C124.231 155.753 121.303 155.894 120.139 155.135C118.975 154.359 117.387 150.973 118.851 150.973H118.869Z" fill="#DD936F"/>
<path d="M152.364 148.311L173.654 148.716L170.92 159.264H134.197L129.011 148.804L152.364 148.311Z" fill="#DD936F"/>
<mask id="mask9_2503_10323" style="mask-type:luminance" maskUnits="userSpaceOnUse" x="129" y="148" width="45" height="12">
<path d="M152.364 148.311L173.654 148.716L170.92 159.264H134.197L129.011 148.804L152.364 148.311Z" fill="white"/>
</mask>
<g mask="url(#mask9_2503_10323)">
<path d="M155.84 150.182H128.658V151.363H155.84V150.182Z" fill="#EDAA85"/>
<path d="M155.84 153.443H128.658V154.625H155.84V153.443Z" fill="#EDAA85"/>
<path d="M155.84 156.727H128.658V157.908H155.84V156.727Z" fill="#EDAA85"/>
</g>
</g>
<path d="M200.061 130.231L109.362 130.884C109.362 130.884 118.905 109.929 125.431 105.343C131.958 100.757 183.992 105.343 183.992 105.343L200.061 130.231Z" fill="#EDAA85"/>
<path d="M190.729 125.997H112.871C112.871 125.997 120.544 110.228 126.665 106.1C132.785 101.973 176.935 106.1 176.935 106.1L190.729 125.997Z" fill="#4F4772"/>
<path d="M112.148 140.145C109.819 141.027 112.218 147.042 113.135 147.342C114.053 147.66 123.119 149.547 125.147 147.342C127.176 145.137 114.458 139.246 112.148 140.145Z" fill="#FCE5D4"/>
<mask id="mask10_2503_10323" style="mask-type:luminance" maskUnits="userSpaceOnUse" x="111" y="140" width="15" height="9">
<path d="M112.148 140.145C109.819 141.027 112.218 147.042 113.135 147.342C114.053 147.66 123.119 149.547 125.147 147.342C127.176 145.137 114.458 139.246 112.148 140.145Z" fill="white"/>
</mask>
<g mask="url(#mask10_2503_10323)">
<path d="M115.128 149.162C115.128 149.162 114.017 142.812 120.05 145.176C124.459 146.904 122.889 153.466 122.889 153.466C122.889 153.466 114.758 158.034 115.146 149.162H115.128Z" fill="white"/>
<path d="M106.098 141.486C106.098 141.486 107.897 135.295 112.272 140.075C115.464 143.585 111.143 148.771 111.143 148.771C111.143 148.771 101.83 149.283 106.098 141.486Z" fill="white"/>
</g>
<path d="M127.971 148.31C127.971 148.31 127.918 148.31 127.9 148.274C125.272 143.389 120.28 140.954 116.558 139.79C112.519 138.52 109.062 138.397 109.044 138.397C109.027 138.397 108.991 138.397 108.974 138.362C108.974 138.344 108.956 138.309 108.974 138.291C109.132 137.832 112.713 127.179 112.978 126.72C112.995 126.685 113.048 126.667 113.083 126.685C113.119 126.702 113.136 126.755 113.119 126.79C112.925 127.143 110.473 134.358 109.168 138.22C109.803 138.256 112.978 138.467 116.611 139.614C118.992 140.372 121.109 141.378 122.891 142.595C125.131 144.129 126.859 145.999 128.041 148.186C128.059 148.222 128.041 148.275 128.006 148.292C128.006 148.292 127.988 148.292 127.971 148.292V148.31Z" fill="#1D1D1B"/>
<path d="M226.977 53.2031H224.613V149.687H226.977V53.2031Z" fill="#FCC9AC"/>
<path d="M234.968 51.3145H232.604V147.798H234.968V51.3145Z" fill="#FCC9AC"/>
<path d="M242.94 49.4258H240.576V145.91H242.94V49.4258Z" fill="#FCC9AC"/>
<path d="M250.931 47.5391H248.567V144.023H250.931V47.5391Z" fill="#FCC9AC"/>
<path d="M242.358 186.001H146.65C142.522 186.001 139.171 182.65 139.171 178.523V90.7697C139.171 86.8716 142.169 83.626 146.068 83.3085C178.329 80.7686 210.626 80.7862 242.94 83.3085C246.838 83.6084 249.836 86.8539 249.836 90.7697V178.523C249.836 182.65 246.485 186.001 242.358 186.001Z" fill="#C6B5C0"/>
<mask id="mask11_2503_10323" style="mask-type:luminance" maskUnits="userSpaceOnUse" x="139" y="81" width="111" height="106">
<path d="M242.358 186.001H146.65C142.522 186.001 139.171 182.65 139.171 178.523V90.7697C139.171 86.8716 142.169 83.626 146.068 83.3085C178.329 80.7686 210.626 80.7862 242.94 83.3085C246.838 83.6084 249.836 86.8539 249.836 90.7697V178.523C249.836 182.65 246.485 186.001 242.358 186.001Z" fill="white"/>
</mask>
<g mask="url(#mask11_2503_10323)">
<path d="M138.377 89.0235C136.843 81.4212 247.861 79.675 252.676 90.0466C294.674 119.944 243.504 69.6738 243.504 69.6738L137.178 79.3575L138.36 89.0412L138.377 89.0235Z" fill="#F7C0B7"/>
</g>
<path d="M242.693 159.384H146.314C143.016 159.384 140.353 156.721 140.353 153.423V94.368C140.353 91.2989 142.663 88.7413 145.715 88.4414C178.205 85.1253 210.731 85.1429 243.275 88.4414C246.326 88.7589 248.637 91.3165 248.637 94.368V153.423C248.637 156.721 245.973 159.384 242.675 159.384H242.693Z" fill="#4F4772"/>
<mask id="mask12_2503_10323" style="mask-type:luminance" maskUnits="userSpaceOnUse" x="140" y="85" width="109" height="75">
<path d="M242.693 159.384H146.314C143.016 159.384 140.353 156.721 140.353 153.423V94.368C140.353 91.2989 142.663 88.7413 145.715 88.4414C178.205 85.1253 210.731 85.1429 243.275 88.4414C246.326 88.7589 248.637 91.3165 248.637 94.368V153.423C248.637 156.721 245.973 159.384 242.675 159.384H242.693Z" fill="white"/>
</mask>
<g mask="url(#mask12_2503_10323)">
<path d="M132.026 143.581C132.026 143.581 171.59 147.215 171.661 145.186C171.731 143.158 171.396 88.3014 171.396 88.3014H179.245L180.833 131.622L232.567 130.405L235.548 78.0004L256.344 74.4727L270.385 167.253L148.289 188.401L131.991 143.546L132.026 143.581Z" fill="#2D2A56"/>
<path d="M213.518 110.315C213.518 110.315 219.003 108.005 220.379 111.779C221.755 115.536 219.268 120.299 219.268 120.299L218.898 123.103C218.898 123.103 230.416 127.178 230.892 128.73C231.368 130.282 231.933 142.524 231.933 142.524C231.933 142.524 198.578 144.923 198.842 144.146C199.107 143.37 201.188 128.713 202.3 127.037C203.428 125.361 213.2 123.121 213.2 123.121C213.2 123.121 213.606 122.221 213.518 121.198C213.412 120.175 211.401 113.014 213.518 110.351V110.315Z" fill="#2D2A56"/>
<path d="M162.77 81.4199H158.819V158.942H162.77V81.4199Z" fill="#2D2A56"/>
<path d="M140.44 124.195C140.44 124.195 157.585 117.775 159.402 128.746C161.219 139.717 158.679 150.23 158.679 150.23L135.96 149.031L140.44 124.195Z" fill="#2D2A56"/>
<path d="M183.955 121.621C183.955 121.621 201.1 115.2 202.917 126.172C204.733 137.143 202.193 147.656 202.193 147.656L179.475 146.456L183.955 121.621Z" fill="#2D2A56"/>
</g>
<path d="M275.87 181.188H148.307V222.409H275.87V181.188Z" fill="#BA7052"/>
<path d="M275.924 222.445H148.272V181.135H275.924V222.445ZM148.361 222.357H275.854V181.223H148.361V222.357Z" fill="#1D1D1B"/>
<path d="M274.072 185.349H150.124L172.084 151.342H252.111L274.072 185.349Z" fill="#BA7052"/>
<path d="M268.974 181.276H167.622L185.578 155.4H251.018L268.974 181.276Z" fill="#4F4772"/>
<path d="M211.348 180.588H154.34C135.113 186.761 140.264 227.401 149.595 231.141C155.839 233.645 183.056 234.122 211.348 233.892V180.588Z" fill="#292856"/>
<path d="M177.253 202.564C174.925 202.282 172.667 201.541 170.463 200.836C169.933 200.659 169.404 200.483 168.875 200.324C167.799 199.989 166.776 199.601 165.7 199.195C165.418 199.089 165.118 198.966 164.818 198.86C164.289 198.666 163.777 198.472 163.266 198.278C159.05 196.691 155.046 195.174 151.219 192.493C151.025 192.299 150.76 192.034 150.566 191.769C150.231 191.187 150.16 190.482 150.372 189.67C151.254 186.248 153.177 183.462 155.082 180.922C155.134 180.851 155.24 180.833 155.311 180.886C155.381 180.939 155.399 181.045 155.346 181.116C153.459 183.638 151.554 186.39 150.689 189.759C150.513 190.499 150.548 191.099 150.848 191.611C151.007 191.84 151.254 192.087 151.413 192.263C155.205 194.927 159.174 196.408 163.372 197.996C163.883 198.19 164.412 198.384 164.924 198.578C165.224 198.684 165.506 198.807 165.806 198.913C166.864 199.319 167.887 199.707 168.946 200.042C169.475 200.201 170.022 200.377 170.551 200.553C172.72 201.259 174.978 201.982 177.236 202.264H177.73C188.331 202.088 199.284 201.912 210.079 201.841C210.167 201.841 210.238 201.912 210.256 202C210.256 202.088 210.185 202.159 210.097 202.159C199.302 202.247 188.348 202.423 177.747 202.582H177.236L177.253 202.564Z" fill="#1D1D1B"/>
<path d="M150.777 197.379C153.669 197.379 171.82 202.565 173.919 204.911C176.018 207.257 180.621 215.265 180.092 216.852C179.563 218.422 156.809 213.413 153.793 210.343C150.777 207.274 147.866 197.397 150.759 197.397L150.777 197.379Z" fill="#EDAA85"/>
<path d="M167.023 212.866C169.439 212.866 171.397 210.908 171.397 208.492C171.397 206.076 169.439 204.117 167.023 204.117C164.607 204.117 162.648 206.076 162.648 208.492C162.648 210.908 164.607 212.866 167.023 212.866Z" fill="#FCE5D4"/>
<path d="M174.801 215.105C176.038 215.105 177.041 214.102 177.041 212.865C177.041 211.628 176.038 210.625 174.801 210.625C173.563 210.625 172.561 211.628 172.561 212.865C172.561 214.102 173.563 215.105 174.801 215.105Z" fill="#EDAA85"/>
<path d="M161.943 205.669C161.943 208.086 160.197 210.044 158.045 210.044C155.893 210.044 154.146 208.086 154.146 205.669C154.146 203.253 155.893 201.295 158.045 201.295C160.197 201.295 161.943 203.253 161.943 205.669Z" fill="#FCE5D4"/>
<path d="M160.885 218.861C164.218 218.861 172.068 220.96 173.814 223.253C175.56 225.529 178.717 230.097 175.913 229.921C173.108 229.744 166.441 230.097 163.813 228.351C161.184 226.605 157.551 218.879 160.867 218.879L160.885 218.861Z" fill="#7C4646"/>
<path d="M211.35 208.739H208.351C207.681 208.739 207.063 208.404 206.764 207.874L204.665 204.064H179.247L191.612 219.516L211.332 219.445V208.739H211.35Z" fill="#292856"/>
<path d="M211.35 209.904H180.853C181.558 210.592 182.299 211.315 183.022 212.039H211.35V209.904Z" fill="#17173A"/>
<path d="M211.35 213.201H184.204C184.839 213.819 185.456 214.436 186.039 215H211.35V213.201Z" fill="#4F4772"/>
<path d="M211.349 216.078H187.131C187.854 216.784 188.489 217.401 188.965 217.877H211.349V216.078Z" fill="#4F4772"/>
<path d="M178.453 206.604C179.106 207.203 179.882 207.944 180.729 208.738H204.594L202.83 206.604H178.453Z" fill="#17173A"/>
<path d="M178.294 200.481C177.571 196.548 173.938 192.121 171.027 189.087C167.852 185.806 164.818 183.425 164.783 183.407L164.995 183.143C164.995 183.143 168.082 185.559 171.274 188.858C175.578 193.303 178.048 197.201 178.647 200.429L178.312 200.481H178.294Z" fill="#1D1D1B"/>
<path d="M252.095 151.483C248.161 149.543 229.888 148.59 211.349 148.537C192.829 148.59 174.555 149.56 170.604 151.483C162.366 160.673 157.269 172.932 154.341 180.587H268.358C265.412 172.932 260.332 160.673 252.095 151.483Z" fill="#BA7052"/>
<mask id="mask13_2503_10323" style="mask-type:luminance" maskUnits="userSpaceOnUse" x="154" y="148" width="115" height="33">
<path d="M252.095 151.483C248.161 149.543 229.888 148.59 211.349 148.537C192.829 148.59 174.555 149.56 170.604 151.483C162.366 160.673 157.269 172.932 154.341 180.587H268.358C265.412 172.932 260.332 160.673 252.095 151.483Z" fill="white"/>
</mask>
<g mask="url(#mask13_2503_10323)">
<path d="M268.974 151.043C268.974 151.043 172.296 146.95 163.988 154.835C155.698 162.719 187.519 125.59 187.519 125.59L226.43 127.477C226.43 127.477 264.371 145.134 268.957 151.043H268.974Z" fill="#E89D89"/>
</g>
<path d="M249.378 156.017C245.692 154.589 228.671 153.865 211.349 153.812C194.028 153.865 177.007 154.571 173.32 156.017C165.577 162.861 160.797 171.998 158.027 177.695H264.654C261.884 171.998 257.122 162.861 249.361 156.017H249.378Z" fill="#4F4772"/>
<mask id="mask14_2503_10323" style="mask-type:luminance" maskUnits="userSpaceOnUse" x="158" y="153" width="107" height="25">
<path d="M249.378 156.017C245.692 154.589 228.671 153.865 211.349 153.812C194.028 153.865 177.007 154.571 173.32 156.017C165.577 162.861 160.797 171.998 158.027 177.695H264.654C261.884 171.998 257.122 162.861 249.361 156.017H249.378Z" fill="white"/>
</mask>
<g mask="url(#mask14_2503_10323)">
<path d="M215.177 184.398C215.089 183.551 213.766 171.874 218.722 171.221C223.679 170.551 232.939 167.623 232.939 167.623L229.341 160.462C229.341 160.462 228.424 152.736 238.725 154.412C249.043 156.087 243.558 162.914 243.558 162.914V165.683C243.558 165.683 252.342 171.998 256.293 177.536C260.244 183.075 215.159 184.38 215.159 184.38L215.177 184.398Z" fill="#403A6B"/>
<path d="M163.637 185.79C163.549 184.944 162.226 173.267 167.182 172.614C172.139 171.944 181.399 169.016 181.399 169.016L177.801 161.854C177.801 161.854 176.884 154.129 187.185 155.804C197.503 157.48 192.018 164.306 192.018 164.306V167.075C192.018 167.075 200.802 173.39 204.753 178.929C208.704 184.467 163.619 185.773 163.619 185.773L163.637 185.79Z" fill="#403A6B"/>
</g>
<path d="M211.35 180.588H268.358C287.584 186.761 282.434 227.401 273.103 231.141C266.859 233.645 239.642 234.122 211.35 233.892V180.588Z" fill="#292856"/>
<path d="M245.463 202.564H244.952C234.351 202.406 223.397 202.229 212.602 202.141C212.514 202.141 212.443 202.07 212.443 201.982C212.443 201.894 212.514 201.824 212.62 201.824C223.415 201.912 234.386 202.088 244.969 202.247H245.463C247.721 201.982 249.979 201.241 252.148 200.536C252.677 200.359 253.207 200.183 253.753 200.024C254.829 199.689 255.835 199.301 256.893 198.895C257.175 198.79 257.475 198.666 257.775 198.56C258.286 198.366 258.816 198.172 259.327 197.978C263.525 196.391 267.494 194.891 271.286 192.246C271.445 192.087 271.692 191.84 271.851 191.593C272.133 191.081 272.186 190.482 272.009 189.741C271.145 186.39 269.24 183.638 267.353 181.098C267.3 181.027 267.318 180.922 267.388 180.869C267.459 180.816 267.564 180.833 267.617 180.904C269.522 183.462 271.463 186.248 272.327 189.653C272.539 190.464 272.468 191.17 272.133 191.752C271.939 192.034 271.674 192.299 271.498 192.475C267.635 195.174 263.649 196.691 259.433 198.278C258.921 198.472 258.392 198.666 257.881 198.86C257.581 198.966 257.299 199.09 256.999 199.195C255.923 199.601 254.917 199.989 253.824 200.324C253.295 200.483 252.748 200.659 252.236 200.836C250.049 201.541 247.774 202.282 245.481 202.564C245.481 202.564 245.481 202.564 245.463 202.564Z" fill="#1D1D1B"/>
<path d="M271.921 197.379C269.028 197.379 250.878 202.565 248.779 204.911C246.68 207.257 242.076 215.265 242.606 216.852C243.135 218.422 265.889 213.413 268.905 210.343C271.921 207.274 274.832 197.397 271.939 197.397L271.921 197.379Z" fill="#EDAA85"/>
<path d="M255.694 212.866C258.11 212.866 260.068 210.908 260.068 208.492C260.068 206.076 258.11 204.117 255.694 204.117C253.278 204.117 251.319 206.076 251.319 208.492C251.319 210.908 253.278 212.866 255.694 212.866Z" fill="#FCE5D4"/>
<path d="M247.915 215.105C249.152 215.105 250.155 214.102 250.155 212.865C250.155 211.628 249.152 210.625 247.915 210.625C246.678 210.625 245.675 211.628 245.675 212.865C245.675 214.102 246.678 215.105 247.915 215.105Z" fill="#EDAA85"/>
<path d="M264.671 210.044C266.824 210.044 268.569 208.085 268.569 205.669C268.569 203.253 266.824 201.295 264.671 201.295C262.518 201.295 260.772 203.253 260.772 205.669C260.772 208.085 262.518 210.044 264.671 210.044Z" fill="#FCE5D4"/>
<path d="M261.831 218.861C258.497 218.861 250.648 220.96 248.901 223.253C247.155 225.529 243.998 230.097 246.802 229.921C249.607 229.744 256.274 230.097 258.903 228.351C261.531 226.605 265.164 218.879 261.848 218.879L261.831 218.861Z" fill="#7C4646"/>
<path d="M211.35 208.739H214.348C215.018 208.739 215.636 208.404 215.936 207.874L218.035 204.064H243.452L231.087 219.516L211.367 219.445V208.739H211.35Z" fill="#292856"/>
<path d="M211.35 209.904H241.847C241.141 210.592 240.401 211.315 239.677 212.039H211.35V209.904Z" fill="#17173A"/>
<path d="M211.35 213.201H238.496C237.861 213.819 237.243 214.436 236.661 215H211.35V213.201Z" fill="#4F4772"/>
<path d="M211.35 216.078H235.568C234.844 216.784 234.209 217.401 233.733 217.877H211.35V216.078Z" fill="#4F4772"/>
<path d="M244.264 206.604C243.611 207.203 242.835 207.944 241.988 208.738H218.123L219.887 206.604H244.264Z" fill="#17173A"/>
<path d="M244.422 200.481L244.087 200.429C244.687 197.201 247.156 193.303 251.46 188.858C254.653 185.559 257.704 183.16 257.739 183.143L257.951 183.407C257.951 183.407 254.882 185.806 251.707 189.087C248.779 192.103 245.163 196.53 244.44 200.481H244.422Z" fill="#1D1D1B"/>
<path d="M267.44 169.51C268.675 168.805 276.507 172.826 277.688 173.796C279.188 175.014 281.71 177.924 280.317 179.511C278.923 181.099 266.735 179.3 266.735 179.3L265.2 180.975C265.2 180.975 266.223 170.198 267.44 169.51Z" fill="#BA7052"/>
<path d="M264.724 205.406H202.829L194.522 221.757L189.583 223.415C186.531 238.55 191.17 257.67 197.679 260.28C204.452 262.997 234.015 263.526 264.741 263.261V205.389L264.724 205.406Z" fill="#7D5482"/>
<path d="M265.447 230.823C265.165 230.823 237.666 230.788 231.969 230.047C230.452 229.87 223.238 228.318 215.865 226.431C209.356 224.755 201.066 222.392 198.543 220.628C198.437 220.522 198.385 220.469 199.072 218.211C199.425 217.065 199.919 215.477 200.536 213.484C201.612 210.097 202.724 206.693 202.741 206.675C202.777 206.587 202.865 206.534 202.953 206.57C203.041 206.605 203.094 206.693 203.059 206.781C201.401 211.861 198.949 219.534 198.808 220.416C203.535 223.609 228.794 229.341 232.004 229.729C237.684 230.47 265.165 230.505 265.447 230.505C265.535 230.505 265.606 230.576 265.606 230.664C265.606 230.752 265.535 230.823 265.447 230.823Z" fill="#1D1D1B"/>
<path d="M198.066 224.525C201.205 224.525 225.829 229.482 228.122 232.04C230.415 234.597 222.513 235.973 222.513 235.973L210.783 235.832L211.401 238.919C211.401 238.919 200.623 240.1 199.459 238.919C196.178 235.567 194.926 224.543 198.066 224.543V224.525Z" fill="#EDAA85"/>
<mask id="mask15_2503_10323" style="mask-type:luminance" maskUnits="userSpaceOnUse" x="196" y="224" width="33" height="16">
<path d="M198.066 224.525C201.205 224.525 225.829 229.482 228.122 232.04C230.415 234.597 222.513 235.973 222.513 235.973L210.783 235.832L211.401 238.919C211.401 238.919 200.623 240.1 199.459 238.919C196.178 235.567 194.926 224.543 198.066 224.543V224.525Z" fill="white"/>
</mask>
<g mask="url(#mask15_2503_10323)">
<path d="M195.386 225.6L196.991 237.735H209.902L208.227 228.422L195.386 225.6Z" fill="#FCE5D4"/>
<path d="M210.096 228.863L210.678 234.349L226.218 234.931C226.218 234.931 242.763 243.38 242.251 240.434C242.004 238.988 236.254 235.989 228.475 233.502C220.309 230.909 210.096 228.881 210.096 228.881V228.863Z" fill="#FCE5D4"/>
</g>
<path d="M201.946 245.781C205.562 245.781 223.095 252.59 223.095 252.59L225.388 259.822C222.337 259.628 203.128 259.487 200.271 257.582C197.413 255.677 198.348 245.781 201.964 245.781H201.946Z" fill="#3D2742"/>
<path d="M265.182 231.776L233.539 231.088L226.589 243.717L242.411 255.518L263.842 255.412L265.182 231.776Z" fill="#3D2742"/>
<path d="M266.699 233.045H231.033V233.504H266.699V233.045Z" fill="#7D5482"/>
<path d="M266.311 236.346H227.082V236.804H266.311V236.346Z" fill="#7D5482"/>
<path d="M265.869 239.643H226.641V240.101H265.869V239.643Z" fill="#7D5482"/>
<path d="M265.447 242.961H226.219V243.42H265.447V242.961Z" fill="#513556"/>
<path d="M265.006 246.258H225.777V246.716H265.006V246.258Z" fill="#513556"/>
<path d="M264.741 249.555H229.075V250.013H264.741V249.555Z" fill="#513556"/>
<path d="M264.353 252.871H228.688V253.33H264.353V252.871Z" fill="#513556"/>
<path d="M196.251 249.732C196.251 249.732 196.109 249.679 196.092 249.608C194.31 243.399 192.423 224.72 192.405 224.526C192.405 224.438 192.458 224.35 192.546 224.35C192.635 224.35 192.723 224.403 192.723 224.491C192.74 224.685 194.61 243.329 196.392 249.502C196.409 249.591 196.374 249.679 196.286 249.714C196.286 249.714 196.251 249.714 196.233 249.714L196.251 249.732Z" fill="#1D1D1B"/>
<path d="M219.198 224.683C219.198 224.683 219.092 224.666 219.056 224.613L208.614 210.043C208.614 210.043 208.579 209.867 208.65 209.814C208.72 209.761 208.826 209.779 208.879 209.849L219.321 224.419C219.321 224.419 219.356 224.595 219.286 224.648C219.25 224.666 219.215 224.683 219.198 224.683Z" fill="#1D1D1B"/>
<path d="M325.735 206.287C322.542 197.979 317.021 184.662 308.079 174.678C303.863 172.614 284.531 171.574 264.723 171.468V170.586C244.597 170.656 224.771 171.697 220.485 173.796C211.524 183.78 206.021 197.097 202.828 205.405H263.841V206.287H325.735Z" fill="#7D5482"/>
<path d="M321.732 203.148C319.068 197.08 309.949 179.353 307.444 178.824C303.493 177.289 283.156 176.231 264.511 176.143C264.406 176.143 264.282 176.143 264.176 176.143C264.071 176.143 263.947 176.143 263.841 176.143C245.215 176.231 224.877 177.289 220.908 178.824C218.404 179.353 209.285 197.08 206.621 203.148H321.732Z" fill="#9C73A0"/>
<mask id="mask16_2503_10323" style="mask-type:luminance" maskUnits="userSpaceOnUse" x="206" y="176" width="116" height="28">
<path d="M321.732 203.148C319.068 197.08 309.949 179.353 307.444 178.824C303.493 177.289 283.156 176.231 264.511 176.143C264.406 176.143 264.282 176.143 264.176 176.143C264.071 176.143 263.947 176.143 263.841 176.143C245.215 176.231 224.877 177.289 220.908 178.824C218.404 179.353 209.285 197.08 206.621 203.148H321.732Z" fill="white"/>
</mask>
<g mask="url(#mask16_2503_10323)">
<path d="M219.198 182.652C219.198 182.652 293.51 176.637 320.992 183.304C348.49 189.972 296.033 160.674 296.033 160.674C296.033 160.674 219.957 159.404 220.521 160.674C221.086 161.944 219.181 182.652 219.181 182.652H219.198Z" fill="#513556"/>
<path d="M285.697 183.694C286.738 181.665 294.058 179.99 297.656 182.882C300.584 185.246 307.781 191.508 302.648 195.441C302.401 196.305 300.426 196.164 300.408 196.429C300.249 197.893 324.291 198.316 324.926 205.442C325.561 212.568 324.926 213.926 324.926 213.926L255.888 212.551C255.888 212.551 268.27 198.969 271.833 197.364C275.396 195.759 283.334 198.598 283.334 198.598L283.263 196.746C280.723 192.072 284.657 185.704 285.697 183.676V183.694Z" fill="#494672"/>
<path d="M246.31 184.451C245.375 181.735 238.513 181.065 235.409 183.57C232.869 185.616 233.381 192.777 237.843 196.199C238.072 196.957 236.503 197.857 236.52 198.086C236.644 199.356 216.394 199.444 215.83 205.636C215.266 211.827 215.83 213.009 215.83 213.009L267.794 210.275C267.794 210.275 257.052 198.474 253.947 197.081C250.861 195.687 246.239 196.94 246.239 196.94L246.31 195.335C248.515 191.278 248.021 186.409 246.31 184.469V184.451Z" fill="#494672"/>
</g>
<path d="M264.723 205.406H326.617L334.925 221.757L339.864 223.415C342.915 238.55 338.276 257.67 331.768 260.28C324.994 262.997 295.432 263.526 264.705 263.261V205.389L264.723 205.406Z" fill="#7D5482"/>
<path d="M262.236 230.823C262.148 230.823 262.077 230.752 262.077 230.664C262.077 230.576 262.148 230.505 262.236 230.505C262.518 230.505 289.982 230.47 295.679 229.729C298.907 229.341 324.148 223.609 328.875 220.416C328.734 219.534 326.3 211.879 324.624 206.781C324.589 206.693 324.642 206.605 324.73 206.57C324.818 206.534 324.906 206.587 324.942 206.675C324.942 206.711 326.071 210.115 327.147 213.484C327.782 215.477 328.275 217.065 328.611 218.211C329.281 220.469 329.246 220.522 329.157 220.61C326.617 222.392 318.327 224.755 311.818 226.431C304.445 228.318 297.249 229.87 295.714 230.047C290.017 230.788 262.518 230.823 262.236 230.823Z" fill="#1D1D1B"/>
<path d="M329.616 224.525C326.477 224.525 301.853 229.482 299.56 232.04C297.267 234.597 305.169 235.973 305.169 235.973L316.899 235.832L316.282 238.919C316.282 238.919 327.059 240.1 328.223 238.919C331.504 235.567 332.756 224.543 329.616 224.543V224.525Z" fill="#EDAA85"/>
<mask id="mask17_2503_10323" style="mask-type:luminance" maskUnits="userSpaceOnUse" x="299" y="224" width="33" height="16">
<path d="M329.616 224.525C326.477 224.525 301.853 229.482 299.56 232.04C297.267 234.597 305.169 235.973 305.169 235.973L316.899 235.832L316.282 238.919C316.282 238.919 327.059 240.1 328.223 238.919C331.504 235.567 332.756 224.543 329.616 224.543V224.525Z" fill="white"/>
</mask>
<g mask="url(#mask17_2503_10323)">
<path d="M317.586 228.863L317.004 234.349L301.464 234.931C301.464 234.931 284.919 243.38 285.431 240.434C285.678 238.988 291.428 235.989 299.206 233.502C307.373 230.909 317.586 228.881 317.586 228.881V228.863Z" fill="#FCE5D4"/>
</g>
<path d="M262.483 231.776L294.145 231.088L301.095 243.717L285.255 255.518L263.842 255.412L262.483 231.776Z" fill="#3D2742"/>
<path d="M260.965 233.504H296.631V233.045H260.965V233.504Z" fill="#7D5482"/>
<path d="M261.371 236.801H300.6V236.342H261.371V236.801Z" fill="#7D5482"/>
<path d="M261.812 240.117H301.041V239.659H261.812V240.117Z" fill="#7D5482"/>
<path d="M262.235 243.398H301.464V242.94H262.235V243.398Z" fill="#7D5482"/>
<path d="M262.677 246.715H301.905V246.256H262.677V246.715Z" fill="#7D5482"/>
<path d="M262.924 250.029H298.59V249.571H262.924V250.029Z" fill="#7D5482"/>
<path d="M263.329 253.312H298.994V252.854H263.329V253.312Z" fill="#7D5482"/>
<path d="M246.255 258.287H284.407L281.409 262.803H248.865L246.255 258.287Z" fill="#3D2742"/>
<path d="M39.6885 143.07H1.58878L-3.52646 153.142L-6.56032 154.165C-8.43003 163.478 -5.59019 175.243 -1.58619 176.849C2.57655 178.524 20.7798 178.842 39.6709 178.683V143.07H39.6885Z" fill="#A0AABC"/>
<path d="M40.1297 158.683C39.9533 158.683 23.0377 158.665 19.5276 158.207C18.5927 158.101 14.1654 157.148 9.63225 155.984C5.62825 154.961 0.530647 153.497 -1.02156 152.421C-1.09212 152.351 -1.14503 152.298 0.213151 148.047C0.865785 145.965 1.55369 143.866 1.57133 143.849C1.57133 143.813 1.62425 143.778 1.67717 143.796C1.71245 143.796 1.74772 143.849 1.73008 143.902C0.689395 147.059 -0.827537 151.821 -0.880453 152.298C2.0123 154.255 17.5873 157.801 19.5629 158.03C23.0553 158.489 39.9709 158.506 40.1473 158.506C40.2002 158.506 40.2355 158.542 40.2355 158.595C40.2355 158.648 40.2002 158.683 40.1473 158.683H40.1297Z" fill="#1D1D1B"/>
<path d="M-1.33862 154.836C0.601646 154.836 15.7533 157.887 17.1468 159.457C18.5579 161.027 13.6896 161.874 13.6896 161.874L6.47535 161.786L6.84577 163.691C6.84577 163.691 0.213593 164.414 -0.491958 163.691C-2.52041 161.627 -3.27888 154.854 -1.35626 154.854L-1.33862 154.836Z" fill="#EDAA85"/>
<mask id="mask18_2503_10323" style="mask-type:luminance" maskUnits="userSpaceOnUse" x="-3" y="154" width="21" height="11">
<path d="M-1.33862 154.836C0.601646 154.836 15.7533 157.887 17.1468 159.457C18.5579 161.027 13.6896 161.874 13.6896 161.874L6.47535 161.786L6.84577 163.691C6.84577 163.691 0.213593 164.414 -0.491958 163.691C-2.52041 161.627 -3.27888 154.854 -1.35626 154.854L-1.33862 154.836Z" fill="white"/>
</mask>
<g mask="url(#mask18_2503_10323)">
<path d="M-2.97852 155.508L-1.99074 162.969H5.9467L4.92365 157.236L-2.97852 155.508Z" fill="#FCE5D4"/>
<path d="M6.07031 157.52L6.42309 160.889L15.9833 161.241C15.9833 161.241 26.1609 166.445 25.8434 164.628C25.6846 163.746 22.1569 161.894 17.3768 160.359C12.3497 158.754 6.07031 157.502 6.07031 157.502V157.52Z" fill="#FCE5D4"/>
</g>
<path d="M1.05977 167.924C3.28226 167.924 14.0772 172.122 14.0772 172.122L15.4883 176.567C13.6186 176.443 1.78296 176.355 0.0367243 175.191C-1.72715 174.027 -1.14507 167.924 1.07741 167.924H1.05977Z" fill="#4A5975"/>
<path d="M39.9703 159.3L20.4972 158.877L16.2109 166.638L25.9652 173.905L39.1413 173.835L39.9703 159.3Z" fill="#4A5975"/>
<path d="M40.9065 160.074H18.9639V160.356H40.9065V160.074Z" fill="#A0AABC"/>
<path d="M40.6582 162.102H16.5107V162.384H40.6582V162.102Z" fill="#A0AABC"/>
<path d="M40.3945 164.146H16.2471V164.429H40.3945V164.146Z" fill="#A0AABC"/>
<path d="M40.1289 166.176H15.9814V166.458H40.1289V166.176Z" fill="#A0AABC"/>
<path d="M39.8652 168.205H15.7178V168.487H39.8652V168.205Z" fill="#A0AABC"/>
<path d="M39.6877 170.234H17.7451V170.517H39.6877V170.234Z" fill="#A0AABC"/>
<path d="M39.4592 172.281H17.5166V172.563H39.4592V172.281Z" fill="#A0AABC"/>
<path d="M11.6595 154.906C11.6595 154.906 11.6066 154.906 11.589 154.871L5.16847 145.91C5.16847 145.91 5.15083 145.822 5.18611 145.787C5.22139 145.752 5.2743 145.769 5.30958 145.804L11.7301 154.765C11.7301 154.765 11.7477 154.853 11.7124 154.888C11.7124 154.888 11.6772 154.888 11.6595 154.888V154.906Z" fill="#1D1D1B"/>
<path d="M77.2414 143.052C75.2835 137.937 71.8792 129.753 66.3759 123.597C63.7477 122.309 52.0709 121.674 39.7061 121.621C27.3237 121.656 15.1177 122.309 12.4895 123.597C6.98621 129.735 3.58193 137.937 1.62402 143.052H39.7237H77.2767H77.2414Z" fill="#A0AABC"/>
<mask id="mask19_2503_10323" style="mask-type:luminance" maskUnits="userSpaceOnUse" x="1" y="121" width="77" height="23">
<path d="M77.2414 143.052C75.2835 137.937 71.8792 129.753 66.3759 123.597C63.7477 122.309 52.0709 121.674 39.7061 121.621C27.3237 121.656 15.1177 122.309 12.4895 123.597C6.98621 129.735 3.58193 137.937 1.62402 143.052H39.7237H77.2767H77.2414Z" fill="white"/>
</mask>
<g mask="url(#mask19_2503_10323)">
<path d="M74.7727 126.048C63.625 122.891 8.06294 119.945 1.73063 129.699C-4.21363 138.854 17.7466 108.021 17.7466 108.021L72.3033 107.527L74.7727 126.03V126.048Z" fill="#FCD6BE"/>
</g>
<path d="M65.9705 126.701C63.5011 125.749 50.713 125.078 39.1419 125.043C27.5709 125.078 14.7652 125.731 12.3134 126.701C10.7612 127.036 5.15206 137.937 3.5293 141.659H74.7899C73.1495 137.919 67.5404 127.019 66.0058 126.701H65.9705Z" fill="#4F4772"/>
<mask id="mask20_2503_10323" style="mask-type:luminance" maskUnits="userSpaceOnUse" x="3" y="125" width="72" height="17">
<path d="M65.9705 126.701C63.5011 125.749 50.713 125.078 39.1419 125.043C27.5709 125.078 14.7652 125.731 12.3134 126.701C10.7612 127.036 5.15206 137.937 3.5293 141.659H74.7899C73.1495 137.919 67.5404 127.019 66.0058 126.701H65.9705Z" fill="white"/>
</mask>
<g mask="url(#mask20_2503_10323)">
<path d="M57.2229 127.828C57.2229 127.828 61.562 126.488 62.6556 128.675C63.7492 130.862 61.7737 133.614 61.7737 133.614L61.4738 135.237C61.4738 135.237 70.593 137.6 70.9635 138.5C71.3339 139.399 71.7925 146.508 71.7925 146.508C71.7925 146.508 45.3873 147.901 45.5989 147.443C45.8106 146.984 47.451 138.482 48.3329 137.512C49.2149 136.542 56.9583 135.237 56.9583 135.237C56.9583 135.237 57.2758 134.708 57.2052 134.125C57.117 133.526 55.5295 129.381 57.2052 127.828H57.2229Z" fill="#403A6B"/>
</g>
<path d="M39.6885 143.07H77.7882L82.9034 153.142L85.9373 154.165C87.807 163.478 84.9672 175.243 80.9632 176.849C76.7828 178.524 58.5972 178.842 39.7061 178.683V143.07H39.6885Z" fill="#A0AABC"/>
<path d="M38.1546 158.682C38.1546 158.682 38.0664 158.647 38.0664 158.594C38.0664 158.541 38.1017 158.506 38.1546 158.506C38.331 158.506 55.2289 158.488 58.739 158.029C60.7322 157.783 76.3072 154.255 79.1824 152.279C79.1118 151.785 77.5949 147.041 76.5718 143.883C76.5718 143.848 76.5718 143.795 76.6247 143.777C76.66 143.777 76.7129 143.777 76.7306 143.83C76.7306 143.848 77.4185 145.947 78.0887 148.028C79.4469 152.279 79.394 152.332 79.3411 152.385C77.7712 153.479 72.6736 154.943 68.6696 155.966C64.1365 157.13 59.7092 158.082 58.7567 158.188C55.2466 158.647 38.331 158.664 38.1546 158.664V158.682Z" fill="#1D1D1B"/>
<path d="M79.6229 154.836C77.6826 154.836 62.5309 157.887 61.1375 159.457C59.7264 161.027 64.5947 161.874 64.5947 161.874L71.8089 161.786L71.4385 163.691C71.4385 163.691 78.0707 164.414 78.7762 163.691C80.8047 161.627 81.5632 154.854 79.6405 154.854L79.6229 154.836Z" fill="#EDAA85"/>
<mask id="mask21_2503_10323" style="mask-type:luminance" maskUnits="userSpaceOnUse" x="60" y="154" width="21" height="11">
<path d="M79.6229 154.836C77.6826 154.836 62.5309 157.887 61.1375 159.457C59.7264 161.027 64.5947 161.874 64.5947 161.874L71.8089 161.786L71.4385 163.691C71.4385 163.691 78.0707 164.414 78.7762 163.691C80.8047 161.627 81.5632 154.854 79.6405 154.854L79.6229 154.836Z" fill="white"/>
</mask>
<g mask="url(#mask21_2503_10323)">
<path d="M81.2631 155.508L80.2753 162.969H72.3379L73.3609 157.236L81.2631 155.508Z" fill="#FCE5D4"/>
<path d="M72.2139 157.52L71.8611 160.889L62.3009 161.241C62.3009 161.241 52.1234 166.445 52.4409 164.628C52.5996 163.746 56.1274 161.894 60.9075 160.359C65.9345 158.754 72.2139 157.502 72.2139 157.502V157.52Z" fill="#FCE5D4"/>
</g>
<path d="M77.242 167.924C75.0195 167.924 64.2246 172.122 64.2246 172.122L62.8135 176.567C64.6832 176.443 76.5188 176.355 78.265 175.191C80.0289 174.027 79.4468 167.924 77.2243 167.924H77.242Z" fill="#4A5975"/>
<path d="M38.3125 159.296L57.7857 158.873L62.0719 166.634L52.3177 173.901L39.1415 173.831L38.3125 159.296Z" fill="#4A5975"/>
<path d="M37.3953 160.357H59.3379V160.075H37.3953V160.357Z" fill="#A0AABC"/>
<path d="M37.624 162.4H61.7715V162.118H37.624V162.4Z" fill="#A0AABC"/>
<path d="M37.8896 164.412H62.0371V164.13H37.8896V164.412Z" fill="#A0AABC"/>
<path d="M38.1553 166.459H62.3027V166.177H38.1553V166.459Z" fill="#A0AABC"/>
<path d="M38.418 168.488H62.5654V168.206H38.418V168.488Z" fill="#A0AABC"/>
<path d="M38.5955 170.535H60.5381V170.253H38.5955V170.535Z" fill="#A0AABC"/>
<path d="M38.825 172.543H60.7676V172.261H38.825V172.543Z" fill="#A0AABC"/>
<path d="M80.7337 170.321C80.7337 170.321 80.6455 170.251 80.6455 170.215C81.7391 166.423 82.8856 154.94 82.9033 154.817C82.9033 154.764 82.9562 154.746 82.9915 154.746C83.0444 154.746 83.062 154.799 83.062 154.834C83.062 154.958 81.8979 166.441 80.8043 170.268C80.8043 170.303 80.769 170.321 80.7161 170.321H80.7337Z" fill="#1D1D1B"/>
<path d="M66.623 154.905C66.623 154.905 66.5877 154.905 66.5701 154.905C66.5348 154.869 66.5172 154.834 66.5524 154.781L72.9729 145.821C72.9729 145.821 73.0435 145.768 73.0964 145.803C73.1317 145.838 73.1493 145.874 73.1141 145.927L66.6935 154.887C66.6935 154.887 66.6583 154.922 66.623 154.922V154.905Z" fill="#1D1D1B"/>
<path d="M28.3291 175.613H51.7886L49.9542 178.4H29.9342L28.3291 175.613Z" fill="#3D2742"/>
<path d="M105.286 178.275H-5.37988V214.029H105.286V178.275Z" fill="#342F5B"/>
<path d="M103.715 181.892H-3.81055C-3.81055 181.892 7.28423 159.05 15.2393 152.382C23.1944 145.715 77.1866 147.196 85.5298 149.719C93.8729 152.241 103.715 181.892 103.715 181.892Z" fill="#342F5B"/>
<path d="M99.2885 180.039C66.7626 181.274 11.377 180.039 11.377 180.039C11.377 180.039 21.4487 160.496 27.9574 154.304C34.4484 148.113 80.1505 150.212 86.8885 155.222C93.6265 160.231 99.2885 180.022 99.2885 180.022V180.039Z" fill="#4F4772"/>
<path d="M135.96 197.135H25.2939V232.889H135.96V197.135Z" fill="#C6B5C0"/>
<path d="M135.995 232.942H25.2588V197.1H135.995V232.942ZM25.3293 232.853H135.907V197.188H25.3293V232.853Z" fill="#1D1D1B"/>
<path d="M129.962 197.222H42.0508L57.6258 174.768H114.387L129.962 197.222Z" fill="#4F4772"/>
<path d="M120.208 224.013L-7.6373 231.968C-12.3292 224.507 -4.23302 194.591 14.2877 190.288C24.7298 187.853 120.208 188.241 120.208 188.241V223.995V224.013Z" fill="#BA7052"/>
<path d="M118.638 191.857H11.1123C11.1123 191.857 25.8936 167.534 30.1622 162.348C34.4307 157.18 99.5883 162.348 99.5883 162.348L118.638 191.857Z" fill="#BA7052"/>
<path d="M112.342 188.346C81.8625 189.245 46.2498 189.439 24.4307 188.346C24.4307 188.346 31.3451 170.407 40.0057 165.892C48.6487 161.376 96.7672 165.892 96.7672 165.892L112.342 188.346Z" fill="#4F4772"/>
<path d="M396.185 224.49H308.097C295.203 247.438 292.187 263.013 292.187 268.675L295.785 303.724C305.433 307.586 352.476 307.216 396.185 306.846V224.49Z" fill="#C6B5C0"/>
<path d="M303.617 250.437C330.675 247.421 349.76 278.077 348.949 280.511C348.137 282.945 313.812 274.532 309.138 269.769C304.464 265.007 299.155 250.437 303.635 250.437H303.617Z" fill="#EDAA85"/>
<mask id="mask22_2503_10323" style="mask-type:luminance" maskUnits="userSpaceOnUse" x="301" y="250" width="48" height="31">
<path d="M303.617 250.437C330.675 247.421 349.76 278.077 348.949 280.511C348.137 282.945 313.812 274.532 309.138 269.769C304.464 265.007 299.155 250.437 303.635 250.437H303.617Z" fill="white"/>
</mask>
<g mask="url(#mask22_2503_10323)">
</g>
<path d="M348.102 282.557C348.102 282.557 339.406 280.987 330.234 278.888C317.904 276.066 310.478 273.649 308.185 271.709C305.328 269.292 303.052 265.13 301.623 262.06C300.089 258.744 299.225 255.975 299.225 255.94L299.542 255.834C299.577 255.94 303.017 266.876 308.397 271.444C313.777 276.013 347.819 282.169 348.155 282.222L348.102 282.557Z" fill="#1D1D1B"/>
<path d="M222.884 55.3885L255.692 48.139V42.3711L222.884 50.3085V55.3885Z" fill="#B7729B"/>
<path d="M258.885 23.3048L291.393 17.096V11.3281L258.885 18.2072V23.3048Z" fill="#9C73A0"/>
<path d="M222.108 74.5954L252.359 71.1911L251.971 67.875L222.514 71.0853L222.108 74.5954Z" fill="#B7729B"/>
<path d="M133.174 36.832H89.8175C87.4406 36.832 85.5137 38.7589 85.5137 41.1359V48.65C85.5137 51.027 87.4406 52.9539 89.8175 52.9539H133.174C135.551 52.9539 137.477 51.027 137.477 48.65V41.1359C137.477 38.7589 135.551 36.832 133.174 36.832Z" fill="#342F5B"/>
<path d="M389.147 16.1073C365.546 15.6134 339.441 15.243 311.818 14.8197C257.438 14.0083 195.791 13.1087 139.399 11.1685C74.6652 8.94599 26.7936 5.71809 -6.9317 1.29076C-7.03754 1.29076 -7.12573 1.1673 -7.10809 1.06146C-7.10809 0.95563 -6.98462 0.867432 -6.87879 0.885071C68.8444 10.8157 203.569 12.8089 311.836 14.414C339.458 14.8197 365.564 15.2077 389.164 15.7016C389.288 15.7016 389.376 15.8075 389.376 15.9133C389.376 16.0191 389.288 16.125 389.164 16.125L389.147 16.1073Z" fill="#1D1D1B"/>
<path d="M388.724 30.9066L-6.89576 26.1265C-7.01923 26.1265 -7.10742 26.0383 -7.10742 25.9148C-7.10742 25.809 -7.01923 25.7031 -6.89576 25.7031L388.724 30.4832C388.847 30.4832 388.936 30.5714 388.936 30.6949C388.936 30.8007 388.847 30.9066 388.724 30.9066Z" fill="#1D1D1B"/>
<path d="M91.0339 36.885C90.9105 36.885 90.8223 36.7968 90.8223 36.6733V8.62768C90.8223 8.50421 90.9105 8.41602 91.0339 8.41602C91.1574 8.41602 91.2456 8.50421 91.2456 8.62768V36.6733C91.2456 36.7968 91.1574 36.885 91.0339 36.885Z" fill="#1D1D1B"/>
<path d="M133.349 37.0422C133.226 37.0422 133.138 36.954 133.138 36.8306V10.7605C133.138 10.637 133.226 10.5488 133.349 10.5488C133.473 10.5488 133.561 10.637 133.561 10.7605V36.8306C133.561 36.954 133.473 37.0422 133.349 37.0422Z" fill="#1D1D1B"/>
<path d="M13.4268 70.9102C17.1966 70.8708 20.2206 67.7827 20.1811 64.0129C20.1417 60.2431 17.0536 57.2191 13.2838 57.2586C9.51403 57.2981 6.49001 60.3861 6.52949 64.1559C6.56897 67.9257 9.657 70.9497 13.4268 70.9102Z" fill="#FCD6BE"/>
<path d="M18.5735 42.2305L35.9477 64.0849H-5.37988L7.39058 42.2305H18.5735Z" fill="#342F5B"/>
<path d="M12.4183 48.4012L12.136 33.5493H-4.70898V31.6973H13.9528L14.2703 48.3659L12.4183 48.4012Z" fill="#342F5B"/>
<path d="M298.818 95.1128C298.818 96.2946 297.866 97.2471 296.684 97.2471C295.502 97.2471 294.55 96.2946 294.55 95.1128C294.55 93.931 295.502 92.9785 296.684 92.9785C297.866 92.9785 298.818 93.931 298.818 95.1128Z" fill="#FCD6BE"/>
<path d="M298.325 88.3047L303.741 95.1132H290.864L294.851 88.3047H298.325Z" fill="#342F5B"/>
<path d="M306.757 122.17C306.633 122.17 306.545 122.082 306.545 121.958V86.8394H296.985V88.9207C296.985 89.0442 296.897 89.1324 296.773 89.1324C296.65 89.1324 296.562 89.0442 296.562 88.9207V86.6277C296.562 86.5042 296.65 86.416 296.773 86.416H306.739C306.863 86.416 306.951 86.5042 306.951 86.6277V121.958C306.951 122.082 306.863 122.17 306.739 122.17H306.757Z" fill="#342F5B"/>
<path d="M120.209 227.525H-8.62467C-52.0866 241.478 -40.445 333.323 -19.349 341.772C-5.23803 347.416 56.2683 348.51 120.209 347.98V227.525Z" fill="#292856"/>
<path d="M43.1277 277.409C43.1277 277.409 43.0748 277.409 43.0572 277.409C37.8361 276.774 32.7032 275.116 27.7291 273.493C26.5473 273.105 25.3302 272.717 24.1308 272.346C21.679 271.588 19.386 270.706 16.9695 269.789C16.3168 269.542 15.6465 269.295 14.9763 269.03C13.7945 268.572 12.6127 268.131 11.4662 267.707C1.90595 264.109 -7.1251 260.687 -15.821 254.602C-15.8563 254.584 -15.8739 254.567 -15.9092 254.531C-16.3149 254.126 -16.9146 253.526 -17.3379 252.891C-17.3379 252.891 -17.3379 252.873 -17.3556 252.856C-18.1317 251.497 -18.2904 249.839 -17.8142 247.934C-15.821 240.156 -11.4466 233.859 -7.12509 228.056C-6.91343 227.773 -6.52538 227.72 -6.26079 227.932C-5.97857 228.144 -5.92566 228.532 -6.13732 228.796C-10.3883 234.494 -14.6921 240.685 -16.6324 248.234C-17.0381 249.822 -16.9322 251.127 -16.3149 252.221C-15.9798 252.732 -15.4506 253.261 -15.0802 253.614C-6.52538 259.594 2.41747 262.963 11.8895 266.543C13.036 266.984 14.2354 267.425 15.3996 267.884C16.0699 268.131 16.7225 268.378 17.3928 268.642C19.7917 269.56 22.0671 270.424 24.4836 271.182C25.683 271.553 26.9177 271.958 28.0995 272.346C33.0031 273.934 38.0654 275.574 43.163 276.209H44.239C68.21 275.821 92.9925 275.433 117.405 275.239C117.74 275.239 118.022 275.504 118.022 275.857C118.022 276.192 117.757 276.474 117.405 276.474C92.9925 276.668 68.21 277.056 44.2566 277.426H43.1454L43.1277 277.409Z" fill="#1D1D1B"/>
<path d="M-16.6864 265.467C-10.1424 265.467 30.8853 277.161 35.6302 282.488C40.3926 287.797 50.7995 305.895 49.6001 309.458C48.4183 313.021 -3.01636 301.697 -9.86019 294.729C-16.704 287.762 -23.2304 265.467 -16.704 265.467H-16.6864Z" fill="#EDAA85"/>
<path d="M29.9071 290.729C29.9844 285.265 25.6171 280.772 20.1526 280.695C14.6881 280.618 10.1957 284.985 10.1184 290.449C10.0411 295.914 14.4084 300.406 19.8729 300.484C25.3374 300.561 29.8299 296.194 29.9071 290.729Z" fill="#FCE5D4"/>
<path d="M42.6697 300.461C42.6697 303.265 40.3943 305.541 37.5897 305.541C34.7852 305.541 32.5098 303.265 32.5098 300.461C32.5098 297.656 34.7852 295.381 37.5897 295.381C40.3943 295.381 42.6697 297.656 42.6697 300.461Z" fill="#EDAA85"/>
<path d="M-0.298846 294.093C4.56222 294.093 8.50289 289.663 8.50289 284.198C8.50289 278.733 4.56222 274.303 -0.298846 274.303C-5.15991 274.303 -9.10059 278.733 -9.10059 284.198C-9.10059 289.663 -5.15991 294.093 -0.298846 294.093Z" fill="#FCE5D4"/>
<path d="M120.208 291.114H113.453C111.936 291.114 110.542 290.356 109.872 289.174L105.11 280.566H47.6777L75.6175 315.491L120.208 315.315V291.114Z" fill="#292856"/>
<path d="M120.209 293.762H51.2764C52.8639 295.332 54.5219 296.954 56.1799 298.577H120.209V293.762Z" fill="#17173A"/>
<path d="M45.8438 286.299C47.3078 287.675 49.054 289.315 50.9766 291.114H104.916L100.912 286.299H45.8438Z" fill="#17173A"/>
<path d="M45.2453 272.505C43.9577 265.502 38.2957 256.647 28.8766 246.893C21.7152 239.485 14.8538 234.123 14.7832 234.07L15.5417 233.1C15.5417 233.1 22.5443 238.568 29.7585 246.029C34.0094 250.421 37.5372 254.672 40.2359 258.641C43.6402 263.632 45.7392 268.236 46.48 272.293L45.263 272.522L45.2453 272.505Z" fill="#1D1D1B"/>
<path d="M212.283 161.751C203.375 157.377 162.083 155.207 120.208 155.084C78.3341 155.225 37.0417 157.395 28.1342 161.751C9.50764 182.53 -1.99283 210.24 -8.625 227.526H249.042C242.392 210.24 230.909 182.512 212.283 161.751Z" fill="#292856"/>
<mask id="mask23_2503_10323" style="mask-type:luminance" maskUnits="userSpaceOnUse" x="-9" y="155" width="259" height="73">
<path d="M212.283 161.751C203.375 157.377 162.083 155.207 120.208 155.084C78.3341 155.225 37.0417 157.395 28.1342 161.751C9.50764 182.53 -1.99283 210.24 -8.625 227.526H249.042C242.392 210.24 230.909 182.512 212.283 161.751Z" fill="white"/>
</mask>
<g mask="url(#mask23_2503_10323)">
<path d="M8.50195 171.346C8.50195 171.346 33.4432 147.004 220.379 165.437C415.199 184.645 96.8192 108.781 83.9077 124.038C83.9077 124.038 13.0351 134.075 8.50195 171.346Z" fill="#E89D89"/>
</g>
<path d="M206.144 171.98C197.819 168.752 159.349 167.129 120.191 167.006C81.0326 167.112 42.5801 168.734 34.2369 171.98C16.7217 187.449 5.92674 208.104 -0.317383 220.98H240.681C234.437 208.104 223.642 187.449 206.127 171.98H206.144Z" fill="#4F4772"/>
<mask id="mask24_2503_10323" style="mask-type:luminance" maskUnits="userSpaceOnUse" x="-1" y="167" width="242" height="54">
<path d="M206.144 171.98C197.819 168.752 159.349 167.129 120.191 167.006C81.0326 167.112 42.5801 168.734 34.2369 171.98C16.7217 187.449 5.92674 208.104 -0.317383 220.98H240.681C234.437 208.104 223.642 187.449 206.127 171.98H206.144Z" fill="white"/>
</mask>
<g mask="url(#mask24_2503_10323)">
<path d="M95.4969 202.779C91.5634 198.422 48.7365 198.387 44.8031 202.779C37.2008 211.263 29.6514 226.115 29.6514 226.115H110.631C110.631 226.115 103.117 211.228 95.4792 202.779H95.4969Z" fill="#3D3766"/>
<mask id="mask25_2503_10323" style="mask-type:luminance" maskUnits="userSpaceOnUse" x="29" y="199" width="82" height="28">
<path d="M95.4969 202.779C91.5634 198.422 48.7365 198.387 44.8031 202.779C37.2008 211.263 29.6514 226.115 29.6514 226.115H110.631C110.631 226.115 103.117 211.228 95.4792 202.779H95.4969Z" fill="white"/>
</mask>
<g mask="url(#mask25_2503_10323)">
<path d="M32.5098 233.258L112.396 238.726C112.396 238.726 102.342 211.404 89.4653 206.694C78.8997 202.814 55.5107 202.496 47.8555 207.065C40.2003 211.633 36.4608 221.881 32.5098 233.258Z" fill="#272751"/>
</g>
<path d="M208.86 198.722C204.927 194.365 162.1 194.33 158.166 198.722C150.564 207.206 143.032 222.058 143.032 222.058H224.012C224.012 222.058 216.498 207.171 208.878 198.722H208.86Z" fill="#3D3766"/>
<path d="M1.5528 185.828C1.5528 185.828 247.014 173.251 269.433 204.983C291.852 236.715 209.567 116.878 208.261 117.865C206.956 118.871 9.13746 126.12 8.69649 129.578C8.27316 133.035 1.53516 185.828 1.53516 185.828H1.5528Z" fill="#935D5D"/>
<path d="M199.3 195.156H168.768C165.222 195.156 162.7 191.717 163.758 188.33L166.704 178.981C167.392 176.794 169.42 175.295 171.713 175.295H196.372C198.665 175.295 200.694 176.777 201.382 178.981L204.327 188.33C205.386 191.717 202.863 195.156 199.318 195.156H199.3Z" fill="#3D3766"/>
<mask id="mask26_2503_10323" style="mask-type:luminance" maskUnits="userSpaceOnUse" x="163" y="175" width="42" height="21">
<path d="M199.3 195.156H168.768C165.222 195.156 162.7 191.717 163.758 188.33L166.704 178.981C167.392 176.794 169.42 175.295 171.713 175.295H196.372C198.665 175.295 200.694 176.777 201.382 178.981L204.327 188.33C205.386 191.717 202.863 195.156 199.318 195.156H199.3Z" fill="white"/>
</mask>
<g mask="url(#mask26_2503_10323)">
<path d="M156.226 178.313C155.327 177.06 165.751 188.455 171.89 190.413C173.865 191.048 178.945 191.348 184.925 191.506C197.466 191.824 213.958 191.471 214.152 192.089C214.452 193.006 219.849 195.704 219.849 195.704C183.725 214.913 156.809 196.163 156.226 178.33V178.313Z" fill="#2D2A56"/>
</g>
<path d="M184.061 183.11L183.602 191.524C183.531 192.935 182.385 194.046 180.991 194.099H180.921C184.59 199.761 193.568 199.885 200.8 197.944L197.713 196.322C196.778 195.828 196.214 194.822 196.267 193.764C196.443 190.448 196.584 186.338 197.007 182.898L184.043 183.11H184.061Z" fill="#DD8E8E"/>
<mask id="mask27_2503_10323" style="mask-type:luminance" maskUnits="userSpaceOnUse" x="180" y="182" width="21" height="18">
<path d="M184.061 183.11L183.602 191.524C183.531 192.935 182.385 194.046 180.991 194.099H180.921C184.59 199.761 193.568 199.885 200.8 197.944L197.713 196.322C196.778 195.828 196.214 194.822 196.267 193.764C196.443 190.448 196.584 186.338 197.007 182.898L184.043 183.11H184.061Z" fill="white"/>
</mask>
<g mask="url(#mask27_2503_10323)">
<path d="M176.846 178.771C176.846 178.771 177.128 197.097 191.221 191.735C196.83 189.601 201.893 187.714 200.358 184.009C198.048 178.418 186.618 171.027 186.618 171.027L176.828 178.771H176.846Z" fill="#C17272"/>
</g>
<path d="M196.073 180.498C196.073 180.498 200.077 187.589 197.326 189.212H192.387L192.352 190.817C195.509 192.104 198.666 194.468 203.376 194.009C207.962 195.297 207.838 189.018 207.838 189.018C206.745 188.435 196.056 180.498 196.056 180.498H196.073Z" fill="#DD8E8E"/>
<path d="M150.795 222.373C150.795 222.373 157.85 196.215 162.666 195.386C167.499 194.557 181.01 193.992 181.01 193.992C186.161 199.249 194.486 199.125 197.291 196.038L219.904 205.457L227.012 236.943L150.777 222.373H150.795Z" fill="#7D5482"/>
<path d="M181.398 178.806L181.575 167.429L185.72 168.557C185.72 168.557 190.288 165.541 192.105 167.146L193.922 168.751C193.922 168.751 198.138 168.434 198.843 169.863C199.549 171.309 198.967 173.796 198.967 173.796C201.348 173.637 200.554 177.394 199.425 180.658L181.416 178.806H181.398Z" fill="#7C4646"/>
<path d="M182.986 178.928C178.223 174.412 181.892 185.454 183.921 184.078C183.921 184.078 184.309 186.83 184.961 188.347C185.596 189.829 187.201 191.204 187.201 191.204C188.171 191.769 192.175 191.839 193.128 191.204C193.798 190.764 195.174 189 195.686 187.906C196.691 185.807 197.008 184.484 197.008 184.484C198.631 182.385 201.048 177.781 197.873 179.775C194.804 178.593 199.09 178.258 196.92 176.582C194.962 180.551 194.098 175.453 191.276 174.183C189.635 175.876 186.231 173.336 184.785 171.484C184.785 171.484 182.915 171.661 183.003 178.928H182.986Z" fill="#DD8E8E"/>
<path d="M187.837 180.094C187.837 180.394 187.626 180.64 187.361 180.64C187.096 180.64 186.902 180.394 186.902 180.094C186.902 179.794 187.114 179.547 187.379 179.547C187.643 179.547 187.837 179.794 187.837 180.094Z" fill="#1D1D1B"/>
<path d="M194.804 180.625C194.804 180.925 194.592 181.172 194.328 181.172C194.063 181.172 193.869 180.925 193.869 180.625C193.869 180.325 194.081 180.078 194.345 180.078C194.61 180.078 194.804 180.325 194.804 180.625Z" fill="#1D1D1B"/>
<path d="M190.781 185.069C190.146 185.069 189.264 184.716 189.141 184.663C189.07 184.628 189.035 184.557 189.07 184.487C189.106 184.416 189.176 184.381 189.247 184.416C189.794 184.646 190.799 184.945 191.117 184.734C191.152 184.699 191.205 184.663 191.205 184.54C191.205 183.658 191.064 179.954 191.064 179.918C191.064 179.848 191.117 179.777 191.187 179.777C191.258 179.777 191.328 179.83 191.328 179.901C191.328 179.936 191.469 183.64 191.469 184.54C191.469 184.716 191.399 184.875 191.258 184.963C191.134 185.051 190.958 185.069 190.781 185.069Z" fill="#1D1D1B"/>
<path d="M188.949 186.851C188.949 186.851 188.843 186.816 188.825 186.763C188.808 186.692 188.825 186.622 188.914 186.586C189.002 186.551 191.013 185.881 192.512 186.198C192.583 186.198 192.635 186.287 192.618 186.357C192.618 186.428 192.53 186.481 192.459 186.463C191.03 186.163 189.019 186.833 189.002 186.851H188.967H188.949Z" fill="#1D1D1B"/>
<path d="M197.433 179.811C197.433 179.811 197.38 179.811 197.345 179.776C197.345 179.776 195.599 178.294 193.27 178.488C192.97 178.506 192.918 178.7 192.9 178.717C192.882 178.788 192.812 178.823 192.741 178.806C192.671 178.788 192.635 178.717 192.653 178.647C192.653 178.647 192.759 178.259 193.253 178.224C195.687 178.012 197.451 179.511 197.521 179.564C197.574 179.617 197.574 179.688 197.521 179.758C197.504 179.793 197.451 179.811 197.415 179.811H197.433Z" fill="#1D1D1B"/>
<path d="M185.456 178.56C185.456 178.56 185.35 178.525 185.332 178.472C185.315 178.401 185.332 178.33 185.421 178.295C186.496 177.942 187.608 177.678 189.372 178.242C189.46 178.278 189.53 178.26 189.583 178.242C189.724 178.172 189.795 177.978 189.813 177.907C189.83 177.837 189.901 177.801 189.971 177.819C190.042 177.837 190.077 177.907 190.06 177.978C190.06 178.013 189.954 178.348 189.707 178.489C189.583 178.56 189.425 178.577 189.283 178.525C187.449 177.925 186.32 178.295 185.491 178.577H185.456V178.56Z" fill="#1D1D1B"/>
<path d="M182.88 181.574C182.88 181.574 182.792 181.538 182.757 181.503L181.628 179.193C181.628 179.193 181.628 179.051 181.681 179.016C181.751 178.981 181.822 179.016 181.857 179.069L182.986 181.38C182.986 181.38 182.986 181.521 182.933 181.556C182.916 181.556 182.898 181.556 182.88 181.556V181.574Z" fill="#1D1D1B"/>
<path d="M197.997 182.525C197.997 182.525 197.962 182.525 197.944 182.525C197.909 182.489 197.891 182.436 197.926 182.401L199.091 180.62C199.091 180.62 199.179 180.567 199.214 180.602C199.249 180.637 199.267 180.69 199.232 180.725L198.068 182.507C198.068 182.507 198.015 182.542 197.997 182.542V182.525Z" fill="#1D1D1B"/>
<path d="M212.708 189.687C215.989 192.209 242.429 223.324 242.429 223.324C242.694 224.752 226.766 227.628 217.647 221.719C208.527 215.81 211.332 202.951 201.137 192.879C201.137 192.879 209.004 186.829 212.708 189.687Z" fill="#DD8E8E"/>
<mask id="mask28_2503_10323" style="mask-type:luminance" maskUnits="userSpaceOnUse" x="201" y="188" width="42" height="38">
<path d="M212.708 189.687C215.989 192.209 242.429 223.324 242.429 223.324C242.694 224.752 226.766 227.628 217.647 221.719C208.527 215.81 211.332 202.951 201.137 192.879C201.137 192.879 209.004 186.829 212.708 189.687Z" fill="white"/>
</mask>
<g mask="url(#mask28_2503_10323)">
<path d="M216.5 186.123C216.959 190.445 208.51 198.17 199.743 199.246C205.546 211.735 213.113 221.189 223.344 229.92C235.709 225.581 248.55 226.533 242.429 214.469L216.5 186.141V186.123Z" fill="#7D5482"/>
</g>
</g>
<path d="M120.209 227.525H249.042C292.504 241.478 280.863 333.323 259.767 341.772C245.656 347.416 184.149 348.51 120.209 347.98V227.525Z" fill="#292856"/>
<path d="M162.754 221.052L161.325 196.217C161.325 196.217 143.051 210.91 142.998 211.227C142.945 211.563 138.13 221.052 138.13 221.052H162.754Z" fill="#7D5482"/>
<path d="M161.996 212.197C161.996 212.197 164.977 211.685 165.612 209.462C166.229 207.222 159.721 202.76 159.721 202.76L161.996 212.197Z" fill="#DD8E8E"/>
<path d="M173.707 255.923C164.57 255.923 155.962 253.33 149.471 248.603C146.243 246.257 143.704 243.506 141.904 240.436C140.017 237.191 139.047 233.734 139.047 230.153C139.047 226.572 139.999 223.115 141.904 219.87C143.686 216.8 146.243 214.049 149.471 211.703C155.98 206.976 164.588 204.383 173.707 204.383C182.826 204.383 191.452 206.976 197.943 211.703C201.171 214.049 203.711 216.8 205.51 219.87C207.397 223.115 208.367 226.572 208.367 230.153C208.367 233.734 207.415 237.191 205.51 240.436C203.728 243.506 201.171 246.257 197.943 248.603C191.434 253.33 182.826 255.923 173.707 255.923ZM173.707 208.81C165.505 208.81 157.815 211.103 152.064 215.284C146.526 219.305 143.474 224.579 143.474 230.153C143.474 235.727 146.526 241.001 152.064 245.023C157.815 249.203 165.505 251.496 173.707 251.496C181.909 251.496 189.6 249.203 195.35 245.023C200.888 241.001 203.94 235.727 203.94 230.153C203.94 224.579 200.888 219.305 195.35 215.284C189.6 211.103 181.909 208.81 173.707 208.81Z" fill="#292856"/>
<path d="M197.291 277.409H196.162C172.191 277.039 147.426 276.651 123.014 276.457C122.679 276.457 122.396 276.175 122.396 275.84C122.396 275.505 122.679 275.222 123.014 275.222C147.444 275.416 172.226 275.804 196.179 276.175H197.255C202.353 275.575 207.415 273.917 212.319 272.33C213.501 271.941 214.735 271.553 215.935 271.165C218.351 270.407 220.627 269.543 223.026 268.625C223.678 268.378 224.348 268.132 225.019 267.867C226.201 267.426 227.382 266.967 228.529 266.544C238.001 262.981 246.944 259.594 255.499 253.615C255.869 253.244 256.38 252.715 256.733 252.221C257.351 251.145 257.439 249.84 257.051 248.235C255.11 240.686 250.807 234.494 246.556 228.797C246.344 228.515 246.415 228.127 246.679 227.933C246.961 227.721 247.349 227.792 247.543 228.056C251.865 233.859 256.239 240.156 258.233 247.935C258.709 249.84 258.55 251.498 257.774 252.856C257.774 252.856 257.774 252.874 257.756 252.892C257.333 253.527 256.733 254.126 256.328 254.532C256.31 254.55 256.275 254.585 256.239 254.603C247.543 260.688 238.512 264.092 228.952 267.708C227.806 268.149 226.624 268.59 225.442 269.031C224.772 269.278 224.102 269.543 223.449 269.79C221.015 270.707 218.739 271.589 216.288 272.347C215.088 272.718 213.871 273.123 212.689 273.494C207.715 275.099 202.582 276.775 197.361 277.409C197.344 277.409 197.308 277.409 197.291 277.409Z" fill="#1D1D1B"/>
<path d="M257.103 265.467C250.559 265.467 209.531 277.161 204.786 282.488C200.024 287.797 189.617 305.895 190.816 309.458C191.998 313.021 243.433 301.697 250.276 294.729C257.12 287.762 263.647 265.467 257.12 265.467H257.103Z" fill="#EDAA85"/>
<path d="M220.563 300.454C226.027 300.376 230.395 295.884 230.317 290.419C230.24 284.955 225.748 280.588 220.283 280.665C214.819 280.742 210.451 285.235 210.529 290.699C210.606 296.164 215.098 300.531 220.563 300.454Z" fill="#FCE5D4"/>
<path d="M197.749 300.461C197.749 303.265 200.024 305.541 202.829 305.541C205.634 305.541 207.909 303.265 207.909 300.461C207.909 297.656 205.634 295.381 202.829 295.381C200.024 295.381 197.749 297.656 197.749 300.461Z" fill="#EDAA85"/>
<path d="M240.7 294.093C245.561 294.093 249.502 289.663 249.502 284.198C249.502 278.733 245.561 274.303 240.7 274.303C235.839 274.303 231.898 278.733 231.898 284.198C231.898 289.663 235.839 294.093 240.7 294.093Z" fill="#FCE5D4"/>
<path d="M120.209 291.114H126.965C128.482 291.114 129.875 290.356 130.545 289.174L135.308 280.566H192.74L164.8 315.491L120.209 315.315V291.114Z" fill="#292856"/>
<path d="M120.209 293.762H189.141C187.554 295.332 185.896 296.954 184.238 298.577H120.209V293.762Z" fill="#17173A"/>
<path d="M194.557 286.299C193.093 287.675 191.346 289.315 189.424 291.114H135.484L139.488 286.299H194.557Z" fill="#17173A"/>
<path d="M195.173 272.507L193.956 272.277C194.697 268.22 196.796 263.617 200.2 258.625C202.899 254.656 206.427 250.405 210.678 246.013C217.892 238.534 224.824 233.137 224.894 233.084L225.653 234.054C225.653 234.054 218.721 239.469 211.56 246.878C202.14 256.632 196.478 265.486 195.191 272.489L195.173 272.507Z" fill="#1D1D1B"/>
<path d="M246.962 202.48C249.731 200.893 267.458 209.977 270.139 212.164C273.526 214.915 279.241 221.512 276.066 225.075C272.891 228.638 245.357 224.617 245.357 224.617L241.882 228.409C241.882 228.409 244.193 204.068 246.962 202.48Z" fill="#292856"/>
<path d="M84.2252 197.824H53.6925C50.1471 197.824 47.6247 194.385 48.683 190.998L51.6287 181.649C52.3166 179.462 54.3451 177.963 56.6381 177.963H81.2971C83.5901 177.963 85.6186 179.445 86.3065 181.649L89.2522 190.998C90.3105 194.385 87.7882 197.824 84.2428 197.824H84.2252Z" fill="#3D3766"/>
<mask id="mask29_2503_10323" style="mask-type:luminance" maskUnits="userSpaceOnUse" x="48" y="177" width="42" height="21">
<path d="M84.2252 197.824H53.6925C50.1471 197.824 47.6247 194.385 48.683 190.998L51.6287 181.649C52.3166 179.462 54.3451 177.963 56.6381 177.963H81.2971C83.5901 177.963 85.6186 179.445 86.3065 181.649L89.2522 190.998C90.3105 194.385 87.7882 197.824 84.2428 197.824H84.2252Z" fill="white"/>
</mask>
<g mask="url(#mask29_2503_10323)">
<path d="M45.8422 181.314C45.8422 181.314 56.3196 196.166 72.071 194.314C87.8224 192.462 95.2307 191.316 95.2307 191.316L97.365 204.968L36.917 199.5L45.8422 181.314Z" fill="#2D2A56"/>
</g>
<path d="M160.25 205.496C160.25 205.496 159.385 210.488 159.033 215.127C158.856 217.438 161.555 218.849 159.227 220.083C157.392 221.089 154.799 219.554 154.411 218.707C151.377 216.485 148.943 202.815 152.789 203.062C159.985 203.521 160.25 205.496 160.25 205.496Z" fill="#DD8E8E"/>
<path d="M162.242 205.778C161.872 205.937 161.925 205.496 161.748 206.519C161.748 206.519 163.565 215.779 161.29 216.979C159.738 217.931 158.274 216.979 156.898 213.821C155.91 211.564 155.169 206.554 156.439 203.979C156.933 202.956 158.097 202.003 159.12 202.356C161.06 203.026 162.26 205.76 162.26 205.76L162.242 205.778Z" fill="#DD8E8E"/>
<path d="M155.981 206.094C155.981 206.094 155.117 211.086 154.764 215.725C154.588 218.035 157.286 219.552 154.958 220.787C153.124 221.792 150.531 220.152 150.143 219.305C147.109 217.083 145.645 205.917 149.472 206.376C153.3 206.835 155.981 206.094 155.981 206.094Z" fill="#DD8E8E"/>
<path d="M153.353 207.49C153.353 207.49 151.042 210.471 150.69 215.11C150.513 217.421 153.088 218.938 150.76 220.173C148.926 221.178 146.297 218.021 145.909 217.174C144.163 214.034 141.323 209.977 144.075 209.095C147.832 207.896 153.353 207.49 153.353 207.49Z" fill="#DD8E8E"/>
<path d="M159.333 217.118C159.333 217.118 159.245 217.1 159.21 217.047C159.157 216.959 158.011 214.842 157.658 213.854C157.27 212.778 156.741 210.75 156.547 209.092C156.353 207.399 156.088 204.682 156.07 204.647C156.07 204.576 156.123 204.506 156.194 204.506C156.264 204.506 156.335 204.559 156.335 204.629C156.335 204.665 156.599 207.363 156.811 209.057C157.005 210.803 157.57 212.849 157.905 213.749C158.258 214.701 159.422 216.871 159.439 216.906C159.475 216.976 159.439 217.047 159.386 217.082C159.369 217.082 159.351 217.082 159.316 217.082L159.333 217.118Z" fill="#1D1D1B"/>
<path d="M155.187 219.87C155.187 219.87 155.099 219.852 155.063 219.799C155.046 219.764 153.07 216.342 152.418 214.984C151.765 213.608 150.865 206.994 150.83 206.711C150.83 206.641 150.865 206.57 150.936 206.57C151.006 206.57 151.077 206.606 151.077 206.676C151.077 206.747 152.012 213.538 152.647 214.878C153.282 216.219 155.257 219.641 155.275 219.676C155.31 219.746 155.275 219.817 155.222 219.852C155.204 219.852 155.187 219.87 155.152 219.87H155.187Z" fill="#1D1D1B"/>
<path d="M150.761 220.294C150.761 220.294 150.673 220.276 150.655 220.223C150.567 220.1 148.679 217.013 148.221 216.043C147.78 215.055 147.074 209.693 147.057 209.463C147.057 209.393 147.092 209.322 147.18 209.322C147.251 209.322 147.321 209.358 147.321 209.446C147.321 209.499 148.027 215.002 148.468 215.954C148.909 216.907 150.867 220.064 150.884 220.1C150.92 220.17 150.902 220.241 150.849 220.276C150.831 220.276 150.796 220.294 150.778 220.294H150.761Z" fill="#1D1D1B"/>
<path d="M216.886 221.123C216.886 221.123 216.798 221.087 216.763 221.052L206.444 200.556C206.444 200.556 206.444 200.415 206.497 200.379C206.568 200.344 206.638 200.379 206.674 200.432L216.992 220.929C216.992 220.929 216.992 221.07 216.939 221.105C216.922 221.105 216.904 221.105 216.886 221.105V221.123Z" fill="#1D1D1B"/>
<path d="M197.749 182.355C199.69 184.983 206.357 194.032 206.357 194.032L213.413 190.275C213.413 190.275 202.847 181.808 200.907 178.845C200.466 178.157 198.402 178.545 198.032 177.945C195.121 174.735 194.857 174.382 193.922 173.377C191.982 175.211 195.615 179.48 197.767 182.373L197.749 182.355Z" fill="#DD8E8E"/>
<path d="M205.333 186.149C205.333 186.149 200.271 177.753 197.237 172.796C196.09 171.526 194.08 169.815 193.639 169.604C193.198 170.027 193.145 172.355 196.461 175.795C198.119 179.464 197.184 181.227 197.184 181.227L205.333 186.131V186.149Z" fill="#DD8E8E"/>
<path d="M204.7 185.39C204.7 185.39 201.26 176.765 200.361 174.771C199.355 172.514 197.574 168.298 197.239 167.839C196.233 166.446 196.304 169.48 196.815 170.962C197.327 172.443 197.979 174.225 198.015 175.16C198.138 178.493 200.149 181.227 199.955 182.885L204.7 185.39Z" fill="#DD8E8E"/>
<path d="M200.36 180.662C200.36 180.662 200.307 180.662 200.29 180.662C198.596 179.709 196.727 176.764 196.638 176.64C196.603 176.57 196.621 176.499 196.674 176.464C196.744 176.428 196.815 176.446 196.85 176.499C196.868 176.534 198.773 179.515 200.396 180.432C200.466 180.468 200.484 180.556 200.448 180.609C200.431 180.644 200.378 180.679 200.325 180.679L200.36 180.662Z" fill="#1D1D1B"/>
<path d="M202.53 180.784C202.53 180.784 202.442 180.766 202.424 180.731L197.697 173.975C197.697 173.975 197.662 173.834 197.733 173.799C197.785 173.763 197.874 173.763 197.909 173.834L202.636 180.589C202.636 180.589 202.671 180.731 202.601 180.766C202.583 180.766 202.548 180.784 202.53 180.784Z" fill="#1D1D1B"/>
<path d="M205.633 191.352C205.069 191.352 203.34 191.229 202.581 189.765C201.276 188.036 197.255 182.092 197.219 182.021L194.203 177.347C194.203 177.347 194.185 177.206 194.238 177.171C194.291 177.135 194.379 177.153 194.415 177.206L197.413 181.88C197.413 181.88 201.488 187.913 202.775 189.606C203.604 191.211 205.756 191.07 205.774 191.07C205.845 191.07 205.915 191.123 205.915 191.194C205.915 191.264 205.862 191.335 205.792 191.335C205.792 191.335 205.703 191.335 205.598 191.335L205.633 191.352Z" fill="#1D1D1B"/>
<path d="M192.369 169.636L202.088 170.959L200.765 167.379L194.592 165.756L192.369 169.636Z" fill="#292856"/>
<path d="M182.562 208.105L174.007 226.979C174.007 226.979 179.845 227.896 179.986 226.979C180.127 226.062 187.183 209.746 187.183 209.746L182.562 208.123V208.105Z" fill="#292856"/>
<path d="M191.417 191.772H191.311C191.24 191.772 191.188 191.701 191.188 191.631C191.188 191.56 191.258 191.507 191.329 191.507C191.329 191.507 191.911 191.543 192.687 191.278C193.428 191.014 194.168 190.29 194.239 190.22C195.491 188.579 196.25 186.622 197.22 182.494C197.22 182.423 197.308 182.371 197.379 182.388C197.449 182.388 197.502 182.476 197.485 182.547C196.497 186.727 195.738 188.703 194.451 190.379C194.415 190.431 193.622 191.225 192.775 191.525C192.14 191.754 191.646 191.772 191.417 191.772Z" fill="#1D1D1B"/>
<path d="M196.462 192.885C196.462 192.885 196.426 192.885 196.409 192.885L193.587 191.456C193.587 191.456 193.498 191.35 193.534 191.28C193.569 191.209 193.64 191.191 193.71 191.227L196.532 192.655C196.532 192.655 196.62 192.761 196.585 192.832C196.568 192.885 196.515 192.902 196.462 192.902V192.885Z" fill="#1D1D1B"/>
<path d="M192.528 200.839C189.142 200.839 186.372 199.869 184.503 198.952C181.998 197.717 180.534 196.324 180.516 196.306C180.463 196.253 180.463 196.165 180.516 196.112C180.569 196.059 180.657 196.059 180.71 196.112C180.71 196.112 182.157 197.505 184.644 198.722C186.919 199.834 190.588 201.033 195.051 200.398C195.121 200.398 195.192 200.433 195.209 200.504C195.209 200.575 195.174 200.645 195.104 200.663C194.222 200.786 193.375 200.839 192.564 200.839H192.528Z" fill="#1D1D1B"/>
</g>
</g>
<defs>
<linearGradient id="paint0_linear_2503_10323" x1="158.291" y1="-58.7885" x2="197.15" y2="316.652" gradientUnits="userSpaceOnUse">
<stop offset="0.16" stop-color="#F2B083"/>
<stop offset="0.55" stop-color="#FCD6BE"/>
</linearGradient>
</defs>
</svg>
