<svg width="297" height="296" viewBox="0 0 297 296" fill="none" xmlns="http://www.w3.org/2000/svg">
<mask id="mask0_2503_10569" style="mask-type:luminance" maskUnits="userSpaceOnUse" x="0" y="0" width="297" height="297">
<path d="M296.59 148.155C296.59 66.3313 230.196 0 148.295 0C66.3939 0 0 66.3313 0 148.155C0 229.979 66.3939 296.31 148.295 296.31C230.196 296.31 296.59 229.979 296.59 148.155Z" fill="white"/>
</mask>
<g mask="url(#mask0_2503_10569)">
<path d="M296.59 148.155C296.59 66.3313 230.196 0 148.295 0C66.3939 0 0 66.3313 0 148.155C0 229.979 66.3939 296.31 148.295 296.31C230.196 296.31 296.59 229.979 296.59 148.155Z" fill="#6590CF"/>
<mask id="mask1_2503_10569" style="mask-type:luminance" maskUnits="userSpaceOnUse" x="0" y="0" width="297" height="297">
<path d="M296.59 0H0V296.31H296.59V0Z" fill="white"/>
</mask>
<g mask="url(#mask1_2503_10569)">
<path d="M157.169 279.011C147.624 271.586 133.963 269.837 122.853 274.632C119.656 276.013 116.524 277.915 113.048 277.974C109.566 278.027 105.728 275.147 106.434 271.746C106.974 269.126 109.815 267.663 112.449 267.183C115.082 266.708 117.876 266.827 120.297 265.689C125.232 263.372 126.519 256.314 123.832 251.579C121.145 246.838 115.646 244.296 110.242 243.596C104.838 242.897 99.3691 243.733 93.9356 244.153C88.5021 244.574 82.8254 244.533 77.8842 242.227C68.4526 228.609 55.723 216.715 41.6646 207.938C24.7946 197.402 2.69864 195.73 -15.5713 203.612C-13.4833 237.955 -12.0953 273.601 -10.0073 307.943L169.833 311.185C171.761 299.249 166.725 286.443 157.174 279.017L157.169 279.011Z" fill="white"/>
<path d="M301.946 127.438C269.262 129.844 236.578 132.25 203.893 134.656C198.329 135.065 192.676 135.491 187.445 137.423C182.213 139.355 177.355 143.029 175.308 148.215C173.262 153.4 174.745 160.126 179.52 163.012C182.96 165.093 187.237 164.909 191.229 165.407C195.221 165.904 199.676 167.682 200.809 171.54C202.025 175.689 198.472 179.979 194.367 181.348C190.262 182.717 185.801 182.047 181.477 181.745C166.434 180.69 150.513 184.768 139.723 195.293C128.933 205.812 124.591 223.365 131.709 236.646C136.425 245.446 145.358 251.402 154.843 254.537C164.328 257.672 174.442 258.3 184.425 258.727C206.497 259.675 228.605 259.775 250.683 259.035C271.16 258.347 291.631 261.559 312.012 259.432L301.952 127.443L301.946 127.438Z" fill="white"/>
<path d="M54.7237 20.3326C51.5798 18.851 48.0207 18.5606 44.5506 18.288C27.0637 16.9309 9.57678 15.5798 -7.91016 14.2227L-7.42375 44.9559C9.92675 43.0477 27.2713 41.1395 44.6218 39.2312C48.1928 38.8401 51.8645 38.4134 55.044 36.7422C58.2234 35.0651 60.8453 31.8235 60.7029 28.2381C60.5606 24.7654 57.8675 21.8141 54.7177 20.3266L54.7237 20.3326Z" fill="white"/>
<path d="M303.814 -4.81829L161.196 -2.57226C155.489 -1.41073 152.263 5.50515 153.775 11.1232C155.288 16.7412 160.395 20.8244 165.906 22.6971C171.416 24.5697 177.36 24.5994 183.185 24.6053C196.081 24.6231 208.976 24.6468 221.872 24.6645C224.737 24.6645 227.668 24.6823 230.355 25.6779C233.042 26.6676 235.474 28.8544 235.925 31.6752C236.441 34.8813 234.24 38.0459 231.387 39.5927C228.528 41.1335 225.158 41.3646 221.908 41.3349C217.417 41.2935 212.915 40.8134 208.449 41.2816C203.982 41.7557 199.426 43.3143 196.437 46.6567C193.441 49.9991 192.498 55.3978 195.126 59.0365C197.872 62.8352 203.163 63.5167 207.838 63.8664C239.81 66.2842 271.782 68.7021 303.755 71.1141C303.428 45.7026 304.134 20.5933 303.814 -4.82422V-4.81829Z" fill="white"/>
<path d="M63.5023 124.84C62.3278 121.042 59.0594 118.179 55.4292 116.556C51.7989 114.932 47.8009 114.369 43.8622 113.818C26.9447 111.471 10.0272 109.118 -6.89028 106.771L-13.3975 178.253C-0.50174 178.253 12.394 176.096 24.5898 171.906C28.1904 170.674 31.9096 169.127 34.223 166.105C36.5305 163.082 36.7618 158.163 33.7425 155.846C29.7623 152.788 22.5018 155.497 19.9214 151.194C18.302 148.504 20.1706 144.806 22.9704 143.366C25.7643 141.926 29.0861 142.127 32.218 142.418C39.3303 143.069 46.7391 143.947 53.4123 141.416C60.0915 138.891 65.6081 131.644 63.5083 124.829L63.5023 124.84Z" fill="white"/>
<path d="M24.2275 69.5671C25.3248 71.4043 27.401 72.4769 29.5068 72.8502C31.6125 73.2236 33.7717 72.9925 35.8953 72.7554C41.2992 72.1628 46.6971 71.5702 52.101 70.9716C55.7075 70.5746 59.9725 69.7094 61.3546 66.3551C67.6007 51.2078 14.8611 53.8686 24.2275 69.5612V69.5671Z" fill="white"/>
<path d="M101.448 168.742C101.395 170.348 102.676 171.758 104.165 172.375C105.654 172.991 107.314 172.985 108.922 172.967C113.917 172.92 118.911 172.867 123.912 172.819C126.278 172.795 129.037 172.57 130.336 170.591C134.915 163.61 121.58 162.816 117.938 162.934C113.97 163.059 101.62 163.367 101.448 168.742Z" fill="white"/>
</g>
<path d="M206.424 33.7809C206.752 33.7809 207.017 33.5156 207.017 33.1883C207.017 32.861 206.752 32.5957 206.424 32.5957C206.097 32.5957 205.831 32.861 205.831 33.1883C205.831 33.5156 206.097 33.7809 206.424 33.7809Z" fill="#F5655C"/>
<path d="M279.984 104.597C280.311 104.597 280.577 104.332 280.577 104.005C280.577 103.677 280.311 103.412 279.984 103.412C279.656 103.412 279.391 103.677 279.391 104.005C279.391 104.332 279.656 104.597 279.984 104.597Z" fill="#F5655C"/>
<path d="M146.514 175.119C146.842 175.119 147.107 174.854 147.107 174.526C147.107 174.199 146.842 173.934 146.514 173.934C146.186 173.934 145.921 174.199 145.921 174.526C145.921 174.854 146.186 175.119 146.514 175.119Z" fill="#F2AA31"/>
<path d="M43.6 83.2634C43.9276 83.2634 44.1932 82.998 44.1932 82.6707C44.1932 82.3434 43.9276 82.0781 43.6 82.0781C43.2724 82.0781 43.0068 82.3434 43.0068 82.6707C43.0068 82.998 43.2724 83.2634 43.6 83.2634Z" fill="#F2AA31"/>
<path d="M27.5815 131.265C27.9091 131.265 28.1746 131 28.1746 130.673C28.1746 130.345 27.9091 130.08 27.5815 130.08C27.2539 130.08 26.9883 130.345 26.9883 130.673C26.9883 131 27.2539 131.265 27.5815 131.265Z" fill="#F5655C"/>
<path d="M50.4194 149.933C50.747 149.933 51.0125 149.668 51.0125 149.341C51.0125 149.013 50.747 148.748 50.4194 148.748C50.0917 148.748 49.8262 149.013 49.8262 149.341C49.8262 149.668 50.0917 149.933 50.4194 149.933Z" fill="#F2AA31"/>
<path d="M278.496 169.787C278.824 169.787 279.09 169.521 279.09 169.194C279.09 168.867 278.824 168.602 278.496 168.602C278.169 168.602 277.903 168.867 277.903 169.194C277.903 169.521 278.169 169.787 278.496 169.787Z" fill="#F5655C"/>
<path d="M131.685 284.459C132.013 284.459 132.278 284.193 132.278 283.866C132.278 283.539 132.013 283.273 131.685 283.273C131.357 283.273 131.092 283.539 131.092 283.866C131.092 284.193 131.357 284.459 131.685 284.459Z" fill="#F2AA31"/>
<path d="M266.633 41.779C266.961 41.779 267.226 41.5137 267.226 41.1864C267.226 40.8591 266.961 40.5938 266.633 40.5938C266.306 40.5938 266.04 40.8591 266.04 41.1864C266.04 41.5137 266.306 41.779 266.633 41.779Z" fill="#F2AA31"/>
<path d="M253.287 49.7809C253.614 49.7809 253.88 49.5156 253.88 49.1883C253.88 48.861 253.614 48.5957 253.287 48.5957C252.959 48.5957 252.693 48.861 252.693 49.1883C252.693 49.5156 252.959 49.7809 253.287 49.7809Z" fill="#F5655C"/>
<path d="M21.3623 87.3213C18.7997 84.3819 16.2372 89.8755 21.3623 91.2623C26.4874 89.8755 23.9248 84.3819 21.3623 87.3213Z" fill="#F5655C"/>
<path d="M266.936 84.1163C264.373 81.1769 261.81 86.6704 266.936 88.0572C272.061 86.6704 269.498 81.1769 266.936 84.1163Z" fill="#F2AA31"/>
<path d="M155.407 262.792C152.845 259.853 150.282 265.346 155.407 266.733C160.532 265.346 157.97 259.853 155.407 262.792Z" fill="#F5655C"/>
<path d="M131.092 16.5934L135.398 12.2969" stroke="#561717" stroke-linecap="round" stroke-linejoin="round"/>
<path d="M131.092 12.2969L135.398 16.5934" stroke="#561717" stroke-linecap="round" stroke-linejoin="round"/>
<path d="M260.256 148.896L264.556 144.6" stroke="#561717" stroke-linecap="round" stroke-linejoin="round"/>
<path d="M260.256 144.6L264.556 148.896" stroke="#561717" stroke-linecap="round" stroke-linejoin="round"/>
<path d="M108.108 189.935L112.409 185.639" stroke="#561717" stroke-linecap="round" stroke-linejoin="round"/>
<path d="M108.108 185.639L112.409 189.935" stroke="#561717" stroke-linecap="round" stroke-linejoin="round"/>
<mask id="mask2_2503_10569" style="mask-type:luminance" maskUnits="userSpaceOnUse" x="0" y="144" width="297" height="153">
<path d="M296.59 144.148H0V296.31H296.59V144.148Z" fill="white"/>
</mask>
<g mask="url(#mask2_2503_10569)">
<path d="M125.06 188.463C126.347 192.368 127.634 196.274 128.921 200.179" stroke="#270504" stroke-linecap="round" stroke-linejoin="round"/>
<path d="M133.945 187.865C133.423 191.664 132.895 195.463 132.373 199.261" stroke="#270504" stroke-linecap="round" stroke-linejoin="round"/>
<path d="M83.2638 248.016C82.113 231.778 80.6657 224.69 71.0858 205.288L76.4244 201.501L68.3572 197.785L68.2208 200.268L57.9766 202.686L60.7942 249.266L64.638 302.08L87.2974 300.972C87.2974 300.972 84.5095 265.605 83.2579 248.016H83.2638Z" fill="#C5CEEB"/>
<path d="M68.2056 273.487L70.0089 309.737L-13.665 297.417L6.37256 263.939L68.2056 273.487Z" fill="#3C5BBF"/>
<path d="M52.9717 276.277C58.0671 276.491 63.1566 276.698 68.252 276.911" stroke="#270504" stroke-linecap="round" stroke-linejoin="round"/>
<path d="M68.2036 273.486L38.8115 271.365L47.4601 240.939L72.6524 244.086L68.2036 273.486Z" fill="white"/>
<path d="M78.6226 164.528C79.9751 164.819 81.3275 165.103 82.674 165.394C83.3087 163.859 83.9494 162.324 84.5841 160.783C79.7793 158.774 74.7017 157.103 69.4876 157.174C64.2795 157.245 58.8757 159.313 55.8327 163.539C53.2049 167.195 52.6651 172.244 54.4624 176.369L76.0245 181.4C77.9938 176.653 79.9573 171.918 81.9207 167.177C80.7225 166.419 79.6073 165.53 78.6108 164.523L78.6226 164.528Z" fill="#DD2120"/>
<path d="M56.0566 163.798C57.8718 160.723 60.9207 158.482 64.29 157.285C67.6533 156.088 71.3191 155.893 74.8664 156.319C78.4136 156.746 81.8599 157.777 85.2233 158.986" stroke="#DD2120" stroke-linecap="round" stroke-linejoin="round"/>
<path d="M54.3896 162.566C54.971 162.91 55.5582 163.26 56.1395 163.603" stroke="#DD2120" stroke-linecap="round" stroke-linejoin="round"/>
<path d="M77.228 177.779C76.872 176.28 76.5161 174.78 76.1602 173.287C75.9289 172.321 75.6916 171.331 75.1459 170.502C74.6002 169.672 73.6629 168.931 72.6664 168.979C69.6412 169.127 66.7761 169.162 63.7509 169.311C62.9264 171.509 62.1849 173.631 61.3604 175.829C60.2512 174.152 57.9971 173.329 56.0692 173.897C54.1414 174.466 52.694 176.381 52.6763 178.39C52.6585 180.399 54.0643 182.342 55.9803 182.947C54.8769 185.193 53.6609 187.528 52.5576 189.774L65.6016 194.924C66.3965 192.879 67.2507 190.704 68.0455 188.66C70.8513 188.583 73.746 187.652 75.656 185.596C77.5661 183.539 77.8804 180.523 77.228 177.791V177.779Z" fill="#FF9A7D"/>
<path d="M68.7983 178.088C69.1259 178.088 69.3914 177.822 69.3914 177.495C69.3914 177.168 69.1259 176.902 68.7983 176.902C68.4707 176.902 68.2051 177.168 68.2051 177.495C68.2051 177.822 68.4707 178.088 68.7983 178.088Z" fill="#270504"/>
<path d="M76.0473 177.357C76.3749 177.357 76.6405 177.092 76.6405 176.764C76.6405 176.437 76.3749 176.172 76.0473 176.172C75.7197 176.172 75.4541 176.437 75.4541 176.764C75.4541 177.092 75.7197 177.357 76.0473 177.357Z" fill="#270504"/>
<path d="M72.9419 176.891C73.2563 177.631 73.5707 178.378 73.8851 179.119C73.5054 179.178 73.1199 179.237 72.7402 179.303" stroke="#270504" stroke-linecap="round" stroke-linejoin="round"/>
<path d="M66.9043 173.347C67.0823 172.565 67.7585 171.919 68.5533 171.776C69.3482 171.634 70.2024 172.002 70.6473 172.671" stroke="#270504" stroke-linecap="round" stroke-linejoin="round"/>
<path d="M74.5703 171.954C75.1754 171.882 75.7804 171.811 76.3854 171.74" stroke="#270504" stroke-linecap="round" stroke-linejoin="round"/>
<path d="M70.0782 180.471C70.0723 180.886 70.3689 181.283 70.7722 181.389C71.1697 181.496 71.6323 181.306 71.834 180.951" stroke="#270504" stroke-linecap="round" stroke-linejoin="round"/>
<path d="M63.7588 187.291C65.4138 188.192 67.3119 188.648 69.1982 188.607" stroke="#270504" stroke-linecap="round" stroke-linejoin="round"/>
<path d="M56.1562 176.139C56.874 176.814 57.5917 177.49 58.3095 178.171" stroke="#270504" stroke-linecap="round" stroke-linejoin="round"/>
<path d="M55.7314 183.035C56.3602 183.112 56.9831 183.189 57.6118 183.266" stroke="#270504" stroke-linecap="round" stroke-linejoin="round"/>
<path d="M66.7529 169.27C68.5859 169.518 70.4247 169.767 72.2576 170.016" stroke="#270504" stroke-linecap="round" stroke-linejoin="round"/>
<path d="M49.138 190.052L51.6175 186.461L73.9388 196.749L63.5878 207.766L50.182 301.364L-5.67773 285.067C-5.67773 285.067 18.7494 224.003 27.1548 210.053C35.5601 196.103 42.3224 191.64 49.1439 190.052H49.138Z" fill="#C5CEEB"/>
<mask id="mask3_2503_10569" style="mask-type:luminance" maskUnits="userSpaceOnUse" x="-6" y="186" width="80" height="116">
<path d="M49.138 190.052L51.6175 186.461L73.9388 196.749L63.5878 207.766L50.182 301.364L-5.67773 285.067C-5.67773 285.067 18.7494 224.003 27.1548 210.053C35.5601 196.103 42.3224 191.64 49.1439 190.052H49.138Z" fill="white"/>
</mask>
<g mask="url(#mask3_2503_10569)">
<path d="M38.8882 304.007L29.8897 301.601L55.871 210.764L51.6713 210.047L27.4695 302.336L16.4067 295.876L49.8739 196.47L47.608 195.842L10.1487 298.306H1.32219L42.7795 190.787L37.4053 191.901L0.835779 291.076L-0.831055 290.46L36.0766 190.36L45.609 188.381L3.91438 296.528H8.90302L46.5047 193.685L52.1577 195.267L18.56 295.07L26.3425 299.616L50.3603 208.02L58.131 209.342L32.0963 300.35L37.6307 301.826L62.7281 207.534L64.4602 207.937L45.4903 303.64L43.7405 303.296L57.348 234.664L38.8882 304.007Z" fill="white"/>
</g>
<path d="M66.5264 204.755C68.3356 203.006 70.1448 201.252 71.948 199.504" stroke="#270504" stroke-linecap="round" stroke-linejoin="round"/>
<path d="M51.5419 259.732C51.5419 259.003 50.9547 258.416 50.2251 258.416C49.4955 258.416 48.9082 259.003 48.9082 259.732C48.9082 260.461 49.4955 261.047 50.2251 261.047C50.9547 261.047 51.5419 260.461 51.5419 259.732Z" stroke="#270504" stroke-linecap="round" stroke-linejoin="round"/>
<path d="M47.8237 272.135C48.551 272.135 49.1406 271.546 49.1406 270.82C49.1406 270.093 48.551 269.504 47.8237 269.504C47.0964 269.504 46.5068 270.093 46.5068 270.82C46.5068 271.546 47.0964 272.135 47.8237 272.135Z" stroke="#270504" stroke-linecap="round" stroke-linejoin="round"/>
<path d="M47.0781 282.335C47.0781 281.606 46.4908 281.02 45.7612 281.02C45.0316 281.02 44.4443 281.606 44.4443 282.335C44.4443 283.064 45.0316 283.651 45.7612 283.651C46.4908 283.651 47.0781 283.064 47.0781 282.335Z" stroke="#270504" stroke-linecap="round" stroke-linejoin="round"/>
<path d="M120.955 225.935C122.272 226.462 123.992 226.397 125.273 225.786C125.944 225.958 126.626 226.124 127.314 226.154C128.008 226.178 128.773 225.964 129.348 225.579C130.286 225.935 131.543 225.692 132.231 224.969C133.032 224.743 133.572 223.76 133.655 222.936C134.118 218.349 134.758 213.727 134.966 209.122C135.061 207.048 133.791 204.956 131.751 204.588C125.433 203.451 119.009 202.028 112.633 201.311C105.176 200.476 97.9514 203.836 92.2628 208.731C85.376 214.657 78.7146 220.725 71.8219 226.652C70.5406 222.183 69.4847 217.703 68.2035 213.235C59.282 215.836 50.6216 217.845 41.7002 220.447C42.6196 230.978 45.7753 241.313 50.9004 250.564C54.2044 256.526 61.1861 259.755 68.0077 259.957C74.8293 260.158 81.6627 256.952 85.8683 251.583C92.6425 242.931 99.9979 234.362 107.175 226.035C111.577 228.062 116.512 227.872 120.949 225.935H120.955Z" fill="#FF9A7D"/>
<path d="M71.7255 226.26C69.94 227.961 68.1545 229.667 66.375 231.368" stroke="#270504" stroke-linecap="round" stroke-linejoin="round"/>
<path d="M112.527 218.692C116.199 217.927 119.871 217.169 123.543 216.404C122.955 217.904 122.232 219.51 121.639 221.009C121.739 220.233 121.639 219.527 121.401 218.781C121.164 218.034 120.488 217.364 119.705 217.4C119.017 219.77 118.287 222.2 117.599 224.571C118.756 224.873 119.948 225.43 121.105 225.738" stroke="#270504" stroke-linecap="round" stroke-linejoin="round"/>
<path d="M125.361 225.852C127.989 220.649 130.623 215.44 133.251 210.236" stroke="#270504" stroke-linecap="round" stroke-linejoin="round"/>
<path d="M129.425 225.834C130.92 220.803 132.414 215.772 133.903 210.74" stroke="#270504" stroke-linecap="round" stroke-linejoin="round"/>
<path d="M132.285 224.577C132.979 220.554 133.679 216.536 134.373 212.512" stroke="#270504" stroke-linecap="round" stroke-linejoin="round"/>
<path d="M63.6775 199.131C61.0853 193.4 54.0917 190.058 47.9939 191.634C41.896 193.211 37.7734 199.522 38.3013 205.792C38.8945 212.803 39.4817 219.813 40.0749 226.83L72.7532 218.824C70.0839 212.038 66.685 205.78 63.6775 199.137V199.131Z" fill="#C5CEEB"/>
<mask id="mask4_2503_10569" style="mask-type:luminance" maskUnits="userSpaceOnUse" x="38" y="191" width="35" height="36">
<path d="M63.6775 199.131C61.0853 193.4 54.0917 190.058 47.9939 191.634C41.896 193.211 37.7734 199.522 38.3013 205.792C38.8945 212.803 39.4817 219.813 40.0749 226.83L72.7532 218.824C70.0839 212.038 66.685 205.78 63.6775 199.137V199.131Z" fill="white"/>
</mask>
<g mask="url(#mask4_2503_10569)">
<path d="M44.6125 228.673C44.1676 228.673 43.782 228.341 43.7286 227.891L39.4696 192.073C39.4222 191.688 39.6298 191.32 39.9797 191.16L43.4202 189.578C43.6634 189.465 43.9481 189.471 44.1854 189.59C44.4286 189.708 44.6006 189.934 44.6599 190.194L52.745 226.463L53.5102 226.06L47.1572 185.21C47.092 184.796 47.3233 184.398 47.7148 184.244L52.3594 182.443C52.6145 182.342 52.8992 182.366 53.1305 182.502C53.3678 182.638 53.522 182.875 53.5635 183.142L59.5547 225.728L64.1281 224.614L55.788 187.978C55.7287 187.729 55.788 187.468 55.9363 187.261C56.0846 187.053 56.3159 186.923 56.571 186.893L58.7183 186.68C59.1513 186.627 59.5428 186.905 59.6614 187.32L70.6827 225.674C70.8191 226.149 70.5463 226.64 70.0717 226.777C69.5972 226.913 69.1049 226.64 68.9684 226.166L58.1548 188.523L57.7455 188.565L66.0559 225.07C66.1627 225.544 65.872 226.018 65.3975 226.131L59.0149 227.683C58.7717 227.743 58.5107 227.695 58.3031 227.553C58.0954 227.411 57.959 227.192 57.9234 226.943L51.956 184.499L49.0257 185.637L55.3668 226.403C55.4261 226.777 55.2363 227.15 54.8982 227.328L52.5373 228.566C52.2941 228.697 52.0035 228.703 51.7484 228.584C51.4993 228.466 51.3154 228.241 51.2561 227.974L43.1592 191.646L41.3085 192.5L45.4904 227.678C45.5497 228.163 45.1997 228.608 44.7133 228.667C44.6777 228.667 44.6421 228.673 44.6065 228.673H44.6125Z" fill="white"/>
</g>
<path d="M39.8984 222.752C50.3384 220.37 60.7843 217.994 71.2243 215.611" stroke="#270504" stroke-linecap="round" stroke-linejoin="round"/>
<path d="M277.149 271.75C276.431 268.639 276.182 265.297 275.458 262.186C251.529 264.165 227.452 266.245 203.523 268.23C199.472 279.455 195.415 290.679 191.363 301.903L276.028 302.916C280.524 293.126 279.575 282.246 277.143 271.75H277.149Z" fill="#DD2120"/>
<path d="M272.798 267.656C275.912 278.395 276.096 289.962 273.32 300.79" stroke="#270504" stroke-linecap="round" stroke-linejoin="round"/>
<path d="M264.48 268.094C266.918 273.605 270.543 278.595 275.039 282.619" stroke="#270504" stroke-linecap="round" stroke-linejoin="round"/>
<path d="M234.595 291.271C234.168 294.804 233.741 298.336 233.313 301.868" stroke="#270504" stroke-linecap="round" stroke-linejoin="round"/>
<path d="M199.158 280.071C201.744 276.308 204.331 272.544 206.917 268.781" stroke="#270504" stroke-linecap="round" stroke-linejoin="round"/>
<path d="M285.911 200.602L304.596 213.936L301.927 245.937L264.557 221.936V208.602L285.911 200.602Z" fill="#C14F4F"/>
<path d="M205.452 218.807C200.042 216.271 194.875 213.414 189.466 210.878C186.945 215.305 184.435 219.412 181.914 223.833C180.099 220.407 178.278 216.97 176.006 213.823C173.734 210.683 170.988 207.82 167.648 205.859C163.502 203.423 158.852 203.008 154.041 203.05C148.518 203.097 143.049 203.583 137.74 205.1C136.222 205.533 135.035 206.943 134.869 208.514C134.359 213.326 133.879 218.203 133.475 223.027C133.386 224.135 134.092 225.214 134.958 225.913C135.824 226.606 136.987 226.914 138.084 226.737C138.084 227.477 138.375 228.194 138.885 228.728C139.401 229.261 140.125 229.587 140.866 229.611C144.592 229.753 148.376 229.972 152.083 229.575C154.343 229.332 156.752 229.664 158.917 228.971C162.369 236.675 165.881 244.154 169.333 251.858C171.629 256.984 175.354 261.375 180.52 263.574C185.693 265.772 191.785 265.695 196.898 263.366C201.216 261.399 204.687 257.997 208.068 254.667L205.458 218.807H205.452Z" fill="#C14F4F"/>
<path d="M137.916 227.519C137.857 226.304 139.067 225.457 140.129 224.858C143.154 223.152 146.179 221.439 149.21 219.732C147.063 218.103 145.105 216.177 142.964 214.547C141.95 216.988 140.532 219.655 139.518 222.091" stroke="#270504" stroke-linecap="round" stroke-linejoin="round"/>
<path d="M140.572 219.928C141.587 219.466 142.595 219.003 143.609 218.547C144.042 218.351 144.475 218.15 144.95 218.097C145.419 218.043 145.935 218.156 146.255 218.505C145.454 219.898 144.742 221.397 143.936 222.79" stroke="#270504" stroke-linecap="round" stroke-linejoin="round"/>
<path d="M158.912 229.184C159.683 228.876 160.448 228.562 161.22 228.254" stroke="#270504" stroke-linecap="round" stroke-linejoin="round"/>
<path d="M181.726 223.068C183.772 226.203 185.813 229.338 187.859 232.479" stroke="#270504" stroke-linecap="round" stroke-linejoin="round"/>
<path d="M288.581 200.601C284.517 198.231 281.332 195.766 277.073 193.774C270.53 190.716 263.281 189.531 256.062 189.265C249.751 189.033 243.339 188.897 237.027 188.666C237.282 190.391 236.274 192.168 234.761 193.051C233.255 193.934 231.351 193.988 229.69 193.448C228.029 192.909 226.718 191.943 225.514 190.675C219.25 192.477 212.986 194.284 206.722 196.086C198.346 198.498 190.694 204.187 187.277 212.199C191.566 214.907 195.825 217.248 200.108 219.962L200.487 269.938L277.897 267.271L272.559 216.602L288.575 200.601H288.581Z" fill="#F2AA31"/>
<path d="M217.771 193.91C218.779 198.746 222.374 202.96 226.989 204.72C231.603 206.48 237.096 205.727 241.071 202.794C245.045 199.86 247.37 194.835 247.044 189.904" stroke="#270504" stroke-linecap="round" stroke-linejoin="round"/>
<path d="M200.017 220.272C199.661 218.363 199.299 216.455 198.943 214.547" stroke="#270504" stroke-linecap="round" stroke-linejoin="round"/>
<path d="M271.387 215.198C275.913 209.687 280.433 204.17 284.959 198.658" stroke="#270504" stroke-linecap="round" stroke-linejoin="round"/>
<path d="M188.928 210.273C192.273 212.324 195.619 214.374 198.964 216.425" stroke="#270504" stroke-linecap="round" stroke-linejoin="round"/>
<path d="M194.479 206.338C194.479 207.126 194.479 207.92 194.479 208.708" stroke="white" stroke-linecap="round" stroke-linejoin="round"/>
<path d="M199.559 204.94C200.395 204.708 201.231 204.477 202.074 204.24" stroke="white" stroke-linecap="round" stroke-linejoin="round"/>
<path d="M203.047 211.08V213.172" stroke="white" stroke-linecap="round" stroke-linejoin="round"/>
<path d="M212.394 208.15C213.135 208.198 213.882 208.245 214.624 208.293" stroke="white" stroke-linecap="round" stroke-linejoin="round"/>
<path d="M208.893 198.527L208.751 200.477" stroke="white" stroke-linecap="round" stroke-linejoin="round"/>
<path d="M215.603 199.565C216.302 199.559 216.997 199.553 217.696 199.547" stroke="white" stroke-linecap="round" stroke-linejoin="round"/>
<path d="M223.002 208.709V211.079" stroke="white" stroke-linecap="round" stroke-linejoin="round"/>
<path d="M214.775 216.52C214.034 216.94 213.286 217.355 212.545 217.776" stroke="white" stroke-linecap="round" stroke-linejoin="round"/>
<path d="M206.093 223.217C206.324 224.005 206.555 224.799 206.787 225.587" stroke="white" stroke-linecap="round" stroke-linejoin="round"/>
<path d="M215.474 225.077C216.452 224.941 217.431 224.81 218.404 224.674" stroke="white" stroke-linecap="round" stroke-linejoin="round"/>
<path d="M208.479 231.992C208.432 232.78 208.384 233.574 208.337 234.363" stroke="white" stroke-linecap="round" stroke-linejoin="round"/>
<path d="M203.182 230.736C202.761 231.157 202.346 231.572 201.925 231.993" stroke="white" stroke-linecap="round" stroke-linejoin="round"/>
<path d="M205.831 241.059C206.389 241.663 206.946 242.268 207.504 242.872" stroke="white" stroke-linecap="round" stroke-linejoin="round"/>
<path d="M218.666 236.017C219.496 235.584 220.327 235.157 221.157 234.725" stroke="white" stroke-linecap="round" stroke-linejoin="round"/>
<path d="M216.831 244.525C216.41 245.314 215.989 246.102 215.562 246.89" stroke="white" stroke-linecap="round" stroke-linejoin="round"/>
<path d="M205.274 249.564C205.506 250.495 205.737 251.425 205.974 252.356" stroke="white" stroke-linecap="round" stroke-linejoin="round"/>
<path d="M214.073 254.797C214.815 254.78 215.562 254.768 216.304 254.75" stroke="white" stroke-linecap="round" stroke-linejoin="round"/>
<path d="M206.296 260.326C206.539 261.162 206.782 261.991 207.025 262.827" stroke="white" stroke-linecap="round" stroke-linejoin="round"/>
<path d="M217.265 262.975L218.807 264.083" stroke="white" stroke-linecap="round" stroke-linejoin="round"/>
<path d="M225.112 257.954C225.901 257.581 226.69 257.207 227.485 256.834" stroke="white" stroke-linecap="round" stroke-linejoin="round"/>
<path d="M228.308 242.174C228.029 242.683 227.75 243.199 227.472 243.709" stroke="white" stroke-linecap="round" stroke-linejoin="round"/>
<path d="M202.605 266.305C202.795 266.814 202.979 267.324 203.169 267.84" stroke="white" stroke-linecap="round" stroke-linejoin="round"/>
<path d="M229.971 264.51C230.683 264.8 231.394 265.091 232.106 265.381" stroke="white" stroke-linecap="round" stroke-linejoin="round"/>
<path d="M234.586 250.82C235.286 250.541 235.98 250.263 236.68 249.984" stroke="white" stroke-linecap="round" stroke-linejoin="round"/>
<path d="M228.13 230.754C228.409 231.406 228.682 232.058 228.96 232.71" stroke="white" stroke-linecap="round" stroke-linejoin="round"/>
<path d="M225.676 219.476C226.417 218.961 227.159 218.445 227.9 217.93" stroke="white" stroke-linecap="round" stroke-linejoin="round"/>
<path d="M236.54 210.658C236.914 211.494 237.282 212.329 237.655 213.171" stroke="white" stroke-linecap="round" stroke-linejoin="round"/>
<path d="M237.795 225.883C238.958 225.907 240.12 225.936 241.283 225.96" stroke="white" stroke-linecap="round" stroke-linejoin="round"/>
<path d="M238.256 239.65C238.44 240.35 238.63 241.043 238.813 241.742" stroke="white" stroke-linecap="round" stroke-linejoin="round"/>
<path d="M243.253 257.712C244 257.575 244.742 257.433 245.489 257.297" stroke="white" stroke-linecap="round" stroke-linejoin="round"/>
<path d="M242.404 262.951V264.901" stroke="white" stroke-linecap="round" stroke-linejoin="round"/>
<path d="M257.89 261.802C258.631 261.659 259.379 261.517 260.12 261.375" stroke="white" stroke-linecap="round" stroke-linejoin="round"/>
<path d="M252.552 244.947C252.32 245.504 252.083 246.061 251.852 246.618" stroke="white" stroke-linecap="round" stroke-linejoin="round"/>
<path d="M260.68 250.085C261.38 249.948 262.074 249.812 262.774 249.676" stroke="white" stroke-linecap="round" stroke-linejoin="round"/>
<path d="M252.453 231.852C251.99 232.829 251.521 233.801 251.059 234.779" stroke="white" stroke-linecap="round" stroke-linejoin="round"/>
<path d="M261.383 236.455C261.757 237.107 262.124 237.759 262.498 238.405" stroke="white" stroke-linecap="round" stroke-linejoin="round"/>
<path d="M268.509 232.319C269.44 232.177 270.371 232.035 271.297 231.893" stroke="white" stroke-linecap="round" stroke-linejoin="round"/>
<path d="M261.941 222.789C261.846 223.625 261.757 224.46 261.662 225.302" stroke="white" stroke-linecap="round" stroke-linejoin="round"/>
<path d="M249.427 219.512C250.073 219.891 250.72 220.27 251.366 220.65" stroke="white" stroke-linecap="round" stroke-linejoin="round"/>
<path d="M250.501 211.215C251.569 210.753 252.642 210.285 253.71 209.822" stroke="white" stroke-linecap="round" stroke-linejoin="round"/>
<path d="M246.183 203.41C245.999 204.198 245.815 204.992 245.631 205.781" stroke="white" stroke-linecap="round" stroke-linejoin="round"/>
<path d="M251.479 193.673L253.715 193.537" stroke="white" stroke-linecap="round" stroke-linejoin="round"/>
<path d="M251.475 198.527C251.428 199.316 251.38 200.11 251.333 200.898" stroke="white" stroke-linecap="round" stroke-linejoin="round"/>
<path d="M258.011 206.652L259.695 207.897" stroke="white" stroke-linecap="round" stroke-linejoin="round"/>
<path d="M261.249 215.264C261.99 215.08 262.738 214.891 263.479 214.707" stroke="white" stroke-linecap="round" stroke-linejoin="round"/>
<path d="M268.911 206.658C269.706 206.824 270.501 206.99 271.296 207.162" stroke="white" stroke-linecap="round" stroke-linejoin="round"/>
<path d="M263.445 199.066C263.172 199.671 262.899 200.281 262.626 200.886" stroke="white" stroke-linecap="round" stroke-linejoin="round"/>
<path d="M269.619 193.68C270.687 193.721 271.761 193.769 272.828 193.81" stroke="white" stroke-linecap="round" stroke-linejoin="round"/>
<path d="M275.486 199.363C275.439 200.063 275.391 200.756 275.344 201.455" stroke="white" stroke-linecap="round" stroke-linejoin="round"/>
<path d="M259.687 191.416C259.734 191.973 259.781 192.53 259.829 193.087" stroke="white" stroke-linecap="round" stroke-linejoin="round"/>
<path d="M269.66 241.006C270.348 241.575 271.036 242.144 271.724 242.713" stroke="white" stroke-linecap="round" stroke-linejoin="round"/>
<path d="M270.316 250.82C270.132 251.798 269.943 252.77 269.759 253.748" stroke="white" stroke-linecap="round" stroke-linejoin="round"/>
<path d="M272.258 262.418C272.863 262.744 273.468 263.07 274.073 263.396" stroke="white" stroke-linecap="round" stroke-linejoin="round"/>
<path d="M253.731 253.469C253.69 254.168 253.642 254.861 253.601 255.561" stroke="white" stroke-linecap="round" stroke-linejoin="round"/>
<path d="M264.331 264.925C264.984 264.416 265.642 263.912 266.294 263.402" stroke="white" stroke-linecap="round" stroke-linejoin="round"/>
<path d="M242.95 232.863C243.514 233.088 244.071 233.314 244.635 233.539" stroke="white" stroke-linecap="round" stroke-linejoin="round"/>
<path d="M234.026 220.283C233.605 220.84 233.19 221.397 232.769 221.954" stroke="white" stroke-linecap="round" stroke-linejoin="round"/>
<path d="M243.376 215.293C243.934 215.334 244.491 215.382 245.049 215.423" stroke="white" stroke-linecap="round" stroke-linejoin="round"/>
<path d="M239.473 162.466C239.241 161.553 238.707 160.676 237.871 160.243C237.035 159.811 235.949 160.03 235.38 160.777C235.38 159.343 234.229 157.997 232.811 157.766C231.393 157.535 229.946 158.436 229.483 159.793C229.157 158.383 227.817 157.274 226.375 157.221C224.928 157.168 223.664 158.08 223.237 159.461C222.324 158.341 220.669 157.891 219.31 158.394C217.952 158.898 217.294 160.166 217.216 161.612C217.086 164.107 217.039 166.922 216.772 169.405C216.588 171.1 217.056 172.86 218.065 174.241L239.259 178.94C239.39 174.389 239.526 169.832 239.656 165.281C239.686 164.338 239.71 163.384 239.479 162.478L239.473 162.466Z" fill="#270504"/>
<path d="M240.889 162.965C240.492 167.534 240.101 172.109 239.703 176.678" stroke="#270504" stroke-linecap="round" stroke-linejoin="round"/>
<path d="M244.101 190.544C242.333 190.39 240.352 190.053 238.59 189.898C238.115 188.156 237.457 186.402 236.976 184.66C238.798 184.571 240.506 183.326 241.147 181.62C241.787 179.919 241.324 177.856 240.019 176.588C238.714 175.32 236.632 174.923 234.954 175.622C234.93 175.196 234.734 174.745 234.711 174.313C233.542 174.715 232.047 173.85 231.662 172.683C231.169 173.406 230.096 173.755 229.241 173.554C228.387 173.358 227.693 172.6 227.569 171.735C227.325 172.57 226.204 173.092 225.332 173.074C224.466 173.05 223.654 172.392 223.452 171.545C222.942 172.203 221.987 172.392 221.162 172.244C220.338 172.096 219.626 171.468 219.371 170.674C218.167 171.717 217.063 173.092 216.654 174.633C216.15 176.547 216.025 178.621 216.073 180.6C216.12 182.84 216.423 185.306 217.888 187.006C219.353 188.707 221.566 189.738 223.808 189.768C223.849 190.598 223.843 191.493 223.885 192.322C222.883 192.571 221.868 193.176 220.86 193.419C221.376 197.188 224.11 200.595 227.675 201.929C231.24 203.262 235.434 202.634 238.554 200.447C241.669 198.266 243.739 194.319 244.095 190.533L244.101 190.544Z" fill="#C14F4F"/>
<path d="M236.139 178.947C236.839 178.432 237.545 177.916 238.244 177.395" stroke="#270504" stroke-linecap="round" stroke-linejoin="round"/>
<path d="M236.051 184.821C236.436 184.75 236.816 184.684 237.202 184.613" stroke="#270504" stroke-linecap="round" stroke-linejoin="round"/>
<path d="M223.503 189.839C226.326 190.165 229.263 189.453 231.624 187.871" stroke="#270504" stroke-linecap="round" stroke-linejoin="round"/>
<path d="M223.218 171.338C223.23 172.156 223.669 172.956 224.351 173.406C225.033 173.857 225.94 173.951 226.7 173.643" stroke="#270504" stroke-linecap="round" stroke-linejoin="round"/>
<path d="M223.752 178.971C223.574 179.895 223.39 180.82 223.212 181.744C223.58 181.649 223.953 181.56 224.321 181.466" stroke="#270504" stroke-linecap="round" stroke-linejoin="round"/>
<path d="M225.361 182.378C225.599 182.811 226.132 183.048 226.613 182.941C227.093 182.835 227.473 182.39 227.503 181.898" stroke="#270504" stroke-linecap="round" stroke-linejoin="round"/>
<path d="M227.506 179.385C227.702 178.875 228.235 178.52 228.781 178.525C229.327 178.531 229.843 178.911 230.027 179.42" stroke="#270504" stroke-linecap="round" stroke-linejoin="round"/>
<path d="M218.375 179.392C218.523 178.87 219.069 178.491 219.609 178.544C220.149 178.591 220.617 179.066 220.671 179.605" stroke="#270504" stroke-linecap="round" stroke-linejoin="round"/>
<path d="M217.968 175.248C218.241 174.608 218.863 174.122 219.552 174.016C220.24 173.909 220.981 174.17 221.444 174.697" stroke="#270504" stroke-linecap="round" stroke-linejoin="round"/>
<path d="M226.896 175.22C227.732 175.196 228.568 175.172 229.405 175.143" stroke="#270504" stroke-linecap="round" stroke-linejoin="round"/>
</g>
</g>
</svg>
