<svg width="324" height="300" viewBox="0 0 324 300" fill="none" xmlns="http://www.w3.org/2000/svg">
<mask id="mask0_2503_10920" style="mask-type:luminance" maskUnits="userSpaceOnUse" x="12" y="0" width="300" height="300">
<path d="M162.003 299.994C244.837 299.994 311.987 232.838 311.987 149.997C311.987 67.156 244.837 0 162.003 0C79.1688 0 12.0186 67.156 12.0186 149.997C12.0186 232.838 79.1688 299.994 162.003 299.994Z" fill="white"/>
</mask>
<g mask="url(#mask0_2503_10920)">
<path d="M312.745 1.24219H14.0674V299.946H312.745V1.24219Z" fill="#8F8FF3"/>
<mask id="mask1_2503_10920" style="mask-type:luminance" maskUnits="userSpaceOnUse" x="12" y="0" width="300" height="300">
<path d="M311.342 0.644531H12.6641V299.348H311.342V0.644531Z" fill="white"/>
</mask>
<g mask="url(#mask1_2503_10920)">
<path d="M6.99512 145.385C6.99512 145.385 7.62831 111.685 8.57811 111.368C9.52791 111.052 78.8212 110.263 78.8212 111.685C78.8212 113.107 78.5046 146.334 78.5046 146.334L6.99512 145.385Z" fill="#AFAFFF"/>
<path d="M19.3486 114.6C19.3486 114.6 40.3875 87.9374 42.9562 86.653C45.3934 85.4343 47.2213 86.199 47.9082 87.2624C48.5952 88.3257 69.3055 114.755 69.3055 114.755C69.3055 114.755 68.9232 115.364 68.1646 115.364C68.1646 115.364 47.287 89.2637 46.8449 88.7857C45.8533 87.7224 44.563 88.3317 43.4161 88.7081C42.2752 89.0904 20.8002 115.436 20.8002 115.436C20.8002 115.436 19.8086 115.89 19.3546 114.6H19.3486Z" fill="#5454E8"/>
<path d="M60.3207 75.0635C60.3207 75.0635 59.6158 43.5861 60.464 43.3053C61.3063 43.0245 67.0708 42.3196 67.2082 43.0245C67.3456 43.7295 67.6323 74.9261 67.6323 74.9261L60.3266 75.0694L60.3207 75.0635Z" fill="#5454E8"/>
<path d="M60.834 70.4805L66.7717 70.5402L66.8314 73.36L60.8937 73.4197L60.834 70.4805Z" fill="#8F8FF3"/>
<path d="M60.9536 44.4515L66.7121 44.332L66.6524 47.4505L60.7744 47.331L60.9536 44.4515Z" fill="#8F8FF3"/>
<path d="M70.3562 74.8489L67.4053 39.1538L72.0408 38.873L74.9917 74.8489H70.3562Z" fill="#5454E8"/>
<path d="M76.8799 74.9256L72.3818 38.5316L77.3041 38.1074L82.0769 74.3641L76.8799 74.9256Z" fill="#5454E8"/>
<path d="M74.3887 45.9521L76.8438 65.8637L79.3049 65.5649L76.9035 45.2949L74.3887 45.9521Z" fill="#8F8FF3"/>
<path d="M10.8422 63.9043L40.9131 64.2508L41.1879 69.1794L10.4121 68.815L10.8422 63.9043Z" fill="#5454E8"/>
<path d="M10.3643 68.916L40.9967 69.4178L40.9847 74.4779L10.9019 74.4181L10.3643 68.916Z" fill="#5454E8"/>
<path d="M18.7568 70.0391L32.7708 70.1406L32.8305 73.5279L18.8225 73.2651L18.7568 70.0391Z" fill="#8F8FF3"/>
<path d="M48.876 74.1193L54.969 44.0996L59.939 45.0316L54.3776 74.5972L48.876 74.1193Z" fill="#5454E8"/>
<path d="M51.5166 66.0786L54.1748 52.3203L57.5141 52.8819L54.6945 66.6043L51.5166 66.0786Z" fill="#8F8FF3"/>
<path d="M42.6328 74.1193L48.7199 44.0996L53.6958 45.0316L48.1345 74.5972L42.6328 74.1193Z" fill="#5454E8"/>
<path d="M48.9531 48.0008L49.3354 45.4141L52.6747 45.9756L52.1311 48.5266L48.9531 48.0008Z" fill="#8F8FF3"/>
<path d="M9.5278 63.73L42.2629 63.8913L42.5258 57.7082L9.50391 57.5469L9.5278 63.73Z" fill="#5454E8"/>
<path d="M40.124 58.3057L39.9567 63.2941L38.1348 63.1208L38.3618 58.252L40.124 58.3057Z" fill="#8F8FF3"/>
<path d="M87.9189 77.1546V87.681H93.3609V77.3398C93.3609 77.3398 87.9189 76.8858 87.9189 77.1606V77.1546Z" fill="#5454E8"/>
<path d="M12.9922 77.1546V87.681H18.4341V77.3398C18.4341 77.3398 12.9922 76.8858 12.9922 77.1606V77.1546Z" fill="#5454E8"/>
<path d="M0 74.1133L105.057 74.6987L104.663 78.2175L0 78.0203V74.1133Z" fill="#AFAFFF"/>
<path d="M203.585 19.3434L202.42 179.395L322.447 178.23L324 18.9551L203.585 19.3434ZM314.998 145.223L293.624 145.169L293.565 122.551L314.938 122.773L314.998 145.223ZM314.926 118.644L293.553 118.591L293.487 93.5175L314.854 93.8819L314.92 118.644H314.926ZM290.207 118.579L268.016 118.519L267.818 93.0694L290.207 93.4518V118.573V118.579ZM256.857 118.489L232.574 118.423L232.509 92.4601L257.06 92.8842L256.857 118.489ZM267.735 82.1966L267.538 56.759L290.207 56.998V81.8919L267.735 82.1966ZM267.508 53.0013L267.335 30.1863L290.207 30.0191V53.067L267.508 53.0073V53.0013ZM257.365 52.9714L232.401 52.9057L232.342 30.4432L257.544 30.258L257.365 52.9774V52.9714ZM257.341 56.6515L257.138 82.34L232.479 82.6745L232.413 56.3886L257.341 56.6515ZM229.223 82.7223L210.084 82.9852L209.941 56.1616L229.223 56.3647V82.7283V82.7223ZM229.223 92.4063V118.411L210.275 118.364L210.132 92.0777L229.223 92.4063ZM210.293 121.679L229.223 121.876V144.996L210.419 144.948L210.293 121.679ZM232.58 121.912L256.827 122.163L256.648 145.068L232.64 145.002L232.58 121.906V121.912ZM256.618 148.736L256.427 172.979L232.712 173.684L232.646 148.485L256.612 148.736H256.618ZM268.249 148.861L290.207 149.088V171.975L268.434 172.62L268.249 148.855V148.861ZM268.219 145.098L268.045 122.283L290.207 122.516V145.157L268.219 145.098ZM314.824 81.5514L293.463 81.8441L293.397 57.0278L314.759 57.2489L314.824 81.5514ZM314.741 53.1268L293.379 53.073L293.32 29.9952L314.675 29.8398L314.741 53.1327V53.1268ZM229.223 30.4671V52.8998L209.923 52.846L209.803 30.6105L229.223 30.4671ZM210.436 148.258L229.223 148.455V173.791L210.58 174.347L210.436 148.258ZM293.69 171.873L293.63 149.124L315.004 149.345L315.063 171.234L293.684 171.867L293.69 171.873Z" fill="#AFAFFF"/>
</g>
<path d="M245.483 282.245C245.483 282.245 266.349 189.539 262.43 129.261C260.369 97.5746 140.802 86.0864 124.208 108.567C118.479 116.327 115.11 272.699 114.644 277.866C114.363 281.014 209.009 281.845 245.477 282.245H245.483Z" fill="white"/>
<path d="M151.227 102.054C151.227 102.054 153.293 97.5737 158.807 104.468C164.321 111.362 194.308 199.945 194.308 199.945" stroke="#002A33" stroke-miterlimit="10"/>
<path d="M155.36 136.525C155.36 136.525 148.813 202.019 138.813 218.908" stroke="#002A33" stroke-miterlimit="10"/>
<path d="M168.113 117.564L182.934 157.895" stroke="#002A33" stroke-miterlimit="10"/>
<path d="M188.836 94.9575C192.868 94.6408 210.168 106.362 210.168 106.362C210.168 106.362 212.682 129.302 190.945 125.479C173 122.325 184.798 95.2741 188.836 94.9575Z" fill="#FFBFA6"/>
<path d="M210.173 106.356C210.173 106.356 192.874 94.6407 188.841 94.9514C186.733 95.1187 182.497 102.604 181.506 110.155C189.457 116.106 199.223 118.483 208.261 115.729C208.632 115.616 209.014 115.46 209.396 115.281C210.645 110.693 210.173 106.356 210.173 106.356Z" fill="#FF9C79"/>
<path d="M209.367 118.872L210.12 106.314" stroke="#002A33" stroke-width="1.5" stroke-miterlimit="10"/>
<path d="M183.531 95.6328C183.531 95.6328 182.02 106.087 181.279 112.808" stroke="#002A33" stroke-width="1.5" stroke-miterlimit="10"/>
<path d="M235.042 106.289C235.042 106.289 267.192 117.15 273.87 128.148C280.549 139.146 306.994 214.067 302.424 217.007C297.854 219.946 295.996 223.154 295.996 223.154L293.929 215.226L248.942 215.322L235.042 106.289Z" fill="#5454E8"/>
<path d="M150.45 127.916C158.938 91.4083 127.583 91.3247 111.956 104.282C110.564 105.435 96.3653 116.26 95.1885 117.24C85.7623 125.096 47.1551 176.372 46.7609 179.12C46.3666 181.868 51.7488 185.357 51.7488 185.357L56.1155 181.306L124.154 217.862L150.45 127.91V127.916Z" fill="#5454E8"/>
<path d="M135.713 108.237C136.095 112.066 128.855 197.299 124.996 196.259C115.044 193.583 135.331 104.408 135.713 108.237Z" stroke="#002A33" stroke-miterlimit="10"/>
<path d="M69.1318 160.665C69.1318 160.665 117.422 110.656 129.465 101.82" stroke="#002A33" stroke-miterlimit="10"/>
<path d="M50.7627 178.654C50.7627 178.654 74.1074 177.124 85.2003 179.801C96.2992 182.477 118.109 202.765 118.109 202.765" stroke="#002A33" stroke-miterlimit="10"/>
<path d="M312.745 222.994H14.0674V299.946H312.745V222.994Z" fill="white"/>
<path d="M312.745 222.994H14.0674" stroke="#002A33" stroke-width="1.5" stroke-miterlimit="10"/>
<path d="M194.768 250.01C194.768 250.01 194.236 251.754 194.768 252.131C195.299 252.507 250.125 254.257 250.567 253.254C251.009 252.25 250.608 250.894 250.608 250.894L194.768 250.01Z" fill="#C8C8C6"/>
<path d="M204.762 229.805C206.159 229.088 246.099 227.959 246.857 229.758C247.616 231.55 252.132 249.46 250.609 250.894C249.085 252.328 195.658 251.264 194.768 250.01C193.878 248.755 203.364 230.522 204.762 229.805Z" fill="#E0E0E0"/>
<path d="M228.733 251.55C213.298 251.395 195.276 250.738 194.768 250.009C193.878 248.754 203.364 230.522 204.762 229.805" stroke="#002A33" stroke-width="1.5" stroke-miterlimit="10"/>
<path d="M246.857 229.758C247.616 231.55 252.132 249.46 250.609 250.894C250.268 251.217 247.341 251.408 242.986 251.509" stroke="#002A33" stroke-width="1.5" stroke-miterlimit="10"/>
<path d="M206.332 230.367C207.604 229.716 244.629 228.909 245.322 230.528C246.014 232.147 249.605 247.71 248.213 249.006C246.827 250.303 197.766 248.845 196.954 247.71C196.141 246.575 205.054 231.018 206.326 230.367H206.332Z" fill="#002A33"/>
<path d="M151.955 201.225C152.069 200.078 152.415 197.318 155.402 197.431C158.389 197.545 176.31 199.958 177.23 201.452C178.149 202.945 178.376 231.782 177.803 232.935C177.23 234.088 176.77 235.235 174.703 235.235C172.636 235.235 153.682 233.395 152.642 232.248C151.609 231.101 151.836 202.378 151.955 201.225Z" fill="#1C5A64"/>
<path d="M152.206 203.059C152.314 201.96 152.624 199.319 155.354 199.427C158.078 199.535 174.434 201.847 175.276 203.28C176.118 204.714 176.321 232.326 175.802 233.425C175.276 234.525 174.858 235.624 172.97 235.624C171.082 235.624 153.783 233.862 152.839 232.762C151.895 231.663 152.104 204.158 152.212 203.059H152.206Z" fill="#002A33"/>
<path d="M141.615 217.886C141.615 217.886 145.062 213.292 146.442 212.258C147.822 211.225 151.842 210.765 151.842 210.765C151.842 210.765 151.997 217.94 151.932 218.776C151.908 219.123 165.049 217.546 167.696 217.546C170.342 217.546 172.522 218.466 172.522 219.386C172.522 220.306 171.602 221.686 171.602 221.686C171.602 221.686 175.276 221.339 176.316 222.146C177.349 222.952 178.155 225.133 177.463 225.706C176.77 226.28 156.095 230.3 157.475 230.647C158.855 230.993 169.882 230.76 171.148 230.3C172.415 229.84 177.582 228.347 177.582 229.153C177.582 229.96 178.729 229.84 177.809 231.567C176.889 233.287 169.309 235.241 168.962 235.474C168.616 235.701 162.642 238.694 161.609 238.807C160.575 238.921 154.369 238.807 151.382 238.234C148.395 237.66 145.868 236.167 145.868 236.167C145.868 236.167 63.4392 237.29 52.6808 235.82C26.642 232.266 32.8068 204.337 37.7469 195.495C42.687 186.648 56.7249 181.743 64.61 183.953C78.9884 187.98 141.621 217.904 141.621 217.904L141.615 217.886Z" fill="#FFBFA6"/>
<path d="M156.173 236.459C156.173 236.459 165.796 236.382 168.956 235.462C176.208 233.347 177.803 231.555 177.803 231.555" stroke="#002A33" stroke-miterlimit="10"/>
<path d="M150.97 225.628C150.97 225.628 151.89 224.451 152.935 224.188C153.986 223.926 170.688 222.271 171.596 221.679C172.839 220.873 172.516 219.379 172.516 219.379C172.516 219.379 171.949 217.802 169.673 217.503C167.397 217.205 148.521 219.493 148.521 219.493" stroke="#002A33" stroke-miterlimit="10"/>
<path d="M121.233 208.299C132.906 213.729 141.615 217.887 141.615 217.887C141.615 217.887 145.062 213.293 146.442 212.26C147.822 211.226 151.842 210.766 151.842 210.766C151.842 210.766 151.997 217.941 151.932 218.777C151.908 219.124 165.049 217.547 167.696 217.547C170.342 217.547 172.522 218.467 172.522 219.387C172.522 220.307 171.602 221.687 171.602 221.687C171.602 221.687 175.276 221.34 176.316 222.147C177.349 222.953 178.155 225.134 177.463 225.707C176.77 226.281 156.095 230.301 157.475 230.648C158.855 230.994 169.882 230.761 171.148 230.301C172.415 229.841 177.582 228.348 177.582 229.154C177.582 229.961 178.729 229.841 177.809 231.568C176.889 233.288 169.309 235.242 168.962 235.475C168.616 235.702 162.642 238.695 161.609 238.808C160.575 238.922 154.369 238.808 151.382 238.235C148.395 237.661 145.868 236.168 145.868 236.168" stroke="#002A33" stroke-width="1.5" stroke-miterlimit="10"/>
<path d="M52.6749 235.809C26.6362 232.254 32.8009 204.325 37.741 195.484C42.6812 186.636 56.719 181.731 64.6041 183.942" stroke="#002A33" stroke-width="1.5" stroke-miterlimit="10"/>
<path d="M213.274 90.376C213.274 90.376 219.14 86.2061 222.33 89.456C225.52 92.7059 218.584 99.582 212.736 95.3882L213.274 90.37V90.376Z" fill="#FFBFA6"/>
<path d="M220.991 90.6576C223.363 92.7306 218.763 96.4285 216.081 94.2838C213.399 92.1391 218.62 88.5905 220.991 90.6576Z" fill="#FF9C79"/>
<path d="M200.663 71.265C198.579 70.9782 196.655 70.9065 194.887 71.026C176.016 72.3224 174.792 95.2688 182.36 102.515C189.308 109.17 198.853 111.429 206.906 108.107C216.505 104.152 224.36 74.5447 200.663 71.259V71.265Z" fill="#FFBFA6"/>
<path d="M190.568 84.2344C190.568 84.2344 194.308 85.6024 194.977 88.4999" stroke="#002A33" stroke-width="0.5" stroke-miterlimit="10"/>
<path d="M201.04 89.6058C201.04 89.6058 202.038 86.7084 205.568 86.1289" stroke="#002A33" stroke-width="0.5" stroke-miterlimit="10"/>
<path d="M193.931 90.1264C193.931 90.1264 193.644 87.8742 190.711 86.6854C187.778 85.4965 185.46 87.7726 185.46 87.7726L185.287 86.3568C185.287 86.3568 187.587 84.1165 191.177 85.843C194.373 87.3783 194.875 89.774 194.875 89.774L193.931 90.1264Z" fill="#002A33"/>
<path d="M201.763 91.2727C201.763 91.2727 202.378 88.8412 205.479 88.19C208.579 87.5389 210.55 90.5797 210.55 90.5797L210.932 89.0443C210.932 89.0443 208.967 86.0394 205.138 87.1446C201.727 88.1243 200.879 90.6633 200.879 90.6633L201.769 91.2667L201.763 91.2727Z" fill="#002A33"/>
<path d="M201.44 84.3907C201.44 84.3907 207.952 78.572 211.834 84.2414C211.834 84.2414 205.783 82.8374 202.289 85.6572L201.44 84.3907Z" fill="#002A33"/>
<path d="M195.837 84.2174C195.837 84.2174 191.733 76.702 185.538 80.2805C185.538 80.2805 191.512 80.8002 194.343 84.9223L195.837 84.2174Z" fill="#002A33"/>
<path d="M192.826 96.2127C192.826 96.2127 197.049 94.4802 200.108 96.0394" stroke="#002A33" stroke-miterlimit="10"/>
<path d="M186.255 90.0836C181.255 89.5878 179.935 96.6014 185.419 97.9694C190.902 99.3375 192.246 90.6751 186.255 90.0836Z" fill="#FF9C79"/>
<path d="M208.369 93.2379C203.369 92.7421 202.049 99.7557 207.533 101.124C213.017 102.492 214.361 93.8294 208.369 93.2379Z" fill="#FF9C79"/>
<path d="M216.081 94.2773C216.081 94.2773 214.02 105.096 206.433 107.928C206.433 107.928 202.533 109.917 198.775 109.505" stroke="#002A33" stroke-width="1.5" stroke-miterlimit="10"/>
<path d="M178.256 88.8105C176.846 100.741 185.084 105.861 191.075 107.838" stroke="#002A33" stroke-width="1.5" stroke-miterlimit="10"/>
<path d="M197.659 89.9943C197.659 89.9943 197.533 92.2345 197.145 92.0852C196.757 91.9358 196.297 90.9382 195.831 91.1054C195.365 91.2727 195.938 93.3756 196.966 93.3875C197.993 93.3995 197.659 89.9883 197.659 89.9883V89.9943Z" fill="#FF9C79"/>
<path d="M197.66 89.9941L197.128 91.8401C197.128 91.8401 196.202 90.5139 195.682 90.8305C194.338 91.649 196.752 93.2918 196.584 93.2082C196.417 93.1246 195.563 91.1591 196.005 91.404C196.447 91.649 196.799 92.6646 197.313 92.5092C197.827 92.3599 197.66 90.0001 197.66 90.0001V89.9941Z" fill="#002A33"/>
<path d="M192.725 93.3574C192.725 93.3574 193.579 95.1676 192.241 97.7245" stroke="#002A33" stroke-miterlimit="10"/>
<path d="M200.532 93.4414C200.532 93.4414 199.194 96.1477 201.106 98.5492" stroke="#002A33" stroke-miterlimit="10"/>
<path d="M180.294 89.4809C180.706 88.3697 180.383 86.3326 179.236 84.7554C177.94 82.9751 176.005 82.0551 173.185 83.0528C169.906 84.2178 170.963 89.8274 174.792 91.9004C176.811 92.9937 179.35 92.0498 180.108 89.9768L180.294 89.4749V89.4809Z" fill="#FFBFA6"/>
<path d="M174.601 84.9465C171.554 85.7709 174.039 91.0998 177.396 90.3411C178.239 90.1499 178.675 89.666 178.806 89.0626C179.206 87.2465 176.883 84.3252 174.601 84.9465Z" fill="#FF9C79"/>
<path d="M213.542 78.8823C212.622 76.881 209.701 74.7304 206.469 73.9597C203.244 73.1891 201.242 73.1891 198.321 72.729C195.4 72.269 191.864 71.809 189.863 72.4244C187.862 73.0397 184.481 74.4257 182.635 77.1917C180.789 79.9577 179.099 87.491 179.099 87.491L178.639 90.257C178.639 90.257 178.794 84.1097 176.793 82.879L175.102 82.5743L175.873 79.0377C175.873 79.0377 173.872 79.9577 174.027 79.193C174.182 78.4223 176.177 74.7363 176.177 74.7363C176.177 74.7363 174.332 75.3517 174.792 74.121C175.252 72.8903 177.713 71.355 177.713 71.355C177.713 71.355 171.715 70.2797 172.641 69.2043C173.567 68.129 178.483 65.823 180.634 66.743C180.634 66.743 177.713 64.2817 178.943 64.1264C180.174 63.9711 182.324 65.2017 182.324 65.2017C182.324 65.2017 179.403 60.2791 180.634 59.9744C181.864 59.6697 185.705 58.5884 187.396 60.2791C187.396 60.2791 188.626 54.5918 189.242 55.8224C189.857 57.0531 191.087 59.6638 191.087 59.6638C191.087 59.6638 192.163 55.2071 194.779 53.5105C194.779 53.5105 194.164 50.5891 195.55 51.0491C196.936 51.5091 204.313 57.5071 204.158 58.4271C204.158 58.4271 202.622 53.0445 203.698 53.9705C204.773 54.8905 207.539 59.5084 207.539 59.5084C207.539 59.5084 207.234 53.6658 208.614 54.5858C210 55.5058 213.841 60.2731 213.381 63.3498C213.381 63.3498 215.382 59.5084 215.687 60.2731C215.991 61.0438 215.382 64.5804 215.382 64.5804C215.382 64.5804 217.532 63.1944 219.994 63.9651L216.302 66.4264C216.302 66.4264 219.528 66.8864 221.373 68.7324C223.219 70.5784 223.835 76.1104 223.835 76.1104L221.218 72.5737C221.218 72.5737 221.678 73.9597 221.833 76.4151C221.989 78.8764 220.979 90.6513 220.979 90.6513C220.979 90.6513 217.891 89.8627 215.943 93.2082C215.943 93.2082 214.456 80.8717 213.53 78.8764L213.542 78.8823Z" fill="#1C5A64"/>
<path d="M207.593 73.9305C207.593 73.9305 208.949 73.9305 210.717 71.8933C212.485 69.8561 212.348 66.0566 212.348 66.0566" stroke="#002A33" stroke-width="0.75" stroke-miterlimit="10"/>
<path d="M197.144 72.437C197.144 72.437 199.45 71.4872 200.131 69.5874C200.812 67.6876 196.332 59.8138 196.332 57.9141" stroke="#002A33" stroke-width="0.75" stroke-miterlimit="10"/>
<path d="M203.93 63.0742C203.93 63.0742 207.054 72.1668 202.574 73.1166" stroke="#002A33" stroke-width="0.75" stroke-miterlimit="10"/>
<path d="M192.802 63.8867C192.802 63.8867 195.926 70.5359 194.564 72.3042" stroke="#002A33" stroke-width="0.75" stroke-miterlimit="10"/>
<path d="M182.348 74.7427C182.348 74.7427 188.59 71.2121 189.677 72.4367C189.677 72.4367 187.915 70.9432 188.459 67.55C189.002 64.1567 191.29 59.9091 191.099 59.6582" stroke="#002A33" stroke-width="0.75" stroke-miterlimit="10"/>
<path d="M182.485 72.305C182.485 72.305 184.654 70.4052 186.966 71.2177" stroke="#002A33" stroke-width="0.75" stroke-miterlimit="10"/>
<path d="M190.903 65.9238C190.903 65.9238 190.634 70.1296 192.121 71.8979" stroke="#002A33" stroke-width="0.75" stroke-miterlimit="10"/>
<path d="M202.569 67.0059C202.569 67.0059 202.706 72.7051 200.4 72.9799" stroke="#002A33" stroke-width="0.75" stroke-miterlimit="10"/>
<path d="M209.086 75.0176C209.086 75.0176 211.529 74.8802 212.616 72.9805C213.704 71.0807 214.247 69.3184 214.247 69.3184" stroke="#002A33" stroke-width="0.75" stroke-miterlimit="10"/>
<path d="M217.09 70.8105C216.953 70.8105 223.129 72.5968 223.84 76.1155" stroke="#002A33" stroke-width="0.75" stroke-miterlimit="10"/>
<path d="M217.228 73.5234C217.228 73.5234 221.576 73.613 221.845 76.4209" stroke="#002A33" stroke-width="0.75" stroke-miterlimit="10"/>
<path d="M183.436 61.4434C183.436 61.4434 185.198 61.7122 185.473 63.7494C185.741 65.7865 185.879 69.7234 188.728 70.6733" stroke="#002A33" stroke-width="0.75" stroke-miterlimit="10"/>
<path d="M201.141 82.0547C201.141 82.0547 199.534 83.7035 199.809 85.3225" stroke="#002A33" stroke-width="0.75" stroke-miterlimit="10"/>
<path d="M196.924 81.7852C197.354 82.2691 197.139 84.3421 196.769 84.808" stroke="#002A33" stroke-width="0.75" stroke-miterlimit="10"/>
<path d="M192.826 96.2139L200.108 96.0406C200.108 96.0406 198.125 94.1469 192.826 96.2139Z" fill="#002A33"/>
<path d="M209.636 109.917C209.636 109.917 209.636 107.886 210.09 106.643C210.544 105.401 215.956 94.9043 215.956 93.2136C215.956 91.523 215.281 85.6505 215.281 85.6505C215.281 85.6505 212.796 81.7016 213.925 81.1341C215.054 80.5725 216.296 80.5725 216.745 81.1341C217.199 81.6956 218.322 84.4079 218.322 84.4079C218.322 84.4079 218.435 83.3923 219.678 83.3923C220.92 83.3923 224.194 93.6617 224.194 94.9043C224.194 96.1469 225.323 97.7241 224.648 99.1937C223.973 100.663 221.261 108.448 221.261 108.448C221.261 108.448 301.414 190.848 297.095 212.444C296.026 217.785 289.986 225.539 287.842 226.328C285.697 227.117 261.821 229.375 257.61 227.254C224.594 210.616 209.074 110.706 209.642 109.917H209.636Z" fill="#FFBFA6"/>
<path d="M219.564 93.554C219.624 89.8382 217.999 84.5631 216.834 81.2654C216.804 81.2176 216.774 81.1758 216.744 81.1399C216.29 80.5784 215.054 80.5784 213.925 81.1399C212.796 81.7015 215.281 85.6563 215.281 85.6563C215.281 85.6563 215.956 91.5229 215.956 93.2195C215.956 94.7787 211.38 103.77 210.293 106.171C213.549 103.393 219.504 97.7478 219.57 93.554H219.564Z" fill="#FF9C79"/>
<path d="M264.163 156.414C282.412 178.608 299.126 202.277 297.089 212.451C296.02 217.792 289.981 225.546 287.836 226.335" stroke="#002A33" stroke-width="1.5" stroke-miterlimit="10"/>
<path d="M209.636 109.917C209.636 109.917 209.636 107.886 210.09 106.643C210.544 105.401 215.956 94.9043 215.956 93.2136C215.956 91.523 215.281 85.6505 215.281 85.6505C215.281 85.6505 212.796 81.7016 213.925 81.1341C215.054 80.5725 216.296 80.5725 216.744 81.1341C217.198 81.6956 218.321 84.4079 218.321 84.4079C218.321 84.4079 218.435 83.3923 219.677 83.3923C220.92 83.3923 224.193 93.6617 224.193 94.9043C224.193 96.1469 225.322 97.7241 224.647 99.1937C223.972 100.663 221.26 108.448 221.26 108.448C221.26 108.448 232.341 119.84 246.045 135.265" stroke="#002A33" stroke-width="1.5" stroke-miterlimit="10"/>
<path d="M217.306 99.9818C217.533 99.6413 219.564 94.4498 219.564 93.5477C219.564 92.6456 218.548 86.325 218.435 85.9845C218.321 85.644 218.775 83.2783 219.677 83.3858C219.677 83.3858 220.179 83.0035 221.039 84.724C221.899 86.4445 225.501 96.8155 224.647 99.1872" stroke="#002A33" stroke-miterlimit="10"/>
<path d="M147.607 46.1146C156.364 33.354 283.852 66.1875 269.461 81.1944C253.154 98.1966 138.85 58.8693 147.607 46.1146Z" stroke="#002A33" stroke-width="1.5" stroke-miterlimit="10"/>
<path d="M277.8 56.1326C276.534 66.2407 139.865 85.5967 130.97 67.5132C123.462 52.2434 279.061 46.0244 277.8 56.1326Z" stroke="#002A33" stroke-width="1.5" stroke-miterlimit="10"/>
<path d="M135.301 48.3242C135.301 48.3242 136.054 54.125 142.326 52.4762C142.326 52.4762 137.416 54.1549 138.312 59.6869C138.312 59.6869 136.956 54.603 130.72 56.3952C130.72 56.3952 136.305 55.1825 135.301 48.3302V48.3242Z" fill="white"/>
<path d="M240.746 88.3633C240.746 88.3633 241.35 93.041 246.415 91.7088C246.415 91.7088 242.455 93.0649 243.178 97.5275C243.178 97.5275 242.084 93.4233 237.055 94.869C237.055 94.869 241.559 93.8893 240.746 88.3633Z" fill="white"/>
<path d="M217.743 40.379C217.743 40.379 217.158 45.0627 222.39 45.0388C222.39 45.0388 218.215 45.3554 217.797 49.8539C217.797 49.8539 217.767 45.6063 212.54 45.7437C212.54 45.7437 217.146 45.9289 217.749 40.373L217.743 40.379Z" fill="white"/>
<path d="M158.336 77.7052C158.336 77.7052 157.888 81.2777 161.878 81.2598C161.878 81.2598 158.694 81.5047 158.372 84.9338C158.372 84.9338 158.348 81.6959 154.357 81.7974C154.357 81.7974 157.87 81.9408 158.33 77.6992L158.336 77.7052Z" fill="white"/>
</g>
</svg>
