<svg width="300" height="300" viewBox="0 0 300 300" fill="none" xmlns="http://www.w3.org/2000/svg">
<g clip-path="url(#clip0_2503_11228)">
<path d="M300 150C300 67.1573 232.843 0 150 0C67.1573 0 0 67.1573 0 150C0 232.843 67.1573 300 150 300C232.843 300 300 232.843 300 150Z" fill="#FFD8B9"/>
<path d="M176.087 72.094C134.029 85.6795 94.8934 108.558 61.6374 139.759C48.7026 151.895 47.2185 171.805 58.2011 185.71C66.6834 196.453 77.0267 205.86 88.8541 213.406C106.721 224.811 129.234 226.124 148.482 217.208C180.185 202.515 208.133 180.036 228.922 152.899C248.044 127.932 241.08 92.0156 213.841 76.1468C213.601 75.9984 213.35 75.8614 213.099 75.7244C201.876 69.3312 188.394 68.1325 176.098 72.1168L176.087 72.094Z" fill="#F1B791"/>
<path d="M163.312 64.2287L167.844 63.8748C167.695 61.8997 166.291 60.2786 164.419 59.8105L163.312 64.2173V64.2287Z" stroke="white" stroke-linecap="round" stroke-linejoin="round"/>
<path d="M161.976 65.2449L163.083 60.8382C162.73 60.7468 162.353 60.7012 161.976 60.7012C159.464 60.7012 157.421 62.7447 157.421 65.2563C157.421 67.7679 159.464 69.8115 161.976 69.8115C164.488 69.8115 166.531 67.7679 166.531 65.2563C166.531 65.1422 166.531 65.0166 166.508 64.9024L161.976 65.2563V65.2449Z" stroke="white" stroke-linecap="round" stroke-linejoin="round"/>
<path d="M199.89 80.9996C199.89 80.1319 199.182 79.4355 198.326 79.4355C197.47 79.4355 196.762 80.1434 196.762 80.9996C196.762 81.8558 197.47 82.5636 198.326 82.5636C199.182 82.5636 199.89 81.8558 199.89 80.9996Z" fill="#FFD8B9"/>
<path d="M58.8746 166.519C59.7384 166.519 60.4386 165.818 60.4386 164.955C60.4386 164.091 59.7384 163.391 58.8746 163.391C58.0108 163.391 57.3105 164.091 57.3105 164.955C57.3105 165.818 58.0108 166.519 58.8746 166.519Z" fill="#FFD8B9"/>
<path d="M247.633 106.949C247.633 106.081 246.925 105.385 246.069 105.385C245.213 105.385 244.505 106.093 244.505 106.949C244.505 107.805 245.213 108.513 246.069 108.513C246.925 108.513 247.633 107.805 247.633 106.949Z" fill="#F1B791"/>
<path d="M242.827 130.433V125.044L245.247 123.652C246.263 123.069 246.731 121.848 246.355 120.74C246.035 119.77 245.635 118.834 245.19 117.921C244.665 116.87 243.478 116.345 242.347 116.653L239.653 117.373L235.84 113.559L236.559 110.865C236.856 109.735 236.331 108.548 235.292 108.022C234.39 107.566 233.443 107.178 232.472 106.858C231.365 106.481 230.143 106.949 229.561 107.965L228.168 110.386H222.78L221.387 107.965C220.805 106.949 219.583 106.481 218.476 106.858C217.505 107.178 216.569 107.577 215.656 108.022C214.606 108.548 214.08 109.735 214.389 110.865L215.108 113.559L211.295 117.373L208.601 116.653C207.47 116.356 206.283 116.882 205.758 117.921C205.301 118.822 204.913 119.77 204.593 120.74C204.217 121.848 204.685 123.069 205.701 123.652L208.121 125.044V130.433L205.701 131.826C204.685 132.408 204.217 133.629 204.593 134.737C204.913 135.707 205.313 136.643 205.758 137.557C206.283 138.607 207.47 139.132 208.601 138.824L211.295 138.105L215.108 141.918L214.389 144.612C214.092 145.742 214.617 146.93 215.656 147.455C216.558 147.911 217.505 148.3 218.476 148.619C219.583 148.996 220.805 148.528 221.387 147.512L222.78 145.092H228.168L229.561 147.512C230.143 148.528 231.365 148.996 232.472 148.619C233.443 148.3 234.379 147.9 235.292 147.455C236.342 146.93 236.868 145.742 236.559 144.612L235.84 141.918L239.653 138.105L242.347 138.824C243.478 139.121 244.665 138.596 245.19 137.557C245.647 136.655 246.035 135.707 246.355 134.737C246.731 133.629 246.263 132.408 245.247 131.826L242.827 130.433ZM225.463 136.175C220.805 136.175 217.026 132.396 217.026 127.739C217.026 123.081 220.805 119.302 225.463 119.302C230.12 119.302 233.899 123.081 233.899 127.739C233.899 132.396 230.12 136.175 225.463 136.175Z" stroke="white" stroke-linecap="round" stroke-linejoin="round"/>
<path d="M89.6188 100.418L90.3494 95.0755L92.9295 94.0252C94.0141 93.5799 94.642 92.4383 94.4251 91.2852C94.231 90.2806 93.9799 89.2988 93.6488 88.3398C93.272 87.2324 92.1647 86.5474 91.0116 86.6959L88.2374 87.0498L84.9723 82.7572L86.0569 80.1771C86.5135 79.104 86.1482 77.8481 85.1778 77.186C84.3444 76.6152 83.4654 76.1014 82.5406 75.6448C81.4903 75.131 80.2231 75.4279 79.5039 76.3526L77.7914 78.556L72.4485 77.8253L71.3982 75.2452C70.953 74.1607 69.8113 73.5327 68.6583 73.7497C67.6536 73.9437 66.6718 74.1949 65.7129 74.526C64.6055 74.9027 63.9205 76.0101 64.0689 77.1632L64.4228 79.9373L60.1302 83.2024L57.5501 82.1179C56.477 81.6612 55.2212 82.0265 54.559 82.9969C53.9882 83.8303 53.4745 84.7094 53.0178 85.6341C52.5041 86.6844 52.8009 87.9517 53.7256 88.6709L55.929 90.3833L55.1984 95.7262L52.6183 96.7765C51.5337 97.2218 50.9058 98.3634 51.1227 99.5165C51.3168 100.521 51.5679 101.503 51.899 102.462C52.2758 103.569 53.3832 104.254 54.5362 104.106L57.3104 103.752L60.5755 108.045L59.4909 110.625C59.0343 111.698 59.3996 112.954 60.37 113.616C61.2034 114.187 62.0824 114.7 63.0072 115.157C64.0575 115.671 65.3247 115.374 66.0439 114.449L67.7564 112.246L73.0993 112.976L74.1496 115.557C74.5948 116.641 75.7365 117.269 76.8895 117.052C77.8942 116.858 78.876 116.607 79.8349 116.276C80.9423 115.899 81.6273 114.792 81.4789 113.639L81.125 110.864L85.4176 107.599L87.9977 108.684C89.0708 109.14 90.3266 108.775 90.9888 107.805C91.5596 106.971 92.0733 106.092 92.53 105.168C93.0437 104.117 92.7469 102.85 91.8222 102.131L89.6188 100.418ZM70.8959 109.186C63.2812 108.147 57.9611 101.126 59 93.5229C60.0389 85.9081 67.06 80.5881 74.6633 81.627C82.2781 82.6659 87.5981 89.687 86.5592 97.2903C85.5203 104.905 78.4992 110.225 70.8845 109.186H70.8959Z" stroke="white" stroke-linecap="round" stroke-linejoin="round"/>
<path d="M139.074 71.6835L136.095 65.2675L138.195 62.2764C139.074 61.0206 138.96 59.3196 137.91 58.2008C136.985 57.2304 136.003 56.3171 134.965 55.4951C133.766 54.5361 132.053 54.5703 130.889 55.5522L128.08 57.9039L121.436 55.4722L120.808 51.8647C120.546 50.3577 119.256 49.2275 117.726 49.1932C116.401 49.159 115.066 49.2161 113.73 49.3645C112.212 49.5357 111.013 50.7687 110.876 52.2871L110.545 55.9289L104.129 58.9086L101.138 56.808C99.8819 55.9289 98.1809 56.0431 97.0621 57.0934C96.0917 58.0181 95.1784 58.9999 94.3564 60.0388C93.3974 61.2375 93.4317 62.95 94.4135 64.1145L96.7653 66.9229L94.3336 73.5672L90.726 74.1951C89.219 74.4577 88.0888 75.7478 88.0546 77.2776C88.0203 78.6019 88.0774 79.9376 88.2258 81.2733C88.397 82.7917 89.63 83.9904 91.1484 84.1274L94.8016 84.4585L97.7813 90.8745L95.6807 93.8656C94.8016 95.1214 94.9158 96.8224 95.9661 97.9412C96.8908 98.9116 97.8727 99.8249 98.9115 100.647C100.11 101.606 101.823 101.572 102.987 100.59L105.796 98.2381L112.44 100.67L113.068 104.277C113.33 105.784 114.621 106.915 116.15 106.949C117.475 106.983 118.81 106.926 120.146 106.778C121.664 106.606 122.863 105.373 123 103.855L123.331 100.213L129.747 97.2334L132.738 99.334C133.994 100.213 135.695 100.099 136.814 99.0486C137.784 98.1239 138.698 97.1421 139.52 96.1032C140.479 94.9045 140.444 93.192 139.463 92.0275L137.111 89.2191L139.543 82.5748L143.15 81.9469C144.657 81.6843 145.787 80.3942 145.822 78.8644C145.856 77.5401 145.799 76.2044 145.65 74.8687C145.479 73.3503 144.246 72.1516 142.728 72.0146L139.086 71.6835H139.074ZM121.596 88.0889C116.059 90.6576 109.483 88.2487 106.903 82.7118C104.334 77.1748 106.743 70.599 112.28 68.0189C117.817 65.4502 124.393 67.859 126.973 73.396C129.542 78.9329 127.133 85.5088 121.596 88.0889Z" fill="#F1B791"/>
<path d="M178.062 63.9656C178.522 63.9656 178.895 63.5925 178.895 63.1322C178.895 62.672 178.522 62.2988 178.062 62.2988C177.602 62.2988 177.229 62.672 177.229 63.1322C177.229 63.5925 177.602 63.9656 178.062 63.9656Z" stroke="#100D18" stroke-linecap="round" stroke-linejoin="round"/>
<path d="M203.121 62.6652C203.984 62.6652 204.685 61.965 204.685 61.1012C204.685 60.2374 203.984 59.5371 203.121 59.5371C202.257 59.5371 201.557 60.2374 201.557 61.1012C201.557 61.965 202.257 62.6652 203.121 62.6652Z" fill="#F1B791"/>
<path d="M213.852 59.5365C213.852 59.0799 213.476 58.7031 213.019 58.7031C212.562 58.7031 212.186 59.0799 212.186 59.5365C212.186 59.9932 212.562 60.3699 213.019 60.3699C213.476 60.3699 213.852 59.9932 213.852 59.5365Z" stroke="#100D18" stroke-linecap="round" stroke-linejoin="round"/>
<path d="M58.8746 130.513C59.7384 130.513 60.4386 129.813 60.4386 128.949C60.4386 128.085 59.7384 127.385 58.8746 127.385C58.0108 127.385 57.3105 128.085 57.3105 128.949C57.3105 129.813 58.0108 130.513 58.8746 130.513Z" fill="#F1B791"/>
<path d="M53.9998 121.767C53.9998 121.31 53.6231 120.934 53.1664 120.934C52.7097 120.934 52.333 121.31 52.333 121.767C52.333 122.224 52.7097 122.6 53.1664 122.6C53.6231 122.6 53.9998 122.224 53.9998 121.767Z" stroke="#100D18" stroke-linecap="round" stroke-linejoin="round"/>
<path d="M69.9939 181.999C69.9939 181.543 69.6172 181.166 69.1605 181.166C68.7039 181.166 68.3271 181.543 68.3271 181.999C68.3271 182.456 68.7039 182.833 69.1605 182.833C69.6172 182.833 69.9939 182.456 69.9939 181.999Z" stroke="#100D18" stroke-linecap="round" stroke-linejoin="round"/>
<path d="M153.893 135.181C155.263 130.899 156.69 126.527 159.476 122.988C162.25 119.46 166.714 116.892 171.143 117.611C175.504 118.319 178.747 121.892 181.167 124.769C186.282 120.088 191.59 115.43 197.903 112.565C204.217 109.699 211.797 108.854 218.019 111.903C224.07 114.859 228.043 121.196 229.207 127.828C230.372 134.461 228.99 141.345 226.422 147.567C223.853 153.789 220.143 159.475 216.832 166.199C219.811 164.429 223.236 162.877 226.661 163.516C231.194 164.349 234.287 168.927 234.858 173.494C235.429 178.061 234.002 182.627 232.244 187.525C237.142 185.093 243.512 187.936 246.126 192.731C248.741 197.526 248.158 203.553 245.921 208.542C243.695 213.531 240.007 217.698 237.747 223.018C239.276 221.557 242.131 222.493 242.953 224.445C243.774 226.386 242.907 228.738 241.354 230.176C239.802 231.615 237.724 232.311 235.669 232.802C229.607 234.263 223.305 234.298 217.072 234.275C190.985 234.172 164.739 228.647 138.949 231.82C137.602 231.992 136.209 231.855 135.045 231.147C133.88 230.439 132.956 229.423 132.054 228.395C130.718 226.866 129.337 224.993 129.748 223.018C130.079 221.409 131.586 220.233 133.172 219.799C134.759 219.365 136.449 219.513 139.394 218.44C129.519 190.767 144.749 163.607 153.882 135.181H153.893Z" fill="#34A5D1"/>
<path d="M246.137 192.731C244.87 190.402 242.723 188.541 240.28 187.514C236.73 191.715 234.823 197.046 235.383 202.184C235.908 207.047 238.648 211.614 242.609 214.479C243.831 212.55 245.007 210.62 245.931 208.554C248.157 203.565 248.751 197.537 246.137 192.742V192.731Z" fill="#228FBA"/>
<path d="M224.115 175.754C224.207 171.508 225.291 167.044 228.054 163.904C227.609 163.733 227.152 163.596 226.673 163.505C225.714 163.333 224.755 163.322 223.807 163.448C221.124 166.678 219.811 171.085 219.081 175.321C218.133 180.721 217.768 186.383 215.165 191.212C212.299 196.487 207.093 200.071 201.762 202.823C196.43 205.574 190.745 207.732 185.825 211.168C178.941 215.974 173.86 223.281 171.646 231.386C181.018 231.98 190.425 232.928 199.833 233.578C200.769 229.857 203.246 226.58 206.02 223.863C209.297 220.678 213.087 218.018 216.181 214.65C222.197 208.097 225.2 199.044 225.051 190.139C224.971 185.333 224.024 180.561 224.138 175.754H224.115Z" fill="#228FBA"/>
<path d="M219.88 130.02C220.759 134.724 224.263 138.8 228.693 140.569C229.663 136.379 229.96 132.053 229.218 127.817C228.556 124.05 226.981 120.385 224.64 117.371C220.77 120.271 219.001 125.317 219.88 130.009V130.02Z" fill="#228FBA"/>
<path d="M203.28 167.558C210.655 159.863 214.731 149.063 214.16 138.423C213.612 128.126 208.714 118.114 200.883 111.412C199.867 111.743 198.873 112.131 197.903 112.565C195.859 113.49 193.93 114.597 192.081 115.842C194.626 118.776 196.921 121.927 198.508 125.454C200.483 129.838 201.305 134.896 199.981 139.519C198.097 146.084 192.24 150.822 185.95 153.493C179.671 156.164 172.821 157.158 166.222 158.893C157.432 161.21 148.938 164.978 141.54 170.229C138.389 180.15 136.14 190.003 136.197 199.878C144.851 192.822 156.119 189.078 166.942 185.733C180.036 181.691 193.793 177.445 203.269 167.558H203.28Z" fill="#228FBA"/>
<path d="M153.892 135.181C152.991 137.967 152.043 140.752 151.05 143.515C156.952 143.949 162.98 142.511 167.992 139.36C173.757 135.741 178.084 129.918 179.956 123.377C179.066 122.383 178.084 121.379 176.999 120.488C174.979 123.651 171.748 126.037 168.117 126.984C164.624 127.898 160.799 127.475 157.569 125.877C155.959 128.777 154.909 132.007 153.892 135.181Z" fill="#228FBA"/>
<mask id="mask0_2503_11228" style="mask-type:luminance" maskUnits="userSpaceOnUse" x="129" y="109" width="119" height="126">
<path d="M153.893 135.181C155.263 130.899 156.69 126.527 159.476 122.988C162.25 119.46 166.714 116.892 171.143 117.611C175.504 118.319 178.747 121.892 181.167 124.769C186.282 120.088 191.59 115.43 197.903 112.565C204.217 109.699 211.797 108.854 218.019 111.903C224.07 114.859 228.043 121.196 229.207 127.828C230.372 134.461 228.99 141.345 226.422 147.567C223.853 153.789 220.143 159.475 216.832 166.199C219.811 164.429 223.236 162.877 226.661 163.516C231.194 164.349 234.287 168.927 234.858 173.494C235.429 178.061 234.002 182.627 232.244 187.525C237.142 185.093 243.512 187.936 246.126 192.731C248.741 197.526 248.158 203.553 245.921 208.542C243.695 213.531 240.007 217.698 237.747 223.018C239.276 221.557 242.131 222.493 242.953 224.445C243.774 226.386 242.907 228.738 241.354 230.176C239.802 231.615 237.724 232.311 235.669 232.802C229.607 234.263 223.305 234.298 217.072 234.275C190.985 234.172 164.739 228.647 138.949 231.82C137.602 231.992 136.209 231.855 135.045 231.147C133.88 230.439 132.956 229.423 132.054 228.395C130.718 226.866 129.337 224.993 129.748 223.018C130.079 221.409 131.586 220.233 133.172 219.799C134.759 219.365 136.449 219.513 139.394 218.44C129.519 190.767 144.749 163.607 153.882 135.181H153.893Z" fill="white"/>
</mask>
<g mask="url(#mask0_2503_11228)">
<path d="M214.445 235.45C216.329 227.836 220.941 220.929 227.243 216.271C233.545 211.613 241.502 209.227 249.334 209.649" stroke="white" stroke-linecap="round" stroke-linejoin="round"/>
<path d="M225.222 157.078C221.535 158.014 217.95 159.67 215.256 162.353C212.562 165.035 210.849 168.848 211.237 172.639C211.625 176.429 214.365 180.014 218.064 180.87C221.626 181.692 225.257 180.025 228.488 178.324C231.718 176.623 235.189 174.774 238.819 175.196" stroke="white" stroke-linecap="round" stroke-linejoin="round"/>
<path d="M185.836 117.416C186.099 121.823 187.274 126.287 189.957 129.803C192.629 133.319 196.956 135.739 201.362 135.385C206.945 134.952 211.249 130.476 216.283 128.01C222.117 125.156 229.241 125.099 235.121 127.873" stroke="white" stroke-linecap="round" stroke-linejoin="round"/>
<path d="M164.807 117.006C165.926 119.917 165.652 123.273 164.328 126.105C163.004 128.925 160.686 131.231 157.969 132.772C156.017 133.891 153.859 134.633 151.633 134.952" stroke="white" stroke-linecap="round" stroke-linejoin="round"/>
<path d="M194.49 242.414C195.106 234.8 195.734 227.105 194.513 219.559C193.302 212.024 190.049 204.535 184.135 199.694C176.726 193.621 165.903 192.605 156.93 195.995C147.968 199.386 140.833 206.692 136.346 215.163C131.859 223.634 129.827 233.213 128.948 242.757" stroke="white" stroke-linecap="round" stroke-linejoin="round"/>
</g>
<path d="M243.054 171.611C243.054 171.154 242.678 170.777 242.221 170.777C241.764 170.777 241.388 171.154 241.388 171.611C241.388 172.067 241.764 172.444 242.221 172.444C242.678 172.444 243.054 172.067 243.054 171.611Z" stroke="#100D18" stroke-linecap="round" stroke-linejoin="round"/>
<path d="M241.263 158.482V160.366" stroke="white" stroke-linecap="round" stroke-linejoin="round"/>
<path d="M240.326 159.43H242.21" stroke="white" stroke-linecap="round" stroke-linejoin="round"/>
<path d="M75.1656 66.2843C76.0294 66.2843 76.7297 65.5841 76.7297 64.7203C76.7297 63.8565 76.0294 63.1562 75.1656 63.1562C74.3018 63.1562 73.6016 63.8565 73.6016 64.7203C73.6016 65.5841 74.3018 66.2843 75.1656 66.2843Z" fill="#F1B791"/>
<path d="M81.125 59.7539V61.6262" stroke="white" stroke-linecap="round" stroke-linejoin="round"/>
<path d="M80.1885 60.6895H82.0608" stroke="white" stroke-linecap="round" stroke-linejoin="round"/>
<path d="M53.999 191.396V193.28" stroke="white" stroke-linecap="round" stroke-linejoin="round"/>
<path d="M53.0518 192.344H54.9355" stroke="white" stroke-linecap="round" stroke-linejoin="round"/>
<path d="M94.2194 224.126C84.9949 224.594 75.7477 224.126 66.7972 222.779C64.0002 222.356 61.8539 220.107 61.5571 217.299C60.7579 209.787 60.3926 202.172 60.6894 194.26C60.7922 191.395 62.8471 188.975 65.6442 188.415C75.0627 186.532 84.7895 185.961 94.813 187C97.7471 187.308 100.03 189.682 100.281 192.617C101.001 201.156 100.864 209.798 100.053 218.52C99.7678 221.58 97.2904 223.977 94.2194 224.137V224.126Z" fill="#FFD8B9"/>
<path d="M69.0459 236.64C69.0459 233.032 96.5137 230.109 130.386 230.109C164.259 230.109 191.726 233.032 191.726 236.64C191.726 240.247 164.259 243.17 130.386 243.17C96.5137 243.17 69.0459 240.247 69.0459 236.64Z" fill="#F1B791"/>
<path d="M122.099 215.154C123.229 208.898 124.804 202.733 126.814 196.705C126.814 196.705 129.245 197.367 129.257 197.538C128.206 203.772 126.665 209.925 124.61 215.896C124.644 215.885 124.667 215.862 122.099 215.154Z" stroke="white" stroke-width="1.06" stroke-linecap="round" stroke-linejoin="round"/>
<path d="M137.465 216.752C136.472 216.113 135.421 215.576 134.291 214.857C134.325 208.247 133.538 201.637 131.997 195.221C132.784 194.056 134.714 190.997 133.766 190.346C132.818 189.695 130.638 191.921 129.816 192.823C113.319 189.501 96.8568 190.015 81.205 193.874C80.1661 193.166 79.4925 192.606 78.7619 192.115C78.4765 191.921 78.1796 191.739 77.8486 191.67C77.5175 191.602 77.1293 191.67 76.8896 191.91C76.5243 192.287 76.6384 192.903 76.7982 193.405C77.2549 194.855 78.0541 195.769 78.819 197.07C77.0037 203.851 75.6566 210.975 74.9945 218.008C74.1154 218.773 73.2363 219.538 72.3573 220.303C72.0376 220.577 71.6951 220.908 71.6609 221.33C71.6266 221.844 72.1175 222.289 72.6313 222.357C73.145 222.437 73.6587 222.243 74.1268 222.026C74.5949 221.809 75.063 221.547 76.1818 221.615C95.1558 222.529 114.233 221.25 133.309 217.779C134.508 218.236 135.821 218.396 137.1 218.248C137.511 218.202 138.013 218.031 138.07 217.631C138.127 217.254 137.773 216.958 137.454 216.752H137.465Z" fill="#FFAA08"/>
<path d="M108.399 207.117C108.034 206.614 107.246 206.489 106.732 206.831C106.219 207.185 106.059 207.962 106.401 208.487C106.732 209.012 107.509 209.195 108.045 208.875C108.582 208.555 108.867 207.745 108.399 207.105V207.117Z" fill="#F28500" stroke="#F28500" stroke-linecap="round" stroke-linejoin="round"/>
<path d="M83.625 199.17C90.9657 200.848 98.1352 203.314 104.951 206.511" stroke="#F28500" stroke-linecap="round" stroke-linejoin="round"/>
<path d="M84.459 217.882C90.7723 213.909 97.7819 211.066 105.066 209.514" stroke="#F28500" stroke-linecap="round" stroke-linejoin="round"/>
<path d="M109.472 206.466C114.027 201.42 120.157 197.835 126.779 196.34" stroke="#F28500" stroke-linecap="round" stroke-linejoin="round"/>
<path d="M109.54 209.354C116.241 210.541 122.806 212.47 129.085 215.085" stroke="#F28500" stroke-linecap="round" stroke-linejoin="round"/>
<path d="M155.846 229.309C154.807 228.761 153.711 228.316 152.512 227.699C151.964 221.215 150.628 214.787 148.573 208.611C149.338 207.298 151.667 203.063 150.343 202.583C149.053 202.127 146.861 205.049 146.107 206.134C129.371 204.296 113.023 206.271 97.7705 211.499C96.6745 210.883 95.9439 210.392 95.179 209.97C94.8821 209.798 94.5625 209.639 94.22 209.604C93.8775 209.559 93.5008 209.661 93.2953 209.924C92.9642 210.335 93.1354 210.94 93.3409 211.419C93.9232 212.824 94.8022 213.657 95.6813 214.89C94.4826 221.797 93.7633 229.024 93.7405 236.079C92.9299 236.924 92.1194 237.757 91.3088 238.602C91.012 238.91 90.7037 239.264 90.7152 239.686C90.7266 240.2 91.2517 240.6 91.7769 240.623C92.2906 240.657 92.7929 240.417 93.2382 240.155C93.6834 239.892 94.1287 239.595 95.2475 239.561C114.233 238.773 133.116 235.816 151.804 230.656C153.037 230.999 154.362 231.044 155.617 230.782C156.028 230.702 156.508 230.485 156.531 230.074C156.553 229.697 156.177 229.435 155.846 229.252V229.309Z" fill="#E09927"/>
<path d="M126.026 222.3C125.616 221.832 124.816 221.775 124.337 222.163C123.857 222.563 123.766 223.35 124.154 223.841C124.531 224.332 125.319 224.446 125.832 224.081C126.335 223.716 126.552 222.882 126.026 222.289V222.3Z" fill="#662A0F" stroke="#662A0F" stroke-linecap="round" stroke-linejoin="round"/>
<path d="M100.659 216.58C108.126 217.596 115.478 219.411 122.556 221.991" stroke="#662A0F" stroke-linecap="round" stroke-linejoin="round"/>
<path d="M103.147 235.143C109.073 230.634 115.808 227.174 122.932 224.982" stroke="#662A0F" stroke-linecap="round" stroke-linejoin="round"/>
<path d="M127.054 221.557C131.141 216.135 136.929 212.013 143.391 209.936" stroke="#662A0F" stroke-linecap="round" stroke-linejoin="round"/>
<path d="M127.361 224.422C134.143 225.016 140.856 226.351 147.34 228.395" stroke="#662A0F" stroke-linecap="round" stroke-linejoin="round"/>
<g style="mix-blend-mode:multiply" opacity="0.09">
<path d="M179.9 167.468C145.799 172.685 111.287 175.288 76.787 175.242C71.5583 175.242 67.0488 171.543 66.0784 166.406C61.8429 143.973 60.2104 121.871 60.4844 99.2547C60.5529 93.8205 64.6171 89.2654 70.0056 88.5918C105.374 84.1622 141.13 81.9817 178.279 82.4155C183.998 82.484 188.69 86.9364 189.044 92.6446C190.391 114.461 190.403 136.267 189.17 157.341C188.873 162.479 185.003 166.691 179.911 167.468H179.9Z" fill="#100D18"/>
</g>
<path d="M181.464 167.571C147.238 171.943 112.68 173.678 78.1914 172.765C72.9627 172.628 68.5446 168.826 67.6998 163.666C64.0237 141.13 62.9505 119.005 63.7839 96.4009C63.9894 90.9781 68.1678 86.5143 73.5678 85.9777C109.039 82.4386 144.84 81.1372 181.955 82.5071C187.663 82.7126 192.253 87.2906 192.47 92.9988C193.28 114.838 192.732 136.644 190.974 157.673C190.54 162.799 186.567 166.909 181.464 167.571Z" fill="white"/>
<path d="M181.464 167.571C186.567 166.92 190.54 162.81 190.974 157.673C192.732 136.644 193.268 114.839 192.469 92.999C192.378 90.4189 191.385 88.0786 189.809 86.252C190.825 104.073 190.528 133.847 189.855 143.049C189.021 154.545 189.684 162.525 183.724 164.226C177.765 165.927 114.746 170.893 90.3838 170.322C80.4972 170.094 74.104 169.432 69.9941 168.747C71.9578 171.144 74.9146 172.674 78.1911 172.765C112.68 173.679 147.237 171.943 181.464 167.571Z" fill="#EB8455"/>
<path d="M190.392 104.734C190.609 120.158 190.323 136.632 189.855 143.059C189.022 154.556 189.684 162.536 183.725 164.237C177.765 165.938 114.747 170.904 90.3844 170.333C82.4956 170.15 76.8331 169.694 72.7803 169.168" stroke="#100D18" stroke-linecap="round" stroke-linejoin="round"/>
<path d="M189.935 88.877C190.129 92.8613 190.254 97.3137 190.346 101.914" stroke="#100D18" stroke-linecap="round" stroke-linejoin="round"/>
<path d="M96.7084 142.033C91.0345 142.09 85.3491 141.896 79.6866 141.439C76.7868 141.199 74.4465 138.928 74.1953 136.028C73.3391 126.107 73.2363 116.22 73.9898 106.585C74.2181 103.605 76.627 101.253 79.6067 101.071C85.703 100.694 91.7994 100.568 97.8957 100.774C101.115 100.888 103.661 103.548 103.65 106.768C103.604 116.506 103.273 126.301 102.622 136.439C102.428 139.555 99.8365 141.999 96.7084 142.033Z" stroke="#100D18" stroke-linecap="round" stroke-linejoin="round"/>
<path d="M91.5594 129.44C91.8563 131.415 92.0389 133.413 92.1074 135.422C92.1645 136.838 91.0914 138.059 89.6643 138.139C89.6529 138.139 89.6301 138.139 89.6187 138.139C88.2373 138.219 87.0386 137.215 86.8787 135.845C86.6161 133.618 86.4449 131.541 85.9768 129.508C82.2551 128.641 79.1727 125.456 78.4306 121.711C77.6885 117.955 79.3325 113.845 82.4492 111.63C85.5658 109.416 89.9954 109.222 93.2947 111.162C96.5941 113.103 98.5805 117.053 98.181 120.855C97.77 124.702 95.0414 128.093 91.5594 129.451V129.44Z" fill="#FFAA08"/>
<path d="M86.7764 134.932C88.5231 134.624 90.3154 134.544 92.0736 134.715" stroke="#F28500" stroke-linecap="round" stroke-linejoin="round"/>
<path d="M86.9814 136.643C88.6939 136.506 90.4292 136.541 92.1417 136.735" stroke="#F28500" stroke-linecap="round" stroke-linejoin="round"/>
<path d="M87.7124 134.795C87.2443 130.16 86.8904 125.833 86.6393 121.187C86.6164 120.742 86.6164 120.216 86.9589 119.92C87.3699 119.566 88.0549 119.794 88.3746 120.239C88.6942 120.684 88.7399 121.255 88.7741 121.803C88.797 122.134 88.8198 122.488 88.6714 122.785C88.523 123.082 88.1462 123.299 87.8494 123.15C87.5183 122.979 87.4955 122.522 87.5183 122.146C87.5526 121.609 87.5982 121.05 87.8608 120.57C88.1234 120.091 88.66 119.725 89.1851 119.84C90.0071 120.011 90.2126 121.061 90.2469 121.895C90.2697 122.408 90.1327 123.105 89.6189 123.116C89.0938 123.128 88.934 122.42 88.9454 121.906C88.9454 121.426 88.9682 120.936 89.1965 120.513C89.4249 120.102 89.9614 119.805 90.3838 119.999C90.8862 120.228 90.9547 120.913 90.9433 121.472C90.8633 125.925 90.8063 130.183 90.7263 134.635" stroke="#F28500" stroke-linecap="round" stroke-linejoin="round"/>
<path d="M76.5361 130.183C77.0499 129.738 77.5636 129.293 78.0773 128.836" stroke="#100D18" stroke-linecap="round" stroke-linejoin="round"/>
<path d="M83.0319 108.251C82.6552 107.429 82.2784 106.607 81.9131 105.785" stroke="#100D18" stroke-linecap="round" stroke-linejoin="round"/>
<path d="M94.585 107.635C94.996 106.882 95.3955 106.128 95.8065 105.375" stroke="#100D18" stroke-linecap="round" stroke-linejoin="round"/>
<path d="M98.0098 129.977C98.592 130.536 99.1742 131.095 99.7565 131.666" stroke="#100D18" stroke-linecap="round" stroke-linejoin="round"/>
<path d="M75.166 117.293C75.8396 117.35 76.5017 117.407 77.1753 117.476" stroke="#100D18" stroke-linecap="round" stroke-linejoin="round"/>
<path d="M99.4141 117.317C100.099 116.997 100.784 116.689 101.48 116.369" stroke="#100D18" stroke-linecap="round" stroke-linejoin="round"/>
<path d="M101.857 94.1973H75.4168C74.5782 94.1973 73.8984 94.8745 73.8984 95.7099C73.8984 96.5454 74.5782 97.2226 75.4168 97.2226H101.857C102.696 97.2226 103.376 96.5454 103.376 95.7099C103.376 94.8745 102.696 94.1973 101.857 94.1973Z" fill="#FFBAD7"/>
<path d="M94.094 161.566H75.4168C74.5782 161.566 73.8984 162.244 73.8984 163.079C73.8984 163.915 74.5782 164.592 75.4168 164.592H94.094C94.9326 164.592 95.6124 163.915 95.6124 163.079C95.6124 162.244 94.9326 161.566 94.094 161.566Z" fill="#FFBAD7"/>
<path d="M138.915 94.1973H112.474C111.636 94.1973 110.956 94.8745 110.956 95.7099C110.956 96.5454 111.636 97.2226 112.474 97.2226H138.915C139.753 97.2226 140.433 96.5454 140.433 95.7099C140.433 94.8745 139.753 94.1973 138.915 94.1973Z" fill="#FFBAD7"/>
<path d="M182.275 94.1973H157.581C156.742 94.1973 156.062 94.8745 156.062 95.7099C156.062 96.5454 156.742 97.2226 157.581 97.2226H182.275C183.113 97.2226 183.793 96.5454 183.793 95.7099C183.793 94.8745 183.113 94.1973 182.275 94.1973Z" fill="#FFBAD7"/>
<path d="M148.733 101.777H113.125C111.927 101.777 110.956 102.748 110.956 103.946V113.97C110.956 115.168 111.927 116.139 113.125 116.139H148.733C149.931 116.139 150.902 115.168 150.902 113.97V103.946C150.902 102.748 149.931 101.777 148.733 101.777Z" fill="#FFEAC6"/>
<path d="M148.733 117.748H113.125C111.927 117.748 110.956 118.719 110.956 119.917V120.785C110.956 121.983 111.927 122.954 113.125 122.954H148.733C149.931 122.954 150.902 121.983 150.902 120.785V119.917C150.902 118.719 149.931 117.748 148.733 117.748Z" fill="#FFEAC6"/>
<path d="M148.733 128.949H113.125C111.927 128.949 110.956 129.92 110.956 131.118V138.094C110.956 139.292 111.927 140.263 113.125 140.263H148.733C149.931 140.263 150.902 139.292 150.902 138.094V131.118C150.902 129.92 149.931 128.949 148.733 128.949Z" fill="#FFEAC6"/>
<path d="M77.1641 148.518H99.4146" stroke="#100D18" stroke-linecap="round" stroke-linejoin="round"/>
<path d="M77.1641 152.467H99.4146" stroke="#100D18" stroke-linecap="round" stroke-linejoin="round"/>
<path d="M77.1641 156.418H88.238" stroke="#100D18" stroke-linecap="round" stroke-linejoin="round"/>
<path d="M75.1662 155.618C77.4234 155.618 79.2532 153.788 79.2532 151.53C79.2532 149.273 77.4234 147.443 75.1662 147.443C72.9089 147.443 71.0791 149.273 71.0791 151.53C71.0791 153.788 72.9089 155.618 75.1662 155.618Z" fill="white" stroke="#100D18" stroke-linecap="round" stroke-linejoin="round"/>
<path d="M77.8716 139.805L78.2598 138.367L76.8213 137.979" stroke="#100D18" stroke-linecap="round" stroke-linejoin="round"/>
<path d="M78.2597 138.367C78.2597 138.367 71.5354 142.078 74.3667 147.523" stroke="#100D18" stroke-linecap="round" stroke-linejoin="round"/>
<path d="M76.9467 151.656L75.1657 149.875L73.3848 151.656H74.4465V153.403H75.885V151.656H76.9467Z" fill="#100D18" stroke="#100D18" stroke-linecap="round" stroke-linejoin="round"/>
<path d="M107.417 126.164L106.002 125.707L105.545 127.134" stroke="#100D18" stroke-linecap="round" stroke-linejoin="round"/>
<path d="M106.002 125.707C106.002 125.707 108.582 132.397 117.338 129.714" stroke="#100D18" stroke-linecap="round" stroke-linejoin="round"/>
<path d="M117.904 133.475C120.1 132.955 121.458 130.752 120.938 128.556C120.417 126.359 118.214 125.001 116.018 125.522C113.821 126.043 112.463 128.245 112.984 130.442C113.505 132.638 115.707 133.996 117.904 133.475Z" fill="white" stroke="#100D18" stroke-linecap="round" stroke-linejoin="round"/>
<path d="M118.457 130.525V128.002H115.945L116.698 128.755L115.454 130L116.47 131.016L117.715 129.771L118.457 130.525Z" fill="#100D18" stroke="#100D18" stroke-linecap="round" stroke-linejoin="round"/>
<path d="M163.7 102.908H159.088V107.52H163.7V102.908Z" stroke="#100D18" stroke-linecap="round" stroke-linejoin="round"/>
<path d="M165.995 104.348H179.935" stroke="#100D18" stroke-linecap="round" stroke-linejoin="round"/>
<path d="M165.995 106.652H172.651" stroke="#100D18" stroke-linecap="round" stroke-linejoin="round"/>
<path d="M160.127 104.347L162.068 106.539L164.271 102.246L161.817 104.975L160.127 104.347Z" fill="#EE3A59" stroke="#EE3A59" stroke-linecap="round" stroke-linejoin="round"/>
<path d="M163.7 112.338H159.088V116.95H163.7V112.338Z" stroke="#100D18" stroke-linecap="round" stroke-linejoin="round"/>
<path d="M165.995 113.775H179.935" stroke="#100D18" stroke-linecap="round" stroke-linejoin="round"/>
<path d="M165.995 116.07H175.745" stroke="#100D18" stroke-linecap="round" stroke-linejoin="round"/>
<path d="M163.7 121.768H159.088V126.38H163.7V121.768Z" stroke="#100D18" stroke-linecap="round" stroke-linejoin="round"/>
<path d="M165.995 123.205H179.935" stroke="#100D18" stroke-linecap="round" stroke-linejoin="round"/>
<path d="M165.995 125.5H169.135" stroke="#100D18" stroke-linecap="round" stroke-linejoin="round"/>
<path d="M163.7 131.188H159.088V135.8H163.7V131.188Z" stroke="#100D18" stroke-linecap="round" stroke-linejoin="round"/>
<path d="M165.995 132.627H179.935" stroke="#100D18" stroke-linecap="round" stroke-linejoin="round"/>
<path d="M165.995 134.932H178.336" stroke="#100D18" stroke-linecap="round" stroke-linejoin="round"/>
<path d="M160.127 132.626L162.068 134.818L164.271 130.525L161.817 133.254L160.127 132.626Z" fill="#EE3A59" stroke="#EE3A59" stroke-linecap="round" stroke-linejoin="round"/>
<g style="mix-blend-mode:multiply" opacity="0.09">
<path d="M149.965 128.846C151.803 128.332 153.55 127.488 155.068 126.312C156.712 125.033 158.071 123.423 159.11 121.62C161.427 121.585 163.699 120.364 165.001 118.446C166.336 116.471 166.599 113.822 165.686 111.63C165.526 111.242 165.32 110.865 165.046 110.557C165.138 110.146 165.206 109.735 165.24 109.313C165.377 107.395 164.829 105.431 165.32 103.582C165.72 102.063 166.747 100.807 167.489 99.4261C168.437 97.668 168.905 95.6244 168.642 93.6494C168.38 91.6744 167.352 89.7678 165.731 88.6034C164.293 87.5759 162.478 87.1649 160.697 87.1535C158.927 87.1307 157.169 87.4846 155.434 87.8271C151.347 84.7789 146.483 83.8998 142.145 85.0985C137.807 86.2973 134.085 89.5623 132.327 93.7065C132.464 93.2727 131.573 93.2156 131.06 93.6266C130.546 94.0376 130.386 94.7682 130.477 95.419C130.58 96.0697 130.888 96.6633 131.208 97.2456C128.457 98.2274 126.584 100.18 125.511 102.509C124.666 104.347 124.347 106.413 124.575 108.593C122.246 109.176 120.271 111.139 119.769 113.503C119.198 116.208 120.602 119.211 123.045 120.512C124.472 121.266 126.151 121.46 127.749 121.311C128.731 121.22 130.089 121.106 131.037 120.843C132.978 124.177 135.957 126.894 139.531 128.332C140.615 128.766 141.745 129.074 142.887 129.257C142.796 131.141 142.636 134.212 142.636 134.2C136.163 133.047 129.964 133.356 124.244 135.399C122.965 135.856 121.721 136.392 120.522 136.997C113.775 140.4 108.17 145.936 102.621 151.177C99.3449 154.282 96.0683 157.353 93.0658 160.549C88.8988 165.002 85.2342 169.717 82.734 175.151C81.5924 177.628 80.7133 180.368 80.6676 183.051C80.6448 184.478 80.8617 185.882 81.3983 187.218C82.9623 191.123 87.0608 193.589 91.2278 194.148C95.3948 194.707 99.6074 193.634 103.535 192.127C105.692 191.305 107.782 190.346 109.871 189.353C110.385 195.997 111.286 202.585 112.942 208.944C114.106 213.464 115.647 217.871 117.691 222.118C120.02 226.97 123.433 231.879 128.628 233.283C132.761 234.402 137.259 232.986 140.706 230.463C144.166 227.94 146.734 224.413 149.086 220.839C149.543 220.154 149.988 219.458 150.433 218.762C149.691 221.559 149.018 224.379 148.447 227.21C148.081 229.014 147.739 230.817 147.442 232.633C153.299 234.06 159.703 234.436 166.119 234.722C167.421 234.779 168.722 234.836 170.001 234.619C170.492 234.539 171.04 234.356 171.211 233.888C171.451 233.238 170.777 232.621 170.149 232.347C169.293 231.97 168.357 231.788 167.478 231.445C166.61 231.103 165.754 230.532 165.4 229.664C165.149 229.048 165.183 228.374 165.32 227.712C165.4 227.313 165.526 226.902 165.651 226.513C166.325 224.436 166.998 222.369 167.661 220.291C167.992 219.287 168.311 218.282 168.642 217.278C171.234 217.826 173.848 218.191 176.417 218.374C179.853 208.647 183.347 198.874 185.733 188.885C189.808 193.6 194.238 198.052 199.535 202.037C201.008 200.632 202.446 199.194 203.839 197.71C204.958 199.285 206.1 200.838 207.298 202.356C208.908 204.411 210.609 206.421 212.39 208.396C214.148 210.348 215.986 212.266 217.927 214.149C223.315 209.663 228.339 204.754 232.951 199.468C233.522 198.806 234.104 197.824 233.545 197.15C233.122 196.637 232.3 196.717 231.695 196.979C230.839 197.345 230.131 197.961 229.332 198.452C228.544 198.931 227.585 199.297 226.695 199.057C225.736 198.806 225.074 197.95 224.491 197.139C224.446 197.071 224.4 197.002 224.343 196.945C222.767 194.787 221.112 192.675 219.354 190.278C218.943 189.707 218.521 189.136 218.087 188.531C217.025 187.024 215.952 185.529 214.867 184.033L214.845 184.056C214.845 184.056 214.844 184.044 214.856 184.033H214.867C212.105 180.197 209.296 176.395 206.408 172.674C206.431 172.639 206.465 172.605 206.488 172.56C210.849 166.714 213.121 159.648 215.141 152.615C216.842 152.741 218.589 152.695 220.347 152.432C220.507 151.656 220.644 150.868 220.792 150.081C222.425 150.298 224.092 150.457 225.667 150.024C226.158 149.887 226.729 149.59 226.752 149.076C226.763 148.779 226.581 148.505 226.341 148.334C226.101 148.163 225.804 148.083 225.519 148.003C224.948 147.854 224.354 147.752 223.772 147.672C224.457 147.341 224.663 146.781 224.651 146.37C224.64 145.891 224.32 145.457 223.921 145.206C223.635 145.035 223.315 144.932 222.984 144.875C223.144 144.841 223.315 144.818 223.475 144.783C224.229 144.635 224.583 143.927 224.48 143.334C224.4 142.843 224.058 142.432 223.635 142.169C224.183 141.929 224.651 141.393 224.617 140.799C224.583 140.308 224.229 139.886 223.806 139.657C223.384 139.429 222.882 139.338 222.402 139.258C222.71 136.575 222.939 133.881 223.099 131.175C223.738 131.187 224.377 131.209 225.017 131.221L224.206 128.709C223.43 128.492 222.642 128.31 221.843 128.161C221.58 127.533 221.249 126.917 220.861 126.357C217.721 125.638 214.422 125.741 211.283 126.494C210.666 127.008 210.312 127.693 210.107 128.412C209.387 128.584 208.68 128.766 207.972 128.995C207.744 129.565 207.515 130.125 207.504 130.787L209.422 130.833C209.262 133.835 209.273 136.849 209.422 139.886C208.383 140.902 207.447 142.021 206.625 143.219C205.278 145.217 203.965 147.249 202.675 149.304C201.784 150.731 200.894 152.181 200.026 153.631C200.22 151.291 200.38 148.962 200.483 146.633C200.608 143.893 198.69 141.473 195.985 141.005C188.256 139.635 180.378 138.938 172.467 138.858C166.359 134.018 157.911 132.123 150.342 133.984" fill="#100D18"/>
</g>
<path d="M154.977 110.958C155.491 110.547 156.005 110.124 156.61 109.85C157.215 109.588 157.922 109.496 158.528 109.748C159.201 110.033 159.635 110.684 159.932 111.346C160.902 113.515 160.708 116.175 159.429 118.173C158.151 120.171 155.822 121.472 153.447 121.507L154.966 110.946L154.977 110.958Z" fill="#D5603E"/>
<g style="mix-blend-mode:multiply" opacity="0.09">
<path d="M156.507 109.908C155.948 110.171 155.457 110.57 154.977 110.959L153.459 121.519C153.859 121.519 154.27 121.473 154.658 121.393C156.827 117.603 156.77 112.545 156.507 109.908Z" fill="#100D18"/>
</g>
<path d="M137.636 128.572C137.545 132.556 137.442 136.552 137.351 140.536C137.351 140.536 140.205 141.643 142.499 141.415C144.155 141.255 145.411 139.748 145.639 139.691C145.285 135.775 144.942 131.871 144.589 127.955L137.625 128.572H137.636Z" fill="#D5603E"/>
<g style="mix-blend-mode:multiply" opacity="0.09">
<path d="M137.567 131.46C139.337 131.768 142.271 132.088 144.908 131.483C144.805 130.307 144.702 129.131 144.588 127.955L137.624 128.572C137.601 129.531 137.578 130.501 137.556 131.46H137.567Z" fill="#100D18"/>
</g>
<path d="M155.319 115.763C157.705 114.416 159.315 111.79 159.429 109.062C159.509 107.144 158.927 105.192 159.361 103.331C159.715 101.801 160.719 100.522 161.427 99.1181C162.329 97.3372 162.74 95.2822 162.432 93.3072C162.123 91.3322 161.05 89.4599 159.395 88.3411C157.922 87.3478 156.096 86.9939 154.326 87.0168C152.556 87.051 150.81 87.4392 149.074 87.8159C144.919 84.8819 140.021 84.117 135.717 85.4299C131.413 86.7428 127.771 90.0992 126.128 94.289C126.253 93.8552 125.363 93.8209 124.86 94.2433C124.358 94.6657 124.21 95.4078 124.324 96.0585C124.438 96.7093 124.769 97.2915 125.1 97.8623C122.383 98.9126 120.556 100.911 119.552 103.274C118.547 105.625 118.364 108.331 119.118 111.151C120.374 113.457 122.554 115.17 124.952 116.254C127.349 117.339 129.975 117.83 132.578 118.126C139.268 118.903 146.94 120.478 155.308 115.752L155.319 115.763Z" fill="#3A257A"/>
<path d="M125.546 121.459C124.598 121.756 123.251 121.904 122.269 122.019C120.671 122.213 118.993 122.064 117.543 121.345C115.066 120.112 113.581 117.144 114.084 114.427C114.586 111.71 117.029 109.46 119.792 109.198C121.253 109.061 122.886 109.518 123.719 110.728C124.29 111.55 124.427 112.611 125.032 113.411C125.192 113.627 125.409 113.833 125.671 113.89C126.014 113.959 126.356 113.764 126.573 113.502C126.79 113.228 126.893 112.897 126.996 112.566C128.286 108.399 129.405 104.175 130.341 100.373C137.316 104.848 146.221 106.161 154.292 103.969C155.674 107.782 156.233 111.938 155.548 115.945C154.852 119.941 152.854 123.765 149.714 126.334C145.479 129.793 139.348 130.649 134.222 128.743C130.615 127.396 127.566 124.758 125.546 121.482" fill="#D5603E"/>
<path d="M151.426 119.689C149.737 120.146 148.424 121.767 148.332 123.514C148.275 124.61 148.698 125.717 149.44 126.528C149.531 126.459 149.634 126.391 149.725 126.311C151.769 124.644 153.333 122.441 154.36 119.997C153.458 119.552 152.397 119.415 151.426 119.678V119.689Z" fill="#DE785B"/>
<path d="M133.628 121.093C132.669 119.62 130.728 118.878 129.027 119.335C127.623 119.712 126.482 120.888 126.082 122.281C127.486 124.313 129.301 126.048 131.402 127.338C132.167 127.087 132.863 126.642 133.377 126.014C134.484 124.655 134.587 122.566 133.628 121.093Z" fill="#DE785B"/>
<path d="M117.326 115.865C118.274 114.29 120.112 113.285 121.95 113.342" stroke="#BA4B2B" stroke-linecap="round" stroke-linejoin="round"/>
<path d="M119.084 114.119C119.221 115.227 119.689 116.277 120.408 117.133" stroke="#BA4B2B" stroke-linecap="round" stroke-linejoin="round"/>
<path d="M131.916 111.721C132.316 110.876 133.115 110.225 134.017 110.02C134.93 109.814 135.923 110.054 136.642 110.647" stroke="#100D18" stroke-linecap="round" stroke-linejoin="round"/>
<path d="M135.604 108.376C134.359 109.095 132.875 109.369 131.459 109.152C131.151 109.106 130.786 108.981 130.74 108.673C130.706 108.49 130.809 108.319 130.911 108.159C131.631 107.166 132.886 106.743 134.062 106.378C134.508 106.241 134.953 106.104 135.409 106.138C135.866 106.172 136.334 106.435 136.483 106.869C136.631 107.303 136.346 107.931 135.604 108.364V108.376Z" fill="#3A257A"/>
<path d="M153.539 110.831C153.037 110.044 152.146 109.519 151.222 109.45C150.297 109.37 149.338 109.747 148.71 110.432" stroke="#100D18" stroke-linecap="round" stroke-linejoin="round"/>
<path d="M149.417 108.045C150.742 108.581 152.26 108.65 153.63 108.239C153.927 108.148 154.269 107.976 154.281 107.668C154.281 107.485 154.167 107.326 154.041 107.189C153.196 106.298 151.883 106.058 150.673 105.864C150.216 105.796 149.748 105.716 149.303 105.819C148.858 105.921 148.424 106.241 148.333 106.698C148.241 107.154 148.618 107.737 149.417 108.056V108.045Z" fill="#3A257A"/>
<path d="M143.48 109.414C143.937 110.042 144.177 110.818 144.154 111.595" stroke="#BA4B2B" stroke-linecap="round" stroke-linejoin="round"/>
<path d="M171.188 141.974C165 134.645 154.349 131.586 145.136 134.097C145.147 134.143 146.106 137.294 145.284 138.835C144.451 140.388 142.499 141.415 142.499 141.415C142.499 141.415 140.603 141.438 138.902 139.725C137.213 138.024 137.487 134.554 137.487 134.52C130.991 133.538 124.803 134.006 119.141 136.186C117.873 136.677 116.652 137.248 115.465 137.876L104.87 168.917C105.372 182.697 105.966 196.865 109.734 209.993C109.734 209.993 127.657 203.452 143.469 192.332C159.281 181.224 175.971 149.544 175.971 149.544C174.613 146.861 173.129 144.258 171.188 141.963V141.974Z" fill="white"/>
<path d="M166.187 137.557C160.319 133.675 152.773 132.282 145.935 133.892" stroke="#E2E0FF" stroke-linecap="round" stroke-linejoin="round"/>
<path d="M136.654 134.394C130.466 133.572 124.564 134.097 119.141 136.186C117.874 136.677 116.652 137.248 115.465 137.876" stroke="#E2E0FF" stroke-linecap="round" stroke-linejoin="round"/>
<g style="mix-blend-mode:multiply" opacity="0.09">
<path d="M137.784 164.155C134.291 164.623 130.751 164.771 127.224 164.612C126.265 164.566 125.443 163.892 125.214 162.956C124.724 160.901 124.632 158.881 124.895 156.917C125.032 155.947 125.808 155.193 126.779 155.079C130.318 154.657 133.902 154.542 137.521 154.748C138.595 154.816 139.474 155.661 139.542 156.734C139.656 158.527 139.679 160.319 139.645 162.077C139.622 163.128 138.823 164.007 137.784 164.144V164.155Z" fill="#100D18"/>
</g>
<path d="M136.871 163.608C133.366 163.961 129.815 163.996 126.299 163.722C125.34 163.642 124.541 162.945 124.347 161.998C123.924 159.92 123.902 157.911 124.221 155.947C124.381 154.977 125.192 154.258 126.162 154.178C129.712 153.869 133.297 153.869 136.905 154.2C137.978 154.303 138.823 155.182 138.857 156.255C138.914 158.059 138.88 159.852 138.789 161.598C138.731 162.649 137.909 163.493 136.859 163.608H136.871Z" fill="white"/>
<path d="M135.375 163.745C132.361 163.973 129.325 163.962 126.311 163.722C125.352 163.642 124.553 162.946 124.359 161.998C123.936 159.92 123.913 157.911 124.233 155.947C124.393 154.977 125.203 154.258 126.174 154.178" stroke="#100D18" stroke-linecap="round" stroke-linejoin="round"/>
<path d="M127.84 154.064C130.842 153.881 133.879 153.927 136.927 154.212C138 154.315 138.845 155.194 138.879 156.267C138.937 158.071 138.902 159.863 138.811 161.61C138.754 162.66 137.932 163.505 136.882 163.619" stroke="#100D18" stroke-linecap="round" stroke-linejoin="round"/>
<path d="M132.018 151.986H132.098C132.646 151.986 133.103 152.432 133.103 152.991V154.92C133.103 155.468 132.658 155.925 132.098 155.925H132.018C131.47 155.925 131.014 155.48 131.014 154.92V152.991C131.014 152.443 131.459 151.986 132.018 151.986Z" fill="#100D18"/>
<path d="M129.393 157.443C128.696 156.918 127.669 156.895 126.938 157.386C126.219 157.877 125.865 158.848 126.093 159.681C126.322 160.526 127.132 161.165 128 161.222C128.867 161.279 129.747 160.72 130.078 159.921C130.409 159.11 130.215 158.06 129.393 157.443Z" fill="#D5603E"/>
<path d="M132.498 157.34C133.971 157.34 135.443 157.34 136.916 157.34" stroke="#100D18" stroke-linecap="round" stroke-linejoin="round"/>
<path d="M132.624 159.27L136.928 159.429" stroke="#100D18" stroke-linecap="round" stroke-linejoin="round"/>
<path d="M132.703 161.404C133.594 161.484 134.484 161.472 135.375 161.381" stroke="#100D18" stroke-linecap="round" stroke-linejoin="round"/>
<path d="M137.498 134.508C137.498 134.508 132.966 140.148 132.246 143.413C132.041 144.326 132.874 145.125 133.776 144.897C136.744 144.166 139.861 142.933 142.51 141.415C140.831 138.778 137.498 134.508 137.498 134.508Z" fill="#EB8455"/>
<path d="M153.162 141.997C151.552 138.847 145.136 134.086 145.136 134.086C145.136 134.086 143.549 138.698 142.499 141.404C145.524 142.694 148.778 143.47 152.146 143.562C152.968 143.584 153.539 142.728 153.162 141.986V141.997Z" fill="#EB8455"/>
<g style="mix-blend-mode:multiply" opacity="0.09">
<path d="M175.983 149.555C174.967 147.557 173.883 145.605 172.604 143.79C165.868 142.191 160.4 147.238 144.919 160.401C138.789 165.606 133.628 171.395 129.484 176.76L125.511 176.384C125.511 176.384 101.777 191.054 106.914 181.909C112.051 172.765 114.369 162.935 114.369 162.935L106.503 164.168L104.882 168.906C105.224 178.313 105.612 187.903 107.028 197.218C112.04 189.832 119.872 186.396 119.872 186.396L122.44 186.795C119.027 192.184 117.269 195.86 117.269 195.86L120.545 205.393C127.018 202.367 135.523 197.926 143.481 192.332C159.292 181.224 175.983 149.544 175.983 149.544V149.555Z" fill="#100D18"/>
</g>
<path d="M76.8091 184.958C76.7862 182.275 77.5968 179.501 78.6699 177.001C81.0331 171.498 84.5722 166.692 88.625 162.137C88.625 162.137 97.0047 166.521 103.946 176.864L76.8091 184.958Z" fill="#D5603E"/>
<path d="M115.465 137.877C108.809 141.45 103.352 147.136 97.9411 152.524C94.7445 155.709 91.5593 158.86 88.6367 162.148C92.347 168.005 97.336 173.074 103.958 176.875C108.193 172.88 111.721 168.142 114.358 162.947L115.465 137.877Z" fill="white"/>
<path d="M104.46 176.384C108.467 172.491 111.824 167.925 114.358 162.947" stroke="#E2E0FF" stroke-linecap="round" stroke-linejoin="round"/>
<path d="M115.466 137.877C108.81 141.45 103.353 147.136 97.9413 152.524C94.9845 155.47 92.0391 158.381 89.3105 161.395" stroke="#E2E0FF" stroke-linecap="round" stroke-linejoin="round"/>
<path d="M92.495 178.039C105.738 172 121.104 170.756 135.147 174.569C134.405 177.297 132.966 179.877 131.025 182.012C125.192 181.841 119.826 183.748 114.825 186.111C109.814 188.474 105.042 191.328 99.9157 193.44C96.0341 195.05 91.8443 196.237 87.6659 195.781C83.4875 195.335 79.3205 192.961 77.6537 189.113C77.0829 187.789 76.8317 186.385 76.8203 184.969L92.495 178.051V178.039Z" fill="#D5603E"/>
<path d="M82.2549 189.25C82.3234 190.026 82.78 190.768 83.4422 191.168C84.1043 191.579 84.972 191.636 85.6912 191.339" stroke="#BA4B2B" stroke-linecap="round" stroke-linejoin="round"/>
<path d="M131.025 182.013C125.191 181.841 119.826 183.748 114.825 186.111C112.154 187.378 109.54 188.783 106.902 190.13" stroke="#BA4B2B" stroke-linecap="round" stroke-linejoin="round"/>
<path d="M92.4951 178.039C105.738 172 121.105 170.756 135.147 174.569" stroke="#BA4B2B" stroke-linecap="round" stroke-linejoin="round"/>
<path d="M175.983 149.555C177.844 153.243 179.465 157.101 181.645 160.606C182.365 161.759 183.187 162.912 184.328 163.654C185.47 164.396 187.023 164.659 188.198 163.986C189.1 163.472 189.648 162.536 190.151 161.634C192.719 157.101 195.231 152.535 197.868 148.071C197.868 148.071 200.482 144.852 204.467 145.08C208.451 145.308 210.997 148.859 210.997 148.859C209.022 156.656 206.944 164.659 202.298 171.223C197.651 177.799 189.797 182.731 181.828 181.567C174.59 180.516 168.939 174.865 164.532 169.043L175.971 149.567L175.983 149.555Z" fill="#D5603E"/>
<g style="mix-blend-mode:multiply" opacity="0.09">
<path d="M192.205 157.991C191.52 159.202 190.847 160.423 190.162 161.633C189.659 162.535 189.1 163.471 188.209 163.985C187.022 164.659 185.481 164.396 184.339 163.654C183.198 162.912 182.387 161.759 181.656 160.606C179.476 157.101 177.855 153.242 175.994 149.555L164.555 169.031C168.961 174.865 174.613 180.505 181.851 181.555C189.819 182.708 197.674 177.776 202.32 171.212C202.72 170.641 203.108 170.047 203.473 169.453C200.277 166.074 196.315 161.941 192.205 157.98V157.991Z" fill="#100D18"/>
</g>
<path d="M216.089 145.778C217.63 145.698 219.182 145.835 220.689 146.178C220.975 146.246 221.272 146.315 221.523 146.486C221.774 146.657 221.968 146.92 221.957 147.216C221.945 147.73 221.386 148.038 220.895 148.187C219.194 148.701 217.367 148.518 215.598 148.324L216.089 145.778Z" fill="#D5603E"/>
<path d="M217.87 128.606C217.642 136.016 216.9 143.425 215.644 150.731C212.299 151.314 209.034 151.142 205.894 150.389C204.581 143.162 203.908 135.947 204.147 128.778C208.406 127.819 212.881 127.819 217.859 128.618L217.87 128.606Z" fill="#FFAA08"/>
<path d="M214.045 134.28C212.767 133.024 210.678 132.693 209.079 133.492C207.481 134.291 206.488 136.163 206.716 137.933C206.944 139.702 208.394 141.255 210.141 141.609C211.899 141.963 213.829 141.107 214.742 139.565C215.655 138.024 215.598 135.798 214.045 134.28Z" fill="white"/>
<path d="M218.874 126.918C213.634 125.582 208.006 125.799 202.64 127.626C202.423 128.197 202.218 128.767 202.218 129.43C208.063 129.43 213.897 129.418 219.742 129.407L218.874 126.906V126.918Z" fill="white"/>
<path d="M205.061 129.429C209.102 129.429 213.143 129.429 217.185 129.418" stroke="#100D18" stroke-linecap="round" stroke-linejoin="round"/>
<path d="M204.706 127.248C204.877 126.414 205.22 125.626 205.893 125.033C209.01 124.188 212.309 124.005 215.46 124.645C215.985 125.364 216.408 126.14 216.728 126.974L204.706 127.248Z" fill="white"/>
<path d="M215.859 126.323C212.469 125.855 208.975 126.004 205.539 126.803" stroke="#100D18" stroke-linecap="round" stroke-linejoin="round"/>
<path d="M210.701 121.7C209.365 120.558 209.605 118.446 210.118 116.757C210.632 115.067 211.283 113.183 210.438 111.642C209.993 110.82 209.182 110.249 208.554 109.553C207.926 108.857 207.447 107.841 207.847 106.996C208.109 106.436 208.68 106.094 209.045 105.603C209.81 104.587 209.616 103.171 209.296 101.938C208.977 100.717 208.554 99.4039 208.977 98.2052C209.376 97.0521 210.609 96.2301 211.831 96.31C213.052 96.39 214.171 97.3489 214.434 98.5477C215.039 101.333 211.443 103.754 212.048 106.528C212.39 108.103 213.989 109.142 214.434 110.683C214.811 112.008 214.274 113.435 213.532 114.588C212.79 115.752 211.842 116.791 211.271 118.047C210.701 119.303 210.609 120.912 210.712 121.689L210.701 121.7Z" fill="white"/>
<path d="M218.566 146.051C217.322 146.462 215.975 146.531 214.696 146.257C214.171 146.143 213.577 145.903 213.44 145.378C213.28 144.807 213.748 144.27 214.239 143.939C215.232 143.277 216.443 143.003 217.63 143.06C218.109 143.083 218.589 143.174 219.011 143.414C219.422 143.654 219.753 144.076 219.776 144.556C219.799 145.035 219.548 145.72 218.566 146.04V146.051Z" fill="#D5603E"/>
<path d="M218.566 146.051C217.322 146.462 215.975 146.531 214.696 146.257C214.171 146.143 213.577 145.903 213.44 145.378C213.28 144.807 213.748 144.27 214.239 143.939C215.232 143.277 216.443 143.003 217.63 143.06C218.109 143.083 218.589 143.174 219.011 143.414C219.422 143.654 219.753 144.076 219.776 144.556C219.799 145.035 219.548 145.72 218.566 146.04V146.051Z" stroke="#BA4B2B" stroke-linecap="round" stroke-linejoin="round"/>
<path d="M218.566 143.004C216.979 143.358 215.301 143.689 213.759 143.175C213.189 142.981 212.583 142.57 212.595 141.976C212.595 141.371 213.211 140.96 213.759 140.732C214.661 140.355 215.62 140.127 216.591 140.047C217.196 140.001 217.812 140.024 218.372 140.241C218.931 140.469 219.41 140.937 219.536 141.531C219.65 142.125 219.319 142.832 218.566 143.004Z" fill="#D5603E"/>
<path d="M218.566 143.004C216.979 143.358 215.301 143.689 213.759 143.175C213.189 142.981 212.583 142.57 212.595 141.976C212.595 141.371 213.211 140.96 213.759 140.732C214.661 140.355 215.62 140.127 216.591 140.047C217.196 140.001 217.812 140.024 218.372 140.241C218.931 140.469 219.41 140.937 219.536 141.531C219.65 142.125 219.319 142.832 218.566 143.004Z" stroke="#BA4B2B" stroke-linecap="round" stroke-linejoin="round"/>
<path d="M216.853 140.561C215.643 140.698 214.41 140.504 213.291 140.024C212.846 139.83 212.389 139.545 212.298 139.065C212.184 138.449 212.789 137.946 213.371 137.718C214.616 137.227 216.008 137.33 217.344 137.501C217.824 137.57 218.326 137.638 218.76 137.866C219.194 138.095 219.559 138.506 219.605 138.997C219.662 139.613 219.182 140.184 218.611 140.424C218.041 140.663 217.401 140.663 216.865 140.561H216.853Z" fill="#D5603E"/>
<path d="M216.853 140.561C215.643 140.698 214.41 140.504 213.291 140.024C212.846 139.83 212.389 139.545 212.298 139.065C212.184 138.449 212.789 137.946 213.371 137.718C214.616 137.227 216.008 137.33 217.344 137.501C217.824 137.57 218.326 137.638 218.76 137.866C219.194 138.095 219.559 138.506 219.605 138.997C219.662 139.613 219.182 140.184 218.611 140.424C218.041 140.663 217.401 140.663 216.865 140.561H216.853Z" stroke="#BA4B2B" stroke-linecap="round" stroke-linejoin="round"/>
<path d="M197.868 148.06C199.101 145.971 200.357 143.904 201.658 141.872C202.96 139.829 204.627 138.036 206.499 136.495C206.864 136.198 207.241 135.901 207.698 135.799C208.154 135.696 208.702 135.867 208.908 136.278C209.09 136.643 208.965 137.089 208.816 137.465C208.166 139.201 207.161 140.81 206.179 142.454C207.23 145.446 206.887 148.905 205.266 151.622" fill="#D5603E"/>
<path d="M197.868 148.06C199.101 145.971 200.357 143.904 201.658 141.872C202.96 139.829 204.627 138.036 206.499 136.495C206.864 136.198 207.241 135.901 207.698 135.799C208.154 135.696 208.702 135.867 208.908 136.278C209.09 136.643 208.965 137.089 208.816 137.465C208.166 139.201 207.161 140.81 206.179 142.454C207.23 145.446 206.887 148.905 205.266 151.622" stroke="#BA4B2B" stroke-linecap="round" stroke-linejoin="round"/>
<path d="M147.637 218.157C155.651 222.004 164.75 219.915 164.75 219.915C165.115 218.693 165.469 217.472 165.834 216.262L150.057 209.48C149.167 212.346 148.356 215.246 147.637 218.168V218.157Z" fill="#D5603E"/>
<g style="mix-blend-mode:multiply" opacity="0.09">
<path d="M150.057 209.48C149.167 212.346 148.356 215.246 147.637 218.168C149.68 219.15 151.804 219.744 153.824 220.086C155.012 217.655 156.142 215.132 157.215 212.563L150.057 209.48Z" fill="#100D18"/>
</g>
<path d="M147.636 218.157C146.894 221.194 146.255 224.265 145.707 227.336C157.044 230.989 162.592 227.382 162.592 227.382C162.672 226.971 162.786 226.571 162.9 226.183C163.517 224.094 164.133 222.005 164.75 219.915C159.201 218.386 153.39 217.792 147.636 218.157Z" fill="white"/>
<path d="M148.972 220.667C153.116 220.645 157.26 220.907 161.37 221.467" stroke="#E2E0FF" stroke-linecap="round" stroke-linejoin="round"/>
<g style="mix-blend-mode:multiply" opacity="0.09">
<path d="M147.636 218.157C146.894 221.193 146.255 224.264 145.707 227.335C146.986 227.746 148.196 228.066 149.337 228.306C151.244 225.201 153.048 221.787 154.726 218.191C152.374 218.02 150 217.997 147.648 218.145L147.636 218.157Z" fill="#100D18"/>
</g>
<path d="M162.627 231.045C163.426 229.652 164.533 228.419 165.835 227.483C166.04 227.335 166.337 227.198 166.52 227.381C166.657 227.529 166.6 227.769 166.52 227.951C165.983 229.139 164.876 229.949 163.814 230.714C164.819 230.246 165.846 229.767 166.954 229.744C167.205 229.744 167.547 229.835 167.547 230.098C167.547 230.257 167.399 230.383 167.262 230.474C166.326 231.091 165.287 231.548 164.202 231.822C163.883 231.901 163.552 231.959 163.243 231.879C162.935 231.799 162.638 231.536 162.627 231.057V231.045Z" stroke="#100D18" stroke-linecap="round" stroke-linejoin="round"/>
<path d="M167.536 231.901C166.668 231.547 165.732 231.399 164.853 231.068C163.974 230.748 163.106 230.2 162.729 229.344C162.455 228.728 162.478 228.065 162.592 227.392C156.975 227.004 151.324 226.981 145.707 227.346C145.388 229.15 145.091 230.965 144.84 232.792C150.731 234.059 157.147 234.276 163.563 234.39C164.864 234.413 166.166 234.436 167.444 234.185C167.935 234.093 168.483 233.888 168.643 233.42C168.871 232.769 168.175 232.164 167.536 231.901Z" fill="#100D18"/>
<path d="M185.972 186.374C160.103 186.58 134.233 185.598 108.455 183.451C107.633 183.383 106.948 182.732 106.903 181.91C106.903 181.899 106.903 181.876 106.903 181.853C106.857 180.974 107.553 180.232 108.421 180.141C116.321 179.319 124.073 179.159 132.235 179.581C133.8 167.868 136.128 156.258 139.61 144.91C140.33 142.558 142.328 140.823 144.748 140.423C160.091 137.923 175.778 137.66 190.961 139.932C193.679 140.343 195.654 142.706 195.596 145.446C195.38 157.411 193.895 169.432 191.35 181.956C190.824 184.513 188.587 186.363 185.972 186.374Z" fill="#FFEAC6"/>
<path d="M142.556 145.172C142.659 144.601 142.761 144.007 142.647 143.437C142.544 142.866 142.179 142.295 141.62 142.124C141.551 142.101 141.471 142.09 141.391 142.078C140.569 142.843 139.953 143.813 139.61 144.921C136.128 156.269 133.8 167.879 132.235 179.592C124.061 179.17 116.321 179.33 108.421 180.152C107.553 180.243 106.857 180.985 106.903 181.864C106.903 181.876 106.903 181.899 106.903 181.91C106.96 182.732 107.633 183.383 108.455 183.451C117.486 184.205 126.527 184.81 135.581 185.278C137.909 171.909 140.227 158.541 142.556 145.172Z" fill="#F4BA64"/>
<g style="mix-blend-mode:multiply" opacity="0.09">
<path d="M175.983 145.057C167.352 140.776 162.877 145.126 144.907 160.401C140.569 164.088 136.722 168.05 133.377 171.954C132.954 174.489 132.578 177.035 132.235 179.581C130.625 179.501 129.039 179.444 127.463 179.409C126.139 181.224 124.929 182.96 123.855 184.592C144.531 185.939 165.251 186.533 185.972 186.373C188.575 186.35 190.824 184.512 191.349 181.955C192.845 174.637 193.964 167.491 194.683 160.424C188.221 154.019 181.086 147.592 175.983 145.057Z" fill="#100D18"/>
</g>
<path d="M133.297 172.401C134.804 163.12 136.847 153.93 139.61 144.911C140.329 142.559 142.327 140.824 144.748 140.424C151.632 139.305 158.573 138.632 165.514 138.438" stroke="#100D18" stroke-linecap="round" stroke-linejoin="round"/>
<path d="M214.32 186.877C213.213 185.405 212.105 183.932 210.987 182.471L199.604 195.474C200.974 197.346 202.413 199.184 203.897 200.977C203.897 200.977 210.165 197.232 215.622 188.59C215.188 188.03 214.754 187.471 214.309 186.877H214.32Z" fill="#D5603E"/>
<path d="M203.896 200.965C205.563 202.974 207.31 204.949 209.137 206.867C209.137 206.867 216.808 204.23 220.781 195.12C219.149 193.008 217.448 190.93 215.621 188.578C210.883 191.798 206.842 196.044 203.896 200.965Z" fill="white"/>
<path d="M206.226 201.079C209.045 197.7 212.208 194.594 215.621 191.82" stroke="#E2E0FF" stroke-linecap="round" stroke-linejoin="round"/>
<path d="M223.83 197.483C222.939 196.136 222.346 194.607 222.106 193.008C222.072 192.757 222.083 192.426 222.323 192.358C222.517 192.3 222.7 192.46 222.825 192.62C223.647 193.636 223.876 194.983 224.07 196.273C224.104 195.166 224.138 194.024 224.618 193.031C224.732 192.803 224.972 192.552 225.2 192.666C225.348 192.746 225.383 192.928 225.405 193.088C225.531 194.196 225.474 195.337 225.223 196.422C225.154 196.741 225.051 197.061 224.846 197.301C224.629 197.541 224.264 197.678 223.83 197.483Z" stroke="#100D18" stroke-linecap="round" stroke-linejoin="round"/>
<path d="M214.822 212.485C220.097 207.862 224.994 202.827 229.458 197.427C230.018 196.753 230.566 195.76 229.995 195.098C229.561 194.596 228.739 194.699 228.134 194.973C227.289 195.361 226.593 196 225.816 196.502C225.04 197.005 224.092 197.381 223.191 197.176C222.22 196.948 221.547 196.103 220.942 195.315C220.896 195.247 220.839 195.189 220.793 195.121C216.535 198.637 212.63 202.587 209.148 206.868C210.952 208.775 212.847 210.636 214.822 212.474V212.485Z" fill="#100D18"/>
<path d="M180.881 186.82C185.391 191.889 190.254 196.649 196.134 200.839C201.716 195.256 206.694 189.092 210.975 182.459C203.041 172.035 194.775 161.863 185.334 152.787C182.24 149.819 178.792 146.794 174.545 146.155C168.574 145.253 163.083 149.237 158.414 153.061C147.945 161.635 137.67 170.529 128.743 180.701C121.025 189.48 114.312 199.264 109.734 209.984C111.024 214.47 112.68 218.831 114.826 223.021C117.281 227.805 120.82 232.634 126.048 233.901C130.204 234.906 134.668 233.387 138.047 230.773C141.438 228.158 143.915 224.574 146.175 220.943C147.991 218.032 149.703 215.064 151.336 212.039C151.336 212.039 161.679 198.624 173.141 180.438L180.87 186.808L180.881 186.82Z" fill="#EB8455"/>
<mask id="mask1_2503_11228" style="mask-type:luminance" maskUnits="userSpaceOnUse" x="109" y="146" width="102" height="89">
<path d="M180.881 186.82C185.391 191.889 190.254 196.649 196.134 200.839C201.716 195.256 206.694 189.092 210.975 182.459C203.041 172.035 194.775 161.863 185.334 152.787C182.24 149.819 178.792 146.794 174.545 146.155C168.574 145.253 163.083 149.237 158.414 153.061C147.945 161.635 137.67 170.529 128.743 180.701C121.025 189.48 114.312 199.264 109.734 209.984C111.024 214.47 112.68 218.831 114.826 223.021C117.281 227.805 120.82 232.634 126.048 233.901C130.204 234.906 134.668 233.387 138.047 230.773C141.438 228.158 143.915 224.574 146.175 220.943C147.991 218.032 149.703 215.064 151.336 212.039C151.336 212.039 161.679 198.624 173.141 180.438L180.87 186.808L180.881 186.82Z" fill="white"/>
</mask>
<g mask="url(#mask1_2503_11228)">
<path d="M110.83 218.054C110.83 218.054 132.327 183.006 147.42 169.124C162.512 155.241 167.615 147.604 183.153 160.972C198.702 174.341 209.765 193.429 209.765 193.429" stroke="#FA844F" stroke-linecap="round" stroke-linejoin="round"/>
<path d="M116.47 228.923C116.47 228.923 133.526 203.065 141.563 190.381C149.6 177.698 155.879 162 170.972 168.165C186.064 174.318 204.102 195.028 204.102 195.028" stroke="#FA844F" stroke-linecap="round" stroke-linejoin="round"/>
<path d="M127.053 236.606C127.053 236.606 140.627 212.826 148.984 197.322C157.329 181.819 164.818 175.3 178.952 182.903C193.085 190.507 199.969 204.766 199.969 204.766" stroke="#FA844F" stroke-linecap="round" stroke-linejoin="round"/>
<path d="M209 178.428C209 178.428 199.592 192.607 192.834 200.496" stroke="#FA844F" stroke-linecap="round" stroke-linejoin="round"/>
<path d="M204.787 169.98C204.787 169.98 192.423 189.16 184.352 195.873" stroke="#FA844F" stroke-linecap="round" stroke-linejoin="round"/>
<path d="M198.017 163.906C198.017 163.906 185.219 182.172 178.814 190.381" stroke="#FA844F" stroke-linecap="round" stroke-linejoin="round"/>
<path d="M190.916 153.619C190.916 153.619 180.516 175.813 176.052 184.306" stroke="#FA844F" stroke-linecap="round" stroke-linejoin="round"/>
<path d="M179.843 145.766C179.843 145.766 177.251 174.135 175.082 184.319" stroke="#FA844F" stroke-linecap="round" stroke-linejoin="round"/>
<path d="M166.371 146.039C166.371 146.039 172.41 172.32 173.621 184.307" stroke="#FA844F" stroke-linecap="round" stroke-linejoin="round"/>
<path d="M153.938 152.592C153.938 152.592 166.485 167.113 171.451 185.197" stroke="#FA844F" stroke-linecap="round" stroke-linejoin="round"/>
<path d="M146.814 161.234C146.814 161.234 159.293 178.473 163.505 192.344" stroke="#FA844F" stroke-linecap="round" stroke-linejoin="round"/>
<path d="M136.071 169.98C136.071 169.98 151.278 188.601 157.865 204.218" stroke="#FA844F" stroke-linecap="round" stroke-linejoin="round"/>
<path d="M125.5 179.375C125.5 179.375 143.686 198.977 150.924 215.154" stroke="#FA844F" stroke-linecap="round" stroke-linejoin="round"/>
<path d="M119.164 187.824C119.164 187.824 135.501 211.856 144.84 225.761" stroke="#FA844F" stroke-linecap="round" stroke-linejoin="round"/>
<path d="M112.76 197.859C112.76 197.859 125.558 214.219 136.072 232.805" stroke="#FA844F" stroke-linecap="round" stroke-linejoin="round"/>
</g>
<path d="M172.913 146.041C167.581 146.007 162.672 149.615 158.437 153.085C147.968 161.659 137.693 170.552 128.766 180.724" stroke="#734733" stroke-linecap="round" stroke-linejoin="round"/>
<path d="M201.419 170.334C198.508 166.806 195.528 163.359 192.423 160.014" stroke="#734733" stroke-linecap="round" stroke-linejoin="round"/>
<path d="M110.362 212.061C111.55 215.828 113.011 219.493 114.826 223.043C117.281 227.827 120.82 232.656 126.048 233.923C130.204 234.928 134.668 233.409 138.047 230.795C141.438 228.18 143.915 224.596 146.176 220.965C147.991 218.054 149.703 215.086 151.336 212.061" stroke="#734733" stroke-linecap="round" stroke-linejoin="round"/>
<g style="mix-blend-mode:multiply" opacity="0.09">
<path d="M180.881 186.82C182 188.076 183.13 189.309 184.295 190.519C185.471 186.021 187.08 178.418 186.692 171.614C186.098 161.145 179.271 161.305 179.271 161.305L173.849 181.032L180.881 186.82Z" fill="#100D18"/>
</g>
<path d="M151.347 212.06C159.635 196.671 165.651 180.014 171.771 163.084C173.826 161.508 176.314 160.024 178.86 160.504C181.155 160.937 182.913 162.924 183.689 165.127C184.466 167.331 184.42 169.728 184.272 172.057C183.301 187.72 178.301 202.813 173.449 217.78C165.937 217.449 158.002 215.576 151.347 212.06Z" fill="#EB8455"/>
<mask id="mask2_2503_11228" style="mask-type:luminance" maskUnits="userSpaceOnUse" x="151" y="160" width="34" height="58">
<path d="M151.347 212.06C159.635 196.671 165.651 180.014 171.771 163.084C173.826 161.508 176.314 160.024 178.86 160.504C181.155 160.937 182.913 162.924 183.689 165.127C184.466 167.331 184.42 169.728 184.272 172.057C183.301 187.72 178.301 202.813 173.449 217.78C165.937 217.449 158.002 215.576 151.347 212.06Z" fill="white"/>
</mask>
<g mask="url(#mask2_2503_11228)">
<path d="M175.082 159.133C175.082 159.133 165.012 199.558 159.361 217.311" stroke="#FA844F" stroke-linecap="round" stroke-linejoin="round"/>
<path d="M180.881 160.309C180.881 160.309 173.849 205.312 167.216 219.229" stroke="#FA844F" stroke-linecap="round" stroke-linejoin="round"/>
<path d="M154.715 202.219C154.715 202.219 169.157 208.132 178.826 208.623" stroke="#FA844F" stroke-linecap="round" stroke-linejoin="round"/>
<path d="M158.539 191.441C158.539 191.441 170.846 196.213 181.84 198.348" stroke="#FA844F" stroke-linecap="round" stroke-linejoin="round"/>
<path d="M163.426 182.172C163.426 182.172 174.306 188.348 184.352 189.25" stroke="#FA844F" stroke-linecap="round" stroke-linejoin="round"/>
<path d="M166.371 172.307C166.371 172.307 176.76 178.894 185.573 180.595" stroke="#FA844F" stroke-linecap="round" stroke-linejoin="round"/>
<path d="M167.89 165.035C167.89 165.035 179.066 170.835 187.035 173.004" stroke="#FA844F" stroke-linecap="round" stroke-linejoin="round"/>
</g>
<g style="mix-blend-mode:multiply" opacity="0.09">
<path d="M156.45 214.343C166.428 191.214 171.771 163.072 171.771 163.072C165.64 180.003 159.624 196.659 151.347 212.049C152.979 212.905 154.692 213.67 156.461 214.332L156.45 214.343Z" fill="#100D18"/>
</g>
<path d="M171.771 163.072C173.825 161.497 176.314 160.012 178.86 160.492C181.155 160.926 182.913 162.912 183.689 165.116C184.466 167.319 184.42 169.716 184.271 172.045C183.963 177.08 183.233 182.058 182.228 186.989" stroke="#734733" stroke-linecap="round" stroke-linejoin="round"/>
<path d="M151.347 212.06C158.299 199.137 163.654 185.323 168.825 171.201" stroke="#734733" stroke-linecap="round" stroke-linejoin="round"/>
<g style="mix-blend-mode:multiply" opacity="0.09">
<path d="M234.059 67.9513C240.932 70.2346 245.955 77.1986 245.944 84.4366C245.944 91.6746 240.886 98.6272 234.013 100.888C227.141 103.148 218.955 100.534 214.651 94.7113C210.347 88.889 210.256 80.2924 214.446 74.3902C218.624 68.4765 226.81 65.531 234.07 67.9399L234.059 67.9513Z" fill="#100D18"/>
</g>
<path d="M232.815 65.5646C239.688 67.8479 244.711 74.8119 244.699 82.0499C244.699 89.2879 239.642 96.2404 232.769 98.5009C225.897 100.761 217.711 98.147 213.407 92.3246C209.103 86.5023 209.012 77.9057 213.202 72.0034C217.38 66.0897 225.566 63.1443 232.826 65.5532L232.815 65.5646Z" fill="#EB8455"/>
<path d="M244.197 78.0547C244.597 82.6212 243.238 87.3476 240.327 90.8981C236.4 95.693 229.824 98.1704 223.716 97.1315C218.476 96.241 213.761 92.8047 211.272 88.4094C211.798 89.8022 212.505 91.1265 213.396 92.3252C217.7 98.1475 225.885 100.762 232.758 98.5014C239.631 96.241 244.677 89.2884 244.688 82.0504C244.688 80.7033 244.517 79.3562 244.186 78.0547H244.197Z" fill="#734733"/>
<path d="M241.411 89.4258C241.08 89.9395 240.726 90.4304 240.338 90.8985C236.411 95.6934 229.835 98.1707 223.727 97.1318C220.074 96.5154 216.683 94.6659 214.126 92.1086" stroke="#100D18" stroke-linecap="round" stroke-linejoin="round"/>
<path d="M244.174 81.4902C243.969 83.5109 243.432 85.4974 242.576 87.3354" stroke="#100D18" stroke-linecap="round" stroke-linejoin="round"/>
<path d="M231.046 69.1046C236.217 70.8171 239.996 76.0686 239.985 81.5142C239.985 86.9599 236.183 92.1886 231.012 93.8896C225.84 95.5907 219.675 93.627 216.444 89.2431C213.213 84.8592 213.145 78.3976 216.284 73.9566C219.424 69.5156 225.589 67.2894 231.046 69.1046Z" fill="white"/>
<path d="M228.271 81.8227C228.271 80.898 227.518 80.1445 226.593 80.1445C225.669 80.1445 224.915 80.898 224.915 81.8227C224.915 82.7475 225.669 83.501 226.593 83.501C227.518 83.501 228.271 82.7475 228.271 81.8227Z" fill="#100D18"/>
<path d="M226.594 81.822C227.005 81.822 227.336 81.4909 227.336 81.0799V72.4491C227.336 72.0381 227.005 71.707 226.594 71.707C226.183 71.707 225.852 72.0381 225.852 72.4491V81.0799C225.852 81.4909 226.183 81.822 226.594 81.822Z" fill="#100D18"/>
<path d="M226.547 81.7644C226.376 82.1297 226.524 82.575 226.901 82.7576L231.696 85.0523C232.061 85.2236 232.507 85.0752 232.689 84.6984C232.861 84.3331 232.712 83.8879 232.335 83.7052L227.54 81.4105C227.175 81.2393 226.73 81.3877 226.547 81.7644Z" fill="#100D18"/>
<path d="M136.5 120C138.833 120.962 144.5 122.309 148.5 120" stroke="black" stroke-linecap="round"/>
</g>
<defs>
<clipPath id="clip0_2503_11228">
<rect width="300" height="300" fill="white"/>
</clipPath>
</defs>
</svg>
