<svg width="300" height="300" viewBox="0 0 300 300" fill="none" xmlns="http://www.w3.org/2000/svg">
<g clip-path="url(#clip0_2503_11471)">
<mask id="mask0_2503_11471" style="mask-type:luminance" maskUnits="userSpaceOnUse" x="0" y="0" width="300" height="300">
<path d="M300 150C300 67.1573 232.843 0 150 0C67.1573 0 0 67.1573 0 150C0 232.843 67.1573 300 150 300C232.843 300 300 232.843 300 150Z" fill="white"/>
</mask>
<g mask="url(#mask0_2503_11471)">
<path d="M300 0H0V300H300V0Z" fill="#E5C2FF"/>
<path d="M152.742 277.74C217.827 277.74 270.588 275.784 270.588 273.372C270.588 270.96 217.827 269.004 152.742 269.004C87.6579 269.004 34.8965 270.96 34.8965 273.372C34.8965 275.784 87.6579 277.74 152.742 277.74Z" fill="#70587D"/>
<path d="M94.3025 254.58H59.6465V272.526H94.3025V254.58Z" fill="#70587D"/>
<path d="M61.998 256.824V270.072" stroke="white" stroke-width="0.8" stroke-linecap="round" stroke-linejoin="round"/>
<path d="M147.936 235.867H113.28V272.533H147.936V235.867Z" fill="#70587D"/>
<path d="M115.704 237.895V270.949" stroke="white" stroke-width="0.8" stroke-linecap="round" stroke-linejoin="round"/>
<path d="M201.57 205.723H166.914V272.527H201.57V205.723Z" fill="#70587D"/>
<path d="M169.542 207.75V270.948" stroke="white" stroke-width="0.8" stroke-linecap="round" stroke-linejoin="round"/>
<path d="M255.205 174.133H220.549V272.533H255.205V174.133Z" fill="#70587D"/>
<path d="M223.045 175.566V270.948" stroke="white" stroke-width="0.8" stroke-linecap="round" stroke-linejoin="round"/>
<path d="M165.269 39.0067C165.269 38.6647 164.993 38.3887 164.651 38.3887C164.309 38.3887 164.033 38.6647 164.033 39.0067C164.033 39.3487 164.309 39.6247 164.651 39.6247C164.993 39.6247 165.269 39.3487 165.269 39.0067Z" fill="#8560DE"/>
<path d="M238.5 134.888C238.5 134.546 238.224 134.27 237.882 134.27C237.54 134.27 237.264 134.546 237.264 134.888C237.264 135.23 237.54 135.506 237.882 135.506C238.224 135.506 238.5 135.23 238.5 134.888Z" fill="white"/>
<path d="M219.437 53.9637C219.437 53.6217 219.161 53.3457 218.819 53.3457C218.477 53.3457 218.201 53.6217 218.201 53.9637C218.201 54.3057 218.477 54.5817 218.819 54.5817C219.161 54.5817 219.437 54.3057 219.437 53.9637Z" fill="white"/>
<path d="M227.448 146.917C227.448 146.575 227.172 146.299 226.83 146.299C226.488 146.299 226.212 146.575 226.212 146.917C226.212 147.259 226.488 147.535 226.83 147.535C227.172 147.535 227.448 147.259 227.448 146.917Z" fill="white"/>
<path d="M178.607 60.87C178.607 60.528 178.331 60.252 177.989 60.252C177.647 60.252 177.371 60.528 177.371 60.87C177.371 61.212 177.647 61.488 177.989 61.488C178.331 61.488 178.607 61.212 178.607 60.87Z" fill="white"/>
<path d="M48.8514 177.498C49.1927 177.498 49.4694 177.221 49.4694 176.88C49.4694 176.538 49.1927 176.262 48.8514 176.262C48.5101 176.262 48.2334 176.538 48.2334 176.88C48.2334 177.221 48.5101 177.498 48.8514 177.498Z" fill="#8560DE"/>
<path d="M71.0934 129.786C71.0934 129.444 70.8174 129.168 70.4754 129.168C70.1334 129.168 69.8574 129.444 69.8574 129.786C69.8574 130.128 70.1334 130.404 70.4754 130.404C70.8174 130.404 71.0934 130.128 71.0934 129.786Z" fill="#8560DE"/>
<path d="M78.6774 54.0418C78.6774 53.6998 78.4014 53.4238 78.0594 53.4238C77.7174 53.4238 77.4414 53.6998 77.4414 54.0418C77.4414 54.3838 77.7174 54.6598 78.0594 54.6598C78.4014 54.6598 78.6774 54.3838 78.6774 54.0418Z" fill="white"/>
<path d="M59.0573 195.253C59.0573 194.911 58.7813 194.635 58.4393 194.635C58.0973 194.635 57.8213 194.911 57.8213 195.253C57.8213 195.595 58.0973 195.871 58.4393 195.871C58.7813 195.871 59.0573 195.595 59.0573 195.253Z" fill="white"/>
<path d="M201.372 57.4512H198.588V60.2352H201.372V57.4512Z" fill="#8560DE"/>
<path d="M213.636 131.412H210.852V134.196H213.636V131.412Z" fill="white"/>
<path d="M258.456 153.246H255.672V156.03H258.456V153.246Z" stroke="#060305" stroke-width="0.8" stroke-linecap="round" stroke-linejoin="round"/>
<path d="M58.4334 49.6934H55.6494V52.4774H58.4334V49.6934Z" stroke="#060305" stroke-width="0.8" stroke-linecap="round" stroke-linejoin="round"/>
<path d="M85.3192 144.582H82.5352V147.366H85.3192V144.582Z" fill="white"/>
<path d="M220.547 120.475L218.321 122.707" stroke="#060305" stroke-width="0.8" stroke-linecap="round" stroke-linejoin="round"/>
<path d="M75.774 105.66L73.542 107.892" stroke="#060305" stroke-width="0.8" stroke-linecap="round" stroke-linejoin="round"/>
<path d="M72.2094 186.727L69.9834 188.953" stroke="#060305" stroke-width="0.8" stroke-linecap="round" stroke-linejoin="round"/>
<path d="M100.668 46.3809L98.4355 48.6069" stroke="#060305" stroke-width="0.8" stroke-linecap="round" stroke-linejoin="round"/>
<path d="M211.134 63.0547L213.36 65.2807" stroke="#060305" stroke-width="0.8" stroke-linecap="round" stroke-linejoin="round"/>
<path d="M43.7275 75.5098L45.9535 77.7358" stroke="#060305" stroke-width="0.8" stroke-linecap="round" stroke-linejoin="round"/>
<path d="M201.605 112.934L203.831 115.16" stroke="#060305" stroke-width="0.8" stroke-linecap="round" stroke-linejoin="round"/>
<path d="M57.9414 142.352L60.1674 144.584" stroke="#060305" stroke-width="0.8" stroke-linecap="round" stroke-linejoin="round"/>
<path d="M92.1113 202.488L177.155 181.272L178.199 138.726L141.395 127.998L92.1113 202.488Z" fill="#2A2A59"/>
<path d="M206.946 203.358C206.22 202.818 205.134 202.686 204.288 202.35C201.132 201.102 198.426 198.75 196.758 195.798C195.09 192.846 194.67 189.072 195.234 185.724C186.546 185.394 178.146 186.084 169.548 187.38C169.134 193.494 168.714 199.608 168.3 205.722H207.894C208.17 204.864 207.672 203.898 206.946 203.358Z" fill="#2A2A59"/>
<path d="M169.032 202.471C181.698 203.131 194.358 203.791 207.024 204.457" stroke="#060305" stroke-width="0.8" stroke-linecap="round" stroke-linejoin="round"/>
<path d="M146.754 219.223C137.652 219.631 128.922 220.141 119.82 220.555C120.342 223.057 120.018 225.733 118.908 228.037C117.798 230.341 115.92 232.267 113.64 233.425C112.74 233.881 112.092 234.847 112.122 235.849L146.79 236.179C146.76 230.503 146.79 224.899 146.754 219.223Z" fill="#2A2A59"/>
<path d="M113.544 235.009C124.398 234.301 135.252 233.599 146.106 232.891" stroke="#060305" stroke-width="0.8" stroke-linecap="round" stroke-linejoin="round"/>
<path d="M154.284 64.0317C149.772 63.1437 145.608 62.3637 141.102 61.4757C140.088 62.6097 138.588 63.2937 137.064 63.3057C135.546 63.3177 134.118 62.5497 133.086 61.4277C130.416 62.2317 127.752 63.0297 125.082 63.8337C124.164 80.5317 123.366 97.3677 123.216 114.084L165 107.634C162.744 92.8017 159.09 78.2457 154.284 64.0317Z" fill="white"/>
<path d="M127.344 68.3871C129.402 70.9251 131.454 73.4691 133.512 76.0071C134.508 72.3231 135.6 68.6391 136.59 64.9551" stroke="#060305" stroke-width="0.8" stroke-linecap="round" stroke-linejoin="round"/>
<path d="M138.941 64.8364C140.717 68.2324 142.493 71.6284 144.269 75.0244C146.321 71.1424 148.661 67.3684 150.995 63.6484" stroke="#060305" stroke-width="0.8" stroke-linecap="round" stroke-linejoin="round"/>
<path d="M125.357 107.753C137.213 105.869 149.075 103.991 160.931 102.107" stroke="#060305" stroke-width="0.8" stroke-linecap="round" stroke-linejoin="round"/>
<path d="M139.313 75.75C140.039 76.26 140.771 76.77 141.497 77.28" stroke="#060305" stroke-width="0.8" stroke-linecap="round" stroke-linejoin="round"/>
<path d="M133.638 81.8633C133.566 82.8833 133.494 83.9033 133.422 84.9233" stroke="#060305" stroke-width="0.8" stroke-linecap="round" stroke-linejoin="round"/>
<path d="M143.466 83.832H146.304" stroke="#060305" stroke-width="0.8" stroke-linecap="round" stroke-linejoin="round"/>
<path d="M153.762 82.9492L154.224 85.5652" stroke="#060305" stroke-width="0.8" stroke-linecap="round" stroke-linejoin="round"/>
<path d="M138.882 92.3516C138.516 92.9336 138.156 93.5156 137.79 94.0976" stroke="#060305" stroke-width="0.8" stroke-linecap="round" stroke-linejoin="round"/>
<path d="M148.05 94.9746C149.358 95.0466 150.672 95.1186 151.98 95.1906" stroke="#060305" stroke-width="0.8" stroke-linecap="round" stroke-linejoin="round"/>
<path d="M130.17 98.6699C130.542 99.3959 130.914 100.116 131.286 100.842" stroke="#060305" stroke-width="0.8" stroke-linecap="round" stroke-linejoin="round"/>
<path d="M142.128 100.463C142.638 100.829 143.142 101.195 143.652 101.561" stroke="#060305" stroke-width="0.8" stroke-linecap="round" stroke-linejoin="round"/>
<path d="M151.59 71.3691C151.884 72.3891 152.178 73.4091 152.472 74.4231" stroke="#060305" stroke-width="0.8" stroke-linecap="round" stroke-linejoin="round"/>
<path d="M129.126 88.1816C129.348 88.9796 129.57 89.7836 129.798 90.5816" stroke="#060305" stroke-width="0.8" stroke-linecap="round" stroke-linejoin="round"/>
<path d="M129.048 77.933C129.63 77.495 130.212 77.057 130.794 76.625" stroke="#060305" stroke-width="0.8" stroke-linecap="round" stroke-linejoin="round"/>
<path d="M170.472 110.171C172.224 107.369 174.27 104.843 176.028 102.047C179.562 105.833 182.844 109.355 186.372 113.147C187.764 106.511 189.162 99.8814 190.554 93.2454C191.142 90.4434 191.736 87.5934 191.532 84.7314C191.298 81.3954 189.942 78.1494 187.74 75.6294C185.538 73.1094 182.316 71.5374 179.178 70.3674C170.604 67.1634 161.748 64.7034 152.748 63.0234C152.748 63.0234 157.254 88.0494 159.93 101.717C160.986 107.099 163.308 112.505 166.818 116.717C170.328 120.935 174.846 124.223 179.67 126.845C184.056 129.227 188.592 130.949 193.224 132.803C186.312 124.601 178.734 116.999 170.46 110.171H170.472Z" fill="#8560DE"/>
<path d="M166.206 92.3637C169.386 88.0497 172.572 83.7417 175.752 79.4277" stroke="#060305" stroke-width="0.8" stroke-linecap="round" stroke-linejoin="round"/>
<path d="M189.918 130.457C185.802 127.439 179.874 122.831 176.028 119.363C173.322 116.927 165.006 116.159 165.006 116.159C165.006 116.159 165.42 108.881 163.122 106.781L109.158 115.523C109.914 134.747 110.22 154.517 112.194 173.657C113.832 189.515 116.058 205.925 117.696 221.783C127.89 221.717 137.874 221.945 148.068 221.879C146.706 205.409 142.452 189.467 143.148 172.961C143.646 161.093 144.15 149.225 144.648 137.357C152.706 142.739 160.248 147.797 168.306 153.179C167.688 165.407 167.478 177.329 166.86 189.557C176.688 189.413 186.498 189.227 196.326 189.083C197.796 178.385 198.906 167.921 200.376 157.217C201.792 146.903 198.318 136.619 189.918 130.469V130.457Z" fill="#060305"/>
<path d="M144.691 134.393L144.601 138.437" stroke="white" stroke-width="0.8" stroke-linecap="round" stroke-linejoin="round"/>
<path d="M167.712 152.723C169.17 153.053 170.622 153.377 172.08 153.707" stroke="white" stroke-width="0.8" stroke-linecap="round" stroke-linejoin="round"/>
<path d="M117.486 215.262C127.164 214.62 136.842 213.972 146.526 213.33" stroke="white" stroke-width="0.8" stroke-linecap="round" stroke-linejoin="round"/>
<path d="M167.496 180.977C176.598 181.613 185.7 182.249 194.802 182.885" stroke="#060305" stroke-width="0.8" stroke-linecap="round" stroke-linejoin="round"/>
<path d="M144.03 213.287C143.286 204.305 142.542 195.323 141.798 186.341C141.198 179.081 142.212 171.341 142.542 164.062" stroke="white" stroke-width="0.8" stroke-linecap="round" stroke-linejoin="round"/>
<path d="M171.666 180.953C171.762 172.847 171.864 164.741 171.96 156.635C172.848 157.187 174.162 156.095 174.54 155.117C174.912 154.145 174.552 153.011 173.886 152.201C173.22 151.397 172.302 150.851 171.402 150.323C162.618 145.175 153.834 140.027 145.05 134.879" stroke="white" stroke-width="0.8" stroke-linecap="round" stroke-linejoin="round"/>
<path d="M127.716 62.2324C123.75 63.4444 119.79 64.6624 115.824 65.8744C107.862 68.3104 99.8337 71.3404 92.5497 75.3664C89.3877 77.1124 86.9817 80.0704 85.8177 83.4964C84.6537 86.9164 84.6477 90.6484 85.2537 94.2184C85.8597 97.7824 87.0478 101.22 88.2298 104.634C89.4958 108.294 90.7677 111.954 92.0337 115.614C98.9577 108.414 105.702 101.478 112.626 94.2784L92.1118 202.494L123.576 167.712L127.716 62.2384V62.2324Z" fill="#8560DE"/>
<path d="M114.516 86.4727C115.122 90.5827 115.728 94.6927 116.328 98.8027" stroke="#060305" stroke-width="0.8" stroke-linecap="round" stroke-linejoin="round"/>
<path d="M101.592 81.7988C105.348 85.3628 109.104 88.9208 112.866 92.4848" stroke="#060305" stroke-width="0.8" stroke-linecap="round" stroke-linejoin="round"/>
<path d="M123.348 64.1699C123.966 81.8279 124.584 99.4859 125.202 117.138" stroke="#060305" stroke-width="0.8" stroke-linecap="round" stroke-linejoin="round"/>
<path d="M175.614 109.841C175.278 109.709 174.9 109.769 174.546 109.841C173.718 109.991 172.89 110.147 172.062 110.297C174.096 107.813 175.98 105.365 178.014 102.881L166.602 92.7051C164.676 95.8611 163.176 99.2751 162.144 102.827C161.784 104.057 161.418 105.263 161.586 106.535C161.754 107.807 162.324 109.025 163.2 109.961C165.036 111.935 167.91 113.033 170.172 114.503C172.116 113.291 174.132 111.965 176.07 110.747C176.376 110.555 175.95 109.973 175.614 109.841Z" fill="#C14F4F"/>
<path d="M172.314 110.057C171.84 110.639 171.366 111.221 170.892 111.803" stroke="#060305" stroke-width="0.8" stroke-linecap="round" stroke-linejoin="round"/>
<path d="M112.68 92.9219L100.92 105.354L102.264 106.254C103.692 109.692 105.504 112.794 107.88 115.656C107.058 115.854 106.362 116.028 105.534 116.226C104.952 116.364 104.49 117.03 104.616 117.618C107.214 118.062 109.71 118.608 112.308 119.052C115.512 117.198 118.29 114.912 120.588 112.008C120.288 105.006 117.426 98.0879 112.68 92.9339V92.9219Z" fill="#C14F4F"/>
<path d="M107.634 115.404C108.216 115.95 108.798 116.502 109.374 117.048" stroke="#060305" stroke-width="0.8" stroke-linecap="round" stroke-linejoin="round"/>
<path d="M163.782 82.375C163.782 82.813 164.352 105.967 164.352 105.967L166.704 114.241L177.156 119.551L163.782 119.149L160.35 103.561L163.782 82.387V82.375Z" fill="#8560DE"/>
<path d="M163.842 82.3086C163.962 87.1506 164.076 91.9926 164.196 96.8346" stroke="#060305" stroke-width="0.8" stroke-linecap="round" stroke-linejoin="round"/>
<path d="M156.27 64.3145C159.012 82.0445 161.754 99.7805 164.502 117.51" stroke="#060305" stroke-width="0.8" stroke-linecap="round" stroke-linejoin="round"/>
<path d="M166.037 111.889C169.073 113.779 172.115 115.663 175.151 117.553" stroke="#060305" stroke-width="0.8" stroke-linecap="round" stroke-linejoin="round"/>
<path d="M138.576 42.5279C140.322 42.4379 142.062 42.3419 143.808 42.2519C144.714 42.2039 145.638 42.1559 146.514 42.3719C147.39 42.5879 148.248 43.1039 148.65 43.9139" stroke="#060305" stroke-width="0.8" stroke-linecap="round" stroke-linejoin="round"/>
<path d="M129.438 47.8203C127.206 49.9383 126.036 53.1183 126.36 56.1783" stroke="#060305" stroke-width="0.8" stroke-linecap="round" stroke-linejoin="round"/>
<path d="M147.846 43.9553C147.048 42.8873 145.59 42.5933 144.258 42.4673C142.434 42.2993 140.658 42.4253 138.828 42.5153C134.904 42.7133 131.142 44.9453 129.084 48.2933C128.166 49.7873 127.476 51.3713 127.146 53.0873C126.816 54.8093 127.044 56.7233 128.166 58.0673C129.462 59.6273 131.886 60.1013 133.68 59.1533L142.83 52.3493C144.018 52.8653 145.524 52.5053 146.346 51.5033C147.168 50.5013 147.378 49.0253 146.64 47.9633C147.402 47.6933 148.026 47.0393 148.26 46.2653C148.494 45.4913 148.338 44.6033 147.852 43.9553H147.846Z" fill="#060305"/>
<path d="M141.564 62.4964C141.51 61.7704 141.474 61.0504 141.42 60.3244C143.376 59.6524 144.846 57.6904 144.846 55.6204C144.846 54.3484 144.738 52.9984 144.468 51.7564C144.156 50.3404 143.238 49.0984 142.014 48.3184C139.584 48.4984 137.124 48.7684 134.694 48.9484C134.37 50.2264 133.986 51.4804 133.668 52.7524C133.272 52.3984 132.834 52.0324 132.432 51.6784C131.304 51.5824 130.146 52.1764 129.564 53.1544C128.988 54.1264 129.018 55.4344 129.648 56.3764C130.278 57.3184 131.466 57.8524 132.588 57.6964C132.612 59.2024 132.612 60.7384 132.636 62.2444C133.674 63.5944 135.516 64.4824 137.22 64.5184C138.924 64.5544 140.472 63.8044 141.564 62.4964Z" fill="#C14F4F"/>
<path d="M142.866 53.4659C143.131 53.4659 143.346 53.251 143.346 52.9859C143.346 52.7208 143.131 52.5059 142.866 52.5059C142.601 52.5059 142.386 52.7208 142.386 52.9859C142.386 53.251 142.601 53.4659 142.866 53.4659Z" fill="#060305"/>
<path d="M136.776 53.8506C137.041 53.8506 137.256 53.6357 137.256 53.3706C137.256 53.1055 137.041 52.8906 136.776 52.8906C136.511 52.8906 136.296 53.1055 136.296 53.3706C136.296 53.6357 136.511 53.8506 136.776 53.8506Z" fill="#060305"/>
<path d="M135.743 51.0303C135.941 50.7363 136.277 50.5382 136.631 50.5022C136.985 50.4722 137.351 50.6042 137.603 50.8562" stroke="#060305" stroke-width="0.8" stroke-linecap="round" stroke-linejoin="round"/>
<path d="M140.082 52.8184C140.208 53.4364 140.334 54.0604 140.466 54.6784C140.274 54.6784 139.95 54.8224 139.758 54.8224" stroke="#060305" stroke-width="0.8" stroke-linecap="round" stroke-linejoin="round"/>
<path d="M141.569 49.7165C141.959 49.6625 142.343 49.6145 142.733 49.5605" stroke="#060305" stroke-width="0.8" stroke-linecap="round" stroke-linejoin="round"/>
<path d="M130.991 53.4785C131.471 53.6405 131.951 53.8025 132.431 53.9645" stroke="#060305" stroke-width="0.8" stroke-linecap="round" stroke-linejoin="round"/>
<path d="M132.474 57.75C132.678 57.768 132.888 57.786 133.092 57.804" stroke="#060305" stroke-width="0.8" stroke-linecap="round" stroke-linejoin="round"/>
<path d="M135.533 59.8027C137.369 60.9667 139.763 61.2007 141.785 60.4027" stroke="#060305" stroke-width="0.8" stroke-linecap="round" stroke-linejoin="round"/>
<path d="M137.897 55.2188C137.897 55.4887 138.053 55.7468 138.293 55.8668C138.533 55.9868 138.839 55.9508 139.049 55.7888" stroke="#060305" stroke-width="0.8" stroke-linecap="round" stroke-linejoin="round"/>
</g>
</g>
<defs>
<clipPath id="clip0_2503_11471">
<rect width="300" height="300" fill="white"/>
</clipPath>
</defs>
</svg>
