<svg width="292" height="298" viewBox="0 0 292 298" fill="none" xmlns="http://www.w3.org/2000/svg">
<path d="M276.302 104.525C266.265 82.6242 252.097 62.1746 235.801 44.2397C230.772 38.7008 225.433 33.184 218.531 29.8275C211.63 26.4709 202.812 25.6622 196.265 29.5727C193.296 31.3451 191.014 33.9262 188.776 36.452C179.803 46.6214 172.425 55.7273 160.362 62.2965C136.578 75.2575 110.368 76.9302 84.634 83.9203C58.6677 90.9768 37.5203 103.716 24.371 128.143C-3.8663 180.574 24.3709 253.045 74.8856 280.451C97.2184 292.57 123.34 297.888 149.173 297.998C174.541 298.12 200.109 293.268 222.707 282.534C293.749 248.769 305.458 168.134 276.302 104.536V104.525Z" fill="#B18A70"/>
<path d="M70.4103 266.05C25.5896 223.5 28.4033 156.302 53.3283 103.949C67.6962 73.7618 89.3976 47.4078 114.566 25.4073C124.359 16.8442 134.816 8.83498 146.603 3.32932C153.693 0.0170642 162.899 -2.05448 168.692 3.19639C174.42 8.38079 173.389 17.3759 173.91 25.0861C175.062 41.7581 185.531 56.3919 197.616 67.9349C209.691 79.478 223.716 88.9273 235.137 101.124C273.488 142.09 273.211 209.841 239.49 253.743C209.015 293.412 155.765 308.323 109.459 290.543C95.0251 285.004 81.6321 276.718 70.4103 266.061V266.05Z" fill="#FAC686"/>
<path d="M134.02 248.47C134.219 250.397 134.086 268.41 132.624 274.048H171.186C171.961 273.228 172.648 272.298 173.313 271.39C180.613 261.486 188.954 252.369 198.182 244.238C206.025 237.314 217.158 231.764 220.005 220.864C221.135 216.51 218.056 212.777 217.546 208.446C217.158 205.222 217.779 201.721 219.939 199.295C222.874 195.983 228.081 195.13 230.463 191.397C233.299 186.988 230.718 181.228 228.17 176.652C225.622 172.066 223.129 166.239 226.076 161.908C226.929 160.667 228.137 159.726 229.311 158.784C233.266 155.66 237.187 152.292 239.646 147.894C242.106 143.497 242.837 137.814 240.278 133.471C236.578 127.146 227.605 125.695 223.473 119.635C221.002 116.024 220.703 111.305 221.39 106.973C222.077 102.642 223.65 98.5097 224.647 94.2558C226.298 87.1771 226.242 79.3895 222.775 72.9976C219.296 66.6057 211.841 62.097 204.718 63.5815C196.122 65.3871 191.347 74.3823 187.736 82.4026C184.955 88.573 182.762 98.9418 176.736 102.708C172.67 105.19 167.674 104.292 163.11 105.212C154.779 106.873 147.955 115.381 147.413 124.797C147.114 129.904 148.465 134.922 149.074 139.996C149.684 145.07 149.385 150.708 146.382 154.563C144.012 157.61 140.301 159.039 137.941 162.107C136.135 164.434 135.316 167.491 135.238 170.582C135.205 171.745 135.283 172.908 135.449 174.049C136.468 180.906 142.749 192.56 137.033 198.996C135.415 200.813 133.012 201.356 131.051 202.685C128.326 204.535 126.62 207.903 125.999 211.392C125.39 214.882 125.767 218.504 126.509 221.961C128.459 231.078 133.023 238.854 133.997 248.47H134.02Z" fill="#FF806C"/>
<path d="M272.283 196.139C270.699 193.336 268.417 190.954 267.476 187.974C266.302 184.219 267.299 180.054 268.761 176.431C271.054 170.804 277.368 159.493 270.877 154.243C269.126 152.836 266.822 152.57 264.695 152.924C259.555 153.788 255.29 157.92 252.321 162.662C249.353 167.414 247.414 172.853 244.944 177.938C243.083 181.76 240.623 185.659 236.879 186.867C233.965 187.808 230.864 186.933 227.906 186.147C223.619 185.006 218.789 184.153 215.056 186.756C211.577 189.171 210.026 193.923 209.484 198.454C208.941 202.974 209.162 207.626 208.099 212.035C207.678 213.752 207.058 215.436 205.994 216.754C203.358 220 198.904 220.122 194.983 219.867C191.061 219.624 186.697 219.402 183.739 222.271C180.848 225.074 180.427 229.549 178.577 233.083C176.073 237.869 171.797 236.362 167.488 238.046C164.918 239.054 162.492 240.727 160.863 243.175C159.113 245.811 158.415 249.168 158.36 252.447C158.249 259.26 159.19 270.958 166.746 274.104C169.05 275.068 171.631 275.035 174.134 274.99C178.2 274.924 182.254 274.846 186.32 274.78C194.506 274.636 197.387 266.15 205.795 264.832C209.727 264.223 213.76 264.832 217.703 264.267C223.552 263.436 228.958 259.88 232.049 254.84C234.231 251.284 235.339 246.986 238.319 244.039C241.764 240.638 246.882 239.785 251.502 238.356C256.121 236.916 261.073 234.036 261.804 229.239C262.092 227.378 261.682 225.495 261.66 223.623C261.616 219.657 263.399 215.724 266.401 213.143C268.262 211.548 270.578 210.44 272.106 208.513C274.156 205.92 274.366 202.265 273.491 199.085C273.203 198.033 272.76 197.069 272.239 196.139H272.273H272.283Z" fill="#6F85A9"/>
<path d="M74.2651 169.685C73.9327 171.634 73.3678 173.551 72.6588 175.357C70.5762 180.652 67.3526 185.437 65.425 190.788C62.6777 198.443 62.9215 207.15 65.702 215.203C69.0475 224.885 75.0627 229.87 82.7728 236.528C95.3572 247.406 106.147 260.146 114.555 274.037H172.735C172.126 263.358 171.318 252.668 170.309 241.978C169.379 232.075 169.667 219.468 164.948 210.506C161.436 203.826 155.144 199.152 149.516 194.111C143.889 189.082 138.483 182.878 137.796 175.368C137.209 168.898 140.244 162.728 142.648 156.702C145.052 150.664 146.858 143.663 143.955 137.847C141.042 131.976 134.329 129.206 128.103 127.135C121.877 125.063 115.12 122.837 111.453 117.398C103.743 105.954 111.542 80.8631 91.3692 80.5307C85.3539 80.431 80.5794 85.5379 79.0063 91.4645C77.4222 97.38 78.4192 103.949 79.804 110.219C81.0668 115.969 81.3548 119.58 75.1291 120.211C69.2247 120.81 64.3726 123.568 61.5256 128.52C58.6676 133.471 58.6897 140.041 61.9244 145.28C64.8822 150.088 70.1441 153.5 72.7474 158.463C74.6085 162.008 74.8743 165.929 74.2429 169.696H74.254L74.2651 169.685Z" fill="#6F85A9"/>
<path d="M52.6418 218.405C55.3227 221.507 56.8846 225.727 56.1757 229.771C55.9209 231.189 55.4113 232.54 54.8353 233.87C53.8494 236.129 52.6861 238.334 52.2984 240.749C51.0799 248.326 57.793 254.928 64.7166 258.23C71.6513 261.531 79.572 263.203 85.2881 268.321C87.0605 269.906 88.5782 271.789 90.5611 273.085C92.6327 274.436 95.5018 274.625 98.2823 274.824H151.733C148.52 265.209 143.214 256.069 136.268 248.725C129.688 241.779 119.485 237.337 116.394 227.633C114.91 222.958 113.979 217.807 110.579 214.273C106.879 210.418 101.196 209.443 96.0114 208.191C90.827 206.928 85.1662 204.669 83.1057 199.728C81.5881 196.061 82.4854 191.918 82.5851 187.963C82.6959 183.942 81.8983 179.81 79.727 176.431C77.5447 173.064 73.8336 170.538 69.8235 170.394C66.4115 170.272 62.1244 171.723 59.2331 169.297C56.3308 166.871 53.6499 161.676 51.0134 158.64C47.9117 155.073 44.7545 151.473 40.8108 148.87C36.8671 146.266 31.9485 144.782 27.3623 145.901C25.1579 146.433 23.0752 147.585 21.6351 149.324C18.9654 152.536 18.8435 157.233 19.9181 161.277C20.9151 165.065 22.8426 168.61 25.4681 171.502C29.0019 175.401 34.1309 178.902 34.1752 184.164C34.1863 186.423 33.2114 188.561 32.3806 190.666C30.1761 196.316 29.3785 203.561 33.7985 207.704C36.147 209.908 39.415 210.695 42.4282 211.792C46.2832 213.187 49.9721 215.27 52.6529 218.372H52.6418V218.405Z" fill="#FF806C"/>
<path d="M169.523 275.4C178.12 264.61 188.444 255.205 199.987 247.672C214.82 237.979 232.478 230.546 241.296 215.159C244.021 210.395 245.727 205.122 247.4 199.894C249.45 193.513 251.51 187.121 253.548 180.729" stroke="#262525" stroke-width="0.5" stroke-miterlimit="10"/>
<path d="M44.832 179.366C53.9601 185.559 61.1828 194.498 65.3259 204.723C66.766 208.279 67.8738 212.046 70.1558 215.125C72.7702 218.648 76.6917 220.941 79.7713 224.076C84.1803 228.552 86.6839 234.5 90.1291 239.751C98.8362 253 113.204 261.275 124.459 272.442C125.168 273.14 125.966 274.137 125.489 275.001C125.013 275.865 123.473 274.314 124.47 274.225" stroke="#262525" stroke-width="0.5" stroke-miterlimit="10"/>
<path d="M110.249 230.169C104.112 227.654 97.831 225.04 93.0564 220.443C88.2819 215.846 85.3241 208.734 87.4732 202.464C88.592 199.218 90.9406 196.482 91.8489 193.169C94.0313 185.26 87.584 177.948 83.3301 170.925C78.0903 162.262 75.8969 149.733 84.6262 142.677C88.7804 139.309 93.9537 136.717 96.3465 131.92C99.1824 126.215 97.1441 119.469 96.136 113.177C95.3938 108.502 95.2498 103.738 95.7151 99.0303C96.0806 95.43 96.845 91.7411 98.9387 88.7834C101.032 85.8256 104.699 83.7541 108.255 84.463C113.872 85.5597 116.165 92.284 116.918 97.9558C117.671 103.628 118.469 110.252 123.376 113.188C127.353 115.558 132.792 114.561 136.548 117.287C145.122 123.512 135.961 135.266 141.898 142.632C144.878 146.332 150.04 147.219 154.339 149.235C164.364 153.954 169.792 165.386 170.645 176.442C171.498 187.486 168.585 198.431 166.092 209.232C163.6 220.033 161.484 231.299 163.91 242.111" stroke="#262525" stroke-width="0.5" stroke-miterlimit="10"/>
<path d="M105.13 142.965C104.033 150.83 106.902 159.216 113.77 164.644C123.02 171.978 136.192 177.926 141.565 188.971C143.359 192.682 144.367 196.814 146.782 200.16C149.097 203.372 152.543 205.565 155.932 207.593C160.231 210.163 164.706 212.644 169.625 213.641C179.34 215.624 187.548 210.639 195.369 205.698C199.047 203.372 200.487 198.42 199.535 194.166C198.582 189.913 195.646 186.334 192.234 183.631C190.318 182.114 188.202 180.795 186.629 178.923C185.056 177.051 184.092 174.426 184.945 172.144C185.366 171.036 186.164 170.117 187.017 169.297C193.309 163.215 203.091 161.853 209.87 155.693C213.072 152.78 216.938 149.9 215.032 145.391C213.637 142.068 208.917 140.24 205.649 141.536C204.054 142.178 202.448 143.386 200.797 142.898C199.402 142.477 198.615 140.882 198.693 139.431C198.77 137.98 199.546 136.651 200.399 135.465C204.475 129.86 210.081 128.42 215.741 125.185C220.206 122.626 224.725 118.505 227.761 114.373C230.951 110.053 232.857 104.691 232.602 99.3295C232.347 93.9568 229.832 88.6394 225.523 85.4269C218.865 80.453 208.718 82.4359 201.65 85.582C193.752 89.1047 187.083 95.5409 183.749 103.572C182.519 106.552 181.699 109.72 180.082 112.523C178.797 114.761 177.013 116.711 174.909 118.195C172.915 119.591 170.411 120.599 168.085 119.901C165.902 119.247 164.329 117.143 164.019 114.905C163.432 110.717 167.121 108.014 166.678 103.727C166.312 100.238 164.307 96.9035 161.438 94.8984C157.173 91.9296 151.379 91.6637 146.494 93.4472C140.28 95.7071 135.339 101.157 133.677 107.549C132.891 110.596 132.78 113.897 131.251 116.666C128.338 121.917 121.602 123.324 116.396 126.304C109.793 130.081 106.038 136.34 105.108 142.998H105.13V142.965Z" fill="#550046"/>
<path d="M148.974 212.19C145.606 211.392 142.117 211.082 138.66 211.293C134.983 211.525 131.116 212.456 128.58 215.125C127.937 215.801 127.394 216.577 126.641 217.12C124.536 218.626 121.645 217.851 119.097 218.272C116.682 218.67 114.599 220.144 112.317 221.019C109.349 222.16 106.125 222.282 103.023 222.891C100.176 223.445 97.5729 224.774 94.9586 225.982C90.4056 228.098 85.4427 231.144 83.1607 235.819C81.4658 239.275 81.9865 243.053 83.903 246.309C86.9161 251.416 93.8065 252.657 99.6999 252.092C105.682 251.505 111.852 249.212 117.646 251.394C123.063 253.432 129.765 255.072 135.559 255.593C140.134 256.003 144.764 255.593 149.306 255.061C157.559 254.108 165.735 251.859 173.976 251.826C183.26 251.782 196.11 252.147 203.177 245.069C207.465 240.782 207.83 235.21 203.953 230.535C202.147 228.352 199.81 226.624 197.339 225.273C196.099 224.597 194.803 223.977 193.462 223.522C192 223.024 190.66 222.237 189.175 221.794C187.591 221.318 185.94 221.085 184.279 221.13C181.122 221.207 177.92 222.249 174.863 221.44C173.478 221.074 172.215 220.343 170.83 219.978C168.803 219.435 166.621 219.69 164.593 219.169C162.6 218.648 160.882 217.396 159.11 216.333C155.964 214.428 152.519 213.032 148.952 212.179L148.974 212.19Z" fill="white"/>
<path d="M134.583 181.959C133.996 177.095 134.173 171.39 132.223 166.727C128.933 167.657 125.388 167.159 122.076 168.222C118.166 169.485 114.665 172.133 112.571 175.7C110.744 178.824 109.946 182.512 107.852 185.47C106.556 187.298 104.817 188.76 103.288 190.411C99.2226 194.787 96.6526 200.536 96.0987 206.485C95.9547 208.002 95.9546 209.598 96.6747 210.938C98.7352 214.815 104.296 212.467 106.767 210.406C109.525 208.091 111.596 204.734 114.011 202.054C114.732 201.256 115.452 200.447 116.349 199.849C117.124 199.328 118.011 198.996 118.83 198.542C121.733 196.925 123.649 193.967 124.923 190.898C125.078 190.522 125.233 190.123 125.521 189.835C126.241 189.082 127.571 189.259 128.357 189.935C130.207 191.485 130.639 195.318 132.556 196.415C133.11 196.725 133.774 196.725 134.406 196.714C134.827 196.714 135.248 196.703 135.668 196.692C135.713 191.773 135.17 186.844 134.583 181.97V181.959Z" fill="#93D3D9"/>
<path d="M153.772 167.912C153.274 167.646 152.753 167.281 152.177 166.76C150.593 165.309 149.574 163.403 148.998 161.354C148.532 159.714 148.366 158.008 148.488 156.314C148.654 153.965 149.363 151.65 150.593 149.634C150.992 148.98 151.446 148.349 151.8 147.673C152.498 146.332 152.543 145.003 152.875 143.585C153.65 140.218 153.551 136.44 153.207 133.028C153.163 132.53 153.085 132.009 152.82 131.577C152.033 130.369 149.618 130.004 148.433 129.095C146.738 127.788 144.81 129.151 142.894 129.627C140.678 130.159 138.407 130.502 136.125 130.646C135.738 130.668 135.328 130.691 134.962 130.846C133.976 131.289 133.699 132.563 133.611 133.637C133.267 137.415 133.024 141.547 134.209 145.191C134.585 146.343 135.117 147.429 135.627 148.526C136.447 150.331 137.576 151.738 138.009 153.743C139.183 159.149 136.646 165.874 130.797 167.103C133.334 171.401 134.552 176.309 135.438 181.183C135.704 182.645 137.399 196.648 136.779 196.67C140.734 196.526 144.733 196.038 147.912 193.779C149.552 192.615 150.781 190.943 152.421 189.802C153.008 189.403 153.617 189.115 154.249 188.882C153.451 181.936 153.24 174.946 153.794 167.934L153.772 167.912Z" fill="#FF5C92"/>
<path d="M187.038 200.569C186.041 197.777 185.033 194.953 183.449 192.46C181.787 189.846 179.538 187.652 177.799 185.093C175.75 182.091 174.443 178.613 172.216 175.733C169.003 171.567 163.708 168.765 158.413 168.632C156.962 168.599 155.887 168.632 154.857 168.344C154.347 175.079 154.558 181.825 155.311 188.516C156.208 188.262 157.139 188.073 158.081 187.819C158.49 187.708 158.934 187.597 159.332 187.73C159.643 187.83 159.886 188.062 160.108 188.284C161.227 189.414 162.146 190.743 162.833 192.183C163.531 193.656 163.985 195.252 164.927 196.592C166.212 198.409 168.239 199.517 169.989 200.89C174.132 204.125 180.269 217.873 187.138 214.726C192.754 212.145 188.389 204.38 187.049 200.591L187.038 200.569Z" fill="#93D3D9"/>
<path d="M125.975 207.759C126.23 208.756 126.474 209.764 126.662 210.783C126.994 212.589 127.482 215.945 125.765 217.175C130.44 218.471 135.724 218.704 140.543 218.826C144.209 218.914 147.876 218.781 151.51 218.405C153.072 218.25 154.656 218.194 156.218 217.995C157.503 217.829 158.854 218.006 160.006 217.341C160.194 217.23 160.372 217.109 160.46 216.909C160.527 216.732 160.505 216.544 160.483 216.355C160.073 213.364 159.607 210.318 160.073 207.327C160.46 204.857 161.457 202.541 162.2 200.16C162.986 197.656 163.496 195.053 163.717 192.427C163.806 191.353 163.839 190.234 163.451 189.226C163.097 188.295 162.41 187.52 161.734 186.778C160.195 185.083 157.713 182.912 157.104 180.618C156.45 178.159 156.971 175.002 157.824 172.665C158.333 171.302 158.865 169.895 159.918 168.909C159.829 168.998 159.175 168.743 158.466 168.433C157.248 168.3 156.04 168.145 154.844 167.846C154.312 167.724 153.725 167.569 153.171 167.347C150.435 170.15 145.816 171.291 142.071 171.091C138.327 170.892 134.66 169.175 132.212 166.361C130.772 166.915 129.276 167.325 127.759 167.513C128.767 168.278 129.398 169.463 129.708 170.693C130.761 174.825 130.506 179.289 128.833 183.211C128.036 185.072 126.806 187.365 125.167 188.628C124.413 189.215 123.715 189.281 123.25 190.212C122.752 191.231 122.774 192.505 123.006 193.579C123.372 195.208 124.203 196.692 124.613 198.31C125.122 200.281 125 202.353 125.255 204.391C125.399 205.521 125.665 206.629 125.942 207.737L125.975 207.759Z" fill="#93D3D9"/>
<path d="M141.154 196.05C139.005 198.686 135.725 199.982 132.646 199.417C129.566 198.852 126.786 196.426 125.445 193.147" stroke="#262525" stroke-width="0.5" stroke-miterlimit="10"/>
<path d="M146.57 196.05C148.719 198.686 151.998 199.982 155.078 199.417C158.147 198.852 160.938 196.426 162.279 193.147" stroke="#262525" stroke-width="0.5" stroke-miterlimit="10"/>
<path d="M99.7345 216.311C102.238 218.316 105.517 219.69 107.688 219.823C112.529 220.122 117.093 217.641 121.879 216.865C124.261 216.477 126.709 216.522 129.068 216.012C131.04 215.591 132.901 214.805 134.751 213.996C136.291 213.331 138.075 213.076 139.515 212.223C139.98 211.947 140.39 211.603 140.8 211.26C142.373 209.953 142.528 207.094 142.75 205.156C143.17 201.556 144.311 197.778 143.979 194.145C143.913 193.325 143.47 192.261 142.672 192.427C142.14 192.549 141.919 193.181 141.786 193.713L140.146 200.581C139.803 201.999 139.459 203.461 138.651 204.691C136.535 207.925 131.605 207.239 128.293 207.139C124.05 207.017 119.83 206.541 115.664 205.71C112.385 205.045 109.095 204.159 105.761 204.259C102.969 204.336 98.3497 205.477 96.8321 208.18C95.1815 211.116 96.9983 214.085 99.7456 216.289L99.7345 216.311Z" fill="#FF5C92"/>
<path d="M186.53 216.555C184.846 217.662 182.83 218.272 180.858 218.77C178.908 219.258 176.892 219.678 174.909 219.379C172.815 219.069 170.921 218.006 168.883 217.452C165.482 216.532 161.826 217.075 158.392 216.255C155.202 215.502 152.332 213.597 149.076 213.253C147.115 213.054 144.921 213.342 143.404 212.09C141.133 210.207 142.451 207.404 142.529 205.011C142.65 201.012 142.063 196.592 143.326 192.737C144.91 194.211 145.431 196.515 145.619 198.675C145.808 200.835 145.763 203.073 146.55 205.1C147.757 208.224 154.648 207.26 157.173 207.194C161.527 207.072 165.881 206.607 170.157 205.765C173.524 205.1 176.881 204.214 180.315 204.314C186.23 204.48 194.284 209.686 187.693 215.679C187.327 216.001 186.951 216.3 186.552 216.566L186.53 216.555Z" fill="#FF5C92"/>
<path d="M146.015 132.442C148.475 131.345 151.2 130.946 153.57 132.497C154.102 132.84 154.589 133.272 155.177 133.483C156.705 134.037 158.411 132.863 159.087 131.378C159.951 129.495 159.63 127.379 159.829 125.374C160.018 123.48 160.726 121.63 160.848 119.746C161.048 116.833 160.073 112.978 157.27 111.56C155.265 110.541 152.817 111.172 150.779 112.147C148.042 113.443 145.616 115.304 143.6 117.564C140.377 121.187 131.88 125.385 132.678 131.256C132.844 132.464 133.564 133.527 134.273 134.524C134.782 135.233 135.325 135.942 136.09 136.374C137.917 137.382 140.188 136.319 141.828 135.034C143.013 134.103 144.442 133.151 145.993 132.453H146.004L146.015 132.442Z" fill="#550046"/>
<path d="M154.613 139.741C153.882 139.132 152.863 139.276 152.176 139.885C151.589 140.417 151.389 141.048 151.578 141.657C151.412 141.901 151.323 142.178 151.389 142.477C151.4 142.544 151.423 142.61 151.434 142.677C151.533 143.097 151.91 143.452 152.309 143.563C154.425 144.128 156.496 141.303 154.602 139.741H154.613Z" fill="#FF5C92"/>
<path d="M135.573 142.068C135.628 141.536 135.518 141.126 135.407 140.606C135.385 140.484 135.329 140.373 135.274 140.295C135.219 140.074 135.119 139.874 134.853 139.753C132.948 138.844 130.544 140.384 131.53 142.611C131.917 143.497 132.815 144.007 133.767 143.907C134.587 143.818 135.329 143.253 135.396 142.456C135.473 142.345 135.551 142.223 135.562 142.068H135.573Z" fill="#FF5C92"/>
<path d="M149.297 151.484C147.348 153.024 145.187 153.256 142.817 153.157C142.462 153.145 142.196 153.112 141.986 153.09C141.709 154.619 141.388 156.148 141 157.654C141.687 157.842 142.363 158.153 143.016 158.463C144.722 159.305 146.428 160.136 148.134 160.977C148.411 159.393 148.245 157.765 148.245 156.148C148.245 154.53 148.422 152.857 149.297 151.495V151.484Z" fill="url(#paint0_linear_1313_5800)"/>
<path d="M140.491 242.698C134.143 241.79 127.674 242.122 121.293 241.579C117.892 241.291 114.602 240.328 111.301 239.475C108.697 238.81 104.864 238.267 102.217 238.677C101.342 238.81 100.467 239.076 99.5692 239.065C98.6719 239.065 97.7082 238.699 97.2872 237.913C96.8552 237.115 97.11 236.085 97.6861 235.387C98.2621 234.689 99.0929 234.257 99.9237 233.914C105.241 231.676 111.434 231.698 116.363 228.696C116.862 228.386 117.349 228.053 117.914 227.898C120.041 227.344 122.866 229.837 124.239 231.266C125.148 232.208 126.544 232.44 127.84 232.606C131.562 233.049 135.306 233.16 139.039 232.972C141.155 232.861 140.38 237.004 140.402 238.455C140.402 238.721 140.358 242.665 140.468 242.687L140.491 242.698Z" fill="#FF5C92"/>
<path d="M195.735 228.43C191.514 228.474 187.504 229.66 183.45 228.242C179.329 226.813 175.086 224.73 170.677 226.214C167.077 227.422 163.764 230.59 159.776 230.324C158.192 230.214 156.708 229.527 155.201 229.028C151.933 227.954 150.094 229.405 147.092 230.446C145.353 231.055 143.536 231.432 141.709 231.576C139.316 231.776 137.654 230.911 137.122 233.781C136.436 237.536 135.915 241.413 135.184 245.213C135.04 245.988 134.885 246.742 134.741 247.517C134.586 248.536 134.431 249.555 134.242 250.563C135.871 250.874 137.499 251.173 139.127 251.461C149.363 253.266 159.677 254.972 170.101 255.183C179.251 255.36 190.484 255.094 198.892 251.162C201.994 249.71 204.841 247.506 206.469 244.493C207.378 242.787 207.865 241.125 207.976 239.552C208.441 233.193 202.869 228.352 195.757 228.43H195.735Z" fill="white"/>
<path d="M157.105 260.356C163.862 259.725 170.686 260.4 177.466 260.146C184.356 259.891 191.59 256.855 198.392 259.104C199.167 259.359 199.965 259.68 200.773 259.547C201.582 259.426 202.358 258.639 202.114 257.852C202.025 257.576 201.837 257.354 201.66 257.132C199.721 254.839 197.86 253.787 195.212 252.458C192.454 251.483 189.408 251.605 186.771 250.231C183.979 248.769 181.088 246.62 178.009 247.329C176.934 247.583 175.97 248.171 174.962 248.614C171.329 250.231 168.559 249.068 164.959 248.902C164.46 248.879 157.847 248.724 157.825 248.857L157.094 260.334L157.105 260.356Z" fill="#FF5C92"/>
<path d="M164.076 258.285C164.608 254.917 166.015 250.907 165.827 247.517C164.542 247.406 163.246 247.296 161.96 247.174C161.185 247.107 160.399 247.03 159.69 246.709C158.814 246.299 158.15 245.534 157.463 244.847C152.223 239.563 144.856 236.96 137.567 237.99C135.795 238.245 134.022 238.633 132.239 238.433C129.724 238.156 127.054 236.783 124.739 235.797C121.837 234.567 118.912 233.393 115.921 232.396C113.185 231.488 110.382 230.701 107.513 230.59C105.442 230.502 103.359 230.768 101.288 230.945C98.8061 231.144 96.3136 231.2 93.8211 231.122C91.7495 231.056 89.5672 230.59 87.5843 231.432C86.2107 232.008 85.1472 233.138 84.2831 234.346C82.2669 237.215 81.2478 240.837 81.7463 244.305C82.2448 247.772 84.3053 251.04 87.3628 252.768C89.2017 253.809 91.3064 254.275 93.3891 254.651C103.57 256.512 114.071 257.1 124.351 258.517C137.069 260.29 150.03 261.952 162.847 262.461C163.035 262.461 163.246 262.461 163.367 262.317C163.434 262.24 163.456 262.118 163.467 262.018C163.667 260.766 163.866 259.514 164.065 258.263L164.076 258.285Z" fill="white"/>
<path d="M142.297 145.734C142.773 146.155 143.416 146.399 144.058 146.388C144.69 146.388 145.332 146.133 145.809 145.701" stroke="#550046" stroke-width="0.75" stroke-miterlimit="10"/>
<path d="M136.348 140.018C137.555 140.849 139.272 140.838 140.48 140.007" stroke="#550046" stroke-width="0.75" stroke-miterlimit="10"/>
<path d="M146.195 139.818C146.439 140.162 146.838 140.361 147.248 140.461C148.167 140.694 149.186 140.472 149.929 139.885" stroke="#550046" stroke-width="0.75" stroke-miterlimit="10"/>
<path d="M62.5664 274.935H230.782" stroke="#550046" stroke-width="2" stroke-miterlimit="10"/>
<path d="M85.9766 280.052H159.677" stroke="#550046" stroke-miterlimit="10"/>
<path d="M172.691 280.052H198.702" stroke="#550046" stroke-miterlimit="10"/>
<path d="M121.523 285.636H129.776" stroke="#550046" stroke-miterlimit="10"/>
<path d="M128.117 237.281C129.236 238.377 130.975 238.455 132.526 238.4C136.68 238.245 140.868 237.613 144.989 238.222C149.442 238.887 153.674 241.058 156.82 244.282C157.396 244.891 157.972 245.534 158.703 245.955C159.268 246.276 159.91 246.431 160.542 246.564C162.093 246.874 164.618 247.284 166.192 247.195C165.638 249.522 165.183 251.571 164.907 253.942C164.696 255.77 164.541 257.664 163.655 259.281" stroke="#262525" stroke-width="0.5" stroke-miterlimit="10"/>
<path d="M170.379 253.111C170.822 252.801 171.487 252.89 171.83 253.289C172.185 253.698 172.173 254.363 171.797 254.762" stroke="#262525" stroke-width="0.5" stroke-miterlimit="10"/>
<path d="M181.343 227.92C178.33 227.311 175.494 225.55 172.436 225.827C168.127 226.214 164.793 230.546 160.472 230.446C157.78 230.38 155.31 228.563 152.629 228.751C151.023 228.862 149.572 229.671 148.087 230.291C144.875 231.631 141.319 232.086 137.874 231.62L136.434 238.234" stroke="#262525" stroke-width="0.5" stroke-miterlimit="10"/>
<path d="M202.914 238.511C203.579 238.721 204.099 239.33 204.199 240.017C204.299 240.704 203.989 241.446 203.413 241.845" stroke="#262525" stroke-width="0.5" stroke-miterlimit="10"/>
<path d="M86.5285 239.74C85.7309 240.006 85.0883 240.704 84.8889 241.513C84.6895 242.332 84.9332 243.241 85.5093 243.85" stroke="#262525" stroke-width="0.5" stroke-miterlimit="10"/>
<path d="M187.868 211.082C188.123 211.802 187.868 212.666 187.281 213.142" stroke="#262525" stroke-width="0.5" stroke-miterlimit="10"/>
<path d="M99.2912 209.564C98.8149 210.251 98.9922 211.326 99.679 211.813" stroke="#262525" stroke-width="0.5" stroke-miterlimit="10"/>
<path d="M153.082 167.668C151.011 169.607 148.241 170.693 145.428 171.047C142.614 171.391 139.756 171.025 137.02 170.305" stroke="#262525" stroke-width="0.5" stroke-miterlimit="10"/>
<path d="M142.605 172.698C145.53 172.576 148.432 171.922 151.146 170.814" stroke="#262525" stroke-width="0.5" stroke-miterlimit="10"/>
<path d="M164.042 194.964H163.787C163.555 192.504 163.1 190.034 162.879 187.575" stroke="#262525" stroke-width="0.5" stroke-miterlimit="10"/>
<path d="M123.449 193.59C123.859 190.954 124.28 188.317 124.679 185.692" stroke="#262525" stroke-width="0.5" stroke-miterlimit="10"/>
<g opacity="0.51">
<path d="M223.852 95.4521C223.852 95.6847 223.653 95.8841 223.42 95.8841C223.188 95.8841 222.988 95.6847 222.988 95.4521C222.988 95.2194 223.188 95.02 223.42 95.02C223.653 95.02 223.852 95.2194 223.852 95.4521Z" fill="white"/>
<path d="M213.45 114.528C213.45 114.76 213.25 114.96 213.018 114.96C212.785 114.96 212.586 114.76 212.586 114.528C212.586 114.295 212.785 114.096 213.018 114.096C213.25 114.096 213.45 114.295 213.45 114.528Z" fill="white"/>
<path d="M211.709 91.5525C211.709 92.0289 211.321 92.4166 210.845 92.4166C210.368 92.4166 209.98 92.0289 209.98 91.5525C209.98 91.0762 210.368 90.6885 210.845 90.6885C211.321 90.6885 211.709 91.0762 211.709 91.5525Z" fill="white"/>
<path d="M213.627 99.5287C214.214 100.116 214.214 101.046 213.627 101.622C213.051 102.21 212.11 102.21 211.534 101.622C210.958 101.035 210.958 100.105 211.534 99.5287C212.121 98.9416 213.051 98.9416 213.627 99.5287Z" fill="white"/>
<path d="M198.705 101.09C198.705 101.566 198.317 101.954 197.841 101.954C197.364 101.954 196.977 101.566 196.977 101.09C196.977 100.614 197.364 100.226 197.841 100.226C198.317 100.226 198.705 100.614 198.705 101.09Z" fill="white"/>
<path d="M165.759 128.397C165.759 128.63 165.559 128.829 165.327 128.829C165.094 128.829 164.895 128.63 164.895 128.397C164.895 128.165 165.094 127.965 165.327 127.965C165.559 127.965 165.759 128.165 165.759 128.397Z" fill="white"/>
<path d="M188.737 134.9C188.969 134.9 189.169 134.711 189.169 134.468C189.169 134.224 188.969 134.036 188.737 134.036C188.504 134.036 188.305 134.224 188.305 134.468C188.305 134.711 188.504 134.9 188.737 134.9Z" fill="white"/>
<path d="M189.166 147.905C189.166 148.381 188.778 148.769 188.302 148.769C187.825 148.769 187.438 148.381 187.438 147.905C187.438 147.429 187.825 147.041 188.302 147.041C188.778 147.041 189.166 147.429 189.166 147.905Z" fill="white"/>
<path d="M205.641 147.473C205.641 147.706 205.442 147.905 205.209 147.905C204.977 147.905 204.777 147.706 204.777 147.473C204.777 147.24 204.977 147.041 205.209 147.041C205.442 147.041 205.641 147.24 205.641 147.473Z" fill="white"/>
<path d="M223.853 109.754C223.853 110.23 223.465 110.618 222.989 110.618C222.513 110.618 222.125 110.23 222.125 109.754C222.125 109.277 222.513 108.89 222.989 108.89C223.465 108.89 223.853 109.277 223.853 109.754Z" fill="white"/>
<path d="M143.204 104.548C143.68 104.548 144.068 104.16 144.068 103.683C144.068 103.207 143.68 102.819 143.204 102.819C142.728 102.819 142.34 103.207 142.34 103.683C142.34 104.16 142.728 104.548 143.204 104.548Z" fill="white"/>
<path d="M138.876 123.202C138.876 123.435 138.676 123.634 138.444 123.634C138.211 123.634 138.012 123.435 138.012 123.202C138.012 122.969 138.211 122.77 138.444 122.77C138.676 122.77 138.876 122.969 138.876 123.202Z" fill="white"/>
<path d="M156.213 105.422C156.213 105.899 155.825 106.286 155.348 106.286C154.872 106.286 154.484 105.899 154.484 105.422C154.484 104.946 154.872 104.558 155.348 104.558C155.825 104.558 156.213 104.946 156.213 105.422Z" fill="white"/>
<path d="M158.815 109.321C158.815 110.041 158.228 110.617 157.519 110.617C156.81 110.617 156.223 110.03 156.223 109.321C156.223 108.612 156.81 108.025 157.519 108.025C158.228 108.025 158.815 108.612 158.815 109.321Z" fill="white"/>
<path d="M114.591 142.699C114.591 143.175 114.204 143.563 113.727 143.563C113.251 143.563 112.863 143.175 112.863 142.699C112.863 142.222 113.251 141.834 113.727 141.834C114.204 141.834 114.591 142.222 114.591 142.699Z" fill="white"/>
<path d="M118.724 140.251C118.17 140.251 118.17 141.115 118.724 141.115C119.278 141.115 119.278 140.251 118.724 140.251Z" fill="white"/>
<path d="M117.716 148.149C117.162 148.149 117.162 149.013 117.716 149.013C118.27 149.013 118.27 148.149 117.716 148.149Z" fill="white"/>
<path d="M120.473 145.39C120.307 145.379 120.163 145.39 119.997 145.457C119.521 145.634 119.632 146.254 120.119 146.31C120.174 146.31 120.23 146.321 120.296 146.332C120.418 146.343 120.507 146.321 120.573 146.254C121.027 146.21 120.994 145.446 120.485 145.401L120.473 145.39Z" fill="white"/>
</g>
<path d="M219.031 159.958C219.253 160.113 219.474 160.257 219.718 160.39H283.161C283.493 157.853 280.524 154.009 278.796 152.857C276.758 151.495 274.154 151.351 271.706 151.439C269.335 151.528 266.909 151.816 264.838 152.946C264.605 150.764 263.243 148.736 261.304 147.717C257.493 145.701 251.833 147.773 251.068 152.226C251.378 146.842 246.46 141.602 241.076 141.968C235.692 142.333 231.494 148.67 233.61 153.633C232.801 151.749 214.334 151.605 217.779 158.584C218.056 159.138 218.477 159.581 219.02 159.947L219.031 159.958Z" fill="white"/>
<path d="M170.742 71.5458C170.963 70.715 171.041 69.8509 170.919 68.9647C170.343 64.9102 166.422 63.1821 163.109 62.8719C160.739 62.6504 158.457 62.9606 156.108 63.1157C157.726 60.4016 156.551 56.2363 154.768 53.8878C152.84 51.351 149.639 49.8334 146.459 49.9442C145.418 49.9885 144.377 50.1768 143.369 50.4538C138.561 51.772 135.625 54.8295 134.883 59.2938C134.363 58.8618 133.775 58.4851 133.277 58.175C130.851 56.6352 128.137 56.3139 125.478 57.5103C123.252 58.5184 121.59 60.3905 120.704 62.6393C120.681 62.7058 120.648 62.7833 120.626 62.8498C113.005 57.5546 102.104 61.8639 97.0747 69.3524C96.5983 70.0171 96.1663 70.7482 95.8008 71.5348H170.753L170.742 71.5458Z" fill="white"/>
<path d="M28.3164 131.477C28.4826 130.281 28.8702 129.074 29.2247 127.921C29.7897 126.105 30.5209 124.233 31.9721 122.992C33.9661 121.286 36.9349 121.142 39.4274 121.962C41.8091 122.748 43.5705 124.665 45.7528 125.562C46.3953 122.726 45.9301 119.89 47.1375 117.087C48.3561 114.274 51.048 111.792 54.2716 111.648C57.3956 111.504 60.2647 113.565 61.8156 116.124C63.3776 118.672 63.876 121.651 64.3524 124.565C65.1168 120.411 69.6808 116.966 74.0676 117.885C78.4544 118.804 80.8805 124.62 77.823 127.7C81.3125 126.636 86.9622 126.636 89.2885 130.968C89.355 131.101 89.4436 131.212 89.499 131.344C89.3217 130.935 83.3951 131.344 82.9077 131.344C64.729 131.344 46.4396 131.655 28.3274 131.466H28.3164V131.477Z" fill="white"/>
<path d="M258.656 103.927C262.079 101.977 266.422 103.174 268.371 106.586C270.321 110.009 269.125 114.351 265.713 116.301" stroke="#4D4954" stroke-width="0.75" stroke-miterlimit="10"/>
<path d="M149.308 27.501C146.572 25.2855 146.151 21.2753 148.366 18.5502C150.582 15.814 154.592 15.393 157.317 17.6197" stroke="#4D4954" stroke-width="0.75" stroke-miterlimit="10"/>
<path d="M259.41 110.496C259.41 111.936 258.246 113.099 256.806 113.099C255.366 113.099 254.203 111.936 254.203 110.496C254.203 109.056 255.366 107.893 256.806 107.893C258.246 107.893 259.41 109.056 259.41 110.496Z" stroke="#4D4954" stroke-width="0.75" stroke-miterlimit="10"/>
<path d="M3.76821 199.284C0.910139 198.044 -0.397056 194.72 0.843656 191.873C2.08437 189.015 5.4077 187.708 8.25469 188.949" stroke="#4D4954" stroke-width="0.75" stroke-miterlimit="10"/>
<path d="M21.2378 212.71C25.6578 210.882 27.7626 205.798 25.9347 201.378C24.1069 196.957 19.0333 194.853 14.6022 196.681C10.1822 198.508 8.07733 203.582 9.90516 208.013C11.733 212.433 16.8067 214.538 21.2378 212.71Z" stroke="#4D4954" stroke-width="0.75" stroke-miterlimit="10"/>
<path d="M15.3128 182.59C15.3128 184.263 13.9502 185.625 12.2775 185.625C10.6047 185.625 9.24219 184.263 9.24219 182.59C9.24219 180.917 10.6047 179.555 12.2775 179.555C13.9502 179.555 15.3128 180.917 15.3128 182.59Z" stroke="#4D4954" stroke-width="0.75" stroke-miterlimit="10"/>
<path d="M246.738 259.304C247.813 258.251 249.541 258.273 250.593 259.359C251.646 260.434 251.624 262.162 250.538 263.214" stroke="#4D4954" stroke-width="0.75" stroke-miterlimit="10"/>
<path d="M162.39 29.6502C162.39 31.0903 161.227 32.2534 159.787 32.2534C158.347 32.2534 157.184 31.0903 157.184 29.6502C157.184 28.21 158.347 27.0469 159.787 27.0469C161.227 27.0469 162.39 28.21 162.39 29.6502Z" stroke="#4D4954" stroke-width="0.75" stroke-miterlimit="10"/>
<path d="M244.221 267.568C244.221 268.288 243.645 268.864 242.925 268.864C242.205 268.864 241.629 268.277 241.629 267.568C241.629 266.859 242.205 266.272 242.925 266.272C243.645 266.272 244.221 266.859 244.221 267.568Z" stroke="#4D4954" stroke-width="0.75" stroke-miterlimit="10"/>
<path d="M151.448 33.2614C151.448 33.9815 150.872 34.5575 150.152 34.5575C149.431 34.5575 148.855 33.9704 148.855 33.2614C148.855 32.5524 149.431 31.9653 150.152 31.9653C150.872 31.9653 151.448 32.5524 151.448 33.2614Z" stroke="#4D4954" stroke-width="0.75" stroke-miterlimit="10"/>
<path d="M252.897 273.207C254.813 273.207 256.364 271.656 256.364 269.739C256.364 267.823 254.813 266.272 252.897 266.272C250.981 266.272 249.43 267.823 249.43 269.739C249.43 271.656 250.981 273.207 252.897 273.207Z" stroke="#4D4954" stroke-width="0.75" stroke-miterlimit="10"/>
<defs>
<linearGradient id="paint0_linear_1313_5800" x1="146.572" y1="143.685" x2="144.999" y2="155.97" gradientUnits="userSpaceOnUse">
<stop offset="0.68" stop-color="#2F2D2D" stop-opacity="0.91"/>
<stop offset="1" stop-color="#FF5C92" stop-opacity="0"/>
</linearGradient>
</defs>
</svg>
