<svg width="24" height="24" viewBox="0 0 24 24" fill="none" xmlns="http://www.w3.org/2000/svg">
<path d="M5.31891 14.5034L4.48351 17.6221L1.43011 17.6867C0.517594 15.9942 0 14.0577 0 11.9999C0 10.01 0.483938 8.1335 1.34175 6.4812H1.34241L4.06079 6.97958L5.2516 9.68164C5.00236 10.4083 4.86652 11.1883 4.86652 11.9999C4.86661 12.8808 5.02618 13.7248 5.31891 14.5034Z" fill="#FBBB00"/>
<path d="M23.7922 9.7583C23.93 10.4842 24.0018 11.2339 24.0018 12.0001C24.0018 12.8592 23.9115 13.6972 23.7394 14.5056C23.1553 17.2563 21.6289 19.6583 19.5144 21.3581L19.5137 21.3574L16.0898 21.1827L15.6052 18.1577C17.0083 17.3348 18.1048 16.0471 18.6824 14.5056H12.2656V9.7583H18.776H23.7922Z" fill="#518EF8"/>
<path d="M19.5115 21.3575L19.5121 21.3582C17.4557 23.0111 14.8433 24.0001 11.9996 24.0001C7.42969 24.0001 3.45652 21.4459 1.42969 17.6869L5.31849 14.5037C6.33188 17.2083 8.9409 19.1336 11.9996 19.1336C13.3143 19.1336 14.546 18.7782 15.6029 18.1577L19.5115 21.3575Z" fill="#28B446"/>
<path d="M19.6616 2.76263L15.7741 5.94526C14.6803 5.26154 13.3873 4.86657 12.002 4.86657C8.87409 4.86657 6.21627 6.88018 5.25364 9.68176L1.34441 6.48132H1.34375C3.34091 2.63077 7.36419 0 12.002 0C14.9137 0 17.5833 1.03716 19.6616 2.76263Z" fill="#F14336"/>
</svg>
