<svg width="339" height="232" viewBox="0 0 339 232" fill="none" xmlns="http://www.w3.org/2000/svg">
<g clip-path="url(#clip0_1439_6383)">
<mask id="mask0_1439_6383" style="mask-type:luminance" maskUnits="userSpaceOnUse" x="4" y="-1" width="332" height="232">
<path d="M322.921 212.805C320.811 215.384 318.506 217.798 316.028 220.025C310.88 224.674 301.63 227.856 288.115 229.345C268.828 231.469 240.854 230.147 203.714 224.722C150.349 216.925 74.9668 238.099 37.1549 227.117C31.6154 225.507 26.8785 223.208 23.1428 220.025C13.0233 211.417 7.75451 201.893 5.46174 191.595C0.945652 171.303 7.97809 147.998 12.2289 122.679C13.5774 114.647 14.6467 106.412 14.9758 98.0081C15.2466 91.1242 15.023 84.1236 14.0509 77.0342C6.2547 20.1312 41.6946 -9.15259 86.5056 2.54373C126.188 12.9044 196.362 13.189 258.905 3.77945C308.777 -3.71819 345.36 23.5274 326.418 70.4251C320.956 83.9528 321.419 98.333 323.875 112.962C324.031 113.894 324.196 114.827 324.37 115.762C326.428 126.941 329.508 138.239 331.859 149.381C332.47 152.269 333.031 155.146 333.513 158.01C336.793 177.466 336.432 196.224 322.921 212.805Z" fill="white"/>
</mask>
<g mask="url(#mask0_1439_6383)">
<path d="M322.921 212.805C320.811 215.384 318.506 217.798 316.028 220.025C310.88 224.674 301.63 227.856 288.115 229.345C268.828 231.469 240.854 230.147 203.714 224.722C150.349 216.925 74.9668 238.099 37.1549 227.117C31.6154 225.507 26.8785 223.208 23.1428 220.025C13.0233 211.417 7.75451 201.893 5.46174 191.595C0.945652 171.303 7.97809 147.998 12.2289 122.679C13.5774 114.647 14.6467 106.412 14.9758 98.0081C15.2466 91.1242 15.023 84.1236 14.0509 77.0342C6.2547 20.1312 41.6946 -9.15259 86.5056 2.54373C126.188 12.9044 196.362 13.189 258.905 3.77945C308.777 -3.71819 345.36 23.5274 326.418 70.4251C320.956 83.9528 321.419 98.333 323.875 112.962C324.031 113.894 324.196 114.827 324.37 115.762C326.428 126.941 329.508 138.239 331.859 149.381C332.47 152.269 333.031 155.146 333.513 158.01C336.793 177.466 336.432 196.224 322.921 212.805Z" fill="#CFE5C5"/>
<path d="M235.052 241.424C232.131 243.026 229.092 244.402 225.961 245.539C219.448 247.927 209.678 247.423 196.584 243.754C195.096 235.308 188.832 198.768 188.138 195.032C187.351 190.783 186.798 187.556 186.472 186.112C186.425 185.838 186.349 185.569 186.245 185.311C183.409 180.59 184.432 180.243 179.138 176.403C178.468 175.917 177.835 175.324 177.102 174.835C170.51 170.441 168.549 166.761 167.936 165.688C167.736 165.34 167.374 164.189 167.373 164.187C167.326 164.118 167.3 164.037 167.298 163.954C167.217 163.072 168.184 160.386 169.431 158.427C169.47 158.363 169.51 158.3 169.552 158.24C169.643 158.102 169.738 157.963 169.829 157.832C169.903 157.732 169.968 157.634 170.05 157.541C170.062 157.528 170.072 157.514 170.082 157.5C170.646 156.794 171.068 156.29 171.182 156.181C171.297 156.075 171.419 155.975 171.547 155.883C171.982 155.573 172.487 155.378 173.016 155.314C174.604 155.104 176.11 155.969 176.11 155.969C176.11 155.969 176.173 155.813 176.285 155.526L176.335 155.402C176.556 154.847 176.928 153.908 177.407 152.72C177.427 152.67 177.446 152.619 177.469 152.567C177.546 152.369 177.63 152.16 177.717 151.947L177.823 151.684C177.831 151.663 177.838 151.641 177.848 151.619L177.866 151.573C178.11 150.971 178.37 150.324 178.645 149.657L178.866 149.116C178.883 149.051 178.891 148.985 178.891 148.918C178.909 148.456 178.842 147.277 178.725 145.69C178.706 145.413 178.074 144.542 177.221 143.469C177.083 143.292 176.935 143.11 176.785 142.926C176.751 142.883 176.712 142.837 176.676 142.787C174.881 140.589 172.557 137.979 172.558 137.975C176.446 139.58 179.789 140.495 182.655 140.967C184.216 141.231 185.794 141.376 187.377 141.399C187.63 141.399 187.877 141.399 188.117 141.399C188.553 141.391 188.97 141.375 189.367 141.35C194.25 141.044 196.702 139.507 197.583 140.138C199.506 141.514 201.095 142.937 201.749 144.245C203.363 147.486 204.925 156.324 206.269 164.069C207.261 169.787 208.136 174.913 208.823 176.769C209.33 178.138 210.817 182.198 213.238 188.723C214.286 191.542 227.34 222.776 235.052 241.424Z" fill="#E87765"/>
<path d="M194.732 169.363C194.176 169.136 192.946 168.5 191.85 166.961C190.523 165.095 189.152 161.487 190.162 154.89L190.403 154.926C189.848 158.524 189.692 163.505 192.05 166.818C193.45 168.784 195.09 169.23 195.105 169.234L195.044 169.472C194.938 169.441 194.834 169.405 194.732 169.363Z" fill="#E87765"/>
<path d="M206.279 164.076C206.279 164.076 206.176 143.569 199.305 130.578C198.366 128.802 198.09 125.408 197.888 121.705C197.804 120.162 197.733 118.565 197.633 117.012C197.619 116.799 197.604 116.587 197.59 116.376C197.399 113.713 188.989 115.311 190.803 127.143C191.231 129.933 193.185 139.362 187.148 143.609C183.3 146.319 199.292 162.316 206.279 164.076Z" fill="#E87765"/>
<path d="M164.553 145.282L164.752 144.091C165.118 141.753 168.623 141.075 172.753 141.951L182.802 144.098C187.035 144.997 189.071 146.458 189.247 148.9C189.267 149.396 189.195 149.89 189.035 150.36C188.236 152.619 186.118 153.71 181.891 152.812L171.394 150.632C167.265 149.756 164.186 147.619 164.553 145.282Z" fill="#F67F72"/>
<path d="M163.835 153.953L163.992 152.72C164.27 150.521 167.603 149.796 171.574 150.483L182.077 152.302C186.153 153.007 188.928 154.644 189.09 156.942C189.115 157.406 189.047 157.87 188.89 158.307C188.132 160.441 185.104 161.174 181.029 160.468L170.526 158.65C166.55 157.963 163.552 156.152 163.835 153.953Z" fill="#F67F72"/>
<path d="M164.305 160.494L164.582 159.603C165.128 157.866 168.02 157.371 171.232 158.06L177.752 159.701C180.31 160.316 183.465 161.416 183.041 163.751C182.529 166.571 177.877 166.457 176.391 166.055L169.205 164.512C165.996 163.823 163.759 162.239 164.305 160.494Z" fill="#F67F72"/>
<g opacity="0.5">
<path d="M188.155 149.535C188.523 147.697 187.156 146.855 185.563 146.558L183.553 146.183C182.793 146.044 182.104 146.449 182.025 147.089L181.739 149.37C181.65 150.079 182.267 150.787 183.11 150.946L185.4 151.372C186.756 151.626 187.99 150.357 188.155 149.535Z" fill="#FFB0A1"/>
</g>
<path d="M168.739 138.468C168.774 138.252 169.042 136.889 169.042 136.889C169.471 134.945 172.321 134.698 175.513 135.569L182.658 137.512C185.933 138.405 187.956 138.976 188.119 141.093C188.162 141.649 187.884 142.741 187.627 143.28C186.53 145.581 184.039 145.068 180.764 144.176L173.921 142.801C170.727 141.93 168.427 140.441 168.739 138.468Z" fill="#F67F72"/>
<g opacity="0.5">
<path d="M187.618 157.796L187.66 157.658C188.04 156.365 187.229 155.094 185.854 154.833L184.049 154.49C183.73 154.431 183.401 154.489 183.122 154.653C182.843 154.818 182.632 155.077 182.53 155.385L181.903 157.513C181.856 157.674 181.844 157.844 181.867 158.01C181.891 158.176 181.95 158.336 182.04 158.477C182.131 158.619 182.25 158.74 182.391 158.831C182.532 158.922 182.691 158.982 182.857 159.007L184.899 159.396C186.074 159.614 187.294 158.895 187.618 157.796Z" fill="#FFB0A1"/>
</g>
<g opacity="0.5">
<path d="M181.662 163.489L181.653 163.531C181.428 164.598 180.476 165.325 179.539 165.144L177.914 164.83C177.467 164.744 177.189 164.255 177.296 163.746L177.652 162.062C177.771 161.497 178.274 161.112 178.763 161.208L180.551 161.553C181.357 161.71 181.854 162.581 181.662 163.489Z" fill="#FFB0A1"/>
</g>
<g opacity="0.5">
<path d="M187.57 142.497L187.633 142.168C187.848 141.033 187.023 139.849 185.797 139.539L184.408 139.184C183.824 139.035 183.261 139.357 183.159 139.899L182.764 141.973C182.65 142.575 183.088 143.201 183.736 143.362L185.347 143.778C186.382 144.038 187.39 143.463 187.57 142.497Z" fill="#FFB0A1"/>
</g>
<path d="M169.967 150.336C169.948 150.331 169.933 150.319 169.923 150.302C169.914 150.285 169.912 150.266 169.917 150.247C169.922 150.229 169.934 150.213 169.951 150.204C169.967 150.194 169.987 150.192 170.006 150.197L185.066 153.032C185.075 153.034 185.084 153.038 185.091 153.043C185.099 153.047 185.105 153.054 185.11 153.061C185.115 153.069 185.119 153.077 185.12 153.086C185.122 153.095 185.122 153.104 185.12 153.113C185.117 153.131 185.107 153.147 185.092 153.157C185.076 153.168 185.058 153.172 185.04 153.169L169.981 150.333C169.976 150.336 169.972 150.337 169.967 150.336Z" fill="#E87765"/>
<path d="M171.117 141.751C171.102 141.745 171.09 141.733 171.082 141.719C171.075 141.705 171.072 141.688 171.076 141.672C171.08 141.655 171.091 141.639 171.106 141.63C171.121 141.62 171.14 141.617 171.158 141.621L185.627 144.793C185.644 144.798 185.66 144.809 185.669 144.825C185.679 144.84 185.683 144.859 185.679 144.877C185.675 144.894 185.664 144.91 185.648 144.92C185.633 144.93 185.614 144.933 185.596 144.929L171.128 141.755L171.117 141.751Z" fill="#E87765"/>
<path d="M167.445 157.891C167.43 157.884 167.418 157.873 167.411 157.859C167.403 157.845 167.401 157.829 167.403 157.813C167.407 157.795 167.418 157.779 167.433 157.769C167.449 157.759 167.467 157.755 167.485 157.759L179.73 160.197C179.738 160.199 179.747 160.202 179.755 160.207C179.762 160.212 179.769 160.219 179.774 160.227C179.779 160.234 179.782 160.243 179.784 160.252C179.786 160.261 179.786 160.27 179.784 160.279C179.782 160.288 179.779 160.296 179.774 160.304C179.769 160.311 179.762 160.318 179.755 160.323C179.747 160.328 179.739 160.331 179.73 160.333C179.721 160.335 179.712 160.335 179.703 160.333L167.457 157.895L167.445 157.891Z" fill="#E87765"/>
<g opacity="0.5">
<path d="M196.13 122.207C196.834 122.596 198.152 121.813 198.152 121.813C198.069 120.271 197.997 118.674 197.897 117.12C197.373 117.141 196.655 117.288 196.293 117.875C195.684 118.864 195.426 121.819 196.13 122.207Z" fill="#FFB0A1"/>
</g>
<path d="M73.0772 83.7195C73.0772 83.7195 69.7568 84.8191 67.1057 85.8244L66.9432 85.8869C66.7224 85.9716 66.5044 86.0549 66.2961 86.1382C65.0212 86.6394 64.0353 87.0837 63.8811 87.3072C62.9854 88.6221 62.3396 89.6093 62.123 90.0189C62.0896 90.0765 62.0635 90.1381 62.0452 90.2022C62.0188 90.3965 61.9925 90.5895 61.9675 90.7812C61.8703 91.5018 61.773 92.189 61.6897 92.8305L61.6814 92.8791C61.6814 92.9027 61.6814 92.9263 61.6717 92.9485L61.6619 93.011C61.6522 93.0832 61.6411 93.1568 61.6314 93.2276C61.5981 93.4553 61.5675 93.6775 61.5356 93.8899C61.5356 93.9454 61.5189 93.9982 61.512 94.0523C61.3314 95.32 61.1842 96.3197 61.0954 96.9125C61.0954 96.9584 61.0815 97.0042 61.0759 97.0431C61.0315 97.3499 61.0065 97.5138 61.0065 97.5138C61.0065 97.5138 62.7438 97.5138 64.013 98.4954C64.4395 98.8157 64.7789 99.2376 65.0004 99.7228C65.066 99.866 65.1217 100.013 65.1671 100.164C65.2115 100.314 65.3254 100.964 65.4587 101.857C65.4601 101.874 65.4629 101.89 65.467 101.907C65.4865 102.037 65.5073 102.161 65.5295 102.278C65.5642 102.465 65.6017 102.639 65.642 102.795C65.6628 102.876 65.6823 102.954 65.7031 103.027C66.1405 104.613 66.6141 104.832 64.7491 106.608C64.4713 106.872 63.8144 107.556 62.8049 108.396C60.5218 110.29 56.4473 112.978 50.9703 113.373C46.6569 113.685 41.9672 113.149 39.287 113.745C36.8568 114.285 25.4693 118.099 12.2266 122.668C13.575 114.636 14.6443 106.401 14.9734 97.9969C17.0982 97.679 19.1396 97.3346 21.0838 96.9611C23.7154 96.4571 27.1052 93.8927 30.8256 89.4399C35.868 83.4015 41.6437 76.537 44.6627 74.539C45.882 73.7323 47.9692 73.2894 50.3245 73.0673C51.4049 72.9631 52.7561 75.5221 56.8306 78.2282C57.1653 78.4517 57.525 78.6738 57.893 78.8988C58.0999 79.021 58.3096 79.1445 58.5332 79.2681C59.9155 80.0398 61.3547 80.7049 62.8382 81.2578C65.5531 82.281 68.9083 83.1627 73.0772 83.7195Z" fill="#FF9280"/>
<path d="M38.8934 99.8436C38.5415 99.8509 38.1901 99.8136 37.8477 99.7325L37.9129 99.4965C37.9282 99.4965 39.5794 99.9352 41.7847 98.9258C43.8219 97.99 46.7521 95.5936 49.1448 89.4622L49.374 89.5524C48.0325 92.9833 45.6425 97.4346 41.8749 99.1577C40.9418 99.5977 39.9249 99.8316 38.8934 99.8436Z" fill="#E87765"/>
<path d="M30.8242 89.4442C30.8242 89.4442 41.1798 71.7415 53.6297 63.937C55.3322 62.8693 57.2709 60.0674 59.2984 56.9642C60.1441 55.6701 61.0037 54.3261 61.8689 53.0293L62.2244 52.5003C63.7228 50.2899 70.2039 55.8798 62.7104 65.2171C60.944 67.4081 54.5351 74.5947 57.6319 81.2926C59.6039 85.5663 37.7511 91.4131 30.8242 89.4442Z" fill="#FF9280"/>
<path d="M76.3573 94.0496L76.7739 92.918C77.6266 90.7118 74.9311 88.3709 70.9177 87.0629L61.1439 83.8931C57.0292 82.5532 54.5323 82.8032 53.1588 84.8248C52.8943 85.2447 52.7092 85.7097 52.6131 86.1965C52.1742 88.5569 53.4546 90.5521 57.5694 91.8892L67.75 95.2548C71.769 96.5655 75.5032 96.2573 76.3573 94.0496Z" fill="#FFA089"/>
<path d="M72.6332 101.915L73.1151 100.77C73.9705 98.7231 71.4486 96.4321 67.6685 95.0381L57.6698 91.3573C53.7814 89.9272 50.5665 89.9578 49.275 91.8655C49.0214 92.2546 48.8477 92.6902 48.764 93.1471C48.3474 95.3686 50.6068 97.5235 54.4897 98.9522L64.4884 102.633C68.2754 104.027 71.7777 103.96 72.6332 101.915Z" fill="#FFA089"/>
<path d="M68.9527 107.343L69.1569 106.432C69.5554 104.655 67.2988 102.779 64.1742 101.769L57.7069 99.9269C55.185 99.1799 51.9021 98.5524 51.1008 100.786C50.1287 103.484 54.2171 105.715 55.7044 106.108L62.698 108.367C65.8226 109.379 68.5556 109.121 68.9527 107.343Z" fill="#FFA089"/>
<path d="M54.0751 85.962C54.6764 84.1862 56.2803 84.1417 57.8079 84.6819L59.7368 85.3636C60.4659 85.6205 60.8575 86.3174 60.6062 86.9117L59.7118 89.0291C59.4341 89.6872 58.5453 89.9927 57.7357 89.7067L55.5429 88.9291C54.2417 88.4709 53.8084 86.7562 54.0751 85.962Z" fill="#FFB0A1"/>
<path d="M76.1407 86.0535C76.2185 85.8508 76.6684 84.5359 76.6684 84.5359C77.2711 82.6337 74.9269 80.9981 71.726 80.1553L64.5644 78.2684C61.2829 77.4034 59.2456 76.88 58.0444 78.6364C57.7264 79.1001 57.4222 80.1803 57.375 80.776C57.1736 83.3168 59.5872 84.1194 62.8688 84.9844L69.4901 87.2142C72.6842 88.0584 75.4227 87.9195 76.1407 86.0535Z" fill="#FFA089"/>
<path d="M50.1205 93.3402L50.1566 93.2013C50.4746 91.8934 51.8119 91.1992 53.1284 91.6587L54.8615 92.2613C55.1651 92.3697 55.4197 92.5836 55.5787 92.8639C55.7378 93.1443 55.7908 93.4725 55.7281 93.7886L55.2045 95.9449C55.1648 96.108 55.0906 96.2608 54.987 96.3929C54.8833 96.525 54.7525 96.6334 54.6035 96.7107C54.4544 96.788 54.2905 96.8326 54.1228 96.8413C53.9551 96.85 53.7874 96.8228 53.6311 96.7613L51.6689 96.0768C50.5468 95.6866 49.851 94.4537 50.1205 93.3402Z" fill="#FFB0A1"/>
<path d="M52.4267 101.252L52.4129 101.292C52.0726 102.329 52.5337 103.434 53.435 103.747L54.9986 104.288C55.4291 104.437 55.9152 104.149 56.0763 103.659L56.6123 102.024C56.7915 101.468 56.5484 100.889 56.0707 100.724L54.3543 100.128C53.5808 99.8618 52.7156 100.367 52.4267 101.252Z" fill="#FFB0A1"/>
<path d="M58.1038 80.1609L58.2135 79.8444C58.5954 78.753 59.9022 78.1421 61.1173 78.4865L62.506 78.878C63.0865 79.0418 63.4129 79.6028 63.231 80.1276L62.5366 82.12C62.3352 82.6976 61.6437 83.0211 60.9993 82.8393L59.4009 82.3866C58.3649 82.0895 57.783 81.0898 58.1038 80.1609Z" fill="#FFB0A1"/>
<path d="M69.146 95.7157C69.1381 95.717 69.1302 95.717 69.1223 95.7157L54.6658 90.6354C54.65 90.6282 54.6374 90.6154 54.6306 90.5994C54.6238 90.5835 54.6232 90.5655 54.6289 90.5491C54.6347 90.5327 54.6464 90.5191 54.6617 90.5109C54.677 90.5027 54.6948 90.5005 54.7117 90.5049L69.1682 95.5866C69.1854 95.5926 69.1996 95.6051 69.2076 95.6215C69.2157 95.6379 69.217 95.6568 69.2112 95.6741C69.2054 95.6865 69.1962 95.697 69.1846 95.7044C69.1731 95.7118 69.1597 95.7157 69.146 95.7157Z" fill="#E87765"/>
<path d="M72.4492 87.7085H72.4284L58.3135 83.2141C58.296 83.2084 58.2815 83.196 58.2732 83.1796C58.2648 83.1632 58.2633 83.1441 58.269 83.1267C58.2717 83.118 58.2761 83.1101 58.2819 83.1032C58.2877 83.0962 58.2948 83.0906 58.3028 83.0864C58.3108 83.0823 58.3196 83.0798 58.3285 83.0791C58.3375 83.0784 58.3466 83.0794 58.3551 83.0822L72.47 87.5739C72.4786 87.5765 72.4866 87.5809 72.4935 87.5867C72.5004 87.5925 72.5061 87.5996 72.5102 87.6076C72.5144 87.6156 72.5169 87.6244 72.5176 87.6334C72.5183 87.6423 72.5173 87.6514 72.5145 87.6599C72.5101 87.6739 72.5014 87.6861 72.4897 87.6948C72.478 87.7035 72.4638 87.7083 72.4492 87.7085Z" fill="#E87765"/>
<path d="M67.5464 103.517H67.5242L55.7034 99.5021C55.6938 99.5 55.6848 99.496 55.6769 99.4902C55.6689 99.4844 55.6623 99.477 55.6575 99.4685C55.6526 99.4599 55.6497 99.4505 55.6487 99.4407C55.6478 99.4309 55.649 99.4211 55.6521 99.4118C55.6553 99.4025 55.6604 99.394 55.6671 99.3868C55.6738 99.3797 55.6819 99.374 55.691 99.3702C55.7 99.3664 55.7098 99.3645 55.7196 99.3648C55.7294 99.365 55.739 99.3673 55.7479 99.3716L67.5686 103.387C67.587 103.39 67.6035 103.4 67.6144 103.415C67.6254 103.43 67.6299 103.449 67.6269 103.467C67.624 103.486 67.6138 103.502 67.5987 103.513C67.5836 103.524 67.5648 103.529 67.5464 103.526V103.517Z" fill="#E87765"/>
<path d="M60.8548 58.3124C60.0507 58.2971 59.3008 56.96 59.3008 56.96C60.1465 55.666 61.0061 54.322 61.8713 53.0251C62.3143 53.3028 62.8628 53.7902 62.8823 54.4802C62.9142 55.641 61.6588 58.329 60.8548 58.3124Z" fill="#FFB0A1"/>
<path d="M128.826 51.881L126.641 50.7467C128.341 47.4685 128.042 46.4522 127.911 46.2176C127.606 45.6774 126.144 45.583 124.969 45.5053C123.338 45.3998 121.652 45.2887 120.573 44.2085C120.214 43.8685 119.937 43.4522 119.762 42.9904C119.586 42.5287 119.517 42.0334 119.559 41.5413C119.771 39.0531 122.711 36.9094 123.046 36.6733L124.467 38.681L123.756 37.6772L124.468 38.6797C123.704 39.2239 122.099 40.6887 122.01 41.7523C121.995 41.9411 122.018 42.1688 122.311 42.4701C122.736 42.895 124.064 42.9811 125.129 43.0505C126.988 43.1727 129.095 43.3101 130.053 45.0096C130.895 46.5008 130.516 48.6196 128.826 51.8797V51.881Z" fill="#1C45AD"/>
<path d="M285.558 45.4079L285.094 42.992C288.72 42.2978 289.333 41.43 289.435 41.1871C289.67 40.6136 288.839 39.4071 288.171 38.4379C287.243 37.0911 286.285 35.6999 286.464 34.1837C286.508 33.6895 286.663 33.2116 286.918 32.7857C287.173 32.3599 287.52 31.9972 287.935 31.7248C290.018 30.3502 293.525 31.3277 293.916 31.4471L293.222 33.8074L293.57 32.6286L293.212 33.8074C292.312 33.5464 290.168 33.1937 289.278 33.7838C289.12 33.8894 288.95 34.0518 288.902 34.4656C288.831 35.0626 289.586 36.1567 290.192 37.037C291.249 38.5643 292.446 40.3082 291.705 42.1132C291.057 43.6974 289.16 44.7137 285.552 45.4079H285.558Z" fill="#7798F8"/>
<path d="M133.305 87.6323L131.083 86.4771C132.817 83.1324 132.513 82.0938 132.378 81.855C132.067 81.2996 130.573 81.2066 129.376 81.1288C127.71 81.0205 125.992 80.908 124.89 79.8056C124.525 79.4584 124.242 79.0334 124.063 78.5621C123.884 78.0908 123.813 77.5852 123.856 77.0829C124.074 74.5448 127.074 72.3621 127.414 72.115L128.864 74.1643L128.139 73.1397L128.865 74.1643C128.086 74.7197 126.449 76.2123 126.357 77.2981C126.342 77.4925 126.365 77.7313 126.665 78.0312C127.099 78.4644 128.453 78.5532 129.54 78.6241C131.437 78.7476 133.587 78.8879 134.564 80.622C135.422 82.1493 135.036 84.3056 133.314 87.6323H133.305Z" fill="#7798F8"/>
<path d="M161.102 39.9056L162.461 37.4286C166.18 39.4682 167.358 39.1545 167.63 39.0087C168.258 38.674 168.408 36.9968 168.527 35.65C168.694 33.7798 168.866 31.847 170.135 30.6363C171.016 29.8032 172.079 29.4214 173.228 29.545C176.079 29.8574 178.463 33.2938 178.726 33.6812L176.38 35.2571L177.552 34.4698L176.382 35.2585C175.777 34.3685 174.139 32.4816 172.92 32.3538C172.701 32.3316 172.432 32.3538 172.086 32.6815C171.586 33.1577 171.452 34.6781 171.342 35.9013C171.152 38.0326 170.938 40.4471 168.959 41.5023C167.224 42.427 164.801 41.9355 161.102 39.9056Z" fill="#7798F8"/>
<path d="M237.07 62.7262L238.509 60.1034C242.446 62.2638 243.692 61.9306 243.979 61.7765C244.644 61.421 244.803 59.6466 244.929 58.222C245.105 56.2421 245.289 54.1955 246.632 52.914C247.563 52.0268 248.695 51.6269 249.905 51.7602C252.924 52.0893 255.447 55.7242 255.725 56.1366L253.242 57.8027L254.483 56.9697L253.243 57.8027C252.604 56.86 250.87 54.8675 249.578 54.7287C249.348 54.7037 249.063 54.7287 248.697 55.0744C248.168 55.5784 248.024 57.189 247.909 58.4831C247.709 60.7379 247.481 63.2941 245.387 64.4118C243.55 65.3837 240.985 64.87 237.07 62.722V62.7262Z" fill="#1C45AD"/>
<path d="M78.5156 44.7528L78.7114 42.1994C82.5582 42.5007 83.415 41.8023 83.5858 41.5816C83.9802 41.0706 83.4747 39.6294 83.0678 38.4728C82.5026 36.8664 81.9194 35.2044 82.5123 33.7313C82.6938 33.2497 82.9813 32.8151 83.3537 32.4598C83.7261 32.1046 84.1738 31.8377 84.6635 31.6791C87.1423 30.8752 90.4072 32.8246 90.7738 33.0495L89.4309 35.2238L90.1058 34.1367L89.4323 35.2252C88.5991 34.7143 86.5327 33.7687 85.4731 34.1145C85.2842 34.1769 85.069 34.2936 84.9065 34.6948C84.6704 35.2738 85.1301 36.5817 85.4995 37.6314C86.1424 39.4628 86.8715 41.5371 85.63 43.1463C84.5399 44.5556 82.3471 45.0541 78.5156 44.7528Z" fill="#FF6760"/>
<path d="M182.53 86.0909L180.738 83.9069C184.016 81.2161 184.162 80.0067 184.127 79.6999C184.051 78.9918 182.55 78.2295 181.35 77.6172C179.684 76.7661 177.946 75.8872 177.295 74.2571C176.844 73.1297 176.891 71.9967 177.434 70.9818C178.785 68.452 182.86 67.5107 183.319 67.4204L183.909 70.1834L183.615 68.795L183.912 70.1751C182.861 70.4042 180.503 71.2234 179.927 72.3078C179.824 72.5007 179.743 72.7576 179.927 73.2019C180.183 73.842 181.544 74.5348 182.639 75.0902C184.547 76.0621 186.709 77.159 186.952 79.3861C187.165 81.341 185.806 83.4126 182.544 86.084L182.53 86.0909Z" fill="#FF6760"/>
<path d="M223.801 38.1616L222.918 35.4736C226.945 34.149 227.52 33.0744 227.601 32.7758C227.784 32.0886 226.661 30.832 225.758 29.8282C224.508 28.43 223.21 26.9846 223.19 25.231C223.178 24.0147 223.632 22.9761 224.504 22.2264C226.677 20.3547 230.816 20.9573 231.279 21.0309L230.831 23.8217L231.056 22.4263L230.832 23.8217C229.77 23.6537 227.274 23.5676 226.347 24.3688C226.181 24.5076 226.012 24.7228 226.016 25.2018C226.025 25.8961 227.044 27.029 227.863 27.9426C229.291 29.5366 230.91 31.3416 230.331 33.5075C229.823 35.407 227.809 36.8398 223.804 38.1603L223.801 38.1616Z" fill="#FF6760"/>
<path d="M248.293 93.322C248.293 93.322 259.071 107.326 260.972 115.861C261.144 116.634 261.372 119.844 261.586 120.558C263.276 126.191 271.363 131.792 274.736 133.72C278.059 135.621 282.156 138.007 286.401 140.663C287.212 141.17 288.045 141.688 288.901 142.216C287.512 153.138 285.898 163.064 284.087 171.592L272.283 161.752C268.231 158.378 264.769 155.504 261.936 153.16C257.114 149.17 254.106 146.702 253.095 145.865C251.723 144.731 247.628 142.468 243.068 139.93C236.884 136.489 229.844 132.54 227.572 130.21C226.654 129.268 227.295 115.694 229.39 116.076C236.239 117.326 234.566 108.885 234.434 108.491C230.965 98.0816 247.968 92.793 248.293 93.322Z" fill="#FC8C7A"/>
<path d="M250.369 130.54L250.141 130.527C250.141 130.512 250.207 128.954 248.82 127.117C247.533 125.415 244.7 123.118 238.512 121.841L238.559 121.616C242.021 122.33 246.645 123.837 249.015 126.992C250.441 128.897 250.373 130.474 250.369 130.54Z" fill="#E87765"/>
<path d="M281.66 133.001C279.289 131.196 276.762 131.517 274.741 133.725C274.632 133.83 274.53 133.943 274.437 134.062C273.084 135.7 271.99 138.218 271.358 141.522C270.076 148.22 265.563 149.388 261.936 153.166C261.343 153.779 260.804 154.442 260.325 155.147C259.99 155.638 259.685 156.148 259.41 156.674C256.441 162.468 284.151 183.856 287.724 187.002C289.917 188.934 321.259 210.606 324.194 210.606C329.055 210.62 336.5 201.341 339.816 198.311C344.767 193.786 349.587 188.968 353.459 183.464C358.251 176.653 329.841 160.509 323.646 156.974C319.45 154.581 315.254 152.189 311.057 149.799C301.52 144.374 290.422 139.646 281.66 133.001Z" fill="#FF6760"/>
<path d="M243.066 139.932C243.641 133.483 235.253 119.276 231.361 117.62C228.743 116.509 225.842 110.921 224.896 108.566C222.858 103.49 222.119 100.936 219.428 99.9977C217.9 99.4673 217.104 100.538 216.96 101.507C216.821 102.397 217.175 103.69 217.746 105.404C217.864 105.754 218.71 112.533 218.843 112.916C220.337 117.235 224.923 127.978 224.923 127.978C227.397 132.232 243.066 139.932 243.066 139.932Z" fill="#FC8C7A"/>
<path d="M217.747 105.405C218.153 105.385 218.545 105.247 218.874 105.009C219.895 104.298 218.645 101.608 218.42 101.26C218.266 101.016 217.448 101.307 216.961 101.511C216.832 102.397 217.176 103.69 217.747 105.405Z" fill="#FFB0A1"/>
<path d="M232.215 119.071C231.562 117.476 230.042 113.82 227.949 109.246C227.617 108.522 227.271 107.773 226.912 107.007L226.439 106.003C226.156 105.406 225.859 104.801 225.549 104.19C224.951 103.004 224.313 101.799 223.676 100.607C221.185 95.9533 219.371 91.3422 219.199 88.9055C219.139 88.0863 218.933 85.8162 221.41 86.5451C224.636 87.4907 227.049 92.1336 227.914 93.0708C227.914 93.0708 220.639 82.7505 222.973 80.7386C226.38 77.8034 233.768 90.5966 233.768 90.5966C233.768 90.5966 228.213 81.9466 229.439 80.2457C232.748 75.6847 245.594 98.4053 245.594 98.4053C245.594 98.4053 237.734 87.3657 239.484 86.1869C242.458 84.1778 252.854 100.488 253.447 101.26C255.808 104.349 257.265 109.56 258.863 113.684C260.246 117.276 232.337 119.374 232.215 119.071Z" fill="#FC8C7A"/>
<path d="M235.872 106.424L235.851 106.436C235.812 106.455 235.768 106.459 235.727 106.445C235.685 106.432 235.651 106.402 235.632 106.364C233.34 101.829 227.461 92.4682 227.401 92.3738C227.38 92.3371 227.374 92.2935 227.384 92.2523C227.394 92.2111 227.42 92.1756 227.456 92.1531C227.492 92.1306 227.535 92.1229 227.577 92.1317C227.618 92.1405 227.655 92.1651 227.679 92.2003C227.737 92.2933 233.626 101.668 235.923 106.215C235.941 106.25 235.946 106.291 235.936 106.329C235.927 106.367 235.904 106.401 235.872 106.424Z" fill="#E87B69"/>
<path d="M243.386 105.035L243.372 105.044C243.353 105.054 243.333 105.061 243.311 105.063C243.29 105.066 243.269 105.064 243.248 105.059C243.227 105.053 243.208 105.043 243.191 105.03C243.174 105.016 243.16 105 243.15 104.981C240.532 100.353 232.457 88.7361 232.369 88.6126C232.344 88.577 232.335 88.5331 232.342 88.4904C232.35 88.4477 232.374 88.4098 232.41 88.3849C232.445 88.3601 232.489 88.3504 232.532 88.358C232.574 88.3655 232.612 88.3897 232.637 88.4251C232.719 88.5432 240.81 100.18 243.435 104.82C243.454 104.856 243.46 104.897 243.451 104.937C243.442 104.977 243.419 105.012 243.386 105.035Z" fill="#E87B69"/>
<path d="M249.843 104.686L249.822 104.699C249.783 104.718 249.738 104.721 249.697 104.707C249.656 104.694 249.622 104.664 249.602 104.625C248.26 101.918 239.951 89.5009 239.868 89.376C239.844 89.3405 239.835 89.2971 239.843 89.2551C239.85 89.213 239.874 89.1757 239.909 89.1511C239.945 89.1271 239.99 89.1183 240.032 89.1266C240.075 89.1349 240.112 89.1597 240.137 89.1955C240.22 89.3205 248.54 101.755 249.893 104.481C249.91 104.516 249.914 104.555 249.905 104.593C249.896 104.63 249.874 104.664 249.843 104.686Z" fill="#E87B69"/>
<path d="M338.806 139.37C324.93 134.083 304.898 124.11 294.098 122.642C292.636 122.443 291.072 122.793 289.347 123.395C286.292 124.459 282.743 126.31 278.363 127.297C275.284 127.992 271.947 128.991 269.183 129.912C266.61 130.771 264.534 131.561 263.628 131.97C262.917 132.289 260.654 133.047 259.316 133.727L259.208 133.783C256.824 134.983 254.006 135.896 253.252 134.677C253.189 134.571 253.142 134.456 253.113 134.336C253.092 134.252 253.076 134.167 253.057 134.08C252.641 131.868 254.048 128.823 262.924 123.354C264.28 122.521 265.81 121.626 267.535 120.67C268.344 120.223 267.593 119.308 267.245 119.21C266.085 118.886 263.974 118.307 261.209 117.602C259.59 117.185 257.744 116.731 255.735 116.259L255.164 116.12C254.484 115.961 253.784 115.8 253.07 115.639C252.673 115.546 252.272 115.456 251.869 115.369C251.152 115.209 250.421 115.057 249.675 114.914C248.228 114.636 246.739 114.368 245.261 114.115C241.208 113.421 237.401 112.449 234.707 111.412C233.746 111.062 232.825 110.613 231.957 110.071C231.607 109.849 231.277 109.595 230.973 109.313C230.278 108.634 229.835 107.647 231.389 106.526L231.517 106.439C232.267 105.956 233.102 105.618 233.977 105.443C234.389 105.354 234.807 105.285 235.226 105.238C237.857 104.935 240.595 105.35 241.521 105.275C241.333 105.265 238.161 105.106 234.868 104.581C234.603 104.538 234.338 104.492 234.071 104.442C231.349 103.956 228.702 103.209 227.743 102.082C227.523 101.841 227.39 101.533 227.366 101.208C227.325 100.402 227.716 99.7853 228.401 99.316C229.095 98.8439 230.085 98.5218 231.234 98.3121C233.349 97.9261 235.993 97.915 238.272 98.0233C238.511 98.0331 238.747 98.0456 238.979 98.0594C239.812 98.108 240.594 98.1705 241.248 98.2316C241.069 98.2094 240.88 98.1872 240.681 98.158H240.656C240.101 98.083 239.499 97.9969 238.87 97.8984L238.502 97.8387C235.325 97.3138 231.698 96.4502 231.331 95.2117C231.234 94.9059 231.234 94.5775 231.331 94.2717C231.331 94.269 231.331 94.2662 231.331 94.2634C231.465 93.8984 231.714 93.5869 232.041 93.3762C232.716 92.8958 233.793 92.5626 235.138 92.3432C236.89 92.0558 239.095 91.9655 241.444 91.9933H241.706H241.808C243.505 92.0197 245.267 92.1085 246.979 92.2279C246.797 92.1891 246.619 92.1502 246.449 92.1099C245.463 91.8836 244.634 91.6226 244.088 91.3213C243.621 91.063 243.359 90.7756 243.38 90.4563C243.414 89.9398 243.804 89.526 244.46 89.1928H244.471C248.879 86.9713 265.142 88.4888 266.084 88.4986C268.242 88.5152 270.708 89.0914 273.223 89.8412C275.738 90.591 278.3 91.5073 280.647 92.2168C284.742 93.4484 289.721 96.5613 292.344 97.9942C292.836 98.2538 293.344 98.4824 293.865 98.6787C299.313 100.813 313.121 103.994 326.486 106.809C334.397 116.504 339.165 127.496 338.806 139.37Z" fill="#FFA089"/>
<path d="M234.746 107.326L234.468 109.373C234.446 109.491 234.378 109.597 234.279 109.665C234.179 109.734 234.056 109.761 233.938 109.739L231.16 109.354C230.369 109.245 229.809 108.566 229.91 107.837L229.937 107.645C230.044 106.872 230.812 106.34 231.652 106.455L234.349 106.829C234.467 106.844 234.574 106.904 234.648 106.997C234.723 107.089 234.758 107.208 234.746 107.326Z" fill="#FFB0A1"/>
<path d="M231.681 100.196L231.404 102.201C231.381 102.319 231.312 102.423 231.213 102.49C231.114 102.557 230.992 102.582 230.874 102.559L228.09 102.175C227.299 102.065 226.738 101.397 226.84 100.684L226.867 100.495C226.971 99.7382 227.737 99.2189 228.578 99.3341L231.273 99.7076C231.392 99.7189 231.501 99.7766 231.578 99.8681C231.654 99.9596 231.691 100.078 231.681 100.196Z" fill="#FFB0A1"/>
<path d="M235.078 94.0121L234.827 95.831C234.815 95.9301 234.764 96.0205 234.687 96.0828C234.609 96.1452 234.509 96.1744 234.41 96.1642L232.246 95.8713C231.944 95.8219 231.674 95.6544 231.495 95.4058C231.316 95.1571 231.243 94.8476 231.292 94.5453L231.317 94.3745C231.354 94.0516 231.517 93.7565 231.771 93.5539C232.026 93.3514 232.35 93.258 232.673 93.2943L234.77 93.5845C234.867 93.6018 234.953 93.6562 235.01 93.7359C235.068 93.8157 235.092 93.9148 235.078 94.0121Z" fill="#FFB0A1"/>
<path d="M246.399 89.5288L246.388 91.045C246.389 91.1281 246.357 91.2083 246.299 91.2681C246.242 91.3279 246.163 91.3625 246.08 91.3643L244.274 91.349C244.021 91.3407 243.782 91.2323 243.609 91.0477C243.436 90.8631 243.344 90.6174 243.352 90.3646V90.2258C243.348 89.9573 243.45 89.6981 243.637 89.5051C243.824 89.312 244.079 89.2007 244.348 89.1956L246.098 89.2108C246.18 89.2134 246.257 89.2482 246.314 89.3078C246.37 89.3673 246.401 89.4468 246.399 89.5288Z" fill="#FFB0A1"/>
<path d="M259.233 133.865L258.587 132.292C258.553 132.199 258.5 132.115 258.432 132.043C258.363 131.971 258.281 131.914 258.191 131.875C258.1 131.837 258.002 131.816 257.903 131.816C257.804 131.816 257.706 131.836 257.615 131.875L253.741 133.598C253.439 133.735 253.169 133.932 252.947 134.177C252.725 134.423 252.555 134.711 252.449 135.024C253.291 136.421 256.531 135.29 259.233 133.865Z" fill="#FFB0A1"/>
<path d="M258.573 107.544C258.553 107.558 258.531 107.569 258.507 107.574C258.483 107.579 258.458 107.578 258.434 107.573C252.904 106.493 240.703 105.27 240.579 105.259C240.554 105.258 240.53 105.252 240.507 105.242C240.485 105.231 240.464 105.216 240.448 105.197C240.431 105.178 240.419 105.156 240.411 105.133C240.403 105.109 240.401 105.084 240.403 105.059C240.406 105.034 240.413 105.01 240.426 104.988C240.438 104.966 240.454 104.947 240.474 104.932C240.494 104.917 240.517 104.906 240.541 104.9C240.566 104.894 240.591 104.893 240.616 104.898C240.739 104.909 252.957 106.133 258.504 107.218C258.55 107.228 258.591 107.256 258.617 107.296C258.643 107.335 258.652 107.384 258.642 107.43C258.639 107.453 258.631 107.475 258.619 107.494C258.607 107.514 258.592 107.531 258.573 107.544Z" fill="#E87B69"/>
<path d="M262.457 100.013C262.419 100.04 262.373 100.052 262.327 100.045C256.494 99.1868 240.81 98.351 240.653 98.3426C240.605 98.3398 240.56 98.318 240.527 98.2822C240.495 98.2463 240.478 98.1992 240.481 98.151C240.482 98.1273 240.488 98.1041 240.498 98.0827C240.508 98.0612 240.523 98.042 240.54 98.0262C240.558 98.0103 240.579 97.9981 240.601 97.9902C240.623 97.9823 240.647 97.9789 240.671 97.9803C240.829 97.9886 256.529 98.8244 262.379 99.6853C262.403 99.6887 262.425 99.6967 262.446 99.7089C262.466 99.7211 262.484 99.7372 262.498 99.7563C262.513 99.7753 262.523 99.7971 262.529 99.8201C262.534 99.8432 262.536 99.8672 262.532 99.8908C262.529 99.9152 262.52 99.9388 262.508 99.9598C262.495 99.9809 262.477 99.999 262.457 100.013Z" fill="#E87B69"/>
<path d="M266.555 94.1261C266.514 94.1533 266.465 94.1638 266.416 94.1552C263.131 93.4874 246.601 92.31 246.434 92.2989C246.386 92.295 246.342 92.2724 246.31 92.2361C246.279 92.1997 246.263 92.1525 246.266 92.1045C246.268 92.0808 246.274 92.0576 246.284 92.0363C246.295 92.015 246.31 91.996 246.328 91.9804C246.346 91.9648 246.366 91.9529 246.389 91.9453C246.411 91.9378 246.435 91.9348 246.459 91.9365C246.626 91.9476 263.179 93.1278 266.488 93.7998C266.535 93.8101 266.576 93.8383 266.602 93.8783C266.628 93.9183 266.637 93.9669 266.627 94.0136C266.618 94.0588 266.592 94.0988 266.555 94.1261Z" fill="#E87B69"/>
<path d="M326.482 106.808L335.231 108.908C332.306 105.323 329.774 97.3667 326.09 94.158C316.659 93.1264 300.45 94.8411 300.085 94.755C297.195 94.0469 294.998 95.341 294.023 98.172C293.966 98.3122 293.92 98.4565 293.884 98.6038C293.876 98.6274 293.871 98.6524 293.864 98.676C293.293 100.71 293.298 103.427 294.023 106.671C295.511 113.335 291.832 116.194 290.007 121.1C289.728 121.846 289.508 122.613 289.35 123.395C289.339 123.45 289.328 123.506 289.318 123.561C289.205 124.143 289.126 124.731 289.084 125.322C288.836 129.096 316.737 138.862 338.194 145.364C338.541 143.383 338.747 141.38 338.809 139.37C339.165 127.496 334.397 116.504 326.482 106.808Z" fill="#FF6760"/>
<path d="M79.2123 115.097C79.29 116.388 79.49 117.589 79.6858 118.229C80.2802 120.118 77.8958 136.242 77.3028 138.952C76.7098 141.662 75.2461 150.585 75.2461 150.585L92.0578 161.617C92.0578 161.617 94.627 157.241 96.217 155.205C97.8071 153.17 108.457 145.903 111.193 143.437C113.929 140.971 128.968 132.576 127.356 129.798C125.744 127.02 111.121 137.776 110.458 135.967C109.796 134.158 129.067 118.036 126.576 114.754C123.798 111.08 109.397 129.372 108.231 127.925C107.064 126.478 125.326 107.476 121.118 104.321C117.916 101.923 104.001 123.975 102.232 122.578C100.462 121.181 112.276 103.351 108.661 100.949C106.112 99.2562 101.153 108.88 96.2906 115.544C92.5161 120.719 89.2304 124.801 87.9584 126.374C87.9143 126.427 87.8553 126.466 87.789 126.484C87.7227 126.503 87.6522 126.502 87.5869 126.48C87.5215 126.458 87.4643 126.417 87.4228 126.362C87.3813 126.306 87.3574 126.24 87.3543 126.171C86.8168 113.971 83.127 110.361 80.8787 109.992C80.7729 109.975 80.6651 109.975 80.5593 109.992C79.315 110.157 79.0734 112.773 79.2123 115.097Z" fill="#D96559"/>
<path d="M50.6744 190.676L25.8164 231.013C31.4379 231.443 37.0483 231.69 42.6393 231.797C48.8663 231.917 55.071 231.865 61.248 231.699L69.9775 211.41L72.0008 206.888L73.3895 203.798L75.492 199.1L92.8246 160.362L92.9468 160.084L75.3684 149.922L55.1057 183.358L53.3879 186.196L50.6744 190.676Z" fill="#D96559"/>
<path d="M97.2544 123.454C97.1475 124.412 97.4808 125.815 97.9488 127.132C98.0099 127.303 98.0724 127.472 98.1363 127.639C98.5987 128.848 99.1459 129.934 99.525 130.485C100.662 132.107 103.247 148.199 103.497 150.962C103.706 153.264 104.641 159.871 104.945 162.002C105.006 162.428 105.042 162.674 105.042 162.674L124.397 168.13C124.397 168.13 124.529 167.556 124.737 166.702C125.138 165.049 125.831 162.354 126.429 160.763C127.331 158.349 135.298 148.212 137.16 145.029C139.023 141.847 150.842 129.318 148.465 127.157C146.087 124.997 135.387 139.653 134.209 138.126C133.032 136.599 146.551 115.423 143.185 113.038C139.427 110.372 131.21 132.151 129.66 131.121C128.11 130.091 139.798 106.473 134.839 104.741C131.061 103.419 124.438 128.636 122.34 127.836C120.242 127.036 126.124 106.476 121.954 105.277C119.013 104.43 117.184 115.099 114.555 122.918C112.516 128.991 110.614 133.873 109.867 135.752C109.841 135.816 109.796 135.87 109.739 135.909C109.681 135.947 109.614 135.967 109.545 135.966C109.476 135.964 109.409 135.943 109.352 135.903C109.296 135.863 109.253 135.807 109.229 135.742C105.041 124.271 100.435 121.938 98.1793 122.263C98.0736 122.278 97.9707 122.308 97.8738 122.353C97.5002 122.529 97.3114 122.928 97.2544 123.454Z" fill="#E87765"/>
<path d="M88.4141 230.412C90.5638 230.282 92.708 230.149 94.8466 230.014C99.2127 229.736 103.555 229.458 107.873 229.207C111.206 229.009 114.52 228.824 117.816 228.652L118.345 222.248L118.912 217.329L119.298 213.966L119.888 208.855L124.737 166.698V166.686L124.772 166.387L104.947 161.991L95.7145 199.991L94.9313 203.214L93.6953 208.305L88.4141 230.412Z" fill="#E87765"/>
<path d="M121.705 223.596C122.816 223.637 123.498 223.367 123.812 222.788C124.368 221.755 123.266 220.463 122.903 220.038C122.117 219.118 120.907 218.037 119.306 216.822C119.168 216.727 118.999 216.689 118.834 216.716C118.669 216.742 118.52 216.831 118.419 216.965C118.318 217.098 118.273 217.265 118.292 217.431C118.31 217.597 118.393 217.749 118.521 217.856C122.086 220.558 122.725 221.898 122.669 222.17C122.493 222.342 121.218 222.545 117.605 221.337C114.484 220.3 110.586 218.549 106.625 216.407C102.665 214.264 99.0653 211.964 96.4879 209.92C93.5091 207.56 92.9772 206.381 93.023 206.136C93.0605 206.106 93.3327 205.932 94.3326 206.038C94.4173 206.047 94.503 206.039 94.5847 206.015C94.6665 205.991 94.7427 205.952 94.809 205.898C94.8754 205.845 94.9306 205.779 94.9714 205.704C95.0122 205.629 95.0379 205.547 95.0471 205.462C95.0562 205.378 95.0485 205.292 95.0245 205.21C95.0005 205.129 94.9607 205.052 94.9072 204.986C94.8538 204.92 94.7878 204.865 94.713 204.824C94.6382 204.783 94.5562 204.757 94.4715 204.748C93.9632 204.694 92.4162 204.531 91.8843 205.517C91.276 206.64 92.4175 208.309 95.4755 210.768C98.1238 212.898 101.864 215.307 106.01 217.548C110.157 219.789 114.22 221.602 117.453 222.652C119.259 223.245 120.665 223.557 121.705 223.596Z" fill="#180C7A"/>
<path d="M123.191 215.23C124.806 215.289 125.731 214.952 126.041 214.198C126.874 212.181 121.86 209.262 120.208 208.303C120.135 208.26 120.053 208.232 119.969 208.22C119.884 208.209 119.798 208.214 119.716 208.236C119.634 208.258 119.556 208.296 119.489 208.347C119.421 208.399 119.364 208.464 119.321 208.537C119.278 208.611 119.25 208.692 119.239 208.777C119.227 208.861 119.233 208.947 119.255 209.029C119.276 209.112 119.314 209.189 119.366 209.257C119.417 209.325 119.482 209.382 119.556 209.424C123.972 211.993 124.866 213.398 124.833 213.702C124.674 213.891 123.427 214.227 119.708 213.407C116.498 212.698 112.437 211.363 108.275 209.645C104.113 207.928 100.294 206.01 97.5182 204.248C94.3103 202.21 93.659 201.092 93.6784 200.845C93.7201 200.805 94.0784 200.523 95.6573 200.638C95.829 200.651 95.9985 200.594 96.1286 200.482C96.2586 200.369 96.3387 200.209 96.351 200.038C96.3633 199.866 96.307 199.697 96.1944 199.567C96.0817 199.437 95.922 199.357 95.7504 199.344C94.5589 199.258 92.9243 199.268 92.4772 200.348C91.9911 201.528 93.2993 203.07 96.5961 205.198C99.4527 207.041 103.424 209.047 107.781 210.845C112.137 212.643 116.367 214.023 119.692 214.733C120.842 214.996 122.013 215.163 123.191 215.23Z" fill="#180C7A"/>
<path d="M140.921 116.04L141.824 116.457C141.952 116.516 142.098 116.522 142.231 116.474C142.363 116.426 142.472 116.327 142.532 116.2L143.116 114.95C143.228 114.709 143.24 114.433 143.149 114.183C143.059 113.933 142.873 113.729 142.632 113.616C142.391 113.504 142.115 113.492 141.865 113.583C141.615 113.674 141.412 113.86 141.299 114.1L140.69 115.403C140.663 115.46 140.648 115.521 140.645 115.584C140.642 115.647 140.652 115.71 140.673 115.769C140.694 115.829 140.727 115.883 140.77 115.929C140.812 115.976 140.864 116.013 140.921 116.04Z" fill="#FF8A7F"/>
<path d="M133.24 108.248L134.351 108.588C134.509 108.636 134.679 108.618 134.825 108.54C134.97 108.462 135.078 108.33 135.126 108.172L135.455 107.093C135.545 106.796 135.514 106.476 135.368 106.202C135.222 105.928 134.974 105.723 134.677 105.632C134.38 105.543 134.06 105.574 133.787 105.72C133.513 105.866 133.308 106.114 133.216 106.41L132.869 107.55C132.847 107.62 132.839 107.694 132.846 107.767C132.853 107.84 132.874 107.911 132.909 107.976C132.943 108.041 132.99 108.099 133.047 108.145C133.104 108.192 133.17 108.227 133.24 108.248Z" fill="#FF8A7F"/>
<path d="M120.623 109.075L121.776 109.234C121.938 109.254 122.102 109.209 122.232 109.11C122.362 109.01 122.447 108.864 122.47 108.702L122.621 107.591C122.662 107.284 122.58 106.972 122.393 106.725C122.205 106.478 121.927 106.315 121.62 106.272C121.313 106.231 121.001 106.314 120.754 106.502C120.508 106.69 120.345 106.967 120.302 107.275L120.141 108.455C120.132 108.527 120.137 108.601 120.156 108.671C120.176 108.741 120.209 108.807 120.253 108.865C120.298 108.923 120.354 108.971 120.417 109.007C120.481 109.043 120.551 109.066 120.623 109.075Z" fill="#FF8A7F"/>
<path d="M97.2544 123.454C97.1475 124.412 97.4808 125.815 97.9488 127.132L98.7917 126.894C98.8802 126.869 98.9628 126.827 99.035 126.771C99.1072 126.714 99.1674 126.644 99.2122 126.564C99.257 126.484 99.2855 126.395 99.2961 126.304C99.3066 126.213 99.299 126.121 99.2736 126.033L98.8056 124.379C98.7137 124.056 98.502 123.781 98.2136 123.609C97.9253 123.437 97.5822 123.382 97.2544 123.454Z" fill="#FF8A7F"/>
<path d="M146.72 129.933L146.01 129.383C145.92 129.314 145.862 129.212 145.848 129.1C145.834 128.988 145.865 128.874 145.934 128.785L146.648 127.863C146.794 127.675 147.009 127.553 147.245 127.523C147.481 127.493 147.719 127.558 147.907 127.703L147.914 127.709C148.102 127.854 148.224 128.069 148.254 128.305C148.284 128.541 148.219 128.779 148.073 128.967L147.393 129.845C147.315 129.945 147.202 130.01 147.076 130.026C146.951 130.042 146.824 130.007 146.725 129.93L146.72 129.933Z" fill="#FF8A7F"/>
</g>
</g>
<defs>
<clipPath id="clip0_1439_6383">
<rect width="339" height="232" fill="white"/>
</clipPath>
</defs>
</svg>
