<svg width="22" height="22" viewBox="0 0 22 22" fill="none" xmlns="http://www.w3.org/2000/svg">
    <path d="M13.5615 19.8663V14.568C13.5615 14.3338 13.465 14.1092 13.2934 13.9436C13.1218 13.778 12.889 13.685 12.6463 13.685H8.98569C8.74298 13.685 8.51021 13.778 8.33858 13.9436C8.16696 14.1092 8.07054 14.3338 8.07054 14.568V19.8663C8.07054 20.1004 7.97414 20.325 7.80254 20.4906C7.63094 20.6562 7.3982 20.7493 7.15551 20.7493L1.66527 20.75C1.54508 20.75 1.42606 20.7272 1.31502 20.6828C1.20397 20.6384 1.10307 20.5734 1.01808 20.4914C0.93309 20.4094 0.86567 20.3121 0.819673 20.2049C0.773675 20.0978 0.75 19.9829 0.75 19.867V9.66136C0.75 9.53834 0.776641 9.41667 0.828216 9.30416C0.879791 9.19165 0.955162 9.09079 1.0495 9.00802L10.2004 0.979691C10.3688 0.831902 10.5883 0.750007 10.816 0.75C11.0437 0.749993 11.2632 0.831873 11.4317 0.979651L20.5838 9.00802C20.6781 9.09078 20.7535 9.19165 20.8051 9.30417C20.8567 9.41669 20.8833 9.53836 20.8833 9.66139V19.867C20.8833 19.9829 20.8597 20.0978 20.8137 20.2049C20.7677 20.3121 20.7002 20.4094 20.6153 20.4914C20.5303 20.5734 20.4294 20.6384 20.3183 20.6828C20.2073 20.7272 20.0883 20.75 19.9681 20.75L14.4765 20.7493C14.2338 20.7493 14.0011 20.6562 13.8295 20.4906C13.6579 20.325 13.5615 20.1004 13.5615 19.8663V19.8663Z" stroke="#242424" stroke-opacity="0.5" stroke-width="1.5"/>
</svg>
