<svg width="25" height="24" viewBox="0 0 25 24" fill="none" xmlns="http://www.w3.org/2000/svg">
    <path d="M14.8232 21.1163V15.818C14.8232 15.5838 14.7268 15.3592 14.5551 15.1936C14.3835 15.028 14.1507 14.935 13.908 14.935H10.2474C10.0047 14.935 9.77193 15.028 9.6003 15.1936C9.42868 15.3592 9.33226 15.5838 9.33226 15.818V21.1163C9.33226 21.3504 9.23586 21.575 9.06426 21.7406C8.89266 21.9062 8.65992 21.9993 8.41722 21.9993L2.92698 22C2.8068 22 2.68778 21.9772 2.57674 21.9328C2.46569 21.8884 2.36479 21.8234 2.2798 21.7414C2.19481 21.6594 2.12739 21.5621 2.08139 21.4549C2.03539 21.3478 2.01172 21.2329 2.01172 21.117V10.9114C2.01172 10.7883 2.03836 10.6667 2.08994 10.5542C2.14151 10.4417 2.21688 10.3408 2.31121 10.258L11.4621 2.22969C11.6306 2.0819 11.8501 2.00001 12.0777 2C12.3054 1.99999 12.5249 2.08187 12.6934 2.22965L21.8455 10.258C21.9399 10.3408 22.0152 10.4417 22.0668 10.5542C22.1184 10.6667 22.1451 10.7884 22.1451 10.9114V21.117C22.1451 21.2329 22.1214 21.3478 22.0754 21.4549C22.0294 21.5621 21.962 21.6594 21.877 21.7414C21.792 21.8234 21.6911 21.8884 21.58 21.9328C21.469 21.9772 21.35 22 21.2298 22L15.7382 21.9993C15.4955 21.9993 15.2628 21.9062 15.0912 21.7406C14.9196 21.575 14.8232 21.3504 14.8232 21.1163Z" fill="#242424"/>
</svg>
