<svg width="26" height="26" viewBox="0 0 26 26" fill="none" xmlns="http://www.w3.org/2000/svg">
<path opacity="0.8" d="M7.60565 0.0907954C6.22432 0.155967 5.28101 0.376407 4.45637 0.700446C3.60291 1.03305 2.87952 1.47939 2.15978 2.20172C1.44003 2.92406 0.996812 3.64796 0.666539 4.50272C0.346912 5.32917 0.130365 6.27325 0.0693472 7.65535C0.00832982 9.03745 -0.00517192 9.4817 0.00157894 13.0072C0.00832981 16.5327 0.0239087 16.9746 0.0908981 18.3596C0.156849 19.7406 0.376512 20.6836 0.700553 21.5085C1.03368 22.362 1.4795 23.0851 2.2021 23.8051C2.9247 24.5251 3.64808 24.9673 4.50492 25.2981C5.33061 25.6172 6.27495 25.8348 7.6568 25.8953C9.03865 25.9558 9.48343 25.9698 13.0079 25.963C16.5324 25.9563 16.9761 25.9407 18.3608 25.875C19.7455 25.8093 20.6836 25.5881 21.5088 25.2656C22.3623 24.9317 23.0859 24.4867 23.8054 23.7638C24.5249 23.041 24.9678 22.3166 25.2978 21.4613C25.6177 20.6356 25.8351 19.6913 25.895 18.3105C25.9555 16.9247 25.9698 16.4823 25.9631 12.9573C25.9563 9.43237 25.9405 8.99045 25.8748 7.60601C25.8091 6.22158 25.5892 5.2814 25.2654 4.45598C24.9317 3.60252 24.4864 2.87992 23.7641 2.1594C23.0418 1.43888 22.3168 0.996184 21.4618 0.666952C20.6356 0.347327 19.6918 0.129483 18.3099 0.069764C16.9281 0.0100452 16.4833 -0.00527393 12.9575 0.00147689C9.43176 0.00822771 8.99036 0.0232872 7.60565 0.0907954ZM7.75728 23.5598C6.4915 23.5047 5.80421 23.2944 5.34619 23.1184C4.73965 22.8847 4.30759 22.6022 3.85113 22.1501C3.39467 21.6981 3.11425 21.2645 2.87745 20.6592C2.69959 20.2012 2.48538 19.5147 2.42618 18.2489C2.36178 16.8809 2.34828 16.4701 2.34075 13.0041C2.33322 9.53805 2.34647 9.1278 2.40644 7.75921C2.46045 6.49447 2.67207 5.8064 2.84785 5.34865C3.08153 4.74133 3.36299 4.31006 3.81608 3.85386C4.26916 3.39766 4.70148 3.11672 5.30724 2.87992C5.76474 2.70128 6.45125 2.48889 7.71652 2.42866C9.08565 2.36374 9.49589 2.35076 12.9614 2.34323C16.427 2.3357 16.8382 2.34868 18.2079 2.40892C19.4726 2.46397 20.161 2.6735 20.6182 2.85032C21.225 3.084 21.6568 3.36468 22.113 3.81855C22.5692 4.27241 22.8504 4.70316 23.0872 5.31022C23.2661 5.76642 23.4785 6.45266 23.5382 7.7187C23.6034 9.08782 23.6182 9.49832 23.6244 12.9636C23.6306 16.4288 23.6184 16.8404 23.5585 18.2084C23.5032 19.4742 23.2934 20.1618 23.1171 20.6203C22.8834 21.2266 22.6017 21.6589 22.1483 22.1148C21.695 22.5708 21.2632 22.8517 20.6571 23.0885C20.2002 23.2669 19.5129 23.4798 18.2486 23.54C16.8795 23.6044 16.4693 23.6179 13.0024 23.6254C9.53562 23.633 9.12667 23.619 7.75754 23.5598M18.3408 6.04372C18.3413 6.35186 18.4332 6.65293 18.6049 6.90885C18.7765 7.16476 19.0202 7.36403 19.3051 7.48146C19.5899 7.59888 19.9033 7.62918 20.2054 7.56852C20.5075 7.50786 20.7848 7.35897 21.0023 7.14069C21.2198 6.9224 21.3677 6.64452 21.4272 6.34218C21.4868 6.03985 21.4553 5.72665 21.3369 5.44219C21.2184 5.15773 21.0182 4.91479 20.7617 4.7441C20.5051 4.57341 20.2037 4.48263 19.8956 4.48324C19.4825 4.48407 19.0867 4.64892 18.7951 4.94155C18.5035 5.23418 18.3401 5.63063 18.3408 6.04372ZM6.31649 12.9952C6.32376 16.677 9.31388 19.6549 12.9949 19.6479C16.676 19.6409 19.6559 16.6511 19.6489 12.9693C19.6419 9.28749 16.651 6.30882 12.9695 6.31609C9.28791 6.32336 6.30948 9.31397 6.31649 12.9952ZM8.65489 12.9906C8.6532 12.1347 8.90535 11.2975 9.37946 10.5849C9.85357 9.87229 10.5283 9.31628 11.3184 8.98718C12.1086 8.65807 12.9785 8.57065 13.8183 8.73597C14.6581 8.90128 15.43 9.31191 16.0364 9.91593C16.6428 10.5199 17.0565 11.2902 17.2252 12.1293C17.3938 12.9685 17.3098 13.8388 16.9839 14.6302C16.6579 15.4216 16.1046 16.0985 15.3938 16.5755C14.6831 17.0524 13.8469 17.3078 12.991 17.3095C12.4227 17.3107 11.8597 17.2 11.3342 16.9835C10.8087 16.7671 10.331 16.4493 9.92831 16.0482C9.52565 15.6472 9.20594 15.1707 8.98744 14.6461C8.76895 14.1214 8.65594 13.5589 8.65489 12.9906Z" fill="black"/>
</svg>
