<svg width="353" height="567" viewBox="0 0 353 567" fill="none" xmlns="http://www.w3.org/2000/svg">
<g clip-path="url(#clip0_2136_12165)">
<rect width="353" height="567" rx="24" fill="#6CC163" fill-opacity="0.3"/>
<rect width="353" height="567" rx="24" fill="url(#paint0_linear_2136_12165)" fill-opacity="0.5" style="mix-blend-mode:overlay"/>
<path d="M172.766 447.986C253.823 447.986 319.533 441.669 319.533 433.877C319.533 426.084 253.823 419.767 172.766 419.767C91.7096 419.767 26 426.084 26 433.877C26 441.669 91.7096 447.986 172.766 447.986Z" fill="black" fill-opacity="0.1"/>
<path d="M117.46 49.6926C118.341 34.6238 150.985 36.1194 157.397 50.1787C163.808 64.238 158.546 77.1631 176.337 85.6511C207.794 100.608 211.216 120.475 199.326 140.031C187.436 159.587 140.998 173.285 115.735 141.277C90.8178 109.681 128.699 102.639 109.094 87.7699C92.0056 74.7327 93.4616 51.5124 117.46 49.6926Z" fill="black"/>
<path d="M103.5 122.246C103.079 122.745 102.849 122.994 102.555 123.318C102.261 123.642 101.98 123.916 101.699 124.215C101.124 124.776 100.55 125.337 99.9751 125.848C98.8128 126.908 97.6251 127.88 96.4245 128.827C94.0116 130.671 91.482 132.366 88.8509 133.9C86.2593 135.414 83.5862 136.791 80.8431 138.025C79.4637 138.624 78.0972 139.272 76.7051 139.77L74.6105 140.555L73.5632 140.942C72.9524 141.167 72.3247 141.346 71.6858 141.478C70.1029 141.815 68.4553 141.719 66.9249 141.2C65.3945 140.681 64.0409 139.759 63.0138 138.536C61.6838 136.932 60.7253 135.065 60.2041 133.065C59.3936 130.036 58.9647 126.922 58.9269 123.792C58.8435 118.024 59.344 112.263 60.4212 106.591L66.1429 107.052C66.3285 112.415 66.7974 117.765 67.5478 123.081C67.8786 125.487 68.4694 127.851 69.3103 130.136C69.5301 130.832 69.9152 131.469 70.4342 131.993C70.5236 131.993 70.4342 131.881 70.1021 131.719C69.8804 131.638 69.6483 131.587 69.4124 131.569C69.4124 131.569 69.4124 131.569 69.5657 131.482L70.4725 131.046L72.2988 130.198L75.8749 128.403C78.2121 127.157 80.5238 125.848 82.7205 124.415C84.9173 122.981 87.0629 121.511 89.1063 119.915C90.1153 119.13 91.0987 118.32 92.0183 117.422C92.4908 117.011 92.9251 116.587 93.3593 116.176L93.9851 115.578L94.4449 115.092L103.5 122.246Z" fill="#784A3E"/>
<path d="M103.756 104.795C99.0683 103.673 87.1523 118.73 87.1523 118.73L94.3939 132.178C94.3939 132.178 114.407 121.148 113.654 115.078C112.862 108.746 110.588 106.428 103.756 104.795Z" fill="#619863"/>
<path opacity="0.2" d="M103.756 104.795C99.0683 103.673 87.1523 118.73 87.1523 118.73L94.3939 132.178C94.3939 132.178 114.407 121.148 113.654 115.078C112.862 108.746 110.588 106.428 103.756 104.795Z" fill="black"/>
<path opacity="0.2" d="M100.653 110.004L101.802 127.616C97.8176 130.27 94.3821 132.177 94.3821 132.177L92.875 129.361L100.653 110.004Z" fill="black"/>
<path d="M65.2879 110.764L70.5626 99.2974L59.3491 101.902C59.3491 101.902 57.4078 108.757 60.8306 111.873L65.2879 110.764Z" fill="#784A3E"/>
<path d="M69.9098 91.0979L60.28 91.8831L59.3477 101.917L70.5612 99.3116L69.9098 91.0979Z" fill="#784A3E"/>
<path d="M114.14 416.854L102.837 417.291L100.832 391.665L112.135 391.241L114.14 416.854Z" fill="#784A3E"/>
<path d="M214.792 322.639L207.423 331.039L185.098 317.105L192.467 308.691L214.792 322.639Z" fill="#784A3E"/>
<path d="M204.949 330.568L211.706 320.023C211.818 319.839 211.996 319.701 212.206 319.637C212.415 319.573 212.642 319.586 212.842 319.674L222.153 323.688C222.376 323.797 222.573 323.95 222.733 324.137C222.893 324.324 223.012 324.541 223.083 324.775C223.153 325.008 223.174 325.254 223.144 325.495C223.113 325.737 223.033 325.97 222.906 326.18C220.48 329.82 219.075 331.453 216.163 336.089C214.337 338.943 211.374 344.814 208.845 348.715C206.316 352.616 202.204 350.423 202.893 348.566C205.984 340.227 205.09 336.226 204.541 332.45C204.452 331.795 204.596 331.131 204.949 330.568Z" fill="black"/>
<path d="M102.466 416.642L114.727 413.29C114.937 413.226 115.164 413.24 115.365 413.33C115.565 413.419 115.724 413.578 115.812 413.776L119.925 422.862C120.017 423.098 120.057 423.351 120.041 423.604C120.026 423.857 119.955 424.104 119.835 424.328C119.714 424.552 119.545 424.748 119.341 424.904C119.136 425.059 118.9 425.17 118.647 425.23C114.356 426.327 112.262 426.651 106.834 428.122C103.513 429.031 93.8193 433.294 89.0682 433.668C84.3172 434.042 83.7041 429.468 85.6454 428.907C91.8964 427.105 97.2677 423.155 100.767 417.789C101.174 417.22 101.777 416.813 102.466 416.642Z" fill="black"/>
<g opacity="0.2">
<path d="M100.832 391.677L101.867 404.889L113.169 404.453L112.135 391.241L100.832 391.677Z" fill="black"/>
<path d="M192.471 308.691L185.102 317.105L196.622 324.284L203.991 315.871L192.471 308.691Z" fill="black"/>
</g>
<path d="M97.8419 109.393C96.7436 115.625 95.6963 131.454 100.396 168.247L146.374 171.014C146.732 153.814 147.651 139.954 157.192 106.713C157.43 105.893 157.477 105.031 157.329 104.191C157.182 103.351 156.843 102.554 156.338 101.858C155.834 101.162 155.176 100.586 154.413 100.17C153.65 99.7554 152.802 99.5122 151.93 99.4589C148.43 99.2595 144.024 99.1224 139.529 99.3093C132.447 99.4601 125.385 100.085 118.392 101.179C112.427 102.226 105.901 103.846 102.108 104.831C101.022 105.11 100.043 105.69 99.2863 106.499C98.5297 107.308 98.0282 108.312 97.8419 109.393Z" fill="#619863"/>
<path opacity="0.2" d="M97.8419 109.393C96.7436 115.625 95.6963 131.454 100.396 168.247L146.374 171.014C146.732 153.814 147.651 139.954 157.192 106.713C157.43 105.893 157.477 105.031 157.329 104.191C157.182 103.351 156.843 102.554 156.338 101.858C155.834 101.162 155.176 100.586 154.413 100.17C153.65 99.7554 152.802 99.5122 151.93 99.4589C148.43 99.2595 144.024 99.1224 139.529 99.3093C132.447 99.4601 125.385 100.085 118.392 101.179C112.427 102.226 105.901 103.846 102.108 104.831C101.022 105.11 100.043 105.69 99.2863 106.499C98.5297 107.308 98.0282 108.312 97.8419 109.393Z" fill="black"/>
<path d="M100.393 168.248C100.393 168.248 86.0887 252.778 84.6966 286.493C83.2534 321.566 99.4224 401.335 99.4224 401.335H114.748C114.748 401.335 109.154 325.181 112.692 290.868C116.524 253.476 134.059 170.267 134.059 170.267L100.393 168.248Z" fill="black"/>
<path d="M116.084 401.874H98.1017L96.7734 396.277L116.914 395.592L116.084 401.874Z" fill="#619863"/>
<path opacity="0.2" d="M118.894 190.609C106.199 212.084 112.661 253.053 115.701 268.334C119.175 245.899 124.373 218.478 128.358 198.349C127.361 186.795 124.743 180.7 118.894 190.609Z" fill="black"/>
<path d="M112.539 168.971C112.539 168.971 118.925 270.228 126.843 284.237C139.449 306.448 192.898 324.657 192.898 324.657L202.937 313.191C202.937 313.191 169.501 286.057 151.85 270.639C147.648 242.632 162.502 198.435 146.448 171.015L112.539 168.971Z" fill="black"/>
<path d="M147.215 168.425L148.135 172.513C148.275 172.837 147.879 173.124 147.343 173.099L100.088 170.244C99.6661 170.244 99.334 169.995 99.334 169.746L99.168 165.708C99.168 165.421 99.5256 165.209 99.9854 165.234L146.487 168.101C146.626 168.093 146.765 168.118 146.892 168.175C147.019 168.231 147.13 168.317 147.215 168.425Z" fill="#619863"/>
<path d="M140.645 173.084L141.923 173.158C142.165 173.158 142.37 173.059 142.357 172.909L142.101 167.662C142.101 167.5 141.884 167.363 141.642 167.35L140.364 167.275C140.122 167.275 139.917 167.375 139.93 167.525L140.186 172.784C140.186 172.971 140.403 173.084 140.645 173.084Z" fill="black"/>
<path d="M103.497 170.892L104.774 170.966C105.03 170.966 105.221 170.867 105.221 170.717L104.966 165.457C104.966 165.308 104.749 165.171 104.493 165.158L103.216 165.083C102.961 165.083 102.769 165.183 102.782 165.333L103.025 170.58C103.063 170.742 103.267 170.879 103.497 170.892Z" fill="black"/>
<path d="M122.083 172.013L123.36 172.088C123.603 172.088 123.807 171.988 123.794 171.826L123.539 166.579C123.539 166.429 123.322 166.292 123.079 166.267L121.802 166.192C121.559 166.192 121.355 166.292 121.368 166.454L121.623 171.701C121.623 171.839 121.84 171.988 122.083 172.013Z" fill="black"/>
<path d="M204.155 311.896L191.69 326.13L185.789 323.824L199.672 306.437L204.155 311.896Z" fill="#619863"/>
<path d="M103.567 143.233C102.147 143.536 100.872 144.296 99.9464 145.389C99.0203 146.483 98.4966 147.848 98.4588 149.266C98.3204 148.98 98.1536 148.709 97.9607 148.456C97.7273 148.11 97.453 147.792 97.1433 147.508C96.8339 147.215 96.496 146.952 96.1343 146.723C95.7772 146.497 95.3961 146.309 94.9977 146.162C94.5864 146.003 94.1579 145.89 93.7205 145.826C93.3 145.745 92.8719 145.707 92.4433 145.713C92.0143 145.731 91.5873 145.781 91.1662 145.863C90.3263 146.039 89.5314 146.378 88.8289 146.86C88.4773 147.092 88.1519 147.359 87.8583 147.658C87.5658 147.963 87.3008 148.293 87.0665 148.643C86.8305 148.995 86.6335 149.371 86.479 149.764C86.3286 150.17 86.2133 150.587 86.1341 151.011C86.065 151.423 86.0351 151.84 86.0447 152.257C86.0429 153.095 86.2258 153.924 86.5811 154.688C86.7546 155.071 86.9641 155.438 87.2069 155.784C87.4444 156.124 87.7184 156.437 88.0243 156.719C88.3311 157.015 88.6693 157.278 89.0333 157.504C89.3904 157.731 89.7715 157.919 90.17 158.065C90.5833 158.218 91.0111 158.331 91.4471 158.402C91.7644 158.449 92.0842 158.478 92.405 158.489C91.1128 159.11 90.0686 160.133 89.4364 161.396C88.8042 162.659 88.6198 164.091 88.9121 165.468C89.2044 166.844 89.9569 168.087 91.0515 169.001C92.146 169.915 93.5206 170.448 94.9594 170.517C93.6743 171.154 92.6417 172.189 92.0229 173.46C91.404 174.731 91.2337 176.166 91.5386 177.541C91.8435 178.916 92.6063 180.154 93.708 181.061C94.8098 181.969 96.1884 182.495 97.6286 182.557C96.3419 183.199 95.3111 184.242 94.6993 185.52C94.0875 186.797 93.9295 188.238 94.2504 189.613C94.5712 190.989 95.3525 192.22 96.4708 193.114C97.5892 194.007 98.9807 194.512 100.426 194.547C99.3837 195.058 98.5016 195.833 97.8713 196.791C97.4114 197.497 97.0989 198.285 96.9517 199.109C96.8725 199.52 96.8382 199.938 96.8496 200.355C96.8433 201.214 97.0263 202.064 97.386 202.848C97.557 203.229 97.7666 203.592 98.0118 203.932C98.2535 204.276 98.5318 204.593 98.8419 204.88C99.1473 205.176 99.4809 205.443 99.8381 205.677C101.299 206.58 103.066 206.884 104.755 206.525C105.194 206.442 105.622 206.313 106.032 206.139C106.42 205.971 106.792 205.771 107.144 205.54C107.492 205.301 107.817 205.029 108.114 204.73C108.414 204.431 108.68 204.101 108.906 203.746C109.142 203.393 109.339 203.017 109.494 202.624C109.651 202.221 109.767 201.803 109.838 201.377C109.898 201.065 109.932 200.748 109.941 200.43C110.582 201.699 111.639 202.722 112.944 203.339C114.249 203.955 115.727 204.129 117.145 203.833C118.563 203.537 119.839 202.787 120.771 201.704C121.703 200.62 122.238 199.264 122.291 197.85C122.938 199.115 123.999 200.134 125.307 200.744C126.614 201.355 128.092 201.522 129.508 201.22C130.924 200.919 132.196 200.165 133.123 199.078C134.051 197.991 134.58 196.634 134.628 195.22C135.28 196.482 136.342 197.497 137.649 198.104C138.956 198.712 140.433 198.878 141.848 198.577C143.262 198.276 144.534 197.524 145.463 196.44C146.392 195.357 146.925 194.002 146.978 192.59C147.63 193.852 148.693 194.867 150 195.474C151.307 196.082 152.784 196.248 154.198 195.947C155.613 195.646 156.884 194.894 157.813 193.811C158.742 192.727 159.275 191.372 159.329 189.96C159.974 191.232 161.037 192.255 162.348 192.868C163.659 193.48 165.143 193.646 166.562 193.339C167.981 193.032 169.253 192.269 170.176 191.173C171.099 190.077 171.619 188.711 171.653 187.293C171.792 187.578 171.958 187.85 172.151 188.103C172.385 188.449 172.659 188.767 172.969 189.051C173.279 189.347 173.616 189.614 173.978 189.848C174.336 190.072 174.717 190.26 175.114 190.409C175.528 190.562 175.955 190.675 176.392 190.746C176.813 190.822 177.241 190.856 177.669 190.845C178.098 190.844 178.526 190.799 178.946 190.708C179.779 190.511 180.57 190.174 181.283 189.711C181.629 189.468 181.954 189.197 182.254 188.901C182.546 188.596 182.811 188.266 183.046 187.916C183.282 187.566 183.475 187.19 183.62 186.795C183.778 186.412 183.898 186.015 183.978 185.611C184.05 185.199 184.084 184.782 184.08 184.364C184.062 183.508 183.88 182.662 183.544 181.871C183.366 181.491 183.152 181.128 182.905 180.787C182.668 180.444 182.394 180.126 182.088 179.84C181.774 179.551 181.437 179.288 181.079 179.054C180.72 178.831 180.339 178.643 179.942 178.494C179.529 178.341 179.101 178.228 178.665 178.157C178.352 178.11 178.036 178.08 177.72 178.07C179.012 177.449 180.056 176.426 180.688 175.163C181.321 173.9 181.505 172.468 181.213 171.091C180.92 169.715 180.168 168.472 179.073 167.558C177.979 166.644 176.604 166.111 175.165 166.042C176.445 165.401 177.471 164.365 178.085 163.095C178.699 161.826 178.866 160.394 178.561 159.022C178.255 157.651 177.493 156.416 176.394 155.511C175.295 154.605 173.92 154.079 172.483 154.014C173.766 153.369 174.792 152.326 175.402 151.05C176.011 149.773 176.169 148.335 175.85 146.962C175.531 145.588 174.755 144.357 173.641 143.461C172.528 142.565 171.141 142.055 169.699 142.012C169.985 141.875 170.263 141.721 170.529 141.551C171.228 141.068 171.83 140.464 172.305 139.768C172.534 139.418 172.726 139.046 172.879 138.659C173.041 138.257 173.156 137.839 173.224 137.413C173.3 137.001 173.338 136.584 173.339 136.166C173.327 135.747 173.275 135.33 173.186 134.92C172.813 133.272 171.786 131.836 170.331 130.925C168.876 130.014 167.111 129.703 165.421 130.059C165.005 130.152 164.599 130.281 164.207 130.445C163.813 130.612 163.436 130.816 163.083 131.056C162.734 131.291 162.409 131.558 162.113 131.854C161.824 132.162 161.559 132.491 161.321 132.838C161.089 133.191 160.896 133.567 160.746 133.96C160.583 134.361 160.468 134.78 160.401 135.206C160.341 135.519 160.307 135.836 160.299 136.154C159.665 134.883 158.616 133.855 157.317 133.232C156.018 132.609 154.543 132.425 153.125 132.711C151.707 132.997 150.428 133.736 149.488 134.811C148.548 135.885 148.002 137.235 147.936 138.646C147.282 137.391 146.219 136.383 144.914 135.779C143.61 135.176 142.137 135.012 140.727 135.313C139.317 135.613 138.048 136.362 137.121 137.441C136.193 138.52 135.657 139.869 135.599 141.276C134.947 140.015 133.885 139 132.578 138.392C131.271 137.785 129.794 137.618 128.379 137.919C126.965 138.221 125.693 138.972 124.764 140.056C123.835 141.14 123.302 142.494 123.249 143.906C122.594 142.651 121.531 141.642 120.227 141.039C118.922 140.436 117.45 140.272 116.039 140.572C114.629 140.873 113.361 141.622 112.433 142.701C111.505 143.78 110.97 145.129 110.911 146.536C110.246 145.26 109.159 144.24 107.827 143.641C106.494 143.042 104.994 142.898 103.567 143.233Z" fill="#619863"/>
<path opacity="0.7" d="M103.567 143.233C102.147 143.536 100.872 144.296 99.9464 145.389C99.0203 146.483 98.4966 147.848 98.4588 149.266C98.3204 148.98 98.1536 148.709 97.9607 148.456C97.7273 148.11 97.453 147.792 97.1433 147.508C96.8339 147.215 96.496 146.952 96.1343 146.723C95.7772 146.497 95.3961 146.309 94.9977 146.162C94.5864 146.003 94.1579 145.89 93.7205 145.826C93.3 145.745 92.8719 145.707 92.4433 145.713C92.0143 145.731 91.5873 145.781 91.1662 145.863C90.3263 146.039 89.5314 146.378 88.8289 146.86C88.4773 147.092 88.1519 147.359 87.8583 147.658C87.5658 147.963 87.3008 148.293 87.0665 148.643C86.8305 148.995 86.6335 149.371 86.479 149.764C86.3286 150.17 86.2133 150.587 86.1341 151.011C86.065 151.423 86.0351 151.84 86.0447 152.257C86.0429 153.095 86.2258 153.924 86.5811 154.688C86.7546 155.071 86.9641 155.438 87.2069 155.784C87.4444 156.124 87.7184 156.437 88.0243 156.719C88.3311 157.015 88.6693 157.278 89.0333 157.504C89.3904 157.731 89.7715 157.919 90.17 158.065C90.5833 158.218 91.0111 158.331 91.4471 158.402C91.7644 158.449 92.0842 158.478 92.405 158.489C91.1128 159.11 90.0686 160.133 89.4364 161.396C88.8042 162.659 88.6198 164.091 88.9121 165.468C89.2044 166.844 89.9569 168.087 91.0515 169.001C92.146 169.915 93.5206 170.448 94.9594 170.517C93.6743 171.154 92.6417 172.189 92.0229 173.46C91.404 174.731 91.2337 176.166 91.5386 177.541C91.8435 178.916 92.6063 180.154 93.708 181.061C94.8098 181.969 96.1884 182.495 97.6286 182.557C96.3419 183.199 95.3111 184.242 94.6993 185.52C94.0875 186.797 93.9295 188.238 94.2504 189.613C94.5712 190.989 95.3525 192.22 96.4708 193.114C97.5892 194.007 98.9807 194.512 100.426 194.547C99.3837 195.058 98.5016 195.833 97.8713 196.791C97.4114 197.497 97.0989 198.285 96.9517 199.109C96.8725 199.52 96.8382 199.938 96.8496 200.355C96.8433 201.214 97.0263 202.064 97.386 202.848C97.557 203.229 97.7666 203.592 98.0118 203.932C98.2535 204.276 98.5318 204.593 98.8419 204.88C99.1473 205.176 99.4809 205.443 99.8381 205.677C101.299 206.58 103.066 206.884 104.755 206.525C105.194 206.442 105.622 206.313 106.032 206.139C106.42 205.971 106.792 205.771 107.144 205.54C107.492 205.301 107.817 205.029 108.114 204.73C108.414 204.431 108.68 204.101 108.906 203.746C109.142 203.393 109.339 203.017 109.494 202.624C109.651 202.221 109.767 201.803 109.838 201.377C109.898 201.065 109.932 200.748 109.941 200.43C110.582 201.699 111.639 202.722 112.944 203.339C114.249 203.955 115.727 204.129 117.145 203.833C118.563 203.537 119.839 202.787 120.771 201.704C121.703 200.62 122.238 199.264 122.291 197.85C122.938 199.115 123.999 200.134 125.307 200.744C126.614 201.355 128.092 201.522 129.508 201.22C130.924 200.919 132.196 200.165 133.123 199.078C134.051 197.991 134.58 196.634 134.628 195.22C135.28 196.482 136.342 197.497 137.649 198.104C138.956 198.712 140.433 198.878 141.848 198.577C143.262 198.276 144.534 197.524 145.463 196.44C146.392 195.357 146.925 194.002 146.978 192.59C147.63 193.852 148.693 194.867 150 195.474C151.307 196.082 152.784 196.248 154.198 195.947C155.613 195.646 156.884 194.894 157.813 193.811C158.742 192.727 159.275 191.372 159.329 189.96C159.974 191.232 161.037 192.255 162.348 192.868C163.659 193.48 165.143 193.646 166.562 193.339C167.981 193.032 169.253 192.269 170.176 191.173C171.099 190.077 171.619 188.711 171.653 187.293C171.792 187.578 171.958 187.85 172.151 188.103C172.385 188.449 172.659 188.767 172.969 189.051C173.279 189.347 173.616 189.614 173.978 189.848C174.336 190.072 174.717 190.26 175.114 190.409C175.528 190.562 175.955 190.675 176.392 190.746C176.813 190.822 177.241 190.856 177.669 190.845C178.098 190.844 178.526 190.799 178.946 190.708C179.779 190.511 180.57 190.174 181.283 189.711C181.629 189.468 181.954 189.197 182.254 188.901C182.546 188.596 182.811 188.266 183.046 187.916C183.282 187.566 183.475 187.19 183.62 186.795C183.778 186.412 183.898 186.015 183.978 185.611C184.05 185.199 184.084 184.782 184.08 184.364C184.062 183.508 183.88 182.662 183.544 181.871C183.366 181.491 183.152 181.128 182.905 180.787C182.668 180.444 182.394 180.126 182.088 179.84C181.774 179.551 181.437 179.288 181.079 179.054C180.72 178.831 180.339 178.643 179.942 178.494C179.529 178.341 179.101 178.228 178.665 178.157C178.352 178.11 178.036 178.08 177.72 178.07C179.012 177.449 180.056 176.426 180.688 175.163C181.321 173.9 181.505 172.468 181.213 171.091C180.92 169.715 180.168 168.472 179.073 167.558C177.979 166.644 176.604 166.111 175.165 166.042C176.445 165.401 177.471 164.365 178.085 163.095C178.699 161.826 178.866 160.394 178.561 159.022C178.255 157.651 177.493 156.416 176.394 155.511C175.295 154.605 173.92 154.079 172.483 154.014C173.766 153.369 174.792 152.326 175.402 151.05C176.011 149.773 176.169 148.335 175.85 146.962C175.531 145.588 174.755 144.357 173.641 143.461C172.528 142.565 171.141 142.055 169.699 142.012C169.985 141.875 170.263 141.721 170.529 141.551C171.228 141.068 171.83 140.464 172.305 139.768C172.534 139.418 172.726 139.046 172.879 138.659C173.041 138.257 173.156 137.839 173.224 137.413C173.3 137.001 173.338 136.584 173.339 136.166C173.327 135.747 173.275 135.33 173.186 134.92C172.813 133.272 171.786 131.836 170.331 130.925C168.876 130.014 167.111 129.703 165.421 130.059C165.005 130.152 164.599 130.281 164.207 130.445C163.813 130.612 163.436 130.816 163.083 131.056C162.734 131.291 162.409 131.558 162.113 131.854C161.824 132.162 161.559 132.491 161.321 132.838C161.089 133.191 160.896 133.567 160.746 133.96C160.583 134.361 160.468 134.78 160.401 135.206C160.341 135.519 160.307 135.836 160.299 136.154C159.665 134.883 158.616 133.855 157.317 133.232C156.018 132.609 154.543 132.425 153.125 132.711C151.707 132.997 150.428 133.736 149.488 134.811C148.548 135.885 148.002 137.235 147.936 138.646C147.282 137.391 146.219 136.383 144.914 135.779C143.61 135.176 142.137 135.012 140.727 135.313C139.317 135.613 138.048 136.362 137.121 137.441C136.193 138.52 135.657 139.869 135.599 141.276C134.947 140.015 133.885 139 132.578 138.392C131.271 137.785 129.794 137.618 128.379 137.919C126.965 138.221 125.693 138.972 124.764 140.056C123.835 141.14 123.302 142.494 123.249 143.906C122.594 142.651 121.531 141.642 120.227 141.039C118.922 140.436 117.45 140.272 116.039 140.572C114.629 140.873 113.361 141.622 112.433 142.701C111.505 143.78 110.97 145.129 110.911 146.536C110.246 145.26 109.159 144.24 107.827 143.641C106.494 143.042 104.994 142.898 103.567 143.233Z" fill="#344435"/>
<path d="M162.347 139.859L98.0202 153.547C96.7384 153.82 95.9258 155.055 96.2053 156.306L104.827 194.897C105.107 196.148 106.373 196.941 107.654 196.669L171.981 182.981C173.263 182.708 174.076 181.473 173.796 180.222L165.174 141.631C164.894 140.38 163.629 139.587 162.347 139.859Z" fill="#ABC79D"/>
<path d="M157.142 110.23C159.377 115.715 161.319 121.161 163.094 126.745C164.869 132.329 166.491 137.963 167.794 143.721C167.96 144.444 168.113 145.179 168.266 145.902L168.484 146.987L168.598 147.535L168.688 148.058C168.733 148.285 168.762 148.514 168.777 148.744C168.875 149.971 168.651 151.202 168.126 152.321C167.548 153.505 166.641 154.507 165.508 155.213C164.744 155.679 163.907 156.021 163.03 156.222C162.409 156.364 161.776 156.456 161.14 156.497C159.273 156.583 157.402 156.441 155.571 156.073C153.995 155.775 152.435 155.401 150.897 154.951C145.063 153.197 139.407 150.924 134 148.158L136.043 142.923C141.65 144.17 147.385 145.503 152.851 146.338C154.218 146.55 155.559 146.7 156.836 146.787C157.907 146.899 158.988 146.878 160.054 146.725C160.373 146.725 160.54 146.463 159.875 146.8C159.358 147.114 158.945 147.569 158.688 148.108C158.464 148.568 158.351 149.071 158.356 149.579C158.356 149.679 158.356 149.679 158.356 149.729C158.356 149.778 158.356 149.866 158.356 149.729L158.215 149.23L157.934 148.22C157.743 147.56 157.576 146.887 157.359 146.226C155.788 140.879 154 135.532 152.136 130.185C150.271 124.838 148.304 119.504 146.312 114.269L157.142 110.23Z" fill="#784A3E"/>
<path d="M155.577 99.9812C160.085 101.626 164.645 117.431 164.645 117.431L145.985 128.81C145.985 128.81 140.059 113.554 142.358 107.871C144.759 101.938 150.417 98.0991 155.577 99.9812Z" fill="#619863"/>
<path opacity="0.2" d="M155.577 99.9812C160.085 101.626 164.645 117.431 164.645 117.431L145.985 128.81C145.985 128.81 140.059 113.554 142.358 107.871C144.759 101.938 150.417 98.0991 155.577 99.9812Z" fill="black"/>
<path d="M203.123 336.238H202.995C202.742 336.298 202.477 336.295 202.225 336.229C201.973 336.164 201.742 336.039 201.552 335.864C201.419 335.771 201.315 335.644 201.252 335.497C201.189 335.349 201.169 335.187 201.195 335.029C201.386 333.633 205.09 331.926 205.511 331.739C205.554 331.709 205.606 331.694 205.658 331.694C205.711 331.694 205.762 331.709 205.805 331.739C205.845 331.772 205.874 331.815 205.887 331.864C205.901 331.913 205.899 331.965 205.882 332.013C205.345 333.459 204.4 335.752 203.123 336.238ZM205.154 332.499C203.685 333.21 201.82 334.369 201.718 335.104C201.711 335.175 201.724 335.246 201.756 335.309C201.787 335.373 201.836 335.427 201.897 335.466C202.019 335.584 202.169 335.671 202.335 335.716C202.5 335.762 202.675 335.766 202.842 335.727C203.532 335.578 204.4 334.381 205.09 332.549L205.154 332.499Z" fill="#619863"/>
<path d="M205.306 332.423C204.029 332.909 201.334 333.183 200.478 332.423C200.325 332.278 200.227 332.088 200.2 331.882C200.172 331.676 200.216 331.467 200.325 331.289C200.409 331.106 200.534 330.943 200.691 330.814C200.848 330.684 201.033 330.591 201.232 330.541C202.815 330.08 205.587 331.787 205.702 331.787C205.743 331.812 205.776 331.847 205.799 331.889C205.821 331.93 205.832 331.977 205.829 332.024C205.828 332.07 205.815 332.115 205.79 332.155C205.765 332.194 205.731 332.227 205.689 332.249L205.306 332.423ZM201.308 331.04C201.199 331.079 201.099 331.138 201.013 331.215C200.928 331.292 200.859 331.385 200.81 331.488C200.67 331.8 200.81 331.937 200.81 332.024C201.385 332.548 203.633 332.435 204.935 332.024C203.978 331.513 202.292 330.778 201.347 331.04H201.308Z" fill="#619863"/>
<path d="M98.9043 419.619C97.9943 419.956 96.9935 419.978 96.0689 419.682C95.8501 419.578 95.6603 419.424 95.5158 419.233C95.3712 419.042 95.2762 418.82 95.2388 418.585C95.2107 418.442 95.2194 418.294 95.2639 418.155C95.3085 418.016 95.3876 417.889 95.4942 417.787C96.6181 416.715 101.599 417.687 102.161 417.787C102.214 417.795 102.263 417.821 102.3 417.859C102.337 417.897 102.36 417.947 102.365 417.999C102.377 418.054 102.369 418.11 102.343 418.16C102.318 418.209 102.276 418.249 102.225 418.273C101.163 418.821 100.051 419.272 98.9043 419.619ZM96.3499 417.949C96.1788 417.982 96.02 418.06 95.8901 418.174C95.8462 418.212 95.8144 418.261 95.7985 418.317C95.7827 418.372 95.7835 418.43 95.8007 418.485C95.8223 418.639 95.8809 418.786 95.9719 418.914C96.063 419.042 96.1838 419.147 96.3244 419.221C97.1545 419.619 98.9809 419.221 101.293 418.174C99.6618 417.823 97.9814 417.747 96.3244 417.949H96.3499Z" fill="#619863"/>
<path d="M102.225 418.31H102.123C100.654 418.085 97.41 416.502 97.2695 415.231C97.2695 414.932 97.3462 414.521 98.0358 414.259C98.2815 414.154 98.5467 414.1 98.8149 414.1C99.0831 414.1 99.3484 414.154 99.594 414.259C101.293 415.007 102.365 417.799 102.404 417.923C102.429 417.96 102.442 418.004 102.442 418.048C102.442 418.092 102.429 418.136 102.404 418.173C102.388 418.208 102.363 418.239 102.332 418.263C102.301 418.287 102.264 418.303 102.225 418.31ZM98.3934 414.708H98.2402C97.7804 414.882 97.7932 415.081 97.8059 415.144C97.8953 415.892 100.156 417.225 101.714 417.637C101.261 416.456 100.444 415.442 99.3769 414.733C99.0631 414.608 98.7134 414.599 98.3934 414.708Z" fill="#619863"/>
<path d="M139.534 98.8631C132.448 99.0128 125.382 99.6374 118.384 100.733C115.829 101.181 113.186 101.73 110.721 102.291C108.818 104.272 105.51 114.293 109.227 121.074C111.679 117.06 115.804 113.595 118.55 113.197C121.564 113.994 124.54 118.444 125.268 122.37C130.198 121.498 140.862 110.243 146.98 101.181L148.538 98.8382C145.651 98.7509 142.637 98.7385 139.534 98.8631Z" fill="#619863"/>
<path d="M138.878 76.6506C137.129 83.2939 135.047 95.3465 139.517 99.31C139.517 99.31 135.302 106.003 124.6 107.212C112.824 108.558 118.38 101.18 118.38 101.18C126.043 98.7741 126.222 93.3897 125.225 88.429L138.878 76.6506Z" fill="#784A3E"/>
<path d="M118.379 101.18C118.379 101.18 113.666 106.029 118.149 114.891C127.626 110.591 136.707 105.493 139.516 99.3357L118.379 101.18Z" fill="#784A3E"/>
<path opacity="0.2" d="M133.303 81.4497L125.219 88.4295C125.472 89.594 125.613 90.7791 125.64 91.9693C128.565 91.3087 133.393 88.4669 133.891 85.5379C133.978 84.1505 133.779 82.7601 133.303 81.4497Z" fill="black"/>
<path d="M147.846 68.6255C143.836 78.8833 142.355 83.308 135.228 87.0223C124.487 92.6186 112.456 85.564 113.248 74.3465C113.963 64.2382 120.4 49.1569 132.227 48.1722C134.839 47.9399 137.468 48.3656 139.863 49.4086C142.259 50.4516 144.339 52.0771 145.907 54.1295C147.474 56.1818 148.475 58.5924 148.815 61.1304C149.155 63.6685 148.821 66.2492 147.846 68.6255Z" fill="#784A3E"/>
<path d="M123.936 48.1454C128.738 47.0611 130.322 52.4081 121.918 54.2901C113.515 56.1722 120.028 49.0428 123.936 48.1454Z" fill="black"/>
<path d="M128.955 45.3151C122.097 47.8078 125.124 55.4981 132.902 57.6917C140.68 59.8854 138.087 72.7606 145.06 75.5899C152.034 78.4192 155.725 56.7694 149.709 50.6621C143.694 44.5548 133.566 43.62 128.955 45.3151Z" fill="black"/>
<path opacity="0.3" d="M122.537 65.6333C121.137 67.3389 119.504 68.8487 117.684 70.1203C118.03 70.5649 118.47 70.9311 118.975 71.1936C119.48 71.4561 120.037 71.6087 120.608 71.6409L122.537 65.6333Z" fill="#121212"/>
<path d="M124.303 76.4277C123.87 76.3578 123.444 76.2578 123.026 76.1286C122.958 76.1084 122.901 76.0631 122.868 76.0024C122.835 75.9417 122.827 75.8706 122.847 75.8045C122.873 75.7395 122.922 75.6858 122.985 75.6537C123.049 75.6216 123.122 75.6132 123.192 75.63C124.268 75.9849 125.416 76.0874 126.541 75.9294C127.665 75.7713 128.736 75.3571 129.667 74.7202C129.692 74.6953 129.722 74.6755 129.755 74.662C129.787 74.6486 129.823 74.6416 129.858 74.6416C129.894 74.6416 129.929 74.6486 129.962 74.662C129.995 74.6755 130.025 74.6953 130.05 74.7202C130.099 74.7709 130.125 74.8377 130.125 74.9071C130.125 74.9765 130.099 75.0433 130.05 75.0941C129.234 75.684 128.304 76.1063 127.316 76.3356C126.329 76.5648 125.303 76.5961 124.303 76.4277Z" fill="black"/>
<path d="M148.097 77.9731C146.754 79.645 144.79 80.7331 142.631 81.0018C139.77 81.3259 138.799 78.7209 139.949 76.3154C141.009 74.1467 143.78 71.3298 146.462 72.1525C147.047 72.3354 147.576 72.6578 148.001 73.0905C148.426 73.5232 148.733 74.0525 148.896 74.6305C149.058 75.2085 149.07 75.8169 148.93 76.4006C148.791 76.9843 148.505 77.5248 148.097 77.9731Z" fill="#784A3E"/>
<path d="M135.888 65.8953C135.78 65.8652 135.685 65.8036 135.614 65.719C135.543 65.6343 135.501 65.5306 135.492 65.4217C135.339 62.9912 132.618 61.3335 132.593 61.3211C132.525 61.2892 132.465 61.2438 132.416 61.1878C132.368 61.1318 132.332 61.0664 132.31 60.9959C132.289 60.9254 132.284 60.8514 132.294 60.7787C132.304 60.7059 132.33 60.6361 132.37 60.5737C132.409 60.5113 132.462 60.4577 132.524 60.4164C132.586 60.3752 132.657 60.3471 132.731 60.3342C132.805 60.3212 132.881 60.3236 132.954 60.3411C133.027 60.3587 133.095 60.3911 133.155 60.4361C133.295 60.5109 136.373 62.393 136.552 65.3469C136.559 65.416 136.551 65.4858 136.53 65.552C136.508 65.6182 136.473 65.6794 136.427 65.7319C136.38 65.7844 136.323 65.8271 136.259 65.8573C136.195 65.8876 136.125 65.9047 136.054 65.9078L135.888 65.8953Z" fill="black"/>
<path d="M130.017 67.1428C129.724 67.9156 129.06 68.3892 128.536 68.2147C128.012 68.0402 127.821 67.2425 128.114 66.4573C128.408 65.6721 129.072 65.2109 129.596 65.3854C130.12 65.5599 130.324 66.3451 130.017 67.1428Z" fill="black"/>
<path d="M120.107 63.7246C119.813 64.4974 119.149 64.971 118.626 64.7965C118.102 64.622 117.911 63.8243 118.217 63.0391C118.524 62.2539 119.175 61.7927 119.699 61.9672C120.222 62.1417 120.414 62.9394 120.107 63.7246Z" fill="black"/>
<path d="M119.911 62.1534L118.199 60.907C118.199 60.907 118.633 62.6769 119.911 62.1534Z" fill="black"/>
<path d="M129.813 65.4976L128.102 64.2512C128.102 64.2512 128.536 66.0834 129.813 65.4976Z" fill="black"/>
<path d="M117.844 57.1699C117.75 57.1703 117.658 57.1463 117.578 57.1003C117.497 57.0542 117.43 56.9879 117.384 56.9081C117.315 56.7874 117.298 56.6449 117.336 56.5118C117.375 56.3787 117.465 56.2658 117.589 56.1977C118.317 55.7642 119.142 55.5085 119.994 55.4521C120.845 55.3957 121.698 55.5403 122.48 55.8736C122.607 55.9364 122.703 56.0459 122.748 56.178C122.792 56.31 122.781 56.4539 122.716 56.5778C122.652 56.7018 122.54 56.7957 122.405 56.839C122.269 56.8822 122.122 56.8712 121.995 56.8084C121.377 56.5592 120.708 56.4564 120.042 56.5084C119.376 56.5604 118.732 56.7657 118.163 57.1075C118.069 57.1679 117.955 57.1903 117.844 57.1699Z" fill="black"/>
<path d="M137.538 143.447L129.811 134.161L127.652 145.217C127.652 145.217 133.259 149.741 137.614 148.009L137.538 143.447Z" fill="#784A3E"/>
<path d="M122.952 132.627L119.223 141.426L127.652 145.215L129.81 134.16L122.952 132.627Z" fill="#784A3E"/>
<path d="M158.874 373.106L456.996 345.143L439.938 171.945L141.817 199.908L158.874 373.106Z" fill="#619863"/>
<path opacity="0.1" d="M158.874 373.106L456.996 345.143L439.938 171.945L141.817 199.908L158.874 373.106Z" fill="black"/>
<path opacity="0.1" d="M300.189 280.4L141.82 199.908L439.937 171.939L300.189 280.4Z" fill="black"/>
<path d="M264.109 105.005L141.82 199.905L439.937 171.936L301.364 101.515C295.473 98.5195 288.819 97.255 282.207 97.8744C275.595 98.4938 269.308 100.97 264.109 105.005Z" fill="#619863"/>
<path opacity="0.2" d="M428.862 172.984L297.199 106.065C292.756 103.804 287.738 102.85 282.751 103.316C277.763 103.783 273.022 105.651 269.101 108.695L152.879 198.859L428.862 172.984Z" fill="black"/>
<path d="M373.799 170.854L414.144 181.373L415.115 191.195L300.183 280.399L169.937 214.203L167.996 194.56L373.799 170.854Z" fill="#EFEEE3"/>
<path d="M324.004 261.875L456.995 345.147L158.879 373.103L273.173 266.637C279.873 260.399 288.526 256.538 297.744 255.675C306.962 254.811 316.21 256.995 324.004 261.875Z" fill="#619863"/>
<path d="M57.3703 507C56.1703 507 55.7503 506.82 55.7503 506.07C55.7503 505.59 56.2003 505.2 56.5603 504.96C57.8503 504.24 58.1803 503.67 58.1803 502.2V500.07C58.1803 499.26 57.8203 498.21 57.3103 497.34L53.1403 489.9C52.4803 488.73 51.9703 488.4 50.9503 488.19C50.5003 488.01 50.1403 487.71 50.1403 487.05C50.1403 486.15 50.8603 486 52.0903 486H58.0003C59.7403 486 60.1003 486.45 60.1003 486.93C60.1003 487.53 59.7703 487.8 59.3503 488.04C58.2403 488.4 57.9103 488.79 58.3903 489.63L61.3003 494.73C61.5703 495.21 61.9003 495.24 62.1703 494.73L65.1403 489.33C65.6203 488.46 65.1403 488.16 64.0603 487.8C63.6103 487.53 63.5503 487.29 63.5503 486.96C63.5503 486.15 64.1203 486 65.1104 486H69.2203C70.0603 486 70.6303 486.21 70.5703 486.9C70.5403 487.56 69.9103 487.83 69.4303 488.1C68.5603 488.37 68.3503 488.7 67.6004 489.99L63.4903 497.07C63.0703 497.79 62.8003 498.81 62.8003 500.07V502.2C62.8003 503.7 63.1603 504.27 64.4203 504.96C64.8403 505.23 65.2303 505.56 65.2303 506.07C65.2303 506.61 64.9603 507.03 63.7903 507.03L57.3703 507ZM75.5018 507.36C70.6418 507.36 67.2818 504.12 67.2818 499.71C67.2818 495.27 70.6718 492.09 75.5018 492.09C80.3618 492.09 83.7218 495.3 83.7218 499.71C83.7218 504.18 80.3618 507.36 75.5018 507.36ZM76.0418 505.41C77.7818 505.41 79.0418 503.88 79.0418 501.24C79.0418 498.42 77.5718 494.1 74.9318 494.1C73.2518 494.1 71.9318 495.6 71.9318 498.3C71.9318 501.12 73.3418 505.41 76.0418 505.41ZM91.3636 507.33C88.7236 507.33 86.4136 505.83 86.4136 501.66V496.62C86.4136 495.81 86.2936 495.33 85.6336 495.15C84.8836 495 84.2236 495.06 84.1936 494.46C84.1636 493.86 84.7336 493.65 85.4236 493.38C86.8636 492.9 88.6036 492.27 89.6236 492.27C90.4636 492.27 90.8236 492.51 90.8236 493.32V500.97C90.8236 503.46 91.7836 504.3 93.3736 504.3C94.8436 504.3 96.4336 502.89 96.4336 499.98V496.62C96.4336 495.81 96.3136 495.33 95.6536 495.15C94.9036 495 94.2436 495.06 94.2136 494.46C94.1836 493.86 94.7536 493.65 95.4436 493.38C96.8836 492.9 98.6236 492.27 99.6436 492.27C100.484 492.27 100.844 492.51 100.844 493.32V502.83C100.844 503.64 100.964 504.12 101.624 504.3C102.374 504.45 103.034 504.39 103.064 504.99C103.094 505.59 102.524 505.8 101.834 506.07C100.394 506.55 98.6536 507.18 97.6336 507.18C96.7936 507.18 96.4336 506.94 96.4336 506.13V504.81C96.4336 504.51 96.4036 504.27 96.2836 504.27C95.9836 504.27 95.0236 507.33 91.3636 507.33ZM104.597 494.1C103.937 494.1 103.577 493.17 104.357 492.87C105.197 492.51 106.067 491.85 106.067 491.07C106.067 490.8 105.977 490.56 105.437 490.44C104.597 490.26 103.727 489.66 103.727 488.19C103.727 486.78 104.867 485.64 106.457 485.64C108.197 485.64 109.217 486.81 109.217 488.91C109.217 492.39 106.247 494.1 104.597 494.1ZM117.009 502.8C117.009 504.06 117.069 504.75 118.479 505.32C118.809 505.5 119.109 505.71 119.109 506.16C119.109 506.82 118.689 507.18 116.109 507.18H113.589C111.099 507.18 110.559 506.82 110.559 506.16C110.559 505.74 110.799 505.5 111.189 505.32C112.569 504.75 112.599 504 112.599 502.83V496.62C112.599 495.81 112.479 495.33 111.819 495.15C111.069 495 110.409 495.06 110.379 494.46C110.349 493.86 110.919 493.65 111.609 493.38C113.049 492.9 114.789 492.27 115.809 492.27C116.649 492.27 117.009 492.51 117.009 493.32V494.58C117.009 494.79 117.039 495.15 117.129 495.15C117.399 495.15 118.179 492.09 121.329 492.09C123.279 492.09 124.449 493.38 124.449 495.69C124.449 496.95 123.639 498.42 122.139 498.42C121.329 498.42 120.429 497.97 120.519 496.77C120.609 496.29 120.639 495.27 119.439 495.27C118.179 495.27 117.009 497.04 117.009 499.53V502.8ZM132.703 507.36C127.963 507.36 125.203 503.76 125.203 499.62C125.203 495.09 128.713 492.15 132.823 492.15C136.843 492.15 139.033 495.09 139.033 497.28C139.033 498.84 138.343 499.32 136.663 499.56L130.663 500.43C130.243 500.49 130.123 500.61 130.123 500.91C130.123 502.35 131.533 504.42 134.113 504.42C136.033 504.42 137.353 503.46 138.043 502.59C138.193 502.44 138.373 502.32 138.523 502.32C139.183 502.32 139.273 502.98 139.153 503.31C138.463 505.23 136.483 507.36 132.703 507.36ZM133.993 497.88C134.653 497.76 134.923 497.49 134.923 496.98C134.923 495.78 133.873 494.07 132.253 494.07C130.693 494.07 129.613 495.36 129.613 497.52C129.613 498.57 129.823 498.6 130.393 498.48L133.993 497.88ZM157.198 507.36C152.338 507.36 148.978 504.12 148.978 499.71C148.978 495.27 152.368 492.09 157.198 492.09C162.058 492.09 165.418 495.3 165.418 499.71C165.418 504.18 162.058 507.36 157.198 507.36ZM157.738 505.41C159.478 505.41 160.738 503.88 160.738 501.24C160.738 498.42 159.268 494.1 156.628 494.1C154.948 494.1 153.628 495.6 153.628 498.3C153.628 501.12 155.038 505.41 157.738 505.41ZM172.587 502.8C172.587 504.06 172.617 504.75 174.057 505.32C174.387 505.5 174.687 505.71 174.687 506.16C174.687 506.82 174.267 507.18 171.687 507.18H169.167C166.677 507.18 166.137 506.82 166.137 506.16C166.137 505.74 166.377 505.5 166.767 505.32C168.147 504.75 168.177 504 168.177 502.83V496.62C168.177 495.81 168.057 495.33 167.397 495.15C166.647 495 165.987 495.06 165.957 494.46C165.927 493.86 166.497 493.65 167.187 493.38C168.627 492.9 170.367 492.27 171.387 492.27C172.227 492.27 172.587 492.51 172.587 493.32V494.79C172.587 495.06 172.647 495.15 172.707 495.15C173.007 495.15 173.697 492.09 177.627 492.09C180.147 492.09 182.157 493.5 182.607 497.64L183.237 503.28C183.297 504.06 183.387 504.69 184.737 505.32C185.097 505.53 185.397 505.71 185.397 506.16C185.397 506.82 185.007 507.18 182.487 507.18H179.907C177.627 507.18 177.087 506.82 177.087 506.16C177.087 505.74 177.327 505.53 177.687 505.35C178.887 504.84 178.887 504.03 178.827 503.31L178.287 498.39C178.047 496.17 177.267 495.15 175.617 495.15C174.297 495.15 172.587 496.44 172.587 499.41V502.8ZM201.052 507.3C198.142 507.3 196.252 505.95 196.252 502.35V495.09C196.252 494.64 196.012 494.4 195.562 494.4H195.022C194.482 494.4 194.242 493.92 194.242 493.56C194.242 493.2 194.422 492.75 194.812 492.27C195.982 490.77 196.492 490.17 197.452 489.27C198.262 488.55 199.102 488.22 199.882 488.22C200.512 488.22 200.662 488.58 200.662 489.3V491.13C200.662 492.33 200.722 492.45 201.262 492.45H205.132C205.642 492.45 205.852 492.51 205.852 493.17C205.852 493.98 205.372 494.4 204.742 494.4H201.412C200.992 494.4 200.632 494.58 200.632 495.12V501.69C200.632 503.46 201.442 504.33 202.732 504.33C203.392 504.33 204.412 504.06 205.162 503.1C205.702 502.47 206.452 502.89 206.272 503.58C205.642 506.04 203.842 507.3 201.052 507.3ZM213.258 502.8C213.258 504.06 213.288 504.75 214.728 505.32C215.058 505.5 215.358 505.71 215.358 506.16C215.358 506.82 214.938 507.18 212.358 507.18H209.838C207.348 507.18 206.808 506.82 206.808 506.16C206.808 505.74 207.048 505.5 207.438 505.32C208.818 504.75 208.848 504 208.848 502.83V490.17C208.848 489.36 208.728 488.88 208.068 488.7C207.318 488.55 206.658 488.61 206.628 488.01C206.598 487.41 207.168 487.2 207.858 486.93C209.298 486.45 211.038 485.82 212.058 485.82C212.898 485.82 213.258 486.06 213.258 486.87V494.79C213.258 495.06 213.318 495.15 213.378 495.15C213.678 495.15 214.428 492.09 218.298 492.09C220.818 492.09 222.828 493.5 223.248 497.64L223.878 503.28C223.968 504.06 224.058 504.69 225.408 505.32C225.768 505.53 226.068 505.71 226.068 506.16C226.068 506.82 225.678 507.18 223.158 507.18H220.578C218.298 507.18 217.758 506.82 217.758 506.16C217.758 505.74 217.998 505.53 218.328 505.35C219.558 504.84 219.558 504.03 219.498 503.31L218.958 498.39C218.718 496.17 217.938 495.15 216.288 495.15C214.968 495.15 213.258 496.44 213.258 499.41V502.8ZM233.962 507.36C229.222 507.36 226.462 503.76 226.462 499.62C226.462 495.09 229.972 492.15 234.082 492.15C238.102 492.15 240.292 495.09 240.292 497.28C240.292 498.84 239.602 499.32 237.922 499.56L231.922 500.43C231.502 500.49 231.382 500.61 231.382 500.91C231.382 502.35 232.792 504.42 235.372 504.42C237.292 504.42 238.612 503.46 239.302 502.59C239.452 502.44 239.632 502.32 239.782 502.32C240.442 502.32 240.532 502.98 240.412 503.31C239.722 505.23 237.742 507.36 233.962 507.36ZM235.252 497.88C235.912 497.76 236.182 497.49 236.182 496.98C236.182 495.78 235.132 494.07 233.512 494.07C231.952 494.07 230.872 495.36 230.872 497.52C230.872 498.57 231.082 498.6 231.652 498.48L235.252 497.88ZM256.537 502.8C256.537 504.06 256.567 504.75 258.007 505.32C258.337 505.5 258.637 505.71 258.637 506.16C258.637 506.82 258.217 507.18 255.637 507.18H253.117C250.627 507.18 250.087 506.82 250.087 506.16C250.087 505.74 250.327 505.5 250.717 505.32C252.097 504.75 252.127 504 252.127 502.83V490.17C252.127 489.36 252.007 488.88 251.347 488.7C250.597 488.55 249.937 488.61 249.907 488.01C249.877 487.41 250.447 487.2 251.137 486.93C252.577 486.45 254.317 485.82 255.337 485.82C256.177 485.82 256.537 486.06 256.537 486.87V502.8ZM261.438 496.62C261.438 495.81 261.318 495.33 260.658 495.15C259.908 495 259.248 495.06 259.218 494.46C259.188 493.86 259.758 493.65 260.448 493.38C261.888 492.9 263.628 492.27 264.648 492.27C265.488 492.27 265.848 492.51 265.848 493.32V502.8C265.848 504.06 265.878 504.75 267.318 505.32C267.648 505.5 267.948 505.71 267.948 506.16C267.948 506.82 267.528 507.18 264.948 507.18H262.428C259.938 507.18 259.398 506.82 259.398 506.16C259.398 505.74 259.638 505.5 260.028 505.32C261.408 504.75 261.438 504 261.438 502.83V496.62ZM262.608 490.41C261.258 490.41 260.508 489.93 260.508 488.94C260.508 487.56 262.218 486.45 264.318 486.42C265.608 486.39 266.358 487.05 266.358 487.92C266.358 489.51 264.708 490.38 262.608 490.41ZM275.197 507.36C272.407 507.36 268.687 506.1 268.687 503.16C268.687 502.23 269.227 501.57 270.157 501.57C270.907 501.57 271.477 501.84 272.017 503.04C272.377 504.33 273.337 505.41 275.377 505.41C277.267 505.41 278.047 504.72 278.047 503.76C278.047 500.91 269.257 502.92 269.257 496.68C269.257 493.62 271.657 492.09 275.137 492.09C277.867 492.09 281.347 493.35 281.347 496.17C281.347 496.95 280.867 497.67 279.937 497.67C279.217 497.67 278.647 497.4 278.137 496.32C277.807 495.12 276.997 494.07 275.257 494.07C273.937 494.07 273.097 494.7 273.097 495.57C273.097 498.63 281.887 496.65 281.887 502.71C281.887 505.92 279.127 507.36 275.197 507.36ZM289.538 507.3C286.628 507.3 284.738 505.95 284.738 502.35V495.09C284.738 494.64 284.498 494.4 284.048 494.4H283.508C282.968 494.4 282.728 493.92 282.728 493.56C282.728 493.2 282.908 492.75 283.298 492.27C284.468 490.77 284.978 490.17 285.938 489.27C286.748 488.55 287.588 488.22 288.368 488.22C288.998 488.22 289.148 488.58 289.148 489.3V491.13C289.148 492.33 289.208 492.45 289.748 492.45H293.618C294.128 492.45 294.338 492.51 294.338 493.17C294.338 493.98 293.858 494.4 293.228 494.4H289.898C289.478 494.4 289.118 494.58 289.118 495.12V501.69C289.118 503.46 289.928 504.33 291.218 504.33C291.878 504.33 292.898 504.06 293.648 503.1C294.188 502.47 294.938 502.89 294.758 503.58C294.128 506.04 292.328 507.3 289.538 507.3ZM299.095 500.7C298.555 500.7 298.255 500.28 298.045 499.74C297.475 496.35 296.635 492.42 296.515 488.85C296.485 486.96 297.325 485.61 299.095 485.61C300.865 485.61 301.735 486.9 301.735 488.85C301.615 492.18 300.715 496.29 300.175 499.74C299.935 500.31 299.605 500.7 299.095 500.7ZM299.035 507.33C297.565 507.33 296.485 506.28 296.485 504.84C296.485 503.31 297.565 502.2 299.035 502.2C300.595 502.2 301.735 503.34 301.735 504.84C301.735 506.31 300.595 507.33 299.035 507.33Z" fill="#242424"/>
<path opacity="0.75" d="M63.3808 542L60.5569 531.818H62.1727L64.1563 539.703H64.2508L66.314 531.818H67.9149L69.9781 539.708H70.0725L72.0512 531.818H73.672L70.8431 542H69.297L67.1542 534.374H67.0747L64.9319 542H63.3808ZM77.4926 542.154C76.7403 542.154 76.0923 541.993 75.5487 541.672C75.0085 541.347 74.5909 540.891 74.2959 540.305C74.0042 539.715 73.8584 539.024 73.8584 538.232C73.8584 537.449 74.0042 536.76 74.2959 536.163C74.5909 535.567 75.0019 535.101 75.5289 534.766C76.0592 534.432 76.6789 534.264 77.3882 534.264C77.8191 534.264 78.2367 534.335 78.6411 534.478C79.0454 534.621 79.4084 534.844 79.7298 535.149C80.0513 535.454 80.3049 535.85 80.4905 536.337C80.6761 536.821 80.7689 537.41 80.7689 538.102V538.629H74.6986V537.516H79.3122C79.3122 537.125 79.2327 536.778 79.0736 536.477C78.9145 536.172 78.6908 535.931 78.4024 535.756C78.1174 535.58 77.7826 535.492 77.3982 535.492C76.9806 535.492 76.616 535.595 76.3044 535.8C75.9962 536.003 75.7575 536.268 75.5885 536.596C75.4228 536.921 75.3399 537.274 75.3399 537.655V538.525C75.3399 539.035 75.4294 539.469 75.6084 539.827C75.7907 540.185 76.0442 540.459 76.3691 540.648C76.6939 540.833 77.0734 540.926 77.5075 540.926C77.7893 540.926 78.0461 540.886 78.2781 540.807C78.5102 540.724 78.7107 540.601 78.8797 540.439C79.0487 540.277 79.178 540.076 79.2675 539.837L80.6744 540.091C80.5618 540.505 80.3596 540.868 80.0679 541.18C79.7796 541.488 79.4166 541.728 78.9791 541.901C78.545 542.07 78.0494 542.154 77.4926 542.154ZM83.6959 531.818V532.773C83.6959 533.054 83.6429 533.351 83.5368 533.663C83.4341 533.971 83.2883 534.268 83.0993 534.553C82.9104 534.838 82.6884 535.083 82.4331 535.288L81.6974 534.761C81.8929 534.476 82.0619 534.173 82.2045 533.852C82.3503 533.53 82.4232 533.175 82.4232 532.788V531.818H83.6959ZM86.6938 531.818V542H85.2073V531.818H86.6938ZM90.1801 531.818V542H88.6936V531.818H90.1801ZM99.1762 542.154C98.4239 542.154 97.7759 541.993 97.2323 541.672C96.6921 541.347 96.2745 540.891 95.9795 540.305C95.6878 539.715 95.542 539.024 95.542 538.232C95.542 537.449 95.6878 536.76 95.9795 536.163C96.2745 535.567 96.6855 535.101 97.2124 534.766C97.7427 534.432 98.3625 534.264 99.0718 534.264C99.5027 534.264 99.9203 534.335 100.325 534.478C100.729 534.621 101.092 534.844 101.413 535.149C101.735 535.454 101.988 535.85 102.174 536.337C102.36 536.821 102.453 537.41 102.453 538.102V538.629H96.3822V537.516H100.996C100.996 537.125 100.916 536.778 100.757 536.477C100.598 536.172 100.374 535.931 100.086 535.756C99.801 535.58 99.4662 535.492 99.0818 535.492C98.6642 535.492 98.2996 535.595 97.988 535.8C97.6798 536.003 97.4411 536.268 97.2721 536.596C97.1064 536.921 97.0235 537.274 97.0235 537.655V538.525C97.0235 539.035 97.113 539.469 97.292 539.827C97.4743 540.185 97.7278 540.459 98.0526 540.648C98.3775 540.833 98.757 540.926 99.1911 540.926C99.4729 540.926 99.7297 540.886 99.9617 540.807C100.194 540.724 100.394 540.601 100.563 540.439C100.732 540.277 100.862 540.076 100.951 539.837L102.358 540.091C102.245 540.505 102.043 540.868 101.752 541.18C101.463 541.488 101.1 541.728 100.663 541.901C100.229 542.07 99.733 542.154 99.1762 542.154ZM104.102 542V534.364H105.529V535.607H105.623C105.782 535.186 106.042 534.857 106.404 534.622C106.765 534.384 107.197 534.264 107.701 534.264C108.212 534.264 108.639 534.384 108.984 534.622C109.332 534.861 109.589 535.189 109.755 535.607H109.834C110.016 535.199 110.306 534.874 110.704 534.632C111.102 534.387 111.576 534.264 112.126 534.264C112.819 534.264 113.384 534.481 113.821 534.915C114.262 535.35 114.483 536.004 114.483 536.879V542H112.996V537.018C112.996 536.501 112.855 536.127 112.573 535.895C112.292 535.663 111.955 535.547 111.564 535.547C111.08 535.547 110.704 535.696 110.436 535.994C110.167 536.289 110.033 536.669 110.033 537.133V542H108.551V536.924C108.551 536.51 108.422 536.177 108.164 535.925C107.905 535.673 107.569 535.547 107.154 535.547C106.873 535.547 106.612 535.621 106.374 535.771C106.139 535.916 105.948 536.12 105.802 536.382C105.66 536.644 105.588 536.947 105.588 537.292V542H104.102ZM118.697 542.169C118.213 542.169 117.776 542.08 117.385 541.901C116.994 541.718 116.684 541.455 116.455 541.11C116.23 540.765 116.117 540.343 116.117 539.842C116.117 539.411 116.2 539.057 116.366 538.778C116.531 538.5 116.755 538.28 117.037 538.117C117.318 537.955 117.633 537.832 117.981 537.749C118.329 537.666 118.684 537.603 119.045 537.56C119.503 537.507 119.874 537.464 120.159 537.431C120.444 537.395 120.651 537.337 120.78 537.257C120.91 537.178 120.974 537.048 120.974 536.869V536.835C120.974 536.4 120.852 536.064 120.606 535.825C120.364 535.587 120.003 535.467 119.522 535.467C119.022 535.467 118.628 535.578 118.339 535.8C118.054 536.019 117.857 536.263 117.748 536.531L116.351 536.213C116.516 535.749 116.758 535.375 117.076 535.089C117.398 534.801 117.767 534.592 118.185 534.463C118.603 534.33 119.042 534.264 119.503 534.264C119.807 534.264 120.131 534.301 120.472 534.374C120.817 534.443 121.138 534.572 121.437 534.761C121.738 534.95 121.985 535.22 122.177 535.572C122.37 535.92 122.466 536.372 122.466 536.929V542H121.014V540.956H120.954C120.858 541.148 120.714 541.337 120.522 541.523C120.33 541.708 120.083 541.862 119.781 541.985C119.479 542.108 119.118 542.169 118.697 542.169ZM119.02 540.976C119.431 540.976 119.783 540.895 120.074 540.732C120.369 540.57 120.593 540.358 120.745 540.096C120.901 539.831 120.979 539.547 120.979 539.246V538.261C120.926 538.314 120.823 538.364 120.671 538.411C120.522 538.454 120.351 538.492 120.159 538.525C119.967 538.555 119.779 538.583 119.597 538.609C119.415 538.633 119.262 538.652 119.14 538.669C118.851 538.705 118.588 538.767 118.349 538.853C118.114 538.939 117.925 539.063 117.782 539.226C117.643 539.385 117.574 539.597 117.574 539.862C117.574 540.23 117.709 540.509 117.981 540.697C118.253 540.883 118.599 540.976 119.02 540.976ZM124.446 542V534.364H125.932V542H124.446ZM125.196 533.185C124.938 533.185 124.716 533.099 124.53 532.927C124.348 532.751 124.257 532.542 124.257 532.3C124.257 532.055 124.348 531.846 124.53 531.674C124.716 531.498 124.938 531.411 125.196 531.411C125.455 531.411 125.675 531.498 125.858 531.674C126.043 531.846 126.136 532.055 126.136 532.3C126.136 532.542 126.043 532.751 125.858 532.927C125.675 533.099 125.455 533.185 125.196 533.185ZM129.418 531.818V542H127.932V531.818H129.418ZM136.063 544.864C135.841 544.864 135.639 544.845 135.456 544.809C135.274 544.776 135.138 544.739 135.049 544.7L135.407 543.482C135.678 543.554 135.92 543.586 136.133 543.576C136.345 543.566 136.532 543.487 136.694 543.337C136.86 543.188 137.006 542.945 137.132 542.607L137.316 542.099L134.522 534.364H136.113L138.047 540.29H138.126L140.06 534.364H141.656L138.509 543.019C138.363 543.417 138.178 543.753 137.952 544.028C137.727 544.307 137.458 544.516 137.147 544.655C136.835 544.794 136.474 544.864 136.063 544.864ZM146.01 542.154C145.294 542.154 144.669 541.99 144.136 541.662C143.602 541.334 143.188 540.875 142.893 540.285C142.598 539.695 142.45 539.005 142.45 538.217C142.45 537.424 142.598 536.732 142.893 536.138C143.188 535.545 143.602 535.085 144.136 534.756C144.669 534.428 145.294 534.264 146.01 534.264C146.726 534.264 147.351 534.428 147.884 534.756C148.418 535.085 148.832 535.545 149.127 536.138C149.422 536.732 149.57 537.424 149.57 538.217C149.57 539.005 149.422 539.695 149.127 540.285C148.832 540.875 148.418 541.334 147.884 541.662C147.351 541.99 146.726 542.154 146.01 542.154ZM146.015 540.906C146.479 540.906 146.863 540.784 147.168 540.538C147.473 540.293 147.699 539.967 147.844 539.559C147.994 539.151 148.068 538.702 148.068 538.212C148.068 537.724 147.994 537.277 147.844 536.869C147.699 536.458 147.473 536.129 147.168 535.88C146.863 535.631 146.479 535.507 146.015 535.507C145.547 535.507 145.16 535.631 144.851 535.88C144.547 536.129 144.32 536.458 144.17 536.869C144.025 537.277 143.952 537.724 143.952 538.212C143.952 538.702 144.025 539.151 144.17 539.559C144.32 539.967 144.547 540.293 144.851 540.538C145.16 540.784 145.547 540.906 146.015 540.906ZM156.066 538.833V534.364H157.558V542H156.096V540.678H156.016C155.841 541.085 155.559 541.425 155.171 541.697C154.787 541.965 154.308 542.099 153.734 542.099C153.244 542.099 152.81 541.992 152.432 541.776C152.057 541.558 151.762 541.234 151.547 540.807C151.335 540.379 151.229 539.851 151.229 539.221V534.364H152.715V539.042C152.715 539.562 152.859 539.977 153.148 540.285C153.436 540.593 153.811 540.747 154.271 540.747C154.55 540.747 154.827 540.678 155.102 540.538C155.38 540.399 155.61 540.189 155.793 539.907C155.978 539.625 156.069 539.267 156.066 538.833ZM159.555 542V534.364H160.992V535.577H161.071C161.21 535.166 161.456 534.843 161.807 534.607C162.162 534.369 162.563 534.249 163.01 534.249C163.103 534.249 163.212 534.253 163.338 534.259C163.468 534.266 163.569 534.274 163.642 534.284V535.706C163.582 535.689 163.476 535.671 163.323 535.651C163.171 535.628 163.018 535.616 162.866 535.616C162.515 535.616 162.201 535.691 161.926 535.84C161.655 535.986 161.439 536.19 161.28 536.452C161.121 536.71 161.041 537.005 161.041 537.337V542H159.555ZM168.633 542V534.364H170.12V542H168.633ZM169.384 533.185C169.125 533.185 168.903 533.099 168.718 532.927C168.535 532.751 168.444 532.542 168.444 532.3C168.444 532.055 168.535 531.846 168.718 531.674C168.903 531.498 169.125 531.411 169.384 531.411C169.642 531.411 169.863 531.498 170.045 531.674C170.231 531.846 170.323 532.055 170.323 532.3C170.323 532.542 170.231 532.751 170.045 532.927C169.863 533.099 169.642 533.185 169.384 533.185ZM173.606 537.466V542H172.119V534.364H173.546V535.607H173.641C173.816 535.202 174.091 534.877 174.466 534.632C174.844 534.387 175.319 534.264 175.893 534.264C176.413 534.264 176.869 534.374 177.26 534.592C177.651 534.808 177.954 535.129 178.17 535.557C178.385 535.984 178.493 536.513 178.493 537.143V542H177.006V537.322C177.006 536.768 176.862 536.336 176.574 536.024C176.286 535.709 175.89 535.552 175.386 535.552C175.041 535.552 174.734 535.626 174.466 535.776C174.201 535.925 173.99 536.143 173.835 536.432C173.682 536.717 173.606 537.062 173.606 537.466ZM186.746 534.364L183.977 542H182.386L179.612 534.364H181.207L183.141 540.24H183.221L185.15 534.364H186.746ZM188.143 542V534.364H189.629V542H188.143ZM188.894 533.185C188.635 533.185 188.413 533.099 188.227 532.927C188.045 532.751 187.954 532.542 187.954 532.3C187.954 532.055 188.045 531.846 188.227 531.674C188.413 531.498 188.635 531.411 188.894 531.411C189.152 531.411 189.372 531.498 189.555 531.674C189.74 531.846 189.833 532.055 189.833 532.3C189.833 532.542 189.74 532.751 189.555 532.927C189.372 533.099 189.152 533.185 188.894 533.185ZM195.194 534.364V535.557H191.023V534.364H195.194ZM192.141 532.534H193.628V539.758C193.628 540.046 193.671 540.263 193.757 540.409C193.843 540.552 193.954 540.649 194.09 540.702C194.229 540.752 194.38 540.777 194.543 540.777C194.662 540.777 194.766 540.769 194.856 540.752C194.945 540.736 195.015 540.722 195.065 540.712L195.333 541.94C195.247 541.973 195.124 542.007 194.965 542.04C194.806 542.076 194.607 542.096 194.369 542.099C193.977 542.106 193.613 542.036 193.275 541.891C192.937 541.745 192.663 541.519 192.454 541.214C192.246 540.91 192.141 540.527 192.141 540.066V532.534ZM200.047 542.154C199.295 542.154 198.647 541.993 198.103 541.672C197.563 541.347 197.146 540.891 196.851 540.305C196.559 539.715 196.413 539.024 196.413 538.232C196.413 537.449 196.559 536.76 196.851 536.163C197.146 535.567 197.557 535.101 198.084 534.766C198.614 534.432 199.234 534.264 199.943 534.264C200.374 534.264 200.791 534.335 201.196 534.478C201.6 534.621 201.963 534.844 202.285 535.149C202.606 535.454 202.86 535.85 203.045 536.337C203.231 536.821 203.324 537.41 203.324 538.102V538.629H197.253V537.516H201.867C201.867 537.125 201.787 536.778 201.628 536.477C201.469 536.172 201.245 535.931 200.957 535.756C200.672 535.58 200.337 535.492 199.953 535.492C199.535 535.492 199.171 535.595 198.859 535.8C198.551 536.003 198.312 536.268 198.143 536.596C197.977 536.921 197.895 537.274 197.895 537.655V538.525C197.895 539.035 197.984 539.469 198.163 539.827C198.345 540.185 198.599 540.459 198.924 540.648C199.249 540.833 199.628 540.926 200.062 540.926C200.344 540.926 200.601 540.886 200.833 540.807C201.065 540.724 201.265 540.601 201.434 540.439C201.603 540.277 201.733 540.076 201.822 539.837L203.229 540.091C203.116 540.505 202.914 540.868 202.623 541.18C202.334 541.488 201.971 541.728 201.534 541.901C201.1 542.07 200.604 542.154 200.047 542.154ZM211.537 542.149C210.92 542.149 210.37 541.992 209.886 541.677C209.406 541.359 209.028 540.906 208.753 540.32C208.481 539.73 208.345 539.022 208.345 538.197C208.345 537.371 208.482 536.665 208.758 536.079C209.036 535.492 209.417 535.043 209.901 534.732C210.385 534.42 210.933 534.264 211.547 534.264C212.021 534.264 212.402 534.344 212.69 534.503C212.982 534.659 213.207 534.841 213.366 535.05C213.529 535.259 213.655 535.442 213.744 535.602H213.834V531.818H215.32V542H213.868V540.812H213.744C213.655 540.974 213.525 541.16 213.356 541.369C213.191 541.577 212.962 541.76 212.67 541.915C212.379 542.071 212.001 542.149 211.537 542.149ZM211.865 540.881C212.292 540.881 212.654 540.769 212.949 540.543C213.247 540.315 213.472 539.998 213.625 539.594C213.781 539.189 213.858 538.719 213.858 538.182C213.858 537.652 213.782 537.187 213.63 536.79C213.477 536.392 213.254 536.082 212.959 535.86C212.664 535.638 212.299 535.527 211.865 535.527C211.417 535.527 211.044 535.643 210.746 535.875C210.448 536.107 210.223 536.424 210.07 536.825C209.921 537.226 209.846 537.678 209.846 538.182C209.846 538.692 209.923 539.151 210.075 539.559C210.227 539.967 210.453 540.29 210.751 540.528C211.053 540.764 211.424 540.881 211.865 540.881ZM220.733 542.154C219.98 542.154 219.333 541.993 218.789 541.672C218.249 541.347 217.831 540.891 217.536 540.305C217.244 539.715 217.099 539.024 217.099 538.232C217.099 537.449 217.244 536.76 217.536 536.163C217.831 535.567 218.242 535.101 218.769 534.766C219.299 534.432 219.919 534.264 220.628 534.264C221.059 534.264 221.477 534.335 221.881 534.478C222.286 534.621 222.649 534.844 222.97 535.149C223.292 535.454 223.545 535.85 223.731 536.337C223.916 536.821 224.009 537.41 224.009 538.102V538.629H217.939V537.516H222.552C222.552 537.125 222.473 536.778 222.314 536.477C222.155 536.172 221.931 535.931 221.643 535.756C221.358 535.58 221.023 535.492 220.638 535.492C220.221 535.492 219.856 535.595 219.545 535.8C219.236 536.003 218.998 536.268 218.829 536.596C218.663 536.921 218.58 537.274 218.58 537.655V538.525C218.58 539.035 218.67 539.469 218.849 539.827C219.031 540.185 219.284 540.459 219.609 540.648C219.934 540.833 220.314 540.926 220.748 540.926C221.03 540.926 221.286 540.886 221.518 540.807C221.75 540.724 221.951 540.601 222.12 540.439C222.289 540.277 222.418 540.076 222.508 539.837L223.915 540.091C223.802 540.505 223.6 540.868 223.308 541.18C223.02 541.488 222.657 541.728 222.219 541.901C221.785 542.07 221.29 542.154 220.733 542.154ZM229.223 534.364V535.557H225.052V534.364H229.223ZM226.171 532.534H227.657V539.758C227.657 540.046 227.7 540.263 227.786 540.409C227.872 540.552 227.984 540.649 228.119 540.702C228.259 540.752 228.409 540.777 228.572 540.777C228.691 540.777 228.796 540.769 228.885 540.752C228.975 540.736 229.044 540.722 229.094 540.712L229.362 541.94C229.276 541.973 229.153 542.007 228.994 542.04C228.835 542.076 228.636 542.096 228.398 542.099C228.007 542.106 227.642 542.036 227.304 541.891C226.966 541.745 226.693 541.519 226.484 541.214C226.275 540.91 226.171 540.527 226.171 540.066V532.534ZM233.09 542.169C232.606 542.169 232.168 542.08 231.777 541.901C231.386 541.718 231.076 541.455 230.848 541.11C230.622 540.765 230.509 540.343 230.509 539.842C230.509 539.411 230.592 539.057 230.758 538.778C230.924 538.5 231.148 538.28 231.429 538.117C231.711 537.955 232.026 537.832 232.374 537.749C232.722 537.666 233.076 537.603 233.438 537.56C233.895 537.507 234.266 537.464 234.551 537.431C234.836 537.395 235.044 537.337 235.173 537.257C235.302 537.178 235.367 537.048 235.367 536.869V536.835C235.367 536.4 235.244 536.064 234.999 535.825C234.757 535.587 234.396 535.467 233.915 535.467C233.415 535.467 233.02 535.578 232.732 535.8C232.447 536.019 232.25 536.263 232.14 536.531L230.743 536.213C230.909 535.749 231.151 535.375 231.469 535.089C231.791 534.801 232.16 534.592 232.578 534.463C232.995 534.33 233.434 534.264 233.895 534.264C234.2 534.264 234.523 534.301 234.865 534.374C235.209 534.443 235.531 534.572 235.829 534.761C236.131 534.95 236.378 535.22 236.57 535.572C236.762 535.92 236.858 536.372 236.858 536.929V542H235.407V540.956H235.347C235.251 541.148 235.107 541.337 234.914 541.523C234.722 541.708 234.475 541.862 234.174 541.985C233.872 542.108 233.511 542.169 233.09 542.169ZM233.413 540.976C233.824 540.976 234.175 540.895 234.467 540.732C234.762 540.57 234.986 540.358 235.138 540.096C235.294 539.831 235.372 539.547 235.372 539.246V538.261C235.319 538.314 235.216 538.364 235.063 538.411C234.914 538.454 234.744 538.492 234.551 538.525C234.359 538.555 234.172 538.583 233.99 538.609C233.807 538.633 233.655 538.652 233.532 538.669C233.244 538.705 232.98 538.767 232.742 538.853C232.506 538.939 232.318 539.063 232.175 539.226C232.036 539.385 231.966 539.597 231.966 539.862C231.966 540.23 232.102 540.509 232.374 540.697C232.646 540.883 232.992 540.976 233.413 540.976ZM238.838 542V534.364H240.325V542H238.838ZM239.589 533.185C239.33 533.185 239.108 533.099 238.923 532.927C238.74 532.751 238.649 532.542 238.649 532.3C238.649 532.055 238.74 531.846 238.923 531.674C239.108 531.498 239.33 531.411 239.589 531.411C239.847 531.411 240.068 531.498 240.25 531.674C240.436 531.846 240.528 532.055 240.528 532.3C240.528 532.542 240.436 532.751 240.25 532.927C240.068 533.099 239.847 533.185 239.589 533.185ZM243.811 531.818V542H242.324V531.818H243.811ZM251.533 536.228L250.186 536.467C250.129 536.294 250.04 536.13 249.917 535.974C249.798 535.819 249.636 535.691 249.43 535.592C249.225 535.492 248.968 535.442 248.66 535.442C248.239 535.442 247.887 535.537 247.606 535.726C247.324 535.911 247.183 536.152 247.183 536.447C247.183 536.702 247.277 536.907 247.466 537.063C247.655 537.219 247.96 537.347 248.381 537.446L249.594 537.724C250.297 537.887 250.821 538.137 251.165 538.475C251.51 538.813 251.682 539.252 251.682 539.793C251.682 540.25 251.55 540.658 251.285 541.016C251.023 541.37 250.656 541.649 250.186 541.851C249.718 542.053 249.177 542.154 248.56 542.154C247.705 542.154 247.007 541.972 246.467 541.607C245.927 541.239 245.595 540.717 245.473 540.041L246.91 539.822C246.999 540.197 247.183 540.48 247.461 540.673C247.74 540.862 248.103 540.956 248.55 540.956C249.037 540.956 249.427 540.855 249.718 540.653C250.01 540.447 250.156 540.197 250.156 539.902C250.156 539.663 250.066 539.463 249.888 539.3C249.712 539.138 249.442 539.015 249.077 538.933L247.785 538.649C247.072 538.487 246.545 538.228 246.204 537.874C245.866 537.519 245.696 537.07 245.696 536.526C245.696 536.076 245.822 535.681 246.074 535.343C246.326 535.005 246.674 534.741 247.118 534.553C247.562 534.36 248.071 534.264 248.645 534.264C249.47 534.264 250.12 534.443 250.593 534.801C251.067 535.156 251.381 535.631 251.533 536.228ZM262.744 536.228L261.397 536.467C261.34 536.294 261.251 536.13 261.128 535.974C261.009 535.819 260.847 535.691 260.641 535.592C260.436 535.492 260.179 535.442 259.87 535.442C259.45 535.442 259.098 535.537 258.816 535.726C258.535 535.911 258.394 536.152 258.394 536.447C258.394 536.702 258.488 536.907 258.677 537.063C258.866 537.219 259.171 537.347 259.592 537.446L260.805 537.724C261.508 537.887 262.031 538.137 262.376 538.475C262.721 538.813 262.893 539.252 262.893 539.793C262.893 540.25 262.761 540.658 262.495 541.016C262.234 541.37 261.867 541.649 261.397 541.851C260.929 542.053 260.388 542.154 259.771 542.154C258.916 542.154 258.218 541.972 257.678 541.607C257.138 541.239 256.806 540.717 256.684 540.041L258.12 539.822C258.21 540.197 258.394 540.48 258.672 540.673C258.951 540.862 259.314 540.956 259.761 540.956C260.248 540.956 260.638 540.855 260.929 540.653C261.221 540.447 261.367 540.197 261.367 539.902C261.367 539.663 261.277 539.463 261.098 539.3C260.923 539.138 260.653 539.015 260.288 538.933L258.995 538.649C258.283 538.487 257.756 538.228 257.415 537.874C257.076 537.519 256.907 537.07 256.907 536.526C256.907 536.076 257.033 535.681 257.285 535.343C257.537 535.005 257.885 534.741 258.329 534.553C258.773 534.36 259.282 534.264 259.856 534.264C260.681 534.264 261.33 534.443 261.804 534.801C262.278 535.156 262.592 535.631 262.744 536.228ZM267.744 542.154C267.028 542.154 266.404 541.99 265.87 541.662C265.336 541.334 264.922 540.875 264.627 540.285C264.332 539.695 264.185 539.005 264.185 538.217C264.185 537.424 264.332 536.732 264.627 536.138C264.922 535.545 265.336 535.085 265.87 534.756C266.404 534.428 267.028 534.264 267.744 534.264C268.46 534.264 269.085 534.428 269.619 534.756C270.152 535.085 270.566 535.545 270.861 536.138C271.156 536.732 271.304 537.424 271.304 538.217C271.304 539.005 271.156 539.695 270.861 540.285C270.566 540.875 270.152 541.334 269.619 541.662C269.085 541.99 268.46 542.154 267.744 542.154ZM267.749 540.906C268.213 540.906 268.598 540.784 268.903 540.538C269.208 540.293 269.433 539.967 269.579 539.559C269.728 539.151 269.802 538.702 269.802 538.212C269.802 537.724 269.728 537.277 269.579 536.869C269.433 536.458 269.208 536.129 268.903 535.88C268.598 535.631 268.213 535.507 267.749 535.507C267.282 535.507 266.894 535.631 266.586 535.88C266.281 536.129 266.054 536.458 265.905 536.869C265.759 537.277 265.686 537.724 265.686 538.212C265.686 538.702 265.759 539.151 265.905 539.559C266.054 539.967 266.281 540.293 266.586 540.538C266.894 540.784 267.282 540.906 267.749 540.906ZM276.18 542.154C275.464 542.154 274.839 541.99 274.305 541.662C273.772 541.334 273.358 540.875 273.063 540.285C272.768 539.695 272.62 539.005 272.62 538.217C272.62 537.424 272.768 536.732 273.063 536.138C273.358 535.545 273.772 535.085 274.305 534.756C274.839 534.428 275.464 534.264 276.18 534.264C276.896 534.264 277.52 534.428 278.054 534.756C278.588 535.085 279.002 535.545 279.297 536.138C279.592 536.732 279.739 537.424 279.739 538.217C279.739 539.005 279.592 539.695 279.297 540.285C279.002 540.875 278.588 541.334 278.054 541.662C277.52 541.99 276.896 542.154 276.18 542.154ZM276.185 540.906C276.649 540.906 277.033 540.784 277.338 540.538C277.643 540.293 277.868 539.967 278.014 539.559C278.163 539.151 278.238 538.702 278.238 538.212C278.238 537.724 278.163 537.277 278.014 536.869C277.868 536.458 277.643 536.129 277.338 535.88C277.033 535.631 276.649 535.507 276.185 535.507C275.717 535.507 275.33 535.631 275.021 535.88C274.716 536.129 274.489 536.458 274.34 536.869C274.194 537.277 274.122 537.724 274.122 538.212C274.122 538.702 274.194 539.151 274.34 539.559C274.489 539.967 274.716 540.293 275.021 540.538C275.33 540.784 275.717 540.906 276.185 540.906ZM282.885 537.466V542H281.399V534.364H282.826V535.607H282.92C283.096 535.202 283.371 534.877 283.745 534.632C284.123 534.387 284.599 534.264 285.172 534.264C285.693 534.264 286.148 534.374 286.539 534.592C286.93 534.808 287.234 535.129 287.449 535.557C287.665 535.984 287.772 536.513 287.772 537.143V542H286.286V537.322C286.286 536.768 286.142 536.336 285.853 536.024C285.565 535.709 285.169 535.552 284.665 535.552C284.32 535.552 284.014 535.626 283.745 535.776C283.48 535.925 283.27 536.143 283.114 536.432C282.961 536.717 282.885 537.062 282.885 537.466ZM290.745 542.094C290.474 542.094 290.24 541.998 290.044 541.806C289.849 541.611 289.751 541.375 289.751 541.1C289.751 540.828 289.849 540.596 290.044 540.404C290.24 540.209 290.474 540.111 290.745 540.111C291.017 540.111 291.251 540.209 291.446 540.404C291.642 540.596 291.74 540.828 291.74 541.1C291.74 541.282 291.693 541.45 291.6 541.602C291.511 541.751 291.392 541.871 291.242 541.96C291.093 542.05 290.928 542.094 290.745 542.094Z" fill="#242424"/>
</g>
<defs>
<linearGradient id="paint0_linear_2136_12165" x1="176.5" y1="0" x2="176.5" y2="567" gradientUnits="userSpaceOnUse">
<stop stop-color="white" stop-opacity="0"/>
<stop offset="1" stop-color="white"/>
</linearGradient>
<clipPath id="clip0_2136_12165">
<rect width="353" height="567" rx="24" fill="white"/>
</clipPath>
</defs>
</svg>
