<svg width="331" height="331" viewBox="0 0 331 331" fill="none" xmlns="http://www.w3.org/2000/svg">
<g clip-path="url(#clip0_2855_46317)">
<path d="M331 165.5C331 256.903 256.903 331 165.5 331C74.0969 331 0 256.903 0 165.5C0 74.0969 74.0969 0 165.5 0C256.903 0 331 74.0969 331 165.5Z" fill="#6CC163" fill-opacity="0.3"/>
<path d="M331 165.5C331 256.903 256.903 331 165.5 331C74.0969 331 0 256.903 0 165.5C0 74.0969 74.0969 0 165.5 0C256.903 0 331 74.0969 331 165.5Z" fill="url(#paint0_linear_2855_46317)" fill-opacity="0.5" style="mix-blend-mode:overlay"/>
<path d="M214.588 189.382L213.061 191.541C212.855 191.83 212.398 192.06 212.06 191.953L209.407 191.118C208.65 190.88 208.03 191.749 208.503 192.387L210.158 194.622C210.369 194.907 210.373 195.296 210.167 195.585L208.552 197.85C208.092 198.496 208.727 199.354 209.479 199.102L212.117 198.219C212.453 198.106 212.824 198.223 213.035 198.508L214.691 200.743C215.163 201.381 216.175 201.042 216.168 200.248L216.143 197.467C216.14 197.112 216.365 196.795 216.702 196.683L219.339 195.799C220.092 195.547 220.082 194.48 219.325 194.241L216.672 193.406C216.334 193.299 216.102 192.987 216.099 192.632L216.074 189.85C216.067 189.057 215.049 188.736 214.588 189.382L214.588 189.382Z" fill="#FFA708"/>
<path d="M90.3884 133.933L88.8623 136.092C88.6562 136.38 88.1993 136.611 87.8609 136.504L85.2077 135.669C84.4509 135.43 83.8311 136.3 84.3033 136.937L85.9586 139.173C86.1698 139.458 86.1733 139.847 85.9674 140.136L84.3529 142.401C83.8923 143.047 84.5277 143.905 85.28 143.653L87.9176 142.769C88.2541 142.657 88.625 142.773 88.8362 143.059L90.4915 145.294C90.9636 145.932 91.976 145.593 91.9689 144.799L91.9437 142.018C91.9406 141.663 92.1662 141.346 92.5026 141.233L95.1402 140.35C95.8927 140.098 95.883 139.03 95.1261 138.792L92.473 137.956C92.1346 137.85 91.9032 137.537 91.9 137.182L91.8749 134.401C91.8678 133.608 90.8493 133.287 90.3887 133.933H90.3884Z" fill="#FFA708"/>
<path d="M101.735 153.248L100.771 154.611C100.641 154.794 100.352 154.939 100.138 154.872L98.4618 154.344C97.9837 154.193 97.5921 154.743 97.8905 155.146L98.9363 156.558C99.0697 156.738 99.072 156.984 98.9418 157.166L97.9218 158.597C97.6308 159.005 98.0322 159.547 98.5075 159.388L100.174 158.83C100.386 158.759 100.621 158.833 100.754 159.013L101.8 160.425C102.098 160.828 102.738 160.614 102.733 160.112L102.717 158.355C102.715 158.131 102.858 157.931 103.07 157.86L104.737 157.302C105.212 157.142 105.206 156.468 104.728 156.317L103.052 155.789C102.838 155.722 102.692 155.524 102.69 155.3L102.674 153.543C102.669 153.042 102.026 152.839 101.735 153.247L101.735 153.248Z" fill="#FFA708"/>
<path d="M210.762 99.5836L209.798 100.947C209.668 101.13 209.379 101.275 209.165 101.208L207.489 100.68C207.011 100.529 206.619 101.079 206.918 101.481L207.964 102.894C208.097 103.074 208.099 103.319 207.969 103.502L206.949 104.933C206.658 105.341 207.06 105.883 207.535 105.724L209.201 105.166C209.414 105.095 209.648 105.168 209.781 105.348L210.827 106.761C211.125 107.163 211.765 106.949 211.761 106.448L211.745 104.691C211.743 104.466 211.885 104.267 212.098 104.195L213.764 103.637C214.239 103.478 214.233 102.804 213.755 102.653L212.079 102.125C211.865 102.058 211.719 101.86 211.717 101.636L211.701 99.879C211.697 99.3777 211.053 99.1751 210.762 99.5832V99.5836Z" fill="#FFA708"/>
<path d="M280.352 153.248L279.388 154.611C279.258 154.794 278.969 154.939 278.755 154.872L277.079 154.344C276.601 154.193 276.209 154.743 276.508 155.146L277.553 156.558C277.687 156.738 277.689 156.984 277.559 157.166L276.539 158.597C276.248 159.005 276.649 159.547 277.125 159.388L278.791 158.83C279.003 158.759 279.238 158.833 279.371 159.013L280.417 160.425C280.715 160.828 281.355 160.614 281.35 160.112L281.335 158.355C281.333 158.131 281.475 157.931 281.688 157.86L283.354 157.302C283.829 157.142 283.823 156.468 283.345 156.317L281.669 155.789C281.455 155.722 281.309 155.524 281.307 155.3L281.291 153.543C281.287 153.042 280.643 152.839 280.352 153.247V153.248Z" fill="#FFA708"/>
<path d="M220.192 142.043L219.228 143.406C219.098 143.589 218.809 143.734 218.595 143.667L216.919 143.139C216.441 142.988 216.049 143.538 216.348 143.94L217.393 145.353C217.527 145.533 217.529 145.778 217.399 145.961L216.379 147.392C216.088 147.8 216.489 148.342 216.965 148.183L218.631 147.625C218.843 147.554 219.078 147.627 219.211 147.808L220.257 149.22C220.555 149.623 221.195 149.408 221.19 148.907L221.174 147.15C221.172 146.926 221.315 146.726 221.528 146.655L223.194 146.096C223.669 145.937 223.663 145.263 223.185 145.112L221.509 144.584C221.295 144.517 221.149 144.319 221.147 144.095L221.131 142.338C221.126 141.837 220.483 141.634 220.192 142.042V142.043Z" fill="#FFA708"/>
<path d="M132.451 58.3723L130.925 60.5308C130.719 60.8197 130.262 61.0499 129.923 60.9434L127.27 60.1077C126.513 59.8694 125.893 60.7388 126.366 61.3765L128.021 63.6119C128.232 63.897 128.236 64.2858 128.03 64.5748L126.415 66.8398C125.955 67.4859 126.59 68.344 127.343 68.092L129.98 67.2085C130.317 67.0958 130.688 67.2127 130.899 67.4978L132.554 69.7332C133.026 70.3709 134.039 70.0318 134.031 69.2384L134.006 66.457C134.003 66.1022 134.229 65.7856 134.565 65.6728L137.203 64.7894C137.955 64.5373 137.946 63.4697 137.189 63.2314L134.536 62.3958C134.197 62.2892 133.966 61.9767 133.963 61.6219L133.937 58.8405C133.93 58.0471 132.912 57.7264 132.451 58.3725L132.451 58.3723Z" fill="#FFA708"/>
<path d="M183.263 229.441L181.737 231.599C181.531 231.888 181.074 232.119 180.736 232.012L178.083 231.176C177.326 230.938 176.706 231.807 177.178 232.445L178.834 234.681C179.045 234.966 179.048 235.354 178.842 235.643L177.228 237.908C176.767 238.555 177.403 239.413 178.155 239.161L180.793 238.277C181.129 238.165 181.5 238.281 181.711 238.567L183.367 240.802C183.839 241.44 184.851 241.1 184.844 240.307L184.819 237.526C184.816 237.171 185.041 236.854 185.378 236.741L188.015 235.858C188.768 235.606 188.758 234.538 188.001 234.3L185.348 233.464C185.01 233.358 184.778 233.045 184.775 232.69L184.75 229.909C184.743 229.115 183.724 228.795 183.264 229.441L183.263 229.441Z" fill="#FFA708"/>
<path d="M231.374 123.847C228.676 123.847 226.489 121.66 226.489 118.962C226.489 116.265 228.676 114.078 231.374 114.078C234.071 114.078 236.258 116.265 236.258 118.962C236.258 121.66 234.071 123.847 231.374 123.847Z" fill="#1FA78E"/>
<path d="M85.0376 170.142C82.3402 170.142 80.1534 167.955 80.1534 165.257C80.1534 162.56 82.3402 160.373 85.0376 160.373C87.7351 160.373 89.9219 162.56 89.9219 165.257C89.9219 167.955 87.7351 170.142 85.0376 170.142Z" fill="#1FA78E"/>
<path d="M189.823 83.7372C187.125 83.7372 184.939 81.5505 184.939 78.853C184.939 76.1555 187.125 73.9688 189.823 73.9688C192.52 73.9688 194.707 76.1555 194.707 78.853C194.707 81.5505 192.52 83.7372 189.823 83.7372Z" fill="#1FA78E"/>
<path d="M159.7 136.652C158.008 136.652 156.635 135.28 156.635 133.587C156.635 131.894 158.008 130.521 159.7 130.521C161.393 130.521 162.766 131.894 162.766 133.587C162.766 135.28 161.393 136.652 159.7 136.652Z" fill="#4754A6"/>
<path d="M175.648 174.196C174.132 173.441 173.516 171.601 174.271 170.086C175.026 168.571 176.866 167.954 178.381 168.709C179.897 169.464 180.513 171.304 179.758 172.82C179.003 174.335 177.163 174.951 175.648 174.196Z" fill="#4754A6"/>
<path d="M233.193 223.445C231.5 223.445 230.127 222.073 230.127 220.38C230.127 218.687 231.5 217.314 233.193 217.314C234.885 217.314 236.258 218.687 236.258 220.38C236.258 222.073 234.885 223.445 233.193 223.445Z" fill="#4754A6"/>
<path d="M228.329 84.2441L235.242 90.4593L227.505 93.5039L228.329 84.2441Z" fill="#E04949"/>
<path d="M234.227 191.047L241.141 197.262L233.403 200.307L234.227 191.047Z" fill="#E04949"/>
<path d="M125.5 88.668L127.934 97.6401L119.782 95.9983L125.5 88.668Z" fill="#E04949"/>
<path d="M186.778 111.447L193.691 117.662L185.954 120.707L186.778 111.447Z" fill="#E04949"/>
<path d="M255.653 134.977L262.566 141.192L254.829 144.236L255.653 134.977Z" fill="#4E71CA"/>
<path d="M183.73 219.725C179.584 215.045 170.902 205.621 161.162 195.098L161.161 195.097C157.537 191.18 153.768 187.112 150.032 183.08C140.886 173.21 131.942 163.551 125.829 156.861C120.575 152.99 116.96 151.126 115.965 152.039C115.878 152.22 115.792 152.401 115.706 152.583C114.188 155.773 112.676 159.038 111.168 162.364L111.167 162.365C106.538 172.568 101.935 183.349 97.2807 194.375L97.2794 194.376C95.8707 197.717 94.457 201.077 93.0358 204.453L93.0346 204.454C90.2357 211.1 87.4121 217.795 84.5437 224.473C83.0259 228.002 81.498 231.527 79.9565 235.035C75.931 244.182 71.8091 253.222 67.5419 261.971C67.4588 262.143 67.3744 262.317 67.2901 262.488C72.6535 260.847 78.2489 259.027 84.0091 257.074C86.5922 256.197 89.2088 255.294 91.8515 254.368C97.7915 252.287 103.864 250.091 109.997 247.828C112.557 246.884 115.127 245.926 117.702 244.963C121.932 243.377 126.179 241.77 130.416 240.156C132.995 239.172 135.571 238.186 138.137 237.2C144.097 234.913 150.006 232.63 155.8 230.396C158.543 229.337 161.261 228.287 163.947 227.256C170.413 224.768 176.688 222.367 182.671 220.122C183.025 219.989 183.378 219.856 183.73 219.725L183.73 219.725Z" fill="#4E71CA"/>
<path d="M91.8516 254.368C91.7139 253.03 91.5601 251.693 91.3903 250.355C90.9984 247.299 90.511 244.247 89.8823 241.213C88.6087 235.078 86.8242 229.482 84.5437 224.473C83.0258 228.002 81.498 231.526 79.9566 235.035C80.7404 237.51 81.415 240.117 81.9816 242.851C82.7492 246.55 83.2962 250.331 83.7128 254.138C83.8194 255.116 83.9173 256.094 84.0092 257.074C86.5923 256.197 89.2089 255.294 91.8516 254.368Z" fill="#FBEACC"/>
<path d="M117.703 244.962C117.289 242.589 116.738 240.148 116.056 237.648C114.835 233.168 113.19 228.498 111.135 223.682C108.893 218.429 106.342 213.262 103.875 208.264C101.547 203.553 99.2899 198.982 97.2798 194.375C95.871 197.716 94.4573 201.076 93.0362 204.452L93.035 204.453C94.2243 206.942 95.4384 209.401 96.6399 211.835C99.0594 216.735 101.561 221.801 103.715 226.849C105.901 231.972 107.58 236.885 108.732 241.53C109.269 243.689 109.691 245.789 109.997 247.827C112.558 246.883 115.127 245.926 117.703 244.962L117.703 244.962Z" fill="#FBEACC"/>
<path d="M138.137 237.2C137.592 233.528 136.997 229.865 136.352 226.212C131.894 200.92 125.078 176.103 115.966 152.035C114.36 155.4 112.763 158.847 111.168 162.364L111.167 162.365C119.066 184.546 125 207.342 128.912 230.537C129.452 233.737 129.953 236.944 130.416 240.157C132.995 239.172 135.571 238.186 138.137 237.2V237.2Z" fill="#FBEACC"/>
<path d="M163.948 227.256C164.103 216.476 163.168 205.69 161.163 195.098L161.162 195.097C157.538 191.18 153.77 187.112 150.033 183.08C154.426 198.437 156.371 214.446 155.801 230.396C158.544 229.337 161.262 228.288 163.948 227.256Z" fill="#FBEACC"/>
<path d="M184.628 219.443C188.807 215.265 177.005 196.691 158.271 177.957C147.503 167.189 136.788 158.712 128.83 154.242C122.988 150.959 118.631 149.838 116.827 151.56C116.812 151.573 116.798 151.586 116.785 151.6C116.548 151.836 116.363 152.118 116.227 152.445C113.964 157.88 125.468 175.412 143.142 193.086C159.994 209.939 176.717 221.183 182.949 220.227C183.645 220.121 184.208 219.863 184.628 219.443Z" fill="#304A8E"/>
<path d="M136.397 156.834C136.628 155.383 136.831 153.93 137.03 152.473C137.212 151.015 137.384 149.554 137.508 148.084C137.64 146.614 137.726 145.138 137.75 143.654C137.776 142.913 137.753 142.169 137.748 141.425L137.702 140.308C137.691 139.935 137.664 139.563 137.634 139.19C137.534 137.698 137.325 136.208 137.043 134.726L136.815 133.616L136.533 132.517C136.35 131.782 136.111 131.048 135.855 130.329C135.601 129.607 135.304 128.9 134.987 128.202C134.665 127.506 134.31 126.825 133.933 126.155C133.167 124.823 132.3 123.539 131.297 122.355C131.053 122.054 130.787 121.77 130.529 121.479C130.259 121.199 129.996 120.912 129.713 120.643C129.159 120.094 128.568 119.577 127.953 119.088C126.722 118.11 125.362 117.272 123.908 116.607C123.181 116.273 122.425 115.998 121.656 115.759C120.884 115.527 120.092 115.358 119.293 115.232C117.695 114.998 116.02 114.981 114.348 115.324C113.513 115.501 112.676 115.77 111.878 116.164C111.079 116.556 110.324 117.081 109.661 117.713C108.336 118.987 107.478 120.658 107.086 122.347C106.685 124.044 106.699 125.773 107.01 127.43C107.17 128.258 107.4 129.073 107.718 129.86C107.871 130.255 108.057 130.64 108.25 131.02C108.454 131.4 108.662 131.764 108.897 132.115C109.36 132.821 109.9 133.487 110.522 134.096C111.141 134.706 111.852 135.254 112.654 135.696C114.236 136.595 116.291 136.935 118.102 136.517C119.007 136.317 119.856 135.975 120.633 135.539C121.404 135.094 122.098 134.553 122.723 133.95C123.354 133.35 123.884 132.66 124.35 131.929C124.46 131.742 124.583 131.563 124.681 131.368L124.977 130.786C125.148 130.385 125.325 129.972 125.443 129.574C125.973 127.965 126.135 126.293 126.094 124.685C126.065 123.881 125.991 123.087 125.872 122.309C125.754 121.53 125.59 120.769 125.407 120.019C125.221 119.269 125.016 118.531 124.773 117.812L124.033 115.661C123.753 114.956 123.453 114.261 123.163 113.562L122.943 113.039L122.694 112.529L122.195 111.511C122.025 111.173 121.869 110.83 121.689 110.498L121.129 109.514L120.567 108.532L120.426 108.286C120.378 108.206 120.324 108.128 120.273 108.049L119.965 107.575L119.348 106.628C119.141 106.314 118.945 105.993 118.714 105.695L117.371 103.883C115.504 101.527 113.418 99.3603 111.156 97.4107L110.297 96.6927C110.01 96.4544 109.73 96.2093 109.424 95.9935L107.63 94.6627L105.762 93.4426C105.605 93.343 105.453 93.2364 105.293 93.1429L104.808 92.8677L103.838 92.3212L103.354 92.0486C103.193 91.9583 103.034 91.8638 102.865 91.7865L101.866 91.2989L100.87 90.813C100.706 90.7284 100.536 90.6571 100.364 90.5874L99.852 90.3758L98.8266 89.9597L98.3151 89.7521C98.1459 89.6803 97.9668 89.6308 97.7934 89.5693C97.0955 89.3324 96.3974 89.1016 95.7005 88.875C96.3631 89.1952 97.0245 89.5112 97.686 89.8212C97.8498 89.9019 98.0191 89.9706 98.1784 90.0613L98.6595 90.3254L99.6194 90.8526L100.1 91.1126C100.261 91.1975 100.421 91.2838 100.574 91.3835L101.503 91.9581L102.43 92.5312C102.586 92.6226 102.733 92.731 102.882 92.8351L103.327 93.1485L104.217 93.7743L104.662 94.0851C104.81 94.1894 104.949 94.3067 105.092 94.4168L106.798 95.7562L108.428 97.1823C108.705 97.4123 108.957 97.6708 109.215 97.9224L109.987 98.6779C112.024 100.711 113.873 102.916 115.518 105.254C117.14 107.61 118.539 110.105 119.703 112.694L120.131 113.669L120.345 114.156L120.53 114.655C120.772 115.321 121.026 115.982 121.26 116.65L121.879 118.679C122.084 119.355 122.248 120.037 122.393 120.715C122.683 122.071 122.855 123.426 122.872 124.747C122.872 126.064 122.707 127.349 122.288 128.519C122.192 128.822 122.065 129.078 121.947 129.35L121.738 129.743C121.671 129.875 121.58 129.996 121.504 130.124C121.174 130.621 120.802 131.1 120.361 131.503C119.925 131.909 119.451 132.267 118.947 132.549C118.441 132.82 117.914 133.018 117.387 133.128C116.86 133.248 116.337 133.246 115.831 133.166C115.705 133.146 115.577 133.133 115.451 133.093C115.324 133.065 115.2 133.021 115.074 132.978C114.949 132.938 114.827 132.878 114.703 132.83C114.582 132.765 114.456 132.717 114.338 132.643C113.857 132.374 113.395 132.023 112.974 131.601C112.55 131.184 112.163 130.704 111.823 130.184C111.648 129.928 111.493 129.655 111.348 129.391C111.209 129.118 111.073 128.843 110.961 128.555C110.725 127.985 110.554 127.383 110.432 126.774C110.312 126.164 110.257 125.544 110.255 124.93C110.262 124.317 110.324 123.709 110.455 123.129C110.708 121.964 111.248 120.925 112.028 120.148C112.421 119.766 112.875 119.433 113.388 119.172C113.902 118.913 114.463 118.707 115.058 118.566C116.254 118.291 117.553 118.258 118.857 118.419C119.507 118.507 120.154 118.628 120.792 118.795C121.428 118.972 122.06 119.175 122.674 119.434C123.904 119.946 125.078 120.622 126.175 121.423C126.724 121.823 127.258 122.25 127.764 122.712C128.023 122.936 128.265 123.181 128.514 123.418C128.752 123.666 129 123.906 129.228 124.165C130.16 125.183 131.006 126.291 131.761 127.463C132.508 128.64 133.165 129.88 133.717 131.168C133.992 131.814 134.248 132.462 134.46 133.138L134.786 134.151L135.07 135.179C135.115 135.351 135.169 135.521 135.208 135.694L135.328 136.216C135.404 136.564 135.497 136.91 135.56 137.262L135.759 138.317C135.827 138.669 135.869 139.026 135.928 139.381C135.985 139.736 136.04 140.091 136.078 140.45L136.206 141.524C136.268 142.243 136.343 142.963 136.383 143.687C136.487 145.133 136.518 146.588 136.541 148.047C136.564 149.507 136.533 150.97 136.503 152.434C136.481 153.9 136.425 155.366 136.396 156.835L136.397 156.834Z" fill="#FFA708"/>
<path d="M144.843 187.16C145.481 185.792 146.092 184.413 146.727 183.045C147.037 182.358 147.345 181.671 147.662 180.988C147.978 180.304 148.284 179.616 148.607 178.937C149.876 176.207 151.181 173.501 152.558 170.842C153.924 168.178 155.393 165.575 156.971 163.057L157.562 162.113C157.659 161.955 157.761 161.8 157.867 161.647L158.177 161.186L158.797 160.263C159.007 159.958 159.201 159.642 159.425 159.347L160.732 157.557C160.945 157.255 161.189 156.977 161.414 156.685L162.1 155.819C162.545 155.231 163.04 154.686 163.521 154.131L164.244 153.3C164.361 153.159 164.49 153.028 164.618 152.896L164.999 152.501L165.76 151.708C166.015 151.445 166.258 151.17 166.531 150.926L168.128 149.424C168.262 149.294 168.391 149.184 168.521 149.071C168.654 148.961 168.784 148.848 168.92 148.742C169.188 148.525 169.464 148.32 169.744 148.122C170.305 147.727 170.885 147.371 171.476 147.065C172.652 146.459 173.909 146.069 174.99 146.119C175.528 146.145 176.011 146.267 176.443 146.497C176.655 146.612 176.875 146.751 177.054 146.914C177.237 147.077 177.413 147.253 177.565 147.468C178.19 148.304 178.544 149.538 178.649 150.819C178.869 153.447 178.263 156.186 176.929 158.478C176.766 158.767 176.587 159.044 176.405 159.321L176.119 159.725C176.023 159.856 175.924 159.976 175.827 160.102C175.427 160.593 174.974 161.04 174.491 161.422C173.525 162.189 172.422 162.663 171.438 162.664C171.314 162.665 171.194 162.65 171.071 162.649C170.952 162.624 170.83 162.612 170.712 162.587C170.6 162.549 170.482 162.531 170.371 162.486L170.204 162.419L170.12 162.387L170.039 162.344C169.605 162.126 169.197 161.793 168.847 161.372C168.144 160.531 167.697 159.353 167.628 158.206C167.627 158.061 167.613 157.924 167.619 157.772C167.628 157.619 167.622 157.467 167.642 157.313C167.668 157.006 167.708 156.697 167.774 156.388C167.899 155.769 168.097 155.147 168.351 154.531C168.863 153.3 169.583 152.091 170.408 150.914C171.231 149.732 172.14 148.609 173.103 147.53C174.06 146.446 175.103 145.436 176.193 144.477C180.559 140.644 185.827 137.779 191.492 136.132C192.905 135.704 194.35 135.386 195.807 135.122C196.535 134.982 197.27 134.888 198.006 134.786C198.744 134.712 199.483 134.624 200.226 134.582C201.711 134.488 203.207 134.459 204.702 134.548C206.198 134.617 207.692 134.789 209.184 135.024C207.738 134.59 206.255 134.269 204.756 134.02L203.627 133.86L202.492 133.745C202.113 133.7 201.732 133.69 201.352 133.661L200.781 133.625L200.209 133.61C199.827 133.604 199.445 133.58 199.063 133.59L197.916 133.608C197.152 133.648 196.386 133.681 195.623 133.76C194.097 133.908 192.573 134.131 191.07 134.46C185.048 135.745 179.29 138.456 174.42 142.365C173.207 143.346 172.037 144.389 170.952 145.52C169.866 146.649 168.842 147.843 167.9 149.103C166.958 150.362 166.066 151.722 165.388 153.261C164.713 154.8 164.249 156.511 164.304 158.364C164.338 159.295 164.52 160.207 164.839 161.075C165.157 161.942 165.607 162.772 166.209 163.519C166.809 164.265 167.57 164.929 168.476 165.4L168.645 165.489L168.821 165.565L169.177 165.713C169.415 165.808 169.668 165.869 169.915 165.942C170.164 166.001 170.416 166.039 170.667 166.081C170.92 166.1 171.175 166.126 171.428 166.128C172.443 166.133 173.418 165.904 174.289 165.548C175.163 165.191 175.944 164.711 176.645 164.164C177.346 163.615 177.972 162.999 178.528 162.325C178.662 162.155 178.803 161.983 178.93 161.811L179.299 161.296C179.533 160.944 179.765 160.591 179.97 160.222C180.388 159.49 180.749 158.727 181.053 157.943C181.353 157.157 181.593 156.35 181.774 155.529C182.14 153.888 182.248 152.192 182.093 150.503C182.009 149.647 181.846 148.783 181.564 147.922C181.281 147.065 180.873 146.203 180.273 145.418C179.98 145.024 179.623 144.66 179.237 144.332C178.848 143.999 178.427 143.734 177.973 143.5C177.067 143.031 176.041 142.819 175.077 142.801C174.594 142.795 174.121 142.833 173.664 142.903C173.209 142.977 172.77 143.084 172.344 143.212C171.496 143.473 170.711 143.824 169.97 144.223C169.232 144.627 168.537 145.078 167.882 145.574C167.555 145.821 167.235 146.076 166.925 146.343C166.769 146.475 166.618 146.612 166.466 146.748C166.316 146.887 166.163 147.027 166.031 147.163C163.783 149.308 161.769 151.67 159.926 154.137C158.077 156.602 156.463 159.22 154.992 161.895C154.625 162.565 154.251 163.231 153.915 163.915C153.573 164.596 153.218 165.271 152.891 165.958L151.926 168.025C151.608 168.714 151.312 169.413 151.009 170.109C149.819 172.9 148.714 175.719 147.713 178.57C147.456 179.281 147.216 179.997 146.967 180.709C146.719 181.422 146.473 182.136 146.236 182.852C145.765 184.287 145.293 185.719 144.843 187.16H144.843Z" fill="#E04949"/>
<path d="M165.603 199.04C167.124 198.677 168.621 198.224 170.129 197.843C171.632 197.451 173.144 197.1 174.657 196.933C176.163 196.776 177.688 196.786 179.038 197.229C180.356 197.667 181.615 198.551 182.019 199.679L182.096 199.897C182.118 199.971 182.133 200.05 182.153 200.125L182.182 200.239L182.2 200.358L182.238 200.596C182.265 200.924 182.284 201.256 182.256 201.604C182.219 202.296 182.079 203.016 181.908 203.742C181.563 205.199 181.083 206.685 180.718 208.271C180.539 209.066 180.383 209.888 180.322 210.755C180.306 210.971 180.303 211.193 180.295 211.412C180.302 211.637 180.296 211.858 180.316 212.087C180.335 212.315 180.35 212.542 180.392 212.773C180.411 212.887 180.425 213.007 180.449 213.116L180.523 213.44C180.913 215.171 181.749 216.777 182.878 218.127C183.439 218.808 184.088 219.414 184.793 219.951C185.499 220.485 186.264 220.953 187.087 221.314C187.908 221.674 188.791 221.934 189.657 222.087C190.529 222.242 191.401 222.303 192.253 222.303C193.96 222.299 195.586 222.071 197.141 221.824C198.696 221.579 200.194 221.32 201.632 221.221C203.068 221.124 204.434 221.191 205.656 221.564L205.885 221.634C205.961 221.658 206.034 221.69 206.108 221.717L206.331 221.799L206.544 221.899C206.685 221.969 206.831 222.024 206.968 222.102L207.376 222.338C207.908 222.678 208.41 223.078 208.866 223.541C209.314 224.015 209.73 224.533 210.1 225.094C210.46 225.664 210.781 226.267 211.057 226.898C211.322 227.534 211.551 228.189 211.73 228.862C211.899 229.538 212.035 230.218 212.116 230.918C212.287 232.309 212.271 233.713 212.019 235.034C211.77 236.352 211.27 237.596 210.532 238.607C209.814 239.598 208.778 240.415 207.64 240.885C206.502 241.36 205.273 241.465 204.201 241.138C203.216 240.855 202.289 240.015 201.778 238.977C201.519 238.461 201.369 237.902 201.337 237.369C201.307 236.833 201.404 236.33 201.624 235.893L201.713 235.731L201.828 235.568L201.94 235.402C201.976 235.344 202.029 235.303 202.071 235.251C202.161 235.153 202.242 235.046 202.353 234.965C202.457 234.879 202.549 234.779 202.673 234.708C203.125 234.384 203.687 234.144 204.307 233.977C204.927 233.809 205.608 233.724 206.305 233.698C207.004 233.672 207.721 233.702 208.442 233.775C208.804 233.811 209.163 233.861 209.528 233.917L210.65 234.116C211.024 234.184 211.4 234.242 211.773 234.317L212.888 234.562C213.259 234.647 213.634 234.717 214.002 234.814L215.106 235.106L215.659 235.252C215.844 235.3 216.029 235.348 216.21 235.407L217.304 235.74C220.218 236.649 223.068 237.796 225.813 239.172C228.562 240.543 231.203 242.147 233.719 243.947C233.88 244.055 234.036 244.169 234.188 244.287L234.651 244.637L235.578 245.338C236.187 245.817 236.776 246.321 237.379 246.811C237.969 247.316 238.546 247.837 239.131 248.352L240.824 249.966C240.33 249.363 239.835 248.757 239.328 248.161C238.8 247.584 238.279 246.998 237.743 246.425C237.187 245.873 236.638 245.311 236.069 244.769L235.2 243.972L234.765 243.574C234.621 243.439 234.474 243.309 234.322 243.184C231.944 241.118 229.363 239.276 226.639 237.66C223.911 236.049 221.036 234.671 218.052 233.56L216.93 233.147C216.558 233.003 216.173 232.899 215.795 232.774L214.654 232.413C214.274 232.293 213.886 232.2 213.501 232.092L212.345 231.779C211.958 231.681 211.567 231.6 211.178 231.51L210.007 231.249C209.605 231.17 209.194 231.096 208.782 231.039C207.956 230.922 207.115 230.85 206.254 230.848C205.395 230.846 204.513 230.913 203.618 231.115C202.726 231.316 201.814 231.656 200.976 232.21C200.761 232.335 200.567 232.504 200.37 232.663C200.166 232.815 199.992 233.005 199.814 233.19C199.728 233.284 199.632 233.372 199.556 233.474L199.325 233.781C199.249 233.885 199.173 233.986 199.1 234.094L198.895 234.437C198.377 235.376 198.148 236.452 198.173 237.473C198.195 238.5 198.456 239.478 198.87 240.367C199.287 241.256 199.864 242.064 200.59 242.747C201.313 243.428 202.2 243.987 203.194 244.308C204.142 244.622 205.148 244.739 206.119 244.675C207.092 244.615 208.032 244.388 208.909 244.041C210.66 243.34 212.181 242.177 213.318 240.665C214.432 239.161 215.103 237.433 215.443 235.695C215.782 233.953 215.801 232.201 215.597 230.499C215.495 229.651 215.324 228.799 215.109 227.965C214.884 227.131 214.596 226.314 214.256 225.513C213.904 224.716 213.489 223.941 213.011 223.196C212.52 222.458 211.961 221.753 211.323 221.107C210.678 220.467 209.95 219.896 209.159 219.41L208.551 219.071C208.346 218.96 208.128 218.874 207.917 218.776L207.597 218.635L207.271 218.517C207.162 218.479 207.054 218.437 206.944 218.403L206.613 218.305C205.729 218.05 204.827 217.911 203.947 217.858C203.065 217.803 202.202 217.838 201.367 217.913C199.695 218.067 198.123 218.381 196.605 218.654C195.088 218.924 193.622 219.176 192.208 219.219C191.502 219.242 190.811 219.213 190.144 219.115C189.472 219.019 188.847 218.848 188.228 218.612C187.612 218.371 187.024 218.043 186.472 217.66C185.922 217.274 185.403 216.832 184.953 216.325C184.499 215.822 184.1 215.27 183.761 214.683C183.418 214.098 183.167 213.466 182.982 212.819L182.912 212.576C182.89 212.496 182.88 212.422 182.862 212.344C182.825 212.194 182.808 212.032 182.786 211.872C182.762 211.713 182.761 211.544 182.746 211.38C182.745 211.21 182.738 211.041 182.742 210.869C182.759 210.178 182.843 209.455 182.969 208.722C183.214 207.25 183.62 205.74 183.892 204.14C184.025 203.339 184.135 202.514 184.127 201.645C184.131 201.214 184.084 200.767 184.012 200.322C183.919 199.875 183.802 199.424 183.592 198.996C183.388 198.571 183.129 198.163 182.806 197.822C182.654 197.641 182.476 197.492 182.303 197.34C182.129 197.19 181.95 197.075 181.774 196.943C181.047 196.457 180.234 196.111 179.405 195.913C178.576 195.709 177.735 195.659 176.915 195.681C176.095 195.704 175.291 195.818 174.507 195.977C172.939 196.302 171.441 196.799 169.971 197.34C168.505 197.893 167.063 198.483 165.604 199.039L165.603 199.04Z" fill="#1FA78E"/>
<path d="M199.939 164.493C201.992 163.752 204.034 162.989 206.084 162.298C208.137 161.617 210.202 161.011 212.286 160.598C214.37 160.184 216.462 159.967 218.537 160.027C220.605 160.097 222.649 160.415 224.539 161.088C225.484 161.422 226.388 161.842 227.232 162.345C228.093 162.842 228.849 163.411 229.342 164.03C229.587 164.342 229.76 164.651 229.87 164.986C229.981 165.317 230.034 165.654 230.019 166.011C229.999 166.719 229.709 167.5 229.239 168.227C228.77 168.954 228.136 169.631 227.423 170.199C227.064 170.481 226.684 170.736 226.294 170.956C226.197 171.011 226.096 171.062 226 171.113C225.908 171.153 225.823 171.202 225.728 171.238C225.544 171.318 225.353 171.383 225.165 171.437C224.788 171.548 224.416 171.593 224.141 171.579C224.103 171.581 224.074 171.575 224.045 171.57C224.017 171.565 223.984 171.564 223.958 171.559C223.917 171.542 223.859 171.541 223.836 171.523C223.763 171.504 223.754 171.479 223.735 171.468C223.733 171.462 223.73 171.459 223.723 171.458C223.718 171.454 223.719 171.441 223.712 171.437C223.696 171.425 223.696 171.417 223.686 171.396C223.669 171.359 223.645 171.273 223.634 171.146C223.623 171.019 223.626 170.852 223.646 170.667L223.688 170.377C223.699 170.28 223.73 170.185 223.749 170.089C224.087 168.545 225.311 167.085 226.834 166.173L226.976 166.085L227.122 166.006C227.221 165.954 227.312 165.896 227.419 165.849L227.728 165.699L228.047 165.563C228.476 165.388 228.923 165.239 229.383 165.115C230.306 164.871 231.28 164.728 232.283 164.65C233.284 164.569 234.321 164.569 235.357 164.604C235.616 164.608 235.874 164.632 236.132 164.644C236.39 164.66 236.649 164.672 236.906 164.698L237.68 164.765L238.45 164.859L238.835 164.907L239.218 164.969C239.473 165.012 239.729 165.047 239.983 165.096C240.489 165.198 240.998 165.292 241.499 165.418C242.005 165.527 242.499 165.672 242.997 165.808C243.246 165.879 243.489 165.964 243.735 166.041L244.104 166.159L244.467 166.292C245.442 166.632 246.383 167.052 247.308 167.507C248.23 167.968 249.105 168.511 249.965 169.082C250.807 169.68 251.613 170.315 252.361 171.029C253.102 171.747 253.818 172.506 254.439 173.342L254.681 173.65L254.905 173.97C255.052 174.185 255.206 174.397 255.35 174.616C255.619 175.063 255.908 175.503 256.146 175.97L256.334 176.317L256.428 176.49L256.511 176.669L256.844 177.385C256.957 177.624 257.039 177.874 257.141 178.118L257.288 178.487C257.337 178.611 257.372 178.738 257.414 178.863L257.66 179.621L257.857 180.393C257.932 180.65 257.977 180.912 258.025 181.174L258.099 181.569C258.125 181.7 258.149 181.832 258.162 181.965C258.328 183.028 258.343 184.108 258.311 185.201C258.409 184.667 258.546 184.13 258.584 183.582L258.629 183.171C258.643 183.034 258.661 182.896 258.662 182.759L258.691 181.93C258.7 181.791 258.693 181.653 258.686 181.514L258.668 181.099C258.656 180.821 258.648 180.542 258.609 180.266L258.512 179.435L258.359 178.611C258.332 178.474 258.312 178.334 258.277 178.199L258.174 177.792C258.102 177.521 258.041 177.246 257.954 176.979L257.691 176.178L257.624 175.977L257.546 175.781L257.39 175.389C257.196 174.857 256.935 174.358 256.696 173.844C256.566 173.593 256.426 173.347 256.29 173.098L256.085 172.725L255.859 172.365C255.275 171.391 254.571 170.492 253.829 169.622L253.249 168.989C253.056 168.778 252.841 168.588 252.637 168.386C252.232 167.975 251.786 167.621 251.355 167.242C249.573 165.804 247.585 164.619 245.479 163.726L245.085 163.557L244.685 163.402C244.418 163.302 244.153 163.193 243.883 163.099C243.343 162.916 242.803 162.725 242.253 162.572C241.707 162.402 241.151 162.277 240.597 162.139C240.319 162.073 240.039 162.021 239.76 161.961L239.341 161.875L238.92 161.802C237.798 161.594 236.665 161.471 235.529 161.386C234.394 161.311 233.253 161.274 232.083 161.329C230.917 161.376 229.728 161.533 228.542 161.819C227.354 162.117 226.184 162.54 225.064 163.195C224.508 163.517 223.984 163.892 223.494 164.313C223.006 164.734 222.541 165.19 222.132 165.704C221.72 166.216 221.351 166.771 221.041 167.37C220.735 167.97 220.494 168.617 220.334 169.29C220.3 169.46 220.255 169.628 220.232 169.8L220.162 170.318C220.128 170.673 220.114 171.052 220.153 171.467C220.193 171.88 220.284 172.333 220.487 172.794C220.587 173.021 220.714 173.255 220.868 173.456C220.944 173.559 221.017 173.663 221.103 173.76C221.193 173.854 221.285 173.947 221.38 174.038C221.764 174.386 222.226 174.657 222.672 174.804C222.9 174.893 223.113 174.931 223.335 174.981C223.442 175 223.546 175.011 223.652 175.025C223.757 175.038 223.863 175.049 223.962 175.05C224.773 175.082 225.491 174.958 226.153 174.752C226.485 174.65 226.806 174.53 227.118 174.388C227.276 174.322 227.429 174.238 227.583 174.163C227.726 174.084 227.866 174.009 228.003 173.927C228.554 173.603 229.072 173.239 229.559 172.839C230.529 172.034 231.394 171.094 232.065 169.968C232.399 169.405 232.692 168.802 232.899 168.142C233.106 167.485 233.239 166.778 233.234 166.044C233.239 165.679 233.197 165.308 233.135 164.943C233.061 164.58 232.966 164.218 232.825 163.876C232.559 163.19 232.153 162.561 231.698 162.042C231.24 161.522 230.735 161.09 230.221 160.726C229.964 160.543 229.705 160.374 229.444 160.216C229.185 160.056 228.921 159.925 228.658 159.783C227.602 159.232 226.497 158.796 225.37 158.469C224.245 158.134 223.092 157.939 221.945 157.819C220.796 157.702 219.647 157.674 218.509 157.732C216.232 157.842 213.997 158.289 211.866 158.936C209.734 159.593 207.692 160.445 205.717 161.399C203.742 162.352 201.833 163.41 199.94 164.494L199.939 164.493Z" fill="#4754A6"/>
<path d="M163.072 118.962C164.142 118.373 165.19 117.744 166.208 117.05C166.716 116.702 167.207 116.327 167.687 115.931C168.166 115.536 168.63 115.116 169.066 114.662C169.949 113.766 170.706 112.714 171.301 111.581C171.9 110.448 172.324 109.23 172.634 107.996C173.243 105.519 173.376 102.984 173.371 100.511C173.369 99.2702 173.338 98.0505 173.275 96.8036C173.203 95.5584 173.106 94.2966 172.883 93.0276C172.781 92.3931 172.636 91.7575 172.478 91.123C172.303 90.4903 172.117 89.8559 171.87 89.2338C171.758 88.9202 171.614 88.6147 171.481 88.3067C171.327 88.004 171.196 87.7005 171.016 87.3991L170.757 86.9476L170.473 86.513L170.33 86.2964L170.175 86.0882L169.864 85.6726C169.421 85.141 168.962 84.6185 168.434 84.1598C168.182 83.9183 167.898 83.7091 167.624 83.4895C167.484 83.3841 167.335 83.2872 167.19 83.1864C167.044 83.0863 166.9 82.9852 166.743 82.8981L166.281 82.6284C166.125 82.5422 165.96 82.4672 165.799 82.3869C165.481 82.2196 165.134 82.1008 164.797 81.9652C164.624 81.9055 164.446 81.856 164.27 81.802L164.006 81.7238C163.916 81.7004 163.824 81.6837 163.734 81.6639L163.187 81.5521L162.628 81.4873L162.347 81.4585L162.064 81.4527C161.874 81.4502 161.685 81.4456 161.496 81.4484L160.927 81.4959C160.832 81.5058 160.74 81.5121 160.642 81.5258L160.342 81.5786C159.543 81.7294 158.796 82.0313 158.118 82.417C157.446 82.8119 156.835 83.2901 156.311 83.8458C155.782 84.3979 155.33 85.0204 154.969 85.7045C154.603 86.3854 154.342 87.1383 154.202 87.9366C154.134 88.3366 154.104 88.7497 154.108 89.1678C154.122 89.5873 154.162 90.0115 154.263 90.4309C154.453 91.268 154.844 92.0799 155.366 92.7438C155.623 93.085 155.93 93.3879 156.252 93.6662C156.578 93.941 156.931 94.1743 157.295 94.3781C158.029 94.7716 158.81 95.0144 159.583 95.1329C160.358 95.2536 161.128 95.2549 161.877 95.1663C162.627 95.0758 163.358 94.8967 164.06 94.6273C164.762 94.3628 165.434 94.0025 166.059 93.5565C168.55 91.6571 169.706 88.9318 170.274 86.347C170.561 85.0437 170.698 83.7495 170.774 82.4745C170.847 81.2014 170.843 79.942 170.793 78.6787C170.749 77.417 170.631 76.16 170.473 74.9105C170.314 73.6606 170.076 72.4227 169.809 71.194C168.701 66.2935 166.703 61.5678 163.727 57.5316C162.975 56.5314 162.179 55.5662 161.319 54.6619C160.448 53.7673 159.535 52.9188 158.561 52.1489C157.578 51.3881 156.554 50.6912 155.491 50.0692C154.41 49.4734 153.302 48.9423 152.16 48.5117C153.216 49.127 154.237 49.7816 155.199 50.5121C156.157 51.2463 157.065 52.0351 157.916 52.8766C158.753 53.7326 159.546 54.6241 160.28 55.5605C161.007 56.5032 161.679 57.483 162.297 58.4937C164.756 62.5506 166.318 67.0931 167.104 71.7314C167.294 72.8929 167.458 74.0581 167.546 75.2304C167.64 76.4011 167.709 77.5737 167.701 78.7461C167.701 79.916 167.654 81.0927 167.56 82.2481C167.458 83.3993 167.302 84.5295 167.033 85.5973C166.772 86.6687 166.402 87.6735 165.908 88.5675C165.772 88.7797 165.654 89.0079 165.503 89.205C165.43 89.3056 165.363 89.4121 165.286 89.5087L165.052 89.7947C164.978 89.8942 164.888 89.9768 164.805 90.0665L164.679 90.1995C164.637 90.2458 164.596 90.2886 164.556 90.3222C164.402 90.4738 164.223 90.6068 164.043 90.7392C163.309 91.2534 162.392 91.6016 161.473 91.7023C160.555 91.8075 159.639 91.6654 158.965 91.2951C158.799 91.2005 158.641 91.0997 158.501 90.9827C158.365 90.8617 158.23 90.7399 158.122 90.5932C158.064 90.5247 158.016 90.444 157.964 90.3706C157.922 90.2925 157.869 90.2195 157.836 90.1381C157.755 89.9822 157.703 89.8142 157.658 89.6418C157.483 88.9533 157.634 88.0927 158.037 87.3013C158.433 86.5059 159.091 85.7997 159.836 85.3471C160.211 85.1266 160.605 84.9591 161.003 84.8782L161.152 84.8482C161.205 84.84 161.264 84.8368 161.32 84.8302L161.66 84.7892L162.005 84.784L162.178 84.7796L162.351 84.7948L162.7 84.8223L163.049 84.8851C163.107 84.8961 163.166 84.9029 163.224 84.9164L163.398 84.9644C163.514 84.9974 163.631 85.0237 163.747 85.0596C163.975 85.1493 164.211 85.2132 164.434 85.327C164.546 85.3802 164.662 85.4257 164.773 85.4833L165.104 85.6651C165.217 85.7213 165.323 85.7929 165.43 85.8623C165.536 85.9326 165.646 85.9973 165.751 86.0713C165.954 86.23 166.172 86.3674 166.365 86.543C166.772 86.865 167.132 87.2491 167.486 87.6356L167.734 87.9416L167.858 88.0942L167.973 88.2544L168.202 88.5748L168.409 88.908C168.554 89.1224 168.673 89.3753 168.806 89.609L168.985 89.9771C169.046 90.0989 169.105 90.2222 169.157 90.3498C169.387 90.8486 169.57 91.3761 169.748 91.9075C169.91 92.4467 170.066 92.9915 170.185 93.5542C170.436 94.6733 170.61 95.835 170.748 97.0138C170.88 98.1932 170.984 99.4043 171.077 100.596C171.248 102.98 171.309 105.352 170.954 107.655C170.78 108.805 170.493 109.934 170.062 111.007C169.634 112.083 169.05 113.092 168.334 114.031C167.622 114.973 166.778 115.83 165.881 116.637C164.99 117.455 164.03 118.205 163.072 118.962L163.072 118.962Z" fill="#4E71CA"/>
</g>
<defs>
<linearGradient id="paint0_linear_2855_46317" x1="165.5" y1="0" x2="165.5" y2="331" gradientUnits="userSpaceOnUse">
<stop stop-color="white"/>
<stop offset="1" stop-color="white" stop-opacity="0"/>
</linearGradient>
<clipPath id="clip0_2855_46317">
<rect width="331" height="331" fill="white" transform="matrix(-1 0 0 1 331 0)"/>
</clipPath>
</defs>
</svg>
