<svg width="284" height="310" viewBox="0 0 284 310" fill="none" xmlns="http://www.w3.org/2000/svg">
<path fill-rule="evenodd" clip-rule="evenodd" d="M144.943 0.143808C176.797 -2.41382 200.573 29.6958 223.026 52.5031C241.8 71.5741 252.722 95.5452 263.151 120.221C273.299 144.234 288.1 168.705 282.938 194.267C277.843 219.503 254.966 236.11 236.202 253.681C219.22 269.584 200.563 282.233 179.206 291.407C155.369 301.646 131.171 310.921 105.259 309.927C74.2427 308.736 38.2951 308.238 17.4235 285.196C-3.45965 262.14 2.50933 226.214 1.24185 195.09C0.0947186 166.922 -3.37717 137.311 10.4004 112.738C23.7721 88.8896 53.5561 81.9575 74.5021 64.4285C99.3809 43.6082 112.645 2.73711 144.943 0.143808Z" fill="#FAC686"/>
<mask id="mask0_1313_6014" style="mask-type:alpha" maskUnits="userSpaceOnUse" x="0" y="0" width="284" height="310">
<path fill-rule="evenodd" clip-rule="evenodd" d="M144.943 0.143808C176.797 -2.41382 200.573 29.6958 223.026 52.5031C241.8 71.5741 252.722 95.5452 263.151 120.221C273.299 144.234 288.1 168.705 282.938 194.267C277.843 219.503 254.966 236.11 236.202 253.681C219.22 269.584 200.563 282.233 179.206 291.407C155.369 301.646 131.171 310.921 105.259 309.927C74.2427 308.736 38.2951 308.238 17.4235 285.196C-3.45965 262.14 2.50933 226.214 1.24185 195.09C0.0947186 166.922 -3.37717 137.311 10.4004 112.738C23.7721 88.8896 53.5561 81.9575 74.5021 64.4285C99.3809 43.6082 112.645 2.73711 144.943 0.143808Z" fill="#FAC686"/>
</mask>
<g mask="url(#mask0_1313_6014)">
<path d="M223.965 155.924C227.672 139.857 217.66 123.83 201.603 120.123C185.546 116.416 169.51 126.428 165.803 142.485C162.096 158.542 172.107 174.579 188.164 178.286C204.221 181.993 220.258 171.981 223.965 155.924Z" fill="#FF5C92"/>
<path d="M72.9894 119.234C79.3842 118.545 85.6291 116.656 92.0539 116.317C100.037 115.887 107.921 117.855 115.824 118.985C129.184 120.893 142.752 120.403 156.231 119.924C144.271 117.286 132.011 115.947 119.771 115.937C115.275 115.937 110.769 116.107 106.302 115.587C100.947 114.968 95.7508 113.369 90.4052 112.72C78.7647 111.311 66.4847 114.408 55.4937 110.332C73.5989 102.918 94.7517 110.881 113.606 105.665C99.6277 105.226 85.6491 104.786 71.6805 104.346C67.9635 104.227 64.2365 104.117 60.5196 104.287C43.3736 105.086 26.7671 112.05 9.62109 111.241C10.8701 111.301 14.3473 114.788 15.7961 115.457C18.0243 116.497 20.5722 117.316 22.9702 117.865C27.3067 118.865 31.3933 118.015 35.7897 117.835C48.2196 117.326 60.5495 120.543 72.9794 119.214H72.9894V119.234Z" fill="#EAEEEB"/>
<path d="M213.346 97.7471C210.758 97.917 207.471 97.6472 206.602 95.2092C198.568 92.2815 189.885 91.762 181.352 91.2824C175.177 90.9326 168.992 90.5829 162.817 90.2332C159.12 90.0234 155.393 89.8136 151.726 90.2832C146.551 90.9526 141.215 92.951 136.289 91.2324C143.633 92.8511 151.087 94.4797 158.601 94.15C162.548 93.9802 166.474 93.2607 170.431 93.2907C180.373 93.3706 189.606 98.0968 199.178 100.785C219.721 106.56 241.583 102.903 262.606 99.2159C254.732 98.5764 246.799 98.5864 238.935 99.2758C230.692 99.9853 222.259 101.414 214.275 99.2958C231.901 98.4665 249.507 97.1775 267.062 95.429C249.137 96.1584 231.272 96.608 213.356 97.7471H213.346Z" fill="#EAEEEB"/>
<path d="M184.438 141.087C187.975 141.536 191.432 142.405 194.939 143.005C202.123 144.244 209.487 144.394 216.711 143.445C206.11 143.555 195.509 143.664 184.907 143.774C181.33 143.814 177.733 143.854 174.196 144.334C167.741 145.213 159.778 148.071 153.723 144.354C162.805 140.617 174.706 139.828 184.438 141.077V141.087Z" fill="#EAEEEB"/>
<path d="M284.255 170.222C281.358 178.835 274.024 185.39 265.84 189.347C257.657 193.313 248.604 195.032 239.672 196.701C209.816 202.316 179.95 207.932 150.095 213.537C117.681 219.632 85.0779 225.737 52.0948 226.277C36.9272 226.526 21.3099 225.477 7.57113 219.033C0.946529 215.925 -5.36831 210.02 -8.65562 203.225C-10.8938 198.609 -11.7231 193.593 -10.3143 188.747C-9.46497 185.86 -7.82631 183.042 -5.19845 180.414C-0.90196 176.118 6.27218 174.569 11.7177 172.341C23.0285 167.714 34.2494 162.868 45.5202 158.132C73.7271 146.272 102.544 134.262 133.049 131.894C134.837 131.754 136.656 131.654 138.394 132.044C147.337 134.032 149.545 146.861 157.918 150.568C163.744 153.146 170.968 150.538 176.653 153.406C178.761 154.465 180.49 156.214 182.688 157.063C186.175 158.392 190.062 157.223 193.609 156.044C212.554 149.739 231.498 143.434 250.443 137.129C255.289 139.108 260.145 141.086 265.001 143.054C269.128 144.733 273.504 146.682 277.141 149.289C280.788 151.897 283.686 155.165 284.855 159.471C285.095 160.36 285.245 161.26 285.324 162.169C285.554 164.867 285.105 167.634 284.245 170.222H284.255Z" fill="#CACCC9"/>
<path d="M26.0882 196.151C31.234 195.282 36.3798 194.413 41.5156 193.543C46.1219 192.764 50.7281 191.985 55.2344 190.746C62.3086 188.807 69.0232 185.79 75.7477 182.852C96.201 173.949 117.024 165.856 138.257 159.052C140.015 158.482 141.804 157.933 143.642 157.853C145.491 157.773 147.319 158.172 149.128 158.572C163.926 161.839 178.714 165.097 193.522 168.364C199.846 169.763 206.191 171.162 212.646 171.711C217.212 172.101 221.908 172.051 226.235 170.542C233.449 168.034 238.955 161.749 246.299 159.641C250.285 158.492 254.542 158.672 258.658 159.251C265.783 160.241 272.857 162.439 278.732 166.585C280.281 167.685 281.81 168.993 282.479 170.772C283.338 173.04 282.669 175.558 281.989 177.896C280.69 182.353 279.372 186.839 277.223 190.956C268.99 206.753 250.075 214.097 232.3 215.346C214.534 216.595 196.739 213.108 178.933 213.577C166.454 213.907 154.094 216.175 141.614 216.675C120.571 217.524 99.3984 213.377 78.5254 216.155C67.0348 217.684 55.9139 221.291 44.4332 222.89C28.786 225.068 15.5068 222.08 3.34676 211.878C-11.641 199.299 18.3046 197.47 26.0682 196.151H26.0882Z" fill="#FF9937"/>
<path d="M277.161 149.3C270.566 150.479 262.842 142.325 257.177 146.402C255.039 147.931 252.841 151.118 250.652 149.649C248.444 148.171 250.463 144.104 248.524 142.275C247.615 141.426 246.216 141.456 244.987 141.646C234.925 143.195 226.682 151.428 216.53 152.217C213.203 152.477 209.796 151.908 206.538 152.657C200.663 154.006 196.257 159.401 190.302 160.341C181.349 161.75 173.286 152.617 164.323 153.906C161.115 154.366 158.068 156.164 154.861 155.744C152.682 155.455 150.744 154.146 149.295 152.497C145.418 148.061 144.379 140.957 139.073 138.399C132.389 135.181 125.365 141.656 118.34 144.024C110.057 146.812 100.875 143.704 92.2716 145.273C87.5555 146.132 83.219 148.37 78.9625 150.579C63.2553 158.732 47.5381 166.885 31.8209 175.039C22.5385 179.855 13.1662 184.711 3.06441 187.429C15.874 181.284 27.9741 173.65 39.0451 164.737C22.5985 172.741 6.14189 180.754 -10.3047 188.757C-9.45538 185.87 -7.81669 183.052 -5.18884 180.424C-0.892342 176.128 6.2818 174.579 11.7274 172.351C23.0381 167.725 34.259 162.879 45.5298 158.142C73.7367 146.282 102.553 134.272 133.058 131.904C134.847 131.764 136.665 131.664 138.404 132.054C147.347 134.042 149.555 146.872 157.928 150.579C163.753 153.157 170.977 150.549 176.663 153.416C178.771 154.475 180.5 156.224 182.698 157.073C186.185 158.402 190.072 157.233 193.619 156.054C212.563 149.749 231.508 143.444 250.453 137.14C255.299 139.118 260.155 141.096 265.011 143.065C269.137 144.743 273.514 146.692 277.151 149.3H277.161Z" fill="#93D3D9"/>
<path d="M279.8 203.316C279.75 209.75 278.97 216.185 278.101 221.411C277.651 224.169 276.952 227.116 274.874 228.995C273.215 230.503 270.947 231.063 268.829 231.812C260.505 234.75 253.751 240.975 245.677 244.552C229.271 251.816 210.396 247.21 192.751 243.972C141.133 234.5 87.5465 237.847 36.5781 225.368C30.8827 223.969 25.1874 222.38 19.4221 221.371C15.3554 220.652 11.2587 220.222 7.12212 220.372C4.2045 220.472 0.837245 220.691 -1.15113 218.553C-4.57834 214.876 -0.891346 207.532 -4.36851 204.285C-4.50839 204.145 -4.66826 204.025 -4.82812 203.905C18.2231 202.257 41.2742 200.598 64.3254 198.949C68.1223 198.679 71.9692 198.39 75.5962 197.231C80.2225 195.752 84.2891 192.894 88.8354 191.216C93.072 189.647 97.6183 189.137 102.105 188.628L126.125 185.94C131.161 185.37 136.287 184.791 140.963 182.822C145.169 181.044 148.916 178.196 153.323 176.997C162.026 174.639 170.948 179.195 179.881 180.364C194.389 182.253 208.458 175.139 222.986 173.41C232.588 172.271 242.29 173.5 251.872 174.719C258.497 175.568 267.819 175.089 273.275 179.545C274.474 180.524 275.483 181.743 276.253 183.272C279 188.807 279.88 196.062 279.82 203.316H279.8Z" fill="#735410"/>
<path d="M279.799 203.315C275.982 204.025 271.666 202.586 268.368 200.278C263.972 197.22 260.615 192.874 256.288 189.717C247.895 183.602 235.985 182.732 226.782 187.578C231.249 195.452 247.396 188.358 250.703 196.791C251.822 199.658 250.573 202.966 251.372 205.943C253.251 212.878 264.881 214.386 265.131 221.561C265.191 223.269 264.502 224.918 263.622 226.377C259.865 232.552 252.521 235.839 245.317 236.488C238.113 237.138 230.919 235.549 223.865 233.96C212.954 231.512 201.793 228.964 192.381 222.929C187.165 219.592 182.648 215.276 177.543 211.759C169.07 205.923 159.228 202.446 149.515 199.049C144.959 197.45 140.383 195.842 135.627 195.032C129.502 193.983 123.147 194.293 117.152 195.921C130.711 198.16 143.89 202.646 156.01 209.141C139.983 206.902 124.176 216.794 108.119 214.896C101.385 214.097 94.98 211.249 88.2155 210.799C79.043 210.18 70.2402 213.987 61.3774 216.415C48.5179 219.942 35.0789 220.611 21.7597 221.261C20.9904 221.301 20.221 221.331 19.4416 221.361C15.375 220.641 11.2783 220.212 7.14168 220.361C4.22406 220.461 0.856806 220.681 -1.13157 218.543C-4.55877 214.866 -0.871784 207.522 -4.34895 204.275C-4.48883 204.135 -4.64872 204.015 -4.80859 203.895C18.2426 202.246 41.2938 200.588 64.345 198.939C68.1419 198.669 71.9888 198.379 75.6158 197.22C80.242 195.742 84.3087 192.884 88.855 191.205C93.0915 189.637 97.6378 189.127 102.124 188.617L126.145 185.93C131.18 185.36 136.306 184.781 140.982 182.812C145.189 181.034 148.936 178.186 153.342 176.987C162.045 174.629 170.968 179.185 179.901 180.354C194.409 182.243 208.477 175.128 223.006 173.4C232.608 172.261 242.31 173.49 251.892 174.709C258.517 175.558 267.839 175.078 273.294 179.535C274.493 180.514 275.503 181.733 276.272 183.262C279.02 188.797 279.899 196.051 279.839 203.305L279.799 203.315Z" fill="#747100"/>
<path d="M273.255 179.545C272.526 179.805 271.706 179.925 270.927 179.995C250.953 182.023 229.191 172.501 211.565 182.113C211.026 188.288 217.83 192.165 223.426 194.853C231.669 198.809 239.482 203.645 246.697 209.241C230.53 202.846 215.012 194.823 200.434 185.35C213.094 195.772 227.153 204.495 242.1 211.209C243.879 211.999 245.847 212.978 246.427 214.836C247.246 217.504 244.678 219.942 242.26 221.331C231.769 227.316 218.39 227.956 207.379 222.97C194.249 217.024 185.367 204.195 172.597 197.5C168.011 195.102 163.045 193.544 158.099 192.015C148.866 189.167 139.194 186.339 129.672 187.988C124.746 188.837 120.11 190.846 115.214 191.855C108.09 193.324 100.716 192.624 93.4717 191.915C94.4709 195.372 97.8181 197.7 101.285 198.649C104.752 199.599 108.419 199.419 112.017 199.519C119.6 199.729 127.144 201.187 134.258 203.815C123.557 207.582 111.587 207.642 100.846 203.995C98.7074 203.276 96.6091 202.406 94.4009 201.967C91.6531 201.437 88.8155 201.587 86.0178 201.737C71.6895 202.526 57.3611 203.326 43.0228 204.125C32.6213 204.704 22.2298 205.294 11.8483 206.063C6.44268 206.463 0.507513 206.823 -4.36851 204.265C-4.50839 204.125 -4.66826 204.005 -4.82812 203.885C18.2231 202.236 41.2742 200.578 64.3254 198.929C68.1223 198.659 71.9692 198.37 75.5962 197.211C80.2225 195.732 84.2891 192.874 88.8354 191.195C93.072 189.627 97.6183 189.117 102.105 188.608L126.125 185.92C131.161 185.35 136.287 184.771 140.963 182.802C145.169 181.024 148.916 178.176 153.323 176.977C162.026 174.619 170.948 179.175 179.881 180.344C194.389 182.233 208.458 175.119 222.986 173.39C232.588 172.251 242.29 173.48 251.872 174.699C258.497 175.548 267.819 175.069 273.275 179.525L273.255 179.545Z" fill="#86769C"/>
<path d="M276.713 246.58C273.665 260.289 276.373 274.558 275.884 288.586C275.834 290.235 275.704 291.963 274.854 293.372C274.085 294.671 272.786 295.56 271.447 296.27C261.505 301.536 249.335 297.989 238.204 299.597C232.569 300.417 227.163 302.575 221.488 303.084C213.994 303.774 206.57 301.556 199.336 299.527C187.965 296.33 176.485 293.502 164.924 291.044C156.901 289.336 148.747 287.807 140.544 288.127C135.498 288.326 130.452 289.226 125.436 288.696C117.733 287.897 110.469 283.55 106.102 277.146C101.436 270.301 100.007 261.398 94.3218 255.363C86.8579 247.43 74.6179 246.87 64.696 242.364C60.5394 240.465 56.7525 237.898 52.8257 235.569C51.0871 234.54 40.9154 231.193 40.4058 230.054C39.0269 226.966 49.8881 228.136 51.6266 228.136C57.3819 228.136 63.1272 228.136 68.8826 228.136C71.7902 228.136 74.7178 228.136 77.5855 227.636C82.0718 226.867 86.2684 224.908 90.7047 223.889C91.7339 223.649 92.773 223.469 93.8222 223.329C97.5691 222.82 101.386 222.82 105.193 222.79C109.469 222.76 113.736 222.69 117.903 221.811C120.321 221.291 122.679 220.512 125.037 219.722C125.806 219.463 126.575 219.203 127.355 218.953C141.883 214.227 157.21 212.508 172.458 211.579C175.216 211.409 178.034 211.269 180.671 212.069C183.449 212.908 185.817 214.706 188.205 216.355C199.546 224.209 212.665 229.464 226.284 231.603C228.302 231.922 230.431 232.162 232.349 231.473C234.647 230.643 236.296 228.625 238.394 227.366C241.771 225.328 245.998 225.388 249.645 223.939C251.863 223.05 253.902 221.031 254.641 218.863C255.9 215.156 259.417 212.658 263.334 212.468C264.893 212.388 266.461 212.458 268.02 212.688C269.319 212.878 270.558 213.368 271.587 214.177C272.546 214.926 273.166 215.796 273.566 216.725C275.154 220.552 272.886 225.697 273.665 230.104C274.315 233.811 277.173 236.918 277.522 240.665C277.702 242.654 277.153 244.632 276.723 246.59L276.713 246.58Z" fill="#3A3939"/>
<path d="M100.615 262.427C102.714 262.747 104.842 263.476 106.9 262.967C108.439 262.577 109.718 261.538 111.017 260.619C116.772 256.582 123.717 254.704 130.521 252.905C133.159 252.206 136.126 251.286 138.884 251.406C141.822 251.536 144.25 253.185 147.127 253.535C148.926 253.754 150.735 253.315 152.493 252.855C157.159 251.636 161.626 250.717 166.062 248.768C170.648 246.76 175.314 244.162 180.51 244.742C174.565 250.517 167.361 255.003 159.547 257.781C160.896 258.68 162.605 258.98 164.174 258.61C165.303 258.341 166.332 257.751 167.461 257.471C169.739 256.902 172.107 257.681 174.355 258.381C186.625 262.208 203.092 266.464 215.781 262.837C223.175 260.719 229.091 255.573 235.325 251.326C242.44 246.5 249.774 241.924 257.597 238.327C260.665 236.918 264.472 235.719 267.209 237.687C267.529 237.917 267.839 238.217 267.889 238.607C267.929 238.916 267.789 239.206 267.659 239.496C265.581 244.002 264.712 247.689 268.458 251.736C271.276 254.784 275.183 256.552 278.201 259.45C281.488 262.607 284.385 266.094 286.744 270.011C287.533 271.32 288.272 272.709 288.412 274.228C288.642 276.746 287.203 279.104 285.674 281.122C277.921 291.384 266.88 298.568 256.069 305.532C251.402 308.54 246.676 311.577 241.421 313.366C226.802 318.352 210.965 313.026 195.828 309.959C176.563 306.052 156.55 305.812 137.735 300.127C124.206 296.03 111.686 289.225 99.2765 282.471C97.2182 281.352 95.09 280.183 93.6811 278.304C92.1923 276.326 91.6827 273.798 90.5037 271.62C88.4254 267.743 84.2288 267.693 90.0441 264.446C93.2315 262.657 97.0183 261.908 100.635 262.457H100.625L100.615 262.427Z" fill="#00383E"/>
<path d="M273.576 216.715C272.866 216.665 272.167 216.545 271.497 216.395C268.12 215.626 264.493 214.307 261.336 215.746C257.179 217.644 255.98 223.419 251.863 225.388C249.515 226.517 246.708 226.127 244.22 226.916C241.342 227.826 239.204 230.184 236.966 232.212C232.489 236.259 227.084 239.266 221.288 240.925C217.641 241.964 213.884 242.484 210.127 242.973C204.282 243.743 198.417 244.462 192.562 245.122C202.913 242.694 213.215 239.996 223.417 237.008C222.048 234.191 218.241 233.921 215.113 233.741C204.472 233.121 194.081 228.855 186.087 221.801C182.71 218.833 179.632 215.296 175.446 213.647C171.269 211.999 166.583 212.478 162.137 213.108C155.422 214.067 148.758 215.306 142.093 216.565C139.485 217.055 136.867 217.544 134.249 218.034C131.182 218.603 128.114 219.173 125.047 219.722C125.816 219.463 126.586 219.203 127.365 218.953C141.893 214.227 157.221 212.508 172.468 211.579C175.226 211.409 178.044 211.269 180.681 212.069C183.459 212.908 185.827 214.706 188.215 216.355C199.556 224.209 212.675 229.464 226.294 231.603C228.313 231.922 230.441 232.162 232.359 231.473C234.667 230.643 236.306 228.625 238.404 227.366C241.782 225.328 246.008 225.388 249.665 223.939C251.883 223.05 253.922 221.031 254.661 218.863C255.92 215.156 259.437 212.658 263.354 212.468C264.913 212.388 266.482 212.458 268.04 212.688C269.339 212.878 270.578 213.368 271.607 214.177C272.566 214.926 273.186 215.796 273.586 216.725L273.576 216.715Z" fill="#464545"/>
<path d="M16.1062 165.936C19.4834 166.306 22.8507 166.675 26.2179 167.045C38.418 168.374 50.9477 169.693 62.8081 166.516C66.0154 165.656 69.1529 164.477 72.4402 164.078C78.9149 163.298 85.2997 165.596 91.7145 166.785C98.6588 168.064 105.783 168.024 112.857 167.984C127.775 167.894 142.683 167.804 157.601 167.715C160.448 167.695 163.306 167.675 166.104 167.135C167.952 166.775 169.771 166.176 171.659 166.086C173.907 165.976 176.116 166.596 178.294 167.125C186.957 169.233 195.909 170.123 204.812 169.743C195.36 170.502 185.858 170.432 176.425 169.523C172.369 169.133 168.292 168.594 164.235 168.984C160.658 169.323 157.191 170.382 153.644 170.962C142.353 172.8 130.883 169.743 119.452 169.643C112.508 169.573 105.543 170.622 98.9286 172.71C105.303 173.52 111.688 174.189 118.093 174.709C111.119 175.518 104.284 177.347 97.2999 178.086C89.3864 178.925 81.4029 178.346 73.4693 177.776C66.1054 177.247 58.7414 176.717 51.3774 176.188C38.338 175.248 25.2687 174.309 12.4092 172.031C10.7505 169.763 12.0295 166.336 14.3276 164.737C16.6258 163.138 19.5733 162.869 22.3711 162.649C29.745 162.079 37.109 161.5 44.503 161.32C37.7885 162.529 31.1839 164.287 24.7491 166.566" fill="#EAEEEB"/>
<path d="M192.422 224.149C185.438 224.838 178.743 228.155 173.957 233.291C173.068 234.25 172.139 235.33 170.86 235.579C169.431 235.869 168.042 235.07 166.623 234.8C162.537 234.031 158.85 237.658 154.703 237.947C152.125 238.127 149.617 236.988 147.029 236.918C144.481 236.838 142.023 237.807 139.645 238.737C134.29 240.865 128.594 243.263 125.447 248.089C123.698 250.777 122.889 254.024 120.961 256.592C120.261 257.521 119.422 258.371 118.942 259.44C116.404 265.055 125.277 269.911 125.187 276.076C125.137 279.673 158.16 305.001 154.703 306C151.246 306.989 124.558 317.01 120.961 317C120.181 317 83.8821 356.321 86.5 319.5C73.9502 319.99 87.5098 311.971 75 313.5C68.4454 314.299 38.5946 313.97 32 313.5C12.7157 312.111 9.81124 284.919 -9.21324 288.236C-10.7919 278.754 -13.7395 269.522 -15.1584 260.009C-15.9677 254.584 -16.2475 248.958 -15.5081 243.543C-14.9485 239.456 -13.8195 235.489 -11.911 231.822C-9.81273 227.796 -6.84515 224.279 -4.66693 220.292C-2.89837 217.054 -3.12819 211.429 -0.74014 208.691C-0.640222 208.571 -0.530304 208.461 -0.420394 208.352C2.60714 205.474 9.42156 206.523 13.1185 206.783C17.7548 207.103 22.381 207.422 27.0172 207.752C29.705 207.932 32.3928 208.122 35.0806 208.312C42.0949 208.801 49.1192 209.281 56.0935 210.17C57.4824 210.35 58.8912 210.54 60.3 210.72C68.3735 211.789 76.6467 212.678 84.0906 209.62C86.5386 208.621 89.0666 207.182 91.5845 206.513C93.3431 206.053 95.0817 205.953 96.7903 206.623C99.1883 207.562 100.777 209.8 102.735 211.469C108.711 216.575 117.533 216.035 125.327 214.996C127.775 214.676 130.273 214.327 132.701 214.816C134.749 215.236 136.638 216.225 138.606 216.915C142.063 218.104 145.75 218.333 149.397 218.543C161.557 219.263 173.707 219.982 185.868 220.691C187.266 220.771 188.845 221.001 190.114 221.581C190.744 221.86 191.303 222.23 191.723 222.71C192.063 223.099 192.312 223.569 192.442 224.129L192.422 224.149Z" fill="#020613"/>
<path d="M192.421 224.149C185.437 224.838 178.742 228.155 173.946 233.291C173.057 234.25 172.137 235.329 170.858 235.579C169.43 235.869 168.041 235.07 166.622 234.8C162.535 234.031 158.848 237.658 154.702 237.947C152.124 238.127 149.616 236.988 147.028 236.918C144.47 236.838 142.022 237.807 139.644 238.737C134.288 240.865 128.593 243.263 125.446 248.089C123.697 250.777 122.888 254.024 120.959 256.592C120.26 257.521 119.42 258.371 118.941 259.44C116.403 265.055 125.266 269.911 125.186 276.076C125.136 279.673 121.878 282.531 118.421 283.53C114.964 284.519 111.287 284.14 107.69 284.13C106.911 284.13 106.121 284.14 105.352 284.18C104.403 282.391 103.903 280.393 104.073 278.334C107.22 278.374 110.358 276.806 112.196 274.248C108.629 271.56 106.151 267.473 105.422 263.067C87.6764 268.462 68.572 265.984 50.2969 262.837C64.7551 263.536 79.3332 261.778 93.2118 257.661C94.0911 257.401 95.1203 256.292 94.3309 255.823C97.2485 255.973 100.186 255.733 103.044 255.113C102.724 252.326 104.982 249.508 107.78 249.218C109.299 249.058 110.867 249.558 112.336 249.138C115.923 248.129 116.033 243.133 117.952 239.936C120.02 236.449 124.346 235.13 128.273 234.1C138.445 231.423 148.787 228.735 159.308 228.945C162.725 229.015 166.262 229.364 169.46 228.145C170.828 227.626 172.077 226.826 173.386 226.137C175.794 224.878 185.686 222.09 191.741 222.73C192.081 223.119 192.331 223.589 192.461 224.149H192.421Z" fill="#050F27"/>
<path d="M190.096 221.591C188.477 221.751 186.838 221.741 185.22 221.731C178.035 221.681 170.851 221.631 163.667 221.571C156.233 221.521 148.619 221.441 141.635 218.853C140.296 218.353 138.977 217.774 137.578 217.474C135.24 216.965 132.792 217.294 130.454 217.774C125.658 218.753 120.712 220.362 115.986 219.123C113.248 218.403 109.991 216.865 107.913 218.793C112.499 222.81 118.494 224.308 124.689 224.858C109.531 224.219 94.3936 223.02 79.3359 221.251C86.3202 220.711 93.3045 220.192 100.289 219.652C100.878 219.612 101.608 219.442 101.728 218.863C101.808 218.493 101.578 218.144 101.348 217.854C99.8092 215.925 97.5011 214.616 95.0631 214.287C95.7725 211.329 94.1139 208.092 91.5759 206.533C93.3345 206.073 95.0731 205.973 96.7817 206.643C99.1797 207.582 100.768 209.82 102.727 211.489C108.702 216.595 117.525 216.055 125.318 215.016C127.766 214.696 130.264 214.347 132.692 214.836C134.741 215.256 136.629 216.245 138.598 216.935C142.055 218.124 145.742 218.353 149.389 218.563C161.549 219.283 173.699 220.002 185.859 220.711C187.258 220.791 188.837 221.021 190.106 221.601L190.096 221.591Z" fill="#050F27"/>
<path d="M60.2807 210.74H60.0708C39.7774 210.97 19.4939 209.89 -0.769531 208.701C-0.669613 208.581 -0.559695 208.472 -0.449785 208.372C2.57774 205.494 9.39217 206.543 13.0892 206.803C17.7254 207.123 22.3516 207.442 26.9878 207.772C29.6756 207.952 32.3634 208.142 35.0512 208.332C42.0655 208.821 49.0898 209.301 56.0641 210.19C57.453 210.37 58.8618 210.56 60.2707 210.74H60.2807Z" fill="#050F27"/>
<path d="M66.3552 219.692C66.3552 219.692 66.2753 219.762 66.2353 219.802C66.2253 219.782 66.2053 219.752 66.1953 219.732C66.2453 219.722 66.2952 219.702 66.3552 219.692Z" fill="black"/>
<path d="M76.2691 217.284C72.9718 218.084 69.6645 218.883 66.3672 219.692C66.6669 219.422 66.9667 219.163 67.2764 218.913C69.8144 216.825 73.6113 215.366 76.2791 217.294L76.2691 217.284Z" fill="black"/>
</g>
<path d="M67.2731 29.6572C85.858 34.1235 105.372 29.0577 124.436 30.4466C130.462 30.8862 136.477 31.9753 142.512 31.6256C145.859 31.4357 149.216 30.7863 152.544 31.1859C155.161 31.4957 157.649 32.4349 160.187 33.1743C175.645 37.6407 192.901 34.4033 207.619 40.888C186.965 41.8672 166.033 42.8265 145.849 38.3501C140.523 37.1711 135.228 35.6023 129.782 35.4425C125.246 35.3026 120.74 36.1519 116.283 37.0312C106.511 38.9496 96.5792 41.0279 86.6673 40.0487C80.7022 39.4692 74.8969 37.7906 68.9518 37.1411C54.6634 35.5824 40.2352 40.0087 25.9468 38.46C34.6397 37.3609 43.2727 35.6823 51.7458 33.4341C39.3159 32.8446 25.6671 33.7539 13.457 31.4557C19.4821 30.1468 26.0967 30.3866 32.2417 29.7271C36.9079 29.2176 41.4342 28.3683 46.0305 27.5189C53.7142 26.0901 59.8492 27.8786 67.2631 29.6572H67.2731Z" fill="#EAEEEB"/>
<path d="M223.99 54.0773C218.765 53.4079 213.479 52.7984 208.233 53.298C202.208 53.8675 196.363 55.8859 190.308 56.0557C185.262 56.1956 180.286 55.0466 175.28 54.4371C169.475 53.7376 163.62 53.7576 157.774 53.7876C145.165 53.8476 132.555 53.9075 119.945 53.9674C142.157 53.9674 164.359 54.9966 186.471 57.0549C191.497 57.5245 196.543 58.0441 201.579 57.6544C209.192 57.0649 216.826 54.3971 224.32 55.8859C228.537 56.7252 232.384 58.8335 236.41 60.3622C245.463 63.7794 255.635 64.1691 264.907 61.4413C261.28 62.5005 256.784 62.8202 253.027 62.3006C249.18 61.7811 249.56 60.652 247.042 58.6036C241.946 54.437 230.445 54.8867 224 54.0574L223.99 54.0773Z" fill="#EAEEEB"/>
<path d="M48.582 215.335H56.5378C58.0128 215.335 58.672 213.469 57.5099 212.553L51.2638 207.591L48.582 215.346V215.335Z" fill="#A88801"/>
<path d="M68.7695 215.335H76.7253C78.2003 215.335 78.8595 213.469 77.6974 212.553L71.4513 207.591L68.7695 215.346V215.335Z" fill="#A88801"/>
<path d="M80.1239 153.029L72.0228 215.335H68.9053V159.845C68.9053 154.795 68.5142 149.744 67.7544 144.749C67.2851 141.677 66.4023 138.682 65.1509 135.844L62.8602 132.939L51.4405 215.335H48.5912L46.8369 150.817C46.781 148.683 46.6134 146.571 46.3341 144.459L43.1719 120.469L64.6369 117.642L65.609 117.519L78.5595 115.809L80.4367 141.777C80.7049 145.543 80.6043 149.308 80.1127 153.04L80.1239 153.029Z" fill="#060B1F"/>
<path d="M62.8628 132.938L51.4431 215.335H49.8787C48.8843 190.462 62.874 132.938 62.874 132.938H62.8628Z" fill="#191919"/>
<path d="M80.1237 153.029L72.0227 215.335H70.9053C72.1232 200.876 77.442 136.235 76.7045 130.022C75.8665 123.027 64.6367 117.832 64.6367 117.832L65.6088 117.519L78.5594 115.809L80.4366 141.777C80.7048 145.543 80.6042 149.308 80.1125 153.04L80.1237 153.029Z" fill="#191919"/>
<path d="M64.6402 117.642V117.832C64.6402 117.832 63.4335 125.407 54.9413 128.838C51.7903 130.112 49.6673 133.106 49.3432 136.481C47.656 154.281 48.6504 203.368 48.9298 215.335H48.5834L46.8291 150.817C46.7732 148.683 46.6056 146.571 46.3263 144.459L43.1641 120.469L64.6291 117.642H64.6402Z" fill="#020613"/>
<path d="M90.2288 48.5981C89.6366 49.5031 89.2455 49.6372 88.2734 49.4249C87.1672 49.1791 86.0498 48.9556 84.9436 48.721C84.7089 48.6763 84.4631 48.6204 84.2284 48.5757C83.0887 48.3299 81.9602 48.0617 80.8875 47.6259C80.1388 47.3131 79.3678 46.8996 78.9544 46.1845C78.8985 46.0951 78.8538 45.9834 78.865 45.8716C78.8874 45.7711 78.9432 45.6929 79.0214 45.6258C79.4684 45.1453 80.1388 44.9777 80.7869 44.8436C83.1781 44.3855 85.7258 44.3967 88.0052 45.2124C88.3851 45.3465 88.7762 45.5029 89.1338 45.6928C89.7372 45.9945 90.3629 46.4303 90.5417 47.0784C90.6869 47.5924 90.5305 48.1511 90.2288 48.6092V48.5981Z" fill="#FF90A2"/>
<path d="M90.2269 48.5981C89.6347 49.5032 89.2436 49.6372 88.2715 49.4249C87.1653 49.1791 86.0479 48.9556 84.9417 48.721C84.7071 48.6763 84.4612 48.6204 84.2266 48.5757C84.2824 48.5422 84.3607 48.5199 84.4501 48.5199C84.8747 48.4863 85.2211 48.6875 85.6792 48.5199C86.0591 48.3746 86.3943 48.0952 86.6066 47.7489C87.0759 46.9555 86.9753 45.7711 87.7798 45.313C87.8581 45.2683 87.9251 45.2459 88.0033 45.2124C88.3832 45.3465 88.7743 45.5029 89.1319 45.6929C89.7353 45.9946 90.361 46.4303 90.5398 47.0784C90.6851 47.5924 90.5286 48.1511 90.2269 48.6092V48.5981Z" fill="#F56C73"/>
<path d="M84.2702 48.2408C84.2366 48.3637 84.1919 48.4754 84.1584 48.5983C83.8344 49.6263 83.4545 50.6431 83.041 51.6376C82.2365 53.5595 81.3426 55.5261 80.1805 57.3028C79.5883 58.2079 78.9067 59.0682 78.1245 59.8392C77.3312 60.6102 76.3479 61.1801 75.6104 62.0181C75.4093 62.2304 75.2305 62.4763 74.9847 62.6439C74.1802 63.1914 73.0963 62.7556 72.2359 62.3087C71.9677 62.1746 71.6884 62.0293 71.5208 61.7723C71.3867 61.5712 71.3308 61.3142 71.2526 61.0795C71.2303 61.0348 71.2191 60.9901 71.1967 60.9566C70.9397 60.3644 70.4816 59.8951 70.0793 59.3923C69.3754 58.4984 68.8837 57.4257 68.7608 56.2971C68.6267 55.0009 69.0178 53.7048 69.5877 52.5427C70.1687 51.3694 70.9286 50.3191 71.6325 49.2129C72.1242 48.4419 72.5823 47.6485 73.1633 46.9334C73.4092 46.6317 73.6661 46.3524 73.9567 46.0842C73.9567 46.0842 73.9679 46.073 73.979 46.0618C75.5099 44.6092 77.4988 43.6706 79.5324 43.0225C80.4487 42.732 81.4097 42.4974 82.3594 42.6315C83.5774 42.7991 84.2255 43.4137 84.5272 44.2405C84.9629 45.4026 84.6836 46.9669 84.2925 48.2296L84.2702 48.2408Z" fill="#FF90A2"/>
<path d="M84.2724 48.2406C84.2389 48.3636 84.1942 48.4753 84.1607 48.5982C83.3562 49.0452 82.4064 49.3245 81.6801 49.3916C80.0375 49.548 78.2386 49.3692 76.8754 50.4866C75.4563 51.6487 74.5177 53.5371 73.6349 55.1126C73.1992 55.8836 72.7522 56.6769 72.5622 57.5485C72.3611 58.4535 72.2717 59.3028 71.8583 60.152C71.7018 60.4537 71.5231 60.7554 71.2437 60.923C71.2214 60.9342 71.2102 60.9453 71.1879 60.9453C70.9309 61.0794 70.6403 61.1018 70.3498 61.1129C69.9923 61.1353 69.6235 61.1576 69.2659 61.1688C69.0536 61.18 68.819 61.1912 68.6178 61.1018C68.2826 60.9453 68.1485 60.5543 68.0592 60.1967C67.4334 57.6044 67.8469 54.7774 69.1877 52.4644C69.5453 51.8386 69.9699 51.2464 70.2604 50.5983C70.4504 50.1626 70.5733 49.7044 70.7968 49.2798C71.1096 48.6988 71.5901 48.2295 72.0706 47.7602C72.674 47.1903 73.2885 46.6093 73.9254 46.0729C73.9254 46.0729 73.9366 46.0618 73.9478 46.0506C74.5959 45.5031 75.2663 45.0002 75.9926 44.5644C77.434 43.6817 79.0766 43.0783 80.7638 43.0895C81.8812 43.1007 82.9986 43.38 83.9819 43.9164C84.1607 44.0169 84.3283 44.1175 84.4959 44.2292C84.9317 45.3913 84.6523 46.9557 84.2613 48.2183L84.2724 48.2406Z" fill="#F56C73"/>
<path d="M86.6025 44.2294C86.6025 44.2294 86.5578 44.2964 86.5243 44.3299C85.1611 46.3971 83.5186 48.3748 80.781 47.7379C79.6636 47.4809 78.5462 47.0452 77.3953 47.1681C75.6745 47.358 74.5124 48.833 73.8979 50.3303C72.9369 52.6544 72.6464 55.1015 71.5178 57.3922C71.339 57.7609 71.1267 58.152 70.7915 58.3866C70.4675 58.6101 70.0764 58.6772 69.6853 58.733C67.0147 59.0794 63.5285 59.0682 61.0032 57.9732C59.5841 57.3586 60.0087 54.3417 60.0087 53.1126C60.0087 52.0846 60.0758 51.0454 60.1875 50.0286C60.5897 46.3524 61.6289 42.7767 63.238 39.4358C64.5118 36.7652 66.1432 34.0723 69.2495 33.4131C70.7803 33.089 72.1994 33.4242 73.5515 34.0053C75.0711 34.6534 76.5237 35.6143 77.9875 36.2959C80.3899 37.4021 81.7419 36.5417 84.0437 35.9718C84.6359 35.8266 85.2617 35.8937 85.8203 36.106C86.2897 36.2959 86.7255 36.5864 87.0719 36.9552C87.1612 37.0445 87.2395 37.1451 87.3177 37.2457C88.9379 39.3911 87.9099 42.218 86.6025 44.2182V44.2294Z" fill="#484163"/>
<path d="M86.6025 44.2292C85.217 46.3299 83.5744 48.3859 80.781 47.7378C79.6636 47.4808 78.5462 47.0451 77.3953 47.168C75.6745 47.3579 74.5124 48.8329 73.8978 50.3302C72.9369 52.6543 72.6464 55.1014 71.5178 57.3921C71.339 57.7608 71.1267 58.1519 70.7915 58.3865C70.4675 58.61 70.0764 58.6771 69.6853 58.7329C67.0147 59.0793 63.5285 59.0681 61.0032 57.9731C59.5841 57.3585 60.0087 54.3416 60.0087 53.1125C60.0087 52.0845 60.0758 51.0453 60.1875 50.0285C60.5897 46.3523 61.6289 42.7766 63.238 39.4356C64.5118 36.7651 66.1432 34.0722 69.2495 33.4129C72.5011 32.7202 75.2164 35.022 77.9875 36.2958C80.3899 37.402 81.7419 36.5416 84.0437 35.9717C84.6359 35.8265 85.2617 35.8935 85.8203 36.1058C85.3846 36.4522 84.5912 36.3852 84.2337 36.8545C83.7979 37.4243 84.3231 38.3518 83.8873 38.9216C83.5744 39.3351 82.9375 39.3127 82.4794 39.0557C82.0212 38.8099 81.686 38.3965 81.2614 38.1059C80.4793 37.5584 79.4736 37.4467 78.5238 37.402C77.2612 37.3461 75.9873 37.3685 74.7135 37.4914C73.138 37.6367 71.529 37.9383 70.1993 38.7764C68.8584 39.6144 67.8304 41.0894 67.9086 42.6761C67.931 43.1342 68.0651 43.6258 68.4227 43.9164C68.6238 44.0728 68.8696 44.151 69.1154 44.2292C69.92 44.4862 70.7803 44.7321 71.596 44.5198C72.11 44.3857 72.557 44.084 73.0263 43.827C74.6688 42.9777 76.6131 42.9107 78.4568 43.0671C80.3005 43.2236 82.133 43.5812 83.9879 43.5029C84.4683 43.4806 84.9712 43.4359 85.3958 43.2124C86.0885 42.8548 86.4796 42.095 86.7366 41.3575C87.0942 40.3072 87.3288 39.0781 87.1947 37.9607C87.1612 37.6255 87.0607 37.2679 87.0495 36.9439C87.1389 37.0333 87.2171 37.1338 87.2953 37.2344C88.9155 39.3798 87.8875 42.2068 86.5802 44.2069L86.6025 44.2292Z" fill="#3A3939"/>
<path d="M86.5243 44.3299C85.1611 46.3971 83.5186 48.3748 80.781 47.7379C79.6636 47.4809 78.5462 47.0452 77.3953 47.1681C75.6745 47.358 74.5124 48.833 73.8978 50.3303C72.9369 52.6544 72.6464 55.1015 71.5178 57.3922C71.339 57.7609 71.1267 58.152 70.7915 58.3866C70.4675 58.6101 70.0764 58.6772 69.6853 58.733C67.0147 59.0794 63.5285 59.0682 61.0032 57.9732C59.5841 57.3586 60.0087 54.3417 60.0087 53.1126C60.0087 52.0846 60.0758 51.0454 60.1875 50.0286C60.5897 46.3524 61.6289 42.7767 63.238 39.4358C64.5118 36.7652 66.1432 34.0723 69.2495 33.4131C70.7803 33.089 72.1994 33.4242 73.5515 34.0053C72.8922 33.9494 72.11 33.7706 71.6854 33.793C69.4059 33.9047 67.1153 34.7874 65.551 36.497C64.5118 37.6368 63.8414 39.067 63.2715 40.4861C62.0312 43.6148 61.1708 46.9781 61.439 50.3303C61.506 51.1907 61.6736 52.0734 62.1094 52.7997C62.8916 54.0959 64.6012 54.7328 66.0426 54.2747C68.0986 53.6377 69.026 51.3471 70.3557 49.6487C72.3335 47.1234 75.6856 45.749 78.8702 46.1401C79.6971 46.2406 80.5128 46.453 81.3396 46.4976C82.9375 46.5759 84.5466 46.006 85.7422 44.9333C85.9768 44.721 86.245 44.464 86.5243 44.2964V44.3299Z" fill="#333131"/>
<path d="M95.7007 62.5541C92.5162 65.2134 88.6612 67.1242 86.0241 70.3311C81.5099 75.8286 81.644 83.6838 82.0127 90.8016C82.2139 94.6566 82.415 98.5116 82.6161 102.367C82.6384 102.858 82.672 103.361 82.8061 103.83C82.8061 103.875 82.8284 103.92 82.8396 103.964C82.8731 104.065 82.9178 104.166 82.9513 104.277C83.0631 104.523 83.1971 104.735 83.3536 104.948C83.7335 105.451 84.2363 105.897 84.6274 106.4C85.4431 107.451 85.8006 108.769 85.8006 110.11C85.8006 110.278 85.8007 110.434 85.7783 110.602C85.7783 110.736 85.756 110.881 85.7448 111.015C85.7336 111.127 85.7224 111.227 85.7001 111.339C85.7001 111.395 85.6778 111.451 85.6778 111.507C85.6554 111.63 85.633 111.764 85.5995 111.898L85.566 112.065C85.5213 112.267 85.4655 112.468 85.3984 112.669C85.2867 113.004 85.1637 113.339 85.0296 113.663C85.0185 113.686 85.0073 113.708 84.9961 113.742C84.281 115.384 83.2083 116.87 82.1468 118.323C81.4875 119.228 80.683 120.211 79.5545 120.301C78.6047 120.368 77.7666 119.764 76.9621 119.273C76.8727 119.228 76.7945 119.172 76.7051 119.127C73.9899 117.596 70.8612 117.239 67.699 117.485C65.643 117.641 63.587 118.043 61.6204 118.535C61.4193 118.58 61.2181 118.636 61.017 118.692C58.6593 119.295 56.2905 120.01 53.8993 120.513C51.3405 121.06 48.7481 121.362 46.1558 121.06C45.5077 120.982 44.8484 120.859 44.3344 120.457C43.3847 119.708 43.3288 118.323 43.3623 117.127C43.3958 115.384 43.4293 113.63 43.474 111.887C43.6863 103.551 44.1333 95.2041 45.9882 87.0919C46.7145 83.885 47.6642 80.7339 48.8151 77.65C49.9549 74.633 51.3405 71.6496 53.5194 69.2696C55.8547 66.7219 59.0504 64.9341 61.5757 62.6211C62.7266 61.5707 63.7323 60.4087 64.4697 59.0231C64.6262 59.8053 64.9502 60.5427 65.4195 61.1797C65.7547 61.649 66.157 62.0512 66.6375 62.3753C66.5034 61.8836 66.3916 61.3808 66.3022 60.878C66.157 60.0511 66.0676 59.2131 66.0564 58.375C66.0676 58.889 69.1739 58.8667 69.5427 58.8778C70.2131 58.9225 70.8835 59.0119 71.5204 59.2354C71.811 59.336 72.1015 59.4589 72.3808 59.6265C73.3418 60.2075 73.8781 61.202 74.8503 61.7831C76.0012 62.4758 77.1856 62.4535 78.4818 62.1853C78.9064 62.0959 79.331 61.9842 79.7444 61.8501C80.169 61.716 80.6048 61.5707 81.0182 61.392C83.7558 60.2746 86.3594 58.3527 88.5383 56.1626C90.002 54.6988 91.2759 53.1121 92.2703 51.559C92.1586 51.4584 92.058 51.369 91.9351 51.2796C91.8234 51.1902 91.7228 51.112 91.611 51.045C91.4881 50.9556 91.3541 50.8774 91.22 50.7992C90.8401 50.5757 90.4378 50.3969 90.0244 50.274C89.9015 50.2293 89.7674 50.1958 89.6333 50.1622C89.1305 50.0393 88.6276 49.9723 88.1136 49.9834H88.1025C87.6332 49.9834 87.2644 49.5924 87.3091 49.1342C87.3203 49.0225 87.3315 48.9108 87.3426 48.799C87.4544 47.7487 87.5773 46.6983 87.689 45.6368C87.689 45.5698 87.7002 45.5027 87.7114 45.4469C87.7672 44.9329 88.2477 44.5641 88.7617 44.6535C89.0634 44.7094 89.3763 44.7653 89.678 44.8211C89.9573 44.877 90.2478 44.9329 90.5384 44.9999C90.8736 45.067 91.22 45.1452 91.544 45.2346C91.7898 45.2904 92.0357 45.3575 92.2815 45.4357C92.3597 45.458 92.438 45.4692 92.505 45.4916C92.6838 45.5363 92.8514 45.5921 93.0301 45.6592C93.1978 45.7039 93.3542 45.7597 93.5106 45.8044C93.6223 45.838 93.7229 45.8715 93.8346 45.9162C94.0693 46.0056 94.3039 46.0949 94.5386 46.1843C94.5833 46.1955 94.6169 46.2178 94.6616 46.2402C94.8739 46.3296 95.0973 46.419 95.3096 46.5195C95.466 46.5754 95.6113 46.6536 95.7678 46.7318C95.8125 46.7542 95.8683 46.7765 95.913 46.7989C96.1812 46.933 96.4382 47.0783 96.684 47.2347C97.1198 47.5029 97.5444 47.7934 97.9243 48.1174C98.0249 48.2068 98.1254 48.285 98.2148 48.3744C98.3154 48.4638 98.416 48.5532 98.5054 48.6538C98.74 48.8884 98.9523 49.1231 99.1534 49.3689C99.2428 49.4806 99.321 49.6035 99.3993 49.7153C99.4551 49.7935 99.511 49.8829 99.5557 49.9611C99.6116 50.0393 99.6674 50.1175 99.7121 50.2069C99.8462 50.4416 99.9691 50.6874 100.081 50.9332C100.114 51.0226 100.159 51.112 100.193 51.2126C100.271 51.4137 100.338 51.6148 100.394 51.8271C101.545 55.805 98.8741 59.9394 95.6895 62.5876L95.7007 62.5541Z" fill="#A88801"/>
<path d="M85.5674 112.032C85.5227 112.233 85.4669 112.434 85.3998 112.635C85.2881 112.971 85.1652 113.306 85.0311 113.63C84.2489 113.697 83.4444 113.663 82.6846 113.596C79.0419 113.284 75.1757 112.792 71.9018 114.423C70.7956 114.971 69.8123 115.742 68.8513 116.513C68.4602 116.826 68.0803 117.139 67.7004 117.451C65.6444 117.608 63.5884 118.01 61.6218 118.502C61.4207 118.546 61.2196 118.602 61.0184 118.658C58.6608 119.273 56.2919 119.977 53.9007 120.48H53.8672C52.1464 120.334 50.6491 119.306 49.2412 118.289C48.0009 117.373 46.7606 116.446 45.7214 115.306C44.8052 114.278 44.0789 113.094 43.4531 111.853C43.6654 103.518 44.1124 95.1707 45.9672 87.0585C46.6935 83.8516 47.6433 80.7006 48.7942 77.6166C49.934 74.5996 51.3195 71.6162 53.4984 69.2362C55.8338 66.6885 59.0295 64.9007 61.5548 62.5877C61.7671 62.4983 61.9682 62.4201 62.1805 62.3307C63.2532 61.9173 64.3259 61.515 65.3986 61.1351C65.6891 61.0234 65.9796 60.9228 66.2813 60.8222C68.0021 60.23 69.7452 59.6825 71.4995 59.1797C71.7901 59.2803 72.0806 59.4032 72.3599 59.5708C73.3209 60.1518 73.8572 61.1463 74.8293 61.7273C75.9802 62.4201 77.1647 62.3977 78.4608 62.1296C78.8854 62.0402 79.3101 61.9285 79.7235 61.7944C80.1481 61.6603 80.5839 61.515 80.9973 61.3362C81.0532 62.8894 79.7682 64.3197 78.5726 65.4259C76.9524 66.9343 75.321 68.4205 73.6896 69.9178C72.1811 71.2921 70.6503 72.7001 69.667 74.4991C68.7955 76.0969 68.4155 77.9071 68.0356 79.6837C66.9965 84.6785 67.3876 89.9078 66.9518 95.0031C66.7395 97.4837 69.1754 99.3386 71.466 100.333C75.1087 101.909 79.0642 102.624 82.8075 103.953C82.841 104.054 82.8745 104.155 82.9192 104.266C83.031 104.512 83.165 104.724 83.3215 104.937C83.7126 105.439 84.2042 105.886 84.6065 106.389C85.8244 107.954 86.0032 110.099 85.5451 112.032H85.5674Z" fill="#81797B"/>
<path d="M95.6999 62.5543C92.5153 65.2137 88.6603 67.1244 86.0233 70.3313C81.509 75.8289 81.6431 83.6841 82.0119 90.8019C82.213 94.6568 82.4141 98.5118 82.6041 102.367C82.6264 102.858 82.6599 103.361 82.794 103.831C82.4141 103.428 82.023 103.037 81.6543 102.624C76.8048 97.2045 76.2126 89.2822 76.235 81.9968C76.235 80.1643 76.2685 78.276 76.9948 76.5999C77.9557 74.3539 80.0006 72.7784 81.9895 71.3482C88.0681 66.9568 94.5824 62.6549 98.3033 56.1405C98.7279 55.3807 99.1302 54.5762 99.1637 53.6935C99.1973 53.0007 98.985 52.3302 98.7168 51.6933C96.739 47.1456 92.2359 45.6259 87.7217 45.5924C87.7217 45.5254 87.7329 45.4583 87.744 45.4024C87.7999 44.8884 88.2804 44.5197 88.7944 44.6091C89.0961 44.665 89.409 44.7208 89.7106 44.7767C89.99 44.8326 90.2805 44.8884 90.571 44.9555C90.9062 45.0225 91.2527 45.1119 91.5767 45.1901C91.8225 45.246 92.0683 45.3131 92.3141 45.3913C92.3924 45.4136 92.4594 45.4248 92.5376 45.4471C92.7164 45.4918 92.8841 45.5477 93.0628 45.6147C93.2305 45.6594 93.3869 45.7153 93.5433 45.7712C93.6551 45.8047 93.7556 45.8382 93.8673 45.8829C94.102 45.9723 94.3366 46.0617 94.5713 46.1511C94.616 46.1623 94.6495 46.1846 94.6942 46.2069C94.9065 46.2963 95.13 46.3857 95.3423 46.4863C95.4987 46.5422 95.644 46.6204 95.8004 46.6986C95.8451 46.7209 95.901 46.7433 95.9457 46.7656C96.2138 46.8997 96.4708 47.045 96.7167 47.2014C97.1524 47.4696 97.577 47.7601 97.9569 48.0842C98.0575 48.1736 98.1581 48.2518 98.2475 48.3412C98.348 48.4306 98.4486 48.5199 98.538 48.6205C98.7726 48.8552 98.985 49.0898 99.1861 49.3356C99.2755 49.4474 99.3537 49.5703 99.4319 49.682C99.4878 49.7603 99.5436 49.8496 99.5883 49.9279C99.6442 50.0061 99.7001 50.0843 99.7448 50.1737C99.8789 50.4083 100.002 50.6542 100.114 50.9C100.147 50.9894 100.192 51.0788 100.225 51.1793C100.303 51.3805 100.371 51.5816 100.426 51.7939C101.577 55.7718 98.9067 59.9061 95.7222 62.5543H95.6999Z" fill="#FF5C92"/>
<path d="M85.5686 112.032C80.5516 110.714 75.0316 109.663 70.0816 111.406C66.2155 112.77 63.9695 116.133 61.0196 118.636C60.0922 119.418 59.0977 120.122 57.9691 120.647C54.5164 122.245 50.695 121.932 47.0411 122.603C43.4878 123.251 39.9904 125.318 36.303 124.893C32.7162 124.48 27.498 120.703 25.9113 117.239C25.8778 117.161 25.8443 117.083 25.7996 116.993C24.9727 114.971 26.0342 112.725 26.8499 110.702C29.7328 103.585 27.4533 96.8133 29.0176 89.6174C29.364 88.053 29.5652 87.2262 29.5763 86.6116C29.5763 85.6953 29.1517 85.2372 28.0455 83.5053C27.6544 82.8795 27.688 82.0974 27.7327 81.3599C28.1684 74.298 27.051 65.0125 31.8111 59.1798C34.7387 55.5929 39.0853 53.8833 43.6107 53.5369C49.5329 53.09 56.6171 54.5873 62.0588 56.8668C63.4443 57.4478 64.7405 57.973 66.0702 58.3193C66.3384 58.3864 66.6065 58.4534 66.8747 58.5093C67.4222 58.6322 67.9809 58.7104 68.5396 58.7551C69.7687 58.8445 70.7297 58.4758 71.8806 59.1686C72.9645 59.8278 73.6461 60.9341 74.7076 61.6268C74.8417 61.7162 74.9758 61.7944 75.1099 61.8615C76.1602 62.409 77.2776 62.3755 78.4732 62.1185C78.8978 62.0291 79.3224 61.9173 79.7359 61.7833C78.5738 63.3811 76.9983 64.6885 75.1881 65.493C71.8583 66.9679 67.7463 66.9121 65.1316 69.4485C61.2543 73.2141 61.7012 82.332 60.7738 87.3603C60.1369 90.8242 59.9246 94.5786 61.3883 97.7631C61.4666 97.9419 61.556 98.1095 61.6454 98.2771C62.0029 98.9699 62.4611 99.5845 62.9751 100.143C64.6735 102.009 67.1094 103.205 69.5564 103.763C70.3051 103.942 75.6909 104.099 80.6298 104.59C81.5572 104.691 82.4734 104.791 83.345 104.903C83.4232 105.004 83.5126 105.104 83.5908 105.205C83.926 105.596 84.306 105.954 84.6188 106.356C85.8368 107.92 86.0156 110.066 85.5574 111.999L85.5686 112.032Z" fill="#15181B"/>
<path d="M83.7361 109.384C78.719 108.065 73.1991 107.015 68.2491 108.758C64.383 110.11 62.137 113.485 59.1871 115.988C58.2597 116.77 57.2652 117.474 56.1367 117.999C52.6839 119.597 48.8625 119.284 45.2086 119.966C41.6553 120.614 38.1579 122.681 34.4705 122.256C31.7999 121.943 28.2243 119.776 25.9113 117.25C25.8778 117.172 25.8443 117.094 25.7996 117.005C24.9727 114.982 26.0342 112.736 26.8499 110.714C29.7328 103.596 27.4533 96.8245 29.0176 89.6285C29.364 88.0642 29.5652 87.2373 29.5763 86.6228C29.5763 85.7065 29.1517 85.2484 28.0455 83.5164C27.6544 82.8907 27.688 82.1085 27.7327 81.371C28.1684 74.3092 27.051 65.0237 31.8111 59.1909C34.7387 55.6041 39.0853 53.8945 43.6107 53.5481C45.2533 53.4252 46.9852 53.4475 48.7395 53.604C53.332 53.9951 58.1256 55.2354 62.0588 56.8779C63.4443 57.459 64.7405 57.9841 66.0702 58.3305C66.3384 58.3976 66.6065 58.4646 66.8747 58.5205C67.4222 58.6434 67.9809 58.7216 68.5396 58.7663C69.0424 58.7998 69.5118 58.7663 69.9587 58.7551C70.5956 58.7328 71.2102 58.7775 71.8806 59.1798C72.9645 59.839 73.6461 60.9452 74.7076 61.638C74.8417 61.7274 74.9758 61.8056 75.1099 61.8727C74.5623 62.2526 73.9701 62.5878 73.3556 62.8559C70.0258 64.3309 65.9138 64.275 63.2991 66.8115C59.4218 70.5771 59.8687 79.695 58.9413 84.7232C58.2708 88.3882 58.0697 92.3549 59.8128 95.6512C60.1704 96.344 60.6285 96.9586 61.1425 97.5173C61.2207 97.6067 61.3101 97.6961 61.3883 97.7743C61.4666 97.9531 61.556 98.1207 61.6454 98.2883C62.0029 98.9811 62.4611 99.5956 62.9751 100.154C64.6735 102.02 67.1094 103.216 69.5564 103.775C70.3051 103.953 75.6909 104.11 80.6298 104.602C81.5572 104.702 82.4734 104.803 83.345 104.914C83.4232 105.015 83.5126 105.116 83.5908 105.216C84.049 106.523 84.049 107.998 83.7249 109.373L83.7361 109.384Z" fill="#191919"/>
<path d="M69.9556 58.7439C67.0615 60.0289 63.43 60.744 61.3741 62.1966C58.5024 64.2191 56.9492 67.683 56.2787 71.1357C55.6195 74.5884 55.72 78.1306 55.4407 81.6391C55.396 82.2314 55.3178 82.8682 54.9044 83.2929C54.6362 83.5722 54.2563 83.7175 53.8875 83.8404C50.0102 85.1701 45.8982 85.7735 41.8086 85.617C44.0769 85.1701 46.3228 84.6002 48.5353 83.9186C49.7867 83.5275 51.1276 83.047 51.8874 81.9743C52.7366 80.7899 52.6584 79.1921 52.569 77.7283C52.3903 74.9237 52.312 72.0743 52.8931 69.3144C53.4741 66.5656 54.7926 63.8727 57.0051 62.1295C57.2285 61.9508 57.4632 61.7832 57.6978 61.6156C59.698 60.23 59.2734 57.1684 56.9715 56.3862C54.2228 55.4476 51.4852 54.5201 48.7252 53.5815C53.3177 53.9726 58.1113 55.2129 62.0445 56.8555C63.43 57.4365 64.7262 57.9617 66.0559 58.3081C66.324 58.3751 66.5922 58.4422 66.8604 58.498C67.4079 58.621 67.9666 58.6992 68.5253 58.7439C69.0281 58.7774 69.4974 58.7439 69.9444 58.7327L69.9556 58.7439Z" fill="#15181B"/>
<path d="M44.3254 114.982C46.8172 114.312 49.4207 113.373 50.9627 111.295C52.4153 109.339 52.6388 106.758 52.717 104.322C52.8958 99.0371 52.6276 93.7407 51.946 88.5002C51.9237 88.299 51.8902 88.0867 51.7672 87.9079C51.5102 87.5169 50.9515 87.5057 50.4934 87.5727C48.0463 87.8856 45.8004 88.9918 43.4874 89.8634C40.1017 91.126 36.5149 91.8747 32.9057 92.0758C35.297 92.0423 37.4088 90.6679 39.5542 89.6064C43.5433 87.6286 47.9681 86.7012 52.3371 85.7961C53.0969 85.6397 53.9908 85.5056 54.5719 86.0196C54.9853 86.3771 55.1306 86.9694 55.2088 87.5057C55.5663 90.0198 55.1641 92.5674 54.9183 95.0927C54.6725 97.618 54.5831 100.255 55.544 102.602C56.4938 104.959 58.7397 106.948 61.2762 106.881C63.8909 106.814 66.4609 104.68 68.8744 105.674C66.8184 107.965 64.2373 109.731 61.5667 111.261C54.6277 115.206 46.8172 117.608 38.8614 118.223C37.2859 118.346 35.6657 118.401 34.1237 118.055C32.8275 117.776 31.4531 117.228 30.4922 116.312C31.0621 115.027 35.2746 116.245 36.6937 116.211C39.2748 116.155 41.8225 115.653 44.3031 114.982H44.3143H44.3254Z" fill="#15181B"/>
<path d="M63.0749 64.018C60.6279 65.8505 58.6054 68.387 57.8567 71.3481C57.5439 72.566 57.4657 73.8287 57.3763 75.0801C57.1751 78.0747 56.9628 81.0693 56.7617 84.0528C56.9964 81.7509 57.2422 79.4603 57.4768 77.1585C57.7673 74.3538 58.0914 71.4598 59.544 69.0462C61.5218 65.7835 65.2315 63.9957 68.8518 62.8112C69.5893 62.5654 71.5894 62.1073 71.8911 61.2581C72.2152 60.3418 70.9972 60.2524 70.2821 60.3642C67.8574 60.7329 64.9857 62.5878 63.0749 64.0292V64.018Z" fill="#262525"/>
<path d="M29.3522 108.68C29.0394 110.088 28.7935 111.719 29.7209 112.814C30.112 113.272 30.6484 113.563 31.2071 113.798C32.9055 114.501 34.8386 114.658 36.6264 114.256C34.8497 114.289 32.8049 113.909 31.8999 112.367C31.3747 111.485 31.3411 110.389 31.3523 109.361C31.3747 106.099 31.5646 102.847 31.9557 99.6067C32.0675 98.6904 32.1904 97.763 32.0228 96.8691C31.8887 96.0981 30.9501 94.3773 30.4584 95.8523C30.3243 96.2769 30.7378 97.4054 30.7825 97.8859C30.8495 98.6234 30.8495 99.372 30.8271 100.121C30.7154 103.015 29.9891 105.853 29.3522 108.669V108.68Z" fill="#262525"/>
<path d="M30.3333 84.0529C29.8305 83.8853 29.283 83.6506 29.0707 83.1702C28.9813 82.9579 28.9701 82.7232 28.959 82.4997C28.7466 76.991 29.2271 71.4599 30.4004 66.0741C30.6686 64.8338 30.9814 63.5824 31.5066 62.4203C32.4228 60.4202 33.9425 58.7776 35.5068 57.2356C36.0432 56.6992 36.5907 56.1741 37.2835 55.8612C37.9204 55.5819 38.6243 55.5037 39.3283 55.4478C42.0994 55.2355 44.8929 55.2355 47.664 55.4478C48.759 55.5372 49.8541 55.6489 50.8821 56.0288C51.5749 56.2858 52.2229 56.6546 52.871 57.0233L55.9327 58.7776C53.642 58.0066 51.3514 57.2468 49.0384 56.5652C47.7087 56.1741 46.3455 55.8053 44.9599 55.8724C43.5185 55.9394 42.1441 56.4646 40.8144 57.0233C38.5349 57.9843 36.1773 59.1799 34.9705 61.3364C34.7805 61.6828 34.6241 62.0739 34.6912 62.4538C34.8476 63.3477 36.0208 63.5935 36.9259 63.56C38.6355 63.493 40.3451 63.1689 42.0659 63.2471C44.7029 63.3589 47.3064 64.4204 49.8988 64.0181C45.418 65.4596 40.5127 63.7276 35.8644 64.4316C34.9146 64.5768 33.909 64.8673 33.3168 65.616C32.9704 66.063 32.8028 66.6217 32.6687 67.1692C32.3335 68.5547 32.177 69.9738 32.0094 71.3817C31.7189 73.9517 31.4172 76.5217 31.1267 79.0917C31.0485 79.7957 30.9814 80.5443 31.3278 81.1589C31.596 81.6282 32.0765 81.9299 32.5458 82.2092C33.7078 82.9243 34.9034 83.6506 36.2555 83.8294C37.3058 83.9635 38.3785 83.7624 39.4065 83.5613C40.9038 83.2707 42.4011 82.969 43.8984 82.6785C43.038 82.8461 42.3676 83.8629 41.6078 84.2429C40.5686 84.7568 39.0378 84.835 37.8869 84.9244C35.3392 85.1256 32.7469 84.8351 30.311 84.0417H30.3222L30.3333 84.0529Z" fill="#262525"/>
<path d="M41.2381 100.143C44.0651 99.7633 46.881 99.3833 49.7079 99.0034C49.004 99.8862 47.8531 100.288 46.7692 100.624C44.5009 101.305 42.1879 101.864 39.8638 102.311C38.657 102.534 37.439 102.724 36.2323 102.881C35.5507 102.97 33.4276 103.574 32.8801 103.227C32.0421 102.702 34.2321 101.775 34.8243 101.529C36.8356 100.702 39.1039 100.434 41.2493 100.154L41.2381 100.143Z" fill="#262525"/>
<path d="M56.3918 90.7014C56.9505 93.1373 55.5873 95.685 55.9896 98.1544C56.2019 99.4282 56.8611 100.579 57.5092 101.685C57.9338 102.4 58.3584 103.138 58.9953 103.674C60.5261 104.982 62.7832 104.825 64.7722 104.512C62.3698 104.356 60.2915 102.624 59.1182 100.523C57.9561 98.4226 57.5651 95.9755 57.3416 93.5842C57.2075 92.1093 57.0846 90.5226 56.1236 89.394C56.1236 89.8633 56.2801 90.2433 56.3806 90.7014H56.3918Z" fill="#262525"/>
<path d="M33.4727 79.9186C33.4727 80.2315 33.4838 80.5444 33.6291 80.8125C33.752 81.0584 33.9755 81.226 34.199 81.3712C34.8694 81.807 35.6627 82.0528 36.4672 82.0752C35.3834 81.4383 34.8359 80.1421 34.7576 78.8906C34.6794 77.6392 34.9923 76.4101 35.2604 75.1809C35.9085 72.3428 36.3778 69.4599 36.6907 66.5659C36.713 66.32 36.7243 66.0407 36.5455 65.8731C35.741 65.158 35.4951 67.3927 35.3946 67.7727C35.037 69.1247 34.59 70.4432 34.2995 71.8064C33.7296 74.4658 33.4503 77.1922 33.4838 79.9075L33.4727 79.9186Z" fill="#262525"/>
<path d="M93.078 51.9393C92.955 53.336 91.603 54.2523 90.4074 54.9786C89.7817 55.3473 89.1671 55.7272 88.5414 56.1183C90.0052 54.6545 91.279 53.0678 92.2735 51.5147C92.1617 51.4141 92.0612 51.3247 91.9383 51.2353C91.8265 51.1459 91.7259 51.0677 91.6142 51.0007C91.4913 50.9113 91.3572 50.8331 91.2231 50.7549C90.8432 50.5314 90.4409 50.3526 90.0275 50.2297C89.9046 50.185 89.7705 50.1515 89.6364 50.1179C89.1336 49.995 88.6308 49.928 88.1168 49.9391H88.1056C87.6363 49.9391 87.2676 49.5481 87.3123 49.09C87.3234 48.9782 87.3346 48.8665 87.3458 48.7547C89.7705 47.9837 93.3238 49.2576 93.0668 51.9393H93.078Z" fill="#81797B"/>
<path d="M84.2494 114.524C84.5064 114.267 84.7745 113.999 84.998 113.708C84.2829 115.351 83.2102 116.837 82.1487 118.29C81.4894 119.195 80.6849 120.189 79.5564 120.268C78.6066 120.346 77.7685 119.731 76.964 119.24C76.8746 119.195 76.7964 119.139 76.707 119.094C77.5674 119.161 78.5507 119.508 79.3552 119.195C79.7575 119.027 80.0815 118.714 80.3944 118.402C81.6794 117.117 82.9755 115.82 84.2605 114.535L84.2494 114.524Z" fill="#FF5C92"/>
</svg>
