<svg width="19" height="17" viewBox="0 0 19 17" fill="none" xmlns="http://www.w3.org/2000/svg">
<path fill-rule="evenodd" clip-rule="evenodd" d="M0.5 15.25C0.5 14.8358 0.83579 14.5 1.25 14.5H17.25C17.6642 14.5 18 14.8358 18 15.25C18 15.6642 17.6642 16 17.25 16H1.25C0.83579 16 0.5 15.6642 0.5 15.25Z" fill="black"/>
<path fill-rule="evenodd" clip-rule="evenodd" d="M0.5 1.25C0.5 0.83579 0.83579 0.5 1.25 0.5H17.25C17.6642 0.5 18 0.83579 18 1.25C18 1.66421 17.6642 2 17.25 2H1.25C0.83579 2 0.5 1.66421 0.5 1.25Z" fill="black"/>
<path fill-rule="evenodd" clip-rule="evenodd" d="M0.5 8.25C0.5 7.8358 0.83579 7.5 1.25 7.5H17.25C17.6642 7.5 18 7.8358 18 8.25C18 8.6642 17.6642 9 17.25 9H1.25C0.83579 9 0.5 8.6642 0.5 8.25Z" fill="black"/>
<path fill-rule="evenodd" clip-rule="evenodd" d="M0.5 15.25C0.5 14.8358 0.83579 14.5 1.25 14.5H17.25C17.6642 14.5 18 14.8358 18 15.25C18 15.6642 17.6642 16 17.25 16H1.25C0.83579 16 0.5 15.6642 0.5 15.25Z" stroke="black"/>
<path fill-rule="evenodd" clip-rule="evenodd" d="M0.5 1.25C0.5 0.83579 0.83579 0.5 1.25 0.5H17.25C17.6642 0.5 18 0.83579 18 1.25C18 1.66421 17.6642 2 17.25 2H1.25C0.83579 2 0.5 1.66421 0.5 1.25Z" stroke="black"/>
<path fill-rule="evenodd" clip-rule="evenodd" d="M0.5 8.25C0.5 7.8358 0.83579 7.5 1.25 7.5H17.25C17.6642 7.5 18 7.8358 18 8.25C18 8.6642 17.6642 9 17.25 9H1.25C0.83579 9 0.5 8.6642 0.5 8.25Z" stroke="black"/>
</svg>
