<svg width="321" height="296" viewBox="0 0 321 296" fill="none" xmlns="http://www.w3.org/2000/svg">
<mask id="mask0_1313_6659" style="mask-type:luminance" maskUnits="userSpaceOnUse" x="0" y="14" width="321" height="268">
<path d="M321 14.5H0V281.5H321V14.5Z" fill="white"/>
</mask>
<g mask="url(#mask0_1313_6659)">
<path fill-rule="evenodd" clip-rule="evenodd" d="M158.898 281.19C-131.452 122.8 78.5778 -74.1498 158.898 58.5002C239.288 -74.1598 449.308 122.8 158.898 281.19Z" fill="#A8DAFF"/>
<path style="mix-blend-mode:soft-light" fill-rule="evenodd" clip-rule="evenodd" d="M158.898 281.19C-131.452 122.8 78.5778 -74.1498 158.898 58.5002C239.288 -74.1598 449.308 122.8 158.898 281.19Z" fill="url(#paint0_linear_1313_6659)"/>
<g style="mix-blend-mode:soft-light">
<path fill-rule="evenodd" clip-rule="evenodd" d="M158.898 281.19C-131.452 122.8 78.5778 -74.1498 158.898 58.5002C239.288 -74.1598 449.308 122.8 158.898 281.19Z" fill="#FAC686"/>
</g>
<path d="M60.3477 210.78C60.4277 210.39 60.4977 210 60.5777 209.62" stroke="white" stroke-width="1.02" stroke-miterlimit="10" stroke-linecap="round"/>
<path d="M61.2294 206.54C62.7694 199.5 64.3794 193.59 63.8294 190.11C61.9094 177.94 53.4294 168.08 44.8594 159.09" stroke="white" stroke-width="1.02" stroke-miterlimit="10" stroke-linecap="round" stroke-dasharray="3.07 4.09"/>
<path d="M43.7575 157.95C43.4775 157.67 43.2075 157.38 42.9375 157.09" stroke="white" stroke-width="1.02" stroke-miterlimit="10" stroke-linecap="round"/>
<path d="M115.87 256.08C115.51 256.22 115.14 256.36 114.77 256.5" stroke="#D0D8FF" stroke-width="1.02" stroke-miterlimit="10" stroke-linecap="round"/>
<path d="M111.818 257.52C99.4578 261.52 84.5578 262.88 71.8178 253.19C57.6478 242.41 57.5978 226.84 59.8578 213.49" stroke="#D0D8FF" stroke-width="1.02" stroke-miterlimit="10" stroke-linecap="round" stroke-dasharray="3.03 4.05"/>
<path d="M60.1289 211.95C60.1989 211.56 60.2789 211.17 60.3489 210.79" stroke="#D0D8FF" stroke-width="1.02" stroke-miterlimit="10" stroke-linecap="round"/>
<path d="M208.54 250.6C208.16 250.48 207.79 250.36 207.41 250.24" stroke="white" stroke-width="1.02" stroke-miterlimit="10" stroke-linecap="round"/>
<path d="M204.5 249.29C198.66 247.38 193.02 245.43 187.69 244.14C172.34 240.42 150.77 240.13 136.2 246.23C133.62 247.31 127 251.51 118.41 255.08" stroke="white" stroke-width="1.02" stroke-miterlimit="10" stroke-linecap="round" stroke-dasharray="2.98 3.98"/>
<path d="M116.979 255.66C116.619 255.81 116.249 255.95 115.879 256.09" stroke="white" stroke-width="1.02" stroke-miterlimit="10" stroke-linecap="round"/>
<path d="M266.566 195.66C266.706 196.03 266.846 196.4 266.986 196.76" stroke="#D0D8FF" stroke-width="1.02" stroke-miterlimit="10" stroke-linecap="round"/>
<path d="M268.007 199.69C274.557 219.55 272.377 238.07 255.877 249.07C241.597 258.6 225.947 255.87 211.137 251.4" stroke="#D0D8FF" stroke-width="1.02" stroke-miterlimit="10" stroke-linecap="round" stroke-dasharray="3.01 4.02"/>
<path d="M209.669 250.95C209.289 250.83 208.919 250.72 208.539 250.59" stroke="#D0D8FF" stroke-width="1.02" stroke-miterlimit="10" stroke-linecap="round"/>
<path d="M193.199 24.9502C193.529 25.1702 193.859 25.3802 194.179 25.6002" stroke="white" stroke-width="1.02" stroke-miterlimit="10" stroke-linecap="round"/>
<path d="M196.738 27.46C197.398 27.98 198.058 28.51 198.708 29.06C209.318 38.15 216.498 51.07 228.238 58.64C241.008 66.88 263.038 66.67 276.438 74.86C291.228 83.9 296.978 104.44 285.478 121.7C277.688 133.39 254.678 156.29 256.718 170.19C258.108 179.68 261.998 184.84 265.538 193.1" stroke="white" stroke-width="1.02" stroke-miterlimit="10" stroke-linecap="round" stroke-dasharray="3.08 4.1"/>
<path d="M266.137 194.56C266.287 194.92 266.427 195.29 266.567 195.66" stroke="white" stroke-width="1.02" stroke-miterlimit="10" stroke-linecap="round"/>
<path d="M127.898 26.5504C128.218 26.3204 128.538 26.0904 128.868 25.8804" stroke="#D0D8FF" stroke-width="1.02" stroke-miterlimit="10" stroke-linecap="round"/>
<path d="M131.43 24.2404C149.16 13.6004 172.97 13.2504 190.9 23.5504" stroke="#D0D8FF" stroke-width="1.02" stroke-miterlimit="10" stroke-linecap="round" stroke-dasharray="2.95 3.93"/>
<path d="M192.199 24.3301C192.529 24.5401 192.869 24.7501 193.189 24.9501" stroke="#D0D8FF" stroke-width="1.02" stroke-miterlimit="10" stroke-linecap="round"/>
<path d="M45.1098 146.21C44.7698 146.01 44.4298 145.81 44.0898 145.6" stroke="white" stroke-width="1.02" stroke-miterlimit="10" stroke-linecap="round"/>
<path d="M41.4701 143.82C30.7101 135.75 24.4601 121.81 25.9801 108.39C27.6601 93.53 38.7701 80.16 53.0701 75.79C63.4901 72.6 75.0201 73.88 85.1001 69.72C101.65 62.88 109.17 43.97 122 31.48C123.18 30.33 124.41 29.24 125.69 28.23" stroke="white" stroke-width="1.02" stroke-miterlimit="10" stroke-linecap="round" stroke-dasharray="3.09 4.12"/>
<path d="M126.949 27.2501C127.269 27.0101 127.579 26.7801 127.899 26.5601" stroke="white" stroke-width="1.02" stroke-miterlimit="10" stroke-linecap="round"/>
<path d="M239.25 256.32C240.72 254.23 242.64 252.48 244.83 251.25C245.88 250.66 247.04 250.18 248.24 250.26C249.44 250.33 250.68 251.06 251.06 252.25C251.41 253.36 250.97 254.56 250.32 255.5C248.28 258.49 244.12 259.67 240.82 258.2" fill="#3A3939"/>
<path d="M239.019 256.62C236.339 257.79 234.239 260.28 233.479 263.19C233.089 264.67 233.259 266.66 234.649 267.26C235.509 267.63 236.479 267.29 237.259 266.8C239.669 265.3 241.139 262.34 240.919 259.41" fill="#3A3939"/>
<path d="M227.828 243.88C228.408 240.65 230.948 237.92 234.058 237.21C235.078 236.98 236.168 236.96 237.138 237.4C238.098 237.84 238.878 238.82 238.888 239.91C238.888 240.85 238.348 241.7 237.718 242.37C235.618 244.63 232.388 245.71 229.368 245.15" fill="#3A3939"/>
<path d="M227.38 244.38C225.2 245.81 223.6 248.17 223.03 250.8C222.69 252.35 222.94 254.37 224.37 255C225.27 255.39 226.31 255.04 227.04 254.39C227.77 253.74 228.22 252.85 228.67 251.98C229.58 250.19 230.12 247.72 229.57 245.38" fill="#3A3939"/>
<path d="M211.797 231.83C212.017 228.14 214.617 224.48 218.167 224.15C218.887 224.08 219.637 224.15 220.257 224.54C221.457 225.29 221.787 227.05 221.287 228.37C220.787 229.7 219.647 230.65 218.447 231.36C217.157 232.12 215.747 232.65 214.287 232.93" fill="#3A3939"/>
<path d="M211.888 232.39C210.408 233.97 209.508 236.12 209.388 238.34C209.298 240.04 209.898 242.06 211.458 242.61C212.558 243 213.818 242.49 214.578 241.59C215.338 240.69 215.678 239.48 215.818 238.3C216.038 236.54 215.668 234.41 214.118 233.61" fill="#3A3939"/>
<path d="M194.328 222.51C194.478 220.58 194.998 218.68 195.828 216.96C196.728 215.09 198.578 213.23 200.508 213.93C201.938 214.46 202.648 216.28 202.378 217.83C202.108 219.36 201.108 220.64 200.028 221.72C198.908 222.85 197.628 223.86 196.118 224.3" fill="#3A3939"/>
<path d="M193.979 223.29C192.199 225.25 191.299 228.04 191.589 230.74C191.709 231.87 192.089 233.08 193.019 233.72C194.639 234.82 196.919 233.38 197.449 231.48C197.979 229.58 196.949 226.76 196.319 224.87" fill="#3A3939"/>
<path d="M188.078 221.48C210.768 228.64 231.628 243.96 244.518 264.87C244.758 265.26 245.308 264.83 245.068 264.45C232.128 243.45 211.148 228.03 188.358 220.84C187.928 220.71 187.668 221.36 188.088 221.5L188.078 221.48Z" fill="#3A3939"/>
<path d="M149.25 132.22C157.94 104.37 178.63 82.1504 198.69 60.9704C214.48 44.3004 231.08 27.0804 252.65 19.2204C256.83 17.7004 265.94 16.5404 270 18.3604C278.9 22.3604 275.84 38.9204 271.56 49.3704C265.76 63.5204 257.72 76.8004 247.37 88.0604C244.15 91.5604 240.64 95.0304 239.08 99.5204C237.91 102.88 237.96 106.52 237.32 110.01C234.87 123.32 222.82 132.79 210.44 138.26C194.47 145.3 176.53 147.78 159.26 145.34C155.7 144.84 151.43 143.45 150.74 139.92" fill="#FF7E6B"/>
<g style="mix-blend-mode:soft-light">
<path d="M149.25 132.22C157.94 104.37 178.63 82.1504 198.69 60.9704C214.48 44.3004 231.08 27.0804 252.65 19.2204C256.83 17.7004 265.94 16.5404 270 18.3604C278.9 22.3604 275.84 38.9204 271.56 49.3704C265.76 63.5204 257.72 76.8004 247.37 88.0604C244.15 91.5604 240.64 95.0304 239.08 99.5204C237.91 102.88 237.96 106.52 237.32 110.01C234.87 123.32 222.82 132.79 210.44 138.26C194.47 145.3 176.53 147.78 159.26 145.34C155.7 144.84 151.43 143.45 150.74 139.92" fill="url(#paint1_linear_1313_6659)"/>
</g>
<path d="M254.749 35.92C253.009 37.84 251.269 39.76 249.549 41.7C247.829 43.64 246.109 45.58 244.409 47.54C242.699 49.5 241.009 51.46 239.319 53.43C237.629 55.4 235.959 57.39 234.299 59.38C232.639 61.37 230.989 63.38 229.359 65.4C227.719 67.42 226.099 69.44 224.489 71.49C222.879 73.53 221.289 75.59 219.709 77.65C218.129 79.71 216.569 81.78 215.019 83.87C213.469 85.95 211.939 88.05 210.439 90.16C208.939 92.27 207.439 94.39 205.959 96.52C204.479 98.65 203.029 100.79 201.589 102.95C200.159 105.1 198.739 107.27 197.349 109.45C195.949 111.63 194.589 113.82 193.239 116.03C191.889 118.24 190.559 120.45 189.259 122.68C187.959 124.91 186.679 127.15 185.419 129.41C184.159 131.67 182.939 133.94 181.729 136.22C180.529 138.5 179.349 140.8 178.199 143.11C177.049 145.42 175.919 147.75 174.829 150.08C173.729 152.42 172.659 154.77 171.619 157.14C170.579 159.51 169.569 161.89 168.589 164.29C168.119 165.44 167.659 166.6 167.189 167.75C167.149 167.85 167.239 167.97 167.329 168C167.449 168.03 167.539 167.96 167.579 167.86C168.529 165.45 169.509 163.06 170.519 160.69C171.529 158.31 172.569 155.95 173.639 153.59C174.709 151.24 175.809 148.9 176.929 146.58C178.059 144.26 179.209 141.96 180.379 139.67C181.549 137.38 182.759 135.1 183.989 132.84C185.219 130.58 186.479 128.31 187.759 126.08C189.039 123.84 190.339 121.61 191.669 119.39C192.999 117.18 194.349 114.97 195.719 112.78C197.089 110.59 198.469 108.43 199.879 106.28C201.279 104.13 202.729 101.96 204.179 99.82C205.629 97.68 207.109 95.55 208.599 93.43C210.089 91.31 211.609 89.2 213.139 87.11C214.669 85.02 216.199 82.95 217.749 80.89C219.299 78.83 220.889 76.76 222.479 74.71C224.069 72.66 225.679 70.62 227.309 68.59C228.939 66.56 230.569 64.55 232.219 62.54C233.869 60.53 235.519 58.55 237.199 56.57C238.869 54.59 240.549 52.62 242.239 50.66C243.939 48.7 245.639 46.74 247.359 44.8C249.079 42.86 250.799 40.92 252.539 38.99C253.369 38.06 254.209 37.14 255.049 36.22C255.219 36.03 254.939 35.75 254.759 35.93L254.749 35.92Z" fill="#D0D8FF"/>
<path d="M240.098 31.3203C240.158 33.4603 240.218 35.6003 240.288 37.7403C240.348 39.8803 240.408 42.0203 240.468 44.1603C240.508 45.3603 240.538 46.5703 240.578 47.7703C240.578 48.0203 240.988 48.0203 240.978 47.7703C240.918 45.6303 240.858 43.4903 240.788 41.3503C240.728 39.2103 240.668 37.0703 240.608 34.9303C240.568 33.7303 240.538 32.5203 240.498 31.3203C240.498 31.0703 240.088 31.0703 240.098 31.3203Z" fill="#D0D8FF"/>
<path d="M232.608 46.6704C232.318 47.7504 232.318 48.9104 232.608 49.9904C232.678 50.2404 233.058 50.1304 232.998 49.8804C232.718 48.8704 232.718 47.7904 232.998 46.7704C233.068 46.5204 232.678 46.4204 232.618 46.6604L232.608 46.6704Z" fill="#D0D8FF"/>
<path d="M215.738 50.8601C215.818 51.9801 215.938 53.0901 216.068 54.2001C216.238 55.6001 216.438 57.0101 216.648 58.4101C216.868 59.9101 217.108 61.4001 217.368 62.8901C217.608 64.3001 217.858 65.7101 218.128 67.1201C218.348 68.2601 218.568 69.4001 218.818 70.5301C218.838 70.6501 218.868 70.7601 218.898 70.8701C218.948 71.1201 219.338 71.0201 219.288 70.7601C219.038 69.6701 218.818 68.5801 218.608 67.4901C218.348 66.1101 218.088 64.7301 217.858 63.3501C217.608 61.8601 217.368 60.3701 217.128 58.8801C216.908 57.4801 216.708 56.0701 216.538 54.6601C216.388 53.5101 216.258 52.3601 216.168 51.2001C216.168 51.0801 216.158 50.9701 216.148 50.8501C216.128 50.6001 215.728 50.6001 215.748 50.8501L215.738 50.8601Z" fill="#D0D8FF"/>
<path d="M211.287 69.4002C211.497 71.1102 211.707 72.8302 211.917 74.5402C211.927 74.6502 211.997 74.7402 212.117 74.7402C212.217 74.7402 212.337 74.6502 212.317 74.5402C212.107 72.8302 211.897 71.1202 211.687 69.4002C211.667 69.2902 211.607 69.2002 211.487 69.2002C211.387 69.2002 211.267 69.2902 211.287 69.4002Z" fill="#D0D8FF"/>
<path d="M209.877 64.3603L210.117 66.3303C210.137 66.4303 210.197 66.5403 210.317 66.5303C210.417 66.5303 210.537 66.4503 210.517 66.3303L210.277 64.3603C210.267 64.2603 210.197 64.1503 210.077 64.1603C209.977 64.1603 209.857 64.2403 209.877 64.3603Z" fill="#D0D8FF"/>
<path d="M195.399 78.2603C195.389 80.7903 195.559 83.3303 195.919 85.8303C196.279 88.3303 196.819 90.7803 197.559 93.1903C197.969 94.5503 198.439 95.8802 198.959 97.2002C198.999 97.3002 199.089 97.3702 199.209 97.3402C199.299 97.3202 199.389 97.1902 199.349 97.0902C198.419 94.7502 197.669 92.3503 197.099 89.9003C196.539 87.4503 196.149 84.9903 195.959 82.5003C195.849 81.0903 195.799 79.6803 195.809 78.2603C195.809 78.0103 195.419 78.0103 195.409 78.2603H195.399Z" fill="#D0D8FF"/>
<path d="M191.248 102.39C191.248 103.25 191.508 104.09 191.978 104.8C192.028 104.88 192.158 104.93 192.248 104.87C192.328 104.82 192.378 104.69 192.318 104.6C192.098 104.25 191.938 103.92 191.818 103.54C191.768 103.35 191.718 103.15 191.688 102.96C191.688 102.94 191.688 102.91 191.668 102.88C191.668 102.92 191.668 102.86 191.668 102.85C191.668 102.8 191.658 102.74 191.658 102.69C191.658 102.59 191.638 102.49 191.638 102.39C191.638 102.29 191.548 102.19 191.438 102.19C191.328 102.19 191.238 102.27 191.238 102.39H191.248Z" fill="#D0D8FF"/>
<path d="M180.996 99.6504C180.936 101.51 181.046 103.38 181.326 105.21C181.606 107.04 182.066 108.87 182.696 110.62C183.046 111.61 183.456 112.57 183.906 113.52C184.016 113.75 184.366 113.55 184.256 113.32C183.466 111.67 182.826 109.94 182.356 108.17C181.886 106.4 181.586 104.58 181.456 102.76C181.376 101.73 181.366 100.69 181.406 99.6504C181.406 99.4004 181.016 99.4004 181.006 99.6504H180.996Z" fill="#D0D8FF"/>
<path d="M185.328 116.36C185.358 116.62 185.388 116.89 185.428 117.15C185.428 117.18 185.428 117.2 185.448 117.23C185.448 117.25 185.468 117.28 185.488 117.29C185.518 117.32 185.578 117.35 185.628 117.35C185.678 117.35 185.738 117.34 185.768 117.29C185.798 117.25 185.828 117.2 185.828 117.15C185.798 116.89 185.768 116.63 185.728 116.36C185.728 116.33 185.728 116.31 185.718 116.28C185.718 116.26 185.698 116.23 185.678 116.22C185.648 116.19 185.588 116.16 185.538 116.16C185.488 116.16 185.428 116.17 185.398 116.22C185.368 116.26 185.338 116.31 185.338 116.36H185.328Z" fill="#D0D8FF"/>
<path d="M175.576 115.15C175.516 116.54 175.796 117.93 176.346 119.2C176.396 119.3 176.526 119.32 176.616 119.27C176.716 119.21 176.736 119.09 176.686 119C176.156 117.8 175.916 116.47 175.966 115.15C175.966 114.9 175.576 114.9 175.566 115.15H175.576Z" fill="#D0D8FF"/>
<path d="M197.43 125.36C199.1 125.31 200.77 125.18 202.44 125C204.11 124.81 205.75 124.56 207.38 124.24C208.31 124.06 209.23 123.85 210.15 123.64C210.4 123.58 210.3 123.19 210.04 123.25C208.43 123.64 206.8 123.97 205.17 124.23C203.53 124.49 201.89 124.69 200.24 124.81C199.31 124.88 198.37 124.93 197.43 124.96C197.18 124.96 197.18 125.37 197.43 125.36Z" fill="#D0D8FF"/>
<path d="M208.496 116.69C210.526 116.23 212.556 115.79 214.586 115.33C215.166 115.2 215.746 115.08 216.326 114.94C216.576 114.89 216.476 114.5 216.216 114.55C214.186 115.01 212.156 115.45 210.126 115.91C209.546 116.04 208.966 116.16 208.386 116.29C208.136 116.34 208.236 116.73 208.496 116.68V116.69Z" fill="#D0D8FF"/>
<path d="M218.71 115.29C219.57 115.32 220.43 115.07 221.14 114.59C221.22 114.53 221.27 114.41 221.21 114.32C221.16 114.24 221.03 114.19 220.94 114.25C220.78 114.37 220.6 114.47 220.41 114.55C220.31 114.6 220.27 114.61 220.16 114.66C220.06 114.7 219.97 114.73 219.87 114.76C219.77 114.79 219.68 114.81 219.58 114.83C219.53 114.83 219.48 114.85 219.43 114.86C219.41 114.86 219.38 114.86 219.35 114.88H219.31C219.11 114.9 218.9 114.91 218.7 114.91C218.59 114.91 218.5 115 218.5 115.11C218.5 115.22 218.59 115.3 218.7 115.31V115.29H218.71Z" fill="#D0D8FF"/>
<path d="M202.939 111.21C203.599 111.13 204.259 111.05 204.919 110.97C205.019 110.95 205.129 110.89 205.119 110.77C205.119 110.67 205.039 110.55 204.919 110.57C204.259 110.65 203.599 110.73 202.939 110.81C202.839 110.83 202.729 110.89 202.739 111.01C202.739 111.11 202.819 111.23 202.939 111.21Z" fill="#D0D8FF"/>
<path d="M215.497 98.4802C217.017 97.9802 218.537 97.4702 220.047 96.9502C221.557 96.4302 223.067 95.9102 224.557 95.3802C226.057 94.8502 227.577 94.3002 229.077 93.7502C230.577 93.2002 232.067 92.6502 233.557 92.0802C235.047 91.5202 236.547 90.9402 238.037 90.3502C238.217 90.2802 238.407 90.2002 238.587 90.1302C238.687 90.0902 238.757 90.0002 238.727 89.8802C238.707 89.7902 238.577 89.7002 238.477 89.7402C236.987 90.3302 235.487 90.9002 233.997 91.4802C232.507 92.0602 231.007 92.6102 229.527 93.1502C228.037 93.7002 226.517 94.2502 225.007 94.7902C223.497 95.3302 221.997 95.8502 220.497 96.3702C218.997 96.8902 217.467 97.4002 215.947 97.9102C215.757 97.9702 215.567 98.0302 215.387 98.1002C215.147 98.1802 215.247 98.5602 215.497 98.4902V98.4802Z" fill="#D0D8FF"/>
<path d="M226.64 84.5901C227.54 84.3401 228.45 84.0701 229.35 83.8201C229.45 83.7901 229.52 83.6801 229.49 83.5701C229.46 83.4601 229.35 83.4001 229.24 83.4301C228.34 83.6801 227.44 83.9501 226.53 84.2001C226.43 84.2301 226.36 84.3401 226.39 84.4501C226.42 84.5601 226.53 84.6201 226.64 84.5901Z" fill="#D0D8FF"/>
<path d="M236.09 69.87C237.92 69.46 239.72 68.96 241.51 68.37C243.29 67.78 245.04 67.1 246.75 66.33C247.71 65.9 248.66 65.44 249.6 64.96C249.83 64.84 249.62 64.5 249.4 64.61C247.75 65.46 246.06 66.23 244.33 66.92C242.6 67.61 240.83 68.21 239.03 68.72C238.02 69.01 237.01 69.27 235.98 69.49C235.73 69.54 235.83 69.93 236.09 69.88V69.87Z" fill="#D0D8FF"/>
<path d="M251.489 64.2703C252.349 63.7403 253.209 63.2103 254.069 62.6703C254.159 62.6203 254.189 62.4903 254.139 62.4003C254.089 62.3103 253.959 62.2703 253.869 62.3303C253.009 62.8603 252.149 63.3903 251.289 63.9303C251.199 63.9803 251.169 64.1103 251.219 64.2003C251.269 64.2903 251.399 64.3303 251.489 64.2703Z" fill="#D0D8FF"/>
<path d="M250.069 52.4602C251.709 51.6102 253.359 50.7602 255.009 49.9102C255.239 49.7902 255.029 49.4502 254.809 49.5602C253.169 50.4102 251.519 51.2602 249.869 52.1102C249.639 52.2302 249.849 52.5702 250.069 52.4602Z" fill="#D0D8FF"/>
<path d="M261.177 35.4503C262.107 35.1603 262.967 34.6603 263.677 33.9803C263.877 33.7903 264.067 33.6003 264.237 33.3903C264.307 33.3103 264.317 33.1903 264.237 33.1003C264.167 33.0303 264.017 33.0203 263.947 33.1003C263.357 33.8103 262.617 34.3803 261.777 34.7703C261.547 34.8803 261.307 34.9703 261.057 35.0503C260.957 35.0803 260.887 35.1903 260.917 35.3003C260.947 35.4003 261.057 35.4703 261.167 35.4403L261.177 35.4503Z" fill="#D0D8FF"/>
<path d="M257.5 23.1604C257.21 24.0004 256.92 24.8504 256.64 25.6904C256.61 25.7904 256.68 25.9104 256.78 25.9404C256.89 25.9604 256.99 25.9104 257.03 25.8004C257.32 24.9604 257.61 24.1104 257.89 23.2704C257.92 23.1704 257.85 23.0504 257.75 23.0204C257.64 23.0004 257.54 23.0504 257.5 23.1604Z" fill="#D0D8FF"/>
<path d="M253.407 74.5301C252.077 75.4701 250.517 76.0901 248.907 76.2801C248.797 76.3001 248.707 76.3601 248.707 76.4801C248.707 76.5801 248.797 76.6901 248.907 76.6801C250.597 76.4801 252.227 75.8601 253.607 74.8801C253.697 74.8201 253.737 74.7001 253.677 74.6101C253.627 74.5301 253.497 74.4801 253.407 74.5401V74.5301Z" fill="#D0D8FF"/>
<path d="M223.03 43.8802C222.83 45.6302 222.92 47.4002 223.28 49.1302C223.33 49.3802 223.72 49.2802 223.67 49.0202C223.32 47.3302 223.24 45.6002 223.43 43.8802C223.44 43.7702 223.33 43.6802 223.23 43.6802C223.11 43.6802 223.05 43.7702 223.03 43.8802Z" fill="#D0D8FF"/>
<path d="M233.929 105.12C232.509 105.56 231.089 105.99 229.669 106.43C229.419 106.51 229.529 106.89 229.779 106.82C231.199 106.38 232.619 105.95 234.039 105.51C234.289 105.43 234.179 105.05 233.929 105.12Z" fill="#D0D8FF"/>
<path d="M205.487 156.13C216.627 147.32 230.127 139.33 244.167 141.46C247.017 141.89 250.137 143.03 251.237 145.7C251.697 146.8 251.727 148.03 252.107 149.16C253.277 152.62 257.437 154.29 261.067 153.92C264.707 153.55 267.977 151.66 271.237 150.02C281.547 144.83 292.927 141.74 304.457 141.13C310.217 140.82 317.037 141.72 319.857 146.75C321.877 150.36 320.997 155.03 318.757 158.51C316.517 161.98 313.107 164.52 309.767 166.97C306.277 169.54 302.797 172.11 299.307 174.68C296.147 177.01 292.767 179.64 291.787 183.45C290.527 188.3 293.597 193.2 293.827 198.2C294.107 204.19 289.757 210.07 283.957 211.57C277.437 213.25 270.517 209.8 263.877 210.94C257.687 212 252.897 216.78 247.377 219.79C236.617 225.68 223.167 224.61 211.727 220.16C206.617 218.17 201.357 215.49 195.937 216.38C193.637 216.76 191.497 217.77 189.257 218.4C182.937 220.2 175.797 218.82 170.597 214.8C165.397 210.78 162.257 204.22 162.387 197.66C162.477 193.03 164.097 188.54 166.307 184.48C171.467 174.95 180.017 167.32 190.067 163.25" fill="#FF6C5A"/>
<g style="mix-blend-mode:soft-light" opacity="0.71">
<path d="M205.487 156.13C216.627 147.32 230.127 139.33 244.167 141.46C247.017 141.89 250.137 143.03 251.237 145.7C251.697 146.8 251.727 148.03 252.107 149.16C253.277 152.62 257.437 154.29 261.067 153.92C264.707 153.55 267.977 151.66 271.237 150.02C281.547 144.83 292.927 141.74 304.457 141.13C310.217 140.82 317.037 141.72 319.857 146.75C321.877 150.36 320.997 155.03 318.757 158.51C316.517 161.98 313.107 164.52 309.767 166.97C306.277 169.54 302.797 172.11 299.307 174.68C296.147 177.01 292.767 179.64 291.787 183.45C290.527 188.3 293.597 193.2 293.827 198.2C294.107 204.19 289.757 210.07 283.957 211.57C277.437 213.25 270.517 209.8 263.877 210.94C257.687 212 252.897 216.78 247.377 219.79C236.617 225.68 223.167 224.61 211.727 220.16C206.617 218.17 201.357 215.49 195.937 216.38C193.637 216.76 191.497 217.77 189.257 218.4C182.937 220.2 175.797 218.82 170.597 214.8C165.397 210.78 162.257 204.22 162.387 197.66C162.477 193.03 164.097 188.54 166.307 184.48C171.467 174.95 180.017 167.32 190.067 163.25" fill="url(#paint2_linear_1313_6659)"/>
</g>
<path d="M309.14 151.98C307.49 152.68 305.85 153.38 304.2 154.09C302.55 154.8 300.91 155.49 299.26 156.2C297.61 156.91 295.98 157.6 294.34 158.3C292.7 158.99 291.05 159.7 289.4 160.41C287.75 161.12 286.11 161.81 284.46 162.52C282.81 163.23 281.18 163.92 279.54 164.62C277.9 165.32 276.25 166.02 274.6 166.73C272.95 167.44 271.31 168.13 269.66 168.84C268.01 169.55 266.38 170.24 264.74 170.94C263.1 171.64 261.45 172.34 259.8 173.05C258.15 173.76 256.51 174.45 254.86 175.16C253.21 175.87 251.58 176.56 249.94 177.26C248.3 177.95 246.65 178.66 245 179.37C243.35 180.08 241.71 180.77 240.06 181.48C238.41 182.19 236.77 182.88 235.12 183.59C233.47 184.3 231.84 184.99 230.2 185.69C228.56 186.39 227.04 187.04 225.46 187.72C223.89 188.4 222.34 189.08 220.79 189.79C219.24 190.5 217.71 191.21 216.19 191.96C214.67 192.71 213.15 193.49 211.66 194.31C210.94 194.7 210.22 195.11 209.51 195.53C209.3 195.65 209.49 195.97 209.69 195.85C211.16 194.99 212.65 194.18 214.16 193.4C215.67 192.62 217.2 191.87 218.73 191.15C220.26 190.42 221.81 189.73 223.36 189.05C224.91 188.37 226.48 187.69 228.05 187.02C229.62 186.35 231.3 185.63 232.92 184.94C234.54 184.25 236.2 183.54 237.84 182.84C239.48 182.15 241.13 181.44 242.78 180.73C244.43 180.02 246.07 179.33 247.72 178.62C249.37 177.91 251 177.22 252.64 176.52C254.28 175.82 255.93 175.12 257.58 174.41C259.23 173.7 260.87 173.01 262.52 172.3C264.17 171.59 265.8 170.9 267.44 170.2C269.08 169.5 270.73 168.8 272.38 168.09C274.03 167.38 275.67 166.69 277.33 165.98C278.98 165.27 280.62 164.58 282.27 163.87C283.92 163.16 285.55 162.47 287.19 161.77C288.83 161.08 290.48 160.37 292.13 159.66C293.78 158.95 295.42 158.26 297.07 157.55C298.72 156.84 300.35 156.15 301.99 155.45C303.63 154.76 305.28 154.05 306.93 153.34C307.73 153 308.53 152.66 309.32 152.31C309.41 152.27 309.43 152.13 309.39 152.05C309.34 151.96 309.23 151.94 309.13 151.98H309.14Z" fill="#D0D8FF"/>
<path d="M232.929 151.8C231.529 153.79 230.309 155.9 229.269 158.09C228.979 158.71 228.699 159.34 228.429 159.98C228.389 160.07 228.469 160.18 228.559 160.21C228.669 160.24 228.749 160.17 228.789 160.08C229.719 157.86 230.829 155.71 232.119 153.69C232.479 153.12 232.859 152.55 233.249 151.99C233.389 151.8 233.069 151.6 232.929 151.81V151.8Z" fill="#D0D8FF"/>
<path d="M232.457 162.36C231.577 163.49 230.827 164.72 230.227 166.02C230.057 166.39 229.897 166.77 229.757 167.15C229.717 167.24 229.797 167.35 229.887 167.38C229.997 167.41 230.077 167.34 230.117 167.25C230.747 165.59 231.637 164.02 232.727 162.61C232.787 162.53 232.807 162.43 232.727 162.35C232.667 162.29 232.527 162.27 232.467 162.35L232.457 162.36Z" fill="#D0D8FF"/>
<path d="M245.797 162.08C245.027 163.52 244.317 164.98 243.667 166.47C243.017 167.96 242.437 169.49 241.907 171.03C241.617 171.89 241.347 172.77 241.087 173.65C241.017 173.88 241.377 173.98 241.437 173.75C241.887 172.2 242.387 170.67 242.957 169.16C243.527 167.65 244.157 166.17 244.857 164.72C245.247 163.89 245.667 163.08 246.097 162.28C246.217 162.07 245.887 161.88 245.777 162.1H245.797V162.08Z" fill="#D0D8FF"/>
<path d="M240.549 176.56C240.409 177.16 240.259 177.76 240.129 178.36C240.109 178.45 240.159 178.57 240.259 178.59C240.349 178.61 240.469 178.56 240.489 178.46C240.629 177.86 240.779 177.26 240.909 176.65C240.929 176.56 240.879 176.44 240.779 176.42C240.689 176.4 240.569 176.45 240.549 176.55V176.56Z" fill="#D0D8FF"/>
<path d="M220.339 202.53C221.099 203.87 222.018 205.11 223.089 206.22C224.159 207.32 225.359 208.29 226.659 209.08C227.399 209.54 228.169 209.93 228.969 210.27C229.059 210.31 229.168 210.3 229.228 210.2C229.278 210.12 229.249 209.98 229.159 209.95C227.769 209.36 226.448 208.59 225.258 207.66C224.068 206.73 222.989 205.66 222.079 204.47C221.559 203.8 221.088 203.08 220.678 202.34C220.558 202.13 220.239 202.32 220.359 202.52L220.339 202.53Z" fill="#D0D8FF"/>
<path d="M232.009 212.13C233.209 212.42 234.419 212.69 235.629 212.98C235.859 213.03 235.959 212.68 235.729 212.63C234.529 212.34 233.319 212.07 232.109 211.78C231.879 211.73 231.779 212.08 232.009 212.13Z" fill="#D0D8FF"/>
<path d="M239.168 205.8C241.128 206.73 243.158 207.48 245.248 208.05C247.338 208.62 249.468 208.98 251.618 209.17C252.828 209.27 254.038 209.32 255.258 209.29C255.498 209.29 255.498 208.91 255.258 208.92C253.128 208.96 250.998 208.81 248.888 208.46C246.778 208.11 244.708 207.58 242.698 206.86C241.568 206.46 240.448 206 239.358 205.48C239.138 205.38 238.958 205.7 239.168 205.8Z" fill="#D0D8FF"/>
<path d="M243.147 187.04C243.957 187.44 244.757 187.84 245.567 188.24C245.657 188.29 245.767 188.26 245.827 188.17C245.877 188.09 245.847 187.96 245.757 187.92C244.947 187.52 244.147 187.12 243.337 186.72C243.247 186.67 243.137 186.7 243.087 186.79C243.037 186.87 243.067 187 243.157 187.05L243.147 187.04Z" fill="#D0D8FF"/>
<path d="M256.348 192.99C258.508 193.84 260.728 194.52 262.988 195.04C263.628 195.19 264.268 195.32 264.918 195.43C265.148 195.47 265.248 195.11 265.018 195.07C262.738 194.66 260.478 194.07 258.288 193.31C257.668 193.09 257.058 192.87 256.448 192.62C256.358 192.58 256.248 192.66 256.218 192.75C256.188 192.86 256.258 192.94 256.348 192.98V192.99Z" fill="#D0D8FF"/>
<path d="M265.217 177.63C266.817 178.41 268.547 178.91 270.317 179.12C270.417 179.13 270.497 179.03 270.497 178.94C270.497 178.83 270.407 178.76 270.317 178.76C268.607 178.56 266.947 178.06 265.407 177.33C265.197 177.23 265.007 177.55 265.227 177.65L265.217 177.63Z" fill="#D0D8FF"/>
<path d="M273.537 181.44C274.377 181.64 275.227 181.83 276.067 182.03C276.167 182.05 276.267 182 276.297 181.9C276.317 181.81 276.267 181.69 276.167 181.67C275.327 181.47 274.477 181.28 273.637 181.08C273.537 181.06 273.437 181.11 273.407 181.21C273.387 181.3 273.437 181.42 273.537 181.44Z" fill="#D0D8FF"/>
<path d="M269.29 153.9C268.52 154.83 267.94 155.9 267.6 157.06C267.51 157.38 267.43 157.72 267.38 158.05C267.36 158.15 267.4 158.25 267.51 158.28C267.6 158.3 267.72 158.25 267.74 158.15C267.93 157.01 268.35 155.91 268.98 154.94C269.16 154.67 269.35 154.41 269.56 154.15C269.62 154.07 269.64 153.97 269.56 153.89C269.49 153.82 269.36 153.81 269.3 153.89L269.29 153.9Z" fill="#D0D8FF"/>
<path d="M266.719 160.95C266.579 161.55 266.43 162.15 266.29 162.75C266.27 162.84 266.32 162.96 266.42 162.98C266.51 163 266.629 162.95 266.649 162.85C266.789 162.25 266.94 161.65 267.07 161.04C267.09 160.95 267.039 160.83 266.939 160.81C266.849 160.79 266.729 160.84 266.709 160.94L266.719 160.95Z" fill="#D0D8FF"/>
<path d="M289.968 147.97C288.338 149.79 287.078 151.93 286.278 154.25C286.058 154.9 285.858 155.57 285.708 156.24C285.658 156.47 286.018 156.57 286.068 156.34C286.588 153.99 287.588 151.77 288.978 149.81C289.368 149.26 289.788 148.73 290.248 148.23C290.408 148.05 290.148 147.79 289.988 147.97H289.968Z" fill="#D0D8FF"/>
<path d="M296.329 162.34C297.789 162.79 299.269 163.13 300.769 163.37C302.269 163.61 303.809 163.73 305.339 163.74C306.199 163.74 307.059 163.72 307.919 163.65C308.159 163.63 308.159 163.26 307.919 163.28C304.899 163.51 301.849 163.3 298.899 162.64C298.069 162.46 297.239 162.24 296.429 161.99C296.199 161.92 296.109 162.28 296.329 162.34Z" fill="#D0D8FF"/>
<path d="M295.379 146.28C294.749 147.27 294.119 148.26 293.479 149.24C293.429 149.32 293.469 149.45 293.549 149.49C293.639 149.54 293.749 149.5 293.809 149.42C294.439 148.43 295.069 147.44 295.709 146.46C295.759 146.38 295.729 146.25 295.639 146.21C295.549 146.16 295.439 146.19 295.379 146.28Z" fill="#D0D8FF"/>
<path d="M315.897 155.22C314.397 155.12 312.887 155.02 311.387 154.92C311.147 154.9 311.147 155.27 311.387 155.29C312.887 155.39 314.397 155.49 315.897 155.59C316.137 155.6 316.137 155.24 315.897 155.22Z" fill="#D0D8FF"/>
<path d="M286.997 205.28C285.297 205.15 283.617 204.85 281.987 204.38C280.347 203.91 278.777 203.28 277.277 202.5C276.427 202.05 275.607 201.56 274.807 201.03C274.607 200.9 274.417 201.21 274.627 201.35C276.057 202.32 277.577 203.14 279.177 203.8C280.777 204.46 282.427 204.96 284.117 205.28C285.067 205.46 286.027 205.59 286.997 205.67C287.237 205.68 287.237 205.31 286.997 205.3V205.28Z" fill="#D0D8FF"/>
<path d="M288.33 200.52C288.33 200.52 288.26 200.55 288.23 200.57C288.2 200.59 288.25 200.57 288.21 200.57C288.19 200.57 288.17 200.59 288.15 200.59C288.08 200.61 288 200.64 287.93 200.65C287.9 200.65 287.86 200.66 287.83 200.67C287.81 200.67 287.79 200.67 287.78 200.67C287.82 200.67 287.76 200.67 287.75 200.67C287.68 200.67 287.6 200.67 287.53 200.67C287.46 200.67 287.38 200.67 287.31 200.65C287.28 200.65 287.34 200.65 287.31 200.65H287.29C287.29 200.65 287.25 200.65 287.24 200.65C287.2 200.65 287.16 200.64 287.13 200.63C287.06 200.62 286.98 200.59 286.91 200.56C286.89 200.56 286.87 200.54 286.86 200.54C286.83 200.52 286.87 200.54 286.84 200.54C286.8 200.52 286.77 200.51 286.73 200.49C286.65 200.45 286.58 200.4 286.51 200.36C286.49 200.34 286.48 200.34 286.46 200.32C286.49 200.34 286.46 200.32 286.44 200.31C286.4 200.28 286.37 200.25 286.34 200.22C286.27 200.15 286.15 200.14 286.08 200.22C286.01 200.3 286 200.41 286.08 200.48C286.58 200.96 287.3 201.14 287.98 201.02C288.17 200.98 288.35 200.92 288.53 200.83C288.61 200.78 288.65 200.66 288.6 200.58C288.55 200.49 288.44 200.46 288.35 200.51V200.53L288.33 200.52Z" fill="#D0D8FF"/>
<path d="M131.338 165.78C96.5983 150.71 59.3583 137.25 21.7383 141.55C16.5883 142.14 11.3083 143.12 6.96826 145.95C2.62826 148.78 -0.611744 153.86 0.108256 158.99C0.918256 164.77 6.19826 168.81 11.3883 171.49C17.3983 174.6 23.9683 176.9 29.0383 181.38C34.0483 185.81 37.1283 191.99 41.2683 197.26C52.4183 211.43 71.5983 218.34 89.4482 215.88C107.308 213.42 123.458 202.17 133.188 186.99" fill="#FF6E84"/>
<g style="mix-blend-mode:soft-light">
<path d="M131.338 165.78C96.5983 150.71 59.3583 137.25 21.7383 141.55C16.5883 142.14 11.3083 143.12 6.96826 145.95C2.62826 148.78 -0.611744 153.86 0.108256 158.99C0.918256 164.77 6.19826 168.81 11.3883 171.49C17.3983 174.6 23.9683 176.9 29.0383 181.38C34.0483 185.81 37.1283 191.99 41.2683 197.26C52.4183 211.43 71.5983 218.34 89.4482 215.88C107.308 213.42 123.458 202.17 133.188 186.99" fill="url(#paint3_linear_1313_6659)"/>
</g>
<path d="M19.8377 160.21C22.5077 160.49 25.1777 160.79 27.8477 161.11C30.5177 161.43 33.1677 161.78 35.8277 162.15C38.4777 162.52 41.1377 162.92 43.7977 163.34C46.4477 163.76 49.0977 164.2 51.7377 164.68C54.3877 165.15 57.0177 165.64 59.6577 166.16C62.2977 166.68 64.9077 167.22 67.5277 167.77C70.1377 168.32 72.7577 168.92 75.3677 169.53C77.9777 170.14 80.5877 170.77 83.1977 171.44C85.8077 172.1 88.3977 172.78 90.9877 173.48C93.5777 174.18 96.1677 174.91 98.7377 175.66C99.3577 175.85 99.9877 176.03 100.608 176.22C100.878 176.3 100.998 175.88 100.718 175.8C98.1377 175.04 95.5577 174.3 92.9777 173.58C90.3977 172.86 87.7777 172.17 85.1677 171.5C82.5577 170.83 79.9577 170.19 77.3477 169.56C74.7377 168.94 72.0977 168.33 69.4677 167.76C66.8377 167.19 64.2177 166.63 61.5877 166.11C58.9577 165.59 56.3177 165.08 53.6777 164.6C51.0277 164.12 48.3877 163.67 45.7377 163.23C43.0877 162.8 40.4277 162.39 37.7677 162C35.1077 161.61 32.4377 161.25 29.7677 160.92C27.0977 160.59 24.4377 160.27 21.7577 159.99C21.1077 159.92 20.4577 159.85 19.8177 159.78C19.6977 159.77 19.5977 159.89 19.5977 160C19.5977 160.13 19.6977 160.21 19.8177 160.22H19.8377V160.21Z" fill="#D0D8FF"/>
<path d="M30.9078 154.62C32.4078 154.98 33.8778 155.45 35.3078 156.01C36.7378 156.57 38.1478 157.23 39.4978 157.98C40.2578 158.4 40.9978 158.85 41.7378 159.33C41.9678 159.48 42.1978 159.11 41.9578 158.95C40.6578 158.09 39.3078 157.33 37.8978 156.66C36.4978 155.99 35.0478 155.4 33.5678 154.92C32.7378 154.65 31.8878 154.41 31.0378 154.2C30.7678 154.13 30.6478 154.55 30.9178 154.62H30.9078Z" fill="#D0D8FF"/>
<path d="M21.8489 150.31C22.4989 150.38 23.1389 150.44 23.7889 150.51C23.9089 150.52 24.0089 150.4 24.0089 150.29C24.0089 150.16 23.9189 150.08 23.7889 150.07C23.1389 150 22.4989 149.94 21.8489 149.87C21.7289 149.86 21.6289 149.98 21.6289 150.09C21.6289 150.22 21.7189 150.3 21.8489 150.31Z" fill="#D0D8FF"/>
<path d="M57.7188 148.04C59.9588 149.04 62.0588 150.32 63.9688 151.86C65.8788 153.4 67.5788 155.15 69.0388 157.1C69.8688 158.2 70.6087 159.37 71.2687 160.58C71.3987 160.83 71.7788 160.6 71.6488 160.36C70.4688 158.18 68.9987 156.17 67.3187 154.37C65.6287 152.56 63.7088 150.98 61.6288 149.65C60.4588 148.9 59.2287 148.24 57.9587 147.67C57.8487 147.62 57.7288 147.64 57.6588 147.75C57.6088 147.84 57.6288 148 57.7388 148.05L57.7188 148.04Z" fill="#D0D8FF"/>
<path d="M79.9182 156.85C81.2582 157.6 82.3682 158.73 83.0982 160.09C83.2982 160.47 83.4682 160.85 83.6082 161.26C83.6982 161.52 84.1182 161.41 84.0282 161.14C83.5082 159.61 82.5482 158.24 81.2782 157.24C80.9182 156.95 80.5382 156.7 80.1382 156.48C79.8882 156.34 79.6782 156.72 79.9182 156.86V156.85Z" fill="#D0D8FF"/>
<path d="M92.4702 156.51C92.7902 156.85 93.1102 157.19 93.4302 157.53C93.5202 157.62 93.6202 157.72 93.7002 157.82C93.7802 157.9 93.9302 157.9 94.0102 157.82C94.0902 157.73 94.0902 157.6 94.0102 157.51C93.6902 157.17 93.3702 156.83 93.0502 156.49C92.9602 156.4 92.8602 156.3 92.7802 156.2C92.7002 156.11 92.5502 156.11 92.4702 156.2C92.3902 156.28 92.3902 156.42 92.4702 156.51Z" fill="#D0D8FF"/>
<path d="M41.1302 169.36C39.2102 170.43 37.2102 171.37 35.1402 172.15C33.0702 172.93 30.9502 173.55 28.8002 174.02C27.5902 174.28 26.3602 174.5 25.1302 174.65C25.0102 174.66 24.9102 174.74 24.9102 174.87C24.9102 174.98 25.0102 175.1 25.1302 175.09C27.3502 174.8 29.5502 174.36 31.7002 173.75C33.8502 173.14 35.9502 172.37 37.9802 171.44C39.1202 170.92 40.2502 170.35 41.3402 169.74C41.5902 169.6 41.3602 169.23 41.1202 169.36H41.1302Z" fill="#D0D8FF"/>
<path d="M44.8676 177.35C44.0076 177.69 43.1376 178.02 42.2776 178.36C42.1676 178.4 42.0876 178.51 42.1276 178.63C42.1576 178.73 42.2776 178.82 42.3976 178.78C43.2576 178.44 44.1276 178.11 44.9876 177.77C45.0976 177.73 45.1776 177.62 45.1376 177.5C45.1076 177.4 44.9876 177.31 44.8676 177.35Z" fill="#D0D8FF"/>
<path d="M17.0478 167.39C16.9478 167.3 16.8478 167.25 16.7278 167.21C16.6278 167.18 16.5078 167.16 16.4078 167.17C16.2978 167.17 16.1878 167.19 16.0878 167.23C15.9678 167.28 15.8678 167.33 15.7678 167.42C15.6778 167.5 15.5978 167.6 15.5478 167.7C15.5278 167.75 15.5078 167.81 15.5278 167.87C15.5478 167.92 15.5778 167.98 15.6278 168C15.6778 168.02 15.7378 168.04 15.7978 168.02C15.8478 168 15.9078 167.97 15.9278 167.92C15.9478 167.87 15.9778 167.84 16.0078 167.8L15.9778 167.85C15.9778 167.85 16.0578 167.77 16.0978 167.73L16.0478 167.76C16.0978 167.71 16.1678 167.68 16.2278 167.65L16.1778 167.67C16.2478 167.64 16.3278 167.62 16.3978 167.61H16.3478H16.5678H16.5178C16.5878 167.61 16.6478 167.63 16.7078 167.66L16.6578 167.64C16.7078 167.66 16.7578 167.69 16.8078 167.72L16.7578 167.69C16.7578 167.69 16.7578 167.69 16.7778 167.7C16.8278 167.74 16.8678 167.76 16.9278 167.76C16.9778 167.76 17.0478 167.74 17.0778 167.7C17.1178 167.66 17.1478 167.61 17.1378 167.55C17.1378 167.5 17.1178 167.43 17.0778 167.4L17.0478 167.39Z" fill="#D0D8FF"/>
<path d="M72.7284 180.91C71.3584 182.26 69.8684 183.49 68.2884 184.6C66.7184 185.7 65.0384 186.69 63.3084 187.53C62.3384 188 61.3384 188.43 60.3284 188.81C60.2184 188.85 60.1384 188.96 60.1784 189.08C60.2084 189.19 60.3284 189.27 60.4484 189.23C62.2784 188.54 64.0484 187.71 65.7484 186.73C67.4484 185.75 69.0584 184.64 70.5784 183.41C71.4384 182.72 72.2484 181.98 73.0384 181.21C73.2384 181.02 72.9284 180.71 72.7284 180.9V180.91Z" fill="#D0D8FF"/>
<path d="M56.788 192.72C55.798 192.96 54.798 193.21 53.798 193.45C53.678 193.48 53.608 193.6 53.648 193.72C53.678 193.83 53.798 193.9 53.918 193.87C54.918 193.63 55.908 193.38 56.908 193.15C57.028 193.12 57.098 193 57.058 192.88C57.028 192.76 56.908 192.7 56.788 192.73V192.72Z" fill="#D0D8FF"/>
<path d="M68.8994 207.82C70.7094 207.16 72.3894 206.11 73.7694 204.77C74.1594 204.39 74.5294 203.99 74.8694 203.57C74.9494 203.48 74.9594 203.35 74.8694 203.26C74.7894 203.18 74.6394 203.17 74.5594 203.26C73.3794 204.73 71.8994 205.93 70.2294 206.78C69.7594 207.02 69.2794 207.23 68.7894 207.41C68.6794 207.45 68.5994 207.56 68.6394 207.68C68.6694 207.79 68.7894 207.87 68.9094 207.83L68.8994 207.82Z" fill="#D0D8FF"/>
<path d="M80.1783 197.03C81.0083 195.91 81.8483 194.8 82.6783 193.68C82.7483 193.59 82.6983 193.44 82.5983 193.38C82.4883 193.32 82.3783 193.36 82.2983 193.46C81.4683 194.58 80.6283 195.69 79.7983 196.81C79.7283 196.9 79.7783 197.05 79.8783 197.11C79.9883 197.17 80.0983 197.12 80.1783 197.03Z" fill="#D0D8FF"/>
<path d="M168.958 121.53C164.068 118.77 137.368 88.31 136.698 82.59C136.028 76.87 136.698 71.06 136.078 65.34C135.458 59.62 133.188 53.58 128.368 50.69C120.678 46.08 110.828 51.41 102.198 49.26C93.8782 47.18 86.2682 34.84 79.7982 29C75.3382 24.97 67.7282 17.72 62.0382 16.1C58.3582 15.05 54.2682 14.61 50.8982 16.42C46.2382 18.93 44.4082 25.09 45.0382 30.52C45.6582 35.95 50.4882 45.2 52.6182 50.2C54.7582 55.21 56.5482 60.71 55.5382 66.06C53.8682 74.98 47.1682 86.05 48.6982 95.03C49.9382 102.33 58.0782 106.45 65.1982 106.02C68.1182 105.84 71.0482 105.11 73.9382 105.6C81.3982 106.86 86.2282 115.57 89.7882 122.5C96.4182 135.43 117.538 135.12 130.008 127.62" fill="#BA9803"/>
<g style="mix-blend-mode:soft-light" opacity="0.5">
<path d="M168.958 121.53C164.068 118.77 137.368 88.31 136.698 82.59C136.028 76.87 136.698 71.06 136.078 65.34C135.458 59.62 133.188 53.58 128.368 50.69C120.678 46.08 110.828 51.41 102.198 49.26C93.8782 47.18 86.2682 34.84 79.7982 29C75.3382 24.97 67.7282 17.72 62.0382 16.1C58.3582 15.05 54.2682 14.61 50.8982 16.42C46.2382 18.93 44.4082 25.09 45.0382 30.52C45.6582 35.95 50.4882 45.2 52.6182 50.2C54.7582 55.21 56.5482 60.71 55.5382 66.06C53.8682 74.98 47.1682 86.05 48.6982 95.03C49.9382 102.33 58.0782 106.45 65.1982 106.02C68.1182 105.84 71.0482 105.11 73.9382 105.6C81.3982 106.86 86.2282 115.57 89.7882 122.5C96.4182 135.43 117.538 135.12 130.008 127.62" fill="url(#paint4_linear_1313_6659)"/>
</g>
<path d="M61.7079 34.3003C63.2379 35.7603 64.7479 37.2203 66.2479 38.7003C67.7479 40.1803 69.2179 41.6603 70.6879 43.1603C72.1579 44.6603 73.6179 46.1803 75.0679 47.7103C76.5179 49.2403 77.9479 50.7803 79.3679 52.3403C80.7879 53.9003 82.1879 55.4503 83.5779 57.0303C84.9679 58.6103 86.3579 60.2003 87.7279 61.8003C89.0979 63.4003 90.4579 65.0203 91.7979 66.6403C93.1379 68.2603 94.4678 69.9003 95.7779 71.5503C97.0879 73.2003 98.4078 74.8703 99.6978 76.5503C100.988 78.2203 102.248 79.9003 103.508 81.5903C104.768 83.2803 106.018 84.9903 107.248 86.7103C108.478 88.4303 109.698 90.1603 110.908 91.9003C112.108 93.6403 113.298 95.3803 114.468 97.1303C115.638 98.8803 116.808 100.66 117.958 102.44C119.108 104.22 120.238 106.01 121.358 107.82C122.478 109.63 123.568 111.42 124.658 113.23C125.748 115.04 126.828 116.89 127.888 118.74C128.958 120.58 129.988 122.42 131.008 124.27C132.028 126.12 133.048 128 134.048 129.87C135.038 131.75 136.028 133.63 136.998 135.52C137.458 136.43 137.918 137.35 138.388 138.26C138.488 138.46 138.788 138.28 138.688 138.08C137.728 136.17 136.768 134.28 135.778 132.39C134.788 130.5 133.808 128.64 132.788 126.78C131.778 124.92 130.738 123.05 129.698 121.19C128.658 119.33 127.598 117.52 126.528 115.69C125.458 113.86 124.358 112.03 123.248 110.21C122.138 108.4 121.038 106.62 119.898 104.83C118.768 103.04 117.618 101.26 116.448 99.4803C115.278 97.7103 114.108 95.9503 112.918 94.2003C111.718 92.4503 110.518 90.7103 109.298 88.9903C108.078 87.2603 106.848 85.5403 105.598 83.8403C104.348 82.1403 103.088 80.4403 101.808 78.7503C100.528 77.0603 99.2379 75.3903 97.9379 73.7303C96.6379 72.0703 95.3179 70.4203 93.9879 68.7803C92.6579 67.1403 91.3079 65.5203 89.9579 63.9003C88.5979 62.2803 87.2278 60.6803 85.8479 59.0903C84.4679 57.4903 83.0679 55.9203 81.6579 54.3503C80.2479 52.7803 78.8379 51.2403 77.4079 49.7003C75.9779 48.1603 74.5179 46.6203 73.0479 45.1003C71.5779 43.5703 70.1279 42.0903 68.6479 40.6003C67.1679 39.1103 65.6579 37.6203 64.1479 36.1603C63.4179 35.4603 62.6879 34.7603 61.9579 34.0503C61.7979 33.9003 61.5379 34.1403 61.7079 34.3003Z" fill="#D0D8FF"/>
<path d="M63.1892 51.39C65.3392 52.01 67.4892 52.64 69.6392 53.26C70.2592 53.44 70.8692 53.61 71.4792 53.79C71.6992 53.85 71.7892 53.51 71.5692 53.45C69.4192 52.83 67.2692 52.2 65.1192 51.58C64.4992 51.4 63.8892 51.23 63.2792 51.05C63.0592 50.99 62.9692 51.33 63.1892 51.39Z" fill="#D0D8FF"/>
<path d="M74.2269 54.7404C74.4969 54.7704 74.7569 54.8104 75.0269 54.8404C75.0669 54.8404 75.1169 54.8204 75.1469 54.7904C75.1769 54.7604 75.1969 54.7104 75.1969 54.6704C75.1969 54.6304 75.1769 54.5804 75.1469 54.5504L75.1069 54.5204C75.1069 54.5204 75.0569 54.5004 75.0169 54.5004C74.7469 54.4704 74.4869 54.4304 74.2169 54.4004C74.1769 54.4004 74.1269 54.4204 74.0969 54.4504C74.0669 54.4804 74.0469 54.5304 74.0469 54.5704C74.0469 54.6104 74.0669 54.6604 74.0969 54.6904L74.1369 54.7204C74.1369 54.7204 74.1869 54.7404 74.2269 54.7404Z" fill="#D0D8FF"/>
<path d="M89.3687 48.9704C89.9287 51.8904 90.1787 54.8704 90.1287 57.8504C90.1087 58.7004 90.0787 59.5404 90.0187 60.3804C89.9987 60.6004 90.3587 60.6004 90.3687 60.3804C90.5887 57.3804 90.4887 54.3604 90.0987 51.3804C89.9887 50.5404 89.8487 49.7104 89.6987 48.8704C89.6587 48.6504 89.3187 48.7404 89.3587 48.9604L89.3687 48.9704Z" fill="#D0D8FF"/>
<path d="M110.777 58.84C110.857 60.68 110.827 62.53 110.657 64.38C110.607 64.9 110.557 65.41 110.487 65.93C110.467 66.02 110.577 66.11 110.667 66.11C110.777 66.11 110.827 66.03 110.847 65.93C111.077 64.09 111.197 62.25 111.177 60.4C111.177 59.88 111.167 59.36 111.127 58.83C111.127 58.61 110.767 58.61 110.777 58.83V58.84Z" fill="#D0D8FF"/>
<path d="M110.067 69.6501C109.947 71.4501 109.467 73.2101 108.657 74.8301C108.557 75.0301 108.857 75.2101 108.957 75.0101C109.787 73.3401 110.287 71.5201 110.417 69.6601C110.427 69.4401 110.077 69.4401 110.057 69.6601L110.067 69.6501Z" fill="#D0D8FF"/>
<path d="M125.788 55.7C125.668 56.8 125.538 57.91 125.418 59.02C125.418 59.11 125.498 59.2 125.598 59.2C125.698 59.2 125.758 59.12 125.778 59.02C125.898 57.92 126.028 56.81 126.148 55.7C126.148 55.61 126.068 55.52 125.968 55.52C125.868 55.52 125.808 55.6 125.788 55.7Z" fill="#D0D8FF"/>
<path d="M125.577 91.0301C125.457 92.1301 125.327 93.2401 125.207 94.3501C125.207 94.4401 125.287 94.5301 125.387 94.5301C125.487 94.5301 125.547 94.4501 125.567 94.3501C125.687 93.2501 125.817 92.1401 125.937 91.0301C125.937 90.9401 125.857 90.8501 125.757 90.8501C125.657 90.8501 125.597 90.9301 125.577 91.0301Z" fill="#D0D8FF"/>
<path d="M121.878 76.6201C121.618 79.4401 121.078 82.2401 120.258 84.9601C120.038 85.7201 119.778 86.4601 119.508 87.2101C119.428 87.4301 119.768 87.5201 119.848 87.3001C120.818 84.6201 121.518 81.8501 121.938 79.0301C122.058 78.2301 122.158 77.4301 122.228 76.6201C122.248 76.4001 121.898 76.4001 121.868 76.6201H121.878Z" fill="#D0D8FF"/>
<path d="M51.8501 36.3801C52.4901 36.7301 53.1201 37.0901 53.7601 37.4401C53.8401 37.4901 53.9501 37.4601 54.0001 37.3801C54.0501 37.3001 54.0201 37.1901 53.9401 37.1401C53.3001 36.7901 52.6701 36.4301 52.0301 36.0801C51.9501 36.0301 51.8401 36.0601 51.7901 36.1401C51.7401 36.2201 51.7701 36.3301 51.8501 36.3801Z" fill="#D0D8FF"/>
<path d="M61.82 19.24C62.51 21.52 62.94 23.88 63.09 26.24C63.14 26.91 63.15 27.59 63.15 28.27C63.15 28.49 63.5 28.49 63.5 28.27C63.5 25.86 63.23 23.45 62.67 21.1C62.52 20.44 62.34 19.79 62.15 19.14C62.09 18.92 61.74 19.02 61.81 19.23L61.82 19.24Z" fill="#D0D8FF"/>
<path d="M54.0501 19.7603C54.5501 20.6703 54.8401 21.6903 54.9101 22.7203C54.9101 22.8103 54.9901 22.9003 55.0901 22.9003C55.1801 22.9003 55.2701 22.8203 55.2701 22.7203C55.2101 21.6203 54.9101 20.5403 54.3701 19.5803C54.2601 19.3803 53.9501 19.5603 54.0701 19.7603H54.0501Z" fill="#D0D8FF"/>
<path d="M63.8494 67.23C65.2194 67.87 66.6194 68.43 68.0494 68.88C69.4794 69.34 70.9394 69.7 72.4194 69.97C73.8994 70.24 75.3894 70.41 76.8894 70.49C78.3894 70.57 79.8994 70.54 81.3894 70.42C82.8894 70.3 84.3694 70.08 85.8294 69.76C86.0094 69.72 86.1894 69.68 86.3694 69.64C86.5894 69.59 86.4894 69.25 86.2794 69.3C84.8394 69.64 83.3794 69.88 81.9094 70.02C80.4394 70.16 78.9594 70.21 77.4694 70.16C75.9894 70.11 74.5194 69.97 73.0694 69.73C71.6194 69.49 70.1494 69.15 68.7294 68.73C67.2994 68.31 65.8994 67.78 64.5394 67.17C64.3694 67.09 64.1994 67.02 64.0294 66.94C63.8294 66.85 63.6394 67.15 63.8494 67.24V67.23Z" fill="#D0D8FF"/>
<path d="M58.5295 93.45C60.1395 93.87 61.8195 93.95 63.4695 93.71C63.5595 93.69 63.6195 93.58 63.5895 93.49C63.5695 93.39 63.4695 93.35 63.3695 93.37C61.7895 93.6 60.1695 93.51 58.6195 93.11C58.3995 93.06 58.2995 93.4 58.5295 93.45Z" fill="#D0D8FF"/>
<path d="M68.72 93.5903C70.37 93.4003 72.01 93.1503 73.64 92.8503C75.28 92.5503 76.88 92.2003 78.48 91.8003C80.08 91.4003 81.69 90.9403 83.26 90.4303C84.83 89.9203 86.39 89.3703 87.93 88.7603C89.47 88.1603 91.01 87.5003 92.51 86.7903C92.7 86.7103 92.89 86.6103 93.07 86.5203C93.27 86.4203 93.09 86.1203 92.89 86.2203C91.4 86.9303 89.9 87.6003 88.36 88.2103C86.83 88.8203 85.28 89.3903 83.72 89.9103C82.16 90.4303 80.58 90.8903 78.98 91.3103C77.38 91.7303 75.79 92.0903 74.17 92.4003C72.56 92.7103 70.94 92.9703 69.3 93.1803C69.09 93.2003 68.89 93.2303 68.68 93.2603C68.59 93.2603 68.5 93.3303 68.5 93.4403C68.5 93.5203 68.58 93.6303 68.68 93.6203L68.72 93.5903Z" fill="#D0D8FF"/>
<path d="M93.9075 110.49C95.0975 111.09 96.5175 111.1 97.7175 110.54C98.0675 110.38 98.3775 110.18 98.6675 109.93C98.8375 109.78 98.5875 109.54 98.4175 109.68C97.4975 110.45 96.2175 110.76 95.0475 110.51C94.7175 110.44 94.3875 110.33 94.0875 110.18C93.8875 110.08 93.7075 110.38 93.9075 110.48V110.49Z" fill="#D0D8FF"/>
<path d="M98.8798 99.0801C100.33 99.1201 101.76 98.8301 103.1 98.2701C103.18 98.2301 103.21 98.1001 103.16 98.0301C103.11 97.9401 103.01 97.9301 102.92 97.9701C101.65 98.5101 100.26 98.7701 98.8798 98.7301C98.6598 98.7301 98.6598 99.0801 98.8798 99.0801Z" fill="#D0D8FF"/>
<path d="M112.169 113.69C112.859 114.03 113.699 113.98 114.349 113.6C114.539 113.49 114.709 113.35 114.849 113.19C114.909 113.12 114.919 113.01 114.849 112.94C114.789 112.88 114.659 112.87 114.599 112.94C114.539 113 114.479 113.06 114.409 113.12C114.349 113.17 114.309 113.2 114.229 113.25C114.159 113.3 114.079 113.33 114.009 113.37C113.929 113.41 113.889 113.42 113.809 113.45C113.729 113.48 113.649 113.5 113.559 113.52C113.519 113.52 113.479 113.54 113.439 113.54H113.349C113.269 113.54 113.189 113.54 113.099 113.54H112.869C112.779 113.52 112.689 113.5 112.589 113.48C112.489 113.45 112.429 113.43 112.339 113.38C112.259 113.33 112.149 113.36 112.099 113.44C112.049 113.52 112.079 113.64 112.159 113.68L112.169 113.69Z" fill="#D0D8FF"/>
<path d="M67.6684 255.59C65.5584 253.51 63.0284 251.9 60.3384 250.94C59.0584 250.48 57.6784 250.16 56.3984 250.46C55.1184 250.76 53.9584 251.83 53.8484 253.24C53.7484 254.56 54.5384 255.83 55.4784 256.77C58.4484 259.75 63.2484 260.29 66.4284 258.01" fill="#BA9803"/>
<path d="M67.9884 255.88C71.1884 256.69 74.0884 259.1 75.6584 262.24C76.4584 263.84 76.7784 266.11 75.4384 267.05C74.6084 267.63 73.4684 267.44 72.4984 267.03C69.5084 265.8 67.1584 262.74 66.6484 259.39" fill="#BA9803"/>
<path d="M76.8075 239.39C75.3575 235.86 71.9075 233.27 68.3775 233.06C67.2175 232.99 66.0275 233.18 65.0975 233.86C64.1675 234.55 63.5875 235.8 63.8475 237.01C64.0775 238.07 64.8875 238.92 65.7475 239.56C68.5975 241.71 72.3575 242.31 75.4775 241.11" fill="#BA9803"/>
<path d="M77.4364 239.88C80.1664 241.08 82.4964 243.44 83.7764 246.29C84.5364 247.98 84.7964 250.3 83.3964 251.27C82.5364 251.88 81.3064 251.68 80.3564 251.09C79.4164 250.5 78.6864 249.58 77.9764 248.68C76.5464 246.84 75.3264 244.15 75.3164 241.41" fill="#BA9803"/>
<path d="M91.0598 222.76C89.8798 218.64 86.1398 215.01 82.2098 215.31C81.4198 215.37 80.6198 215.6 80.0498 216.15C78.9498 217.22 79.0398 219.27 79.9198 220.67C80.8098 222.07 82.2798 222.94 83.7498 223.5C85.3398 224.1 86.9998 224.44 88.6498 224.48" fill="#BA9803"/>
<path d="M91.1067 223.41C93.1167 224.91 94.6367 227.17 95.3367 229.65C95.8667 231.55 95.7367 233.94 94.1967 234.87C93.0967 235.52 91.6167 235.19 90.5667 234.32C89.5167 233.45 88.8367 232.16 88.3767 230.84C87.6967 228.9 87.5467 226.43 89.0067 225.23" fill="#BA9803"/>
<path d="M107.548 208.93C106.888 206.79 105.838 204.75 104.508 202.96C103.058 201.03 100.578 199.28 98.6783 200.44C97.2583 201.3 96.9783 203.5 97.6583 205.18C98.3483 206.86 99.7583 208.11 101.198 209.12C102.698 210.18 104.338 211.09 106.078 211.28" fill="#BA9803"/>
<path d="M108.128 209.74C110.558 211.61 112.238 214.58 112.618 217.68C112.778 218.98 112.668 220.43 111.828 221.31C110.358 222.87 107.528 221.67 106.468 219.63C105.398 217.59 105.798 214.22 106.008 211.96" fill="#BA9803"/>
<path d="M114.047 206.59C91.3572 218.98 72.7372 240.21 64.1572 266.24C63.9972 266.73 63.2972 266.35 63.4572 265.86C72.0772 239.72 90.7972 218.35 113.597 205.9C114.017 205.67 114.487 206.36 114.057 206.59H114.047Z" fill="#BA9803"/>
<path d="M49.2375 118.26C48.4875 120.7 47.1975 122.95 45.4775 124.79C44.6575 125.67 43.7075 126.48 42.5375 126.79C41.3775 127.09 39.9675 126.78 39.2475 125.76C38.5675 124.82 38.6275 123.53 38.9575 122.44C39.9875 118.98 43.5875 116.57 47.1675 116.95" fill="#3A3939"/>
<path d="M49.3578 117.91C51.5578 115.97 52.7878 112.97 52.6178 109.96C52.5378 108.43 51.7578 106.59 50.2578 106.44C49.3278 106.35 48.5078 106.97 47.9178 107.67C46.0778 109.83 45.5878 113.1 46.6978 115.82" fill="#3A3939"/>
<path d="M63.9087 126.61C64.3487 129.86 62.7587 133.24 60.0287 134.86C59.1387 135.39 58.0887 135.75 57.0387 135.62C55.9887 135.49 54.9487 134.8 54.6087 133.77C54.3087 132.87 54.5787 131.9 54.9687 131.07C56.2687 128.27 59.0187 126.26 62.0687 125.87" fill="#3A3939"/>
<path d="M64.1878 125.98C65.8278 123.94 66.6278 121.21 66.3678 118.54C66.2178 116.96 65.3578 115.11 63.8078 114.96C62.8378 114.87 61.9378 115.52 61.4578 116.36C60.9678 117.19 60.7978 118.19 60.6478 119.16C60.3278 121.14 60.5678 123.66 61.8078 125.72" fill="#3A3939"/>
<path d="M82.8685 133.16C83.7985 136.74 82.4486 141.01 79.1586 142.42C78.4986 142.71 77.7585 142.87 77.0485 142.68C75.6785 142.33 74.8285 140.77 74.8985 139.35C74.9685 137.93 75.7585 136.67 76.6885 135.63C77.6885 134.52 78.8685 133.58 80.1685 132.86" fill="#3A3939"/>
<path d="M82.6182 132.65C83.5482 130.69 83.7482 128.36 83.1782 126.22C82.7382 124.58 81.5582 122.83 79.8982 122.79C78.7282 122.75 77.6882 123.62 77.2382 124.71C76.7882 125.8 76.8382 127.05 77.0582 128.23C77.3982 129.97 78.3882 131.89 80.1082 132.17" fill="#3A3939"/>
<path d="M102.35 136.69C102.79 138.57 102.88 140.53 102.62 142.43C102.34 144.48 101.14 146.83 99.0999 146.75C97.5699 146.69 96.3499 145.16 96.1299 143.62C95.9099 142.07 96.4799 140.55 97.1799 139.19C97.8999 137.78 98.8099 136.41 100.11 135.54" fill="#3A3939"/>
<path d="M102.449 135.83C103.549 133.42 103.549 130.49 102.449 128.01C101.989 126.97 101.249 125.93 100.169 125.61C98.2894 125.05 96.5594 127.12 96.6394 129.1C96.7094 131.07 98.5594 133.43 99.7394 135.04" fill="#3A3939"/>
<path d="M108.619 135.75C84.8191 135.89 60.2791 127.7 41.6091 111.75C41.2591 111.45 40.8691 112.03 41.2191 112.32C59.9691 128.34 84.6691 136.59 108.569 136.46C109.009 136.46 109.069 135.75 108.619 135.76V135.75Z" fill="#3A3939"/>
<path d="M260.738 114.68C262.458 117.1 264.668 119.12 267.138 120.54C268.318 121.22 269.618 121.77 270.938 121.7C272.248 121.62 273.578 120.78 273.928 119.41C274.258 118.13 273.698 116.73 272.938 115.65C270.528 112.2 265.898 110.82 262.368 112.51" fill="#EC946D"/>
<path d="M260.47 114.34C257.46 112.98 255.02 110.11 254.03 106.74C253.52 105.03 253.6 102.73 255.09 102.04C256.01 101.62 257.1 102.01 257.98 102.57C260.71 104.3 262.48 107.73 262.4 111.11" fill="#EC946D"/>
<path d="M248.898 129.03C249.708 132.76 252.658 135.92 256.098 136.74C257.228 137.01 258.438 137.03 259.458 136.52C260.478 136.01 261.288 134.88 261.238 133.64C261.188 132.55 260.538 131.57 259.818 130.79C257.388 128.18 253.788 126.93 250.508 127.57" fill="#EC946D"/>
<path d="M248.36 128.44C245.88 126.78 244 124.06 243.24 121.02C242.78 119.22 242.95 116.89 244.48 116.18C245.44 115.73 246.61 116.14 247.44 116.89C248.26 117.64 248.82 118.67 249.35 119.68C250.45 121.75 251.17 124.6 250.7 127.31" fill="#EC946D"/>
<path d="M231.957 142.92C232.397 147.18 235.447 151.41 239.357 151.81C240.147 151.89 240.967 151.81 241.627 151.35C242.897 150.49 243.167 148.46 242.547 146.92C241.927 145.39 240.617 144.27 239.267 143.46C237.807 142.59 236.237 141.97 234.617 141.64" fill="#EC946D"/>
<path d="M232.028 142.27C230.318 140.43 229.208 137.95 228.958 135.39C228.768 133.42 229.308 131.1 230.998 130.45C232.188 129.99 233.598 130.59 234.488 131.63C235.378 132.66 235.808 134.06 236.028 135.44C236.358 137.47 236.078 139.94 234.428 140.86" fill="#EC946D"/>
<path d="M213.297 153.65C213.577 155.88 214.237 158.07 215.247 160.06C216.337 162.22 218.477 164.37 220.547 163.57C222.097 162.97 222.757 160.85 222.387 159.08C222.007 157.31 220.837 155.83 219.597 154.58C218.307 153.28 216.847 152.1 215.167 151.59" fill="#EC946D"/>
<path d="M212.867 152.75C210.807 150.49 209.667 147.26 209.837 144.14C209.907 142.83 210.257 141.43 211.237 140.7C212.947 139.43 215.537 141.09 216.227 143.29C216.917 145.49 215.937 148.74 215.337 150.92" fill="#EC946D"/>
<path d="M206.497 154.82C231.007 146.59 253.057 128.94 266.047 104.82C266.287 104.37 266.907 104.87 266.667 105.31C253.617 129.54 231.437 147.31 206.817 155.57C206.357 155.72 206.027 154.97 206.487 154.81L206.497 154.82Z" fill="#EC946D"/>
<path d="M116.445 299.55C126.935 321.01 182.745 328.5 197.375 300.27C212.005 272.05 195.635 218.49 195.635 218.49L119.215 217.8C119.215 217.8 105.945 278.08 116.435 299.55H116.445Z" fill="#3A3939"/>
<path style="mix-blend-mode:overlay" d="M116.445 299.55C126.935 321.01 182.745 328.5 197.375 300.27C212.005 272.05 195.635 218.49 195.635 218.49L119.215 217.8C119.215 217.8 105.945 278.08 116.435 299.55H116.445Z" fill="url(#paint5_linear_1313_6659)"/>
<path d="M155.447 218.96C155.437 221.8 155.477 224.64 155.587 227.47C155.697 230.31 155.877 233.14 156.107 235.97C156.247 237.56 156.398 239.15 156.568 240.74C156.588 240.89 156.687 241.03 156.857 241.03C156.997 241.03 157.167 240.9 157.147 240.74C156.827 237.92 156.587 235.09 156.397 232.26C156.217 229.43 156.098 226.59 156.048 223.75C156.018 222.15 156.008 220.56 156.018 218.97C156.018 218.6 155.447 218.6 155.438 218.97H155.447V218.96Z" fill="white"/>
<path d="M182.848 229.3C183.518 230.36 184.368 231.3 185.338 232.08C186.308 232.86 187.418 233.51 188.588 233.98C189.758 234.46 190.968 234.76 192.218 234.9C193.468 235.04 194.728 235 195.958 234.78C197.188 234.56 198.368 234.16 199.468 233.55C199.608 233.47 199.738 233.4 199.868 233.32C200.188 233.13 199.898 232.63 199.578 232.83C198.538 233.45 197.448 233.88 196.258 234.14C195.658 234.27 195.128 234.34 194.518 234.39C193.898 234.44 193.298 234.42 192.688 234.38C191.518 234.29 190.328 234.03 189.198 233.62C188.068 233.2 187.018 232.64 186.048 231.92C185.598 231.59 185.138 231.18 184.718 230.76C184.298 230.34 183.918 229.88 183.588 229.39C183.508 229.27 183.418 229.14 183.338 229.02C183.138 228.71 182.648 229 182.848 229.31V229.3Z" fill="white"/>
<path d="M116.606 235.6C117.846 235.71 119.086 235.64 120.296 235.42C121.516 235.2 122.706 234.83 123.826 234.32C124.946 233.81 126.006 233.19 126.976 232.44C127.946 231.69 128.856 230.81 129.636 229.84C130.416 228.87 131.056 227.81 131.546 226.68C131.606 226.53 131.676 226.38 131.736 226.22C131.786 226.07 131.676 225.9 131.536 225.87C131.376 225.82 131.246 225.92 131.186 226.07C130.756 227.16 130.156 228.22 129.436 229.16C128.716 230.11 127.886 230.96 126.966 231.72C126.046 232.48 125.026 233.12 123.946 233.64C122.866 234.16 121.746 234.54 120.586 234.79C119.426 235.04 118.246 235.13 117.056 235.07C116.906 235.07 116.756 235.06 116.596 235.04C116.446 235.02 116.316 235.18 116.316 235.32C116.316 235.49 116.446 235.6 116.596 235.61L116.606 235.6Z" fill="white"/>
<path d="M150.015 249.98C151.755 250.79 153.605 251.32 155.515 251.58C157.315 251.82 159.135 251.8 160.925 251.53C161.885 251.39 162.825 251.17 163.755 250.89C164.105 250.78 163.955 250.23 163.595 250.33C161.975 250.83 160.285 251.11 158.595 251.16C156.805 251.21 155.005 251.01 153.275 250.56C152.255 250.29 151.265 249.94 150.305 249.49C150.165 249.43 149.995 249.45 149.915 249.59C149.845 249.71 149.875 249.92 150.015 249.98Z" fill="white"/>
<path d="M157.878 251.47C157.958 253.71 158.008 255.96 158.008 258.2C158.008 260.44 157.988 262.81 157.918 265.12C157.858 267.43 157.758 269.81 157.638 272.16C157.518 274.51 157.368 276.88 157.198 279.24C157.028 281.6 156.838 283.93 156.618 286.28C156.398 288.63 156.178 290.91 155.938 293.21C155.698 295.51 155.448 297.74 155.178 300C154.918 302.26 154.658 304.37 154.378 306.55C154.098 308.73 153.838 310.71 153.558 312.79C153.308 314.72 153.038 316.67 152.768 318.61C152.708 319.06 152.648 319.5 152.578 319.96C152.558 320.11 152.618 320.27 152.778 320.32C152.908 320.36 153.108 320.27 153.128 320.12C153.398 318.2 153.658 316.29 153.918 314.37C154.198 312.31 154.478 310.24 154.738 308.18C154.998 306.12 155.288 303.85 155.548 301.69C155.808 299.52 156.068 297.2 156.318 294.96C156.568 292.71 156.808 290.35 157.018 288.04C157.228 285.73 157.438 283.35 157.618 281C157.798 278.65 157.968 276.28 158.098 273.92C158.228 271.56 158.348 269.21 158.418 266.85C158.498 264.49 158.538 262.21 158.558 259.9C158.568 257.59 158.538 255.38 158.478 253.12C158.458 252.59 158.448 252.06 158.428 251.52C158.428 251.37 158.298 251.23 158.138 251.23C157.978 251.23 157.848 251.36 157.848 251.52V251.5L157.878 251.47Z" fill="white"/>
<path d="M165.787 110.85C165.787 110.85 206.377 105.19 225.737 145.9C225.737 145.9 216.057 155.95 200.667 161.84C200.667 161.84 201.417 170.34 195.897 174.13L195.497 219.05L122.087 218.4L122.477 174.02C122.477 174.02 115.947 168.48 116.557 161.92C116.557 161.92 99.6669 151.91 94.2969 139.26C94.2969 139.26 109.947 104.88 165.767 110.87L165.787 110.85Z" fill="white"/>
<path d="M143.657 104.75C140.207 104.64 136.677 103.56 134.167 101.19C131.657 98.8203 130.327 95.0603 131.387 91.7603C131.817 90.4303 132.597 89.2203 132.957 87.8603C134.027 83.7303 130.917 79.7703 130.107 75.5803C128.997 69.8203 133.007 63.5403 138.697 62.1403C144.617 60.6703 151.227 63.9403 156.817 61.4803C161.987 59.2003 164.387 52.7903 169.577 50.5803C174.017 48.7003 179.047 50.4303 183.787 51.3203C189.367 52.3603 193.437 53.6003 198.647 51.3203C203.177 49.3403 207.337 40.9003 214.417 42.9703C216.407 43.5603 217.977 47.2403 217.537 49.2603C216.587 53.6903 212.887 54.4403 211.377 58.7103C210.107 62.2903 211.487 67.3403 210.917 71.1003C210.347 74.8603 207.927 78.9303 204.137 79.1203C202.697 79.2003 201.297 78.6803 199.867 78.5003C197.147 78.1503 194.297 79.0703 192.227 80.8803C188.967 83.7303 187.927 88.2603 186.147 92.2103C183.997 97.0203 180.117 101.53 174.927 102.48C170.477 103.3 166.037 101.38 161.657 100.24C157.277 99.1003 151.917 99.0203 148.997 102.48" fill="#3A3939"/>
<g style="mix-blend-mode:overlay">
<path d="M143.657 104.75C140.207 104.64 136.677 103.56 134.167 101.19C131.657 98.8203 130.327 95.0603 131.387 91.7603C131.817 90.4303 132.597 89.2203 132.957 87.8603C134.027 83.7303 130.917 79.7703 130.107 75.5803C128.997 69.8203 133.007 63.5403 138.697 62.1403C144.617 60.6703 151.227 63.9403 156.817 61.4803C161.987 59.2003 164.387 52.7903 169.577 50.5803C174.017 48.7003 179.047 50.4303 183.787 51.3203C189.367 52.3603 193.437 53.6003 198.647 51.3203C203.177 49.3403 207.337 40.9003 214.417 42.9703C216.407 43.5603 217.977 47.2403 217.537 49.2603C216.587 53.6903 212.887 54.4403 211.377 58.7103C210.107 62.2903 211.487 67.3403 210.917 71.1003C210.347 74.8603 207.927 78.9303 204.137 79.1203C202.697 79.2003 201.297 78.6803 199.867 78.5003C197.147 78.1503 194.297 79.0703 192.227 80.8803C188.967 83.7303 187.927 88.2603 186.147 92.2103C183.997 97.0203 180.117 101.53 174.927 102.48C170.477 103.3 166.037 101.38 161.657 100.24C157.277 99.1003 151.917 99.0203 148.997 102.48" fill="url(#paint6_linear_1313_6659)"/>
</g>
<path d="M150.908 114.2L151.128 110.13C151.128 110.13 140.668 112.4 140.438 103.6C140.038 88.2705 139.008 84.1405 145.428 79.3805C151.858 74.6205 168.718 81.1505 167.978 94.0005L167.418 112.66C167.418 112.66 165.008 114.67 160.078 115.21C154.908 115.78 150.908 114.21 150.908 114.21V114.2Z" fill="#FF7C8F"/>
<path d="M150.777 110.15C150.777 110.15 156.157 109.29 159.707 105.46L150.887 114.46L150.777 110.15Z" fill="#522348"/>
<g style="mix-blend-mode:soft-light">
<path d="M163.706 96.4901C163.146 93.6101 160.216 91.6801 157.176 92.1901C154.136 92.7001 152.136 95.4401 152.696 98.3201C153.256 101.2 156.186 103.13 159.226 102.62C162.266 102.11 164.266 99.3701 163.706 96.4901Z" fill="#522348"/>
</g>
<path d="M142.716 98.6604C142.416 97.1404 141.456 95.9004 140.176 95.1304C140.236 97.5104 140.356 100.28 140.436 103.59C140.436 103.7 140.456 103.79 140.466 103.9C142.176 102.76 143.126 100.75 142.716 98.6604Z" fill="#FF7C8F"/>
<g style="mix-blend-mode:soft-light">
<path d="M142.716 98.6604C142.416 97.1404 141.456 95.9004 140.176 95.1304C140.236 97.5104 140.356 100.28 140.436 103.59C140.436 103.7 140.456 103.79 140.466 103.9C142.176 102.76 143.126 100.75 142.716 98.6604Z" fill="#522348"/>
</g>
<g style="mix-blend-mode:soft-light">
<path d="M145.339 90.1502L146.799 89.9102L148.309 97.6502L144.809 98.2402L145.339 90.1502Z" fill="#522348"/>
</g>
<path d="M150.798 87.9902C150.748 88.4402 150.058 88.7202 149.228 88.6402C148.408 88.5602 147.778 88.1202 147.818 87.6802C147.858 87.2302 148.558 86.9502 149.388 87.0302C150.208 87.1102 150.838 87.5502 150.798 87.9902Z" fill="#3A3939"/>
<path d="M144.567 87.7001C144.777 88.0701 144.397 88.6501 143.707 88.9901C143.027 89.3301 142.307 89.3101 142.097 88.9401C141.887 88.5701 142.267 87.9901 142.957 87.6501C143.647 87.3101 144.357 87.3301 144.567 87.7001Z" fill="#3A3939"/>
<path d="M173.155 95.2703C172.665 92.7503 170.105 91.0603 167.445 91.5003C164.785 91.9403 163.025 94.3503 163.515 96.8803C164.005 99.4003 166.565 101.09 169.225 100.65C171.885 100.21 173.645 97.8003 173.155 95.2703Z" fill="#FF7C8F"/>
<path d="M169.056 93.6902C167.736 93.6702 166.496 94.6002 166.106 95.8602C165.996 96.1902 165.956 96.5502 166.006 96.8902C166.026 97.0502 166.136 97.2102 166.316 97.2002C166.466 97.2002 166.646 97.0602 166.626 96.8902C166.606 96.7502 166.606 96.6102 166.606 96.4702C166.606 96.4402 166.606 96.4102 166.606 96.3702C166.586 96.4502 166.606 96.3002 166.606 96.3702V96.3202C166.606 96.2502 166.626 96.1902 166.656 96.1202C166.676 96.0502 166.696 95.9902 166.716 95.9202C166.716 95.8902 166.736 95.8602 166.756 95.8302C166.776 95.7802 166.776 95.8102 166.756 95.8302C166.756 95.8302 166.776 95.7902 166.776 95.7802C166.836 95.6602 166.896 95.5302 166.976 95.4202C166.996 95.3902 167.016 95.3602 167.036 95.3302C167.036 95.3102 167.056 95.3102 167.066 95.2902C167.036 95.3302 167.106 95.2402 167.066 95.2902C167.116 95.2402 167.156 95.1802 167.206 95.1302C167.296 95.0202 167.406 94.9302 167.516 94.8402C167.516 94.8402 167.546 94.8002 167.566 94.8002L167.536 94.8202L167.556 94.8002C167.586 94.7802 167.606 94.7602 167.636 94.7402C167.696 94.6902 167.756 94.6602 167.826 94.6202C167.886 94.5902 167.946 94.5502 168.006 94.5202C168.036 94.5002 168.066 94.4902 168.096 94.4702C168.096 94.4702 168.136 94.4502 168.146 94.4502C168.096 94.4702 168.096 94.4702 168.126 94.4502C168.126 94.4502 168.146 94.4502 168.156 94.4502C168.306 94.3902 168.466 94.3502 168.616 94.3202C168.626 94.3202 168.736 94.3202 168.736 94.3002C168.736 94.3002 168.666 94.3002 168.716 94.3002C168.746 94.3002 168.766 94.3002 168.806 94.3002C168.886 94.3002 168.976 94.3002 169.056 94.3002C169.216 94.3002 169.376 94.1502 169.366 93.9902C169.366 93.8302 169.226 93.6802 169.056 93.6802V93.7002V93.6902Z" fill="#522348"/>
<path d="M143.598 80.0604C144.108 82.5604 146.758 84.1904 149.368 84.8204C151.978 85.4604 154.728 85.4204 157.298 86.1704C159.868 86.9204 162.398 88.8204 162.538 91.3604C162.578 92.0504 162.438 92.7904 162.788 93.4004C163.158 94.0704 164.048 94.4004 164.838 94.3004C165.628 94.2104 166.328 93.7504 166.878 93.2104C168.318 91.7804 168.868 89.6804 168.628 87.7004C168.378 85.7304 167.418 83.8704 166.178 82.2604C163.798 79.1704 160.248 76.8104 156.278 76.1004C152.318 75.3904 147.968 76.4504 145.158 79.1504" fill="#3A3939"/>
<path d="M141.228 93.3804C141.678 94.0704 142.528 94.4004 143.338 94.2404C143.558 94.2004 143.758 94.1204 143.948 94.0004C144.088 93.9204 144.158 93.7204 144.058 93.5804C143.958 93.4304 143.778 93.3804 143.638 93.4704C143.608 93.4904 143.568 93.5104 143.538 93.5304C143.518 93.5304 143.498 93.5504 143.488 93.5504C143.488 93.5504 143.468 93.5504 143.458 93.5704C143.408 93.5904 143.518 93.5504 143.478 93.5704C143.398 93.6004 143.328 93.6204 143.258 93.6404C143.218 93.6404 143.178 93.6604 143.138 93.6604C143.068 93.6804 143.218 93.6604 143.138 93.6604H142.828C142.828 93.6604 142.738 93.6604 142.708 93.6604C142.708 93.6604 142.798 93.6804 142.748 93.6604H142.718C142.718 93.6604 142.668 93.6604 142.648 93.6404C142.568 93.6204 142.498 93.6004 142.418 93.5804C142.408 93.5804 142.378 93.5604 142.368 93.5604C142.368 93.5604 142.358 93.5604 142.338 93.5604C142.298 93.5404 142.408 93.5904 142.368 93.5804C142.328 93.5604 142.288 93.5404 142.248 93.5304C142.178 93.4904 142.108 93.4504 142.048 93.4104L142.028 93.3904C141.978 93.3604 142.078 93.4304 142.048 93.4104C142.028 93.3904 142.018 93.3804 141.998 93.3604C141.968 93.3304 141.928 93.3004 141.898 93.2704C141.868 93.2404 141.838 93.2004 141.808 93.1604C141.788 93.1304 141.848 93.2204 141.828 93.1904C141.828 93.1904 141.818 93.1704 141.808 93.1604C141.788 93.1404 141.778 93.1204 141.768 93.1004C141.678 92.9604 141.488 92.8904 141.348 92.9904C141.208 93.0704 141.138 93.2704 141.238 93.4104L141.228 93.3804Z" fill="#522348"/>
<path d="M149.626 93.9903C150.846 94.2703 152.166 93.8603 153.046 92.9803C153.296 92.7403 153.506 92.4603 153.666 92.1503C153.746 92.0003 153.706 91.8003 153.556 91.7303C153.406 91.6503 153.206 91.6903 153.126 91.8403C153.066 91.9603 152.986 92.0803 152.906 92.1903C152.886 92.2203 152.866 92.2403 152.846 92.2703C152.886 92.2203 152.846 92.2903 152.826 92.3003C152.776 92.3503 152.736 92.4103 152.676 92.4603C152.586 92.5603 152.486 92.6503 152.376 92.7503C152.376 92.7503 152.296 92.8103 152.326 92.7903C152.356 92.7703 152.286 92.8203 152.276 92.8303C152.216 92.8803 152.156 92.9103 152.086 92.9503C151.966 93.0303 151.846 93.0903 151.726 93.1503C151.696 93.1703 151.676 93.1703 151.636 93.1903C151.626 93.1903 151.606 93.2103 151.586 93.2103C151.606 93.2103 151.636 93.1903 151.586 93.2103C151.526 93.2303 151.456 93.2603 151.396 93.2803C151.266 93.3303 151.136 93.3603 150.996 93.3903C150.926 93.4103 150.856 93.4103 150.796 93.4303C150.846 93.4303 150.786 93.4303 150.776 93.4303C150.736 93.4303 150.696 93.4303 150.656 93.4303C150.506 93.4503 150.346 93.4503 150.196 93.4303C150.166 93.4303 150.126 93.4303 150.096 93.4303H150.046C149.956 93.4303 150.086 93.4303 150.046 93.4303C149.956 93.4103 149.886 93.4003 149.806 93.3803C149.646 93.3403 149.456 93.4303 149.416 93.6003C149.376 93.7603 149.466 93.9503 149.636 93.9903H149.626Z" fill="#522348"/>
<path d="M163.457 186.98C152.077 204.18 132.497 202.95 122.267 198.08C120.507 197.25 119.027 196.31 117.907 195.33C110.297 188.69 113.197 170.63 116.567 161.9C116.567 161.9 99.6769 151.89 94.3069 139.24C94.3069 139.24 75.3969 170.85 89.3469 203.29C101.127 230.69 141.557 239.68 170.907 218.81C176.327 214.96 181.347 210.1 185.767 204.16C203.517 180.21 176.787 166.83 163.457 186.97V186.98Z" fill="#FF7C8F"/>
<path d="M161.977 191.24C164.267 187.61 163.227 182.75 164.847 178.77C165.147 178.04 165.557 177.31 166.197 176.84C166.837 176.37 167.757 176.22 168.437 176.62C169.127 177.04 169.397 177.88 169.557 178.66C170.847 184.92 167.977 191.84 162.627 195.35" fill="#FF7C8F"/>
<path d="M189.538 196.96C192.188 189.98 194.368 179.85 191.348 178.11C190.718 177.75 189.988 177.79 189.318 177.94C189.428 176.16 189.188 174.41 187.718 173.77C186.618 173.28 185.548 173.69 184.558 174.37C184.508 172.77 184.288 171.26 182.958 170.67C181.798 170.15 180.678 170.48 179.648 171.26C179.298 170.11 178.468 168.78 176.978 168.59C174.968 168.34 174.128 170.56 172.648 174.2C171.408 177.28 168.898 183 166.578 187.4" fill="#FF7C8F"/>
<path d="M176.825 180.35C177.345 179.26 177.785 178.14 178.215 177.01C178.695 175.75 179.135 174.47 179.505 173.16C179.675 172.56 179.825 171.96 179.935 171.35C179.965 171.19 179.895 171.03 179.725 170.98C179.575 170.94 179.385 171.03 179.355 171.19C179.155 172.35 178.795 173.5 178.425 174.62C178.005 175.9 177.535 177.16 177.025 178.41C176.805 178.95 176.575 179.5 176.305 180.05C176.235 180.2 176.265 180.37 176.415 180.46C176.545 180.54 176.755 180.5 176.825 180.35Z" fill="#522348"/>
<path d="M186.798 186.76C187.318 185.67 187.758 184.55 188.188 183.42C188.668 182.16 189.108 180.88 189.478 179.58C189.648 178.98 189.798 178.38 189.908 177.77C189.938 177.61 189.868 177.45 189.698 177.4C189.548 177.36 189.358 177.45 189.328 177.61C189.128 178.77 188.768 179.92 188.398 181.04C187.978 182.32 187.508 183.58 186.998 184.83C186.778 185.37 186.538 185.92 186.278 186.47C186.208 186.62 186.238 186.79 186.388 186.88C186.518 186.96 186.728 186.92 186.798 186.77V186.76Z" fill="#522348"/>
<path d="M181.745 183.22C182.265 182.13 182.715 181.01 183.145 179.88C183.625 178.62 184.075 177.34 184.445 176.05C184.615 175.45 184.775 174.84 184.885 174.23C184.915 174.07 184.845 173.91 184.675 173.86C184.525 173.82 184.335 173.91 184.305 174.07C184.105 175.24 183.745 176.38 183.365 177.5C182.945 178.77 182.475 180.03 181.955 181.27C181.925 181.35 181.895 181.42 181.855 181.51C181.815 181.59 181.815 181.6 181.775 181.69C181.715 181.84 181.645 181.99 181.585 182.14C181.465 182.4 181.355 182.66 181.235 182.92C181.165 183.07 181.195 183.24 181.345 183.33C181.475 183.41 181.685 183.37 181.755 183.22H181.745Z" fill="#522348"/>
<path d="M114.297 217.28C109.047 214.19 103.007 214.6 100.297 218.09C106.007 223.03 113.057 226.57 120.787 228.53C121.507 224.68 118.967 220.03 114.297 217.28Z" fill="#FF7C8F"/>
<g style="mix-blend-mode:soft-light">
<path d="M114.297 217.28C109.047 214.19 103.007 214.6 100.297 218.09C106.007 223.03 113.057 226.57 120.787 228.53C121.507 224.68 118.967 220.03 114.297 217.28Z" fill="#522348"/>
</g>
<path d="M154.287 191.17C152.057 187.5 153.187 182.66 151.637 178.65C151.347 177.91 150.947 177.18 150.317 176.7C149.687 176.22 148.767 176.04 148.077 176.44C147.387 176.84 147.097 177.68 146.917 178.47C145.517 184.71 148.267 191.68 153.547 195.29" fill="#FF7C8F"/>
<path d="M225.737 145.9C225.027 144.4 224.287 142.98 223.527 141.61C224.017 142.58 224.757 144.08 225.587 146.05C225.687 145.95 225.737 145.9 225.737 145.9Z" fill="white"/>
<path d="M222.878 140.39C222.878 140.39 222.858 140.39 222.848 140.4C223.078 140.79 223.298 141.19 223.528 141.6C223.128 140.81 222.878 140.39 222.878 140.39Z" fill="#FF7C8F"/>
<path d="M225.588 146.05C224.318 147.32 214.958 156.36 200.678 161.83C200.678 161.83 200.758 162.69 200.678 163.98C203.658 173.16 205.638 189.86 198.278 196.05C197.558 196.66 196.688 197.25 195.698 197.8C186.048 203.21 164.648 205.36 152.888 186.88C139.918 166.49 112.968 179.4 130.268 203.66C134.568 209.69 139.528 214.64 144.868 218.59C160.238 229.93 178.858 232.93 194.808 229.19C194.158 225.32 196.778 220.73 201.498 218.06C206.798 215.06 212.838 215.58 215.478 219.12C220.218 215.16 224.088 210.27 226.678 204.53C237.528 180.51 230.068 156.64 225.578 146.05H225.598H225.588Z" fill="#FF7C8F"/>
<path d="M201.499 218.06C196.789 220.73 194.159 225.33 194.809 229.19C202.569 227.37 209.689 223.95 215.479 219.12C212.829 215.59 206.799 215.06 201.499 218.06Z" fill="#FF7C8F"/>
<g style="mix-blend-mode:soft-light">
<path d="M201.499 218.06C196.789 220.73 194.159 225.33 194.809 229.19C202.569 227.37 209.689 223.95 215.479 219.12C212.829 215.59 206.799 215.06 201.499 218.06Z" fill="#522348"/>
</g>
<path d="M126.649 196.401C124.129 189.371 122.129 179.211 125.179 177.521C125.809 177.171 126.539 177.221 127.219 177.391C127.139 175.601 127.409 173.871 128.889 173.251C129.989 172.791 131.059 173.201 132.039 173.911C132.129 172.311 132.369 170.811 133.709 170.241C134.869 169.751 135.989 170.091 136.999 170.901C137.369 169.761 138.229 168.441 139.709 168.281C141.719 168.061 142.529 170.291 143.929 173.961C145.119 177.071 147.529 182.821 149.759 187.261" fill="#FF7C8F"/>
<path d="M140.146 179.711C140.096 179.601 140.046 179.491 139.996 179.381C139.976 179.331 139.946 179.271 139.926 179.221C139.916 179.191 139.896 179.151 139.876 179.121C139.896 179.171 139.856 179.071 139.856 179.061C139.746 178.801 139.636 178.531 139.536 178.271C139.296 177.671 139.076 177.071 138.856 176.461C138.406 175.201 137.996 173.911 137.646 172.611C137.496 172.021 137.346 171.411 137.256 170.801C137.236 170.641 137.036 170.551 136.886 170.591C136.716 170.641 136.656 170.801 136.676 170.961C136.856 172.141 137.196 173.311 137.556 174.441C137.956 175.731 138.406 177.001 138.886 178.261C139.116 178.851 139.356 179.431 139.616 180.011C139.686 180.161 139.896 180.191 140.026 180.121C140.176 180.031 140.196 179.861 140.136 179.711H140.146Z" fill="#522348"/>
<path d="M130.075 185.951C130.025 185.841 129.975 185.731 129.925 185.621C129.905 185.571 129.875 185.511 129.855 185.461C129.845 185.431 129.825 185.391 129.805 185.361C129.825 185.411 129.785 185.311 129.785 185.301C129.675 185.041 129.565 184.771 129.465 184.511C129.225 183.911 129.005 183.311 128.785 182.701C128.335 181.441 127.925 180.161 127.575 178.851C127.425 178.261 127.275 177.661 127.185 177.051C127.165 176.891 126.965 176.801 126.815 176.841C126.645 176.891 126.585 177.051 126.605 177.211C126.785 178.391 127.135 179.561 127.485 180.691C127.885 181.981 128.335 183.251 128.825 184.511C129.055 185.101 129.295 185.681 129.555 186.261C129.625 186.411 129.835 186.451 129.965 186.371C130.115 186.291 130.135 186.111 130.075 185.961V185.951Z" fill="#522348"/>
<path d="M135.195 182.5C135.145 182.39 135.095 182.28 135.045 182.17C135.025 182.12 134.995 182.05 134.965 182C134.955 181.97 134.945 181.94 134.925 181.92C134.925 181.91 134.925 181.9 134.905 181.88C134.885 181.83 134.925 181.94 134.905 181.86C134.795 181.6 134.685 181.34 134.585 181.07C134.345 180.47 134.115 179.87 133.895 179.26C133.445 177.99 133.015 176.72 132.675 175.43C132.515 174.83 132.365 174.23 132.275 173.62C132.255 173.46 132.055 173.37 131.905 173.41C131.735 173.46 131.675 173.62 131.695 173.78C131.875 174.96 132.225 176.13 132.585 177.27C132.985 178.55 133.445 179.82 133.935 181.08C134.165 181.67 134.415 182.26 134.675 182.84C134.745 182.99 134.955 183.02 135.085 182.95C135.235 182.87 135.255 182.69 135.195 182.54V182.52V182.5Z" fill="#522348"/>
<path d="M127.866 200.71C128.646 202.01 129.496 203.28 130.376 204.5C131.266 205.73 132.216 206.93 133.196 208.09C134.176 209.26 135.176 210.33 136.216 211.41C137.256 212.49 138.286 213.47 139.366 214.46C140.446 215.45 141.486 216.34 142.586 217.24C143.686 218.13 144.726 218.94 145.836 219.75C146.866 220.5 147.906 221.22 148.966 221.92C149.936 222.55 150.926 223.17 151.926 223.75C152.826 224.27 153.736 224.77 154.676 225.24C155.496 225.65 156.316 226.03 157.166 226.39C157.346 226.47 157.526 226.54 157.706 226.61C157.856 226.67 158.026 226.55 158.076 226.4C158.126 226.23 158.026 226.09 157.866 226.03C157.686 225.96 157.496 225.88 157.316 225.81C157.296 225.81 157.266 225.79 157.246 225.78C157.226 225.78 157.146 225.73 157.226 225.78C157.176 225.76 157.126 225.74 157.076 225.72C156.986 225.68 156.886 225.64 156.786 225.6C156.376 225.42 155.966 225.23 155.556 225.04C154.656 224.61 153.776 224.14 152.906 223.64C151.916 223.08 150.946 222.5 149.986 221.89C148.936 221.23 147.906 220.53 146.896 219.81C145.826 219.05 144.776 218.26 143.756 217.45C142.656 216.58 141.586 215.68 140.536 214.76C139.486 213.83 138.406 212.82 137.386 211.8C136.366 210.78 135.316 209.67 134.336 208.56C133.356 207.45 132.406 206.29 131.506 205.1C130.606 203.91 129.736 202.66 128.936 201.39C128.736 201.07 128.546 200.77 128.346 200.44C128.156 200.12 127.636 200.41 127.826 200.74L127.866 200.71Z" fill="#522348"/>
<path d="M121.656 139.84C121.946 141.98 122.246 144.12 122.546 146.27L122.796 148.07C122.816 148.23 123.016 148.32 123.166 148.28C123.336 148.23 123.396 148.07 123.376 147.91C123.086 145.77 122.786 143.63 122.486 141.49L122.236 139.68C122.216 139.52 122.016 139.43 121.866 139.47C121.696 139.52 121.636 139.68 121.656 139.84Z" fill="#522348"/>
<path d="M122.885 147.31C121.145 149.18 119.495 151.17 118.235 153.4C116.975 155.63 116.125 158.18 116.065 160.79C116.035 162.23 116.245 163.69 116.755 165.04C116.805 165.19 116.955 165.29 117.125 165.25C117.275 165.21 117.385 165.03 117.335 164.88C116.445 162.53 116.495 159.93 117.155 157.51C117.815 155.09 119.085 152.9 120.585 150.92C121.425 149.8 122.355 148.75 123.305 147.73C123.565 147.45 123.145 147.03 122.885 147.31Z" fill="#522348"/>
<path d="M99.148 131.56C100.168 133.44 101.308 135.25 102.558 136.99C103.808 138.73 105.048 140.25 106.428 141.77C107.718 143.2 109.068 144.56 110.478 145.87C111.788 147.09 113.138 148.25 114.528 149.39C115.798 150.42 117.088 151.43 118.398 152.41C118.548 152.52 118.688 152.63 118.838 152.74C118.968 152.84 119.168 152.76 119.248 152.63C119.338 152.48 119.268 152.32 119.138 152.22C117.848 151.26 116.648 150.34 115.408 149.33C114.038 148.22 112.698 147.08 111.388 145.89C109.988 144.61 108.638 143.28 107.338 141.88C105.978 140.41 104.688 138.88 103.508 137.27C102.248 135.57 101.098 133.8 100.058 131.96C99.928 131.73 99.808 131.5 99.668 131.26C99.478 130.92 98.978 131.22 99.148 131.56Z" fill="#522348"/>
<path d="M194.667 140.34C194.337 142.48 194.007 144.61 193.667 146.75C193.577 147.35 193.477 147.95 193.387 148.56C193.367 148.72 193.427 148.88 193.597 148.93C193.737 148.97 193.937 148.88 193.967 148.72C194.297 146.58 194.627 144.45 194.967 142.31C195.057 141.71 195.147 141.11 195.247 140.5C195.267 140.34 195.206 140.18 195.036 140.13C194.896 140.09 194.697 140.18 194.667 140.34Z" fill="#522348"/>
<path d="M193.456 148.36C194.396 149.41 195.316 150.49 196.146 151.63C196.976 152.77 197.746 154 198.356 155.28C198.896 156.41 199.316 157.62 199.666 158.83C200.016 160.04 200.286 161.37 200.396 162.67C200.486 163.9 200.446 165.12 200.076 166.29C200.026 166.42 199.986 166.55 199.936 166.68C199.876 166.83 199.996 167 200.146 167.05C200.316 167.1 200.456 166.99 200.516 166.84C200.976 165.69 201.086 164.42 201.036 163.18C200.986 161.82 200.736 160.48 200.396 159.17C200.056 157.86 199.646 156.69 199.136 155.51C198.556 154.18 197.816 152.93 196.996 151.75C196.176 150.57 195.236 149.43 194.276 148.33C194.156 148.19 194.036 148.06 193.916 147.92C193.806 147.8 193.606 147.81 193.496 147.92C193.376 148.04 193.386 148.22 193.496 148.34L193.456 148.36Z" fill="#522348"/>
<path d="M220.807 137.15C219.377 138.63 217.857 140.03 216.277 141.34C214.697 142.65 213.197 143.77 211.587 144.88C209.977 145.99 208.467 146.94 206.857 147.9C205.357 148.8 203.827 149.64 202.287 150.48C200.877 151.24 199.447 151.97 198.017 152.7C197.847 152.78 197.687 152.87 197.517 152.95C197.367 153.03 197.337 153.23 197.407 153.36C197.497 153.51 197.667 153.54 197.817 153.47C199.227 152.75 200.637 152.02 202.047 151.28C203.587 150.46 205.107 149.62 206.607 148.74C208.217 147.79 209.807 146.8 211.357 145.75C212.987 144.65 214.577 143.47 216.117 142.23C217.657 140.99 219.237 139.58 220.677 138.12C220.857 137.94 221.037 137.75 221.227 137.56C221.497 137.28 221.077 136.86 220.807 137.13V137.15Z" fill="#522348"/>
<path d="M144.879 114.711C145.979 116.211 147.359 117.471 148.929 118.451C150.499 119.431 152.199 120.101 153.989 120.451C155.009 120.651 156.049 120.741 157.079 120.711C157.469 120.711 157.469 120.101 157.079 120.121C155.309 120.171 153.559 119.871 151.889 119.251C150.219 118.631 148.699 117.731 147.389 116.581C146.649 115.931 145.969 115.201 145.389 114.401C145.299 114.271 145.129 114.211 144.979 114.291C144.849 114.371 144.779 114.571 144.869 114.701L144.879 114.711Z" fill="#522348"/>
<path d="M161.607 120.77C163.347 120.61 165.047 120.12 166.607 119.34C167.047 119.12 167.477 118.87 167.887 118.6C168.017 118.52 168.077 118.34 167.997 118.19C167.917 118.06 167.727 118 167.587 118.08C166.187 118.99 164.627 119.63 162.987 119.97C162.527 120.06 162.067 120.13 161.597 120.18C161.437 120.19 161.297 120.3 161.297 120.48C161.297 120.63 161.437 120.8 161.597 120.78L161.607 120.77Z" fill="#522348"/>
<path d="M171.718 115.76C171.828 115.65 171.938 115.55 172.038 115.44C172.068 115.41 172.098 115.38 172.128 115.35C172.158 115.32 172.178 115.29 172.188 115.26C172.208 115.22 172.218 115.18 172.208 115.14C172.208 115.1 172.208 115.06 172.188 115.02C172.178 114.98 172.158 114.95 172.128 114.93L172.068 114.88C172.068 114.88 171.968 114.84 171.918 114.84H171.838C171.788 114.86 171.748 114.89 171.708 114.92C171.598 115.03 171.488 115.13 171.388 115.24C171.358 115.27 171.328 115.3 171.298 115.33C171.268 115.36 171.248 115.39 171.238 115.42C171.228 115.46 171.208 115.5 171.218 115.54C171.218 115.58 171.218 115.62 171.238 115.65C171.258 115.69 171.268 115.72 171.298 115.74L171.358 115.79C171.358 115.79 171.458 115.83 171.508 115.83H171.588C171.638 115.81 171.678 115.78 171.718 115.75V115.76Z" fill="#522348"/>
<path d="M147.106 152.86C147.736 154.19 148.246 155.57 148.636 156.99C149.026 158.41 149.276 159.86 149.396 161.32C149.466 162.15 149.486 162.99 149.466 163.83C149.466 164.22 150.056 164.22 150.056 163.83C150.086 162.31 149.976 160.8 149.736 159.3C149.496 157.8 149.116 156.35 148.616 154.93C148.326 154.12 147.996 153.32 147.626 152.55C147.556 152.4 147.346 152.37 147.216 152.44C147.066 152.52 147.036 152.7 147.106 152.85V152.86Z" fill="#522348"/>
<path d="M165.988 153.65C165.638 155.46 165.447 157.31 165.438 159.15C165.438 159.67 165.437 160.18 165.467 160.7C165.467 160.86 165.598 161 165.768 161C165.918 161 166.078 160.86 166.068 160.7C165.988 158.91 166.067 157.11 166.327 155.34C166.397 154.83 166.487 154.31 166.577 153.81C166.607 153.66 166.527 153.49 166.367 153.44C166.217 153.4 166.027 153.49 165.997 153.65H165.988Z" fill="#522348"/>
<path d="M157.968 193.58C159.448 195.08 161.088 196.41 162.878 197.53C164.668 198.65 166.438 199.47 168.348 200.13C170.258 200.79 172.268 201.23 174.278 201.5C176.288 201.77 178.468 201.86 180.568 201.81C182.808 201.75 185.038 201.52 187.248 201.18C187.528 201.13 187.808 201.1 188.078 201.05C188.238 201.03 188.328 200.83 188.288 200.68C188.238 200.51 188.078 200.45 187.918 200.47C185.738 200.83 183.548 201.09 181.348 201.19C179.138 201.29 177.148 201.24 175.058 201.01C173.098 200.79 171.118 200.39 169.208 199.79C167.308 199.19 165.538 198.41 163.828 197.41C162.118 196.41 160.438 195.14 158.968 193.72C158.778 193.53 158.588 193.35 158.398 193.16C158.128 192.89 157.708 193.31 157.978 193.59L157.968 193.58Z" fill="#522348"/>
<path d="M165.378 164.9C165.518 165.45 165.658 165.99 165.798 166.54C165.838 166.69 166.018 166.8 166.168 166.75C166.318 166.7 166.418 166.54 166.378 166.38C166.238 165.83 166.098 165.28 165.948 164.74C165.908 164.59 165.728 164.48 165.578 164.53C165.428 164.58 165.328 164.74 165.368 164.9H165.378Z" fill="#522348"/>
<path d="M175.639 164.9C177.419 163.38 178.829 161.64 179.829 159.7C180.849 157.79 181.469 155.73 181.709 153.65C181.949 151.58 181.829 149.51 181.289 147.6C181.109 147.14 180.999 146.65 180.799 146.2C180.589 145.78 180.409 145.25 180.199 144.94C179.989 144.6 179.749 144.3 179.559 144.15C179.349 143.98 179.299 144.03 179.379 144.03C179.399 144.03 179.439 144.02 179.409 144.03C179.389 144.03 179.309 144.08 179.229 144.16C179.049 144.31 178.799 144.65 178.629 144.97C178.259 145.62 178.069 146.42 178.059 147.28C178.029 148.14 178.229 149.05 178.539 149.92C178.869 150.78 179.329 151.56 179.989 152.34C181.289 153.9 183.009 155.22 184.909 156.24C185.869 156.76 186.889 157.14 187.959 157.48C189.029 157.81 190.149 158.01 191.309 158.19C190.179 158.48 188.989 158.64 187.789 158.63C186.589 158.63 185.379 158.45 184.179 158.16C181.799 157.53 179.539 156.36 177.619 154.63C177.139 154.2 176.689 153.71 176.249 153.17C175.829 152.62 175.469 152.03 175.149 151.42C174.539 150.19 174.159 148.83 174.079 147.39C173.989 145.96 174.259 144.44 174.949 143.05C175.299 142.36 175.729 141.73 176.379 141.1C176.709 140.79 177.099 140.49 177.609 140.25C178.099 140.01 178.709 139.86 179.309 139.85C180.539 139.84 181.599 140.42 182.249 141.01C182.929 141.61 183.379 142.24 183.749 142.89C184.139 143.57 184.299 144.15 184.569 144.77C184.809 145.39 184.949 146.03 185.119 146.66C185.659 149.22 185.539 151.84 184.909 154.28C184.279 156.72 183.109 158.99 181.499 160.85C179.889 162.69 177.869 164.18 175.629 164.89L175.639 164.9Z" fill="#FF7E6B"/>
<path d="M146 103C147 103 148.5 103 149.5 102.5" stroke="#522348" stroke-width="0.65" stroke-linecap="round"/>
</g>
<defs>
<linearGradient id="paint0_linear_1313_6659" x1="158.918" y1="259.67" x2="158.918" y2="122.51" gradientUnits="userSpaceOnUse">
<stop/>
<stop offset="1" stop-opacity="0"/>
</linearGradient>
<linearGradient id="paint1_linear_1313_6659" x1="274.07" y1="14.4504" x2="134.73" y2="192.61" gradientUnits="userSpaceOnUse">
<stop/>
<stop offset="1" stop-opacity="0"/>
</linearGradient>
<linearGradient id="paint2_linear_1313_6659" x1="335.207" y1="139.15" x2="232.447" y2="188.5" gradientUnits="userSpaceOnUse">
<stop/>
<stop offset="1" stop-opacity="0"/>
</linearGradient>
<linearGradient id="paint3_linear_1313_6659" x1="-3.93174" y1="168.11" x2="129.588" y2="189.02" gradientUnits="userSpaceOnUse">
<stop/>
<stop offset="1" stop-opacity="0"/>
</linearGradient>
<linearGradient id="paint4_linear_1313_6659" x1="34.4782" y1="-16.97" x2="102.338" y2="94.95" gradientUnits="userSpaceOnUse">
<stop/>
<stop offset="1" stop-opacity="0"/>
</linearGradient>
<linearGradient id="paint5_linear_1313_6659" x1="157.935" y1="324.63" x2="157.935" y2="227.44" gradientUnits="userSpaceOnUse">
<stop stop-color="white"/>
<stop offset="1" stop-color="white" stop-opacity="0"/>
</linearGradient>
<linearGradient id="paint6_linear_1313_6659" x1="245.787" y1="-0.529713" x2="167.747" y2="74.1103" gradientUnits="userSpaceOnUse">
<stop stop-color="white"/>
<stop offset="1" stop-color="white" stop-opacity="0"/>
</linearGradient>
</defs>
</svg>
