<svg width="20" height="20" viewBox="0 0 20 20" fill="none" xmlns="http://www.w3.org/2000/svg">
<g clip-path="url(#clip0_2493_9056)">
<path d="M0.896207 19.9805C0.583577 20.0469 0.383493 19.9063 0.225094 19.6758C0.0500209 19.418 0 19.1289 0 18.8281C0 12.961 0 7.08986 0 1.22267C0 0.957049 0.0458524 0.703142 0.18341 0.464861C0.329304 0.218767 0.525219 0.0507986 0.846186 0.0586111C0.971238 0.10158 1.05044 0.199236 1.14214 0.285174C4.46019 3.39455 7.77824 6.50392 11.0963 9.6133C11.2172 9.72658 11.3714 9.82033 11.4006 10C11.3839 10.1563 11.2505 10.2422 11.1463 10.3438C8.52022 12.8945 5.8316 15.3906 3.15131 17.8985C2.51355 18.4922 1.94248 19.1445 1.28387 19.7188C1.16298 19.8242 1.04627 19.9297 0.88787 19.9805H0.896207Z" fill="#3BCAFD"/>
<path d="M11.4062 10.0001C7.94228 6.75792 4.47834 3.51183 1.01439 0.261826C0.951866 0.203232 0.901845 0.125107 0.847656 0.0547947C1.13944 -0.0741116 1.39372 0.0352634 1.64382 0.16417C3.54878 1.13292 5.45791 2.10558 7.36287 3.07823C9.71802 4.28136 12.0732 5.48448 14.4283 6.69151C14.5284 6.74229 14.6242 6.8087 14.7201 6.8712C14.7535 6.98839 14.6617 7.05479 14.5909 7.1212C13.5988 8.05479 12.6026 8.99229 11.6021 9.91808C11.5605 9.95714 11.5146 9.98839 11.4562 10.004C11.4396 10.004 11.4229 10.004 11.4062 10.004V10.0001Z" fill="#48FD48"/>
<path d="M11.4031 10C11.4031 10 11.4281 10.0078 11.4406 10C11.5781 10.0273 11.6532 10.1289 11.7449 10.2109C12.6536 11.0586 13.5623 11.9102 14.4669 12.7617C14.5627 12.8516 14.6919 12.9297 14.6878 13.082C14.5002 13.25 14.2626 13.3516 14.0417 13.4687C9.9483 15.5703 5.85076 17.668 1.75322 19.7656C1.48644 19.9023 1.22384 20.0508 0.894531 19.9805C1.98665 18.9375 3.07877 17.8906 4.17506 16.8477C6.5844 14.5625 8.99374 12.2812 11.4031 10Z" fill="#FD3333"/>
<path d="M14.6847 13.0859C13.6884 12.1484 12.6922 11.2109 11.6959 10.2695C11.6042 10.1836 11.525 10.0938 11.4375 10.0039C11.4667 9.875 11.5834 9.8125 11.6751 9.72656C12.688 8.77344 13.7009 7.82031 14.7139 6.86719C15.5517 7.23047 16.3395 7.68359 17.1482 8.08984C17.9194 8.47656 18.6905 8.86719 19.4533 9.27344C20.162 9.64844 20.187 10.2813 19.4867 10.6523C17.9527 11.4648 16.3979 12.2422 14.8514 13.0313C14.8014 13.0586 14.743 13.0664 14.6847 13.082V13.0859Z" fill="#FDD200"/>
</g>
<defs>
<clipPath id="clip0_2493_9056">
<rect width="20" height="20" fill="white"/>
</clipPath>
</defs>
</svg>
