<svg width="32" height="36" viewBox="0 0 32 36" fill="none" xmlns="http://www.w3.org/2000/svg">
<path d="M17.1221 1.03027C22.3692 3.75795 26.1114 7.32821 28.3271 11.626L28.7773 12.5264C31.0677 17.2785 31.0726 22.9334 28.8008 27.3896C26.7856 31.3435 23.2472 33.9113 18.7949 34.6377L18.7695 34.6426L18.7432 34.6475C17.6533 34.8845 16.5699 35 15.5127 35C10.3737 35 5.73584 32.2924 3.18945 27.5625C0.167489 21.9441 1.25492 15.459 6.00488 10.9932L6.0127 10.9854L6.02148 10.9775C6.51306 10.4939 8.00653 9.11916 8.69629 8.61523C8.7166 9.31347 8.96375 10.3632 9.24805 11.3008C9.54965 12.2954 9.95558 13.3717 10.3467 14.0225L10.6475 14.5234L11.2314 14.5068C12.4491 14.4737 13.485 13.9603 14.3545 13.0576L14.5264 12.8721C17.1099 9.96512 17.6869 5.42585 17.1221 1.03027Z" stroke="#EB5757" stroke-width="2"/>
</svg>
