<svg width="32" height="36" viewBox="0 0 32 36" fill="none" xmlns="http://www.w3.org/2000/svg">
<path fill-rule="evenodd" clip-rule="evenodd" d="M29.4364 11.6082C27.1304 6.87541 23.1209 3.00654 17.5172 0.107726C17.1968 -0.0552137 16.817 -0.032478 16.5235 0.170249C16.228 0.372977 16.0745 0.719697 16.1206 1.07021C16.6904 5.38242 16.0941 9.60274 13.7786 12.208C13.0266 13.0549 12.1824 13.4812 11.204 13.5077C10.5537 12.4258 9.69384 9.59233 9.69384 8.52564C9.69384 8.17134 9.4924 7.84546 9.17202 7.68442C8.85548 7.52148 8.46604 7.54801 8.17828 7.75452C7.44352 8.27176 5.82437 9.76853 5.31982 10.2649C0.247502 15.0338 -0.93233 22.0099 2.30981 28.0368C5.03014 33.0898 10.0046 36 15.5124 36C16.6424 36 17.7973 35.8768 18.956 35.6249C23.7176 34.8481 27.5295 32.0857 29.6915 27.8435C32.1912 22.9402 32.0934 16.722 29.4364 11.6082Z" fill="#EB5757"/>
</svg>
