<svg width="284" height="218" viewBox="0 0 284 218" fill="none" xmlns="http://www.w3.org/2000/svg">
<g clip-path="url(#clip0_1998_43189)">
<path d="M254.308 196.283H29.6871C29.1912 196.283 28.7891 195.881 28.7891 195.385C28.7891 194.889 29.1912 194.487 29.6871 194.487H254.308C254.804 194.487 255.206 194.889 255.206 195.385C255.206 195.881 254.804 196.283 254.308 196.283Z" fill="#233863"/>
<path d="M219.162 142.393H175.474C173.718 142.393 172.289 140.964 172.289 139.208V112.704C172.289 110.588 174.01 108.867 176.126 108.867H207.469C207.783 108.867 208.037 109.122 208.037 109.435C208.037 109.749 207.783 110.003 207.469 110.003H176.125C174.636 110.003 173.425 111.215 173.425 112.704V139.208C173.425 140.338 174.344 141.257 175.474 141.257H219.162C220.291 141.257 221.21 140.338 221.21 139.208V113.396C221.21 111.525 219.688 110.003 217.818 110.003H211.763C211.449 110.003 211.195 109.749 211.195 109.435C211.195 109.122 211.449 108.867 211.763 108.867H217.818C220.315 108.867 222.346 110.899 222.346 113.396V139.208C222.347 140.965 220.918 142.393 219.162 142.393Z" fill="#FFD47D"/>
<path d="M174.361 141.617C174.205 141.617 174.048 141.552 173.937 141.426C173.728 141.192 173.749 140.833 173.983 140.624L191.831 124.746C192.064 124.537 192.425 124.559 192.633 124.793C192.841 125.028 192.82 125.387 192.586 125.595L174.739 141.473C174.63 141.569 174.495 141.617 174.361 141.617Z" fill="#FFD47D"/>
<path d="M220.093 142.056C219.959 142.056 219.824 142.009 219.716 141.913L201.894 126.115C201.66 125.907 201.638 125.548 201.846 125.314C202.054 125.077 202.413 125.058 202.647 125.265L220.47 141.064C220.704 141.272 220.726 141.631 220.518 141.865C220.406 141.991 220.25 142.056 220.093 142.056Z" fill="#FFD47D"/>
<path d="M197.323 129.126C196.732 129.126 196.142 128.941 195.638 128.57L173.04 111.964C172.788 111.778 172.733 111.422 172.919 111.17C173.105 110.917 173.46 110.861 173.713 111.049L196.311 127.655C196.914 128.098 197.725 128.099 198.329 127.659L220.445 111.535C220.698 111.351 221.054 111.407 221.239 111.66C221.424 111.913 221.368 112.269 221.114 112.454L198.999 128.578C198.497 128.943 197.91 129.126 197.323 129.126Z" fill="#FFD47D"/>
<path d="M219.547 105.325C220.018 105.671 220.652 105.673 221.126 105.328L239.921 91.6244C239.195 90.7276 238.087 90.1533 236.843 90.1533H203.133C202.093 90.1533 201.169 90.6407 200.57 91.3972C200.592 91.4092 200.616 91.4126 200.636 91.4279L219.547 105.325Z" fill="#83AAC6"/>
<path d="M221.796 106.246C221.36 106.564 220.85 106.723 220.34 106.723C219.827 106.723 219.313 106.562 218.876 106.24L216.006 104.131L201.505 117.032C201.494 117.042 201.48 117.045 201.469 117.053C201.781 117.185 202.124 117.258 202.483 117.258H238.188C238.391 117.258 238.586 117.23 238.776 117.186L224.341 104.391L221.796 106.246Z" fill="#83AAC6"/>
<path d="M215.067 103.443L200.031 92.3936C199.923 92.7173 199.863 93.0621 199.863 93.4222V114.641C199.863 115.341 200.142 115.974 200.59 116.444C200.62 116.347 200.665 116.255 200.746 116.184L215.067 103.443Z" fill="#83AAC6"/>
<path d="M239.768 116.551C239.8 116.58 239.819 116.617 239.843 116.651C240.424 116.171 240.802 115.453 240.802 114.641V94.1141C240.802 93.5796 240.695 93.0707 240.503 92.6055L225.277 103.706L239.768 116.551Z" fill="#83AAC6"/>
<g opacity="0.69">
<path d="M240.867 169.966H211.216C209.46 169.966 208.031 168.537 208.031 166.781V149.57C208.031 147.454 209.752 145.733 211.868 145.733H239.523C242.02 145.733 244.053 147.765 244.053 150.262V166.781C244.052 168.537 242.623 169.966 240.867 169.966ZM211.868 146.869C210.378 146.869 209.167 148.081 209.167 149.57V166.781C209.167 167.91 210.086 168.83 211.215 168.83H240.867C241.997 168.83 242.916 167.91 242.916 166.781V150.262C242.916 148.392 241.393 146.869 239.522 146.869H211.868Z" fill="white"/>
<path d="M222.012 157.1L209.289 168.426L210.044 169.274L222.767 157.948L222.012 157.1Z" fill="white"/>
<path d="M229.937 157.466L229.184 158.315L241.892 169.58L242.645 168.73L229.937 157.466Z" fill="white"/>
<path d="M226.045 160.505C225.59 160.505 225.135 160.363 224.748 160.078L208.633 148.235L209.305 147.32L225.419 159.163C225.792 159.435 226.292 159.436 226.666 159.165L243.361 146.993L244.03 147.91L227.335 160.082C226.95 160.364 226.497 160.505 226.045 160.505Z" fill="white"/>
</g>
<path d="M240.588 97.4071C244.529 97.4071 247.724 94.2126 247.724 90.2719C247.724 86.3313 244.529 83.1367 240.588 83.1367C236.648 83.1367 233.453 86.3313 233.453 90.2719C233.453 94.2126 236.648 97.4071 240.588 97.4071Z" fill="#FFD47D"/>
<path d="M239.009 93.0287H238.227V88.3069L237.434 88.7937V87.9849L238.227 87.4561H239.009V93.0287Z" fill="white"/>
<path d="M240.678 92.669C240.408 92.3901 240.273 92.0021 240.273 91.504V88.9707C240.273 88.4697 240.409 88.0807 240.68 87.8035C240.95 87.5263 241.345 87.3877 241.864 87.3877C242.385 87.3877 242.781 87.5257 243.05 87.8018C243.319 88.0778 243.454 88.4675 243.454 88.9707V91.504C243.454 92.005 243.319 92.394 243.048 92.6712C242.777 92.9484 242.382 93.087 241.864 93.087C241.342 93.087 240.947 92.9478 240.678 92.669ZM242.475 92.1265C242.607 91.9822 242.673 91.7744 242.673 91.504V88.9707C242.673 88.6998 242.607 88.4925 242.477 88.3476C242.347 88.2033 242.142 88.1312 241.864 88.1312C241.585 88.1312 241.381 88.2033 241.25 88.3476C241.12 88.4919 241.055 88.6998 241.055 88.9707V91.504C241.055 91.7749 241.121 91.9828 241.252 92.1265C241.384 92.2708 241.588 92.3429 241.864 92.3429C242.14 92.3429 242.344 92.2714 242.475 92.1265Z" fill="white"/>
<path d="M82.2324 88.2799C81.8428 88.2799 81.4628 88.1237 81.1805 87.8301L76.3718 82.8385C76.052 82.5068 75.605 82.3171 75.1455 82.3171L27.901 82.262C25.2785 82.262 23.1445 80.128 23.1445 77.5055V59.5914C23.1445 56.9684 25.2785 54.835 27.9015 54.835H78.2837C81.2702 54.835 83.7001 57.2643 83.7001 60.2508V86.8145C83.7001 87.4149 83.34 87.9482 82.7834 88.1732C82.6045 88.2447 82.4176 88.2799 82.2324 88.2799ZM27.9015 55.971C25.9044 55.971 24.2805 57.5949 24.2805 59.5914V77.5055C24.2805 79.5021 25.9044 81.126 27.9015 81.126L75.1461 81.1811C75.9129 81.1811 76.6575 81.498 77.1903 82.0507L81.9984 87.0423C82.1376 87.1871 82.2966 87.1434 82.3591 87.1189C82.421 87.094 82.5647 87.0144 82.5647 86.8139V60.2503C82.5647 57.8902 80.6443 55.9704 78.2843 55.9704H27.9015V55.971Z" fill="#83AAC6"/>
<path d="M70.4461 65.427H58.3414C58.0273 65.427 57.7734 65.1726 57.7734 64.859C57.7734 64.5455 58.0273 64.291 58.3414 64.291H70.4461C70.7602 64.291 71.0141 64.5455 71.0141 64.859C71.0141 65.1726 70.7602 65.427 70.4461 65.427Z" fill="#FFD47D"/>
<path d="M50.969 65.427H32.4391C32.125 65.427 31.8711 65.1726 31.8711 64.859C31.8711 64.5455 32.125 64.291 32.4391 64.291H50.969C51.2831 64.291 51.537 64.5455 51.537 64.859C51.537 65.1726 51.2831 65.427 50.969 65.427Z" fill="#FFD47D"/>
<path d="M70.4455 69.7395H39.9586C39.6445 69.7395 39.3906 69.4851 39.3906 69.1715C39.3906 68.858 39.6445 68.6035 39.9586 68.6035H70.446C70.7601 68.6035 71.014 68.858 71.014 69.1715C71.0135 69.4851 70.7596 69.7395 70.4455 69.7395Z" fill="#FFD47D"/>
<path d="M70.448 74.053H50.2477C49.9336 74.053 49.6797 73.7985 49.6797 73.485C49.6797 73.1715 49.9336 72.917 50.2477 72.917H70.448C70.7621 72.917 71.016 73.1715 71.016 73.485C71.016 73.7985 70.7621 74.053 70.448 74.053Z" fill="#FFD47D"/>
<path d="M75.7417 57.7283H59.3288C58.8051 57.7283 58.3036 57.9413 57.94 58.319L53.8567 62.558C53.3813 63.0516 52.5469 62.7147 52.5469 62.0297V55.5994V39.4733C52.5469 37.1996 54.39 35.3564 56.6637 35.3564H76.3955C78.2455 35.3564 79.7456 36.8565 79.7456 38.7065V53.725C79.7444 55.9362 77.9524 57.7283 75.7417 57.7283Z" fill="#FFD47D"/>
<path d="M61.205 47.038C61.205 47.8145 60.5757 48.4433 59.7998 48.4433C59.0233 48.4433 58.3945 47.8139 58.3945 47.038C58.3945 46.2622 59.0239 45.6328 59.7998 45.6328C60.5757 45.6328 61.205 46.2622 61.205 47.038Z" fill="white"/>
<path d="M67.7909 47.038C67.7909 47.8145 67.1616 48.4433 66.3857 48.4433C65.6098 48.4433 64.9805 47.8139 64.9805 47.038C64.9805 46.2622 65.6098 45.6328 66.3857 45.6328C67.1622 45.6328 67.7909 46.2622 67.7909 47.038Z" fill="white"/>
<path d="M73.1279 48.4433C73.904 48.4433 74.5331 47.8141 74.5331 47.038C74.5331 46.262 73.904 45.6328 73.1279 45.6328C72.3518 45.6328 71.7227 46.262 71.7227 47.038C71.7227 47.8141 72.3518 48.4433 73.1279 48.4433Z" fill="white"/>
<path d="M75.9667 114.323C80.4458 105.387 76.8326 94.5117 67.8965 90.0327C58.9604 85.5536 48.0852 89.1668 43.6061 98.1029C39.1271 107.039 42.7403 117.914 51.6764 122.393C60.6125 126.872 71.4877 123.259 75.9667 114.323Z" fill="#83AAC6"/>
<path d="M59.7858 116.144C57.7876 116.144 56.108 114.648 55.8785 112.666L55.8047 112.032H63.7663L63.6925 112.666C63.463 114.649 61.7829 116.144 59.7858 116.144ZM57.156 113.168C57.549 114.251 58.5873 115.008 59.7858 115.008C60.9837 115.008 62.022 114.251 62.4151 113.168H57.156Z" fill="white"/>
<path d="M66.7765 109.41H52.7969V102.99C52.7969 99.2893 55.8073 96.2783 59.5072 96.2783H60.0644C63.765 96.2783 66.7759 99.2887 66.7759 102.99L66.7765 109.41ZM53.9329 108.274H65.6399V102.99C65.6399 99.9158 63.139 97.4143 60.0644 97.4143H59.5072C56.4332 97.4143 53.9329 99.9152 53.9329 102.99V108.274Z" fill="white"/>
<path d="M66.2078 113.168H53.3585C52.0538 113.168 50.9922 112.107 50.9922 110.803V110.639C50.9922 109.335 52.0538 108.273 53.3585 108.273H66.2078C67.5125 108.273 68.5741 109.335 68.5741 110.639V110.803C68.5741 112.107 67.5125 113.168 66.2078 113.168ZM53.3619 109.41C52.6803 109.41 52.1282 109.962 52.1282 110.64V110.803C52.1282 111.481 52.6803 112.033 53.3585 112.033H66.2078C66.886 112.033 67.4381 111.481 67.4381 110.803V110.64C67.4381 109.962 66.886 109.41 66.2078 109.41H53.3619Z" fill="white"/>
<path d="M94.7236 23.9944C99.1615 19.5566 99.1615 12.3614 94.7236 7.92351C90.2857 3.48565 83.0905 3.48565 78.6527 7.92352C74.2148 12.3614 74.2148 19.5566 78.6527 23.9944C83.0905 28.4323 90.2857 28.4323 94.7236 23.9944Z" fill="#83AAC6"/>
<path d="M86.0586 11.4619H87.3201V18.1484H86.0586V11.4619ZM86.0586 19.1941H87.3201V20.4556H86.0586V19.1941Z" fill="white"/>
<path d="M240.024 41.3164H180.44C177.274 41.3164 174.707 43.8832 174.707 47.0498V69.5085V78.4642C174.707 79.4184 175.869 79.8876 176.531 79.1997L182.218 73.2965C182.724 72.7711 183.423 72.474 184.152 72.474L240.023 72.4093C242.759 72.4093 244.977 70.1913 244.977 67.4558V46.2705C244.977 43.5339 242.759 41.3164 240.024 41.3164Z" fill="#FFD47D"/>
<path d="M204.027 53.0667H189.713C189.398 53.0667 189.145 52.8122 189.145 52.4987C189.145 52.1851 189.398 51.9307 189.713 51.9307H204.027C204.341 51.9307 204.595 52.1851 204.595 52.4987C204.595 52.8122 204.341 53.0667 204.027 53.0667Z" fill="white"/>
<path d="M234.658 53.0667H212.744C212.43 53.0667 212.176 52.8122 212.176 52.4987C212.176 52.1851 212.43 51.9307 212.744 51.9307H234.658C234.972 51.9307 235.226 52.1851 235.226 52.4987C235.226 52.8122 234.971 53.0667 234.658 53.0667Z" fill="white"/>
<path d="M225.767 58.1682H189.713C189.398 58.1682 189.145 57.9138 189.145 57.6002C189.145 57.2867 189.398 57.0322 189.713 57.0322H225.767C226.082 57.0322 226.335 57.2867 226.335 57.6002C226.335 57.9138 226.082 58.1682 225.767 58.1682Z" fill="white"/>
<path d="M213.602 63.2688H189.713C189.398 63.2688 189.145 63.0143 189.145 62.7008C189.145 62.3873 189.398 62.1328 189.713 62.1328H213.602C213.916 62.1328 214.17 62.3873 214.17 62.7008C214.17 63.0143 213.916 63.2688 213.602 63.2688Z" fill="white"/>
<path d="M164.271 42.5058H180.871C181.401 42.5058 181.908 42.7216 182.276 43.1027L186.406 47.39C186.887 47.8893 187.731 47.549 187.731 46.8555V40.3519V24.0423C187.731 21.7425 185.867 19.8789 183.567 19.8789H163.611C161.739 19.8789 160.223 21.396 160.223 23.267V38.4571C160.222 40.6933 162.035 42.5058 164.271 42.5058Z" fill="#83AAC6"/>
<path d="M178.973 31.6955C178.973 32.4805 179.609 33.1167 180.394 33.1167C181.179 33.1167 181.815 32.4805 181.815 31.6955C181.815 30.9106 181.179 30.2744 180.394 30.2744C179.609 30.2738 178.973 30.9106 178.973 31.6955Z" fill="white"/>
<path d="M172.309 31.6955C172.309 32.4805 172.945 33.1167 173.73 33.1167C174.515 33.1167 175.151 32.4805 175.151 31.6955C175.151 30.9106 174.515 30.2744 173.73 30.2744C172.945 30.2738 172.309 30.9106 172.309 31.6955Z" fill="white"/>
<path d="M165.492 31.6955C165.492 32.4805 166.128 33.1167 166.913 33.1167C167.698 33.1167 168.334 32.4805 168.334 31.6955C168.334 30.9106 167.698 30.2744 166.913 30.2744C166.128 30.2738 165.492 30.9106 165.492 31.6955Z" fill="white"/>
<path d="M248.803 51.6188C252.249 48.1732 252.249 42.5866 248.803 39.1409C245.357 35.6952 239.771 35.6952 236.325 39.1409C232.879 42.5866 232.879 48.1732 236.325 51.6188C239.771 55.0645 245.357 55.0645 248.803 51.6188Z" fill="#83AAC6"/>
<path d="M243.578 49.5H242.364V42.1688L241.133 42.9248V41.669L242.364 40.8477H243.578V49.5Z" fill="white"/>
<g opacity="0.61">
<path d="M166.119 173.437H151.252C150.937 173.437 150.684 173.183 150.684 172.869C150.684 172.555 150.937 172.301 151.252 172.301H166.119C166.433 172.301 166.687 172.555 166.687 172.869C166.687 173.182 166.433 173.437 166.119 173.437Z" fill="white"/>
<path d="M197.93 173.437H175.17C174.855 173.437 174.602 173.183 174.602 172.869C174.602 172.555 174.855 172.301 175.17 172.301H197.929C198.243 172.301 198.497 172.555 198.497 172.869C198.498 173.182 198.243 173.437 197.93 173.437Z" fill="white"/>
<path d="M188.699 178.735H151.252C150.937 178.735 150.684 178.481 150.684 178.167C150.684 177.853 150.937 177.599 151.252 177.599H188.699C189.013 177.599 189.267 177.853 189.267 178.167C189.267 178.48 189.013 178.735 188.699 178.735Z" fill="white"/>
<path d="M176.063 184.032H151.252C150.937 184.032 150.684 183.779 150.684 183.464C150.684 183.15 150.937 182.896 151.252 182.896H176.063C176.377 182.896 176.631 183.15 176.631 183.464C176.631 183.779 176.377 184.032 176.063 184.032Z" fill="white"/>
<path d="M70.2956 165.055H31.8727C31.5586 165.055 31.3047 164.801 31.3047 164.487C31.3047 164.173 31.5586 163.919 31.8727 163.919H70.2956C70.6097 163.919 70.8636 164.173 70.8636 164.487C70.8636 164.801 70.6097 165.055 70.2956 165.055Z" fill="white"/>
<path d="M70.2956 153.182H31.8727C31.5586 153.182 31.3047 152.928 31.3047 152.614C31.3047 152.3 31.5586 152.046 31.8727 152.046H70.2956C70.6097 152.046 70.8636 152.3 70.8636 152.614C70.8636 152.928 70.6097 153.182 70.2956 153.182Z" fill="white"/>
<path d="M70.2947 159.118H49.5797C49.2656 159.118 49.0117 158.865 49.0117 158.55C49.0117 158.236 49.2656 157.982 49.5797 157.982H70.2947C70.6088 157.982 70.8627 158.236 70.8627 158.55C70.8627 158.865 70.6088 159.118 70.2947 159.118Z" fill="white"/>
<path d="M70.2947 146.886H49.5797C49.2656 146.886 49.0117 146.632 49.0117 146.318C49.0117 146.004 49.2656 145.75 49.5797 145.75H70.2947C70.6088 145.75 70.8627 146.004 70.8627 146.318C70.8627 146.632 70.6088 146.886 70.2947 146.886Z" fill="white"/>
<path d="M70.2963 141.22H56.3258C56.0117 141.22 55.7578 140.966 55.7578 140.652C55.7578 140.338 56.0117 140.084 56.3258 140.084H70.2963C70.6104 140.084 70.8643 140.338 70.8643 140.652C70.8643 140.966 70.6104 141.22 70.2963 141.22Z" fill="white"/>
</g>
<path d="M155.166 55.3291C155.149 55.3217 155.106 55.3212 155.117 55.307C162.076 46.0275 153.366 33.7082 145.778 32.9471C143.192 29.7248 139.724 27.1194 135.509 25.5602C133.278 24.7349 130.986 24.28 128.702 24.1567C128.661 18.4125 123.995 13.7686 118.241 13.7686C112.462 13.7686 107.777 18.4534 107.777 24.2328C107.777 26.9206 108.799 29.3636 110.465 31.2169C108.779 32.9249 107.333 34.9072 106.213 37.1395C105.948 37.6672 105.712 38.2011 105.49 38.7373C96.9997 38.451 89.7048 44.8808 89.034 53.4348C88.5597 59.4857 91.5219 65.0124 96.28 68.0978C93.3917 69.6206 91.5639 71.7182 91.3736 74.147C91.1521 76.9728 93.1929 79.7009 96.6537 81.8115C95.9369 83.256 95.5371 84.8503 95.5371 86.5277C95.5371 93.0318 101.514 98.3046 108.887 98.3046C113.87 98.3046 118.213 95.894 120.506 92.3241C122.098 93.359 123.858 94.3138 125.76 95.1414C135.584 99.4167 145.351 98.738 147.576 93.6254C148.178 92.2417 148.162 90.6746 147.629 89.0411C148.22 88.9417 148.801 88.8076 149.366 88.627C169.218 82.287 171.896 62.9051 155.166 55.3291Z" fill="#233863"/>
<path d="M158.899 140.02L157.572 136.275L167.53 130.596L167.844 130.417V129.444C167.844 111.143 156.084 96.3066 141.576 96.3066H126.176L126.374 96.6736L99.2137 96.8928C92.442 96.9473 86.7018 101.812 84.4673 108.613L65.3359 151.316L68.089 151.653L83.7795 153.572L84.1339 196.98L151.404 196.998L153.625 161.575L156.154 157.444L157.373 155.452C160.138 150.935 160.712 145.133 158.899 140.02Z" fill="#83AAC6"/>
<path d="M102.644 156.074L86.7122 154.216C86.5566 154.198 86.4447 154.057 86.4629 153.901C86.481 153.744 86.6259 153.638 86.7781 153.651L102.206 155.45L106.587 136.546C106.622 136.394 106.775 136.298 106.928 136.333C107.081 136.369 107.176 136.521 107.14 136.675L102.644 156.074Z" fill="#374081"/>
<path d="M119.274 115.407C109.984 115.407 102.426 107.849 102.426 98.559V96.6579C102.426 96.4301 102.61 96.2461 102.838 96.2461C103.065 96.2461 103.249 96.4301 103.249 96.6579V98.559C103.249 107.395 110.438 114.583 119.274 114.583C128.11 114.583 135.298 107.395 135.298 98.559V96.6579C135.298 96.4301 135.482 96.2461 135.709 96.2461C135.937 96.2461 136.121 96.4301 136.121 96.6579V98.559C136.121 107.849 128.563 115.407 119.274 115.407Z" fill="#233863"/>
<path d="M108.026 106.238C107.894 106.238 107.765 106.174 107.685 106.057C106.118 103.742 105.289 101.035 105.289 98.2278V96.6579C105.289 96.4301 105.473 96.2461 105.701 96.2461C105.928 96.2461 106.113 96.4301 106.113 96.6579V98.2278C106.113 100.869 106.893 103.418 108.368 105.596C108.495 105.784 108.445 106.04 108.257 106.167C108.186 106.215 108.106 106.238 108.026 106.238Z" fill="#233863"/>
<path d="M119.271 112.211C116.067 112.211 113.054 111.158 110.558 109.165C110.38 109.024 110.35 108.765 110.492 108.587C110.635 108.409 110.894 108.382 111.07 108.522C113.42 110.396 116.256 111.387 119.271 111.387C122.281 111.387 125.114 110.398 127.463 108.528C127.64 108.385 127.9 108.416 128.041 108.593C128.184 108.771 128.154 109.03 127.976 109.172C125.48 111.16 122.47 112.211 119.271 112.211Z" fill="#233863"/>
<path d="M131.08 105.332C131.01 105.332 130.941 105.315 130.876 105.278C130.679 105.167 130.609 104.915 130.722 104.717C131.839 102.749 132.43 100.505 132.43 98.2278V96.6579C132.43 96.4301 132.614 96.2461 132.842 96.2461C133.069 96.2461 133.253 96.4301 133.253 96.6579V98.2278C133.253 100.648 132.626 103.031 131.438 105.124C131.362 105.257 131.223 105.332 131.08 105.332Z" fill="#233863"/>
<path d="M159.329 208.477L148.718 192.521C146.298 189.418 144.906 185.657 142.086 184.889L140.186 184.405L140.198 184.375L92.6077 172.549L96.5337 155.132L68.0917 151.652L59.3081 180.623C58.7344 183.121 58.7623 185.616 59.2956 187.958C60.6634 195.276 67.0108 201.055 74.9594 201.194L125.137 201.069C130.348 206.526 146.643 217.698 146.643 217.698C147.411 218.366 148.585 218.285 149.253 217.517C149.689 217.016 149.8 216.342 149.615 215.748C149.699 215.732 149.748 215.722 149.748 215.722C149.801 215.737 149.844 215.743 149.895 215.757L150.591 216.432C151.399 217.217 152.702 217.197 153.485 216.389L153.535 216.338C153.887 215.976 154.068 215.513 154.098 215.043L154.113 215.058C154.9 215.863 156.203 215.878 157.008 215.091L157.059 215.041C157.864 214.253 157.879 212.951 157.092 212.145L156.896 211.945C156.868 211.872 156.84 211.8 156.811 211.73C157.583 212.165 158.583 212.071 159.247 211.421L159.298 211.371C160.101 210.585 160.116 209.282 159.329 208.477Z" fill="#FFBA94"/>
<path d="M156.97 212.034C156.896 212.034 156.822 212.005 156.767 211.949L150.456 205.494C150.346 205.382 150.348 205.202 150.46 205.092C150.573 204.984 150.753 204.984 150.862 205.097L157.173 211.552C157.283 211.664 157.281 211.844 157.168 211.953C157.113 212.007 157.041 212.034 156.97 212.034Z" fill="#FB8E77"/>
<path d="M153.614 214.565C153.54 214.565 153.466 214.536 153.411 214.48L147.1 208.025C146.991 207.913 146.993 207.733 147.105 207.623C147.218 207.515 147.398 207.516 147.506 207.628L153.818 214.083C153.927 214.195 153.925 214.375 153.813 214.484C153.757 214.538 153.686 214.565 153.614 214.565Z" fill="#FB8E77"/>
<path d="M149.631 215.885C149.56 215.885 149.489 215.858 149.434 215.805L142.931 209.544C142.818 209.435 142.814 209.255 142.923 209.142C143.033 209.03 143.213 209.027 143.324 209.134L149.828 215.396C149.941 215.504 149.944 215.684 149.835 215.797C149.779 215.855 149.705 215.885 149.631 215.885Z" fill="#FB8E77"/>
<path d="M97.3721 174.017C97.3431 174.017 97.3136 174.012 97.2852 174.003L82.6382 169.296C82.4888 169.249 82.407 169.089 82.4553 168.939C82.5024 168.79 82.6637 168.708 82.8126 168.756L97.4596 173.463C97.6089 173.511 97.6907 173.67 97.6425 173.82C97.6038 173.94 97.4925 174.017 97.3721 174.017Z" fill="#FB8E77"/>
<path d="M132.922 47.415C130.126 47.8348 127.474 50.4198 125.349 53.2609C125.02 53.7 124.661 54.1021 124.275 54.4662C121.43 57.1506 117.299 57.413 114.084 55.655L113.302 55.5159C109.815 54.8945 106.485 57.2176 105.864 60.7045L105.843 60.8232C105.221 64.3102 107.544 67.6398 111.031 68.2612L112.608 68.5424L112.193 70.8729C111.943 72.277 111.875 73.6714 111.97 75.0323L108.307 95.5928C107.247 101.545 111.212 107.229 117.164 108.29C123.116 109.35 128.801 105.385 129.861 99.433L131.324 91.2215C139.405 91.2561 146.583 85.4881 148.048 77.2606L148.329 75.685L151.806 56.1645C147.892 55.6811 134.04 53.5426 132.922 47.415Z" fill="#FFBA94"/>
<path opacity="0.46" d="M128.686 89.3863L128.372 89.3306C119.898 87.8209 114.027 80.2512 114.425 71.8766C114.49 70.506 113.806 69.2092 112.606 68.543L112.191 70.8735C111.275 76.0167 112.786 81.0299 115.902 84.7401L129.699 100.449L131.317 91.3686L130.976 91.2221C139.197 91.426 146.559 85.6057 148.046 77.2612L148.327 75.6856C146.686 84.8928 137.892 91.0267 128.686 89.3863Z" fill="#FB8E77"/>
<path d="M131.315 84.9524C131.24 84.9524 131.164 84.9223 131.109 84.8638C131.002 84.7502 131.006 84.5707 131.119 84.4628C131.135 84.4474 132.747 82.9462 134.643 83.9431C134.782 84.0158 134.836 84.1879 134.762 84.3265C134.69 84.4662 134.517 84.5184 134.379 84.4457C132.847 83.6403 131.564 84.824 131.51 84.8746C131.455 84.9263 131.385 84.9524 131.315 84.9524Z" fill="#FB8E77"/>
<path d="M135.905 66.2578C135.803 66.8332 135.253 67.2166 134.677 67.1138C134.102 67.0115 133.719 66.4617 133.821 65.8863C133.924 65.3109 134.473 64.9275 135.049 65.0303C135.624 65.1331 136.007 65.6824 135.905 66.2578Z" fill="#233863"/>
<path d="M148.428 68.4892C148.325 69.0646 147.776 69.448 147.201 69.3452C146.625 69.243 146.242 68.6931 146.345 68.1178C146.447 67.5424 146.997 67.159 147.572 67.2618C148.147 67.3646 148.53 67.9138 148.428 68.4892Z" fill="#233863"/>
<path d="M138.259 74.2628C137.741 74.2628 137.134 74.1696 136.426 73.9367C136.276 73.8879 136.196 73.7271 136.245 73.5783C136.294 73.4289 136.455 73.3483 136.603 73.3971C138.991 74.1838 140.013 73.2029 140.34 72.7445C140.399 72.661 140.423 72.5576 140.408 72.4537L139.189 64.4506C139.165 64.2955 139.272 64.1507 139.427 64.1274C139.579 64.1035 139.727 64.2097 139.75 64.3654L140.969 72.369C141.007 72.6195 140.948 72.87 140.802 73.0745C140.505 73.4903 139.751 74.2628 138.259 74.2628Z" fill="#FB8E77"/>
<path d="M130.206 80.4046L128.013 79.1385C125.296 77.5703 124.365 74.0964 125.934 71.3796L126.096 71.0996L134.431 75.9117L132.135 79.8883C131.745 80.5631 130.881 80.7942 130.206 80.4046Z" fill="white"/>
<path d="M131.52 71.3125C127.865 71.3125 124.891 68.3419 124.887 64.6868C124.883 61.0294 127.856 58.0509 131.513 58.0469C131.515 58.0469 131.518 58.0469 131.52 58.0469C133.289 58.0469 134.953 58.7347 136.205 59.9849C137.459 61.2368 138.151 62.9016 138.153 64.6732C138.157 68.3305 135.184 71.3091 131.527 71.3125C131.525 71.3125 131.522 71.3125 131.52 71.3125ZM126.023 64.6857C126.026 67.7148 128.492 70.1765 131.52 70.1765C131.522 70.1765 131.524 70.1765 131.526 70.1765C134.557 70.1737 137.02 67.7052 137.017 64.6737C137.015 63.2055 136.442 61.8258 135.403 60.7886C134.365 59.7531 132.986 59.1829 131.52 59.1829C131.518 59.1829 131.516 59.1829 131.514 59.1829C128.483 59.1863 126.02 61.6542 126.023 64.6857Z" fill="white"/>
<path d="M146.602 74.2485C142.948 74.2485 139.973 71.2778 139.969 67.6228C139.965 63.9654 142.938 60.9868 146.594 60.9834C146.597 60.9834 146.6 60.9834 146.602 60.9834C150.256 60.9834 153.23 63.954 153.235 67.6091C153.239 71.2665 150.266 74.2451 146.609 74.249C146.606 74.2485 146.604 74.2485 146.602 74.2485ZM141.105 67.621C141.108 70.6502 143.574 73.1119 146.602 73.1119C146.604 73.1119 146.605 73.1119 146.608 73.1119C149.638 73.1085 152.102 70.64 152.099 67.6091C152.096 64.58 149.63 62.1183 146.602 62.1183C146.6 62.1183 146.598 62.1183 146.596 62.1183C143.565 62.1217 141.102 64.5902 141.105 67.621Z" fill="white"/>
<path d="M140.36 66.8773C140.342 66.8773 140.324 66.8767 140.305 66.8744L137.943 66.6444C137.63 66.6143 137.402 66.336 137.432 66.0241C137.463 65.7117 137.737 65.48 138.053 65.5141L140.415 65.7441C140.727 65.7742 140.956 66.0525 140.925 66.3644C140.897 66.6575 140.65 66.8773 140.36 66.8773Z" fill="white"/>
<path d="M130.645 55.8412C131.007 55.9746 131.463 55.9059 131.906 55.865C132.352 55.8145 132.801 55.7741 133.193 55.7537C133.585 55.7327 134.036 55.7236 134.485 55.7264C134.931 55.7196 135.394 55.7383 135.734 55.5668C136.063 55.4061 136.178 54.9909 135.752 54.5115C135.352 54.0434 134.344 53.5657 133.046 53.6322C131.749 53.7055 130.814 54.2882 130.482 54.7955C130.126 55.3175 130.297 55.7168 130.645 55.8412Z" fill="#233863"/>
<path d="M150.21 59.1726C149.824 59.1675 149.424 58.9397 149.025 58.7421C148.626 58.5342 148.221 58.336 147.864 58.1758C147.505 58.015 147.087 57.8446 146.667 57.6856C146.254 57.5186 145.815 57.3704 145.559 57.0886C145.31 56.8205 145.352 56.3917 145.922 56.0969C146.463 55.8038 147.576 55.7203 148.763 56.2491C149.947 56.783 150.61 57.6623 150.738 58.2559C150.883 58.8704 150.58 59.1823 150.21 59.1726Z" fill="#233863"/>
<path d="M109.835 63.719C109.708 63.719 109.593 63.6338 109.56 63.5055C109.521 63.3532 109.612 63.1987 109.764 63.1595L111.788 62.6393L110.869 59.2466C110.828 59.0949 110.917 58.9393 111.068 58.8984C111.222 58.8552 111.376 58.9467 111.416 59.0983L112.487 63.0471L109.904 63.7105C109.882 63.7162 109.858 63.719 109.835 63.719Z" fill="#FB8E77"/>
<path d="M182.054 120.242H166.403C164.871 120.242 163.629 119.001 163.629 117.469V87.3888C163.629 85.8569 164.871 84.6152 166.403 84.6152H182.054C183.586 84.6152 184.828 85.8569 184.828 87.3888V117.469C184.828 119 183.586 120.242 182.054 120.242Z" fill="#233863"/>
<path d="M195.459 146.507L193.718 114.933L194.131 111.102C194.708 105.742 193.128 100.383 189.775 96.1631C189.455 95.7615 189.14 95.3622 188.827 94.9845V89.8322C188.827 88.7075 187.915 87.7959 186.791 87.7959C185.706 87.7959 184.827 88.6752 184.827 89.76V91.7157C184.827 95.4344 181.815 98.4499 178.096 98.455L172.218 98.4629L163.422 97.7115C162.278 97.6138 161.262 98.4698 161.164 99.6143C161.084 100.553 161.651 101.397 162.488 101.727C162.411 101.75 162.333 101.775 162.254 101.803L162.009 101.782C160.865 101.684 159.849 102.54 159.751 103.685C159.653 104.829 160.509 105.845 161.653 105.942L161.659 105.943C161.301 106.272 161.049 106.719 160.991 107.237C160.864 108.379 161.693 109.417 162.834 109.544L163.758 109.647C163.8 109.678 163.84 109.708 163.885 109.739C163.885 109.739 163.908 109.785 163.95 109.859C163.372 110.094 162.921 110.609 162.812 111.266C162.643 112.272 163.328 113.233 164.334 113.401C164.334 113.401 170.803 115.531 173.596 116.318L171.231 128.566L170.727 131.177L167.529 130.595L157.571 136.274L158.898 140.02C160.711 145.133 160.137 150.935 157.371 155.453L156.152 157.444L161.017 159.442C167.159 161.965 176.045 164.588 182.626 163.026C184.761 162.52 186.417 161.907 187.703 161.183C192.442 158.708 195.738 153.06 195.459 146.507Z" fill="#FFBA94"/>
<path d="M171.374 102.674C171.366 102.674 171.358 102.674 171.349 102.673L162.334 101.904C162.178 101.891 162.062 101.752 162.075 101.597C162.088 101.441 162.233 101.325 162.383 101.338L171.398 102.107C171.554 102.121 171.669 102.259 171.656 102.414C171.643 102.562 171.52 102.674 171.374 102.674Z" fill="#FB8E77"/>
<path d="M171.554 106.881C171.545 106.881 171.537 106.88 171.529 106.879L162.513 106.11C162.358 106.097 162.241 105.959 162.255 105.803C162.268 105.647 162.41 105.53 162.562 105.544L171.578 106.314C171.733 106.327 171.849 106.465 171.836 106.62C171.824 106.769 171.7 106.881 171.554 106.881Z" fill="#FB8E77"/>
<path d="M173.042 111.077C173.031 111.077 173.02 111.076 173.009 111.075L164.021 110.034C163.865 110.015 163.753 109.875 163.771 109.719C163.79 109.563 163.936 109.452 164.087 109.47L173.075 110.511C173.23 110.53 173.342 110.67 173.324 110.826C173.307 110.971 173.184 111.077 173.042 111.077Z" fill="#FB8E77"/>
<path d="M167.046 146.309C167.025 146.309 167.002 146.307 166.98 146.301C166.827 146.265 166.733 146.113 166.77 145.959L171.277 126.846C171.312 126.694 171.461 126.597 171.619 126.635C171.771 126.672 171.865 126.824 171.829 126.977L167.322 146.091C167.291 146.221 167.175 146.309 167.046 146.309Z" fill="#FB8E77"/>
<path d="M157.436 136.677L151.695 123.39C151.633 123.246 151.699 123.079 151.843 123.017C151.987 122.954 152.154 123.02 152.217 123.165L157.706 135.87L167.703 130.169C167.839 130.093 168.013 130.139 168.091 130.275C168.169 130.412 168.121 130.586 167.985 130.663L157.436 136.677Z" fill="#374081"/>
</g>
<defs>
<clipPath id="clip0_1998_43189">
<rect width="284" height="218" fill="white"/>
</clipPath>
</defs>
</svg>
