<svg width="20" height="20" viewBox="0 0 20 20" fill="none" xmlns="http://www.w3.org/2000/svg">
    <path d="M9.9974 18.3327C14.5998 18.3327 18.3307 14.6017 18.3307 9.99935C18.3307 5.39698 14.5998 1.66602 9.9974 1.66602C5.39502 1.66602 1.66406 5.39698 1.66406 9.99935C1.66406 14.6017 5.39502 18.3327 9.9974 18.3327Z" stroke="#6F65AD" stroke-width="1.5" stroke-linecap="round" stroke-linejoin="round"/>
    <path d="M9.9974 13.3327C11.8383 13.3327 13.3307 11.8403 13.3307 9.99935C13.3307 8.1584 11.8383 6.66602 9.9974 6.66602C8.15645 6.66602 6.66406 8.1584 6.66406 9.99935C6.66406 11.8403 8.15645 13.3327 9.9974 13.3327Z" stroke="#6F65AD" stroke-width="1.5" stroke-linecap="round" stroke-linejoin="round"/>
    <path d="M4.10938 4.10742L7.64271 7.64076" stroke="#6F65AD" stroke-width="1.5" stroke-linecap="round" stroke-linejoin="round"/>
    <path d="M12.3594 12.3574L15.8927 15.8908" stroke="#6F65AD" stroke-width="1.5" stroke-linecap="round" stroke-linejoin="round"/>
    <path d="M12.3594 7.64076L15.8927 4.10742" stroke="#6F65AD" stroke-width="1.5" stroke-linecap="round" stroke-linejoin="round"/>
    <path d="M12.3594 7.64089L15.301 4.69922" stroke="#6F65AD" stroke-width="1.5" stroke-linecap="round" stroke-linejoin="round"/>
    <path d="M4.10938 15.8908L7.64271 12.3574" stroke="#6F65AD" stroke-width="1.5" stroke-linecap="round" stroke-linejoin="round"/>
</svg>
