<svg width="23" height="26" viewBox="0 0 23 26" fill="none" xmlns="http://www.w3.org/2000/svg">
<path opacity="0.8" d="M19.3256 5.20438C17.9219 4.29259 16.9097 2.83307 16.5934 1.13258C16.5255 0.765255 16.4876 0.386861 16.4876 0H12.0087L12.0015 17.8894C11.9264 19.8927 10.2718 21.5007 8.24412 21.5007C7.61352 21.5007 7.02018 21.3438 6.49741 21.0696C5.29895 20.4411 4.47885 19.1893 4.47885 17.7487C4.47885 15.6796 6.16806 13.996 8.24346 13.996C8.63097 13.996 9.00279 14.0598 9.35435 14.1693V9.61225C8.99037 9.56275 8.62051 9.53214 8.24346 9.53214C3.69796 9.53214 0 13.2177 0 17.7487C0 20.5284 1.39319 22.9882 3.51956 24.4758C4.85851 25.413 6.4876 25.9646 8.24412 25.9646C12.7896 25.9646 16.4876 22.279 16.4876 17.7487V8.67701C18.2441 9.93333 20.3966 10.6738 22.719 10.6738V6.20996C21.4683 6.20996 20.3032 5.83938 19.3256 5.20438Z" fill="black"/>
</svg>
