<svg width="23" height="21" viewBox="0 0 23 21" fill="none" xmlns="http://www.w3.org/2000/svg">
<path fill-rule="evenodd" clip-rule="evenodd" d="M23 10.5898C19.499 11.6939 16.7549 14.3639 15.6198 17.7715C14.4846 14.3639 11.7403 11.6939 8.23943 10.5898C11.7403 9.48533 14.4846 6.81545 15.6198 3.40932C16.7549 6.81545 19.499 9.48533 23 10.5898Z" fill="#242424"/>
<path fill-rule="evenodd" clip-rule="evenodd" d="M7.49946 2.50497C6.27811 2.89019 5.32076 3.82163 4.92477 5.01042C4.52878 3.82163 3.5714 2.89019 2.35005 2.50497C3.5714 2.1197 4.52878 1.18826 4.92477 0C5.32076 1.18826 6.27811 2.1197 7.49946 2.50497Z" fill="#242424"/>
<path fill-rule="evenodd" clip-rule="evenodd" d="M7.63922 17.2832C5.82732 17.8547 4.40707 19.2365 3.81962 21C3.23216 19.2365 1.81189 17.8547 0 17.2832C1.81189 16.7116 3.23216 15.3298 3.81962 13.567C4.40707 15.3298 5.82732 16.7116 7.63922 17.2832Z" fill="#242424"/>
</svg>
