<svg width="23" height="21" viewBox="0 0 23 21" fill="none" xmlns="http://www.w3.org/2000/svg">
    <path fill-rule="evenodd" clip-rule="evenodd" d="M23 10.5898C19.499 11.6939 16.7549 14.3639 15.6198 17.7715C14.4846 14.3639 11.7404 11.6939 8.23943 10.5898C11.7404 9.48533 14.4846 6.81545 15.6198 3.40932C16.7549 6.81545 19.499 9.48533 23 10.5898Z" fill="#209A75" fill-opacity="0.6"/>
    <path fill-rule="evenodd" clip-rule="evenodd" d="M23 10.5898C19.499 11.6939 16.7549 14.3639 15.6198 17.7715C14.4846 14.3639 11.7404 11.6939 8.23943 10.5898C11.7404 9.48533 14.4846 6.81545 15.6198 3.40932C16.7549 6.81545 19.499 9.48533 23 10.5898Z" fill="url(#paint0_linear_521_5044)" fill-opacity="0.4"/>
    <path fill-rule="evenodd" clip-rule="evenodd" d="M7.49946 2.50497C6.27811 2.89019 5.32076 3.82163 4.92477 5.01042C4.52878 3.82163 3.5714 2.89019 2.35005 2.50497C3.5714 2.1197 4.52878 1.18826 4.92477 0C5.32076 1.18826 6.27811 2.1197 7.49946 2.50497Z" fill="#209A75" fill-opacity="0.6"/>
    <path fill-rule="evenodd" clip-rule="evenodd" d="M7.49946 2.50497C6.27811 2.89019 5.32076 3.82163 4.92477 5.01042C4.52878 3.82163 3.5714 2.89019 2.35005 2.50497C3.5714 2.1197 4.52878 1.18826 4.92477 0C5.32076 1.18826 6.27811 2.1197 7.49946 2.50497Z" fill="url(#paint1_linear_521_5044)" fill-opacity="0.4"/>
    <path fill-rule="evenodd" clip-rule="evenodd" d="M7.63922 17.2832C5.82732 17.8547 4.40707 19.2364 3.81962 21C3.23216 19.2364 1.81189 17.8547 0 17.2832C1.81189 16.7116 3.23216 15.3298 3.81962 13.567C4.40707 15.3298 5.82732 16.7116 7.63922 17.2832Z" fill="#209A75" fill-opacity="0.6"/>
    <path fill-rule="evenodd" clip-rule="evenodd" d="M7.63922 17.2832C5.82732 17.8547 4.40707 19.2364 3.81962 21C3.23216 19.2364 1.81189 17.8547 0 17.2832C1.81189 16.7116 3.23216 15.3298 3.81962 13.567C4.40707 15.3298 5.82732 16.7116 7.63922 17.2832Z" fill="url(#paint2_linear_521_5044)" fill-opacity="0.4"/>
    <path d="M3.81934 14.7949C4.40756 15.8449 5.2914 16.7072 6.36328 17.2832C5.29172 17.859 4.40756 18.7207 3.81934 19.7705C3.23103 18.7206 2.34706 17.859 1.27539 17.2832C2.34738 16.7073 3.23102 15.8449 3.81934 14.7949ZM15.6191 4.75977C16.8159 7.34674 18.9404 9.41814 21.5879 10.5889C18.9403 11.7593 16.816 13.8321 15.6191 16.4199C14.422 13.832 12.2982 11.7592 9.65039 10.5889C12.2981 9.41829 14.4221 7.34682 15.6191 4.75977ZM4.9248 1.14258C5.27979 1.69202 5.75472 2.15678 6.31445 2.50488C5.755 2.8528 5.27974 3.31702 4.9248 3.86621C4.56972 3.3168 4.09392 2.85285 3.53418 2.50488C4.0942 2.15673 4.56967 1.69225 4.9248 1.14258Z" stroke="white" stroke-opacity="0.1"/>
    <defs>
        <linearGradient id="paint0_linear_521_5044" x1="11.5" y1="21" x2="11.5" y2="0" gradientUnits="userSpaceOnUse">
            <stop stop-color="white" stop-opacity="0"/>
            <stop offset="1" stop-color="white"/>
        </linearGradient>
        <linearGradient id="paint1_linear_521_5044" x1="11.5" y1="21" x2="11.5" y2="0" gradientUnits="userSpaceOnUse">
            <stop stop-color="white" stop-opacity="0"/>
            <stop offset="1" stop-color="white"/>
        </linearGradient>
        <linearGradient id="paint2_linear_521_5044" x1="11.5" y1="21" x2="11.5" y2="0" gradientUnits="userSpaceOnUse">
            <stop stop-color="white" stop-opacity="0"/>
            <stop offset="1" stop-color="white"/>
        </linearGradient>
    </defs>
</svg>
