<svg width="20" height="22" viewBox="0 0 20 22" fill="none" xmlns="http://www.w3.org/2000/svg">
    <path d="M9.81 9.63889C12.3119 9.63889 14.34 7.64904 14.34 5.19444C14.34 2.73985 12.3119 0.75 9.81 0.75C7.30815 0.75 5.28 2.73985 5.28 5.19444C5.28 7.64904 7.30815 9.63889 9.81 9.63889Z" fill="#242424"/>
    <path d="M18.87 20.75V18.5278C18.87 17.349 18.3927 16.2186 17.5432 15.3851C16.6937 14.5516 15.5414 14.0833 14.34 14.0833H5.28C4.07857 14.0833 2.92635 14.5516 2.07681 15.3851C1.22727 16.2186 0.75 17.349 0.75 18.5278V20.75M14.34 5.19444C14.34 7.64904 12.3119 9.63889 9.81 9.63889C7.30815 9.63889 5.28 7.64904 5.28 5.19444C5.28 2.73985 7.30815 0.75 9.81 0.75C12.3119 0.75 14.34 2.73985 14.34 5.19444Z" stroke="#242424" stroke-width="1.5" stroke-linecap="round" stroke-linejoin="round"/>
</svg>
